<!-- Generated by readme-aura https://github.com/collectioneur/readme-aura -->
<svg width="800" height="220" viewBox="0 0 800 220" xmlns="http://www.w3.org/2000/svg"><mask id="satori_om-id"><rect x="0" y="0" width="800" height="220" fill="#fff"/></mask><defs><clipPath id="satori_bc-id-0"><path x="0" y="0" width="332" height="220" d="M16,0 h300 a16,16 0 0 1 16,16 v188 a16,16 0 0 1 -16,16 h-300 a16,16 0 0 1 -16,-16 v-188 a16,16 0 0 1 16,-16"/></clipPath></defs><clipPath id="satori_cp-id-0"><path x="0" y="0" width="332" height="220" d="M16,0 h300 a16,16 0 0 1 16,16 v188 a16,16 0 0 1 -16,16 h-300 a16,16 0 0 1 -16,-16 v-188 a16,16 0 0 1 16,-16"/></clipPath><mask id="satori_om-id-0"><rect x="1" y="1" width="330" height="218" fill="#fff"/><path width="332" height="220" fill="none" stroke="#000" stroke-width="2" d="M4.686,4.686 A16,16 0 0 1 16,0 h300 a16,16 0 0 1 16,16 v188 a16,16 0 0 1 -16,16 h-300 a16,16 0 0 1 -16,-16 v-188 A16,16 0 0 1 4.686,4.686"/></mask><path x="0" y="0" width="332" height="220" fill="rgba(255,255,255,0.02)" d="M16,0 h300 a16,16 0 0 1 16,16 v188 a16,16 0 0 1 -16,16 h-300 a16,16 0 0 1 -16,-16 v-188 a16,16 0 0 1 16,-16"/><path width="332" height="220" clip-path="url(#satori_bc-id-0)" fill="none" stroke="rgba(255,255,255,0.08)" stroke-width="2" d="M4.686,4.686 A16,16 0 0 1 16,0 h300 a16,16 0 0 1 16,16 v188 a16,16 0 0 1 -16,16 h-300 a16,16 0 0 1 -16,-16 v-188 A16,16 0 0 1 4.686,4.686"/><clipPath id="satori_cp-id-0-0" clip-path="url(#satori_cp-id-0)"><rect x="1" y="1" width="330" height="218"/></clipPath><mask id="satori_om-id-0-0"><rect x="1" y="1" width="330" height="218" fill="#fff" mask="url(#satori_om-id-0)"/></mask><svg x="1" y="1" width="330" height="218" preserveAspectRatio="none" clip-path="url(#satori_cp-id-0-0)" mask="url(#satori_om-id-0-0)"><defs><radialGradient id="ab-glow" cx="0%" cy="100%" r="90%"><stop offset="0%" stop-color="rgba(42, 157, 143, 0.25)"></stop><stop offset="100%" stop-color="rgba(42, 157, 143, 0)"></stop></radialGradient></defs><rect className="ambient-anim" width="100%" height="100%" fill="url(#ab-glow)"></rect><style>

    @keyframes subtle-pulse {
      0%, 100% { opacity: 0.7; transform: scale(1); }
      50% { opacity: 1; transform: scale(1.05); }
    }
    .ambient-anim { animation: subtle-pulse 6s ease-in-out infinite; }
  
</style>
</svg><mask id="satori_om-id-0-0-0"><rect x="1" y="1" width="0" height="218" fill="#fff" mask="url(#satori_om-id-0)"/></mask><mask id="satori_om-id-0-0-0-0"><rect x="1" y="1" width="0" height="218" fill="#fff" mask="url(#satori_om-id-0)"/></mask><mask id="satori_om-id-0-0-0-0-0"><rect x="1" y="1" width="0" height="218" fill="#fff" mask="url(#satori_om-id-0)"/></mask><mask id="satori_om-id-0-0-0-0-1"><rect x="1" y="1" width="0" height="218" fill="#fff" mask="url(#satori_om-id-0)"/></mask><mask id="satori_om-id-0-0-1"><rect x="1" y="1" width="0" height="218" fill="#fff" mask="url(#satori_om-id-0)"/></mask><mask id="satori_om-id-0-1"><rect x="1" y="1" width="330" height="218" fill="#fff" mask="url(#satori_om-id-0)"/></mask><mask id="satori_om-id-0-1-0"><rect x="31" y="41" width="270" height="13" fill="#fff" mask="url(#satori_om-id-0)"/></mask><g mask="url(#satori_om-id-0)" clip-path="url(#satori_cp-id-0)"><path fill="rgba(255,255,255,0.4)" d="M33.1 52L31.3 52L34.0 44.0L36.1 44.0L38.9 52L37.1 52L36.5 50.1L33.7 50.1L33.1 52ZM34.1 48.9L36.1 48.9L35.8 48.1Q35.6 47.4 35.4 46.5L35.4 46.5Q35.2 45.9 35.1 45.3L35.1 45.3Q34.9 45.9 34.8 46.5L34.8 46.5Q34.5 47.4 34.3 48.1L34.3 48.1L34.1 48.9ZM47.3 52L43.9 52L43.9 44.0L47.1 44.0Q48.0 44.0 48.6 44.3Q49.2 44.5 49.5 45.0Q49.8 45.5 49.8 46.1L49.8 46.1Q49.8 46.5 49.6 46.9Q49.4 47.2 49.1 47.5Q48.7 47.7 48.3 47.8L48.3 47.8L48.3 47.9Q48.8 47.9 49.2 48.1Q49.6 48.3 49.8 48.8Q50.1 49.2 50.1 49.8L50.1 49.8Q50.1 50.4 49.8 50.9Q49.4 51.4 48.8 51.7Q48.2 52 47.3 52L47.3 52ZM45.6 48.5L45.6 50.7L47.0 50.7Q47.7 50.7 48.0 50.4Q48.4 50.1 48.4 49.6L48.4 49.6Q48.4 49.3 48.2 49.0Q48.1 48.8 47.8 48.6Q47.5 48.5 47.0 48.5L47.0 48.5L45.6 48.5ZM45.6 45.3L45.6 47.4L46.9 47.4Q47.2 47.4 47.5 47.2Q47.8 47.1 47.9 46.9Q48.1 46.6 48.1 46.3L48.1 46.3Q48.1 45.9 47.8 45.6Q47.5 45.3 46.9 45.3L46.9 45.3L45.6 45.3ZM58.7 52.1L58.7 52.1Q57.7 52.1 56.8 51.6Q56.0 51.1 55.5 50.2Q55.0 49.3 55.0 48.0L55.0 48.0Q55.0 46.7 55.5 45.8Q56.0 44.9 56.8 44.4Q57.7 43.9 58.7 43.9L58.7 43.9Q59.8 43.9 60.6 44.4Q61.5 44.9 62.0 45.8Q62.5 46.7 62.5 48.0L62.5 48.0Q62.5 49.3 62.0 50.2Q61.5 51.1 60.6 51.6Q59.8 52.1 58.7 52.1ZM58.7 50.7L58.7 50.7Q59.4 50.7 59.8 50.3Q60.3 50.0 60.5 49.5Q60.8 48.9 60.8 48.0L60.8 48.0Q60.8 47.1 60.5 46.5Q60.3 46.0 59.8 45.6Q59.4 45.3 58.7 45.3L58.7 45.3Q58.1 45.3 57.6 45.7Q57.2 46.0 56.9 46.6Q56.7 47.1 56.7 48.0L56.7 48.0Q56.7 48.9 56.9 49.4Q57.2 50.0 57.6 50.3Q58.1 50.7 58.7 50.7ZM71.0 52.1L71.0 52.1Q70.0 52.1 69.3 51.7Q68.5 51.4 68.1 50.7Q67.7 50.1 67.7 49.2L67.7 49.2L67.7 44.0L69.3 44.0L69.3 49.1Q69.3 49.5 69.5 49.9Q69.7 50.2 70.1 50.5Q70.5 50.7 71.0 50.7L71.0 50.7Q71.5 50.7 71.9 50.5Q72.2 50.2 72.4 49.9Q72.7 49.5 72.7 49.1L72.7 49.1L72.7 44.0L74.3 44.0L74.3 49.2Q74.3 50.1 73.9 50.7Q73.5 51.4 72.7 51.7Q72.0 52.1 71.0 52.1ZM81.9 45.4L79.4 45.4L79.4 44.0L86.0 44.0L86.0 45.4L83.5 45.4L83.5 52L81.9 52L81.9 45.4Z "/></g><mask id="satori_om-id-0-1-1"><rect x="31" y="64" width="270" height="58" fill="#fff" mask="url(#satori_om-id-0)"/></mask><g mask="url(#satori_om-id-0)" clip-path="url(#satori_cp-id-0)"><path fill="#f8f9fa" d="M39.2 86L32.5 86L32.5 70.0L38.8 70.0Q40.6 70.0 41.7 70.5Q42.9 71.1 43.5 72.0Q44.1 72.9 44.1 74.1L44.1 74.1Q44.1 75.1 43.7 75.8Q43.3 76.5 42.7 76.9Q42.0 77.4 41.2 77.5L41.2 77.5L41.2 77.7Q42.1 77.7 42.9 78.2Q43.7 78.7 44.2 79.5Q44.7 80.4 44.7 81.6L44.7 81.6Q44.7 82.9 44.1 83.9Q43.5 84.9 42.2 85.4Q41.0 86 39.2 86L39.2 86ZM35.7 79.0L35.7 83.3L38.6 83.3Q40.0 83.3 40.7 82.7Q41.3 82.2 41.3 81.3L41.3 81.3Q41.3 80.6 41.0 80.1Q40.7 79.6 40.1 79.3Q39.5 79.0 38.6 79.0L38.6 79.0L35.7 79.0ZM35.7 72.7L35.7 76.7L38.3 76.7Q39.0 76.7 39.6 76.5Q40.1 76.2 40.4 75.7Q40.8 75.3 40.8 74.6L40.8 74.6Q40.8 73.8 40.1 73.2Q39.5 72.7 38.4 72.7L38.4 72.7L35.7 72.7ZM51.1 86.2L51.1 86.2Q49.8 86.2 48.9 85.6Q48.0 85.1 47.4 84.1Q46.9 83.0 46.9 81.6L46.9 81.6L46.9 74.0L50.2 74.0L50.2 81.1Q50.2 82.2 50.7 82.8Q51.3 83.5 52.3 83.5L52.3 83.5Q53.0 83.5 53.5 83.2Q54.1 82.9 54.4 82.3Q54.7 81.7 54.7 80.9L54.7 80.9L54.7 74.0L57.9 74.0L57.9 86L54.8 86L54.8 83.5Q54.3 84.7 53.5 85.3L53.5 85.3Q52.6 86.2 51.1 86.2ZM63.8 86L60.6 86L60.6 74.0L63.8 74.0L63.8 86ZM62.2 72.4L62.2 72.4Q61.5 72.4 61.0 71.9Q60.5 71.5 60.5 70.8L60.5 70.8Q60.5 70.1 61.0 69.6Q61.5 69.1 62.2 69.1L62.2 69.1Q63.0 69.1 63.5 69.6Q64.0 70.1 64.0 70.8L64.0 70.8Q64.0 71.5 63.5 71.9Q63.0 72.4 62.2 72.4ZM66.6 70.0L69.8 70.0L69.8 86L66.6 86L66.6 70.0ZM76.9 86.2L76.9 86.2Q75.6 86.2 74.4 85.5Q73.3 84.8 72.7 83.4Q72.0 82.0 72.0 80.0L72.0 80.0Q72.0 78.0 72.7 76.6Q73.4 75.2 74.5 74.5Q75.6 73.8 76.9 73.8L76.9 73.8Q77.9 73.8 78.6 74.2Q79.3 74.5 79.7 75.0Q80.1 75.5 80.3 76.0L80.3 76.0L80.4 76.0L80.4 70.0L83.7 70.0L83.7 86L80.5 86L80.5 84.1L80.3 84.1Q80.1 84.6 79.7 85.0Q79.3 85.5 78.6 85.9Q77.9 86.2 76.9 86.2ZM77.9 83.6L77.9 83.6Q78.7 83.6 79.3 83.2Q79.9 82.7 80.2 81.9Q80.5 81.1 80.5 80.0L80.5 80.0Q80.5 78.9 80.2 78.1Q79.9 77.3 79.3 76.9Q78.8 76.4 77.9 76.4L77.9 76.4Q77.1 76.4 76.5 76.9Q75.9 77.3 75.6 78.1Q75.4 79.0 75.4 80.0L75.4 80.0Q75.4 81.1 75.6 81.9Q75.9 82.7 76.5 83.2Q77.1 83.6 77.9 83.6ZM89.6 86L86.4 86L86.4 74.0L89.6 74.0L89.6 86ZM88.0 72.4L88.0 72.4Q87.3 72.4 86.8 71.9Q86.3 71.5 86.3 70.8L86.3 70.8Q86.3 70.1 86.8 69.6Q87.3 69.1 88.0 69.1L88.0 69.1Q88.8 69.1 89.3 69.6Q89.8 70.1 89.8 70.8L89.8 70.8Q89.8 71.5 89.3 71.9Q88.8 72.4 88.0 72.4ZM95.6 79.0L95.6 79.0L95.6 86L92.4 86L92.4 74.0L95.4 74.0L95.5 76.5Q95.9 75.3 96.7 74.7L96.7 74.7Q97.7 73.8 99.2 73.8L99.2 73.8Q100.4 73.8 101.4 74.4Q102.3 74.9 102.8 75.9Q103.3 77.0 103.3 78.4L103.3 78.4L103.3 86L100.1 86L100.1 78.9Q100.1 77.8 99.5 77.2Q99.0 76.5 97.9 76.5L97.9 76.5Q97.3 76.5 96.7 76.8Q96.2 77.1 95.9 77.7Q95.6 78.2 95.6 79.0ZM111.4 90.7L111.4 90.7Q109.9 90.7 108.8 90.4Q107.7 90.0 107.0 89.3Q106.3 88.7 106.0 87.8L106.0 87.8L108.8 87.0Q108.9 87.4 109.3 87.7Q109.6 88.0 110.1 88.2Q110.6 88.4 111.4 88.4L111.4 88.4Q112.6 88.4 113.3 87.8Q114.0 87.3 114.0 86.1L114.0 86.1L114.0 83.9L113.8 83.9Q113.6 84.4 113.2 84.8Q112.8 85.3 112.1 85.5Q111.4 85.8 110.5 85.8L110.5 85.8Q109.1 85.8 108 85.2Q106.9 84.6 106.2 83.3Q105.6 82.0 105.6 80.0L105.6 80.0Q105.6 77.9 106.2 76.6Q106.9 75.2 108.0 74.5Q109.1 73.8 110.5 73.8L110.5 73.8Q111.5 73.8 112.2 74.2Q112.9 74.5 113.3 75.0Q113.7 75.5 113.9 76.0L113.9 76.0L114.1 76.0L114.1 74.0L117.2 74.0L117.2 85.9Q117.2 87.5 116.5 88.6Q115.7 89.7 114.4 90.2Q113.1 90.7 111.4 90.7ZM111.5 83.4L111.5 83.4Q112.3 83.4 112.9 83.0Q113.4 82.6 113.7 81.8Q114.0 81.0 114.0 80.0L114.0 80.0Q114.0 78.9 113.7 78.1Q113.4 77.3 112.9 76.9Q112.3 76.4 111.5 76.4L111.5 76.4Q110.6 76.4 110.0 76.9Q109.5 77.3 109.2 78.1Q108.9 78.9 108.9 80.0L108.9 80.0Q108.9 81.0 109.2 81.8Q109.5 82.5 110.1 83.0Q110.6 83.4 111.5 83.4Z M128.6 86L125.4 86L125.4 74.0L128.5 74.0L128.5 76.1L128.6 76.1Q129.0 75.0 129.7 74.4Q130.5 73.8 131.5 73.8L131.5 73.8Q131.8 73.8 132.1 73.9Q132.3 73.9 132.6 73.9L132.6 73.9L132.6 76.8Q132.3 76.7 131.9 76.7Q131.5 76.7 131.2 76.7L131.2 76.7Q130.4 76.7 129.8 77.0Q129.3 77.3 128.9 77.9Q128.6 78.4 128.6 79.2L128.6 79.2L128.6 86ZM139.7 86.2L139.7 86.2Q137.9 86.2 136.6 85.5Q135.3 84.7 134.5 83.3Q133.8 81.9 133.8 80.0L133.8 80.0Q133.8 78.2 134.5 76.8Q135.3 75.4 136.6 74.6Q137.9 73.8 139.7 73.8L139.7 73.8Q141.5 73.8 142.8 74.6Q144.2 75.4 144.9 76.8Q145.6 78.2 145.6 80.0L145.6 80.0Q145.6 81.9 144.9 83.3Q144.2 84.7 142.8 85.5Q141.5 86.2 139.7 86.2ZM139.7 83.7L139.7 83.7Q140.6 83.7 141.1 83.2Q141.7 82.7 142.0 81.9Q142.3 81.1 142.3 80.0L142.3 80.0Q142.3 79.0 142.0 78.1Q141.7 77.3 141.1 76.8Q140.6 76.4 139.7 76.4L139.7 76.4Q138.8 76.4 138.3 76.8Q137.7 77.3 137.4 78.1Q137.1 79.0 137.1 80.0L137.1 80.0Q137.1 81.1 137.4 81.9Q137.7 82.7 138.3 83.2Q138.8 83.7 139.7 83.7ZM154.6 86.2L154.6 86.2Q153.6 86.2 152.9 85.9Q152.2 85.5 151.8 85.0Q151.4 84.6 151.1 84.1L151.1 84.1L151.0 84.1L151.0 86L147.8 86L147.8 70.0L151.0 70.0L151.0 76.0L151.1 76.0Q151.4 75.5 151.8 75.0Q152.2 74.5 152.9 74.2Q153.6 73.8 154.6 73.8L154.6 73.8Q155.9 73.8 157.0 74.5Q158.1 75.2 158.8 76.6Q159.4 78.0 159.4 80.0L159.4 80.0Q159.4 82.0 158.8 83.4Q158.1 84.8 157.0 85.5Q155.9 86.2 154.6 86.2ZM153.6 83.6L153.6 83.6Q154.4 83.6 155.0 83.2Q155.5 82.7 155.8 81.9Q156.1 81.1 156.1 80.0L156.1 80.0Q156.1 79.0 155.8 78.1Q155.5 77.3 155.0 76.9Q154.4 76.4 153.6 76.4L153.6 76.4Q152.7 76.4 152.2 76.9Q151.6 77.3 151.3 78.1Q151.0 78.9 151.0 80.0L151.0 80.0Q151.0 81.1 151.3 81.9Q151.6 82.7 152.2 83.2Q152.7 83.6 153.6 83.6ZM165.8 86.2L165.8 86.2Q164.6 86.2 163.6 85.6Q162.7 85.1 162.2 84.1Q161.7 83.0 161.7 81.6L161.7 81.6L161.7 74.0L164.9 74.0L164.9 81.1Q164.9 82.2 165.5 82.8Q166.1 83.5 167.1 83.5L167.1 83.5Q167.8 83.5 168.3 83.2Q168.8 82.9 169.1 82.3Q169.4 81.7 169.4 80.9L169.4 80.9L169.4 74.0L172.7 74.0L172.7 86L169.6 86L169.6 83.5Q169.1 84.7 168.3 85.3L168.3 85.3Q167.3 86.2 165.8 86.2ZM180.2 86.2L180.2 86.2Q178.7 86.2 177.6 85.8Q176.5 85.4 175.8 84.6Q175.1 83.8 174.9 82.7L174.9 82.7L177.9 82.2Q178.1 83.0 178.7 83.5Q179.3 83.9 180.3 83.9L180.3 83.9Q181.2 83.9 181.7 83.5Q182.2 83.2 182.2 82.6L182.2 82.6Q182.2 82.2 181.9 81.9Q181.5 81.6 180.7 81.4L180.7 81.4L178.6 81.0Q176.9 80.6 176.0 79.8Q175.2 78.9 175.2 77.6L175.2 77.6Q175.2 76.4 175.8 75.6Q176.4 74.7 177.6 74.3Q178.7 73.8 180.2 73.8L180.2 73.8Q181.6 73.8 182.7 74.2Q183.7 74.6 184.4 75.3Q185.0 76.1 185.2 77.0L185.2 77.0L182.4 77.5Q182.2 76.9 181.7 76.5Q181.1 76.1 180.3 76.1L180.3 76.1Q179.5 76.1 178.9 76.5Q178.4 76.8 178.4 77.4L178.4 77.4Q178.4 77.8 178.7 78.1Q179.1 78.4 179.9 78.6L179.9 78.6L182.1 79.0Q183.8 79.4 184.7 80.2Q185.5 81.0 185.5 82.3L185.5 82.3Q185.5 83.5 184.8 84.4Q184.2 85.2 182.9 85.7Q181.7 86.2 180.2 86.2ZM191.4 74.0L193.7 74.0L193.7 76.5L191.4 76.5L191.4 82.5Q191.4 83.1 191.7 83.3Q191.9 83.6 192.5 83.6L192.5 83.6Q192.7 83.6 193.0 83.6Q193.4 83.5 193.5 83.5L193.5 83.5L194.0 85.9Q193.5 86.0 192.9 86.1Q192.4 86.2 191.9 86.2L191.9 86.2Q190.1 86.2 189.2 85.3Q188.2 84.4 188.2 82.8L188.2 82.8L188.2 76.5L186.6 76.5L186.6 74.0L188.2 74.0L188.2 71.1L191.4 71.1L191.4 74.0Z M205.1 86.2L205.1 86.2Q203.7 86.2 202.6 85.8Q201.5 85.4 200.8 84.6Q200.0 83.8 199.8 82.7L199.8 82.7L202.8 82.2Q203.1 83.0 203.7 83.5Q204.3 83.9 205.2 83.9L205.2 83.9Q206.2 83.9 206.7 83.5Q207.2 83.2 207.2 82.6L207.2 82.6Q207.2 82.2 206.8 81.9Q206.5 81.6 205.7 81.4L205.7 81.4L203.6 81.0Q201.9 80.6 201.0 79.8Q200.1 78.9 200.1 77.6L200.1 77.6Q200.1 76.4 200.8 75.6Q201.4 74.7 202.5 74.3Q203.7 73.8 205.2 73.8L205.2 73.8Q206.6 73.8 207.7 74.2Q208.7 74.6 209.3 75.3Q210.0 76.1 210.2 77.0L210.2 77.0L207.3 77.5Q207.2 76.9 206.6 76.5Q206.1 76.1 205.2 76.1L205.2 76.1Q204.4 76.1 203.9 76.5Q203.4 76.8 203.4 77.4L203.4 77.4Q203.4 77.8 203.7 78.1Q204.1 78.4 204.9 78.6L204.9 78.6L207.1 79.0Q208.8 79.4 209.7 80.2Q210.5 81.0 210.5 82.3L210.5 82.3Q210.5 83.5 209.8 84.4Q209.1 85.2 207.9 85.7Q206.7 86.2 205.1 86.2ZM212.6 90.3L212.6 90.3L213.4 87.8L213.7 87.9Q214.4 88.1 214.9 88.0Q215.4 87.9 215.7 87.6Q216.0 87.3 216.1 86.7L216.1 86.7L216.2 86.0L211.7 74.0L215.1 74.0L217.1 80.2Q217.5 81.4 217.7 82.6L217.7 82.6Q217.8 83.0 217.9 83.4L217.9 83.4Q218.0 83.0 218.1 82.6L218.1 82.6Q218.3 81.4 218.7 80.2L218.7 80.2L220.8 74.0L224.2 74.0L219.1 87.4Q218.8 88.4 218.2 89.1Q217.6 89.8 216.8 90.2Q215.9 90.6 214.7 90.6L214.7 90.6Q214.1 90.6 213.5 90.5Q213.0 90.4 212.6 90.3ZM230.7 86.2L230.7 86.2Q229.3 86.2 228.1 85.8Q227.0 85.4 226.3 84.6Q225.6 83.8 225.4 82.7L225.4 82.7L228.4 82.2Q228.6 83.0 229.2 83.5Q229.8 83.9 230.8 83.9L230.8 83.9Q231.7 83.9 232.3 83.5Q232.8 83.2 232.8 82.6L232.8 82.6Q232.8 82.2 232.4 81.9Q232.0 81.6 231.2 81.4L231.2 81.4L229.2 81.0Q227.4 80.6 226.6 79.8Q225.7 78.9 225.7 77.6L225.7 77.6Q225.7 76.4 226.3 75.6Q227.0 74.7 228.1 74.3Q229.2 73.8 230.8 73.8L230.8 73.8Q232.2 73.8 233.2 74.2Q234.3 74.6 234.9 75.3Q235.6 76.1 235.8 77.0L235.8 77.0L232.9 77.5Q232.7 76.9 232.2 76.5Q231.7 76.1 230.8 76.1L230.8 76.1Q230.0 76.1 229.5 76.5Q228.9 76.8 228.9 77.4L228.9 77.4Q228.9 77.8 229.3 78.1Q229.6 78.4 230.5 78.6L230.5 78.6L232.6 79.0Q234.4 79.4 235.2 80.2Q236.1 81.0 236.1 82.3L236.1 82.3Q236.1 83.5 235.4 84.4Q234.7 85.2 233.5 85.7Q232.3 86.2 230.7 86.2ZM242.0 74.0L244.2 74.0L244.2 76.5L242.0 76.5L242.0 82.5Q242.0 83.1 242.2 83.3Q242.5 83.6 243.1 83.6L243.1 83.6Q243.3 83.6 243.6 83.6Q243.9 83.5 244.1 83.5L244.1 83.5L244.6 85.9Q244.0 86.0 243.5 86.1Q243.0 86.2 242.5 86.2L242.5 86.2Q240.7 86.2 239.7 85.3Q238.8 84.4 238.8 82.8L238.8 82.8L238.8 76.5L237.1 76.5L237.1 74.0L238.8 74.0L238.8 71.1L242.0 71.1L242.0 74.0ZM251.7 86.2L251.7 86.2Q249.9 86.2 248.6 85.5Q247.2 84.7 246.5 83.3Q245.8 82.0 245.8 80.1L245.8 80.1Q245.8 78.2 246.5 76.8Q247.2 75.4 248.5 74.6Q249.8 73.8 251.6 73.8L251.6 73.8Q252.8 73.8 253.8 74.2Q254.8 74.6 255.6 75.3Q256.4 76.1 256.8 77.2Q257.2 78.4 257.2 79.9L257.2 79.9L257.2 80.8L249.0 80.8Q249.0 81.7 249.4 82.4L249.4 82.4Q249.7 83.1 250.3 83.5Q251.0 83.8 251.8 83.8L251.8 83.8Q252.4 83.8 252.8 83.6Q253.3 83.5 253.6 83.2Q253.9 82.9 254.1 82.4L254.1 82.4L257.0 82.9Q256.8 83.9 256.0 84.7Q255.3 85.4 254.2 85.8Q253.2 86.2 251.7 86.2ZM249.0 78.8L249.0 78.8L254.1 78.8Q254.1 78.2 253.9 77.7L253.9 77.7Q253.6 77.0 253.0 76.6Q252.4 76.3 251.6 76.3L251.6 76.3Q250.8 76.3 250.2 76.7Q249.6 77.0 249.3 77.7L249.3 77.7Q249.1 78.2 249.0 78.8ZM262.6 86L259.4 86L259.4 74.0L262.4 74.0L262.5 76.3Q262.8 75.7 263.2 75.2L263.2 75.2Q263.7 74.5 264.4 74.1Q265.2 73.8 266.0 73.8L266.0 73.8Q267.3 73.8 268.1 74.6L268.1 74.6Q268.7 75.3 269.1 76.5L269.1 76.5Q269.3 75.8 269.7 75.3L269.7 75.3Q270.3 74.5 271.2 74.2Q272.0 73.8 272.9 73.8L272.9 73.8Q274.0 73.8 274.9 74.3Q275.8 74.8 276.3 75.7Q276.8 76.6 276.8 77.9L276.8 77.9L276.8 86L273.5 86L273.5 78.5Q273.5 77.5 273.0 77.0Q272.4 76.5 271.6 76.5L271.6 76.5Q271.0 76.5 270.6 76.8Q270.1 77.0 269.9 77.5Q269.6 78.0 269.6 78.6L269.6 78.6L269.6 86L266.5 86L266.5 78.4Q266.5 77.5 266.0 77.0Q265.5 76.5 264.7 76.5L264.7 76.5Q264.1 76.5 263.6 76.8Q263.2 77.0 262.9 77.5Q262.6 78.0 262.6 78.7L262.6 78.7L262.6 86ZM284.3 86.2L284.3 86.2Q282.8 86.2 281.7 85.8Q280.6 85.4 279.9 84.6Q279.2 83.8 279.0 82.7L279.0 82.7L282.0 82.2Q282.2 83.0 282.8 83.5Q283.4 83.9 284.4 83.9L284.4 83.9Q285.3 83.9 285.8 83.5Q286.4 83.2 286.4 82.6L286.4 82.6Q286.4 82.2 286.0 81.9Q285.6 81.6 284.8 81.4L284.8 81.4L282.7 81.0Q281.0 80.6 280.1 79.8Q279.3 78.9 279.3 77.6L279.3 77.6Q279.3 76.4 279.9 75.6Q280.5 74.7 281.7 74.3Q282.8 73.8 284.3 73.8L284.3 73.8Q285.7 73.8 286.8 74.2Q287.8 74.6 288.5 75.3Q289.1 76.1 289.3 77.0L289.3 77.0L286.5 77.5Q286.3 76.9 285.8 76.5Q285.2 76.1 284.4 76.1L284.4 76.1Q283.6 76.1 283.0 76.5Q282.5 76.8 282.5 77.4L282.5 77.4Q282.5 77.8 282.8 78.1Q283.2 78.4 284.0 78.6L284.0 78.6L286.2 79.0Q287.9 79.4 288.8 80.2Q289.6 81.0 289.6 82.3L289.6 82.3Q289.6 83.5 289.0 84.4Q288.3 85.2 287.1 85.7Q285.9 86.2 284.3 86.2Z M37.2 115.2L37.2 115.2Q35.6 115.2 34.4 114.6Q33.2 114.0 32.5 113.0Q31.9 112.0 31.9 110.8L31.9 110.8Q31.9 109.8 32.3 109.1Q32.6 108.4 33.3 107.7L33.3 107.7Q34.0 107.1 34.8 106.5L34.8 106.5Q34.8 106.5 34.7 106.4L34.7 106.4Q34.1 105.6 33.7 104.8Q33.3 103.9 33.3 102.9L33.3 102.9Q33.3 101.7 33.8 100.8Q34.4 99.9 35.3 99.3Q36.3 98.8 37.6 98.8L37.6 98.8Q38.9 98.8 39.8 99.3Q40.7 99.8 41.2 100.7Q41.7 101.5 41.7 102.6L41.7 102.6Q41.7 103.3 41.5 104.0Q41.2 104.6 40.7 105.2Q40.3 105.7 39.6 106.2L39.6 106.2L38.7 106.9L41.4 110.0Q41.5 109.7 41.6 109.4L41.6 109.4Q42.0 108.4 42.0 107.2L42.0 107.2L44.7 107.2Q44.7 108.7 44.4 109.9Q44.1 111.1 43.5 111.9L43.5 111.9Q43.4 112.1 43.3 112.2L43.3 112.2L45.7 115L42.3 115L41.3 113.9Q40.5 114.6 39.4 114.9L39.4 114.9Q38.3 115.2 37.2 115.2ZM39.6 112.0L36.5 108.5L36.3 108.6Q35.7 109.1 35.4 109.5Q35.0 110.0 35.0 110.6L35.0 110.6Q35.0 111.3 35.3 111.7Q35.6 112.2 36.1 112.4Q36.6 112.6 37.3 112.6L37.3 112.6Q38.2 112.6 39.0 112.3L39.0 112.3Q39.3 112.1 39.6 112.0L39.6 112.0ZM37.1 105.1L37.1 105.1L37.9 104.5Q38.3 104.3 38.5 104.0Q38.8 103.7 39.0 103.4Q39.1 103.1 39.1 102.7L39.1 102.7Q39.1 102.2 38.7 101.8Q38.3 101.4 37.6 101.4L37.6 101.4Q37.2 101.4 36.8 101.6Q36.4 101.8 36.3 102.1Q36.1 102.4 36.1 102.9L36.1 102.9Q36.1 103.4 36.3 103.9Q36.6 104.5 37.0 105.0L37.0 105.0Q37.1 105.0 37.1 105.1Z "/></g><mask id="satori_om-id-0-1-2"><rect x="31" y="122" width="270" height="29" fill="#fff" mask="url(#satori_om-id-0)"/></mask><g mask="url(#satori_om-id-0)" clip-path="url(#satori_cp-id-0)"><path fill="#f8f9fa" d="M32.4 128.0L35.6 128.0L35.6 144L32.4 144L32.4 128.0ZM43.7 144.2L43.7 144.2Q41.9 144.2 40.6 143.5Q39.3 142.7 38.5 141.3Q37.8 139.9 37.8 138.0L37.8 138.0Q37.8 136.2 38.5 134.8Q39.3 133.4 40.6 132.6Q41.9 131.8 43.7 131.8L43.7 131.8Q45.5 131.8 46.8 132.6Q48.2 133.4 48.9 134.8Q49.6 136.2 49.6 138.0L49.6 138.0Q49.6 139.9 48.9 141.3Q48.2 142.7 46.8 143.5Q45.5 144.2 43.7 144.2ZM43.7 141.7L43.7 141.7Q44.6 141.7 45.1 141.2Q45.7 140.7 46.0 139.9Q46.3 139.1 46.3 138.0L46.3 138.0Q46.3 137.0 46.0 136.1Q45.7 135.3 45.1 134.8Q44.6 134.4 43.7 134.4L43.7 134.4Q42.8 134.4 42.3 134.8Q41.7 135.3 41.4 136.1Q41.1 137.0 41.1 138.0L41.1 138.0Q41.1 139.1 41.4 139.9Q41.7 140.7 42.3 141.2Q42.8 141.7 43.7 141.7ZM57.2 144.2L57.2 144.2Q55.4 144.2 54.1 143.5Q52.8 142.7 52.0 141.3Q51.3 139.9 51.3 138.0L51.3 138.0Q51.3 136.2 52.0 134.8Q52.8 133.4 54.1 132.6Q55.4 131.8 57.2 131.8L57.2 131.8Q58.3 131.8 59.2 132.1Q60.1 132.4 60.8 132.9Q61.5 133.4 61.9 134.2Q62.4 134.9 62.5 135.8L62.5 135.8L59.5 136.4Q59.4 135.9 59.2 135.6Q59.0 135.2 58.7 134.9Q58.5 134.7 58.1 134.5Q57.7 134.4 57.2 134.4L57.2 134.4Q56.4 134.4 55.8 134.8Q55.2 135.3 54.9 136.1Q54.6 137.0 54.6 138.0L54.6 138.0Q54.6 139.1 54.9 139.9Q55.2 140.8 55.8 141.2Q56.4 141.7 57.2 141.7L57.2 141.7Q57.7 141.7 58.1 141.6Q58.5 141.4 58.8 141.1Q59.1 140.9 59.3 140.5Q59.5 140.1 59.6 139.6L59.6 139.6L62.6 140.2Q62.4 141.1 61.9 141.9Q61.5 142.6 60.8 143.1Q60.1 143.7 59.2 144.0Q58.3 144.2 57.2 144.2ZM68.1 144.2L68.1 144.2Q67.0 144.2 66.1 143.8Q65.2 143.4 64.6 142.6Q64.1 141.8 64.1 140.6L64.1 140.6Q64.1 139.6 64.5 139.0Q64.9 138.3 65.5 137.9Q66.1 137.5 67.0 137.3Q67.8 137.0 68.7 137.0L68.7 137.0Q69.7 136.8 70.3 136.8Q71.0 136.7 71.3 136.5Q71.6 136.3 71.6 135.9L71.6 135.9L71.6 135.8Q71.6 135.3 71.4 135.0Q71.1 134.6 70.7 134.4Q70.3 134.2 69.7 134.2L69.7 134.2Q69.1 134.2 68.6 134.4Q68.1 134.6 67.9 134.9Q67.6 135.2 67.4 135.6L67.4 135.6L64.5 135.1Q64.8 134.1 65.5 133.3Q66.2 132.6 67.3 132.2Q68.4 131.8 69.7 131.8L69.7 131.8Q70.7 131.8 71.6 132.1Q72.5 132.3 73.2 132.8Q73.9 133.3 74.4 134.0Q74.8 134.8 74.8 135.9L74.8 135.9L74.8 144L71.7 144L71.7 142.3L71.6 142.3Q71.3 142.9 70.9 143.3Q70.4 143.7 69.7 144.0Q69.0 144.2 68.1 144.2ZM69.0 142.0L69.0 142.0Q69.8 142.0 70.4 141.7Q71.0 141.4 71.3 140.9Q71.6 140.3 71.6 139.7L71.6 139.7L71.6 138.4Q71.5 138.5 71.2 138.6Q70.9 138.7 70.5 138.7Q70.2 138.8 69.8 138.9Q69.5 138.9 69.2 139.0L69.2 139.0Q68.6 139.0 68.2 139.2Q67.7 139.4 67.5 139.7Q67.2 140.1 67.2 140.6L67.2 140.6Q67.2 141.0 67.5 141.3Q67.7 141.6 68.1 141.8Q68.5 142.0 69.0 142.0ZM77.5 128.0L80.8 128.0L80.8 144L77.5 144L77.5 128.0ZM86.7 144L83.5 144L83.5 132.0L86.7 132.0L86.7 144ZM85.1 130.4L85.1 130.4Q84.4 130.4 83.9 129.9Q83.4 129.5 83.4 128.8L83.4 128.8Q83.4 128.1 83.9 127.6Q84.4 127.1 85.1 127.1L85.1 127.1Q85.8 127.1 86.4 127.6Q86.9 128.1 86.9 128.8L86.9 128.8Q86.9 129.5 86.4 129.9Q85.8 130.4 85.1 130.4ZM99.4 144L89.4 144L89.4 142.0L95.3 134.7L95.3 134.6L89.6 134.6L89.6 132.0L99.2 132.0L99.2 134.1L93.6 141.3L93.6 141.4L99.4 141.4L99.4 144ZM107.5 144.2L107.5 144.2Q105.7 144.2 104.3 143.5Q103.0 142.7 102.3 141.3Q101.6 140.0 101.6 138.1L101.6 138.1Q101.6 136.2 102.3 134.8Q103.0 133.4 104.3 132.6Q105.6 131.8 107.3 131.8L107.3 131.8Q108.5 131.8 109.5 132.2Q110.6 132.6 111.3 133.3Q112.1 134.1 112.5 135.2Q113.0 136.4 113.0 137.9L113.0 137.9L113.0 138.8L104.8 138.8Q104.8 139.7 105.1 140.4L105.1 140.4Q105.5 141.1 106.1 141.5Q106.7 141.8 107.5 141.8L107.5 141.8Q108.1 141.8 108.6 141.6Q109.0 141.5 109.4 141.2Q109.7 140.9 109.9 140.4L109.9 140.4L112.8 140.9Q112.5 141.9 111.8 142.7Q111.1 143.4 110.0 143.8Q108.9 144.2 107.5 144.2ZM104.8 136.8L104.8 136.8L109.9 136.8Q109.8 136.2 109.6 135.7L109.6 135.7Q109.3 135.0 108.8 134.6Q108.2 134.3 107.4 134.3L107.4 134.3Q106.5 134.3 105.9 134.7Q105.4 135.0 105.1 135.7L105.1 135.7Q104.8 136.2 104.8 136.8ZM119.6 144.2L119.6 144.2Q118.2 144.2 117.1 143.5Q116.0 142.8 115.3 141.4Q114.7 140.0 114.7 138.0L114.7 138.0Q114.7 136.0 115.3 134.6Q116.0 133.2 117.1 132.5Q118.2 131.8 119.5 131.8L119.5 131.8Q120.6 131.8 121.2 132.2Q121.9 132.5 122.3 133.0Q122.8 133.5 123.0 134.0L123.0 134.0L123.1 134.0L123.1 128.0L126.3 128.0L126.3 144L123.1 144L123.1 142.1L123.0 142.1Q122.7 142.6 122.3 143.0Q121.9 143.5 121.2 143.9Q120.5 144.2 119.6 144.2ZM120.6 141.6L120.6 141.6Q121.4 141.6 122.0 141.2Q122.5 140.7 122.8 139.9Q123.1 139.1 123.1 138.0L123.1 138.0Q123.1 136.9 122.8 136.1Q122.5 135.3 122.0 134.9Q121.4 134.4 120.6 134.4L120.6 134.4Q119.7 134.4 119.1 134.9Q118.6 135.3 118.3 136.1Q118.0 137.0 118.0 138.0L118.0 138.0Q118.0 139.1 118.3 139.9Q118.6 140.7 119.1 141.2Q119.7 141.6 120.6 141.6Z M138.0 132.0L140.2 132.0L140.2 134.5L138.0 134.5L138.0 140.5Q138.0 141.1 138.2 141.3Q138.5 141.6 139.1 141.6L139.1 141.6Q139.2 141.6 139.6 141.6Q139.9 141.5 140.1 141.5L140.1 141.5L140.5 143.9Q140.0 144.0 139.5 144.1Q138.9 144.2 138.5 144.2L138.5 144.2Q136.7 144.2 135.7 143.3Q134.7 142.4 134.7 140.8L134.7 140.8L134.7 134.5L133.1 134.5L133.1 132.0L134.7 132.0L134.7 129.1L138.0 129.1L138.0 132.0ZM145.5 144L142.3 144L142.3 132.0L145.4 132.0L145.4 134.1L145.6 134.1Q145.9 133.0 146.7 132.4Q147.4 131.8 148.5 131.8L148.5 131.8Q148.7 131.8 149.0 131.9Q149.3 131.9 149.5 131.9L149.5 131.9L149.5 134.8Q149.3 134.7 148.9 134.7Q148.5 134.7 148.1 134.7L148.1 134.7Q147.4 134.7 146.8 135.0Q146.2 135.3 145.9 135.9Q145.5 136.4 145.5 137.2L145.5 137.2L145.5 144ZM154.6 144.2L154.6 144.2Q153.5 144.2 152.6 143.8Q151.7 143.4 151.1 142.6Q150.6 141.8 150.6 140.6L150.6 140.6Q150.6 139.6 151.0 139.0Q151.4 138.3 152.0 137.9Q152.6 137.5 153.5 137.3Q154.3 137.0 155.2 137.0L155.2 137.0Q156.2 136.8 156.8 136.8Q157.5 136.7 157.8 136.5Q158.1 136.3 158.1 135.9L158.1 135.9L158.1 135.8Q158.1 135.3 157.9 135.0Q157.6 134.6 157.2 134.4Q156.8 134.2 156.2 134.2L156.2 134.2Q155.6 134.2 155.1 134.4Q154.6 134.6 154.4 134.9Q154.1 135.2 153.9 135.6L153.9 135.6L151.0 135.1Q151.3 134.1 152 133.3Q152.7 132.6 153.8 132.2Q154.9 131.8 156.2 131.8L156.2 131.8Q157.2 131.8 158.1 132.1Q159.0 132.3 159.7 132.8Q160.4 133.3 160.9 134.0Q161.3 134.8 161.3 135.9L161.3 135.9L161.3 144L158.2 144L158.2 142.3L158.1 142.3Q157.8 142.9 157.4 143.3Q156.9 143.7 156.2 144.0Q155.5 144.2 154.6 144.2ZM155.5 142.0L155.5 142.0Q156.3 142.0 156.9 141.7Q157.4 141.4 157.8 140.9Q158.1 140.3 158.1 139.7L158.1 139.7L158.1 138.4Q158.0 138.5 157.7 138.6Q157.4 138.7 157.0 138.7Q156.7 138.8 156.3 138.9Q156.0 138.9 155.7 139.0L155.7 139.0Q155.1 139.0 154.7 139.2Q154.2 139.4 154.0 139.7Q153.7 140.1 153.7 140.6L153.7 140.6Q153.7 141.0 154.0 141.3Q154.2 141.6 154.6 141.8Q155.0 142.0 155.5 142.0ZM168.4 144.2L168.4 144.2Q167.0 144.2 165.9 143.5Q164.8 142.8 164.2 141.4Q163.5 140.0 163.5 138.0L163.5 138.0Q163.5 136.0 164.2 134.6Q164.9 133.2 166.0 132.5Q167.1 131.8 168.4 131.8L168.4 131.8Q169.4 131.8 170.1 132.2Q170.8 132.5 171.2 133.0Q171.6 133.5 171.8 134.0L171.8 134.0L171.9 134.0L171.9 128.0L175.2 128.0L175.2 144L172.0 144L172.0 142.1L171.8 142.1Q171.6 142.6 171.2 143.0Q170.8 143.5 170.1 143.9Q169.4 144.2 168.4 144.2ZM169.4 141.6L169.4 141.6Q170.2 141.6 170.8 141.2Q171.4 140.7 171.7 139.9Q172.0 139.1 172.0 138.0L172.0 138.0Q172.0 136.9 171.7 136.1Q171.4 135.3 170.8 134.9Q170.3 134.4 169.4 134.4L169.4 134.4Q168.6 134.4 168.0 134.9Q167.4 135.3 167.1 136.1Q166.8 137.0 166.8 138.0L166.8 138.0Q166.8 139.1 167.1 139.9Q167.4 140.7 168.0 141.2Q168.6 141.6 169.4 141.6ZM181.1 144L177.9 144L177.9 132.0L181.1 132.0L181.1 144ZM179.5 130.4L179.5 130.4Q178.8 130.4 178.3 129.9Q177.8 129.5 177.8 128.8L177.8 128.8Q177.8 128.1 178.3 127.6Q178.8 127.1 179.5 127.1L179.5 127.1Q180.3 127.1 180.8 127.6Q181.3 128.1 181.3 128.8L181.3 128.8Q181.3 129.5 180.8 129.9Q180.3 130.4 179.5 130.4ZM187.1 137.0L187.1 137.0L187.1 144L183.9 144L183.9 132.0L186.9 132.0L187.0 134.5Q187.4 133.3 188.2 132.7L188.2 132.7Q189.2 131.8 190.7 131.8L190.7 131.8Q191.9 131.8 192.9 132.4Q193.8 132.9 194.3 133.9Q194.8 135.0 194.8 136.4L194.8 136.4L194.8 144L191.6 144L191.6 136.9Q191.6 135.8 191.0 135.2Q190.4 134.5 189.4 134.5L189.4 134.5Q188.7 134.5 188.2 134.8Q187.7 135.1 187.4 135.7Q187.1 136.2 187.1 137.0ZM202.9 148.7L202.9 148.7Q201.4 148.7 200.3 148.4Q199.2 148.0 198.5 147.3Q197.8 146.7 197.5 145.8L197.5 145.8L200.3 145.0Q200.4 145.4 200.7 145.7Q201.1 146.0 201.6 146.2Q202.1 146.4 202.9 146.4L202.9 146.4Q204.1 146.4 204.8 145.8Q205.5 145.3 205.5 144.1L205.5 144.1L205.5 141.9L205.3 141.9Q205.1 142.4 204.7 142.8Q204.3 143.3 203.6 143.5Q202.9 143.8 202.0 143.8L202.0 143.8Q200.6 143.8 199.5 143.2Q198.4 142.6 197.7 141.3Q197.1 140.0 197.1 138.0L197.1 138.0Q197.1 135.9 197.7 134.6Q198.4 133.2 199.5 132.5Q200.6 131.8 202.0 131.8L202.0 131.8Q203.0 131.8 203.7 132.2Q204.3 132.5 204.8 133.0Q205.2 133.5 205.4 134.0L205.4 134.0L205.5 134.0L205.5 132.0L208.7 132.0L208.7 143.9Q208.7 145.5 208.0 146.6Q207.2 147.7 205.9 148.2Q204.6 148.7 202.9 148.7ZM203.0 141.4L203.0 141.4Q203.8 141.4 204.4 141.0Q204.9 140.6 205.2 139.8Q205.5 139.0 205.5 138.0L205.5 138.0Q205.5 136.9 205.2 136.1Q204.9 135.3 204.4 134.9Q203.8 134.4 203.0 134.4L203.0 134.4Q202.1 134.4 201.5 134.9Q201.0 135.3 200.7 136.1Q200.4 136.9 200.4 138.0L200.4 138.0Q200.4 139.0 200.7 139.8Q201.0 140.5 201.5 141.0Q202.1 141.4 203.0 141.4Z M220.4 132.0L222.6 132.0L222.6 134.5L220.4 134.5L220.4 140.5Q220.4 141.1 220.6 141.3Q220.9 141.6 221.5 141.6L221.5 141.6Q221.7 141.6 222.0 141.6Q222.3 141.5 222.5 141.5L222.5 141.5L223.0 143.9Q222.4 144.0 221.9 144.1Q221.4 144.2 220.9 144.2L220.9 144.2Q219.1 144.2 218.1 143.3Q217.2 142.4 217.2 140.8L217.2 140.8L217.2 134.5L215.5 134.5L215.5 132.0L217.2 132.0L217.2 129.1L220.4 129.1L220.4 132.0ZM230.1 144.2L230.1 144.2Q228.3 144.2 227.0 143.5Q225.7 142.7 224.9 141.3Q224.2 139.9 224.2 138.0L224.2 138.0Q224.2 136.2 224.9 134.8Q225.7 133.4 227.0 132.6Q228.3 131.8 230.1 131.8L230.1 131.8Q231.9 131.8 233.2 132.6Q234.6 133.4 235.3 134.8Q236.0 136.2 236.0 138.0L236.0 138.0Q236.0 139.9 235.3 141.3Q234.6 142.7 233.2 143.5Q231.9 144.2 230.1 144.2ZM230.1 141.7L230.1 141.7Q231.0 141.7 231.5 141.2Q232.1 140.7 232.4 139.9Q232.7 139.1 232.7 138.0L232.7 138.0Q232.7 137.0 232.4 136.1Q232.1 135.3 231.5 134.8Q231.0 134.4 230.1 134.4L230.1 134.4Q229.2 134.4 228.7 134.8Q228.1 135.3 227.8 136.1Q227.5 137.0 227.5 138.0L227.5 138.0Q227.5 139.1 227.8 139.9Q228.1 140.7 228.7 141.2Q229.2 141.7 230.1 141.7ZM243.6 144.2L243.6 144.2Q241.8 144.2 240.5 143.5Q239.2 142.7 238.4 141.3Q237.7 139.9 237.7 138.0L237.7 138.0Q237.7 136.2 238.4 134.8Q239.2 133.4 240.5 132.6Q241.8 131.8 243.6 131.8L243.6 131.8Q245.4 131.8 246.7 132.6Q248.0 133.4 248.8 134.8Q249.5 136.2 249.5 138.0L249.5 138.0Q249.5 139.9 248.8 141.3Q248.0 142.7 246.7 143.5Q245.4 144.2 243.6 144.2ZM243.6 141.7L243.6 141.7Q244.5 141.7 245.0 141.2Q245.6 140.7 245.9 139.9Q246.2 139.1 246.2 138.0L246.2 138.0Q246.2 137.0 245.9 136.1Q245.6 135.3 245.0 134.8Q244.5 134.4 243.6 134.4L243.6 134.4Q242.7 134.4 242.2 134.8Q241.6 135.3 241.3 136.1Q241.0 137.0 241.0 138.0L241.0 138.0Q241.0 139.1 241.3 139.9Q241.6 140.7 242.2 141.2Q242.7 141.7 243.6 141.7ZM251.7 128.0L254.9 128.0L254.9 144L251.7 144L251.7 128.0ZM262.5 144.2L262.5 144.2Q261.0 144.2 259.9 143.8Q258.8 143.4 258.1 142.6Q257.3 141.8 257.1 140.7L257.1 140.7L260.1 140.2Q260.4 141.0 261.0 141.5Q261.6 141.9 262.5 141.9L262.5 141.9Q263.5 141.9 264.0 141.5Q264.5 141.2 264.5 140.6L264.5 140.6Q264.5 140.2 264.2 139.9Q263.8 139.6 263.0 139.4L263.0 139.4L260.9 139.0Q259.2 138.6 258.3 137.8Q257.5 136.9 257.5 135.6L257.5 135.6Q257.5 134.4 258.1 133.6Q258.7 132.7 259.9 132.3Q261.0 131.8 262.5 131.8L262.5 131.8Q263.9 131.8 265.0 132.2Q266.0 132.6 266.7 133.3Q267.3 134.1 267.5 135.0L267.5 135.0L264.7 135.5Q264.5 134.9 263.9 134.5Q263.4 134.1 262.5 134.1L262.5 134.1Q261.8 134.1 261.2 134.5Q260.7 134.8 260.7 135.4L260.7 135.4Q260.7 135.8 261.0 136.1Q261.4 136.4 262.2 136.6L262.2 136.6L264.4 137.0Q266.1 137.4 267.0 138.2Q267.8 139.0 267.8 140.3L267.8 140.3Q267.8 141.5 267.1 142.4Q266.4 143.2 265.2 143.7Q264.0 144.2 262.5 144.2ZM272.3 144.2L272.3 144.2Q271.5 144.2 271.0 143.7Q270.4 143.1 270.4 142.4L270.4 142.4Q270.4 141.6 271.0 141.0Q271.5 140.5 272.3 140.5L272.3 140.5Q273.1 140.5 273.6 141.0Q274.2 141.6 274.2 142.4L274.2 142.4Q274.2 143.1 273.6 143.7Q273.1 144.2 272.3 144.2Z "/></g><mask id="satori_om-id-0-1-3"><rect x="31" y="165" width="270" height="15" fill="#fff" mask="url(#satori_om-id-0)"/></mask><mask id="satori_om-id-0-1-3-0"><rect x="31" y="165" width="156" height="15" fill="#fff" mask="url(#satori_om-id-0)"/></mask><g mask="url(#satori_om-id-0)" clip-path="url(#satori_cp-id-0)"><path fill="#2ecc71" d="M37.9 173.2L37.9 174.0L32.4 176.7L32.4 175.6L36.6 173.6L36.6 173.6L32.4 171.6L32.4 170.4L37.9 173.2Z M46.9 177.1L46.9 177.1Q46.0 177.1 45.3 176.7Q44.7 176.3 44.3 175.5Q43.9 174.8 43.9 173.8L43.9 173.8Q43.9 172.7 44.3 172.0Q44.7 171.2 45.3 170.8Q46.0 170.4 46.9 170.4L46.9 170.4Q47.8 170.4 48.5 170.8Q49.2 171.2 49.5 172.0Q49.9 172.7 49.9 173.8L49.9 173.8Q49.9 174.8 49.5 175.5Q49.2 176.3 48.5 176.7Q47.8 177.1 46.9 177.1ZM46.9 176.2L46.9 176.2Q47.6 176.2 48.0 175.9Q48.4 175.5 48.6 175.0Q48.8 174.4 48.8 173.8L48.8 173.8Q48.8 173.1 48.6 172.6Q48.4 172.0 48.0 171.7Q47.6 171.3 46.9 171.3L46.9 171.3Q46.3 171.3 45.8 171.7Q45.4 172.0 45.2 172.6Q45.0 173.1 45.0 173.8L45.0 173.8Q45.0 174.4 45.2 175.0Q45.4 175.5 45.8 175.9Q46.3 176.2 46.9 176.2ZM53.0 179.4L51.9 179.4L51.9 170.4L53.0 170.4L53.0 171.5L53.1 171.5Q53.2 171.3 53.4 171.1Q53.6 170.8 54.0 170.6Q54.3 170.4 55.0 170.4L55.0 170.4Q55.8 170.4 56.4 170.8Q57.0 171.2 57.4 171.9Q57.7 172.7 57.7 173.7L57.7 173.7Q57.7 174.8 57.4 175.5Q57.0 176.3 56.4 176.7Q55.8 177.1 55.0 177.1L55.0 177.1Q54.4 177.1 54.0 176.9Q53.6 176.7 53.4 176.4Q53.2 176.2 53.1 176.0L53.1 176.0L53.0 176.0L53.0 179.4ZM54.8 176.2L54.8 176.2Q55.4 176.2 55.8 175.9Q56.3 175.5 56.5 175.0Q56.7 174.4 56.7 173.7L56.7 173.7Q56.7 173.1 56.5 172.5Q56.3 172.0 55.9 171.6Q55.4 171.3 54.8 171.3L54.8 171.3Q54.2 171.3 53.8 171.6Q53.4 171.9 53.2 172.5Q53.0 173.0 53.0 173.7L53.0 173.7Q53.0 174.5 53.2 175.0Q53.4 175.6 53.8 175.9Q54.2 176.2 54.8 176.2ZM62.5 177.1L62.5 177.1Q61.6 177.1 60.9 176.7Q60.2 176.3 59.8 175.5Q59.5 174.8 59.5 173.8Q59.5 172.8 59.8 172.0Q60.2 171.2 60.9 170.8Q61.5 170.4 62.4 170.4L62.4 170.4Q62.9 170.4 63.4 170.5Q63.9 170.7 64.4 171.1Q64.8 171.5 65.0 172.1Q65.3 172.7 65.3 173.6L65.3 173.6L65.3 174.1L60.5 174.1Q60.6 174.7 60.8 175.2L60.8 175.2Q61.0 175.7 61.5 175.9Q61.9 176.2 62.5 176.2L62.5 176.2Q62.9 176.2 63.2 176.1Q63.6 176.0 63.8 175.8Q64.0 175.5 64.1 175.2L64.1 175.2L65.2 175.5Q65.0 176.0 64.6 176.3Q64.3 176.7 63.7 176.9Q63.2 177.1 62.5 177.1ZM60.5 173.2L60.5 173.2L64.2 173.2Q64.2 172.7 64.0 172.4L64.0 172.4Q63.8 171.9 63.4 171.6Q63.0 171.3 62.4 171.3Q61.8 171.3 61.4 171.6Q61.0 171.9 60.8 172.3L60.8 172.3Q60.6 172.7 60.5 173.2ZM68.3 173.1L68.3 173.1L68.3 177L67.3 177L67.3 170.4L68.3 170.4L68.3 171.7Q68.6 171.0 69.0 170.7L69.0 170.7Q69.6 170.4 70.3 170.4L70.3 170.4Q71.0 170.4 71.5 170.6Q72.0 170.9 72.2 171.5Q72.5 172.0 72.5 172.8L72.5 172.8L72.5 177L71.5 177L71.5 172.9Q71.5 172.2 71.1 171.7Q70.7 171.3 70.0 171.3L70.0 171.3Q69.5 171.3 69.1 171.5Q68.8 171.7 68.6 172.1Q68.3 172.5 68.3 173.1Z M80.0 170.4L81.3 170.4L81.3 171.4L80.0 171.4L80.0 175.3Q80.0 175.7 80.2 175.9Q80.3 176.1 80.7 176.1L80.7 176.1Q80.8 176.1 81.0 176.1Q81.2 176.1 81.3 176.1L81.3 176.1L81.5 177.0Q81.3 177.0 81.1 177.1Q80.9 177.1 80.7 177.1L80.7 177.1Q79.9 177.1 79.4 176.6Q78.9 176.2 78.9 175.4L78.9 175.4L78.9 171.4L77.9 171.4L77.9 170.4L78.9 170.4L78.9 168.9L80.0 168.9L80.0 170.4ZM85.8 177.1L85.8 177.1Q84.9 177.1 84.3 176.7Q83.6 176.3 83.2 175.5Q82.9 174.8 82.9 173.8L82.9 173.8Q82.9 172.7 83.2 172.0Q83.6 171.2 84.3 170.8Q84.9 170.4 85.8 170.4L85.8 170.4Q86.7 170.4 87.4 170.8Q88.1 171.2 88.5 172.0Q88.8 172.7 88.8 173.8L88.8 173.8Q88.8 174.8 88.5 175.5Q88.1 176.3 87.4 176.7Q86.7 177.1 85.8 177.1ZM85.8 176.2L85.8 176.2Q86.5 176.2 86.9 175.9Q87.4 175.5 87.6 175.0Q87.8 174.4 87.8 173.8L87.8 173.8Q87.8 173.1 87.6 172.6Q87.4 172.0 86.9 171.7Q86.5 171.3 85.8 171.3L85.8 171.3Q85.2 171.3 84.8 171.7Q84.3 172.0 84.1 172.6Q83.9 173.1 83.9 173.8L83.9 173.8Q83.9 174.4 84.1 175.0Q84.3 175.5 84.8 175.9Q85.2 176.2 85.8 176.2Z M97.4 177.1L97.4 177.1Q96.5 177.1 95.8 176.7Q95.2 176.3 94.8 175.5Q94.4 174.8 94.4 173.8L94.4 173.8Q94.4 172.7 94.8 172.0Q95.2 171.2 95.8 170.8Q96.5 170.4 97.4 170.4L97.4 170.4Q97.9 170.4 98.3 170.5Q98.7 170.6 99.1 170.8Q99.4 171.1 99.7 171.4Q99.9 171.8 100.1 172.2L100.1 172.2L99.0 172.5Q99.0 172.2 98.8 172.0Q98.7 171.8 98.5 171.6Q98.3 171.5 98.0 171.4Q97.7 171.3 97.4 171.3L97.4 171.3Q96.8 171.3 96.3 171.7Q95.9 172.0 95.7 172.6Q95.5 173.1 95.5 173.8L95.5 173.8Q95.5 174.4 95.7 175.0Q95.9 175.5 96.3 175.9Q96.8 176.2 97.4 176.2L97.4 176.2Q97.7 176.2 98.0 176.1Q98.3 176.0 98.5 175.9Q98.7 175.7 98.9 175.5Q99.0 175.3 99.1 175.0L99.1 175.0L100.1 175.3Q100.0 175.7 99.7 176.1Q99.4 176.4 99.1 176.6Q98.7 176.9 98.3 177.0Q97.9 177.1 97.4 177.1ZM104.8 177.1L104.8 177.1Q103.9 177.1 103.2 176.7Q102.5 176.3 102.2 175.5Q101.8 174.8 101.8 173.8L101.8 173.8Q101.8 172.7 102.2 172.0Q102.5 171.2 103.2 170.8Q103.9 170.4 104.8 170.4L104.8 170.4Q105.7 170.4 106.3 170.8Q107.0 171.2 107.4 172.0Q107.8 172.7 107.8 173.8L107.8 173.8Q107.8 174.8 107.4 175.5Q107.0 176.3 106.3 176.7Q105.7 177.1 104.8 177.1ZM104.8 176.2L104.8 176.2Q105.4 176.2 105.9 175.9Q106.3 175.5 106.5 175.0Q106.7 174.4 106.7 173.8L106.7 173.8Q106.7 173.1 106.5 172.6Q106.3 172.0 105.9 171.7Q105.4 171.3 104.8 171.3L104.8 171.3Q104.1 171.3 103.7 171.7Q103.3 172.0 103.1 172.6Q102.9 173.1 102.9 173.8L102.9 173.8Q102.9 174.4 103.1 175.0Q103.3 175.5 103.7 175.9Q104.1 176.2 104.8 176.2ZM109.8 168.3L110.8 168.3L110.8 177L109.8 177L109.8 168.3ZM113.2 168.3L114.3 168.3L114.3 177L113.2 177L113.2 168.3ZM118.4 177.2L118.4 177.2Q117.8 177.2 117.3 176.9Q116.8 176.7 116.5 176.2Q116.2 175.8 116.2 175.1L116.2 175.1Q116.2 174.6 116.4 174.2Q116.7 173.9 117.0 173.7Q117.4 173.5 117.8 173.4Q118.3 173.3 118.8 173.2L118.8 173.2Q119.3 173.1 119.7 173.1Q120.1 173.1 120.3 173.0Q120.4 172.9 120.4 172.6L120.4 172.6L120.4 172.6Q120.4 172.2 120.3 171.9Q120.1 171.6 119.8 171.4Q119.5 171.3 119.1 171.3L119.1 171.3Q118.6 171.3 118.3 171.4Q117.9 171.6 117.7 171.8Q117.5 172.0 117.4 172.3L117.4 172.3L116.4 171.9Q116.6 171.3 117.1 171.0Q117.5 170.6 118.0 170.5Q118.5 170.4 119.0 170.4L119.0 170.4Q119.4 170.4 119.8 170.4Q120.2 170.5 120.6 170.8Q121.0 171.0 121.2 171.5Q121.5 171.9 121.5 172.7L121.5 172.7L121.5 177L120.5 177L120.5 176.1L120.4 176.1Q120.3 176.3 120.0 176.6Q119.8 176.8 119.4 177.0Q119.0 177.2 118.4 177.2ZM118.6 176.2L118.6 176.2Q119.2 176.2 119.6 176.0Q120.0 175.8 120.2 175.4Q120.4 175.0 120.4 174.6L120.4 174.6L120.4 173.7Q120.4 173.8 120.2 173.9Q119.9 173.9 119.7 174.0Q119.4 174.0 119.1 174.0Q118.9 174.1 118.7 174.1L118.7 174.1Q118.3 174.1 118.0 174.3Q117.7 174.4 117.5 174.6Q117.3 174.8 117.3 175.2L117.3 175.2Q117.3 175.5 117.4 175.8Q117.6 176.0 117.9 176.1Q118.2 176.2 118.6 176.2ZM126.9 177.1L126.9 177.1Q126.3 177.1 125.9 176.9Q125.5 176.7 125.3 176.4Q125.1 176.2 125.0 176.0L125.0 176.0L124.9 176.0L124.9 177L123.8 177L123.8 168.3L124.9 168.3L124.9 171.5L125.0 171.5Q125.1 171.3 125.3 171.1Q125.5 170.8 125.9 170.6Q126.2 170.4 126.9 170.4L126.9 170.4Q127.7 170.4 128.3 170.8Q128.9 171.2 129.3 171.9Q129.7 172.7 129.7 173.7L129.7 173.7Q129.7 174.8 129.3 175.5Q129.0 176.3 128.3 176.7Q127.7 177.1 126.9 177.1ZM126.7 176.2L126.7 176.2Q127.3 176.2 127.8 175.9Q128.2 175.5 128.4 175.0Q128.6 174.4 128.6 173.7L128.6 173.7Q128.6 173.1 128.4 172.5Q128.2 172.0 127.8 171.6Q127.3 171.3 126.7 171.3L126.7 171.3Q126.1 171.3 125.7 171.6Q125.3 171.9 125.1 172.5Q124.9 173.0 124.9 173.7L124.9 173.7Q124.9 174.5 125.1 175.0Q125.3 175.6 125.7 175.9Q126.1 176.2 126.7 176.2ZM134.4 177.1L134.4 177.1Q133.5 177.1 132.8 176.7Q132.1 176.3 131.7 175.5Q131.4 174.8 131.4 173.8L131.4 173.8Q131.4 172.7 131.7 172.0Q132.1 171.2 132.8 170.8Q133.5 170.4 134.4 170.4L134.4 170.4Q135.3 170.4 135.9 170.8Q136.6 171.2 137.0 172.0Q137.3 172.7 137.3 173.8L137.3 173.8Q137.3 174.8 137.0 175.5Q136.6 176.3 135.9 176.7Q135.3 177.1 134.4 177.1ZM134.4 176.2L134.4 176.2Q135.0 176.2 135.4 175.9Q135.9 175.5 136.1 175.0Q136.3 174.4 136.3 173.8L136.3 173.8Q136.3 173.1 136.1 172.6Q135.9 172.0 135.4 171.7Q135.0 171.3 134.4 171.3L134.4 171.3Q133.7 171.3 133.3 171.7Q132.9 172.0 132.7 172.6Q132.4 173.1 132.4 173.8L132.4 173.8Q132.4 174.4 132.7 175.0Q132.9 175.5 133.3 175.9Q133.7 176.2 134.4 176.2ZM140.4 177L139.4 177L139.4 170.4L140.4 170.4L140.4 171.5L140.5 171.5Q140.7 171.0 141.1 170.7Q141.6 170.4 142.2 170.4L142.2 170.4Q142.3 170.4 142.5 170.4Q142.6 170.4 142.7 170.4L142.7 170.4L142.7 171.4Q142.7 171.4 142.5 171.4Q142.3 171.4 142.1 171.4L142.1 171.4Q141.6 171.4 141.2 171.6Q140.9 171.8 140.7 172.1Q140.4 172.5 140.4 172.9L140.4 172.9L140.4 177ZM146.2 177.2L146.2 177.2Q145.6 177.2 145.1 176.9Q144.6 176.7 144.3 176.2Q144.0 175.8 144.0 175.1L144.0 175.1Q144.0 174.6 144.2 174.2Q144.4 173.9 144.8 173.7Q145.2 173.5 145.6 173.4Q146.1 173.3 146.6 173.2L146.6 173.2Q147.1 173.1 147.5 173.1Q147.9 173.1 148.1 173.0Q148.2 172.9 148.2 172.6L148.2 172.6L148.2 172.6Q148.2 172.2 148.1 171.9Q147.9 171.6 147.6 171.4Q147.3 171.3 146.9 171.3L146.9 171.3Q146.4 171.3 146.1 171.4Q145.7 171.6 145.5 171.8Q145.3 172.0 145.2 172.3L145.2 172.3L144.2 171.9Q144.4 171.3 144.9 171.0Q145.3 170.6 145.8 170.5Q146.3 170.4 146.8 170.4L146.8 170.4Q147.2 170.4 147.6 170.4Q148 170.5 148.4 170.8Q148.8 171.0 149.0 171.5Q149.3 171.9 149.3 172.7L149.3 172.7L149.3 177L148.3 177L148.3 176.1L148.2 176.1Q148.1 176.3 147.8 176.6Q147.6 176.8 147.2 177.0Q146.8 177.2 146.2 177.2ZM146.4 176.2L146.4 176.2Q147.0 176.2 147.4 176.0Q147.8 175.8 148.0 175.4Q148.2 175.0 148.2 174.6L148.2 174.6L148.2 173.7Q148.2 173.8 148.0 173.9Q147.7 173.9 147.5 174.0Q147.2 174.0 146.9 174.0Q146.7 174.1 146.5 174.1L146.5 174.1Q146.1 174.1 145.8 174.3Q145.5 174.4 145.3 174.6Q145.1 174.8 145.1 175.2L145.1 175.2Q145.1 175.5 145.2 175.8Q145.4 176.0 145.7 176.1Q146.0 176.2 146.4 176.2ZM152.9 170.4L154.2 170.4L154.2 171.4L152.9 171.4L152.9 175.3Q152.9 175.7 153.0 175.9Q153.2 176.1 153.6 176.1L153.6 176.1Q153.7 176.1 153.9 176.1Q154.1 176.1 154.2 176.1L154.2 176.1L154.4 177.0Q154.2 177.0 154.0 177.1Q153.8 177.1 153.6 177.1L153.6 177.1Q152.8 177.1 152.3 176.6Q151.8 176.2 151.8 175.4L151.8 175.4L151.8 171.4L150.8 171.4L150.8 170.4L151.8 170.4L151.8 168.9L152.9 168.9L152.9 170.4ZM157.1 177L156.1 177L156.1 170.4L157.1 170.4L157.1 177ZM156.6 169.4L156.6 169.4Q156.3 169.4 156.1 169.2Q155.9 169.0 155.9 168.7L155.9 168.7Q155.9 168.4 156.1 168.2Q156.3 168.0 156.6 168.0L156.6 168.0Q156.9 168.0 157.1 168.2Q157.3 168.4 157.3 168.7L157.3 168.7Q157.3 169.0 157.1 169.2Q156.9 169.4 156.6 169.4ZM162.1 177.1L162.1 177.1Q161.2 177.1 160.6 176.7Q159.9 176.3 159.5 175.5Q159.2 174.8 159.2 173.8L159.2 173.8Q159.2 172.7 159.5 172.0Q159.9 171.2 160.6 170.8Q161.2 170.4 162.1 170.4L162.1 170.4Q163.0 170.4 163.7 170.8Q164.4 171.2 164.8 172.0Q165.1 172.7 165.1 173.8L165.1 173.8Q165.1 174.8 164.8 175.5Q164.4 176.3 163.7 176.7Q163.0 177.1 162.1 177.1ZM162.1 176.2L162.1 176.2Q162.8 176.2 163.2 175.9Q163.7 175.5 163.9 175.0Q164.1 174.4 164.1 173.8L164.1 173.8Q164.1 173.1 163.9 172.6Q163.7 172.0 163.2 171.7Q162.8 171.3 162.1 171.3L162.1 171.3Q161.5 171.3 161.1 171.7Q160.6 172.0 160.4 172.6Q160.2 173.1 160.2 173.8L160.2 173.8Q160.2 174.4 160.4 175.0Q160.6 175.5 161.1 175.9Q161.5 176.2 162.1 176.2ZM168.2 173.1L168.2 173.1L168.2 177L167.2 177L167.2 170.4L168.2 170.4L168.2 171.7Q168.5 171.0 168.9 170.7L168.9 170.7Q169.4 170.4 170.2 170.4L170.2 170.4Q170.9 170.4 171.4 170.6Q171.8 170.9 172.1 171.5Q172.4 172.0 172.4 172.8L172.4 172.8L172.4 177L171.4 177L171.4 172.9Q171.4 172.2 171.0 171.7Q170.6 171.3 169.9 171.3L169.9 171.3Q169.4 171.3 169.0 171.5Q168.7 171.7 168.4 172.1Q168.2 172.5 168.2 173.1ZM177.0 177.1L177.0 177.1Q176.3 177.1 175.8 176.9Q175.3 176.7 174.9 176.4Q174.6 176.0 174.5 175.4L174.5 175.4L175.5 175.2Q175.6 175.7 176.0 176.0Q176.4 176.2 177.0 176.2L177.0 176.2Q177.7 176.2 178.1 175.9Q178.5 175.6 178.5 175.2L178.5 175.2Q178.5 174.9 178.2 174.7Q178.0 174.4 177.5 174.3L177.5 174.3L176.4 174.1Q175.5 173.9 175.1 173.4Q174.7 173.0 174.7 172.3L174.7 172.3Q174.7 171.7 175.0 171.3Q175.3 170.9 175.8 170.6Q176.4 170.4 177.1 170.4L177.1 170.4Q177.8 170.4 178.2 170.6Q178.7 170.8 179.0 171.1Q179.3 171.5 179.4 171.9L179.4 171.9L178.5 172.2Q178.4 171.8 178.0 171.6Q177.7 171.3 177.1 171.3L177.1 171.3Q176.5 171.3 176.1 171.5Q175.7 171.8 175.7 172.2L175.7 172.2Q175.7 172.6 176.0 172.8Q176.3 173.0 176.8 173.2L176.8 173.2L177.8 173.4Q178.7 173.6 179.1 174.0Q179.6 174.5 179.6 175.2L179.6 175.2Q179.6 175.7 179.2 176.2Q178.9 176.6 178.3 176.9Q177.8 177.1 177.0 177.1ZM180.7 177L186.1 177L186.1 178.0L180.7 178.0L180.7 177Z "/></g><defs><clipPath id="satori_bc-id-1"><path x="344" y="0" width="222" height="220" d="M356,0 h198 a12,12 0 0 1 12,12 v196 a12,12 0 0 1 -12,12 h-198 a12,12 0 0 1 -12,-12 v-196 a12,12 0 0 1 12,-12"/></clipPath></defs><clipPath id="satori_cp-id-1"><path x="344" y="0" width="222" height="220" d="M356,0 h198 a12,12 0 0 1 12,12 v196 a12,12 0 0 1 -12,12 h-198 a12,12 0 0 1 -12,-12 v-196 a12,12 0 0 1 12,-12"/></clipPath><mask id="satori_om-id-1"><rect x="345" y="1" width="220" height="218" fill="#fff"/><path width="222" height="220" fill="none" stroke="#000" stroke-width="2" d="M347.515,3.5150000000000006 A12,12 0 0 1 356,0 h198 a12,12 0 0 1 12,12 v196 a12,12 0 0 1 -12,12 h-198 a12,12 0 0 1 -12,-12 v-196 A12,12 0 0 1 347.515,3.5150000000000006"/></mask><path x="344" y="0" width="222" height="220" fill="rgba(255,255,255,0.02)" d="M356,0 h198 a12,12 0 0 1 12,12 v196 a12,12 0 0 1 -12,12 h-198 a12,12 0 0 1 -12,-12 v-196 a12,12 0 0 1 12,-12"/><path width="222" height="220" clip-path="url(#satori_bc-id-1)" fill="none" stroke="rgba(255,255,255,0.06)" stroke-width="2" d="M347.515,3.5150000000000006 A12,12 0 0 1 356,0 h198 a12,12 0 0 1 12,12 v196 a12,12 0 0 1 -12,12 h-198 a12,12 0 0 1 -12,-12 v-196 A12,12 0 0 1 347.515,3.5150000000000006"/><clipPath id="satori_cp-id-1-0" clip-path="url(#satori_cp-id-1)"><rect x="345" y="1" width="220" height="218"/></clipPath><mask id="satori_om-id-1-0"><rect x="345" y="1" width="220" height="218" fill="#fff" mask="url(#satori_om-id-1)"/></mask><svg x="345" y="1" width="220" height="218" preserveAspectRatio="none" clip-path="url(#satori_cp-id-1-0)" mask="url(#satori_om-id-1-0)"><defs><radialGradient id="stat-glow-repos" cx="0%" cy="100%" r="90%"><stop offset="0%" stop-color="rgba(168, 127, 251, 0.15)"></stop><stop offset="100%" stop-color="rgba(168, 127, 251, 0)"></stop></radialGradient></defs><rect className="ambient-anim" width="100%" height="100%" fill="url(#stat-glow-repos)"></rect></svg><mask id="satori_om-id-1-0-0"><rect x="345" y="1" width="0" height="218" fill="#fff" mask="url(#satori_om-id-1)"/></mask><mask id="satori_om-id-1-0-0-0"><rect x="345" y="1" width="0" height="218" fill="#fff" mask="url(#satori_om-id-1)"/></mask><mask id="satori_om-id-1-0-0-0-0"><rect x="345" y="1" width="0" height="218" fill="#fff" mask="url(#satori_om-id-1)"/></mask><mask id="satori_om-id-1-0-0-0-1"><rect x="345" y="1" width="0" height="218" fill="#fff" mask="url(#satori_om-id-1)"/></mask><mask id="satori_om-id-1-0-1"><rect x="345" y="1" width="0" height="218" fill="#fff" mask="url(#satori_om-id-1)"/></mask><mask id="satori_om-id-1-1"><rect x="431" y="81" width="49" height="58" fill="#fff" mask="url(#satori_om-id-1)"/></mask><mask id="satori_om-id-1-1-0"><rect x="434" y="81" width="44" height="44" fill="#fff" mask="url(#satori_om-id-1)"/></mask><g mask="url(#satori_om-id-1)" clip-path="url(#satori_cp-id-1)"><path fill="#a87ffb" d="M454.7 116L436.2 116L436.2 112.1L445.5 103.4Q446.7 102.3 447.5 101.3Q448.3 100.4 448.7 99.5Q449.2 98.6 449.2 97.5L449.2 97.5Q449.2 96.3 448.6 95.5Q448.1 94.7 447.2 94.2Q446.3 93.7 445.1 93.7L445.1 93.7Q443.9 93.7 443.0 94.2Q442.1 94.7 441.6 95.6Q441.1 96.6 441.1 97.8L441.1 97.8L435.9 97.8Q435.9 95.3 437.1 93.4Q438.3 91.5 440.3 90.5Q442.4 89.5 445.1 89.5L445.1 89.5Q447.9 89.5 450.0 90.5Q452.1 91.4 453.2 93.2Q454.4 94.9 454.4 97.2L454.4 97.2Q454.4 98.7 453.8 100.1Q453.2 101.5 451.7 103.3Q450.3 105.0 447.6 107.5L447.6 107.5L443.6 111.4L443.6 111.6L454.7 111.6L454.7 116ZM466.7 116.4L466.7 116.4Q464.0 116.4 461.9 115.4Q459.8 114.4 458.6 112.6Q457.4 110.9 457.3 108.7L457.3 108.7L462.5 108.7Q462.6 109.7 463.2 110.5Q463.7 111.2 464.7 111.7Q465.6 112.1 466.7 112.1L466.7 112.1Q468.0 112.1 469.0 111.5Q470.1 110.9 470.6 109.9Q471.2 108.8 471.2 107.4L471.2 107.4Q471.2 106.0 470.6 105.0Q470.0 103.9 469.0 103.3Q468.0 102.7 466.6 102.7L466.6 102.7Q465.4 102.7 464.4 103.1Q463.3 103.6 462.7 104.4L462.7 104.4L457.9 103.6L459.1 89.8L475.0 89.8L475.0 94.2L463.6 94.2L462.9 100.9L463.0 100.9Q463.7 99.9 465.1 99.3Q466.5 98.7 468.2 98.7L468.2 98.7Q470.0 98.7 471.5 99.3Q473.0 100.0 474.1 101.1Q475.2 102.3 475.8 103.8Q476.4 105.4 476.4 107.3L476.4 107.3Q476.4 109.9 475.2 112.0Q474.0 114.0 471.8 115.2Q469.6 116.4 466.7 116.4Z "/></g><mask id="satori_om-id-1-1-1"><rect x="431" y="127" width="49" height="12" fill="#fff" mask="url(#satori_om-id-1)"/></mask><g mask="url(#satori_om-id-1)" clip-path="url(#satori_cp-id-1)"><path fill="rgba(255,255,255,0.4)" d="M433.1 137L431.7 137L431.7 129.7L434.5 129.7Q435.3 129.7 435.9 130.0Q436.5 130.3 436.8 130.8Q437.1 131.4 437.1 132.1Q437.1 132.8 436.8 133.3Q436.5 133.9 435.9 134.1L435.9 134.1Q435.8 134.1 435.8 134.2L435.8 134.2L437.4 137L435.7 137L434.3 134.4L433.1 134.4L433.1 137ZM433.1 131.0L433.1 133.2L434.2 133.2Q434.7 133.2 435.0 133.1Q435.3 132.9 435.4 132.7Q435.6 132.5 435.6 132.1L435.6 132.1Q435.6 131.7 435.4 131.5Q435.3 131.2 435.0 131.1Q434.7 131.0 434.2 131.0L434.2 131.0L433.1 131.0ZM446.1 137L441.2 137L441.2 129.7L446.1 129.7L446.1 131.0L442.7 131.0L442.7 132.7L445.8 132.7L445.8 133.9L442.7 133.9L442.7 135.8L446.1 135.8L446.1 137ZM451.8 137L450.3 137L450.3 129.7L453.1 129.7Q454.0 129.7 454.5 130.0Q455.1 130.4 455.4 130.9Q455.7 131.5 455.7 132.2L455.7 132.2Q455.7 132.9 455.4 133.5Q455.1 134.0 454.5 134.3Q453.9 134.6 453.1 134.6L453.1 134.6L451.8 134.6L451.8 137ZM451.8 131.0L451.8 133.4L452.9 133.4Q453.3 133.4 453.6 133.3Q453.9 133.1 454.1 132.8Q454.2 132.5 454.2 132.2Q454.2 131.8 454.1 131.5Q453.9 131.3 453.6 131.1Q453.3 131.0 452.9 131.0L452.9 131.0L451.8 131.0ZM463.0 137.1L463.0 137.1Q462.0 137.1 461.2 136.7Q460.5 136.2 460.0 135.4Q459.6 134.5 459.6 133.4L459.6 133.4Q459.6 132.2 460.0 131.3Q460.5 130.5 461.2 130.1Q462.0 129.6 463.0 129.6L463.0 129.6Q463.9 129.6 464.7 130.1Q465.5 130.5 465.9 131.3Q466.4 132.2 466.4 133.4L466.4 133.4Q466.4 134.5 465.9 135.4Q465.5 136.2 464.7 136.7Q463.9 137.1 463.0 137.1ZM463.0 135.8L463.0 135.8Q463.5 135.8 464.0 135.5Q464.4 135.2 464.6 134.7Q464.9 134.1 464.9 133.4L464.9 133.4Q464.9 132.6 464.6 132.0Q464.4 131.5 464.0 131.2Q463.5 131.0 463.0 131.0L463.0 131.0Q462.4 131.0 462.0 131.2Q461.6 131.5 461.3 132.0Q461.1 132.6 461.1 133.4L461.1 133.4Q461.1 134.1 461.3 134.7Q461.6 135.2 462.0 135.5Q462.4 135.8 463.0 135.8ZM473.2 137.1L473.2 137.1Q472.3 137.1 471.6 136.8Q471.0 136.6 470.6 136.0Q470.3 135.5 470.2 134.7L470.2 134.7L471.7 134.7Q471.7 135.1 471.9 135.4Q472.1 135.6 472.4 135.7Q472.7 135.8 473.1 135.8L473.1 135.8Q473.5 135.8 473.8 135.7Q474.1 135.6 474.3 135.4Q474.5 135.2 474.5 134.9L474.5 134.9Q474.5 134.7 474.3 134.5Q474.2 134.3 473.9 134.2Q473.6 134.1 473.2 134.0L473.2 134.0L472.4 133.8Q471.5 133.6 471.0 133.1Q470.4 132.6 470.4 131.8L470.4 131.8Q470.4 131.2 470.8 130.7Q471.1 130.2 471.8 129.9Q472.4 129.6 473.2 129.6L473.2 129.6Q474.0 129.6 474.6 129.9Q475.2 130.2 475.5 130.7Q475.9 131.2 475.9 131.8L475.9 131.8L474.4 131.8Q474.4 131.4 474.0 131.1Q473.7 130.9 473.2 130.9L473.2 130.9Q472.8 130.9 472.5 131.0Q472.2 131.1 472.1 131.3Q472.0 131.5 472.0 131.7L472.0 131.7Q472.0 132.0 472.1 132.2Q472.3 132.3 472.6 132.5Q472.8 132.6 473.1 132.6L473.1 132.6L473.8 132.8Q474.2 132.9 474.6 133.1Q475.0 133.3 475.3 133.5Q475.6 133.8 475.8 134.1Q476.0 134.5 476.0 134.9L476.0 134.9Q476.0 135.6 475.6 136.1Q475.3 136.6 474.7 136.8Q474.0 137.1 473.2 137.1Z "/></g><defs><clipPath id="satori_bc-id-2"><path x="578" y="0" width="222" height="220" d="M590,0 h198 a12,12 0 0 1 12,12 v196 a12,12 0 0 1 -12,12 h-198 a12,12 0 0 1 -12,-12 v-196 a12,12 0 0 1 12,-12"/></clipPath></defs><clipPath id="satori_cp-id-2"><path x="578" y="0" width="222" height="220" d="M590,0 h198 a12,12 0 0 1 12,12 v196 a12,12 0 0 1 -12,12 h-198 a12,12 0 0 1 -12,-12 v-196 a12,12 0 0 1 12,-12"/></clipPath><mask id="satori_om-id-2"><rect x="579" y="1" width="220" height="218" fill="#fff"/><path width="222" height="220" fill="none" stroke="#000" stroke-width="2" d="M581.515,3.5150000000000006 A12,12 0 0 1 590,0 h198 a12,12 0 0 1 12,12 v196 a12,12 0 0 1 -12,12 h-198 a12,12 0 0 1 -12,-12 v-196 A12,12 0 0 1 581.515,3.5150000000000006"/></mask><path x="578" y="0" width="222" height="220" fill="rgba(255,255,255,0.02)" d="M590,0 h198 a12,12 0 0 1 12,12 v196 a12,12 0 0 1 -12,12 h-198 a12,12 0 0 1 -12,-12 v-196 a12,12 0 0 1 12,-12"/><path width="222" height="220" clip-path="url(#satori_bc-id-2)" fill="none" stroke="rgba(255,255,255,0.06)" stroke-width="2" d="M581.515,3.5150000000000006 A12,12 0 0 1 590,0 h198 a12,12 0 0 1 12,12 v196 a12,12 0 0 1 -12,12 h-198 a12,12 0 0 1 -12,-12 v-196 A12,12 0 0 1 581.515,3.5150000000000006"/><clipPath id="satori_cp-id-2-0" clip-path="url(#satori_cp-id-2)"><rect x="579" y="1" width="220" height="218"/></clipPath><mask id="satori_om-id-2-0"><rect x="579" y="1" width="220" height="218" fill="#fff" mask="url(#satori_om-id-2)"/></mask><svg x="579" y="1" width="220" height="218" preserveAspectRatio="none" clip-path="url(#satori_cp-id-2-0)" mask="url(#satori_om-id-2-0)"><defs><radialGradient id="stat-glow-commits" cx="100%" cy="100%" r="90%"><stop offset="0%" stop-color="rgba(245, 166, 35, 0.15)"></stop><stop offset="100%" stop-color="rgba(245, 166, 35, 0)"></stop></radialGradient></defs><rect className="ambient-anim" width="100%" height="100%" fill="url(#stat-glow-commits)"></rect></svg><mask id="satori_om-id-2-0-0"><rect x="579" y="1" width="0" height="218" fill="#fff" mask="url(#satori_om-id-2)"/></mask><mask id="satori_om-id-2-0-0-0"><rect x="579" y="1" width="0" height="218" fill="#fff" mask="url(#satori_om-id-2)"/></mask><mask id="satori_om-id-2-0-0-0-0"><rect x="579" y="1" width="0" height="218" fill="#fff" mask="url(#satori_om-id-2)"/></mask><mask id="satori_om-id-2-0-0-0-1"><rect x="579" y="1" width="0" height="218" fill="#fff" mask="url(#satori_om-id-2)"/></mask><mask id="satori_om-id-2-0-1"><rect x="579" y="1" width="0" height="218" fill="#fff" mask="url(#satori_om-id-2)"/></mask><mask id="satori_om-id-2-1"><rect x="649" y="81" width="80" height="58" fill="#fff" mask="url(#satori_om-id-2)"/></mask><mask id="satori_om-id-2-1-0"><rect x="649" y="81" width="80" height="44" fill="#fff" mask="url(#satori_om-id-2)"/></mask><g mask="url(#satori_om-id-2)" clip-path="url(#satori_cp-id-2)"><path fill="#f5a623" d="M656.4 89.8L662.2 89.8L662.2 116L656.8 116L656.8 94.5L656.6 94.5L650.6 98.8L650.6 93.9L656.4 89.8ZM674.6 116.4L674.6 116.4Q671.9 116.4 669.8 115.4Q667.7 114.4 666.4 112.6Q665.2 110.9 665.2 108.7L665.2 108.7L670.4 108.7Q670.4 109.7 671.0 110.5Q671.6 111.2 672.5 111.7Q673.5 112.1 674.6 112.1L674.6 112.1Q675.9 112.1 676.9 111.5Q677.9 110.9 678.5 109.9Q679.1 108.8 679.1 107.4L679.1 107.4Q679.1 106.0 678.5 105.0Q677.9 103.9 676.9 103.3Q675.8 102.7 674.5 102.7L674.5 102.7Q673.3 102.7 672.2 103.1Q671.1 103.6 670.5 104.4L670.5 104.4L665.7 103.6L667.0 89.8L682.8 89.8L682.8 94.2L671.4 94.2L670.7 100.9L670.9 100.9Q671.6 99.9 673.0 99.3Q674.3 98.7 676.0 98.7L676.0 98.7Q677.8 98.7 679.3 99.3Q680.8 100.0 681.9 101.1Q683.0 102.3 683.6 103.8Q684.3 105.4 684.3 107.3L684.3 107.3Q684.3 109.9 683.0 112.0Q681.8 114.0 679.6 115.2Q677.4 116.4 674.6 116.4ZM699.2 111.3L686.7 111.3L686.7 107.1L697.6 89.8L704.4 89.8L704.4 107.0L707.6 107.0L707.6 111.3L704.4 111.3L704.4 116L699.2 116L699.2 111.3ZM692.1 107.0L699.3 107.0L699.3 95.7L699.1 95.7L692.1 106.8L692.1 107.0ZM716.9 116L711.4 116L722.3 94.4L722.3 94.2L709.6 94.2L709.6 89.8L727.9 89.8L727.9 94.3L716.9 116Z "/></g><mask id="satori_om-id-2-1-1"><rect x="654" y="127" width="71" height="12" fill="#fff" mask="url(#satori_om-id-2)"/></mask><g mask="url(#satori_om-id-2)" clip-path="url(#satori_cp-id-2)"><path fill="rgba(255,255,255,0.4)" d="M657.8 137.1L657.8 137.1Q656.9 137.1 656.1 136.7Q655.3 136.2 654.9 135.4Q654.5 134.5 654.5 133.4L654.5 133.4Q654.5 132.2 654.9 131.3Q655.3 130.5 656.1 130.1Q656.9 129.6 657.8 129.6L657.8 129.6Q658.5 129.6 659.0 129.8Q659.5 130.0 659.9 130.3Q660.4 130.6 660.6 131.1Q660.9 131.6 661.0 132.2L661.0 132.2L659.5 132.2Q659.4 131.9 659.3 131.7Q659.1 131.4 658.9 131.3Q658.7 131.1 658.4 131.0Q658.2 131.0 657.9 131.0L657.9 131.0Q657.3 131.0 656.9 131.2Q656.4 131.5 656.2 132.1Q656.0 132.6 656.0 133.4L656.0 133.4Q656.0 134.2 656.2 134.7Q656.5 135.2 656.9 135.5Q657.3 135.8 657.9 135.8L657.9 135.8Q658.2 135.8 658.4 135.7Q658.7 135.6 658.9 135.4Q659.1 135.3 659.3 135.0Q659.4 134.8 659.5 134.5L659.5 134.5L661.0 134.5Q660.9 135.0 660.7 135.5Q660.4 135.9 660.0 136.3Q659.6 136.7 659.1 136.9Q658.5 137.1 657.8 137.1ZM668.3 137.1L668.3 137.1Q667.3 137.1 666.5 136.7Q665.8 136.2 665.3 135.4Q664.9 134.5 664.9 133.4L664.9 133.4Q664.9 132.2 665.3 131.3Q665.8 130.5 666.5 130.1Q667.3 129.6 668.3 129.6L668.3 129.6Q669.2 129.6 670.0 130.1Q670.8 130.5 671.2 131.3Q671.6 132.2 671.6 133.4L671.6 133.4Q671.6 134.5 671.2 135.4Q670.8 136.2 670.0 136.7Q669.2 137.1 668.3 137.1ZM668.3 135.8L668.3 135.8Q668.8 135.8 669.2 135.5Q669.7 135.2 669.9 134.7Q670.1 134.1 670.1 133.4L670.1 133.4Q670.1 132.6 669.9 132.0Q669.7 131.5 669.2 131.2Q668.8 131.0 668.3 131.0L668.3 131.0Q667.7 131.0 667.3 131.2Q666.8 131.5 666.6 132.0Q666.4 132.6 666.4 133.4L666.4 133.4Q666.4 134.1 666.6 134.7Q666.8 135.2 667.3 135.5Q667.7 135.8 668.3 135.8ZM677.2 137L675.8 137L675.8 129.7L678.0 129.7L679.2 133.1Q679.3 133.3 679.4 133.7Q679.5 134.0 679.6 134.5L679.6 134.5Q679.7 134.9 679.8 135.3L679.8 135.3Q679.9 134.9 679.9 134.5L679.9 134.5Q680.0 134.1 680.1 133.7Q680.2 133.3 680.3 133.1L680.3 133.1L681.5 129.7L683.8 129.7L683.8 137L682.3 137L682.3 133.6Q682.3 133.3 682.3 133.0Q682.3 132.6 682.3 132.2Q682.3 131.8 682.3 131.4L682.3 131.4Q682.3 131.2 682.3 131.0L682.3 131.0Q682.3 131.2 682.2 131.4L682.2 131.4Q682.1 131.9 682.0 132.3Q681.9 132.7 681.8 133.0Q681.7 133.3 681.6 133.6L681.6 133.6L680.4 137L679.1 137L677.9 133.6Q677.8 133.3 677.7 133.0Q677.6 132.7 677.5 132.3Q677.4 131.9 677.3 131.4L677.3 131.4Q677.2 131.2 677.2 131.1L677.2 131.1Q677.2 131.2 677.2 131.4L677.2 131.4Q677.2 131.8 677.2 132.2Q677.2 132.6 677.2 133.0Q677.2 133.3 677.2 133.6L677.2 133.6L677.2 137ZM689.6 137L688.1 137L688.1 129.7L690.4 129.7L691.5 133.1Q691.6 133.3 691.7 133.7Q691.8 134.0 691.9 134.5L691.9 134.5Q692.0 134.9 692.1 135.3L692.1 135.3Q692.2 134.9 692.3 134.5L692.3 134.5Q692.4 134.1 692.5 133.7Q692.6 133.3 692.6 133.1L692.6 133.1L693.8 129.7L696.1 129.7L696.1 137L694.6 137L694.6 133.6Q694.6 133.3 694.6 133.0Q694.6 132.6 694.6 132.2Q694.6 131.8 694.6 131.4L694.6 131.4Q694.6 131.2 694.6 131.0L694.6 131.0Q694.6 131.2 694.5 131.4L694.5 131.4Q694.4 131.9 694.3 132.3Q694.2 132.7 694.1 133.0Q694.0 133.3 693.9 133.6L693.9 133.6L692.7 137L691.5 137L690.2 133.6Q690.2 133.3 690.1 133.0Q689.9 132.7 689.8 132.3Q689.7 131.9 689.6 131.4L689.6 131.4Q689.6 131.2 689.5 131.1L689.5 131.1Q689.5 131.2 689.5 131.4L689.5 131.4Q689.5 131.8 689.5 132.2Q689.5 132.6 689.6 133.0Q689.6 133.3 689.6 133.6L689.6 133.6L689.6 137ZM700.4 129.7L701.9 129.7L701.9 137L700.4 137L700.4 129.7ZM708.1 131.0L705.9 131.0L705.9 129.7L711.9 129.7L711.9 131.0L709.6 131.0L709.6 137L708.1 137L708.1 131.0ZM718.5 137.1L718.5 137.1Q717.7 137.1 717.0 136.8Q716.4 136.6 716.0 136.0Q715.7 135.5 715.6 134.7L715.6 134.7L717.1 134.7Q717.1 135.1 717.3 135.4Q717.5 135.6 717.8 135.7Q718.1 135.8 718.5 135.8L718.5 135.8Q718.9 135.8 719.2 135.7Q719.5 135.6 719.7 135.4Q719.9 135.2 719.9 134.9L719.9 134.9Q719.9 134.7 719.7 134.5Q719.6 134.3 719.3 134.2Q719.0 134.1 718.6 134.0L718.6 134.0L717.8 133.8Q716.9 133.6 716.4 133.1Q715.8 132.6 715.8 131.8L715.8 131.8Q715.8 131.2 716.2 130.7Q716.5 130.2 717.2 129.9Q717.8 129.6 718.6 129.6L718.6 129.6Q719.4 129.6 720.0 129.9Q720.6 130.2 720.9 130.7Q721.2 131.2 721.3 131.8L721.3 131.8L719.8 131.8Q719.8 131.4 719.4 131.1Q719.1 130.9 718.5 130.9L718.5 130.9Q718.2 130.9 717.9 131.0Q717.6 131.1 717.5 131.3Q717.4 131.5 717.4 131.7L717.4 131.7Q717.4 132.0 717.5 132.2Q717.7 132.3 717.9 132.5Q718.2 132.6 718.5 132.6L718.5 132.6L719.2 132.8Q719.6 132.9 720.0 133.1Q720.4 133.3 720.7 133.5Q721.0 133.8 721.2 134.1Q721.4 134.5 721.4 134.9L721.4 134.9Q721.4 135.6 721.0 136.1Q720.7 136.6 720.1 136.8Q719.4 137.1 718.5 137.1Z "/></g></svg>