<!-- Generated by readme-aura https://github.com/collectioneur/readme-aura -->
<svg width="860" height="220" viewBox="0 0 860 220" xmlns="http://www.w3.org/2000/svg"><mask id="satori_om-id"><rect x="0" y="0" width="860" height="220" fill="#fff"/></mask><defs><clipPath id="satori_bc-id-0"><path x="0" y="0" width="603" height="220" d="M24,0 h555 a24,24 0 0 1 24,24 v172 a24,24 0 0 1 -24,24 h-555 a24,24 0 0 1 -24,-24 v-172 a24,24 0 0 1 24,-24"/></clipPath></defs><clipPath id="satori_cp-id-0"><path x="0" y="0" width="603" height="220" d="M24,0 h555 a24,24 0 0 1 24,24 v172 a24,24 0 0 1 -24,24 h-555 a24,24 0 0 1 -24,-24 v-172 a24,24 0 0 1 24,-24"/></clipPath><mask id="satori_om-id-0"><rect x="1" y="1" width="601" height="218" fill="#fff"/><path width="603" height="220" fill="none" stroke="#000" stroke-width="2" d="M7.029,7.029 A24,24 0 0 1 24,0 h555 a24,24 0 0 1 24,24 v172 a24,24 0 0 1 -24,24 h-555 a24,24 0 0 1 -24,-24 v-172 A24,24 0 0 1 7.029,7.029"/></mask><path x="0" y="0" width="603" height="220" fill="#070709" d="M24,0 h555 a24,24 0 0 1 24,24 v172 a24,24 0 0 1 -24,24 h-555 a24,24 0 0 1 -24,-24 v-172 a24,24 0 0 1 24,-24"/><path width="603" height="220" clip-path="url(#satori_bc-id-0)" fill="none" stroke="rgba(255,255,255,0.08)" stroke-width="2" d="M7.029,7.029 A24,24 0 0 1 24,0 h555 a24,24 0 0 1 24,24 v172 a24,24 0 0 1 -24,24 h-555 a24,24 0 0 1 -24,-24 v-172 A24,24 0 0 1 7.029,7.029"/><clipPath id="satori_cp-id-0-0" clip-path="url(#satori_cp-id-0)"><rect x="1" y="1" width="600" height="220"/></clipPath><mask id="satori_om-id-0-0"><rect x="1" y="1" width="600" height="220" fill="#fff" mask="url(#satori_om-id-0)"/></mask><g opacity="0.8"><svg x="1" y="1" width="600" height="220" preserveAspectRatio="none" clip-path="url(#satori_cp-id-0-0)" mask="url(#satori_om-id-0-0)"><defs><radialGradient id="about-red" cx="50%" cy="50%" r="50%"><stop offset="0%" stop-color="rgba(231, 76, 60, 0.25)"></stop><stop offset="100%" stop-color="rgba(231, 76, 60, 0)"></stop></radialGradient></defs><ellipse cx="250" cy="110" rx="450" ry="250" fill="url(#about-red)"></ellipse></svg></g><mask id="satori_om-id-0-0-0"><rect x="1" y="1" width="0" height="220" fill="#fff" mask="url(#satori_om-id-0)"/></mask><g opacity="0.8"></g><mask id="satori_om-id-0-0-0-0"><rect x="1" y="1" width="0" height="220" fill="#fff" mask="url(#satori_om-id-0)"/></mask><g opacity="0.8"></g><mask id="satori_om-id-0-0-0-0-0"><rect x="1" y="1" width="0" height="220" fill="#fff" mask="url(#satori_om-id-0)"/></mask><g opacity="0.8"></g><mask id="satori_om-id-0-0-0-0-1"><rect x="1" y="1" width="0" height="220" fill="#fff" mask="url(#satori_om-id-0)"/></mask><g opacity="0.8"></g><mask id="satori_om-id-0-0-1"><rect x="1" y="1" width="0" height="220" fill="#fff" mask="url(#satori_om-id-0)"/></mask><g opacity="0.8"></g><mask id="satori_om-id-0-1"><rect x="37" y="37" width="529" height="13" fill="#fff" mask="url(#satori_om-id-0)"/></mask><g mask="url(#satori_om-id-0)" clip-path="url(#satori_cp-id-0)"><path fill="rgba(255,255,255,0.4)" d="M39.1 48L37.3 48L40.0 40.0L42.1 40.0L44.9 48L43.1 48L42.5 46.1L39.7 46.1L39.1 48ZM40.1 44.9L42.1 44.9L41.8 44.1Q41.6 43.4 41.4 42.5L41.4 42.5Q41.2 41.9 41.1 41.3L41.1 41.3Q40.9 41.9 40.8 42.5L40.8 42.5Q40.5 43.4 40.3 44.1L40.3 44.1L40.1 44.9ZM53.3 48L49.9 48L49.9 40.0L53.1 40.0Q54.0 40.0 54.6 40.3Q55.2 40.5 55.5 41.0Q55.8 41.5 55.8 42.1L55.8 42.1Q55.8 42.5 55.6 42.9Q55.4 43.2 55.1 43.5Q54.7 43.7 54.3 43.8L54.3 43.8L54.3 43.9Q54.8 43.9 55.2 44.1Q55.6 44.3 55.8 44.8Q56.1 45.2 56.1 45.8L56.1 45.8Q56.1 46.4 55.8 46.9Q55.4 47.4 54.8 47.7Q54.2 48 53.3 48L53.3 48ZM51.6 44.5L51.6 46.7L53.0 46.7Q53.7 46.7 54.0 46.4Q54.4 46.1 54.4 45.6L54.4 45.6Q54.4 45.3 54.2 45.0Q54.1 44.8 53.8 44.6Q53.5 44.5 53.0 44.5L53.0 44.5L51.6 44.5ZM51.6 41.3L51.6 43.4L52.9 43.4Q53.2 43.4 53.5 43.2Q53.8 43.1 53.9 42.9Q54.1 42.6 54.1 42.3L54.1 42.3Q54.1 41.9 53.8 41.6Q53.5 41.3 52.9 41.3L52.9 41.3L51.6 41.3ZM64.7 48.1L64.7 48.1Q63.7 48.1 62.8 47.6Q62.0 47.1 61.5 46.2Q61.0 45.3 61.0 44.0L61.0 44.0Q61.0 42.7 61.5 41.8Q62.0 40.9 62.8 40.4Q63.7 39.9 64.7 39.9L64.7 39.9Q65.8 39.9 66.6 40.4Q67.5 40.9 68.0 41.8Q68.5 42.7 68.5 44.0L68.5 44.0Q68.5 45.3 68.0 46.2Q67.5 47.1 66.6 47.6Q65.8 48.1 64.7 48.1ZM64.7 46.7L64.7 46.7Q65.4 46.7 65.8 46.3Q66.3 46.0 66.5 45.5Q66.8 44.9 66.8 44.0L66.8 44.0Q66.8 43.1 66.5 42.5Q66.3 42.0 65.8 41.6Q65.4 41.3 64.7 41.3L64.7 41.3Q64.1 41.3 63.6 41.7Q63.2 42.0 62.9 42.6Q62.7 43.1 62.7 44.0L62.7 44.0Q62.7 44.9 62.9 45.4Q63.2 46.0 63.6 46.3Q64.1 46.7 64.7 46.7ZM77.0 48.1L77.0 48.1Q76.0 48.1 75.3 47.7Q74.5 47.4 74.1 46.7Q73.7 46.1 73.7 45.2L73.7 45.2L73.7 40.0L75.3 40.0L75.3 45.1Q75.3 45.5 75.5 45.9Q75.7 46.2 76.1 46.5Q76.5 46.7 77.0 46.7L77.0 46.7Q77.5 46.7 77.9 46.5Q78.2 46.2 78.4 45.9Q78.7 45.5 78.7 45.1L78.7 45.1L78.7 40.0L80.3 40.0L80.3 45.2Q80.3 46.1 79.9 46.7Q79.5 47.4 78.7 47.7Q78.0 48.1 77.0 48.1ZM87.9 41.4L85.4 41.4L85.4 40.0L92.0 40.0L92.0 41.4L89.5 41.4L89.5 48L87.9 48L87.9 41.4Z "/></g><mask id="satori_om-id-0-2"><rect x="37" y="66" width="529" height="82" fill="#fff" mask="url(#satori_om-id-0)"/></mask><mask id="satori_om-id-0-2-0"><rect x="37" y="66" width="529" height="41" fill="#fff" mask="url(#satori_om-id-0)"/></mask><g mask="url(#satori_om-id-0)" clip-path="url(#satori_cp-id-0)"><path fill="#ffffff" d="M43.4 99L37.8 99L46.3 74.3L52.9 74.3L61.6 99L55.9 99L54.0 93.3L45.3 93.3L43.4 99ZM46.5 89.3L52.7 89.3L52.0 87.1Q51.3 84.8 50.5 82L50.5 82Q50.0 80.2 49.5 78.2L49.5 78.2Q49.0 80.3 48.6 82.0L48.6 82.0Q47.9 84.8 47.2 87.1L47.2 87.1L46.5 89.3ZM69.0 99L64.0 99L64.0 80.4L68.8 80.4L68.8 83.7L69.0 83.7Q69.5 82.0 70.7 81.1Q71.9 80.2 73.5 80.2L73.5 80.2Q73.9 80.2 74.3 80.2Q74.8 80.3 75.1 80.4L75.1 80.4L75.1 84.8Q74.8 84.7 74.2 84.6Q73.5 84.6 73.0 84.6L73.0 84.6Q71.8 84.6 70.9 85.0Q70.0 85.5 69.5 86.4Q69.0 87.3 69.0 88.4L69.0 88.4L69.0 99ZM85.7 99.4L85.7 99.4Q82.8 99.4 80.8 98.2Q78.8 97.0 77.7 94.8Q76.6 92.7 76.6 89.8L76.6 89.8Q76.6 86.9 77.7 84.8Q78.8 82.6 80.8 81.4Q82.8 80.2 85.7 80.2L85.7 80.2Q87.3 80.2 88.7 80.6Q90.1 81.1 91.2 81.9Q92.2 82.7 92.9 83.8Q93.6 85.0 93.9 86.4L93.9 86.4L89.3 87.2Q89.1 86.5 88.8 85.9Q88.5 85.4 88.0 85.0Q87.6 84.6 87.0 84.3Q86.4 84.1 85.7 84.1L85.7 84.1Q84.4 84.1 83.5 84.8Q82.6 85.6 82.1 86.8Q81.7 88.1 81.7 89.8L81.7 89.8Q81.7 91.4 82.1 92.7Q82.6 94.0 83.5 94.7Q84.4 95.4 85.7 95.4L85.7 95.4Q86.4 95.4 87.0 95.2Q87.6 95.0 88.1 94.6Q88.5 94.2 88.9 93.6Q89.2 93.0 89.3 92.2L89.3 92.2L93.9 93.1Q93.7 94.5 93.0 95.7Q92.3 96.8 91.2 97.7Q90.1 98.5 88.7 98.9Q87.3 99.4 85.7 99.4ZM101.8 88.3L101.8 88.3L101.8 99L96.9 99L96.9 74.3L101.7 74.3L101.7 84.0Q102.4 82.4 103.6 81.5L103.6 81.5Q105.0 80.2 107.4 80.2L107.4 80.2Q109.3 80.2 110.8 81.0Q112.2 81.9 113.0 83.5Q113.8 85.0 113.8 87.2L113.8 87.2L113.8 99L108.8 99L108.8 88.1Q108.8 86.3 107.9 85.4Q107.0 84.4 105.4 84.4L105.4 84.4Q104.4 84.4 103.6 84.8Q102.8 85.3 102.3 86.2Q101.8 87.0 101.8 88.3ZM122.5 99L117.5 99L117.5 80.4L122.5 80.4L122.5 99ZM120.0 78.0L120.0 78.0Q118.9 78.0 118.1 77.3Q117.3 76.5 117.3 75.5L117.3 75.5Q117.3 74.4 118.1 73.6Q118.9 72.9 120.0 72.9L120.0 72.9Q121.1 72.9 122.0 73.6Q122.8 74.4 122.8 75.5L122.8 75.5Q122.8 76.5 122.0 77.3Q121.1 78.0 120.0 78.0ZM132.0 80.4L135.5 80.4L135.5 84.2L132.0 84.2L132.0 93.6Q132.0 94.5 132.4 94.9Q132.8 95.3 133.7 95.3L133.7 95.3Q134.0 95.3 134.5 95.2Q135.0 95.1 135.3 95.1L135.3 95.1L136.0 98.8Q135.1 99.1 134.3 99.2Q133.5 99.3 132.7 99.3L132.7 99.3Q130.0 99.3 128.5 97.9Q127.0 96.5 127.0 94.0L127.0 94.0L127.0 84.2L124.4 84.2L124.4 80.4L127.0 80.4L127.0 76.0L132.0 76.0L132.0 80.4ZM146.6 99.4L146.6 99.4Q143.7 99.4 141.7 98.2Q139.6 97.0 138.5 94.9Q137.4 92.8 137.4 89.8L137.4 89.8Q137.4 86.9 138.5 84.8Q139.6 82.6 141.6 81.4Q143.6 80.2 146.3 80.2L146.3 80.2Q148.2 80.2 149.7 80.8Q151.3 81.4 152.5 82.5Q153.7 83.7 154.4 85.5Q155.0 87.2 155.0 89.6L155.0 89.6L155.0 91.0L142.3 91.0Q142.4 92.4 142.9 93.4L142.9 93.4Q143.4 94.5 144.4 95.1Q145.4 95.6 146.7 95.6L146.7 95.6Q147.5 95.6 148.3 95.4Q149.0 95.1 149.5 94.6Q150.0 94.1 150.2 93.4L150.2 93.4L154.8 94.3Q154.3 95.8 153.2 96.9Q152.1 98.1 150.4 98.7Q148.8 99.4 146.6 99.4ZM142.4 87.9L142.4 87.9L150.2 87.9Q150.1 87.0 149.8 86.2L149.8 86.2Q149.4 85.1 148.5 84.5Q147.7 84.0 146.4 84.0L146.4 84.0Q145.1 84.0 144.2 84.6Q143.3 85.2 142.8 86.2L142.8 86.2Q142.5 86.9 142.4 87.9ZM166.2 99.4L166.2 99.4Q163.4 99.4 161.4 98.2Q159.4 97.0 158.3 94.8Q157.2 92.7 157.2 89.8L157.2 89.8Q157.2 86.9 158.3 84.8Q159.4 82.6 161.4 81.4Q163.4 80.2 166.2 80.2L166.2 80.2Q167.9 80.2 169.3 80.6Q170.7 81.1 171.8 81.9Q172.8 82.7 173.5 83.8Q174.2 85.0 174.5 86.4L174.5 86.4L169.9 87.2Q169.7 86.5 169.4 85.9Q169.1 85.4 168.6 85.0Q168.2 84.6 167.6 84.3Q167.0 84.1 166.3 84.1L166.3 84.1Q165.0 84.1 164.1 84.8Q163.2 85.6 162.7 86.8Q162.2 88.1 162.2 89.8L162.2 89.8Q162.2 91.4 162.7 92.7Q163.2 94.0 164.1 94.7Q165.0 95.4 166.3 95.4L166.3 95.4Q167.0 95.4 167.6 95.2Q168.2 95.0 168.7 94.6Q169.1 94.2 169.5 93.6Q169.8 93.0 169.9 92.2L169.9 92.2L174.5 93.1Q174.3 94.5 173.6 95.7Q172.9 96.8 171.8 97.7Q170.7 98.5 169.3 98.9Q167.9 99.4 166.2 99.4ZM183.2 80.4L186.7 80.4L186.7 84.2L183.2 84.2L183.2 93.6Q183.2 94.5 183.6 94.9Q184.0 95.3 184.9 95.3L184.9 95.3Q185.2 95.3 185.7 95.2Q186.2 95.1 186.5 95.1L186.5 95.1L187.2 98.8Q186.3 99.1 185.5 99.2Q184.7 99.3 184.0 99.3L184.0 99.3Q181.2 99.3 179.7 97.9Q178.2 96.5 178.2 94.0L178.2 94.0L178.2 84.2L175.7 84.2L175.7 80.4L178.2 80.4L178.2 76.0L183.2 76.0L183.2 80.4ZM194.4 99L189.4 99L189.4 80.4L194.4 80.4L194.4 99ZM191.9 78.0L191.9 78.0Q190.8 78.0 190.0 77.3Q189.2 76.5 189.2 75.5L189.2 75.5Q189.2 74.4 190.0 73.6Q190.8 72.9 191.9 72.9L191.9 72.9Q193.0 72.9 193.8 73.6Q194.6 74.4 194.6 75.5L194.6 75.5Q194.6 76.5 193.8 77.3Q193.0 78.0 191.9 78.0ZM203.1 88.3L203.1 88.3L203.1 99L198.1 99L198.1 80.4L202.8 80.4L202.9 84.3Q203.6 82.5 204.8 81.5L204.8 81.5Q206.3 80.2 208.7 80.2L208.7 80.2Q210.6 80.2 212.0 81.0Q213.5 81.9 214.2 83.5Q215.0 85.0 215.0 87.2L215.0 87.2L215.0 99L210.1 99L210.1 88.1Q210.1 86.3 209.2 85.4Q208.3 84.4 206.7 84.4L206.7 84.4Q205.7 84.4 204.8 84.8Q204.0 85.3 203.6 86.2Q203.1 87.0 203.1 88.3ZM227.0 106.3L227.0 106.3Q224.7 106.3 223.0 105.7Q221.3 105.2 220.2 104.1Q219.1 103.1 218.7 101.8L218.7 101.8L223.0 100.6Q223.2 101.1 223.7 101.6Q224.2 102.1 225.0 102.4Q225.8 102.7 227 102.7L227 102.7Q228.9 102.7 230.0 101.8Q231.1 101.0 231.1 99.1L231.1 99.1L231.1 95.7L230.7 95.7Q230.4 96.5 229.7 97.2Q229.1 97.9 228.1 98.3Q227.1 98.7 225.6 98.7L225.6 98.7Q223.5 98.7 221.8 97.8Q220.0 96.8 219.0 94.8Q218.0 92.8 218.0 89.7L218.0 89.7Q218.0 86.5 219.0 84.4Q220.1 82.3 221.8 81.3Q223.5 80.2 225.6 80.2L225.6 80.2Q227.1 80.2 228.2 80.7Q229.3 81.3 229.9 82.0Q230.6 82.8 230.9 83.6L230.9 83.6L231.1 83.6L231.1 80.4L236.0 80.4L236.0 98.9Q236.0 101.4 234.9 103.0Q233.7 104.7 231.7 105.5Q229.7 106.3 227.0 106.3ZM227.1 94.9L227.1 94.9Q228.4 94.9 229.3 94.3Q230.2 93.7 230.6 92.5Q231.1 91.3 231.1 89.7L231.1 89.7Q231.1 88.0 230.6 86.8Q230.2 85.6 229.3 84.9Q228.4 84.2 227.1 84.2L227.1 84.2Q225.8 84.2 224.9 84.9Q224.0 85.6 223.6 86.8Q223.1 88.1 223.1 89.7L223.1 89.7Q223.1 91.3 223.6 92.5Q224.0 93.7 224.9 94.3Q225.8 94.9 227.1 94.9Z M256.2 99L251.2 99L245.7 80.4L250.9 80.4L252.5 87.3Q253.0 89.1 253.4 91.3L253.4 91.3Q253.8 92.8 254.1 94.4L254.1 94.4Q254.4 92.8 254.7 91.3L254.7 91.3Q255.2 89.2 255.7 87.3L255.7 87.3L257.4 80.4L261.9 80.4L263.6 87.3Q264.0 89.2 264.5 91.3L264.5 91.3Q264.9 92.8 265.2 94.5L265.2 94.5Q265.5 92.8 265.8 91.3L265.8 91.3Q266.2 89.2 266.7 87.3L266.7 87.3L268.3 80.4L273.6 80.4L268.1 99L263.0 99L260.9 91.8Q260.6 90.8 260.3 89.5Q260.0 88.2 259.8 86.8L259.8 86.8Q259.7 86.5 259.6 86.2L259.6 86.2Q259.6 86.5 259.5 86.8L259.5 86.8Q259.2 88.2 258.9 89.5Q258.6 90.8 258.3 91.8L258.3 91.8L256.2 99ZM284.1 99.4L284.1 99.4Q281.3 99.4 279.2 98.2Q277.1 97.0 276.0 94.9Q274.9 92.8 274.9 89.8L274.9 89.8Q274.9 86.9 276.0 84.8Q277.1 82.6 279.1 81.4Q281.1 80.2 283.9 80.2L283.9 80.2Q285.7 80.2 287.3 80.8Q288.8 81.4 290.0 82.5Q291.2 83.7 291.9 85.5Q292.6 87.2 292.6 89.6L292.6 89.6L292.6 91.0L279.9 91.0Q279.9 92.4 280.4 93.4L280.4 93.4Q280.9 94.5 281.9 95.1Q282.9 95.6 284.2 95.6L284.2 95.6Q285.1 95.6 285.8 95.4Q286.5 95.1 287.0 94.6Q287.5 94.1 287.8 93.4L287.8 93.4L292.3 94.3Q291.8 95.8 290.7 96.9Q289.6 98.1 287.9 98.7Q286.3 99.4 284.1 99.4ZM279.9 87.9L279.9 87.9L287.8 87.9Q287.7 87.0 287.4 86.2L287.4 86.2Q286.9 85.1 286.1 84.5Q285.2 84.0 283.9 84.0L283.9 84.0Q282.6 84.0 281.7 84.6Q280.8 85.2 280.3 86.2L280.3 86.2Q280.0 86.9 279.9 87.9ZM305.9 99.3L305.9 99.3Q304.4 99.3 303.3 98.8Q302.3 98.3 301.6 97.5Q301.0 96.8 300.6 96.0L300.6 96.0L300.4 96.0L300.4 99L295.5 99L295.5 74.3L300.5 74.3L300.5 83.6L300.6 83.6Q301.0 82.8 301.6 82.0Q302.2 81.3 303.3 80.7Q304.3 80.2 305.9 80.2L305.9 80.2Q308.0 80.2 309.7 81.3Q311.4 82.3 312.4 84.5Q313.4 86.6 313.4 89.8L313.4 89.8Q313.4 92.8 312.4 95.0Q311.4 97.1 309.7 98.2Q308.0 99.3 305.9 99.3ZM304.3 95.3L304.3 95.3Q305.6 95.3 306.5 94.6Q307.4 93.9 307.9 92.6Q308.3 91.4 308.3 89.7L308.3 89.7Q308.3 88.1 307.9 86.9Q307.4 85.6 306.5 84.9Q305.7 84.2 304.3 84.2L304.3 84.2Q303.1 84.2 302.2 84.9Q301.3 85.6 300.8 86.8Q300.3 88.0 300.3 89.7L300.3 89.7Q300.3 91.4 300.8 92.7Q301.3 93.9 302.2 94.6Q303.1 95.3 304.3 95.3Z "/></g><mask id="satori_om-id-0-2-1"><rect x="37" y="107" width="529" height="41" fill="#fff" mask="url(#satori_om-id-0)"/></mask><g mask="url(#satori_om-id-0)" clip-path="url(#satori_cp-id-0)"><path fill="#ffffff" d="M47.5 140.4L47.5 140.4Q44.7 140.4 42.6 139.2Q40.6 138.0 39.4 135.9Q38.3 133.8 38.3 130.8L38.3 130.8Q38.3 127.9 39.4 125.8Q40.5 123.6 42.5 122.4Q44.6 121.2 47.3 121.2L47.3 121.2Q49.1 121.2 50.7 121.8Q52.2 122.4 53.4 123.5Q54.6 124.7 55.3 126.5Q56.0 128.2 56.0 130.6L56.0 130.6L56.0 132.0L43.3 132.0Q43.3 133.4 43.8 134.4L43.8 134.4Q44.4 135.5 45.3 136.1Q46.3 136.6 47.6 136.6L47.6 136.6Q48.5 136.6 49.2 136.4Q49.9 136.1 50.4 135.6Q50.9 135.1 51.2 134.4L51.2 134.4L55.7 135.3Q55.2 136.8 54.1 137.9Q53.0 139.1 51.4 139.7Q49.7 140.4 47.5 140.4ZM43.3 128.9L43.3 128.9L51.2 128.9Q51.1 128.0 50.8 127.2L50.8 127.2Q50.3 126.1 49.5 125.5Q48.6 125.0 47.3 125.0L47.3 125.0Q46.0 125.0 45.1 125.6Q44.2 126.2 43.7 127.2L43.7 127.2Q43.4 127.9 43.3 128.9ZM67.2 140.4L67.2 140.4Q64.4 140.4 62.3 139.2Q60.3 138.0 59.2 135.8Q58.1 133.7 58.1 130.8L58.1 130.8Q58.1 127.9 59.2 125.8Q60.3 123.6 62.3 122.4Q64.4 121.2 67.2 121.2L67.2 121.2Q68.8 121.2 70.2 121.6Q71.6 122.1 72.7 122.9Q73.8 123.7 74.5 124.8Q75.2 126.0 75.4 127.4L75.4 127.4L70.8 128.2Q70.6 127.5 70.3 126.9Q70.0 126.4 69.6 126.0Q69.1 125.6 68.5 125.3Q67.9 125.1 67.2 125.1L67.2 125.1Q65.9 125.1 65.0 125.8Q64.1 126.6 63.6 127.8Q63.2 129.1 63.2 130.8L63.2 130.8Q63.2 132.4 63.6 133.7Q64.1 135.0 65.0 135.7Q65.9 136.4 67.2 136.4L67.2 136.4Q67.9 136.4 68.5 136.2Q69.1 136.0 69.6 135.6Q70.1 135.2 70.4 134.6Q70.7 134.0 70.8 133.2L70.8 133.2L75.5 134.1Q75.2 135.5 74.5 136.7Q73.8 137.8 72.7 138.7Q71.6 139.5 70.2 139.9Q68.8 140.4 67.2 140.4ZM86.7 140.4L86.7 140.4Q83.9 140.4 81.9 139.2Q79.8 138.0 78.7 135.8Q77.6 133.7 77.6 130.8L77.6 130.8Q77.6 127.9 78.7 125.8Q79.8 123.6 81.9 122.4Q83.9 121.2 86.7 121.2L86.7 121.2Q89.5 121.2 91.5 122.4Q93.6 123.6 94.7 125.8Q95.8 127.9 95.8 130.8L95.8 130.8Q95.8 133.7 94.7 135.8Q93.6 138.0 91.5 139.2Q89.5 140.4 86.7 140.4ZM86.7 136.4L86.7 136.4Q88.0 136.4 88.9 135.7Q89.8 135.0 90.3 133.7Q90.7 132.4 90.7 130.8L90.7 130.8Q90.7 129.1 90.3 127.9Q89.8 126.6 88.9 125.9Q88.0 125.1 86.7 125.1L86.7 125.1Q85.4 125.1 84.5 125.9Q83.6 126.6 83.1 127.9Q82.7 129.1 82.7 130.8L82.7 130.8Q82.7 132.4 83.1 133.7Q83.6 135.0 84.5 135.7Q85.4 136.4 86.7 136.4ZM106.1 140.4L106.1 140.4Q103.9 140.4 102.1 139.7Q100.4 139.1 99.3 137.9Q98.2 136.6 97.9 134.9L97.9 134.9L102.5 134.1Q102.9 135.4 103.8 136.1Q104.7 136.7 106.3 136.7L106.3 136.7Q107.7 136.7 108.5 136.2Q109.3 135.6 109.3 134.8L109.3 134.8Q109.3 134.1 108.7 133.6Q108.1 133.1 106.9 132.9L106.9 132.9L103.7 132.2Q101.0 131.7 99.7 130.4Q98.4 129.0 98.4 127.0L98.4 127.0Q98.4 125.2 99.4 123.9Q100.3 122.6 102.1 121.9Q103.8 121.2 106.2 121.2L106.2 121.2Q108.4 121.2 110.0 121.8Q111.6 122.4 112.6 123.5Q113.6 124.6 113.9 126.2L113.9 126.2L109.5 126.9Q109.2 126.0 108.4 125.4Q107.6 124.8 106.3 124.8L106.3 124.8Q105.0 124.8 104.2 125.3Q103.4 125.8 103.4 126.7L103.4 126.7Q103.4 127.4 103.9 127.8Q104.4 128.3 105.8 128.6L105.8 128.6L109.1 129.3Q111.8 129.8 113.1 131.0Q114.4 132.3 114.4 134.3L114.4 134.3Q114.4 136.1 113.3 137.5Q112.3 138.8 110.4 139.6Q108.5 140.4 106.1 140.4ZM117.1 146.6L117.1 146.6L118.3 142.8L118.9 143.0Q119.9 143.2 120.7 143.1Q121.5 143.0 121.9 142.5Q122.4 142.0 122.5 141.0L122.5 141.0L122.6 140.0L115.7 121.4L121.0 121.4L124.1 131.1Q124.6 132.9 125.0 134.7L125.0 134.7Q125.1 135.3 125.3 136.0L125.3 136.0Q125.4 135.3 125.6 134.7L125.6 134.7Q126.0 132.9 126.6 131.1L126.6 131.1L129.9 121.4L135.1 121.4L127.2 142.2Q126.6 143.7 125.8 144.8Q124.9 145.9 123.6 146.5Q122.3 147.1 120.4 147.1L120.4 147.1Q119.4 147.1 118.5 146.9Q117.7 146.8 117.1 146.6ZM144.6 140.4L144.6 140.4Q142.4 140.4 140.7 139.7Q138.9 139.1 137.8 137.9Q136.7 136.6 136.4 134.9L136.4 134.9L141.0 134.1Q141.4 135.4 142.3 136.1Q143.2 136.7 144.8 136.7L144.8 136.7Q146.2 136.7 147.0 136.2Q147.8 135.6 147.8 134.8L147.8 134.8Q147.8 134.1 147.2 133.6Q146.7 133.1 145.4 132.9L145.4 132.9L142.2 132.2Q139.6 131.7 138.2 130.4Q136.9 129.0 136.9 127.0L136.9 127.0Q136.9 125.2 137.9 123.9Q138.9 122.6 140.6 121.9Q142.3 121.2 144.7 121.2L144.7 121.2Q146.9 121.2 148.5 121.8Q150.1 122.4 151.1 123.5Q152.1 124.6 152.4 126.2L152.4 126.2L148.0 126.9Q147.7 126.0 146.9 125.4Q146.1 124.8 144.8 124.8L144.8 124.8Q143.5 124.8 142.7 125.3Q141.9 125.8 141.9 126.7L141.9 126.7Q141.9 127.4 142.4 127.8Q143.0 128.3 144.3 128.6L144.3 128.6L147.6 129.3Q150.3 129.8 151.6 131.0Q152.9 132.3 152.9 134.3L152.9 134.3Q152.9 136.1 151.9 137.5Q150.8 138.8 148.9 139.6Q147.1 140.4 144.6 140.4ZM161.5 121.4L165.0 121.4L165.0 125.2L161.5 125.2L161.5 134.6Q161.5 135.5 161.9 135.9Q162.3 136.3 163.2 136.3L163.2 136.3Q163.5 136.3 164.0 136.2Q164.5 136.1 164.8 136.1L164.8 136.1L165.5 139.8Q164.7 140.1 163.9 140.2Q163.0 140.3 162.3 140.3L162.3 140.3Q159.5 140.3 158.0 138.9Q156.6 137.5 156.6 135.0L156.6 135.0L156.6 125.2L154.0 125.2L154.0 121.4L156.6 121.4L156.6 117.0L161.5 117.0L161.5 121.4ZM176.1 140.4L176.1 140.4Q173.3 140.4 171.2 139.2Q169.2 138.0 168.1 135.9Q167.0 133.8 167.0 130.8L167.0 130.8Q167.0 127.9 168.1 125.8Q169.2 123.6 171.2 122.4Q173.2 121.2 175.9 121.2L175.9 121.2Q177.7 121.2 179.3 121.8Q180.9 122.4 182.1 123.5Q183.2 124.7 183.9 126.5Q184.6 128.2 184.6 130.6L184.6 130.6L184.6 132.0L171.9 132.0Q171.9 133.4 172.4 134.4L172.4 134.4Q173.0 135.5 173.9 136.1Q174.9 136.6 176.2 136.6L176.2 136.6Q177.1 136.6 177.8 136.4Q178.5 136.1 179.0 135.6Q179.5 135.1 179.8 134.4L179.8 134.4L184.3 135.3Q183.9 136.8 182.7 137.9Q181.6 139.1 180.0 139.7Q178.3 140.4 176.1 140.4ZM171.9 128.9L171.9 128.9L179.8 128.9Q179.7 128.0 179.4 127.2L179.4 127.2Q178.9 126.1 178.1 125.5Q177.2 125.0 175.9 125.0L175.9 125.0Q174.6 125.0 173.7 125.6Q172.8 126.2 172.4 127.2L172.4 127.2Q172.0 127.9 171.9 128.9ZM192.5 140L187.5 140L187.5 121.4L192.1 121.4L192.3 125.0Q192.7 124.0 193.3 123.3L193.3 123.3Q194.1 122.2 195.2 121.7Q196.4 121.2 197.6 121.2L197.6 121.2Q199.6 121.2 200.8 122.4L200.8 122.4Q201.8 123.4 202.4 125.3L202.4 125.3Q202.8 124.2 203.4 123.4L203.4 123.4Q204.4 122.3 205.6 121.7Q206.9 121.2 208.3 121.2L208.3 121.2Q210.1 121.2 211.4 121.9Q212.7 122.7 213.5 124.1Q214.3 125.5 214.3 127.5L214.3 127.5L214.3 140L209.3 140L209.3 128.4Q209.3 126.9 208.4 126.1Q207.6 125.3 206.3 125.3L206.3 125.3Q205.4 125.3 204.7 125.7Q204.0 126.1 203.7 126.9Q203.3 127.6 203.3 128.6L203.3 128.6L203.3 140L198.5 140L198.5 128.3Q198.5 126.9 197.7 126.1Q196.9 125.3 195.6 125.3L195.6 125.3Q194.7 125.3 194.0 125.7Q193.3 126.1 192.9 126.9Q192.5 127.7 192.5 128.8L192.5 128.8L192.5 140ZM225.4 140.4L225.4 140.4Q223.2 140.4 221.4 139.7Q219.7 139.1 218.6 137.9Q217.5 136.6 217.2 134.9L217.2 134.9L221.8 134.1Q222.2 135.4 223.1 136.1Q224.0 136.7 225.5 136.7L225.5 136.7Q227.0 136.7 227.8 136.2Q228.6 135.6 228.6 134.8L228.6 134.8Q228.6 134.1 228.0 133.6Q227.4 133.1 226.2 132.9L226.2 132.9L223.0 132.2Q220.3 131.7 219.0 130.4Q217.7 129.0 217.7 127.0L217.7 127.0Q217.7 125.2 218.7 123.9Q219.6 122.6 221.4 121.9Q223.1 121.2 225.5 121.2L225.5 121.2Q227.7 121.2 229.3 121.8Q230.9 122.4 231.9 123.5Q232.9 124.6 233.2 126.2L233.2 126.2L228.8 126.9Q228.5 126.0 227.7 125.4Q226.9 124.8 225.5 124.8L225.5 124.8Q224.3 124.8 223.5 125.3Q222.7 125.8 222.7 126.7L222.7 126.7Q222.7 127.4 223.2 127.8Q223.7 128.3 225.0 128.6L225.0 128.6L228.4 129.3Q231.1 129.8 232.4 131.0Q233.7 132.3 233.7 134.3L233.7 134.3Q233.7 136.1 232.6 137.5Q231.6 138.8 229.7 139.6Q227.8 140.4 225.4 140.4Z M249.9 121.4L253.3 121.4L253.3 125.2L249.9 125.2L249.9 134.6Q249.9 135.5 250.3 135.9Q250.6 136.3 251.6 136.3L251.6 136.3Q251.8 136.3 252.4 136.2Q252.9 136.1 253.1 136.1L253.1 136.1L253.8 139.8Q253.0 140.1 252.2 140.2Q251.4 140.3 250.6 140.3L250.6 140.3Q247.8 140.3 246.4 138.9Q244.9 137.5 244.9 135.0L244.9 135.0L244.9 125.2L242.3 125.2L242.3 121.4L244.9 121.4L244.9 117.0L249.9 117.0L249.9 121.4ZM261.0 129.3L261.0 129.3L261.0 140L256.1 140L256.1 115.3L260.9 115.3L260.9 125.0Q261.6 123.4 262.8 122.5L262.8 122.5Q264.3 121.2 266.6 121.2L266.6 121.2Q268.5 121.2 270.0 122.0Q271.4 122.9 272.2 124.5Q273.0 126.0 273.0 128.2L273.0 128.2L273.0 140L268.0 140L268.0 129.1Q268.0 127.3 267.1 126.4Q266.2 125.4 264.7 125.4L264.7 125.4Q263.6 125.4 262.8 125.8Q262.0 126.3 261.5 127.2Q261.0 128.0 261.0 129.3ZM281.9 140.4L281.9 140.4Q280.2 140.4 278.8 139.7Q277.3 139.1 276.5 137.9Q275.7 136.6 275.7 134.8L275.7 134.8Q275.7 133.3 276.3 132.2Q276.9 131.2 277.9 130.5Q278.9 129.9 280.1 129.6Q281.4 129.2 282.7 129.1L282.7 129.1Q284.4 128.9 285.3 128.8Q286.3 128.7 286.8 128.4Q287.2 128.0 287.2 127.4L287.2 127.4L287.2 127.4Q287.2 126.6 286.9 126.0Q286.6 125.5 285.9 125.2Q285.3 124.9 284.3 124.9L284.3 124.9Q283.4 124.9 282.7 125.2Q281.9 125.5 281.5 126.0Q281.1 126.4 280.8 127.0L280.8 127.0L276.3 126.3Q276.8 124.7 277.9 123.5Q279.0 122.4 280.6 121.8Q282.3 121.2 284.4 121.2L284.4 121.2Q285.8 121.2 287.3 121.6Q288.7 121.9 289.8 122.7Q290.9 123.4 291.6 124.6Q292.2 125.8 292.2 127.5L292.2 127.5L292.2 140L287.5 140L287.5 137.4L287.3 137.4Q286.9 138.3 286.1 138.9Q285.4 139.6 284.3 140.0Q283.3 140.4 281.9 140.4ZM283.3 136.9L283.3 136.9Q284.5 136.9 285.4 136.4Q286.3 135.9 286.8 135.1Q287.3 134.3 287.3 133.4L287.3 133.4L287.3 131.4Q287.1 131.5 286.6 131.6Q286.2 131.8 285.6 131.9Q285.1 132.0 284.5 132.1Q284.0 132.1 283.6 132.2L283.6 132.2Q282.7 132.3 282.0 132.6Q281.3 132.9 280.9 133.4Q280.5 133.9 280.5 134.7L280.5 134.7Q280.5 135.4 280.9 135.9Q281.3 136.4 281.9 136.6Q282.5 136.9 283.3 136.9ZM301.7 121.4L305.2 121.4L305.2 125.2L301.7 125.2L301.7 134.6Q301.7 135.5 302.1 135.9Q302.5 136.3 303.4 136.3L303.4 136.3Q303.7 136.3 304.2 136.2Q304.7 136.1 305.0 136.1L305.0 136.1L305.7 139.8Q304.9 140.1 304.1 140.2Q303.2 140.3 302.5 140.3L302.5 140.3Q299.7 140.3 298.2 138.9Q296.7 137.5 296.7 135.0L296.7 135.0L296.7 125.2L294.2 125.2L294.2 121.4L296.7 121.4L296.7 117.0L301.7 117.0L301.7 121.4Z M320.5 140L315.5 140L315.5 121.4L320.1 121.4L320.3 125.0Q320.7 124.0 321.3 123.3L321.3 123.3Q322.1 122.2 323.2 121.7Q324.3 121.2 325.6 121.2L325.6 121.2Q327.6 121.2 328.8 122.4L328.8 122.4Q329.8 123.4 330.4 125.3L330.4 125.3Q330.8 124.2 331.4 123.4L331.4 123.4Q332.3 122.3 333.6 121.7Q334.9 121.2 336.3 121.2L336.3 121.2Q338.0 121.2 339.4 121.9Q340.7 122.7 341.5 124.1Q342.3 125.5 342.3 127.5L342.3 127.5L342.3 140L337.3 140L337.3 128.4Q337.3 126.9 336.4 126.1Q335.6 125.3 334.3 125.3L334.3 125.3Q333.4 125.3 332.7 125.7Q332.0 126.1 331.6 126.9Q331.3 127.6 331.3 128.6L331.3 128.6L331.3 140L326.5 140L326.5 128.3Q326.5 126.9 325.6 126.1Q324.8 125.3 323.6 125.3L323.6 125.3Q322.7 125.3 322.0 125.7Q321.3 126.1 320.9 126.9Q320.5 127.7 320.5 128.8L320.5 128.8L320.5 140ZM351.2 140.4L351.2 140.4Q349.4 140.4 348.0 139.7Q346.6 139.1 345.8 137.9Q345.0 136.6 345.0 134.8L345.0 134.8Q345.0 133.3 345.6 132.2Q346.2 131.2 347.1 130.5Q348.1 129.9 349.4 129.6Q350.6 129.2 352.0 129.1L352.0 129.1Q353.6 128.9 354.6 128.8Q355.6 128.7 356.1 128.4Q356.5 128.0 356.5 127.4L356.5 127.4L356.5 127.4Q356.5 126.6 356.2 126.0Q355.8 125.5 355.2 125.2Q354.5 124.9 353.6 124.9L353.6 124.9Q352.6 124.9 351.9 125.2Q351.2 125.5 350.8 126.0Q350.3 126.4 350.1 127.0L350.1 127.0L345.5 126.3Q346.0 124.7 347.1 123.5Q348.2 122.4 349.9 121.8Q351.5 121.2 353.6 121.2L353.6 121.2Q355.1 121.2 356.5 121.6Q357.9 121.9 359.1 122.7Q360.2 123.4 360.8 124.6Q361.5 125.8 361.5 127.5L361.5 127.5L361.5 140L356.8 140L356.8 137.4L356.6 137.4Q356.2 138.3 355.4 138.9Q354.7 139.6 353.6 140.0Q352.6 140.4 351.2 140.4ZM352.6 136.9L352.6 136.9Q353.8 136.9 354.7 136.4Q355.6 135.9 356.0 135.1Q356.5 134.3 356.5 133.4L356.5 133.4L356.5 131.4Q356.3 131.5 355.9 131.6Q355.4 131.8 354.9 131.9Q354.3 132.0 353.8 132.1Q353.3 132.1 352.9 132.2L352.9 132.2Q351.9 132.3 351.3 132.6Q350.6 132.9 350.2 133.4Q349.8 133.9 349.8 134.7L349.8 134.7Q349.8 135.4 350.2 135.9Q350.5 136.4 351.2 136.6Q351.8 136.9 352.6 136.9ZM371.0 121.4L374.5 121.4L374.5 125.2L371.0 125.2L371.0 134.6Q371.0 135.5 371.4 135.9Q371.8 136.3 372.7 136.3L372.7 136.3Q373.0 136.3 373.5 136.2Q374.0 136.1 374.3 136.1L374.3 136.1L375.0 139.8Q374.1 140.1 373.3 140.2Q372.5 140.3 371.8 140.3L371.8 140.3Q369.0 140.3 367.5 138.9Q366.0 137.5 366.0 135.0L366.0 135.0L366.0 125.2L363.5 125.2L363.5 121.4L366.0 121.4L366.0 117.0L371.0 117.0L371.0 121.4ZM382.9 121.4L386.4 121.4L386.4 125.2L382.9 125.2L382.9 134.6Q382.9 135.5 383.3 135.9Q383.7 136.3 384.6 136.3L384.6 136.3Q384.9 136.3 385.4 136.2Q385.9 136.1 386.2 136.1L386.2 136.1L386.9 139.8Q386.1 140.1 385.3 140.2Q384.5 140.3 383.7 140.3L383.7 140.3Q380.9 140.3 379.4 138.9Q378.0 137.5 378.0 135.0L378.0 135.0L378.0 125.2L375.4 125.2L375.4 121.4L378.0 121.4L378.0 117.0L382.9 117.0L382.9 121.4ZM397.5 140.4L397.5 140.4Q394.7 140.4 392.6 139.2Q390.6 138.0 389.5 135.9Q388.4 133.8 388.4 130.8L388.4 130.8Q388.4 127.9 389.5 125.8Q390.6 123.6 392.6 122.4Q394.6 121.2 397.3 121.2L397.3 121.2Q399.1 121.2 400.7 121.8Q402.3 122.4 403.5 123.5Q404.7 124.7 405.3 126.5Q406.0 128.2 406.0 130.6L406.0 130.6L406.0 132.0L393.3 132.0Q393.3 133.4 393.8 134.4L393.8 134.4Q394.4 135.5 395.3 136.1Q396.3 136.6 397.6 136.6L397.6 136.6Q398.5 136.6 399.2 136.4Q399.9 136.1 400.4 135.6Q400.9 135.1 401.2 134.4L401.2 134.4L405.7 135.3Q405.3 136.8 404.2 137.9Q403.0 139.1 401.4 139.7Q399.7 140.4 397.5 140.4ZM393.3 128.9L393.3 128.9L401.2 128.9Q401.1 128.0 400.8 127.2L400.8 127.2Q400.4 126.1 399.5 125.5Q398.6 125.0 397.3 125.0L397.3 125.0Q396.0 125.0 395.1 125.6Q394.2 126.2 393.8 127.2L393.8 127.2Q393.4 127.9 393.3 128.9ZM413.9 140L408.9 140L408.9 121.4L413.7 121.4L413.7 124.7L413.9 124.7Q414.4 123.0 415.6 122.1Q416.8 121.2 418.4 121.2L418.4 121.2Q418.8 121.2 419.2 121.2Q419.7 121.3 420.0 121.4L420.0 121.4L420.0 125.8Q419.7 125.7 419.0 125.6Q418.4 125.6 417.8 125.6L417.8 125.6Q416.7 125.6 415.8 126.0Q414.9 126.5 414.4 127.4Q413.9 128.3 413.9 129.4L413.9 129.4L413.9 140ZM425.8 140.3L425.8 140.3Q424.6 140.3 423.8 139.5Q422.9 138.7 422.9 137.5L422.9 137.5Q422.9 136.2 423.8 135.4Q424.6 134.6 425.8 134.6L425.8 134.6Q427.0 134.6 427.8 135.4Q428.7 136.2 428.7 137.5L428.7 137.5Q428.7 138.7 427.8 139.5Q427.0 140.3 425.8 140.3Z "/></g><mask id="satori_om-id-0-3"><rect x="37" y="167" width="529" height="16" fill="#fff" mask="url(#satori_om-id-0)"/></mask><g mask="url(#satori_om-id-0)" clip-path="url(#satori_cp-id-0)"><path fill="#00ffcc" d="M44.5 175.9L44.5 176.7L38.5 179.7L38.5 178.5L43.0 176.3L43.0 176.3L38.5 174.1L38.5 172.9L44.5 175.9Z M54.1 180.2L54.1 180.2Q53.2 180.2 52.5 179.7Q51.7 179.2 51.3 178.4Q50.9 177.6 50.9 176.5L50.9 176.5Q50.9 175.4 51.3 174.6Q51.7 173.7 52.5 173.3Q53.2 172.8 54.1 172.8L54.1 172.8Q55.1 172.8 55.8 173.3Q56.6 173.7 57.0 174.6Q57.4 175.4 57.4 176.5L57.4 176.5Q57.4 177.6 57.0 178.4Q56.6 179.2 55.8 179.7Q55.1 180.2 54.1 180.2ZM54.1 179.1L54.1 179.1Q54.9 179.1 55.3 178.8Q55.8 178.4 56.0 177.8Q56.2 177.2 56.2 176.5L56.2 176.5Q56.2 175.8 56.0 175.2Q55.8 174.6 55.3 174.2Q54.9 173.8 54.1 173.8L54.1 173.8Q53.4 173.8 53.0 174.2Q52.5 174.6 52.3 175.2Q52.1 175.8 52.1 176.5L52.1 176.5Q52.1 177.2 52.3 177.8Q52.5 178.4 53.0 178.8Q53.4 179.1 54.1 179.1ZM60.7 182.7L59.6 182.7L59.6 172.9L60.7 172.9L60.7 174.0L60.8 174.0Q60.9 173.8 61.1 173.6Q61.3 173.3 61.7 173.0Q62.2 172.8 62.8 172.8L62.8 172.8Q63.7 172.8 64.4 173.3Q65.1 173.7 65.5 174.5Q65.9 175.3 65.9 176.5L65.9 176.5Q65.9 177.6 65.5 178.4Q65.1 179.3 64.4 179.7Q63.7 180.2 62.8 180.2L62.8 180.2Q62.2 180.2 61.8 179.9Q61.4 179.7 61.1 179.4Q60.9 179.1 60.8 178.9L60.8 178.9L60.7 178.9L60.7 182.7ZM62.7 179.1L62.7 179.1Q63.3 179.1 63.8 178.8Q64.2 178.4 64.5 177.8Q64.7 177.2 64.7 176.5L64.7 176.5Q64.7 175.7 64.5 175.1Q64.2 174.5 63.8 174.2Q63.4 173.8 62.7 173.8L62.7 173.8Q62.0 173.8 61.6 174.2Q61.1 174.5 60.9 175.1Q60.7 175.7 60.7 176.5L60.7 176.5Q60.7 177.2 60.9 177.8Q61.1 178.5 61.6 178.8Q62.0 179.1 62.7 179.1ZM71.0 180.2L71.0 180.2Q70.0 180.2 69.2 179.7Q68.5 179.2 68.1 178.4Q67.7 177.6 67.7 176.5Q67.7 175.4 68.1 174.6Q68.5 173.8 69.2 173.3Q69.9 172.8 70.9 172.8L70.9 172.8Q71.4 172.8 72.0 173.0Q72.5 173.2 73.0 173.6Q73.4 174.0 73.7 174.7Q74.0 175.4 74.0 176.4L74.0 176.4L74.0 176.8L68.8 176.8Q68.9 177.5 69.1 178.0L69.1 178.0Q69.4 178.6 69.9 178.9Q70.4 179.1 71.0 179.1L71.0 179.1Q71.4 179.1 71.8 179.0Q72.1 178.9 72.4 178.7Q72.6 178.4 72.7 178.0L72.7 178.0L73.8 178.3Q73.7 178.9 73.3 179.3Q72.9 179.7 72.3 179.9Q71.7 180.2 71.0 180.2ZM68.8 175.9L68.8 175.9L72.8 175.9Q72.8 175.4 72.6 175.0L72.6 175.0Q72.4 174.4 71.9 174.1Q71.5 173.8 70.9 173.8Q70.2 173.8 69.8 174.1Q69.3 174.5 69.1 175.0L69.1 175.0Q68.9 175.4 68.8 175.9ZM77.2 175.7L77.2 175.7L77.2 180L76.1 180L76.1 172.9L77.2 172.9L77.2 174.2Q77.5 173.6 78.0 173.2L78.0 173.2Q78.6 172.8 79.4 172.8L79.4 172.8Q80.1 172.8 80.6 173.1Q81.2 173.4 81.5 174.0Q81.8 174.6 81.8 175.5L81.8 175.5L81.8 180L80.6 180L80.6 175.6Q80.6 174.8 80.2 174.3Q79.8 173.8 79.0 173.8L79.0 173.8Q78.5 173.8 78.1 174.1Q77.7 174.3 77.5 174.7Q77.2 175.1 77.2 175.7Z M89.8 172.9L91.2 172.9L91.2 173.9L89.8 173.9L89.8 178.2Q89.8 178.6 90.0 178.9Q90.2 179.1 90.6 179.1L90.6 179.1Q90.7 179.1 90.9 179.0Q91.0 179.0 91.2 179.0L91.2 179.0L91.4 180.0Q91.2 180.0 91.0 180.1Q90.8 180.1 90.6 180.1L90.6 180.1Q89.6 180.1 89.1 179.6Q88.6 179.1 88.6 178.2L88.6 178.2L88.6 173.9L87.6 173.9L87.6 172.9L88.6 172.9L88.6 171.2L89.8 171.2L89.8 172.9ZM96.1 180.2L96.1 180.2Q95.1 180.2 94.4 179.7Q93.7 179.2 93.2 178.4Q92.8 177.6 92.8 176.5L92.8 176.5Q92.8 175.4 93.2 174.6Q93.7 173.7 94.4 173.3Q95.1 172.8 96.1 172.8L96.1 172.8Q97.0 172.8 97.8 173.3Q98.5 173.7 98.9 174.6Q99.3 175.4 99.3 176.5L99.3 176.5Q99.3 177.6 98.9 178.4Q98.5 179.2 97.8 179.7Q97.0 180.2 96.1 180.2ZM96.1 179.1L96.1 179.1Q96.8 179.1 97.3 178.8Q97.7 178.4 97.9 177.8Q98.2 177.2 98.2 176.5L98.2 176.5Q98.2 175.8 97.9 175.2Q97.7 174.6 97.3 174.2Q96.8 173.8 96.1 173.8L96.1 173.8Q95.4 173.8 94.9 174.2Q94.4 174.6 94.2 175.2Q94.0 175.8 94.0 176.5L94.0 176.5Q94.0 177.2 94.2 177.8Q94.4 178.4 94.9 178.8Q95.4 179.1 96.1 179.1Z M108.5 180.2L108.5 180.2Q107.6 180.2 106.8 179.7Q106.1 179.2 105.7 178.4Q105.3 177.6 105.3 176.5L105.3 176.5Q105.3 175.4 105.7 174.6Q106.1 173.7 106.8 173.3Q107.6 172.8 108.5 172.8L108.5 172.8Q109.0 172.8 109.5 172.9Q110.0 173.1 110.3 173.3Q110.7 173.6 111.0 173.9Q111.3 174.3 111.4 174.8L111.4 174.8L110.3 175.1Q110.2 174.8 110.1 174.6Q109.9 174.4 109.7 174.2Q109.5 174.0 109.2 173.9Q108.9 173.8 108.5 173.8L108.5 173.8Q107.8 173.8 107.4 174.2Q106.9 174.6 106.7 175.2Q106.5 175.8 106.5 176.5L106.5 176.5Q106.5 177.2 106.7 177.8Q106.9 178.4 107.4 178.8Q107.8 179.1 108.5 179.1L108.5 179.1Q108.9 179.1 109.2 179.0Q109.5 178.9 109.7 178.8Q109.9 178.6 110.1 178.3Q110.3 178.1 110.3 177.8L110.3 177.8L111.4 178.1Q111.3 178.6 111.0 179.0Q110.7 179.4 110.4 179.6Q110.0 179.9 109.5 180.0Q109.0 180.2 108.5 180.2ZM116.5 180.2L116.5 180.2Q115.5 180.2 114.8 179.7Q114.0 179.2 113.6 178.4Q113.2 177.6 113.2 176.5L113.2 176.5Q113.2 175.4 113.6 174.6Q114.0 173.7 114.8 173.3Q115.5 172.8 116.5 172.8L116.5 172.8Q117.4 172.8 118.2 173.3Q118.9 173.7 119.3 174.6Q119.7 175.4 119.7 176.5L119.7 176.5Q119.7 177.6 119.3 178.4Q118.9 179.2 118.2 179.7Q117.4 180.2 116.5 180.2ZM116.5 179.1L116.5 179.1Q117.2 179.1 117.6 178.8Q118.1 178.4 118.3 177.8Q118.5 177.2 118.5 176.5L118.5 176.5Q118.5 175.8 118.3 175.2Q118.1 174.6 117.6 174.2Q117.2 173.8 116.5 173.8L116.5 173.8Q115.7 173.8 115.3 174.2Q114.8 174.6 114.6 175.2Q114.4 175.8 114.4 176.5L114.4 176.5Q114.4 177.2 114.6 177.8Q114.8 178.4 115.3 178.8Q115.7 179.1 116.5 179.1ZM121.9 170.5L123.0 170.5L123.0 180L121.9 180L121.9 170.5ZM125.5 170.5L126.6 170.5L126.6 180L125.5 180L125.5 170.5ZM131.1 180.2L131.1 180.2Q130.5 180.2 129.9 179.9Q129.4 179.7 129.0 179.2Q128.7 178.7 128.7 178.0L128.7 178.0Q128.7 177.4 129.0 177.0Q129.2 176.6 129.6 176.4Q130.0 176.2 130.5 176.1Q131.0 176.0 131.5 175.9L131.5 175.9Q132.1 175.8 132.5 175.8Q132.9 175.7 133.1 175.6Q133.3 175.5 133.3 175.2L133.3 175.2L133.3 175.2Q133.3 174.8 133.1 174.5Q133.0 174.1 132.6 174.0Q132.3 173.8 131.8 173.8L131.8 173.8Q131.3 173.8 131.0 174.0Q130.6 174.1 130.4 174.4Q130.1 174.6 130.0 174.9L130.0 174.9L128.9 174.5Q129.2 173.8 129.7 173.5Q130.1 173.1 130.7 173.0Q131.2 172.8 131.8 172.8L131.8 172.8Q132.1 172.8 132.6 172.9Q133.1 173.0 133.5 173.2Q133.9 173.5 134.2 174.0Q134.4 174.5 134.4 175.3L134.4 175.3L134.4 180L133.3 180L133.3 179.0L133.2 179.0Q133.1 179.3 132.9 179.5Q132.6 179.8 132.2 180.0Q131.7 180.2 131.1 180.2ZM131.3 179.2L131.3 179.2Q132.0 179.2 132.4 178.9Q132.8 178.7 133.1 178.3Q133.3 177.9 133.3 177.4L133.3 177.4L133.3 176.5Q133.2 176.5 133.0 176.6Q132.8 176.7 132.5 176.7Q132.2 176.8 131.9 176.8Q131.6 176.8 131.4 176.9L131.4 176.9Q131.0 176.9 130.7 177.0Q130.3 177.2 130.1 177.4Q129.9 177.6 129.9 178.0L129.9 178.0Q129.9 178.4 130.1 178.7Q130.3 178.9 130.6 179.0Q130.9 179.2 131.3 179.2ZM140.2 180.2L140.2 180.2Q139.6 180.2 139.2 179.9Q138.8 179.7 138.5 179.4Q138.3 179.1 138.2 178.9L138.2 178.9L138.1 178.9L138.1 180L137.0 180L137.0 170.5L138.1 170.5L138.1 174.0L138.2 174.0Q138.3 173.8 138.5 173.6Q138.7 173.3 139.1 173.0Q139.5 172.8 140.2 172.8L140.2 172.8Q141.1 172.8 141.8 173.3Q142.5 173.7 142.9 174.5Q143.3 175.3 143.3 176.5L143.3 176.5Q143.3 177.6 142.9 178.4Q142.5 179.3 141.8 179.7Q141.1 180.2 140.2 180.2ZM140.1 179.1L140.1 179.1Q140.7 179.1 141.2 178.8Q141.6 178.4 141.9 177.8Q142.1 177.2 142.1 176.5L142.1 176.5Q142.1 175.7 141.9 175.1Q141.6 174.5 141.2 174.2Q140.7 173.8 140.1 173.8L140.1 173.8Q139.4 173.8 139.0 174.2Q138.5 174.5 138.3 175.1Q138.1 175.7 138.1 176.5L138.1 176.5Q138.1 177.2 138.3 177.8Q138.5 178.5 139.0 178.8Q139.4 179.1 140.1 179.1ZM148.3 180.2L148.3 180.2Q147.3 180.2 146.6 179.7Q145.9 179.2 145.5 178.4Q145.1 177.6 145.1 176.5L145.1 176.5Q145.1 175.4 145.5 174.6Q145.9 173.7 146.6 173.3Q147.3 172.8 148.3 172.8L148.3 172.8Q149.3 172.8 150.0 173.3Q150.7 173.7 151.1 174.6Q151.5 175.4 151.5 176.5L151.5 176.5Q151.5 177.6 151.1 178.4Q150.7 179.2 150.0 179.7Q149.3 180.2 148.3 180.2ZM148.3 179.1L148.3 179.1Q149.0 179.1 149.5 178.8Q149.9 178.4 150.2 177.8Q150.4 177.2 150.4 176.5L150.4 176.5Q150.4 175.8 150.2 175.2Q149.9 174.6 149.5 174.2Q149.0 173.8 148.3 173.8L148.3 173.8Q147.6 173.8 147.1 174.2Q146.7 174.6 146.5 175.2Q146.2 175.8 146.2 176.5L146.2 176.5Q146.2 177.2 146.5 177.8Q146.7 178.4 147.1 178.8Q147.6 179.1 148.3 179.1ZM154.9 180L153.7 180L153.7 172.9L154.8 172.9L154.8 174.0L154.9 174.0Q155.1 173.5 155.6 173.1Q156.1 172.8 156.7 172.8L156.7 172.8Q156.9 172.8 157.0 172.8Q157.2 172.8 157.3 172.8L157.3 172.8L157.3 174.0Q157.3 174.0 157.1 173.9Q156.9 173.9 156.6 173.9L156.6 173.9Q156.1 173.9 155.7 174.1Q155.3 174.3 155.1 174.7Q154.9 175.1 154.9 175.6L154.9 175.6L154.9 180ZM161.1 180.2L161.1 180.2Q160.4 180.2 159.9 179.9Q159.3 179.7 159.0 179.2Q158.7 178.7 158.7 178.0L158.7 178.0Q158.7 177.4 158.9 177.0Q159.2 176.6 159.6 176.4Q160.0 176.2 160.4 176.1Q160.9 176.0 161.4 175.9L161.4 175.9Q162.1 175.8 162.5 175.8Q162.9 175.7 163.1 175.6Q163.3 175.5 163.3 175.2L163.3 175.2L163.3 175.2Q163.3 174.8 163.1 174.5Q162.9 174.1 162.6 174.0Q162.3 173.8 161.8 173.8L161.8 173.8Q161.3 173.8 160.9 174.0Q160.5 174.1 160.3 174.4Q160.1 174.6 160.0 174.9L160.0 174.9L158.9 174.5Q159.1 173.8 159.6 173.5Q160.1 173.1 160.6 173.0Q161.2 172.8 161.7 172.8L161.7 172.8Q162.1 172.8 162.5 172.9Q163 173.0 163.4 173.2Q163.8 173.5 164.1 174.0Q164.4 174.5 164.4 175.3L164.4 175.3L164.4 180L163.3 180L163.3 179.0L163.2 179.0Q163.1 179.3 162.8 179.5Q162.5 179.8 162.1 180.0Q161.7 180.2 161.1 180.2ZM161.3 179.2L161.3 179.2Q161.9 179.2 162.4 178.9Q162.8 178.7 163.0 178.3Q163.3 177.9 163.3 177.4L163.3 177.4L163.3 176.5Q163.2 176.5 162.9 176.6Q162.7 176.7 162.4 176.7Q162.1 176.8 161.8 176.8Q161.5 176.8 161.4 176.9L161.4 176.9Q161.0 176.9 160.6 177.0Q160.3 177.2 160.0 177.4Q159.8 177.6 159.8 178.0L159.8 178.0Q159.8 178.4 160.0 178.7Q160.2 178.9 160.5 179.0Q160.9 179.2 161.3 179.2ZM168.2 172.9L169.7 172.9L169.7 173.9L168.2 173.9L168.2 178.2Q168.2 178.6 168.4 178.9Q168.6 179.1 169.1 179.1L169.1 179.1Q169.2 179.1 169.3 179.0Q169.5 179.0 169.7 179.0L169.7 179.0L169.9 180.0Q169.7 180.0 169.5 180.1Q169.3 180.1 169.0 180.1L169.0 180.1Q168.1 180.1 167.6 179.6Q167.1 179.1 167.1 178.2L167.1 178.2L167.1 173.9L166.0 173.9L166.0 172.9L167.1 172.9L167.1 171.2L168.2 171.2L168.2 172.9ZM172.8 180L171.7 180L171.7 172.9L172.8 172.9L172.8 180ZM172.2 171.7L172.2 171.7Q171.9 171.7 171.7 171.5Q171.4 171.3 171.4 171.0L171.4 171.0Q171.4 170.7 171.7 170.4Q171.9 170.2 172.2 170.2L172.2 170.2Q172.6 170.2 172.8 170.4Q173.0 170.7 173.0 171.0L173.0 171.0Q173.0 171.3 172.8 171.5Q172.6 171.7 172.2 171.7ZM178.2 180.2L178.2 180.2Q177.2 180.2 176.5 179.7Q175.8 179.2 175.4 178.4Q175.0 177.6 175.0 176.5L175.0 176.5Q175.0 175.4 175.4 174.6Q175.8 173.7 176.5 173.3Q177.2 172.8 178.2 172.8L178.2 172.8Q179.2 172.8 179.9 173.3Q180.6 173.7 181.0 174.6Q181.4 175.4 181.4 176.5L181.4 176.5Q181.4 177.6 181.0 178.4Q180.6 179.2 179.9 179.7Q179.2 180.2 178.2 180.2ZM178.2 179.1L178.2 179.1Q178.9 179.1 179.4 178.8Q179.8 178.4 180.1 177.8Q180.3 177.2 180.3 176.5L180.3 176.5Q180.3 175.8 180.1 175.2Q179.8 174.6 179.4 174.2Q178.9 173.8 178.2 173.8L178.2 173.8Q177.5 173.8 177.0 174.2Q176.6 174.6 176.3 175.2Q176.1 175.8 176.1 176.5L176.1 176.5Q176.1 177.2 176.3 177.8Q176.6 178.4 177.0 178.8Q177.5 179.1 178.2 179.1ZM184.7 175.7L184.7 175.7L184.7 180L183.6 180L183.6 172.9L184.7 172.9L184.7 174.2Q185.0 173.6 185.5 173.2L185.5 173.2Q186.1 172.8 186.9 172.8L186.9 172.8Q187.6 172.8 188.1 173.1Q188.7 173.4 189.0 174.0Q189.3 174.6 189.3 175.5L189.3 175.5L189.3 180L188.1 180L188.1 175.6Q188.1 174.8 187.7 174.3Q187.3 173.8 186.5 173.8L186.5 173.8Q186.0 173.8 185.6 174.1Q185.2 174.3 185.0 174.7Q184.7 175.1 184.7 175.7ZM194.2 180.2L194.2 180.2Q193.5 180.2 192.9 179.9Q192.3 179.7 192.0 179.3Q191.6 178.9 191.5 178.3L191.5 178.3L192.5 178.0Q192.7 178.6 193.1 178.9Q193.5 179.1 194.2 179.1L194.2 179.1Q194.9 179.1 195.4 178.8Q195.8 178.5 195.8 178.1L195.8 178.1Q195.8 177.7 195.5 177.5Q195.3 177.2 194.8 177.1L194.8 177.1L193.6 176.8Q192.6 176.6 192.1 176.1Q191.7 175.6 191.7 174.9L191.7 174.9Q191.7 174.3 192.0 173.8Q192.4 173.3 193.0 173.1Q193.6 172.8 194.3 172.8L194.3 172.8Q195.0 172.8 195.5 173.0Q196.1 173.3 196.4 173.6Q196.7 174.0 196.9 174.5L196.9 174.5L195.8 174.8Q195.7 174.4 195.3 174.1Q195.0 173.8 194.3 173.8L194.3 173.8Q193.7 173.8 193.3 174.1Q192.8 174.4 192.8 174.8L192.8 174.8Q192.8 175.2 193.1 175.4Q193.4 175.7 194.0 175.8L194.0 175.8L195.1 176.1Q196.1 176.3 196.5 176.8Q197.0 177.3 197.0 178.0L197.0 178.0Q197.0 178.6 196.6 179.1Q196.3 179.6 195.7 179.9Q195.0 180.2 194.2 180.2ZM198.1 180L204.1 180L204.1 181.1L198.1 181.1L198.1 180Z "/></g><mask id="satori_om-id-1"><rect x="619" y="0" width="241" height="220" fill="#fff"/></mask><defs><clipPath id="satori_bc-id-1-0"><path x="619" y="0" width="241" height="102" d="M643,0 h193 a24,24 0 0 1 24,24 v54 a24,24 0 0 1 -24,24 h-193 a24,24 0 0 1 -24,-24 v-54 a24,24 0 0 1 24,-24"/></clipPath></defs><clipPath id="satori_cp-id-1-0"><path x="619" y="0" width="241" height="102" d="M643,0 h193 a24,24 0 0 1 24,24 v54 a24,24 0 0 1 -24,24 h-193 a24,24 0 0 1 -24,-24 v-54 a24,24 0 0 1 24,-24"/></clipPath><mask id="satori_om-id-1-0"><rect x="620" y="1" width="239" height="100" fill="#fff"/><path width="241" height="102" fill="none" stroke="#000" stroke-width="2" d="M626.029,7.029 A24,24 0 0 1 643,0 h193 a24,24 0 0 1 24,24 v54 a24,24 0 0 1 -24,24 h-193 a24,24 0 0 1 -24,-24 v-54 A24,24 0 0 1 626.029,7.029"/></mask><path x="619" y="0" width="241" height="102" fill="#070709" d="M643,0 h193 a24,24 0 0 1 24,24 v54 a24,24 0 0 1 -24,24 h-193 a24,24 0 0 1 -24,-24 v-54 a24,24 0 0 1 24,-24"/><path width="241" height="102" clip-path="url(#satori_bc-id-1-0)" fill="none" stroke="rgba(255,255,255,0.08)" stroke-width="2" d="M626.029,7.029 A24,24 0 0 1 643,0 h193 a24,24 0 0 1 24,24 v54 a24,24 0 0 1 -24,24 h-193 a24,24 0 0 1 -24,-24 v-54 A24,24 0 0 1 626.029,7.029"/><clipPath id="satori_cp-id-1-0-0" clip-path="url(#satori_cp-id-1-0)"><rect x="620" y="1" width="250" height="100"/></clipPath><mask id="satori_om-id-1-0-0"><rect x="620" y="1" width="250" height="100" fill="#fff" mask="url(#satori_om-id-1-0)"/></mask><g opacity="0.8"><svg x="620" y="1" width="250" height="100" preserveAspectRatio="none" clip-path="url(#satori_cp-id-1-0-0)" mask="url(#satori_om-id-1-0-0)"><defs><radialGradient id="mini-blue" cx="50%" cy="50%" r="50%"><stop offset="0%" stop-color="rgba(52, 152, 219, 0.3)"></stop><stop offset="100%" stop-color="rgba(52, 152, 219, 0)"></stop></radialGradient></defs><ellipse cx="125" cy="50" rx="180" ry="120" fill="url(#mini-blue)"></ellipse></svg></g><mask id="satori_om-id-1-0-0-0"><rect x="620" y="1" width="0" height="100" fill="#fff" mask="url(#satori_om-id-1-0)"/></mask><g opacity="0.8"></g><mask id="satori_om-id-1-0-0-0-0"><rect x="620" y="1" width="0" height="100" fill="#fff" mask="url(#satori_om-id-1-0)"/></mask><g opacity="0.8"></g><mask id="satori_om-id-1-0-0-0-0-0"><rect x="620" y="1" width="0" height="100" fill="#fff" mask="url(#satori_om-id-1-0)"/></mask><g opacity="0.8"></g><mask id="satori_om-id-1-0-0-0-0-1"><rect x="620" y="1" width="0" height="100" fill="#fff" mask="url(#satori_om-id-1-0)"/></mask><g opacity="0.8"></g><mask id="satori_om-id-1-0-0-1"><rect x="620" y="1" width="0" height="100" fill="#fff" mask="url(#satori_om-id-1-0)"/></mask><g opacity="0.8"></g><defs><clipPath id="satori_bc-id-1-0-1" clip-path="url(#satori_cp-id-1-0)"><path x="721" y="21" width="36" height="36" d="M739,21 h0 a18,18 0 0 1 18,18 v0 a18,18 0 0 1 -18,18 h0 a18,18 0 0 1 -18,-18 v0 a18,18 0 0 1 18,-18"/></clipPath></defs><mask id="satori_om-id-1-0-1"><rect x="722" y="22" width="34" height="34" fill="#fff" mask="url(#satori_om-id-1-0)"/><path width="36" height="36" fill="none" stroke="#000" stroke-width="2" d="M726.272,26.272 A18,18 0 0 1 739,21 h0 a18,18 0 0 1 18,18 v0 a18,18 0 0 1 -18,18 h0 a18,18 0 0 1 -18,-18 v0 A18,18 0 0 1 726.272,26.272"/></mask><path x="721" y="21" width="36" height="36" fill="rgba(52,152,219,0.2)" d="M739,21 h0 a18,18 0 0 1 18,18 v0 a18,18 0 0 1 -18,18 h0 a18,18 0 0 1 -18,-18 v0 a18,18 0 0 1 18,-18" clip-path="url(#satori_cp-id-1-0)" mask="url(#satori_om-id-1-0)"/><path width="36" height="36" clip-path="url(#satori_bc-id-1-0-1)" fill="none" stroke="rgba(52,152,219,0.5)" stroke-width="2" d="M726.272,26.272 A18,18 0 0 1 739,21 h0 a18,18 0 0 1 18,18 v0 a18,18 0 0 1 -18,18 h0 a18,18 0 0 1 -18,-18 v0 A18,18 0 0 1 726.272,26.272"/><g mask="url(#satori_om-id-1-0)" clip-path="url(#satori_cp-id-1-0)"><path fill="#3498db" d="M740.9 30.5L740.9 48.3L735.6 48.3L735.6 30.5L740.9 30.5ZM738.7 45.5L737 46.5L737 47L739.5 47L739.5 46.5L737.8 46.5L739.5 45.5L739.5 45L737 45L737 45.5L738.7 45.5ZM739.5 42.5L737 42.5L737 44.5L739.5 44.5L739.5 42.5ZM739 43L739 44L737.5 44L737.5 43L739 43ZM737.5 39.5L737 39.5L737 41.5L739.5 41.5L739.5 39.5L738 39.5L738 40.5L738.5 40.5L738.5 40L739 40L739 41L737.5 41L737.5 39.5ZM739 38.5L737 38.5L737 39L739.5 39L739.5 37.3L739 37.3L739 38.5ZM738 37.5L737 37.5L737 38L738.5 38L738.5 36.8L739.5 36.8L739.5 36.3L737 36.3L737 36.8L738 36.8L738 37.5ZM738 34.5L738 35.3L737.5 35.3L737.5 34.5L738 34.5ZM738.5 34L737 34L737 35.8L739.5 35.8L739.5 35.3L738.5 35.3L738.5 34ZM737.9 33L737 33L737 33.5L739.5 33.5L739.5 33L738.4 33L738.4 32.3L739.5 32.3L739.5 31.8L737 31.8L737 32.3L737.9 32.3L737.9 33Z "/></g><mask id="satori_om-id-1-0-2"><rect x="675" y="69" width="129" height="12" fill="#fff" mask="url(#satori_om-id-1-0)"/></mask><g mask="url(#satori_om-id-1-0)" clip-path="url(#satori_cp-id-1-0)"><path fill="rgba(255,255,255,0.6)" d="M676.9 79L675.2 79L677.7 71.7L679.7 71.7L682.2 79L680.6 79L680.0 77.3L677.4 77.3L676.9 79ZM677.8 76.1L679.6 76.1L679.4 75.5Q679.2 74.8 679.0 74L679.0 74Q678.8 73.5 678.7 72.9L678.7 72.9Q678.5 73.5 678.4 74.0L678.4 74.0Q678.2 74.8 678.0 75.5L678.0 75.5L677.8 76.1ZM689.8 79L685.1 79L685.1 71.7L686.6 71.7L686.6 77.8L689.8 77.8L689.8 79ZM696.0 79L694.3 79L692.4 71.7L694.0 71.7L694.8 75.3Q694.9 75.8 695.0 76.3Q695.1 76.8 695.2 77.3L695.2 77.3Q695.2 77.4 695.2 77.5L695.2 77.5Q695.2 77.4 695.3 77.3L695.3 77.3Q695.3 76.8 695.4 76.3Q695.5 75.8 695.6 75.3L695.6 75.3L696.5 71.7L698.1 71.7L699.0 75.3Q699.1 75.8 699.2 76.3Q699.3 76.8 699.4 77.3L699.4 77.3Q699.4 77.4 699.4 77.5L699.4 77.5Q699.4 77.4 699.4 77.3L699.4 77.3Q699.5 76.8 699.6 76.3Q699.7 75.8 699.8 75.3L699.8 75.3L700.6 71.7L702.3 71.7L700.3 79L698.6 79L697.6 75.3Q697.5 74.7 697.4 73.9L697.4 73.9Q697.3 73.7 697.3 73.5L697.3 73.5Q697.3 73.7 697.2 73.9L697.2 73.9Q697.1 74.6 697.0 75.3L697.0 75.3L696.0 79ZM706.4 79L704.7 79L707.2 71.7L709.2 71.7L711.7 79L710.1 79L709.5 77.3L706.9 77.3L706.4 79ZM707.3 76.1L709.1 76.1L708.9 75.5Q708.7 74.8 708.5 74L708.5 74Q708.3 73.5 708.2 72.9L708.2 72.9Q708.0 73.5 707.9 74.0L707.9 74.0Q707.7 74.8 707.5 75.5L707.5 75.5L707.3 76.1ZM718.4 79L716.9 79L716.9 76.3L714.2 71.7L715.9 71.7L717.2 74.0Q717.4 74.3 717.5 74.7L717.5 74.7Q717.6 74.8 717.6 75.0L717.6 75.0Q717.7 74.8 717.8 74.7L717.8 74.7Q717.9 74.3 718.1 74.0L718.1 74.0L719.3 71.7L721.0 71.7L718.4 76.3L718.4 79ZM726.6 79.1L726.6 79.1Q725.7 79.1 725.1 78.8Q724.4 78.6 724.1 78.0Q723.7 77.5 723.7 76.7L723.7 76.7L725.1 76.7Q725.2 77.1 725.4 77.4Q725.5 77.6 725.9 77.7Q726.2 77.8 726.6 77.8L726.6 77.8Q727.0 77.8 727.3 77.7Q727.6 77.6 727.7 77.4Q727.9 77.2 727.9 76.9L727.9 76.9Q727.9 76.7 727.8 76.5Q727.6 76.3 727.3 76.2Q727.1 76.1 726.7 76.0L726.7 76.0L725.8 75.8Q724.9 75.6 724.4 75.1Q723.9 74.6 723.9 73.8L723.9 73.8Q723.9 73.2 724.2 72.7Q724.6 72.2 725.2 71.9Q725.8 71.6 726.6 71.6L726.6 71.6Q727.4 71.6 728.0 71.9Q728.6 72.2 729.0 72.7Q729.3 73.2 729.3 73.8L729.3 73.8L727.9 73.8Q727.8 73.4 727.5 73.1Q727.2 72.9 726.6 72.9L726.6 72.9Q726.2 72.9 726.0 73.0Q725.7 73.1 725.5 73.3Q725.4 73.5 725.4 73.7L725.4 73.7Q725.4 74.0 725.6 74.2Q725.7 74.3 726.0 74.5Q726.3 74.6 726.6 74.6L726.6 74.6L727.2 74.8Q727.7 74.9 728.1 75.1Q728.5 75.3 728.8 75.5Q729.1 75.8 729.2 76.1Q729.4 76.5 729.4 76.9L729.4 76.9Q729.4 77.6 729.1 78.1Q728.7 78.6 728.1 78.8Q727.5 79.1 726.6 79.1Z M741.5 79L736.8 79L736.8 71.7L738.3 71.7L738.3 77.8L741.5 77.8L741.5 79ZM749.4 79L744.5 79L744.5 71.7L749.4 71.7L749.4 73.0L746.0 73.0L746.0 74.7L749.1 74.7L749.1 75.9L746.0 75.9L746.0 77.8L749.4 77.8L749.4 79ZM753.8 79L752.2 79L754.6 71.7L756.6 71.7L759.1 79L757.5 79L756.9 77.3L754.3 77.3L753.8 79ZM754.7 76.1L756.5 76.1L756.3 75.5Q756.1 74.8 755.9 74L755.9 74Q755.8 73.5 755.6 72.9L755.6 72.9Q755.5 73.5 755.3 74.0L755.3 74.0Q755.1 74.8 754.9 75.5L754.9 75.5L754.7 76.1ZM763.5 79L762.0 79L762.0 71.7L764.9 71.7Q765.7 71.7 766.3 72.0Q766.9 72.3 767.2 72.8Q767.5 73.4 767.5 74.1Q767.5 74.8 767.2 75.3Q766.9 75.9 766.3 76.1L766.3 76.1Q766.2 76.1 766.2 76.2L766.2 76.2L767.7 79L766.1 79L764.7 76.4L763.5 76.4L763.5 79ZM763.5 73.0L763.5 75.2L764.6 75.2Q765.1 75.2 765.4 75.1Q765.6 74.9 765.8 74.7Q765.9 74.5 765.9 74.1L765.9 74.1Q765.9 73.7 765.8 73.5Q765.6 73.2 765.4 73.1Q765.1 73.0 764.6 73.0L764.6 73.0L763.5 73.0ZM772.1 79L770.6 79L770.6 71.7L772.3 71.7L774.6 75.4Q774.7 75.7 774.9 76.0Q775.1 76.4 775.3 76.8L775.3 76.8Q775.4 77.0 775.5 77.2L775.5 77.2Q775.5 77.0 775.5 76.8L775.5 76.8Q775.4 76.3 775.4 75.9Q775.4 75.5 775.4 75.2L775.4 75.2L775.4 71.7L776.9 71.7L776.9 79L775.2 79L773.2 75.7Q772.9 75.3 772.7 74.9Q772.5 74.6 772.3 74.1L772.3 74.1Q772.2 73.9 772.0 73.6L772.0 73.6Q772.1 73.9 772.1 74.1L772.1 74.1Q772.1 74.6 772.1 75.0Q772.1 75.4 772.1 75.7L772.1 75.7L772.1 79ZM780.2 71.7L781.7 71.7L781.7 79L780.2 79L780.2 71.7ZM786.6 79L785.0 79L785.0 71.7L786.7 71.7L789.0 75.4Q789.2 75.7 789.4 76.0Q789.5 76.4 789.7 76.8L789.7 76.8Q789.8 77.0 789.9 77.2L789.9 77.2Q789.9 77.0 789.9 76.8L789.9 76.8Q789.9 76.3 789.8 75.9Q789.8 75.5 789.8 75.2L789.8 75.2L789.8 71.7L791.3 71.7L791.3 79L789.7 79L787.6 75.7Q787.4 75.3 787.2 74.9Q787.0 74.6 786.8 74.1L786.8 74.1Q786.6 73.9 786.5 73.6L786.5 73.6Q786.5 73.9 786.5 74.1L786.5 74.1Q786.5 74.6 786.5 75.0Q786.6 75.4 786.6 75.7L786.6 75.7L786.6 79ZM797.9 79.1L797.9 79.1Q796.9 79.1 796.1 78.6Q795.3 78.2 794.9 77.4Q794.5 76.5 794.5 75.4L794.5 75.4Q794.5 74.2 794.9 73.4Q795.4 72.5 796.1 72.1Q796.9 71.6 797.8 71.6L797.8 71.6Q798.5 71.6 799.0 71.8Q799.5 72.0 799.9 72.3Q800.3 72.6 800.6 73.1Q800.9 73.5 800.9 74.1L800.9 74.1L799.4 74.1Q799.4 73.8 799.2 73.6Q799.1 73.4 798.9 73.2Q798.7 73.1 798.4 73.0Q798.2 73.0 797.9 73.0L797.9 73.0Q797.3 73.0 796.9 73.2Q796.5 73.5 796.2 74.0Q796.0 74.6 796.0 75.4Q796.0 76.1 796.2 76.7Q796.4 77.2 796.9 77.5Q797.3 77.8 797.9 77.8L797.9 77.8Q798.4 77.8 798.8 77.6Q799.2 77.4 799.4 77.0L799.4 77.0Q799.6 76.7 799.6 76.3L799.6 76.3L798.0 76.3L798.0 75.1L801.0 75.1L801.0 76.0Q801.0 77.0 800.6 77.7Q800.2 78.4 799.5 78.7Q798.8 79.1 797.9 79.1Z "/></g><defs><clipPath id="satori_bc-id-1-1"><path x="619" y="118" width="241" height="102" d="M643,118 h193 a24,24 0 0 1 24,24 v54 a24,24 0 0 1 -24,24 h-193 a24,24 0 0 1 -24,-24 v-54 a24,24 0 0 1 24,-24"/></clipPath></defs><clipPath id="satori_cp-id-1-1"><path x="619" y="118" width="241" height="102" d="M643,118 h193 a24,24 0 0 1 24,24 v54 a24,24 0 0 1 -24,24 h-193 a24,24 0 0 1 -24,-24 v-54 a24,24 0 0 1 24,-24"/></clipPath><mask id="satori_om-id-1-1"><rect x="620" y="119" width="239" height="100" fill="#fff"/><path width="241" height="102" fill="none" stroke="#000" stroke-width="2" d="M626.029,125.029 A24,24 0 0 1 643,118 h193 a24,24 0 0 1 24,24 v54 a24,24 0 0 1 -24,24 h-193 a24,24 0 0 1 -24,-24 v-54 A24,24 0 0 1 626.029,125.029"/></mask><path x="619" y="118" width="241" height="102" fill="#070709" d="M643,118 h193 a24,24 0 0 1 24,24 v54 a24,24 0 0 1 -24,24 h-193 a24,24 0 0 1 -24,-24 v-54 a24,24 0 0 1 24,-24"/><path width="241" height="102" clip-path="url(#satori_bc-id-1-1)" fill="none" stroke="rgba(255,255,255,0.08)" stroke-width="2" d="M626.029,125.029 A24,24 0 0 1 643,118 h193 a24,24 0 0 1 24,24 v54 a24,24 0 0 1 -24,24 h-193 a24,24 0 0 1 -24,-24 v-54 A24,24 0 0 1 626.029,125.029"/><clipPath id="satori_cp-id-1-1-0" clip-path="url(#satori_cp-id-1-1)"><rect x="620" y="119" width="250" height="100"/></clipPath><mask id="satori_om-id-1-1-0"><rect x="620" y="119" width="250" height="100" fill="#fff" mask="url(#satori_om-id-1-1)"/></mask><g opacity="0.8"><svg x="620" y="119" width="250" height="100" preserveAspectRatio="none" clip-path="url(#satori_cp-id-1-1-0)" mask="url(#satori_om-id-1-1-0)"><defs><radialGradient id="mini-gold" cx="50%" cy="50%" r="50%"><stop offset="0%" stop-color="rgba(241, 196, 15, 0.25)"></stop><stop offset="100%" stop-color="rgba(241, 196, 15, 0)"></stop></radialGradient></defs><ellipse cx="125" cy="50" rx="180" ry="120" fill="url(#mini-gold)"></ellipse></svg></g><mask id="satori_om-id-1-1-0-0"><rect x="620" y="119" width="0" height="100" fill="#fff" mask="url(#satori_om-id-1-1)"/></mask><g opacity="0.8"></g><mask id="satori_om-id-1-1-0-0-0"><rect x="620" y="119" width="0" height="100" fill="#fff" mask="url(#satori_om-id-1-1)"/></mask><g opacity="0.8"></g><mask id="satori_om-id-1-1-0-0-0-0"><rect x="620" y="119" width="0" height="100" fill="#fff" mask="url(#satori_om-id-1-1)"/></mask><g opacity="0.8"></g><mask id="satori_om-id-1-1-0-0-0-1"><rect x="620" y="119" width="0" height="100" fill="#fff" mask="url(#satori_om-id-1-1)"/></mask><g opacity="0.8"></g><mask id="satori_om-id-1-1-0-1"><rect x="620" y="119" width="0" height="100" fill="#fff" mask="url(#satori_om-id-1-1)"/></mask><g opacity="0.8"></g><defs><clipPath id="satori_bc-id-1-1-1" clip-path="url(#satori_cp-id-1-1)"><path x="721" y="139" width="36" height="36" d="M739,139 h0 a18,18 0 0 1 18,18 v0 a18,18 0 0 1 -18,18 h0 a18,18 0 0 1 -18,-18 v0 a18,18 0 0 1 18,-18"/></clipPath></defs><mask id="satori_om-id-1-1-1"><rect x="722" y="140" width="34" height="34" fill="#fff" mask="url(#satori_om-id-1-1)"/><path width="36" height="36" fill="none" stroke="#000" stroke-width="2" d="M726.272,144.272 A18,18 0 0 1 739,139 h0 a18,18 0 0 1 18,18 v0 a18,18 0 0 1 -18,18 h0 a18,18 0 0 1 -18,-18 v0 A18,18 0 0 1 726.272,144.272"/></mask><path x="721" y="139" width="36" height="36" fill="rgba(241,196,15,0.15)" d="M739,139 h0 a18,18 0 0 1 18,18 v0 a18,18 0 0 1 -18,18 h0 a18,18 0 0 1 -18,-18 v0 a18,18 0 0 1 18,-18" clip-path="url(#satori_cp-id-1-1)" mask="url(#satori_om-id-1-1)"/><path width="36" height="36" clip-path="url(#satori_bc-id-1-1-1)" fill="none" stroke="rgba(241,196,15,0.4)" stroke-width="2" d="M726.272,144.272 A18,18 0 0 1 739,139 h0 a18,18 0 0 1 18,18 v0 a18,18 0 0 1 -18,18 h0 a18,18 0 0 1 -18,-18 v0 A18,18 0 0 1 726.272,144.272"/><g mask="url(#satori_om-id-1-1)" clip-path="url(#satori_cp-id-1-1)"><path fill="#f1c40f" d="M740.9 148.5L740.9 166.3L735.6 166.3L735.6 148.5L740.9 148.5ZM738.7 163.5L737 164.5L737 165L739.5 165L739.5 164.5L737.8 164.5L739.5 163.5L739.5 163L737 163L737 163.5L738.7 163.5ZM739.5 160.5L737 160.5L737 162.5L739.5 162.5L739.5 160.5ZM739 161L739 162L737.5 162L737.5 161L739 161ZM737.5 157.5L737 157.5L737 159.5L739.5 159.5L739.5 157.5L738 157.5L738 158.5L738.5 158.5L738.5 158L739 158L739 159L737.5 159L737.5 157.5ZM739 156.5L737 156.5L737 157L739.5 157L739.5 155.3L739 155.3L739 156.5ZM738 155.5L737 155.5L737 156L738.5 156L738.5 154.8L739.5 154.8L739.5 154.3L737 154.3L737 154.8L738 154.8L738 155.5ZM738 152.5L738 153.3L737.5 153.3L737.5 152.5L738 152.5ZM738.5 152L737 152L737 153.8L739.5 153.8L739.5 153.3L738.5 153.3L738.5 152ZM737.9 151L737 151L737 151.5L739.5 151.5L739.5 151L738.4 151L738.4 150.3L739.5 150.3L739.5 149.8L737 149.8L737 150.3L737.9 150.3L737.9 151Z "/></g><mask id="satori_om-id-1-1-2"><rect x="683" y="187" width="112" height="12" fill="#fff" mask="url(#satori_om-id-1-1)"/></mask><g mask="url(#satori_om-id-1-1)" clip-path="url(#satori_cp-id-1-1)"><path fill="rgba(255,255,255,0.6)" d="M686.8 197.1L686.8 197.1Q685.9 197.1 685.1 196.7Q684.3 196.2 683.9 195.4Q683.5 194.5 683.5 193.4L683.5 193.4Q683.5 192.2 683.9 191.3Q684.3 190.5 685.1 190.1Q685.9 189.6 686.8 189.6L686.8 189.6Q687.5 189.6 688.0 189.8Q688.5 190.0 688.9 190.3Q689.4 190.6 689.6 191.1Q689.9 191.6 690.0 192.2L690.0 192.2L688.5 192.2Q688.4 191.9 688.3 191.7Q688.1 191.4 687.9 191.3Q687.7 191.1 687.4 191.0Q687.2 191.0 686.9 191.0L686.9 191.0Q686.3 191.0 685.9 191.2Q685.4 191.5 685.2 192.1Q685.0 192.6 685.0 193.4L685.0 193.4Q685.0 194.2 685.2 194.7Q685.5 195.2 685.9 195.5Q686.3 195.8 686.9 195.8L686.9 195.8Q687.2 195.8 687.4 195.7Q687.7 195.6 687.9 195.4Q688.1 195.3 688.3 195.0Q688.4 194.8 688.5 194.5L688.5 194.5L690.0 194.5Q689.9 195.0 689.7 195.5Q689.4 195.9 689.0 196.3Q688.6 196.7 688.1 196.9Q687.5 197.1 686.8 197.1ZM694.5 197L693.1 197L693.1 189.7L695.9 189.7Q696.7 189.7 697.3 190.0Q697.9 190.3 698.2 190.8Q698.5 191.4 698.5 192.1Q698.5 192.8 698.2 193.3Q697.9 193.9 697.3 194.1L697.3 194.1Q697.2 194.1 697.2 194.2L697.2 194.2L698.8 197L697.1 197L695.7 194.4L694.5 194.4L694.5 197ZM694.5 191.0L694.5 193.2L695.6 193.2Q696.1 193.2 696.4 193.1Q696.7 192.9 696.8 192.7Q697.0 192.5 697.0 192.1L697.0 192.1Q697.0 191.7 696.8 191.5Q696.7 191.2 696.4 191.1Q696.1 191.0 695.6 191.0L695.6 191.0L694.5 191.0ZM702.8 197L701.2 197L703.7 189.7L705.6 189.7L708.2 197L706.5 197L706.0 195.3L703.4 195.3L702.8 197ZM703.8 194.1L705.6 194.1L705.4 193.5Q705.2 192.8 704.9 192L704.9 192Q704.8 191.5 704.7 190.9L704.7 190.9Q704.5 191.5 704.4 192.0L704.4 192.0Q704.2 192.8 704.0 193.5L704.0 193.5L703.8 194.1ZM712.6 197L711.1 197L711.1 189.7L715.9 189.7L715.9 191.0L712.6 191.0L712.6 193.0L715.6 193.0L715.6 194.2L712.6 194.2L712.6 197ZM720.9 191.0L718.7 191.0L718.7 189.7L724.6 189.7L724.6 191.0L722.4 191.0L722.4 197L720.9 197L720.9 191.0Z M733.5 197L732.0 197L732.0 189.7L734.3 189.7L735.5 193.1Q735.5 193.3 735.6 193.7Q735.7 194.0 735.8 194.5L735.8 194.5Q735.9 194.9 736.0 195.3L736.0 195.3Q736.1 194.9 736.2 194.5L736.2 194.5Q736.3 194.1 736.4 193.7Q736.5 193.3 736.5 193.1L736.5 193.1L737.7 189.7L740.0 189.7L740.0 197L738.5 197L738.5 193.6Q738.5 193.3 738.5 193.0Q738.5 192.6 738.5 192.2Q738.5 191.8 738.6 191.4L738.6 191.4Q738.6 191.2 738.6 191.0L738.6 191.0Q738.5 191.2 738.5 191.4L738.5 191.4Q738.3 191.9 738.2 192.3Q738.1 192.7 738.0 193.0Q737.9 193.3 737.8 193.6L737.8 193.6L736.6 197L735.4 197L734.2 193.6Q734.1 193.3 734.0 193.0Q733.9 192.7 733.8 192.3Q733.6 191.9 733.5 191.4L733.5 191.4Q733.5 191.2 733.4 191.1L733.4 191.1Q733.4 191.2 733.4 191.4L733.4 191.4Q733.4 191.8 733.5 192.2Q733.5 192.6 733.5 193.0Q733.5 193.3 733.5 193.6L733.5 193.6L733.5 197ZM744.5 197L742.9 197L745.4 189.7L747.3 189.7L749.9 197L748.2 197L747.7 195.3L745.1 195.3L744.5 197ZM745.5 194.1L747.3 194.1L747.1 193.5Q746.9 192.8 746.6 192L746.6 192Q746.5 191.5 746.3 190.9L746.3 190.9Q746.2 191.5 746.1 192.0L746.1 192.0Q745.9 192.8 745.7 193.5L745.7 193.5L745.5 194.1ZM754.7 191.0L752.5 191.0L752.5 189.7L758.4 189.7L758.4 191.0L756.2 191.0L756.2 197L754.7 197L754.7 191.0ZM763.4 191.0L761.2 191.0L761.2 189.7L767.1 189.7L767.1 191.0L764.9 191.0L764.9 197L763.4 197L763.4 191.0ZM775.0 197L770.1 197L770.1 189.7L775.0 189.7L775.0 191.0L771.6 191.0L771.6 192.7L774.7 192.7L774.7 193.9L771.6 193.9L771.6 195.8L775.0 195.8L775.0 197ZM779.7 197L778.2 197L778.2 189.7L781.0 189.7Q781.9 189.7 782.5 190.0Q783.0 190.3 783.3 190.8Q783.6 191.4 783.6 192.1Q783.6 192.8 783.3 193.3Q783.0 193.9 782.4 194.1L782.4 194.1Q782.4 194.1 782.4 194.2L782.4 194.2L783.9 197L782.3 197L780.9 194.4L779.7 194.4L779.7 197ZM779.7 191.0L779.7 193.2L780.8 193.2Q781.2 193.2 781.5 193.1Q781.8 192.9 782.0 192.7Q782.1 192.5 782.1 192.1L782.1 192.1Q782.1 191.7 782.0 191.5Q781.8 191.2 781.5 191.1Q781.2 191.0 780.8 191.0L780.8 191.0L779.7 191.0ZM789.4 197.1L789.4 197.1Q788.6 197.1 787.9 196.8Q787.3 196.6 786.9 196.0Q786.6 195.5 786.5 194.7L786.5 194.7L788.0 194.7Q788.0 195.1 788.2 195.4Q788.4 195.6 788.7 195.7Q789.0 195.8 789.4 195.8L789.4 195.8Q789.8 195.8 790.1 195.7Q790.4 195.6 790.6 195.4Q790.8 195.2 790.8 194.9L790.8 194.9Q790.8 194.7 790.6 194.5Q790.5 194.3 790.2 194.2Q789.9 194.1 789.5 194.0L789.5 194.0L788.7 193.8Q787.8 193.6 787.2 193.1Q786.7 192.6 786.7 191.8L786.7 191.8Q786.7 191.2 787.1 190.7Q787.4 190.2 788.1 189.9Q788.7 189.6 789.5 189.6L789.5 189.6Q790.3 189.6 790.9 189.9Q791.5 190.2 791.8 190.7Q792.1 191.2 792.2 191.8L792.2 191.8L790.7 191.8Q790.7 191.4 790.3 191.1Q790.0 190.9 789.4 190.9L789.4 190.9Q789.1 190.9 788.8 191.0Q788.5 191.1 788.4 191.3Q788.3 191.5 788.3 191.7L788.3 191.7Q788.3 192.0 788.4 192.2Q788.6 192.3 788.8 192.5Q789.1 192.6 789.4 192.6L789.4 192.6L790.1 192.8Q790.5 192.9 790.9 193.1Q791.3 193.3 791.6 193.5Q791.9 193.8 792.1 194.1Q792.2 194.5 792.2 194.9L792.2 194.9Q792.2 195.6 791.9 196.1Q791.6 196.6 791.0 196.8Q790.3 197.1 789.4 197.1Z "/></g></svg>