<!-- Generated by readme-aura https://github.com/collectioneur/readme-aura -->
<svg width="800" height="200" viewBox="0 0 800 200" xmlns="http://www.w3.org/2000/svg"><mask id="satori_om-id"><rect x="0" y="0" width="800" height="200" fill="#fff"/></mask><rect x="0" y="0" width="800" height="200" fill="transparent"/><defs><clipPath id="satori_bc-id-0"><path x="0" y="0" width="800" height="200" d="M60,0 h680 a60,60 0 0 1 60,60 v80 a60,60 0 0 1 -60,60 h-680 a60,60 0 0 1 -60,-60 v-80 a60,60 0 0 1 60,-60"/></clipPath></defs><mask id="satori_ms-id-0-0" maskUnits="userSpaceOnUse"><rect x="0" y="0" width="800" height="200" fill="#fff"/><path x="0" y="0" width="800" height="200" fill="#000"  stroke-width="0" d="M60,0 h680 a60,60 0 0 1 60,60 v80 a60,60 0 0 1 -60,60 h-680 a60,60 0 0 1 -60,-60 v-80 a60,60 0 0 1 60,-60"/></mask><defs><filter id="satori_s-id-0-0" x="-28.125%" y="-112.5%" width="156.25%" height="325%"><feGaussianBlur stdDeviation="15" result="b"/><feFlood flood-color="rgba(0,0,0,0.6)" in="SourceGraphic" result="f"/><feComposite in="f" in2="b" operator="in"/></filter></defs><g mask="url(#satori_ms-id-0-0)" filter="url(#satori_s-id-0-0)" opacity="1"><path x="0" y="8" width="800" height="200" fill="#fff" stroke="#fff" stroke-width="0" d="M60,8 h680 a60,60 0 0 1 60,60 v80 a60,60 0 0 1 -60,60 h-680 a60,60 0 0 1 -60,-60 v-80 a60,60 0 0 1 60,-60"/></g><clipPath id="satori_cp-id-0"><path x="0" y="0" width="800" height="200" d="M60,0 h680 a60,60 0 0 1 60,60 v80 a60,60 0 0 1 -60,60 h-680 a60,60 0 0 1 -60,-60 v-80 a60,60 0 0 1 60,-60"/></clipPath><mask id="satori_om-id-0"><rect x="1" y="1" width="798" height="198" fill="#fff"/><path width="800" height="200" fill="none" stroke="#000" stroke-width="2" d="M17.573999999999998,17.573999999999998 A60,60 0 0 1 60,0 h680 a60,60 0 0 1 60,60 v80 a60,60 0 0 1 -60,60 h-680 a60,60 0 0 1 -60,-60 v-80 A60,60 0 0 1 17.573999999999998,17.573999999999998"/></mask><path x="0" y="0" width="800" height="200" fill="#060608" d="M60,0 h680 a60,60 0 0 1 60,60 v80 a60,60 0 0 1 -60,60 h-680 a60,60 0 0 1 -60,-60 v-80 a60,60 0 0 1 60,-60"/><path width="800" height="200" clip-path="url(#satori_bc-id-0)" fill="none" stroke="rgba(90, 70, 140, 0.25)" stroke-width="2" d="M17.573999999999998,17.573999999999998 A60,60 0 0 1 60,0 h680 a60,60 0 0 1 60,60 v80 a60,60 0 0 1 -60,60 h-680 a60,60 0 0 1 -60,-60 v-80 A60,60 0 0 1 17.573999999999998,17.573999999999998"/><defs><pattern id="satori_pattern_id-0-0_0" x="0" y="0" width="1" height="1" patternUnits="objectBoundingBox"><radialGradient id="satori_radial_id-0-0_0" spreadMethod="pad"><stop offset="0" stop-color="rgba(0, 110, 255, 0.45)"/><stop offset="0.5" stop-color="rgba(120, 40, 255, 0.2)"/><stop offset="0.7" stop-color="transparent"/><stop offset="1" stop-color="transparent"/></radialGradient><mask id="satori_mask_id-0-0_0"><rect x="0" y="0" width="350" height="140" fill="#fff"/></mask><rect x="0" y="0" width="350" height="140" fill="transparent"/><ellipse cx="175" cy="70" width="350" height="140" ry="98.99494936611666" rx="247.48737341529164" fill="url(#satori_radial_id-0-0_0)" mask="url(#satori_mask_id-0-0_0)"/></pattern></defs><mask id="satori_om-id-0-0"><rect x="369" y="109" width="350" height="140" fill="#fff" mask="url(#satori_om-id-0)"/></mask><rect x="369" y="109" width="350" height="140" fill="url(#satori_pattern_id-0-0_0)" clip-path="url(#satori_cp-id-0)" style="filter:blur(20px)" mask="url(#satori_om-id-0)"/><defs><pattern id="satori_pattern_id-0-1_0" x="0" y="0" width="1" height="1" patternUnits="objectBoundingBox"><radialGradient id="satori_radial_id-0-1_0" spreadMethod="pad"><stop offset="0" stop-color="rgba(255, 80, 150, 0.15)"/><stop offset="0.7" stop-color="transparent"/><stop offset="1" stop-color="transparent"/></radialGradient><mask id="satori_mask_id-0-1_0"><rect x="0" y="0" width="180" height="100" fill="#fff"/></mask><rect x="0" y="0" width="180" height="100" fill="transparent"/><ellipse cx="90" cy="50" width="180" height="100" ry="70.71067811865476" rx="127.27922061357856" fill="url(#satori_radial_id-0-1_0)" mask="url(#satori_mask_id-0-1_0)"/></pattern></defs><mask id="satori_om-id-0-1"><rect x="639" y="119" width="180" height="100" fill="#fff" mask="url(#satori_om-id-0)"/></mask><rect x="639" y="119" width="180" height="100" fill="url(#satori_pattern_id-0-1_0)" clip-path="url(#satori_cp-id-0)" style="filter:blur(15px)" mask="url(#satori_om-id-0)"/><mask id="satori_om-id-0-2"><rect x="48" y="83" width="704" height="35" fill="#fff" mask="url(#satori_om-id-0)"/></mask><defs><clipPath id="satori_bc-id-0-2-0" clip-path="url(#satori_cp-id-0)"><path x="68" y="83" width="129" height="35" d="M85.5,83 h94 a17.5,17.5 0 0 1 17.5,17.5 v0 a17.5,17.5 0 0 1 -17.5,17.5 h-94 a17.5,17.5 0 0 1 -17.5,-17.5 v0 a17.5,17.5 0 0 1 17.5,-17.5"/></clipPath></defs><mask id="satori_om-id-0-2-0"><rect x="69" y="84" width="127" height="33" fill="#fff" mask="url(#satori_om-id-0)"/><path width="129" height="35" fill="none" stroke="#000" stroke-width="2" d="M73.126,88.126 A17.5,17.5 0 0 1 85.5,83 h94 a17.5,17.5 0 0 1 17.5,17.5 v0 a17.5,17.5 0 0 1 -17.5,17.5 h-94 a17.5,17.5 0 0 1 -17.5,-17.5 v0 A17.5,17.5 0 0 1 73.126,88.126"/></mask><path x="68" y="83" width="129" height="35" fill="rgba(0,0,0,0.3)" d="M85.5,83 h94 a17.5,17.5 0 0 1 17.5,17.5 v0 a17.5,17.5 0 0 1 -17.5,17.5 h-94 a17.5,17.5 0 0 1 -17.5,-17.5 v0 a17.5,17.5 0 0 1 17.5,-17.5" clip-path="url(#satori_cp-id-0)" mask="url(#satori_om-id-0)"/><path width="129" height="35" clip-path="url(#satori_bc-id-0-2-0)" fill="none" stroke="rgba(110, 80, 200, 0.4)" stroke-width="2" d="M73.126,88.126 A17.5,17.5 0 0 1 85.5,83 h94 a17.5,17.5 0 0 1 17.5,17.5 v0 a17.5,17.5 0 0 1 -17.5,17.5 h-94 a17.5,17.5 0 0 1 -17.5,-17.5 v0 A17.5,17.5 0 0 1 73.126,88.126"/><g mask="url(#satori_om-id-0)" clip-path="url(#satori_cp-id-0)"><path fill="#8bcefa" d="M96.6 97.5L93.5 97.5L93.5 95.8L101.8 95.8L101.8 97.5L98.7 97.5L98.7 106L96.6 106L96.6 97.5ZM103.5 108.7L103.5 108.7L103.9 107.2L104.2 107.2Q104.6 107.3 104.9 107.3Q105.2 107.2 105.4 107.0Q105.6 106.8 105.7 106.4L105.7 106.4L105.7 106.0L102.9 98.4L105.0 98.4L106.3 102.3Q106.6 103.1 106.7 103.8L106.7 103.8Q106.8 104.1 106.8 104.3L106.8 104.3Q106.9 104.1 106.9 103.8L106.9 103.8Q107.1 103.1 107.4 102.3L107.4 102.3L108.7 98.4L110.9 98.4L107.6 106.9Q107.4 107.5 107.0 108.0Q106.7 108.4 106.1 108.7Q105.6 108.9 104.8 108.9L104.8 108.9Q104.4 108.9 104.0 108.9Q103.7 108.8 103.5 108.7ZM114.3 108.9L112.2 108.9L112.2 98.4L114.3 98.4L114.3 99.6L114.4 99.6Q114.5 99.3 114.8 99.0Q115.0 98.7 115.5 98.5Q115.9 98.3 116.5 98.3L116.5 98.3Q117.4 98.3 118.1 98.7Q118.8 99.1 119.2 100.0Q119.6 100.9 119.6 102.2L119.6 102.2Q119.6 103.5 119.2 104.3Q118.8 105.2 118.1 105.7Q117.4 106.1 116.5 106.1L116.5 106.1Q115.9 106.1 115.5 105.9Q115.0 105.7 114.8 105.4Q114.5 105.1 114.4 104.8L114.4 104.8L114.3 104.8L114.3 108.9ZM115.9 104.5L115.9 104.5Q116.4 104.5 116.8 104.2Q117.2 103.9 117.4 103.4Q117.5 102.9 117.5 102.2L117.5 102.2Q117.5 101.5 117.4 101.0Q117.2 100.5 116.8 100.2Q116.4 99.9 115.9 99.9L115.9 99.9Q115.4 99.9 115.0 100.2Q114.6 100.5 114.4 101.0Q114.3 101.5 114.3 102.2L114.3 102.2Q114.3 102.9 114.4 103.4Q114.6 103.9 115.0 104.2Q115.4 104.5 115.9 104.5ZM124.8 106.2L124.8 106.2Q123.7 106.2 122.8 105.7Q122.0 105.2 121.5 104.3Q121.1 103.4 121.1 102.2L121.1 102.2Q121.1 101.0 121.5 100.1Q122.0 99.3 122.8 98.8Q123.6 98.3 124.7 98.3L124.7 98.3Q125.5 98.3 126.1 98.5Q126.8 98.7 127.3 99.2Q127.8 99.7 128.0 100.4Q128.3 101.2 128.3 102.1L128.3 102.1L128.3 102.7L123.1 102.7Q123.1 103.3 123.3 103.7L123.3 103.7Q123.5 104.2 123.9 104.4Q124.3 104.6 124.9 104.6L124.9 104.6Q125.2 104.6 125.5 104.5Q125.8 104.4 126.0 104.2Q126.2 104.0 126.3 103.7L126.3 103.7L128.2 104.1Q128.0 104.7 127.6 105.2Q127.1 105.6 126.4 105.9Q125.7 106.2 124.8 106.2ZM123.1 101.4L123.1 101.4L126.3 101.4Q126.3 101.0 126.2 100.7L126.2 100.7Q126.0 100.3 125.6 100.0Q125.3 99.8 124.7 99.8L124.7 99.8Q124.2 99.8 123.8 100.1Q123.5 100.3 123.3 100.7L123.3 100.7Q123.1 101.0 123.1 101.4ZM133.8 106.2L133.8 106.2Q132.6 106.2 131.7 105.8Q130.8 105.4 130.3 104.7Q129.7 103.9 129.7 102.8L129.7 102.8L131.7 102.8Q131.8 103.4 132.1 103.7Q132.3 104.0 132.8 104.2Q133.2 104.4 133.8 104.4L133.8 104.4Q134.3 104.4 134.7 104.2Q135.2 104.1 135.4 103.8Q135.6 103.5 135.6 103.1L135.6 103.1Q135.6 102.7 135.4 102.5Q135.2 102.3 134.8 102.1Q134.4 101.9 133.9 101.8L133.9 101.8L132.7 101.5Q131.5 101.2 130.7 100.5Q130.0 99.9 130.0 98.7L130.0 98.7Q130.0 97.8 130.5 97.1Q131.0 96.4 131.8 96.1Q132.7 95.7 133.8 95.7L133.8 95.7Q134.9 95.7 135.8 96.1Q136.6 96.5 137.1 97.1Q137.6 97.8 137.6 98.7L137.6 98.7L135.6 98.7Q135.5 98.1 135.0 97.8Q134.6 97.4 133.8 97.4L133.8 97.4Q133.3 97.4 132.9 97.6Q132.5 97.7 132.3 98.0Q132.1 98.3 132.1 98.6L132.1 98.6Q132.1 99.0 132.4 99.2Q132.6 99.5 133.0 99.6Q133.3 99.8 133.8 99.9L133.8 99.9L134.7 100.1Q135.3 100.3 135.9 100.5Q136.4 100.8 136.8 101.1Q137.3 101.5 137.5 102.0Q137.7 102.5 137.7 103.1L137.7 103.1Q137.7 104.0 137.3 104.7Q136.8 105.4 135.9 105.8Q135.0 106.2 133.8 106.2ZM142.9 106.2L142.9 106.2Q141.7 106.2 140.9 105.7Q140.1 105.2 139.6 104.3Q139.2 103.4 139.2 102.2L139.2 102.2Q139.2 101.0 139.6 100.1Q140.1 99.3 140.9 98.8Q141.7 98.3 142.9 98.3L142.9 98.3Q143.6 98.3 144.1 98.4Q144.7 98.6 145.2 98.9Q145.6 99.3 145.9 99.7Q146.2 100.2 146.3 100.8L146.3 100.8L144.4 101.2Q144.3 100.9 144.2 100.6Q144.1 100.4 143.9 100.2Q143.7 100.1 143.5 100.0Q143.2 99.9 142.9 99.9L142.9 99.9Q142.4 99.9 142.0 100.2Q141.6 100.5 141.4 101.0Q141.3 101.5 141.3 102.2L141.3 102.2Q141.3 102.9 141.4 103.4Q141.6 103.9 142.0 104.2Q142.4 104.5 142.9 104.5L142.9 104.5Q143.2 104.5 143.5 104.4Q143.7 104.4 143.9 104.2Q144.1 104.0 144.2 103.8Q144.3 103.5 144.4 103.2L144.4 103.2L146.3 103.6Q146.2 104.2 145.9 104.6Q145.6 105.1 145.2 105.5Q144.7 105.8 144.2 106.0Q143.6 106.2 142.9 106.2ZM150.1 106L148.0 106L148.0 98.4L150.0 98.4L150.0 99.7L150.1 99.7Q150.3 99.0 150.8 98.6Q151.3 98.3 151.9 98.3L151.9 98.3Q152.1 98.3 152.3 98.3Q152.5 98.3 152.6 98.3L152.6 98.3L152.6 100.2Q152.5 100.1 152.2 100.1Q151.9 100.1 151.7 100.1L151.7 100.1Q151.2 100.1 150.9 100.3Q150.5 100.5 150.3 100.8Q150.1 101.2 150.1 101.7L150.1 101.7L150.1 106ZM156.1 106L154.0 106L154.0 98.4L156.1 98.4L156.1 106ZM155.0 97.4L155.0 97.4Q154.6 97.4 154.3 97.1Q153.9 96.7 153.9 96.3L153.9 96.3Q153.9 95.9 154.3 95.6Q154.6 95.3 155.0 95.3L155.0 95.3Q155.5 95.3 155.8 95.6Q156.2 95.9 156.2 96.3L156.2 96.3Q156.2 96.7 155.8 97.1Q155.5 97.4 155.0 97.4ZM160.2 108.9L158.1 108.9L158.1 98.4L160.1 98.4L160.1 99.6L160.2 99.6Q160.4 99.3 160.6 99.0Q160.9 98.7 161.3 98.5Q161.8 98.3 162.4 98.3L162.4 98.3Q163.3 98.3 164.0 98.7Q164.7 99.1 165.1 100.0Q165.5 100.9 165.5 102.2L165.5 102.2Q165.5 103.5 165.1 104.3Q164.7 105.2 164.0 105.7Q163.3 106.1 162.4 106.1L162.4 106.1Q161.8 106.1 161.3 105.9Q160.9 105.7 160.6 105.4Q160.4 105.1 160.2 104.8L160.2 104.8L160.2 104.8L160.2 108.9ZM161.8 104.5L161.8 104.5Q162.3 104.5 162.7 104.2Q163.0 103.9 163.2 103.4Q163.4 102.9 163.4 102.2L163.4 102.2Q163.4 101.5 163.2 101.0Q163.0 100.5 162.7 100.2Q162.3 99.9 161.8 99.9L161.8 99.9Q161.2 99.9 160.9 100.2Q160.5 100.5 160.3 101.0Q160.1 101.5 160.1 102.2L160.1 102.2Q160.1 102.9 160.3 103.4Q160.5 103.9 160.9 104.2Q161.2 104.5 161.8 104.5ZM169.6 98.4L171.0 98.4L171.0 99.9L169.6 99.9L169.6 103.8Q169.6 104.1 169.8 104.3Q169.9 104.5 170.3 104.5L170.3 104.5Q170.4 104.5 170.6 104.4Q170.8 104.4 171.0 104.4L171.0 104.4L171.2 105.9Q170.9 106.0 170.6 106.1Q170.2 106.1 169.9 106.1L169.9 106.1Q168.8 106.1 168.2 105.5Q167.6 105.0 167.6 103.9L167.6 103.9L167.6 99.9L166.5 99.9L166.5 98.4L167.6 98.4L167.6 96.5L169.6 96.5L169.6 98.4Z "/></g><defs><clipPath id="satori_bc-id-0-2-1" clip-path="url(#satori_cp-id-0)"><path x="213" y="83" width="103" height="35" d="M230.5,83 h68 a17.5,17.5 0 0 1 17.5,17.5 v0 a17.5,17.5 0 0 1 -17.5,17.5 h-68 a17.5,17.5 0 0 1 -17.5,-17.5 v0 a17.5,17.5 0 0 1 17.5,-17.5"/></clipPath></defs><mask id="satori_om-id-0-2-1"><rect x="214" y="84" width="101" height="33" fill="#fff" mask="url(#satori_om-id-0)"/><path width="103" height="35" fill="none" stroke="#000" stroke-width="2" d="M218.126,88.126 A17.5,17.5 0 0 1 230.5,83 h68 a17.5,17.5 0 0 1 17.5,17.5 v0 a17.5,17.5 0 0 1 -17.5,17.5 h-68 a17.5,17.5 0 0 1 -17.5,-17.5 v0 A17.5,17.5 0 0 1 218.126,88.126"/></mask><path x="213" y="83" width="103" height="35" fill="rgba(0,0,0,0.3)" d="M230.5,83 h68 a17.5,17.5 0 0 1 17.5,17.5 v0 a17.5,17.5 0 0 1 -17.5,17.5 h-68 a17.5,17.5 0 0 1 -17.5,-17.5 v0 a17.5,17.5 0 0 1 17.5,-17.5" clip-path="url(#satori_cp-id-0)" mask="url(#satori_om-id-0)"/><path width="103" height="35" clip-path="url(#satori_bc-id-0-2-1)" fill="none" stroke="rgba(110, 80, 200, 0.4)" stroke-width="2" d="M218.126,88.126 A17.5,17.5 0 0 1 230.5,83 h68 a17.5,17.5 0 0 1 17.5,17.5 v0 a17.5,17.5 0 0 1 -17.5,17.5 h-68 a17.5,17.5 0 0 1 -17.5,-17.5 v0 A17.5,17.5 0 0 1 218.126,88.126"/><g mask="url(#satori_om-id-0)" clip-path="url(#satori_cp-id-0)"><path fill="#7ae28d" d="M245.4 106L238.9 106L238.9 95.8L241.0 95.8L241.0 104.3L245.4 104.3L245.4 106ZM249.2 106.2L249.2 106.2Q248.5 106.2 247.9 105.9Q247.3 105.6 247.0 105.1Q246.7 104.6 246.7 103.9L246.7 103.9Q246.7 103.2 246.9 102.8Q247.2 102.4 247.6 102.1Q248.0 101.8 248.5 101.7Q249.0 101.6 249.6 101.5L249.6 101.5Q250.2 101.4 250.6 101.4Q251.0 101.3 251.2 101.2Q251.4 101.1 251.4 100.8L251.4 100.8L251.4 100.8Q251.4 100.5 251.3 100.2Q251.1 100.0 250.9 99.9Q250.6 99.8 250.2 99.8L250.2 99.8Q249.8 99.8 249.5 99.9Q249.2 100.0 249.1 100.2Q248.9 100.4 248.8 100.7L248.8 100.7L246.9 100.4Q247.1 99.7 247.6 99.2Q248.0 98.8 248.7 98.5Q249.4 98.3 250.2 98.3L250.2 98.3Q250.8 98.3 251.4 98.4Q252.0 98.6 252.5 98.9Q252.9 99.2 253.2 99.7Q253.5 100.2 253.5 100.9L253.5 100.9L253.5 106L251.5 106L251.5 104.9L251.5 104.9Q251.3 105.3 251.0 105.6Q250.7 105.8 250.2 106.0Q249.8 106.2 249.2 106.2ZM249.8 104.7L249.8 104.7Q250.3 104.7 250.7 104.5Q251.0 104.3 251.2 104.0Q251.4 103.7 251.4 103.3L251.4 103.3L251.4 102.4Q251.3 102.5 251.2 102.6Q251.0 102.6 250.7 102.7Q250.5 102.7 250.3 102.7Q250.1 102.8 249.9 102.8L249.9 102.8Q249.5 102.8 249.3 103.0Q249.0 103.1 248.8 103.3Q248.6 103.5 248.6 103.8L248.6 103.8Q248.6 104.1 248.8 104.3Q249.0 104.5 249.2 104.6Q249.5 104.7 249.8 104.7ZM257.6 106L255.5 106L255.5 98.4L257.5 98.4L257.5 99.7L257.6 99.7Q257.8 99.0 258.3 98.6Q258.8 98.3 259.4 98.3L259.4 98.3Q259.6 98.3 259.8 98.3Q260.0 98.3 260.1 98.3L260.1 98.3L260.1 100.2Q260.0 100.1 259.7 100.1Q259.4 100.1 259.2 100.1L259.2 100.1Q258.7 100.1 258.4 100.3Q258.0 100.5 257.8 100.8Q257.6 101.2 257.6 101.7L257.6 101.7L257.6 106ZM263.7 106.2L263.7 106.2Q262.9 106.2 262.4 105.9Q261.8 105.6 261.4 105.1Q261.1 104.6 261.1 103.9L261.1 103.9Q261.1 103.2 261.3 102.8Q261.6 102.4 262.0 102.1Q262.4 101.8 262.9 101.7Q263.4 101.6 264.0 101.5L264.0 101.5Q264.7 101.4 265.1 101.4Q265.5 101.3 265.7 101.2Q265.8 101.1 265.8 100.8L265.8 100.8L265.8 100.8Q265.8 100.5 265.7 100.2Q265.6 100.0 265.3 99.9Q265.0 99.8 264.7 99.8L264.7 99.8Q264.3 99.8 264.0 99.9Q263.7 100.0 263.5 100.2Q263.3 100.4 263.2 100.7L263.2 100.7L261.3 100.4Q261.5 99.7 262.0 99.2Q262.4 98.8 263.1 98.5Q263.8 98.3 264.7 98.3L264.7 98.3Q265.3 98.3 265.9 98.4Q266.4 98.6 266.9 98.9Q267.4 99.2 267.6 99.7Q267.9 100.2 267.9 100.9L267.9 100.9L267.9 106L266.0 106L266.0 104.9L265.9 104.9Q265.7 105.3 265.4 105.6Q265.1 105.8 264.7 106.0Q264.2 106.2 263.7 106.2ZM264.2 104.7L264.2 104.7Q264.7 104.7 265.1 104.5Q265.5 104.3 265.7 104.0Q265.9 103.7 265.9 103.3L265.9 103.3L265.9 102.4Q265.8 102.5 265.6 102.6Q265.4 102.6 265.2 102.7Q265.0 102.7 264.7 102.7Q264.5 102.8 264.3 102.8L264.3 102.8Q264.0 102.8 263.7 103.0Q263.4 103.1 263.2 103.3Q263.1 103.5 263.1 103.8L263.1 103.8Q263.1 104.1 263.2 104.3Q263.4 104.5 263.6 104.6Q263.9 104.7 264.2 104.7ZM274.4 106L272.1 106L269.3 98.4L271.5 98.4L272.8 102.3Q273.0 103.1 273.2 103.8L273.2 103.8Q273.2 104.1 273.3 104.4L273.3 104.4Q273.4 104.1 273.4 103.8L273.4 103.8Q273.6 103.1 273.8 102.3L273.8 102.3L275.1 98.4L277.3 98.4L274.4 106ZM282.1 106.2L282.1 106.2Q280.9 106.2 280.1 105.7Q279.2 105.2 278.8 104.3Q278.3 103.4 278.3 102.2L278.3 102.2Q278.3 101.0 278.8 100.1Q279.2 99.3 280.1 98.8Q280.9 98.3 282.0 98.3L282.0 98.3Q282.7 98.3 283.4 98.5Q284.0 98.7 284.5 99.2Q285.0 99.7 285.3 100.4Q285.6 101.2 285.6 102.1L285.6 102.1L285.6 102.7L280.4 102.7Q280.4 103.3 280.6 103.7L280.6 103.7Q280.8 104.2 281.2 104.4Q281.6 104.6 282.1 104.6L282.1 104.6Q282.5 104.6 282.8 104.5Q283.1 104.4 283.3 104.2Q283.5 104.0 283.6 103.7L283.6 103.7L285.5 104.1Q285.3 104.7 284.8 105.2Q284.4 105.6 283.7 105.9Q283.0 106.2 282.1 106.2ZM280.4 101.4L280.4 101.4L283.6 101.4Q283.6 101.0 283.4 100.7L283.4 100.7Q283.3 100.3 282.9 100.0Q282.5 99.8 282.0 99.8L282.0 99.8Q281.5 99.8 281.1 100.1Q280.7 100.3 280.5 100.7L280.5 100.7Q280.4 101.0 280.4 101.4ZM287.3 95.8L289.3 95.8L289.3 106L287.3 106L287.3 95.8Z "/></g><defs><clipPath id="satori_bc-id-0-2-2" clip-path="url(#satori_cp-id-0)"><path x="332" y="83" width="101" height="35" d="M349.5,83 h66 a17.5,17.5 0 0 1 17.5,17.5 v0 a17.5,17.5 0 0 1 -17.5,17.5 h-66 a17.5,17.5 0 0 1 -17.5,-17.5 v0 a17.5,17.5 0 0 1 17.5,-17.5"/></clipPath></defs><mask id="satori_om-id-0-2-2"><rect x="333" y="84" width="99" height="33" fill="#fff" mask="url(#satori_om-id-0)"/><path width="101" height="35" fill="none" stroke="#000" stroke-width="2" d="M337.126,88.126 A17.5,17.5 0 0 1 349.5,83 h66 a17.5,17.5 0 0 1 17.5,17.5 v0 a17.5,17.5 0 0 1 -17.5,17.5 h-66 a17.5,17.5 0 0 1 -17.5,-17.5 v0 A17.5,17.5 0 0 1 337.126,88.126"/></mask><path x="332" y="83" width="101" height="35" fill="rgba(0,0,0,0.3)" d="M349.5,83 h66 a17.5,17.5 0 0 1 17.5,17.5 v0 a17.5,17.5 0 0 1 -17.5,17.5 h-66 a17.5,17.5 0 0 1 -17.5,-17.5 v0 a17.5,17.5 0 0 1 17.5,-17.5" clip-path="url(#satori_cp-id-0)" mask="url(#satori_om-id-0)"/><path width="101" height="35" clip-path="url(#satori_bc-id-0-2-2)" fill="none" stroke="rgba(110, 80, 200, 0.4)" stroke-width="2" d="M337.126,88.126 A17.5,17.5 0 0 1 349.5,83 h66 a17.5,17.5 0 0 1 17.5,17.5 v0 a17.5,17.5 0 0 1 -17.5,17.5 h-66 a17.5,17.5 0 0 1 -17.5,-17.5 v0 A17.5,17.5 0 0 1 337.126,88.126"/><g mask="url(#satori_om-id-0)" clip-path="url(#satori_cp-id-0)"><path fill="#e8b0ff" d="M360.1 106L357.9 106L357.9 95.8L360.2 95.8L363.5 101.0Q363.7 101.4 364.0 101.8Q364.2 102.3 364.5 102.9L364.5 102.9Q364.6 103.1 364.7 103.5L364.7 103.5Q364.7 103.2 364.7 102.9L364.7 102.9Q364.7 102.3 364.6 101.7Q364.6 101.1 364.6 100.7L364.6 100.7L364.6 95.8L366.7 95.8L366.7 106L364.4 106L361.5 101.3Q361.2 100.8 360.9 100.3Q360.6 99.8 360.3 99.2L360.3 99.2Q360.1 98.8 359.9 98.4L359.9 98.4Q359.9 98.8 360.0 99.2L360.0 99.2Q360.0 99.9 360.0 100.4Q360.1 101.0 360.1 101.3L360.1 101.3L360.1 106ZM372.3 106.2L372.3 106.2Q371.1 106.2 370.3 105.7Q369.4 105.2 369.0 104.3Q368.5 103.4 368.5 102.2L368.5 102.2Q368.5 101.0 369.0 100.1Q369.4 99.3 370.3 98.8Q371.1 98.3 372.2 98.3L372.2 98.3Q372.9 98.3 373.6 98.5Q374.2 98.7 374.7 99.2Q375.2 99.7 375.5 100.4Q375.8 101.2 375.8 102.1L375.8 102.1L375.8 102.7L370.6 102.7Q370.6 103.3 370.8 103.7L370.8 103.7Q371.0 104.2 371.4 104.4Q371.8 104.6 372.3 104.6L372.3 104.6Q372.7 104.6 373.0 104.5Q373.3 104.4 373.5 104.2Q373.7 104.0 373.8 103.7L373.8 103.7L375.7 104.1Q375.5 104.7 375.0 105.2Q374.6 105.6 373.9 105.9Q373.2 106.2 372.3 106.2ZM370.6 101.4L370.6 101.4L373.8 101.4Q373.8 101.0 373.6 100.7L373.6 100.7Q373.5 100.3 373.1 100.0Q372.7 99.8 372.2 99.8L372.2 99.8Q371.7 99.8 371.3 100.1Q370.9 100.3 370.7 100.7L370.7 100.7Q370.6 101.0 370.6 101.4ZM379.1 106L376.9 106L379.4 102.1L377.0 98.4L379.3 98.4L380.0 99.6Q380.3 100.2 380.5 100.7L380.5 100.7Q380.6 100.9 380.7 101.1L380.7 101.1Q380.8 100.9 380.8 100.7L380.8 100.7Q381.1 100.2 381.4 99.6L381.4 99.6L382.2 98.4L384.3 98.4L382.0 102.1L384.4 106L382.2 106L381.4 104.6Q381.1 104.0 380.8 103.4L380.8 103.4Q380.7 103.2 380.6 103.1L380.6 103.1Q380.6 103.2 380.5 103.4L380.5 103.4Q380.2 104.0 379.9 104.6L379.9 104.6L379.1 106ZM388.3 98.4L389.7 98.4L389.7 99.9L388.3 99.9L388.3 103.8Q388.3 104.1 388.4 104.3Q388.6 104.5 389.0 104.5L389.0 104.5Q389.1 104.5 389.3 104.4Q389.5 104.4 389.6 104.4L389.6 104.4L389.9 105.9Q389.6 106.0 389.2 106.1Q388.9 106.1 388.6 106.1L388.6 106.1Q387.4 106.1 386.8 105.5Q386.2 105.0 386.2 103.9L386.2 103.9L386.2 99.9L385.2 99.9L385.2 98.4L386.2 98.4L386.2 96.5L388.3 96.5L388.3 98.4ZM392.8 106.1L392.8 106.1Q392.3 106.1 392.0 105.8Q391.6 105.5 391.6 105.0L391.6 105.0Q391.6 104.5 392.0 104.1Q392.3 103.8 392.8 103.8L392.8 103.8Q393.3 103.8 393.6 104.1Q394.0 104.5 394.0 105.0L394.0 105.0Q394.0 105.5 393.6 105.8Q393.3 106.1 392.8 106.1ZM396.3 106.4L396.3 98.4L398.4 98.4L398.4 106.4Q398.4 107.3 398.0 107.8Q397.7 108.4 397.0 108.6Q396.4 108.9 395.5 108.9L395.5 108.9L395.1 108.9L395.1 107.2L395.4 107.2Q395.9 107.2 396.1 107.0Q396.3 106.8 396.3 106.4L396.3 106.4ZM397.3 97.4L397.3 97.4Q396.9 97.4 396.5 97.1Q396.2 96.7 396.2 96.3L396.2 96.3Q396.2 95.9 396.5 95.6Q396.9 95.3 397.3 95.3L397.3 95.3Q397.8 95.3 398.1 95.6Q398.5 95.9 398.5 96.3L398.5 96.3Q398.5 96.7 398.1 97.1Q397.8 97.4 397.3 97.4ZM403.4 106.2L403.4 106.2Q402.5 106.2 401.8 105.9Q401.1 105.6 400.6 105.1Q400.2 104.6 400.1 103.9L400.1 103.9L402.0 103.6Q402.1 104.1 402.5 104.4Q402.9 104.6 403.5 104.6L403.5 104.6Q404.1 104.6 404.4 104.4Q404.8 104.2 404.8 103.9L404.8 103.9Q404.8 103.6 404.5 103.4Q404.3 103.2 403.8 103.1L403.8 103.1L402.5 102.8Q401.4 102.6 400.8 102.0Q400.3 101.5 400.3 100.6L400.3 100.6Q400.3 99.9 400.7 99.4Q401.1 98.8 401.8 98.5Q402.5 98.3 403.5 98.3L403.5 98.3Q404.4 98.3 405.0 98.5Q405.7 98.8 406.1 99.2Q406.5 99.7 406.7 100.3L406.7 100.3L404.8 100.6Q404.7 100.2 404.4 100.0Q404.1 99.7 403.5 99.7L403.5 99.7Q403.0 99.7 402.7 99.9Q402.3 100.2 402.3 100.5L402.3 100.5Q402.3 100.8 402.5 101.0Q402.8 101.2 403.3 101.3L403.3 101.3L404.7 101.6Q405.8 101.8 406.3 102.3Q406.9 102.8 406.9 103.6L406.9 103.6Q406.9 104.4 406.4 105.0Q406.0 105.5 405.2 105.8Q404.4 106.2 403.4 106.2Z "/></g><defs><clipPath id="satori_bc-id-0-2-3" clip-path="url(#satori_cp-id-0)"><path x="449" y="83" width="123" height="35" d="M466.5,83 h88 a17.5,17.5 0 0 1 17.5,17.5 v0 a17.5,17.5 0 0 1 -17.5,17.5 h-88 a17.5,17.5 0 0 1 -17.5,-17.5 v0 a17.5,17.5 0 0 1 17.5,-17.5"/></clipPath></defs><mask id="satori_om-id-0-2-3"><rect x="450" y="84" width="121" height="33" fill="#fff" mask="url(#satori_om-id-0)"/><path width="123" height="35" fill="none" stroke="#000" stroke-width="2" d="M454.126,88.126 A17.5,17.5 0 0 1 466.5,83 h88 a17.5,17.5 0 0 1 17.5,17.5 v0 a17.5,17.5 0 0 1 -17.5,17.5 h-88 a17.5,17.5 0 0 1 -17.5,-17.5 v0 A17.5,17.5 0 0 1 454.126,88.126"/></mask><path x="449" y="83" width="123" height="35" fill="rgba(0,0,0,0.3)" d="M466.5,83 h88 a17.5,17.5 0 0 1 17.5,17.5 v0 a17.5,17.5 0 0 1 -17.5,17.5 h-88 a17.5,17.5 0 0 1 -17.5,-17.5 v0 a17.5,17.5 0 0 1 17.5,-17.5" clip-path="url(#satori_cp-id-0)" mask="url(#satori_om-id-0)"/><path width="123" height="35" clip-path="url(#satori_bc-id-0-2-3)" fill="none" stroke="rgba(110, 80, 200, 0.4)" stroke-width="2" d="M454.126,88.126 A17.5,17.5 0 0 1 466.5,83 h88 a17.5,17.5 0 0 1 17.5,17.5 v0 a17.5,17.5 0 0 1 -17.5,17.5 h-88 a17.5,17.5 0 0 1 -17.5,-17.5 v0 A17.5,17.5 0 0 1 454.126,88.126"/><g mask="url(#satori_om-id-0)" clip-path="url(#satori_cp-id-0)"><path fill="#6bf0ff" d="M477.0 106L474.9 106L474.9 95.8L478.9 95.8Q480.1 95.8 480.9 96.2Q481.7 96.6 482.1 97.4Q482.5 98.1 482.5 99.1Q482.5 100.1 482.1 100.9Q481.7 101.6 480.8 102.0L480.8 102.0Q480.8 102.0 480.7 102.0L480.7 102.0L482.9 106L480.6 106L478.6 102.4L477.0 102.4L477.0 106ZM477.0 97.5L477.0 100.7L478.5 100.7Q479.2 100.7 479.6 100.5Q480.0 100.3 480.2 100.0Q480.4 99.6 480.4 99.1L480.4 99.1Q480.4 98.6 480.2 98.3Q480.0 97.9 479.6 97.7Q479.1 97.5 478.5 97.5L478.5 97.5L477.0 97.5ZM487.8 106.2L487.8 106.2Q486.7 106.2 485.8 105.7Q485.0 105.2 484.5 104.3Q484.0 103.4 484.0 102.2L484.0 102.2Q484.0 101.0 484.5 100.1Q485.0 99.3 485.8 98.8Q486.6 98.3 487.7 98.3L487.7 98.3Q488.5 98.3 489.1 98.5Q489.8 98.7 490.3 99.2Q490.8 99.7 491.0 100.4Q491.3 101.2 491.3 102.1L491.3 102.1L491.3 102.7L486.1 102.7Q486.1 103.3 486.3 103.7L486.3 103.7Q486.5 104.2 486.9 104.4Q487.3 104.6 487.9 104.6L487.9 104.6Q488.2 104.6 488.5 104.5Q488.8 104.4 489.0 104.2Q489.2 104.0 489.3 103.7L489.3 103.7L491.2 104.1Q491.0 104.7 490.5 105.2Q490.1 105.6 489.4 105.9Q488.7 106.2 487.8 106.2ZM486.1 101.4L486.1 101.4L489.3 101.4Q489.3 101.0 489.2 100.7L489.2 100.7Q489.0 100.3 488.6 100.0Q488.3 99.8 487.7 99.8L487.7 99.8Q487.2 99.8 486.8 100.1Q486.5 100.3 486.3 100.7L486.3 100.7Q486.1 101.0 486.1 101.4ZM495.1 106.2L495.1 106.2Q494.4 106.2 493.8 105.9Q493.3 105.6 492.9 105.1Q492.6 104.6 492.6 103.9L492.6 103.9Q492.6 103.2 492.8 102.8Q493.1 102.4 493.5 102.1Q493.9 101.8 494.4 101.7Q494.9 101.6 495.5 101.5L495.5 101.5Q496.1 101.4 496.6 101.4Q497.0 101.3 497.1 101.2Q497.3 101.1 497.3 100.8L497.3 100.8L497.3 100.8Q497.3 100.5 497.2 100.2Q497.1 100.0 496.8 99.9Q496.5 99.8 496.1 99.8L496.1 99.8Q495.7 99.8 495.4 99.9Q495.2 100.0 495.0 100.2Q494.8 100.4 494.7 100.7L494.7 100.7L492.8 100.4Q493.0 99.7 493.5 99.2Q493.9 98.8 494.6 98.5Q495.3 98.3 496.1 98.3L496.1 98.3Q496.8 98.3 497.3 98.4Q497.9 98.6 498.4 98.9Q498.8 99.2 499.1 99.7Q499.4 100.2 499.4 100.9L499.4 100.9L499.4 106L497.4 106L497.4 104.9L497.4 104.9Q497.2 105.3 496.9 105.6Q496.6 105.8 496.1 106.0Q495.7 106.2 495.1 106.2ZM495.7 104.7L495.7 104.7Q496.2 104.7 496.6 104.5Q496.9 104.3 497.1 104.0Q497.4 103.7 497.4 103.3L497.4 103.3L497.4 102.4Q497.3 102.5 497.1 102.6Q496.9 102.6 496.7 102.7Q496.4 102.7 496.2 102.7Q496.0 102.8 495.8 102.8L495.8 102.8Q495.5 102.8 495.2 103.0Q494.9 103.1 494.7 103.3Q494.6 103.5 494.6 103.8L494.6 103.8Q494.6 104.1 494.7 104.3Q494.9 104.5 495.1 104.6Q495.4 104.7 495.7 104.7ZM504.9 106.2L504.9 106.2Q503.7 106.2 502.9 105.7Q502.0 105.2 501.6 104.3Q501.1 103.4 501.1 102.2L501.1 102.2Q501.1 101.0 501.6 100.1Q502.0 99.3 502.9 98.8Q503.7 98.3 504.9 98.3L504.9 98.3Q505.5 98.3 506.1 98.4Q506.7 98.6 507.1 98.9Q507.6 99.3 507.9 99.7Q508.1 100.2 508.3 100.8L508.3 100.8L506.3 101.2Q506.3 100.9 506.2 100.6Q506.0 100.4 505.8 100.2Q505.7 100.1 505.4 100.0Q505.2 99.9 504.9 99.9L504.9 99.9Q504.3 99.9 504.0 100.2Q503.6 100.5 503.4 101.0Q503.2 101.5 503.2 102.2L503.2 102.2Q503.2 102.9 503.4 103.4Q503.6 103.9 504.0 104.2Q504.3 104.5 504.9 104.5L504.9 104.5Q505.2 104.5 505.4 104.4Q505.7 104.4 505.9 104.2Q506.0 104.0 506.2 103.8Q506.3 103.5 506.4 103.2L506.4 103.2L508.3 103.6Q508.2 104.2 507.9 104.6Q507.6 105.1 507.1 105.5Q506.7 105.8 506.1 106.0Q505.5 106.2 504.9 106.2ZM512.3 98.4L513.8 98.4L513.8 99.9L512.3 99.9L512.3 103.8Q512.3 104.1 512.5 104.3Q512.7 104.5 513.0 104.5L513.0 104.5Q513.2 104.5 513.4 104.4Q513.6 104.4 513.7 104.4L513.7 104.4L514.0 105.9Q513.6 106.0 513.3 106.1Q513.0 106.1 512.7 106.1L512.7 106.1Q511.5 106.1 510.9 105.5Q510.3 105.0 510.3 103.9L510.3 103.9L510.3 99.9L509.2 99.9L509.2 98.4L510.3 98.4L510.3 96.5L512.3 96.5L512.3 98.4Z M522.0 106.1L522.0 106.1Q520.4 106.1 519.5 105.3Q518.6 104.5 518.6 102.9L518.6 102.9L518.6 102.3L520.7 102.3L520.7 103.0Q520.7 103.7 521.1 104.1Q521.4 104.5 522.0 104.5L522.0 104.5Q522.6 104.5 523.0 104.1Q523.3 103.7 523.3 103.0L523.3 103.0L523.3 95.8L525.4 95.8L525.4 102.9Q525.4 104.5 524.5 105.3Q523.6 106.1 522.0 106.1ZM531.3 106.2L531.3 106.2Q530.1 106.2 529.2 105.8Q528.2 105.4 527.7 104.7Q527.2 103.9 527.2 102.8L527.2 102.8L529.2 102.8Q529.3 103.4 529.5 103.7Q529.8 104.0 530.3 104.2Q530.7 104.4 531.3 104.4L531.3 104.4Q531.8 104.4 532.2 104.2Q532.6 104.1 532.9 103.8Q533.1 103.5 533.1 103.1L533.1 103.1Q533.1 102.7 532.9 102.5Q532.7 102.3 532.3 102.1Q531.9 101.9 531.4 101.8L531.4 101.8L530.2 101.5Q528.9 101.2 528.2 100.5Q527.5 99.9 527.5 98.7L527.5 98.7Q527.5 97.8 528.0 97.1Q528.5 96.4 529.3 96.1Q530.2 95.7 531.3 95.7L531.3 95.7Q532.4 95.7 533.3 96.1Q534.1 96.5 534.6 97.1Q535.1 97.8 535.1 98.7L535.1 98.7L533.1 98.7Q533.0 98.1 532.5 97.8Q532.1 97.4 531.3 97.4L531.3 97.4Q530.8 97.4 530.4 97.6Q530.0 97.7 529.8 98.0Q529.6 98.3 529.6 98.6L529.6 98.6Q529.6 99.0 529.8 99.2Q530.1 99.5 530.4 99.6Q530.8 99.8 531.2 99.9L531.2 99.9L532.2 100.1Q532.8 100.3 533.4 100.5Q533.9 100.8 534.3 101.1Q534.8 101.5 535.0 102.0Q535.2 102.5 535.2 103.1L535.2 103.1Q535.2 104.0 534.7 104.7Q534.3 105.4 533.4 105.8Q532.5 106.2 531.3 106.2ZM538.9 106L536.4 106L540.1 100.8L536.8 95.8L539.2 95.8L540.3 97.5Q540.6 98.0 540.8 98.4Q541.0 98.8 541.2 99.1L541.2 99.1Q541.2 99.2 541.3 99.3L541.3 99.3Q541.3 99.2 541.4 99.1L541.4 99.1Q541.6 98.8 541.8 98.4Q542.0 98.0 542.3 97.5L542.3 97.5L543.4 95.8L545.8 95.8L542.5 100.7L546.1 106L543.6 106L542.2 103.9Q541.9 103.4 541.7 103.1Q541.6 102.8 541.4 102.6L541.4 102.6Q541.3 102.4 541.3 102.3L541.3 102.3Q541.2 102.4 541.1 102.6L541.1 102.6Q541.0 102.8 540.8 103.1Q540.6 103.4 540.3 103.9L540.3 103.9L538.9 106Z "/></g><defs><clipPath id="satori_bc-id-0-2-4" clip-path="url(#satori_cp-id-0)"><path x="588" y="83" width="144" height="35" d="M605.5,83 h109 a17.5,17.5 0 0 1 17.5,17.5 v0 a17.5,17.5 0 0 1 -17.5,17.5 h-109 a17.5,17.5 0 0 1 -17.5,-17.5 v0 a17.5,17.5 0 0 1 17.5,-17.5"/></clipPath></defs><mask id="satori_om-id-0-2-4"><rect x="589" y="84" width="142" height="33" fill="#fff" mask="url(#satori_om-id-0)"/><path width="144" height="35" fill="none" stroke="#000" stroke-width="2" d="M593.126,88.126 A17.5,17.5 0 0 1 605.5,83 h109 a17.5,17.5 0 0 1 17.5,17.5 v0 a17.5,17.5 0 0 1 -17.5,17.5 h-109 a17.5,17.5 0 0 1 -17.5,-17.5 v0 A17.5,17.5 0 0 1 593.126,88.126"/></mask><path x="588" y="83" width="144" height="35" fill="rgba(0,0,0,0.3)" d="M605.5,83 h109 a17.5,17.5 0 0 1 17.5,17.5 v0 a17.5,17.5 0 0 1 -17.5,17.5 h-109 a17.5,17.5 0 0 1 -17.5,-17.5 v0 a17.5,17.5 0 0 1 17.5,-17.5" clip-path="url(#satori_cp-id-0)" mask="url(#satori_om-id-0)"/><path width="144" height="35" clip-path="url(#satori_bc-id-0-2-4)" fill="none" stroke="rgba(110, 80, 200, 0.4)" stroke-width="2" d="M593.126,88.126 A17.5,17.5 0 0 1 605.5,83 h109 a17.5,17.5 0 0 1 17.5,17.5 v0 a17.5,17.5 0 0 1 -17.5,17.5 h-109 a17.5,17.5 0 0 1 -17.5,-17.5 v0 A17.5,17.5 0 0 1 593.126,88.126"/><g mask="url(#satori_om-id-0)" clip-path="url(#satori_cp-id-0)"><path fill="#ffc299" d="M616.6 97.5L613.5 97.5L613.5 95.8L621.8 95.8L621.8 97.5L618.7 97.5L618.7 106L616.6 106L616.6 97.5ZM625.7 106.2L625.7 106.2Q624.9 106.2 624.4 105.9Q623.8 105.6 623.4 105.1Q623.1 104.6 623.1 103.9L623.1 103.9Q623.1 103.2 623.3 102.8Q623.6 102.4 624.0 102.1Q624.4 101.8 624.9 101.7Q625.4 101.6 626.0 101.5L626.0 101.5Q626.7 101.4 627.1 101.4Q627.5 101.3 627.7 101.2Q627.8 101.1 627.8 100.8L627.8 100.8L627.8 100.8Q627.8 100.5 627.7 100.2Q627.6 100.0 627.3 99.9Q627.0 99.8 626.7 99.8L626.7 99.8Q626.3 99.8 626.0 99.9Q625.7 100.0 625.5 100.2Q625.3 100.4 625.2 100.7L625.2 100.7L623.3 100.4Q623.5 99.7 624.0 99.2Q624.4 98.8 625.1 98.5Q625.8 98.3 626.7 98.3L626.7 98.3Q627.3 98.3 627.9 98.4Q628.4 98.6 628.9 98.9Q629.4 99.2 629.6 99.7Q629.9 100.2 629.9 100.9L629.9 100.9L629.9 106L628.0 106L628.0 104.9L627.9 104.9Q627.7 105.3 627.4 105.6Q627.1 105.8 626.7 106.0Q626.2 106.2 625.7 106.2ZM626.2 104.7L626.2 104.7Q626.7 104.7 627.1 104.5Q627.5 104.3 627.7 104.0Q627.9 103.7 627.9 103.3L627.9 103.3L627.9 102.4Q627.8 102.5 627.6 102.6Q627.4 102.6 627.2 102.7Q627.0 102.7 626.7 102.7Q626.5 102.8 626.3 102.8L626.3 102.8Q626.0 102.8 625.7 103.0Q625.4 103.1 625.2 103.3Q625.1 103.5 625.1 103.8L625.1 103.8Q625.1 104.1 625.2 104.3Q625.4 104.5 625.6 104.6Q625.9 104.7 626.2 104.7ZM634.0 106L631.9 106L631.9 98.4L634.0 98.4L634.0 106ZM633.0 97.4L633.0 97.4Q632.5 97.4 632.2 97.1Q631.9 96.7 631.9 96.3L631.9 96.3Q631.9 95.9 632.2 95.6Q632.5 95.3 633.0 95.3L633.0 95.3Q633.4 95.3 633.8 95.6Q634.1 95.9 634.1 96.3L634.1 96.3Q634.1 96.7 633.8 97.1Q633.4 97.4 633.0 97.4ZM636.0 95.8L638.1 95.8L638.1 106L636.0 106L636.0 95.8ZM643.8 106L641.7 106L639.5 98.4L641.6 98.4L642.3 101.2Q642.5 101.9 642.7 102.8L642.7 102.8Q642.8 103.4 642.9 104.1L642.9 104.1Q643.0 103.5 643.2 102.8L643.2 102.8Q643.4 102.0 643.6 101.2L643.6 101.2L644.3 98.4L646.2 98.4L646.8 101.2Q647.0 102.0 647.2 102.8L647.2 102.8Q647.4 103.5 647.5 104.1L647.5 104.1Q647.6 103.5 647.7 102.8L647.7 102.8Q647.9 102.0 648.1 101.2L648.1 101.2L648.8 98.4L650.9 98.4L648.7 106L646.6 106L645.7 103.1Q645.6 102.6 645.5 102.1Q645.4 101.5 645.3 101.0L645.3 101.0Q645.2 100.8 645.2 100.7L645.2 100.7Q645.2 100.8 645.2 101.0L645.2 101.0Q645.0 101.5 644.9 102.1Q644.8 102.6 644.7 103.1L644.7 103.1L643.8 106ZM654.4 106L652.3 106L652.3 98.4L654.4 98.4L654.4 106ZM653.4 97.4L653.4 97.4Q652.9 97.4 652.6 97.1Q652.2 96.7 652.2 96.3L652.2 96.3Q652.2 95.9 652.6 95.6Q652.9 95.3 653.4 95.3L653.4 95.3Q653.8 95.3 654.2 95.6Q654.5 95.9 654.5 96.3L654.5 96.3Q654.5 96.7 654.2 97.1Q653.8 97.4 653.4 97.4ZM658.5 101.6L658.5 101.6L658.5 106L656.4 106L656.4 98.4L658.4 98.4L658.4 99.9Q658.7 99.2 659.2 98.8L659.2 98.8Q659.8 98.3 660.8 98.3L660.8 98.3Q661.6 98.3 662.2 98.6Q662.7 99.0 663.1 99.6Q663.4 100.2 663.4 101.1L663.4 101.1L663.4 106L661.3 106L661.3 101.5Q661.3 100.8 661.0 100.4Q660.6 100.0 660.0 100.0L660.0 100.0Q659.5 100.0 659.2 100.2Q658.9 100.4 658.7 100.7Q658.5 101.1 658.5 101.6ZM668.2 106.1L668.2 106.1Q667.4 106.1 666.7 105.7Q665.9 105.2 665.5 104.3Q665.1 103.5 665.1 102.2L665.1 102.2Q665.1 100.9 665.5 100.0Q666.0 99.1 666.7 98.7Q667.4 98.3 668.2 98.3L668.2 98.3Q668.9 98.3 669.3 98.5Q669.7 98.7 670.0 99.0Q670.3 99.3 670.4 99.6L670.4 99.6L670.5 99.6L670.5 95.8L672.5 95.8L672.5 106L670.5 106L670.5 104.8L670.4 104.8Q670.3 105.1 670.0 105.4Q669.7 105.7 669.3 105.9Q668.9 106.1 668.2 106.1ZM668.9 104.5L668.9 104.5Q669.4 104.5 669.8 104.2Q670.1 103.9 670.3 103.4Q670.5 102.9 670.5 102.2L670.5 102.2Q670.5 101.5 670.3 101.0Q670.1 100.5 669.8 100.2Q669.4 99.9 668.9 99.9L668.9 99.9Q668.3 99.9 668.0 100.2Q667.6 100.5 667.4 101.0Q667.2 101.5 667.2 102.2L667.2 102.2Q667.2 102.9 667.4 103.4Q667.6 103.9 668.0 104.2Q668.3 104.5 668.9 104.5Z M682.7 106.1L682.7 106.1Q681.3 106.1 680.3 105.5Q679.2 104.9 678.6 103.7Q678.0 102.6 678.0 100.9L678.0 100.9Q678.0 99.3 678.6 98.1Q679.2 96.9 680.3 96.3Q681.3 95.7 682.7 95.7L682.7 95.7Q683.6 95.7 684.3 95.9Q685.1 96.2 685.6 96.6Q686.2 97.1 686.6 97.8Q687.0 98.4 687.1 99.3L687.1 99.3L685.0 99.3Q684.9 98.9 684.7 98.6Q684.5 98.2 684.2 98.0Q683.9 97.8 683.5 97.6Q683.2 97.5 682.7 97.5L682.7 97.5Q681.9 97.5 681.3 97.9Q680.7 98.3 680.4 99.1Q680.1 99.8 680.1 100.9L680.1 100.9Q680.1 102.0 680.4 102.8Q680.7 103.5 681.3 103.9Q681.9 104.3 682.7 104.3L682.7 104.3Q683.2 104.3 683.5 104.2Q683.9 104.0 684.2 103.8Q684.5 103.6 684.7 103.3Q684.9 102.9 685.0 102.5L685.0 102.5L687.1 102.5Q687.0 103.2 686.7 103.9Q686.3 104.5 685.8 105.0Q685.2 105.5 684.4 105.8Q683.6 106.1 682.7 106.1ZM692.6 106.2L692.6 106.2Q691.4 106.2 690.5 105.8Q689.6 105.4 689.1 104.7Q688.6 103.9 688.5 102.8L688.5 102.8L690.6 102.8Q690.6 103.4 690.9 103.7Q691.2 104.0 691.6 104.2Q692.0 104.4 692.6 104.4L692.6 104.4Q693.2 104.4 693.6 104.2Q694.0 104.1 694.2 103.8Q694.5 103.5 694.5 103.1L694.5 103.1Q694.5 102.7 694.2 102.5Q694.0 102.3 693.6 102.1Q693.3 101.9 692.7 101.8L692.7 101.8L691.6 101.5Q690.3 101.2 689.6 100.5Q688.8 99.9 688.8 98.7L688.8 98.7Q688.8 97.8 689.3 97.1Q689.8 96.4 690.7 96.1Q691.5 95.7 692.7 95.7L692.7 95.7Q693.8 95.7 694.6 96.1Q695.5 96.5 695.9 97.1Q696.4 97.8 696.4 98.7L696.4 98.7L694.4 98.7Q694.3 98.1 693.9 97.8Q693.4 97.4 692.6 97.4L692.6 97.4Q692.1 97.4 691.7 97.6Q691.4 97.7 691.2 98.0Q691.0 98.3 691.0 98.6L691.0 98.6Q691.0 99.0 691.2 99.2Q691.4 99.5 691.8 99.6Q692.2 99.8 692.6 99.9L692.6 99.9L693.5 100.1Q694.2 100.3 694.7 100.5Q695.3 100.8 695.7 101.1Q696.1 101.5 696.3 102.0Q696.6 102.5 696.6 103.1L696.6 103.1Q696.6 104.0 696.1 104.7Q695.6 105.4 694.7 105.8Q693.9 106.2 692.6 106.2ZM702.1 106.2L702.1 106.2Q700.9 106.2 700.0 105.8Q699.1 105.4 698.5 104.7Q698.0 103.9 698.0 102.8L698.0 102.8L700.0 102.8Q700.1 103.4 700.4 103.7Q700.6 104.0 701.1 104.2Q701.5 104.4 702.1 104.4L702.1 104.4Q702.6 104.4 703.0 104.2Q703.5 104.1 703.7 103.8Q703.9 103.5 703.9 103.1L703.9 103.1Q703.9 102.7 703.7 102.5Q703.5 102.3 703.1 102.1Q702.7 101.9 702.2 101.8L702.2 101.8L701.0 101.5Q699.8 101.2 699.0 100.5Q698.3 99.9 698.3 98.7L698.3 98.7Q698.3 97.8 698.8 97.1Q699.3 96.4 700.1 96.1Q701.0 95.7 702.1 95.7L702.1 95.7Q703.2 95.7 704.1 96.1Q704.9 96.5 705.4 97.1Q705.9 97.8 705.9 98.7L705.9 98.7L703.9 98.7Q703.8 98.1 703.3 97.8Q702.9 97.4 702.1 97.4L702.1 97.4Q701.6 97.4 701.2 97.6Q700.8 97.7 700.6 98.0Q700.4 98.3 700.4 98.6L700.4 98.6Q700.4 99.0 700.7 99.2Q700.9 99.5 701.3 99.6Q701.6 99.8 702.1 99.9L702.1 99.9L703.0 100.1Q703.6 100.3 704.2 100.5Q704.7 100.8 705.1 101.1Q705.6 101.5 705.8 102.0Q706.0 102.5 706.0 103.1L706.0 103.1Q706.0 104.0 705.6 104.7Q705.1 105.4 704.2 105.8Q703.3 106.2 702.1 106.2Z "/></g></svg>