<!-- Generated by readme-aura https://github.com/collectioneur/readme-aura -->
<svg width="800" height="200" viewBox="0 0 800 200" xmlns="http://www.w3.org/2000/svg"><mask id="satori_om-id"><rect x="0" y="0" width="800" height="200" fill="#fff"/></mask><rect x="0" y="0" width="800" height="200" fill="transparent"/><defs><clipPath id="satori_bc-id-0"><path x="0" y="0" width="800" height="200" d="M16,0 h768 a16,16 0 0 1 16,16 v168 a16,16 0 0 1 -16,16 h-768 a16,16 0 0 1 -16,-16 v-168 a16,16 0 0 1 16,-16"/></clipPath></defs><mask id="satori_ms-id-0-0" maskUnits="userSpaceOnUse"><rect x="0" y="0" width="800" height="200" fill="#fff"/><path x="0" y="0" width="800" height="200" fill="#000"  stroke-width="0" d="M16,0 h768 a16,16 0 0 1 16,16 v168 a16,16 0 0 1 -16,16 h-768 a16,16 0 0 1 -16,-16 v-168 a16,16 0 0 1 16,-16"/></mask><defs><filter id="satori_s-id-0-0" x="-28.125%" y="-112.5%" width="156.25%" height="325%"><feGaussianBlur stdDeviation="15" result="b"/><feFlood flood-color="rgba(0,0,0,0.6)" in="SourceGraphic" result="f"/><feComposite in="f" in2="b" operator="in"/></filter></defs><g mask="url(#satori_ms-id-0-0)" filter="url(#satori_s-id-0-0)" opacity="1"><path x="0" y="8" width="800" height="200" fill="#fff" stroke="#fff" stroke-width="0" d="M16,8 h768 a16,16 0 0 1 16,16 v168 a16,16 0 0 1 -16,16 h-768 a16,16 0 0 1 -16,-16 v-168 a16,16 0 0 1 16,-16"/></g><clipPath id="satori_cp-id-0"><path x="0" y="0" width="800" height="200" d="M16,0 h768 a16,16 0 0 1 16,16 v168 a16,16 0 0 1 -16,16 h-768 a16,16 0 0 1 -16,-16 v-168 a16,16 0 0 1 16,-16"/></clipPath><mask id="satori_om-id-0"><rect x="1" y="1" width="798" height="198" fill="#fff"/><path width="800" height="200" fill="none" stroke="#000" stroke-width="2" d="M4.686,4.686 A16,16 0 0 1 16,0 h768 a16,16 0 0 1 16,16 v168 a16,16 0 0 1 -16,16 h-768 a16,16 0 0 1 -16,-16 v-168 A16,16 0 0 1 4.686,4.686"/></mask><path x="0" y="0" width="800" height="200" fill="#060608" d="M16,0 h768 a16,16 0 0 1 16,16 v168 a16,16 0 0 1 -16,16 h-768 a16,16 0 0 1 -16,-16 v-168 a16,16 0 0 1 16,-16"/><path width="800" height="200" clip-path="url(#satori_bc-id-0)" fill="none" stroke="rgba(110, 80, 200, 0.25)" stroke-width="2" d="M4.686,4.686 A16,16 0 0 1 16,0 h768 a16,16 0 0 1 16,16 v168 a16,16 0 0 1 -16,16 h-768 a16,16 0 0 1 -16,-16 v-168 A16,16 0 0 1 4.686,4.686"/><defs><pattern id="satori_pattern_id-0-0_0" x="0" y="0" width="1" height="1" patternUnits="objectBoundingBox"><radialGradient id="satori_radial_id-0-0_0" spreadMethod="pad"><stop offset="0" stop-color="rgba(0, 110, 255, 0.6)"/><stop offset="0.5" stop-color="rgba(120, 40, 255, 0.3)"/><stop offset="0.7" stop-color="transparent"/><stop offset="1" stop-color="transparent"/></radialGradient><mask id="satori_mask_id-0-0_0"><rect x="0" y="0" width="450" height="180" fill="#fff"/></mask><rect x="0" y="0" width="450" height="180" fill="transparent"/><ellipse cx="225" cy="90" width="450" height="180" ry="127.27922061357856" rx="318.1980515339464" fill="url(#satori_radial_id-0-0_0)" mask="url(#satori_mask_id-0-0_0)"/></pattern></defs><mask id="satori_om-id-0-0"><rect x="269" y="69" width="450" height="180" fill="#fff" mask="url(#satori_om-id-0)"/></mask><rect x="269" y="69" width="450" height="180" fill="url(#satori_pattern_id-0-0_0)" clip-path="url(#satori_cp-id-0)" style="filter:blur(25px)" mask="url(#satori_om-id-0)"/><defs><pattern id="satori_pattern_id-0-1_0" x="0" y="0" width="1" height="1" patternUnits="objectBoundingBox"><radialGradient id="satori_radial_id-0-1_0" spreadMethod="pad"><stop offset="0" stop-color="rgba(255, 80, 150, 0.25)"/><stop offset="0.7" stop-color="transparent"/><stop offset="1" stop-color="transparent"/></radialGradient><mask id="satori_mask_id-0-1_0"><rect x="0" y="0" width="250" height="120" fill="#fff"/></mask><rect x="0" y="0" width="250" height="120" fill="transparent"/><ellipse cx="125" cy="60" width="250" height="120" ry="84.8528137423857" rx="176.7766952966369" fill="url(#satori_radial_id-0-1_0)" mask="url(#satori_mask_id-0-1_0)"/></pattern></defs><mask id="satori_om-id-0-1"><rect x="569" y="99" width="250" height="120" fill="#fff" mask="url(#satori_om-id-0)"/></mask><rect x="569" y="99" width="250" height="120" fill="url(#satori_pattern_id-0-1_0)" clip-path="url(#satori_cp-id-0)" style="filter:blur(15px)" mask="url(#satori_om-id-0)"/><mask id="satori_om-id-0-2"><rect x="84" y="83" width="633" height="34" fill="#fff" mask="url(#satori_om-id-0)"/></mask><defs><clipPath id="satori_bc-id-0-2-0" clip-path="url(#satori_cp-id-0)"><path x="104" y="83" width="116" height="34" d="M112,83 h100 a8,8 0 0 1 8,8 v18 a8,8 0 0 1 -8,8 h-100 a8,8 0 0 1 -8,-8 v-18 a8,8 0 0 1 8,-8"/></clipPath></defs><mask id="satori_om-id-0-2-0"><rect x="105" y="84" width="114" height="32" fill="#fff" mask="url(#satori_om-id-0)"/><path width="116" height="34" fill="none" stroke="#000" stroke-width="2" d="M106.343,85.343 A8,8 0 0 1 112,83 h100 a8,8 0 0 1 8,8 v18 a8,8 0 0 1 -8,8 h-100 a8,8 0 0 1 -8,-8 v-18 A8,8 0 0 1 106.343,85.343"/></mask><path x="104" y="83" width="116" height="34" fill="rgba(0,0,0,0.4)" d="M112,83 h100 a8,8 0 0 1 8,8 v18 a8,8 0 0 1 -8,8 h-100 a8,8 0 0 1 -8,-8 v-18 a8,8 0 0 1 8,-8" clip-path="url(#satori_cp-id-0)" mask="url(#satori_om-id-0)"/><path width="116" height="34" clip-path="url(#satori_bc-id-0-2-0)" fill="none" stroke="rgba(110, 80, 200, 0.5)" stroke-width="2" d="M106.343,85.343 A8,8 0 0 1 112,83 h100 a8,8 0 0 1 8,8 v18 a8,8 0 0 1 -8,8 h-100 a8,8 0 0 1 -8,-8 v-18 A8,8 0 0 1 106.343,85.343"/><g mask="url(#satori_om-id-0)" clip-path="url(#satori_cp-id-0)"><path fill="#8bcefa" d="M128.4 97.1L125.5 97.1L125.5 95.5L133.2 95.5L133.2 97.1L130.3 97.1L130.3 105L128.4 105L128.4 97.1ZM134.7 107.5L134.7 107.5L135.2 106.1L135.4 106.1Q135.8 106.2 136.1 106.2Q136.4 106.1 136.6 106.0Q136.8 105.8 136.8 105.4L136.8 105.4L136.8 105.0L134.2 97.9L136.2 97.9L137.4 101.6Q137.6 102.3 137.7 103.0L137.7 103.0Q137.8 103.2 137.8 103.5L137.8 103.5Q137.9 103.2 138.0 103.0L138.0 103.0Q138.1 102.3 138.4 101.6L138.4 101.6L139.6 97.9L141.6 97.9L138.6 105.8Q138.4 106.4 138.0 106.8Q137.7 107.2 137.2 107.5Q136.7 107.7 136.0 107.7L136.0 107.7Q135.6 107.7 135.3 107.7Q134.9 107.6 134.7 107.5ZM144.8 107.7L142.9 107.7L142.9 97.9L144.8 97.9L144.8 99.1L144.9 99.1Q145.0 98.8 145.3 98.5Q145.5 98.2 145.9 98.0Q146.3 97.8 146.9 97.8L146.9 97.8Q147.7 97.8 148.3 98.2Q149.0 98.6 149.4 99.4Q149.8 100.3 149.8 101.5L149.8 101.5Q149.8 102.6 149.4 103.5Q149.0 104.3 148.4 104.7Q147.7 105.1 146.9 105.1L146.9 105.1Q146.3 105.1 145.9 104.9Q145.5 104.7 145.3 104.4Q145.0 104.1 144.9 103.9L144.9 103.9L144.8 103.9L144.8 107.7ZM146.3 103.6L146.3 103.6Q146.8 103.6 147.1 103.3Q147.5 103.0 147.7 102.6Q147.8 102.1 147.8 101.5L147.8 101.5Q147.8 100.8 147.7 100.4Q147.5 99.9 147.1 99.6Q146.8 99.3 146.3 99.3L146.3 99.3Q145.8 99.3 145.5 99.6Q145.1 99.9 145.0 100.3Q144.8 100.8 144.8 101.5L144.8 101.5Q144.8 102.1 145.0 102.6Q145.1 103.1 145.5 103.3Q145.8 103.6 146.3 103.6ZM154.6 105.1L154.6 105.1Q153.5 105.1 152.7 104.7Q152.0 104.3 151.5 103.4Q151.1 102.6 151.1 101.5L151.1 101.5Q151.1 100.4 151.5 99.6Q152.0 98.7 152.7 98.3Q153.5 97.8 154.5 97.8L154.5 97.8Q155.2 97.8 155.8 98.0Q156.4 98.3 156.9 98.7Q157.3 99.2 157.6 99.8Q157.9 100.5 157.9 101.4L157.9 101.4L157.9 101.9L153.0 101.9Q153.0 102.5 153.2 102.9L153.2 102.9Q153.4 103.3 153.8 103.5Q154.2 103.7 154.6 103.7L154.6 103.7Q155.0 103.7 155.3 103.6Q155.5 103.5 155.7 103.3Q155.9 103.1 156.0 102.9L156.0 102.9L157.7 103.2Q157.6 103.8 157.1 104.2Q156.7 104.7 156.1 104.9Q155.4 105.1 154.6 105.1ZM153.0 100.8L153.0 100.8L156.0 100.8Q156.0 100.4 155.9 100.1L155.9 100.1Q155.7 99.7 155.4 99.5Q155.0 99.2 154.5 99.2L154.5 99.2Q154.0 99.2 153.7 99.5Q153.4 99.7 153.2 100.1L153.2 100.1Q153.0 100.4 153.0 100.8ZM163.0 105.1L163.0 105.1Q161.8 105.1 161.0 104.8Q160.1 104.4 159.7 103.8Q159.2 103.1 159.2 102.1L159.2 102.1L161.1 102.1Q161.1 102.5 161.4 102.9Q161.6 103.2 162.0 103.3Q162.4 103.5 162.9 103.5L162.9 103.5Q163.5 103.5 163.9 103.4Q164.2 103.2 164.5 102.9Q164.7 102.7 164.7 102.3L164.7 102.3Q164.7 102.0 164.5 101.8Q164.3 101.5 163.9 101.4Q163.6 101.2 163.0 101.1L163.0 101.1L162.0 100.8Q160.8 100.5 160.1 99.9Q159.4 99.3 159.4 98.3L159.4 98.3Q159.4 97.4 159.9 96.8Q160.4 96.1 161.2 95.8Q162.0 95.4 163.0 95.4L163.0 95.4Q164.0 95.4 164.8 95.8Q165.6 96.1 166.0 96.8Q166.5 97.4 166.5 98.2L166.5 98.2L164.6 98.2Q164.6 97.7 164.1 97.4Q163.7 97.0 163.0 97.0L163.0 97.0Q162.5 97.0 162.1 97.2Q161.8 97.3 161.6 97.6Q161.4 97.8 161.4 98.1L161.4 98.1Q161.4 98.5 161.6 98.7Q161.8 99.0 162.2 99.1Q162.5 99.2 162.9 99.3L162.9 99.3L163.8 99.5Q164.4 99.7 164.9 99.9Q165.4 100.1 165.8 100.5Q166.2 100.8 166.4 101.3Q166.6 101.7 166.6 102.3L166.6 102.3Q166.6 103.2 166.2 103.8Q165.8 104.4 164.9 104.8Q164.1 105.1 163.0 105.1ZM171.4 105.1L171.4 105.1Q170.4 105.1 169.6 104.7Q168.8 104.2 168.4 103.4Q168.0 102.6 168.0 101.5L168.0 101.5Q168.0 100.4 168.4 99.6Q168.8 98.7 169.6 98.3Q170.4 97.8 171.4 97.8L171.4 97.8Q172.1 97.8 172.6 98.0Q173.1 98.1 173.5 98.4Q174.0 98.8 174.2 99.2Q174.5 99.6 174.6 100.2L174.6 100.2L172.8 100.5Q172.8 100.2 172.6 100.0Q172.5 99.8 172.4 99.6Q172.2 99.5 172.0 99.4Q171.7 99.3 171.5 99.3L171.5 99.3Q171.0 99.3 170.6 99.6Q170.3 99.9 170.1 100.3Q169.9 100.8 169.9 101.5L169.9 101.5Q169.9 102.1 170.1 102.6Q170.3 103.1 170.6 103.4Q171.0 103.6 171.5 103.6L171.5 103.6Q171.7 103.6 172.0 103.6Q172.2 103.5 172.4 103.3Q172.5 103.1 172.7 102.9Q172.8 102.7 172.8 102.4L172.8 102.4L174.6 102.7Q174.5 103.3 174.2 103.7Q174.0 104.2 173.6 104.5Q173.1 104.8 172.6 105.0Q172.1 105.1 171.4 105.1ZM178.1 105L176.2 105L176.2 97.9L178.1 97.9L178.1 99.1L178.1 99.1Q178.3 98.5 178.8 98.1Q179.3 97.8 179.8 97.8L179.8 97.8Q180.0 97.8 180.2 97.8Q180.3 97.8 180.5 97.9L180.5 97.9L180.5 99.6Q180.3 99.5 180.1 99.5Q179.9 99.5 179.6 99.5L179.6 99.5Q179.2 99.5 178.9 99.7Q178.5 99.9 178.3 100.2Q178.1 100.5 178.1 101.0L178.1 101.0L178.1 105ZM183.7 105L181.8 105L181.8 97.9L183.7 97.9L183.7 105ZM182.8 97.0L182.8 97.0Q182.3 97.0 182.0 96.7Q181.7 96.4 181.7 96.0L181.7 96.0Q181.7 95.6 182.0 95.3Q182.3 95.0 182.8 95.0L182.8 95.0Q183.2 95.0 183.5 95.3Q183.8 95.6 183.8 96.0L183.8 96.0Q183.8 96.4 183.5 96.7Q183.2 97.0 182.8 97.0ZM187.5 107.7L185.6 107.7L185.6 97.9L187.5 97.9L187.5 99.1L187.6 99.1Q187.7 98.8 188.0 98.5Q188.2 98.2 188.6 98.0Q189.0 97.8 189.6 97.8L189.6 97.8Q190.4 97.8 191.1 98.2Q191.7 98.6 192.1 99.4Q192.5 100.3 192.5 101.5L192.5 101.5Q192.5 102.6 192.1 103.5Q191.7 104.3 191.1 104.7Q190.4 105.1 189.6 105.1L189.6 105.1Q189.0 105.1 188.6 104.9Q188.2 104.7 188.0 104.4Q187.7 104.1 187.6 103.9L187.6 103.9L187.5 103.9L187.5 107.7ZM189.0 103.6L189.0 103.6Q189.5 103.6 189.9 103.3Q190.2 103.0 190.4 102.6Q190.5 102.1 190.5 101.5L190.5 101.5Q190.5 100.8 190.4 100.4Q190.2 99.9 189.9 99.6Q189.5 99.3 189.0 99.3L189.0 99.3Q188.5 99.3 188.2 99.6Q187.8 99.9 187.7 100.3Q187.5 100.8 187.5 101.5L187.5 101.5Q187.5 102.1 187.7 102.6Q187.9 103.1 188.2 103.3Q188.5 103.6 189.0 103.6ZM196.3 97.9L197.7 97.9L197.7 99.4L196.3 99.4L196.3 102.9Q196.3 103.3 196.5 103.4Q196.6 103.6 197.0 103.6L197.0 103.6Q197.1 103.6 197.3 103.6Q197.5 103.5 197.6 103.5L197.6 103.5L197.8 104.9Q197.5 105.0 197.2 105.1Q196.9 105.1 196.6 105.1L196.6 105.1Q195.6 105.1 195.0 104.6Q194.4 104.1 194.4 103.1L194.4 103.1L194.4 99.4L193.4 99.4L193.4 97.9L194.4 97.9L194.4 96.2L196.3 96.2L196.3 97.9Z "/></g><defs><clipPath id="satori_bc-id-0-2-1" clip-path="url(#satori_cp-id-0)"><path x="234" y="83" width="91" height="34" d="M242,83 h75 a8,8 0 0 1 8,8 v18 a8,8 0 0 1 -8,8 h-75 a8,8 0 0 1 -8,-8 v-18 a8,8 0 0 1 8,-8"/></clipPath></defs><mask id="satori_om-id-0-2-1"><rect x="235" y="84" width="89" height="32" fill="#fff" mask="url(#satori_om-id-0)"/><path width="91" height="34" fill="none" stroke="#000" stroke-width="2" d="M236.343,85.343 A8,8 0 0 1 242,83 h75 a8,8 0 0 1 8,8 v18 a8,8 0 0 1 -8,8 h-75 a8,8 0 0 1 -8,-8 v-18 A8,8 0 0 1 236.343,85.343"/></mask><path x="234" y="83" width="91" height="34" fill="rgba(0,0,0,0.4)" d="M242,83 h75 a8,8 0 0 1 8,8 v18 a8,8 0 0 1 -8,8 h-75 a8,8 0 0 1 -8,-8 v-18 a8,8 0 0 1 8,-8" clip-path="url(#satori_cp-id-0)" mask="url(#satori_om-id-0)"/><path width="91" height="34" clip-path="url(#satori_bc-id-0-2-1)" fill="none" stroke="rgba(110, 80, 200, 0.5)" stroke-width="2" d="M236.343,85.343 A8,8 0 0 1 242,83 h75 a8,8 0 0 1 8,8 v18 a8,8 0 0 1 -8,8 h-75 a8,8 0 0 1 -8,-8 v-18 A8,8 0 0 1 236.343,85.343"/><g mask="url(#satori_om-id-0)" clip-path="url(#satori_cp-id-0)"><path fill="#7ae28d" d="M261.9 105L255.9 105L255.9 95.5L257.8 95.5L257.8 103.4L261.9 103.4L261.9 105ZM265.4 105.1L265.4 105.1Q264.8 105.1 264.2 104.9Q263.7 104.7 263.4 104.2Q263.1 103.7 263.1 103.0L263.1 103.0Q263.1 102.4 263.3 102.0Q263.5 101.6 263.9 101.4Q264.3 101.1 264.8 101.0Q265.2 100.9 265.8 100.8L265.8 100.8Q266.4 100.8 266.8 100.7Q267.1 100.7 267.3 100.5Q267.5 100.4 267.5 100.2L267.5 100.2L267.5 100.2Q267.5 99.9 267.4 99.7Q267.2 99.4 267.0 99.3Q266.7 99.2 266.4 99.2L266.4 99.2Q266.0 99.2 265.7 99.3Q265.5 99.4 265.3 99.6Q265.1 99.8 265.0 100.0L265.0 100.0L263.3 99.8Q263.5 99.1 263.9 98.7Q264.3 98.3 265.0 98.0Q265.6 97.8 266.4 97.8L266.4 97.8Q266.9 97.8 267.5 98.0Q268.0 98.1 268.5 98.4Q268.9 98.7 269.1 99.1Q269.4 99.6 269.4 100.2L269.4 100.2L269.4 105L267.6 105L267.6 104.0L267.5 104.0Q267.3 104.3 267.1 104.6Q266.8 104.8 266.4 105.0Q266.0 105.1 265.4 105.1ZM266.0 103.8L266.0 103.8Q266.4 103.8 266.8 103.6Q267.1 103.4 267.3 103.1Q267.5 102.8 267.5 102.5L267.5 102.5L267.5 101.7Q267.4 101.8 267.2 101.8Q267.1 101.9 266.9 101.9Q266.6 101.9 266.4 102.0Q266.2 102.0 266.1 102.0L266.1 102.0Q265.7 102.1 265.5 102.2Q265.2 102.3 265.1 102.5Q264.9 102.7 264.9 103.0L264.9 103.0Q264.9 103.2 265.1 103.4Q265.2 103.6 265.4 103.7Q265.7 103.8 266.0 103.8ZM273.2 105L271.3 105L271.3 97.9L273.2 97.9L273.2 99.1L273.2 99.1Q273.4 98.5 273.9 98.1Q274.3 97.8 274.9 97.8L274.9 97.8Q275.1 97.8 275.3 97.8Q275.4 97.8 275.6 97.9L275.6 97.9L275.6 99.6Q275.4 99.5 275.2 99.5Q274.9 99.5 274.7 99.5L274.7 99.5Q274.3 99.5 274.0 99.7Q273.6 99.9 273.4 100.2Q273.2 100.5 273.2 101.0L273.2 101.0L273.2 105ZM278.9 105.1L278.9 105.1Q278.2 105.1 277.7 104.9Q277.1 104.7 276.8 104.2Q276.5 103.7 276.5 103.0L276.5 103.0Q276.5 102.4 276.7 102.0Q277.0 101.6 277.3 101.4Q277.7 101.1 278.2 101.0Q278.7 100.9 279.2 100.8L279.2 100.8Q279.8 100.8 280.2 100.7Q280.6 100.7 280.7 100.5Q280.9 100.4 280.9 100.2L280.9 100.2L280.9 100.2Q280.9 99.9 280.8 99.7Q280.7 99.4 280.4 99.3Q280.2 99.2 279.8 99.2L279.8 99.2Q279.4 99.2 279.2 99.3Q278.9 99.4 278.7 99.6Q278.6 99.8 278.5 100.0L278.5 100.0L276.7 99.8Q276.9 99.1 277.3 98.7Q277.8 98.3 278.4 98.0Q279.0 97.8 279.8 97.8L279.8 97.8Q280.4 97.8 280.9 98.0Q281.5 98.1 281.9 98.4Q282.3 98.7 282.6 99.1Q282.8 99.6 282.8 100.2L282.8 100.2L282.8 105L281.0 105L281.0 104.0L281.0 104.0Q280.8 104.3 280.5 104.6Q280.2 104.8 279.8 105.0Q279.4 105.1 278.9 105.1ZM279.4 103.8L279.4 103.8Q279.9 103.8 280.2 103.6Q280.6 103.4 280.7 103.1Q280.9 102.8 280.9 102.5L280.9 102.5L280.9 101.7Q280.9 101.8 280.7 101.8Q280.5 101.9 280.3 101.9Q280.1 101.9 279.9 102.0Q279.7 102.0 279.5 102.0L279.5 102.0Q279.2 102.1 278.9 102.2Q278.6 102.3 278.5 102.5Q278.4 102.7 278.4 103.0L278.4 103.0Q278.4 103.2 278.5 103.4Q278.6 103.6 278.9 103.7Q279.1 103.8 279.4 103.8ZM288.9 105L286.8 105L284.1 97.9L286.2 97.9L287.4 101.6Q287.6 102.3 287.7 103.0L287.7 103.0Q287.8 103.3 287.9 103.5L287.9 103.5Q287.9 103.3 288.0 103.0L288.0 103.0Q288.1 102.3 288.4 101.6L288.4 101.6L289.5 97.9L291.5 97.9L288.9 105ZM296.1 105.1L296.1 105.1Q295.0 105.1 294.2 104.7Q293.4 104.3 293.0 103.4Q292.5 102.6 292.5 101.5L292.5 101.5Q292.5 100.4 293.0 99.6Q293.4 98.7 294.2 98.3Q294.9 97.8 296.0 97.8L296.0 97.8Q296.7 97.8 297.3 98.0Q297.9 98.3 298.3 98.7Q298.8 99.2 299.0 99.8Q299.3 100.5 299.3 101.4L299.3 101.4L299.3 101.9L294.4 101.9Q294.5 102.5 294.6 102.9L294.6 102.9Q294.8 103.3 295.2 103.5Q295.6 103.7 296.1 103.7L296.1 103.7Q296.4 103.7 296.7 103.6Q297.0 103.5 297.2 103.3Q297.4 103.1 297.5 102.9L297.5 102.9L299.2 103.2Q299.0 103.8 298.6 104.2Q298.2 104.7 297.5 104.9Q296.9 105.1 296.1 105.1ZM294.4 100.8L294.4 100.8L297.5 100.8Q297.4 100.4 297.3 100.1L297.3 100.1Q297.1 99.7 296.8 99.5Q296.5 99.2 296.0 99.2L296.0 99.2Q295.5 99.2 295.1 99.5Q294.8 99.7 294.6 100.1L294.6 100.1Q294.5 100.4 294.4 100.8ZM300.9 95.5L302.8 95.5L302.8 105L300.9 105L300.9 95.5Z "/></g><defs><clipPath id="satori_bc-id-0-2-2" clip-path="url(#satori_cp-id-0)"><path x="339" y="83" width="90" height="34" d="M347,83 h74 a8,8 0 0 1 8,8 v18 a8,8 0 0 1 -8,8 h-74 a8,8 0 0 1 -8,-8 v-18 a8,8 0 0 1 8,-8"/></clipPath></defs><mask id="satori_om-id-0-2-2"><rect x="340" y="84" width="88" height="32" fill="#fff" mask="url(#satori_om-id-0)"/><path width="90" height="34" fill="none" stroke="#000" stroke-width="2" d="M341.343,85.343 A8,8 0 0 1 347,83 h74 a8,8 0 0 1 8,8 v18 a8,8 0 0 1 -8,8 h-74 a8,8 0 0 1 -8,-8 v-18 A8,8 0 0 1 341.343,85.343"/></mask><path x="339" y="83" width="90" height="34" fill="rgba(0,0,0,0.4)" d="M347,83 h74 a8,8 0 0 1 8,8 v18 a8,8 0 0 1 -8,8 h-74 a8,8 0 0 1 -8,-8 v-18 a8,8 0 0 1 8,-8" clip-path="url(#satori_cp-id-0)" mask="url(#satori_om-id-0)"/><path width="90" height="34" clip-path="url(#satori_bc-id-0-2-2)" fill="none" stroke="rgba(110, 80, 200, 0.5)" stroke-width="2" d="M341.343,85.343 A8,8 0 0 1 347,83 h74 a8,8 0 0 1 8,8 v18 a8,8 0 0 1 -8,8 h-74 a8,8 0 0 1 -8,-8 v-18 A8,8 0 0 1 341.343,85.343"/><g mask="url(#satori_om-id-0)" clip-path="url(#satori_cp-id-0)"><path fill="#e8b0ff" d="M362.8 105L360.9 105L360.9 95.5L363.0 95.5L366.0 100.3Q366.2 100.7 366.5 101.1Q366.7 101.6 367.0 102.1L367.0 102.1Q367.1 102.3 367.2 102.6L367.2 102.6Q367.2 102.4 367.2 102.1L367.2 102.1Q367.1 101.6 367.1 101.0Q367.1 100.5 367.1 100.1L367.1 100.1L367.1 95.5L369.1 95.5L369.1 105L366.9 105L364.2 100.7Q363.9 100.2 363.6 99.7Q363.4 99.2 363.1 98.7L363.1 98.7Q362.9 98.4 362.7 97.9L362.7 97.9Q362.7 98.3 362.8 98.7L362.8 98.7Q362.8 99.3 362.8 99.8Q362.8 100.3 362.8 100.7L362.8 100.7L362.8 105ZM374.2 105.1L374.2 105.1Q373.1 105.1 372.4 104.7Q371.6 104.3 371.1 103.4Q370.7 102.6 370.7 101.5L370.7 101.5Q370.7 100.4 371.1 99.6Q371.6 98.7 372.3 98.3Q373.1 97.8 374.1 97.8L374.1 97.8Q374.8 97.8 375.4 98.0Q376.0 98.3 376.5 98.7Q376.9 99.2 377.2 99.8Q377.5 100.5 377.5 101.4L377.5 101.4L377.5 101.9L372.6 101.9Q372.6 102.5 372.8 102.9L372.8 102.9Q373.0 103.3 373.4 103.5Q373.8 103.7 374.3 103.7L374.3 103.7Q374.6 103.7 374.9 103.6Q375.1 103.5 375.3 103.3Q375.5 103.1 375.6 102.9L375.6 102.9L377.4 103.2Q377.2 103.8 376.8 104.2Q376.3 104.7 375.7 104.9Q375.1 105.1 374.2 105.1ZM372.6 100.8L372.6 100.8L375.6 100.8Q375.6 100.4 375.5 100.1L375.5 100.1Q375.3 99.7 375.0 99.5Q374.6 99.2 374.2 99.2L374.2 99.2Q373.7 99.2 373.3 99.5Q373.0 99.7 372.8 100.1L372.8 100.1Q372.7 100.4 372.6 100.8ZM380.5 105L378.5 105L380.8 101.4L378.7 97.9L380.7 97.9L381.4 99.0Q381.7 99.6 381.9 100.1L381.9 100.1Q382.0 100.3 382.0 100.4L382.0 100.4Q382.1 100.3 382.2 100.1L382.2 100.1Q382.4 99.6 382.7 99.0L382.7 99.0L383.4 97.9L385.4 97.9L383.2 101.4L385.5 105L383.5 105L382.7 103.7Q382.4 103.1 382.1 102.6L382.1 102.6Q382.1 102.4 382.0 102.3L382.0 102.3Q381.9 102.4 381.9 102.6L381.9 102.6Q381.6 103.1 381.3 103.7L381.3 103.7L380.5 105ZM389.1 97.9L390.4 97.9L390.4 99.4L389.1 99.4L389.1 102.9Q389.1 103.3 389.3 103.4Q389.4 103.6 389.8 103.6L389.8 103.6Q389.9 103.6 390.1 103.6Q390.3 103.5 390.4 103.5L390.4 103.5L390.6 104.9Q390.3 105.0 390.0 105.1Q389.7 105.1 389.4 105.1L389.4 105.1Q388.3 105.1 387.8 104.6Q387.2 104.1 387.2 103.1L387.2 103.1L387.2 99.4L386.2 99.4L386.2 97.9L387.2 97.9L387.2 96.2L389.1 96.2L389.1 97.9ZM393.3 105.1L393.3 105.1Q392.9 105.1 392.5 104.8Q392.2 104.5 392.2 104.0L392.2 104.0Q392.2 103.6 392.5 103.3Q392.9 102.9 393.3 102.9L393.3 102.9Q393.8 102.9 394.1 103.3Q394.4 103.6 394.4 104.0L394.4 104.0Q394.4 104.5 394.1 104.8Q393.8 105.1 393.3 105.1ZM396.6 105.3L396.6 97.9L398.5 97.9L398.5 105.4Q398.5 106.2 398.2 106.7Q397.9 107.2 397.3 107.4Q396.7 107.7 395.9 107.7L395.9 107.7L395.5 107.7L395.5 106.2L395.7 106.2Q396.2 106.2 396.4 105.9Q396.6 105.7 396.6 105.3L396.6 105.3ZM397.6 97.0L397.6 97.0Q397.1 97.0 396.8 96.7Q396.5 96.4 396.5 96.0L396.5 96.0Q396.5 95.6 396.8 95.3Q397.1 95.0 397.6 95.0L397.6 95.0Q398.0 95.0 398.3 95.3Q398.6 95.6 398.6 96.0L398.6 96.0Q398.6 96.4 398.3 96.7Q398.0 97.0 397.6 97.0ZM403.3 105.1L403.3 105.1Q402.4 105.1 401.7 104.9Q401.1 104.7 400.7 104.2Q400.2 103.7 400.1 103.1L400.1 103.1L401.9 102.8Q402.0 103.2 402.4 103.5Q402.7 103.7 403.3 103.7L403.3 103.7Q403.9 103.7 404.2 103.5Q404.5 103.3 404.5 103.0L404.5 103.0Q404.5 102.7 404.3 102.6Q404.0 102.4 403.6 102.3L403.6 102.3L402.3 102.0Q401.3 101.8 400.8 101.3Q400.3 100.8 400.3 100.0L400.3 100.0Q400.3 99.3 400.7 98.8Q401.0 98.3 401.7 98.1Q402.4 97.8 403.3 97.8L403.3 97.8Q404.1 97.8 404.7 98.0Q405.4 98.3 405.7 98.7Q406.1 99.1 406.2 99.7L406.2 99.7L404.6 100.0Q404.4 99.6 404.1 99.4Q403.8 99.2 403.3 99.2L403.3 99.2Q402.8 99.2 402.5 99.4Q402.2 99.6 402.2 99.9L402.2 99.9Q402.2 100.2 402.4 100.4Q402.6 100.5 403.1 100.6L403.1 100.6L404.4 100.9Q405.4 101.1 405.9 101.6Q406.4 102.0 406.4 102.8L406.4 102.8Q406.4 103.5 406.0 104.0Q405.6 104.6 404.9 104.8Q404.2 105.1 403.3 105.1Z "/></g><defs><clipPath id="satori_bc-id-0-2-3" clip-path="url(#satori_cp-id-0)"><path x="443" y="83" width="110" height="34" d="M451,83 h94 a8,8 0 0 1 8,8 v18 a8,8 0 0 1 -8,8 h-94 a8,8 0 0 1 -8,-8 v-18 a8,8 0 0 1 8,-8"/></clipPath></defs><mask id="satori_om-id-0-2-3"><rect x="444" y="84" width="108" height="32" fill="#fff" mask="url(#satori_om-id-0)"/><path width="110" height="34" fill="none" stroke="#000" stroke-width="2" d="M445.343,85.343 A8,8 0 0 1 451,83 h94 a8,8 0 0 1 8,8 v18 a8,8 0 0 1 -8,8 h-94 a8,8 0 0 1 -8,-8 v-18 A8,8 0 0 1 445.343,85.343"/></mask><path x="443" y="83" width="110" height="34" fill="rgba(0,0,0,0.4)" d="M451,83 h94 a8,8 0 0 1 8,8 v18 a8,8 0 0 1 -8,8 h-94 a8,8 0 0 1 -8,-8 v-18 a8,8 0 0 1 8,-8" clip-path="url(#satori_cp-id-0)" mask="url(#satori_om-id-0)"/><path width="110" height="34" clip-path="url(#satori_bc-id-0-2-3)" fill="none" stroke="rgba(110, 80, 200, 0.5)" stroke-width="2" d="M445.343,85.343 A8,8 0 0 1 451,83 h94 a8,8 0 0 1 8,8 v18 a8,8 0 0 1 -8,8 h-94 a8,8 0 0 1 -8,-8 v-18 A8,8 0 0 1 445.343,85.343"/><g mask="url(#satori_om-id-0)" clip-path="url(#satori_cp-id-0)"><path fill="#6bf0ff" d="M466.8 105L464.9 105L464.9 95.5L468.5 95.5Q469.6 95.5 470.4 95.9Q471.1 96.3 471.5 97.0Q471.9 97.7 471.9 98.6Q471.9 99.6 471.5 100.2Q471.1 100.9 470.4 101.3L470.4 101.3Q470.3 101.3 470.3 101.3L470.3 101.3L472.3 105L470.1 105L468.3 101.6L466.8 101.6L466.8 105ZM466.8 97.1L466.8 100.1L468.2 100.1Q468.8 100.1 469.2 99.9Q469.5 99.7 469.7 99.4Q469.9 99.1 469.9 98.6L469.9 98.6Q469.9 98.1 469.7 97.8Q469.5 97.5 469.2 97.3Q468.8 97.1 468.2 97.1L468.2 97.1L466.8 97.1ZM476.9 105.1L476.9 105.1Q475.8 105.1 475.0 104.7Q474.2 104.3 473.8 103.4Q473.4 102.6 473.4 101.5L473.4 101.5Q473.4 100.4 473.8 99.6Q474.2 98.7 475.0 98.3Q475.7 97.8 476.8 97.8L476.8 97.8Q477.5 97.8 478.1 98.0Q478.7 98.3 479.1 98.7Q479.6 99.2 479.8 99.8Q480.1 100.5 480.1 101.4L480.1 101.4L480.1 101.9L475.2 101.9Q475.3 102.5 475.4 102.9L475.4 102.9Q475.6 103.3 476.0 103.5Q476.4 103.7 476.9 103.7L476.9 103.7Q477.2 103.7 477.5 103.6Q477.8 103.5 478.0 103.3Q478.2 103.1 478.3 102.9L478.3 102.9L480.0 103.2Q479.8 103.8 479.4 104.2Q479.0 104.7 478.3 104.9Q477.7 105.1 476.9 105.1ZM475.2 100.8L475.2 100.8L478.3 100.8Q478.2 100.4 478.1 100.1L478.1 100.1Q477.9 99.7 477.6 99.5Q477.3 99.2 476.8 99.2L476.8 99.2Q476.3 99.2 475.9 99.5Q475.6 99.7 475.4 100.1L475.4 100.1Q475.3 100.4 475.2 100.8ZM483.7 105.1L483.7 105.1Q483.0 105.1 482.5 104.9Q481.9 104.7 481.6 104.2Q481.3 103.7 481.3 103.0L481.3 103.0Q481.3 102.4 481.5 102.0Q481.8 101.6 482.1 101.4Q482.5 101.1 483.0 101.0Q483.5 100.9 484.0 100.8L484.0 100.8Q484.6 100.8 485.0 100.7Q485.4 100.7 485.5 100.5Q485.7 100.4 485.7 100.2L485.7 100.2L485.7 100.2Q485.7 99.9 485.6 99.7Q485.5 99.4 485.2 99.3Q485.0 99.2 484.6 99.2L484.6 99.2Q484.2 99.2 484.0 99.3Q483.7 99.4 483.5 99.6Q483.3 99.8 483.3 100.0L483.3 100.0L481.5 99.8Q481.7 99.1 482.1 98.7Q482.6 98.3 483.2 98.0Q483.8 97.8 484.6 97.8L484.6 97.8Q485.2 97.8 485.7 98.0Q486.3 98.1 486.7 98.4Q487.1 98.7 487.4 99.1Q487.6 99.6 487.6 100.2L487.6 100.2L487.6 105L485.8 105L485.8 104.0L485.8 104.0Q485.6 104.3 485.3 104.6Q485.0 104.8 484.6 105.0Q484.2 105.1 483.7 105.1ZM484.2 103.8L484.2 103.8Q484.7 103.8 485.0 103.6Q485.3 103.4 485.5 103.1Q485.7 102.8 485.7 102.5L485.7 102.5L485.7 101.7Q485.6 101.8 485.5 101.8Q485.3 101.9 485.1 101.9Q484.9 101.9 484.7 102.0Q484.5 102.0 484.3 102.0L484.3 102.0Q484.0 102.1 483.7 102.2Q483.4 102.3 483.3 102.5Q483.1 102.7 483.1 103.0L483.1 103.0Q483.1 103.2 483.3 103.4Q483.4 103.6 483.7 103.7Q483.9 103.8 484.2 103.8ZM492.7 105.1L492.7 105.1Q491.6 105.1 490.9 104.7Q490.1 104.2 489.7 103.4Q489.2 102.6 489.2 101.5L489.2 101.5Q489.2 100.4 489.7 99.6Q490.1 98.7 490.9 98.3Q491.6 97.8 492.7 97.8L492.7 97.8Q493.3 97.8 493.9 98.0Q494.4 98.1 494.8 98.4Q495.2 98.8 495.5 99.2Q495.8 99.6 495.9 100.2L495.9 100.2L494.1 100.5Q494.0 100.2 493.9 100.0Q493.8 99.8 493.6 99.6Q493.5 99.5 493.2 99.4Q493.0 99.3 492.7 99.3L492.7 99.3Q492.2 99.3 491.9 99.6Q491.5 99.9 491.4 100.3Q491.2 100.8 491.2 101.5L491.2 101.5Q491.2 102.1 491.4 102.6Q491.5 103.1 491.9 103.4Q492.2 103.6 492.7 103.6L492.7 103.6Q493.0 103.6 493.2 103.6Q493.5 103.5 493.6 103.3Q493.8 103.1 493.9 102.9Q494.1 102.7 494.1 102.4L494.1 102.4L495.9 102.7Q495.8 103.3 495.5 103.7Q495.2 104.2 494.8 104.5Q494.4 104.8 493.9 105.0Q493.4 105.1 492.7 105.1ZM499.7 97.9L501.0 97.9L501.0 99.4L499.7 99.4L499.7 102.9Q499.7 103.3 499.8 103.4Q500.0 103.6 500.3 103.6L500.3 103.6Q500.4 103.6 500.6 103.6Q500.8 103.5 500.9 103.5L500.9 103.5L501.2 104.9Q500.9 105.0 500.6 105.1Q500.3 105.1 500.0 105.1L500.0 105.1Q498.9 105.1 498.3 104.6Q497.8 104.1 497.8 103.1L497.8 103.1L497.8 99.4L496.8 99.4L496.8 97.9L497.8 97.9L497.8 96.2L499.7 96.2L499.7 97.9Z M508.7 105.1L508.7 105.1Q507.2 105.1 506.4 104.4Q505.5 103.6 505.5 102.2L505.5 102.2L505.5 101.6L507.5 101.6L507.5 102.2Q507.5 102.9 507.8 103.2Q508.2 103.6 508.7 103.6L508.7 103.6Q509.3 103.6 509.6 103.2Q509.9 102.9 509.9 102.2L509.9 102.2L509.9 95.5L511.9 95.5L511.9 102.1Q511.9 103.6 511.0 104.4Q510.2 105.1 508.7 105.1ZM517.3 105.1L517.3 105.1Q516.2 105.1 515.4 104.8Q514.5 104.4 514.1 103.8Q513.6 103.1 513.6 102.1L513.6 102.1L515.4 102.1Q515.5 102.5 515.7 102.9Q516.0 103.2 516.4 103.3Q516.8 103.5 517.3 103.5L517.3 103.5Q517.8 103.5 518.2 103.4Q518.6 103.2 518.8 102.9Q519.0 102.7 519.0 102.3L519.0 102.3Q519.0 102.0 518.8 101.8Q518.7 101.5 518.3 101.4Q517.9 101.2 517.4 101.1L517.4 101.1L516.4 100.8Q515.2 100.5 514.5 99.9Q513.8 99.3 513.8 98.3L513.8 98.3Q513.8 97.4 514.3 96.8Q514.7 96.1 515.5 95.8Q516.3 95.4 517.4 95.4L517.4 95.4Q518.4 95.4 519.2 95.8Q520.0 96.1 520.4 96.8Q520.8 97.4 520.9 98.2L520.9 98.2L519.0 98.2Q518.9 97.7 518.5 97.4Q518.1 97.0 517.3 97.0L517.3 97.0Q516.9 97.0 516.5 97.2Q516.2 97.3 516.0 97.6Q515.8 97.8 515.8 98.1L515.8 98.1Q515.8 98.5 516.0 98.7Q516.2 99.0 516.6 99.1Q516.9 99.2 517.3 99.3L517.3 99.3L518.2 99.5Q518.8 99.7 519.3 99.9Q519.8 100.1 520.2 100.5Q520.6 100.8 520.8 101.3Q521.0 101.7 521.0 102.3L521.0 102.3Q521.0 103.2 520.6 103.8Q520.1 104.4 519.3 104.8Q518.5 105.1 517.3 105.1ZM524.4 105L522.2 105L525.5 100.2L522.5 95.5L524.7 95.5L525.7 97.1Q526.0 97.6 526.2 97.9Q526.4 98.3 526.6 98.6L526.6 98.6Q526.6 98.7 526.7 98.8L526.7 98.8Q526.7 98.7 526.7 98.6L526.7 98.6Q526.9 98.3 527.1 97.9Q527.3 97.6 527.6 97.1L527.6 97.1L528.6 95.5L530.8 95.5L527.8 100.1L531.1 105L528.8 105L527.5 103.0Q527.2 102.6 527.1 102.3Q526.9 102.1 526.8 101.8L526.8 101.8Q526.7 101.7 526.6 101.5L526.6 101.5Q526.6 101.7 526.5 101.8L526.5 101.8Q526.3 102.1 526.2 102.3Q526.0 102.6 525.8 103.0L525.8 103.0L524.4 105Z "/></g><defs><clipPath id="satori_bc-id-0-2-4" clip-path="url(#satori_cp-id-0)"><path x="567" y="83" width="130" height="34" d="M575,83 h114 a8,8 0 0 1 8,8 v18 a8,8 0 0 1 -8,8 h-114 a8,8 0 0 1 -8,-8 v-18 a8,8 0 0 1 8,-8"/></clipPath></defs><mask id="satori_om-id-0-2-4"><rect x="568" y="84" width="128" height="32" fill="#fff" mask="url(#satori_om-id-0)"/><path width="130" height="34" fill="none" stroke="#000" stroke-width="2" d="M569.343,85.343 A8,8 0 0 1 575,83 h114 a8,8 0 0 1 8,8 v18 a8,8 0 0 1 -8,8 h-114 a8,8 0 0 1 -8,-8 v-18 A8,8 0 0 1 569.343,85.343"/></mask><path x="567" y="83" width="130" height="34" fill="rgba(0,0,0,0.4)" d="M575,83 h114 a8,8 0 0 1 8,8 v18 a8,8 0 0 1 -8,8 h-114 a8,8 0 0 1 -8,-8 v-18 a8,8 0 0 1 8,-8" clip-path="url(#satori_cp-id-0)" mask="url(#satori_om-id-0)"/><path width="130" height="34" clip-path="url(#satori_bc-id-0-2-4)" fill="none" stroke="rgba(110, 80, 200, 0.5)" stroke-width="2" d="M569.343,85.343 A8,8 0 0 1 575,83 h114 a8,8 0 0 1 8,8 v18 a8,8 0 0 1 -8,8 h-114 a8,8 0 0 1 -8,-8 v-18 A8,8 0 0 1 569.343,85.343"/><g mask="url(#satori_om-id-0)" clip-path="url(#satori_cp-id-0)"><path fill="#ffc299" d="M591.4 97.1L588.5 97.1L588.5 95.5L596.2 95.5L596.2 97.1L593.3 97.1L593.3 105L591.4 105L591.4 97.1ZM599.8 105.1L599.8 105.1Q599.1 105.1 598.6 104.9Q598.0 104.7 597.7 104.2Q597.4 103.7 597.4 103.0L597.4 103.0Q597.4 102.4 597.6 102.0Q597.8 101.6 598.2 101.4Q598.6 101.1 599.1 101.0Q599.6 100.9 600.1 100.8L600.1 100.8Q600.7 100.8 601.1 100.7Q601.5 100.7 601.6 100.5Q601.8 100.4 601.8 100.2L601.8 100.2L601.8 100.2Q601.8 99.9 601.7 99.7Q601.6 99.4 601.3 99.3Q601.1 99.2 600.7 99.2L600.7 99.2Q600.3 99.2 600.1 99.3Q599.8 99.4 599.6 99.6Q599.4 99.8 599.4 100.0L599.4 100.0L597.6 99.8Q597.8 99.1 598.2 98.7Q598.6 98.3 599.3 98.0Q599.9 97.8 600.7 97.8L600.7 97.8Q601.3 97.8 601.8 98.0Q602.4 98.1 602.8 98.4Q603.2 98.7 603.5 99.1Q603.7 99.6 603.7 100.2L603.7 100.2L603.7 105L601.9 105L601.9 104.0L601.8 104.0Q601.7 104.3 601.4 104.6Q601.1 104.8 600.7 105.0Q600.3 105.1 599.8 105.1ZM600.3 103.8L600.3 103.8Q600.8 103.8 601.1 103.6Q601.4 103.4 601.6 103.1Q601.8 102.8 601.8 102.5L601.8 102.5L601.8 101.7Q601.7 101.8 601.6 101.8Q601.4 101.9 601.2 101.9Q601.0 101.9 600.8 102.0Q600.6 102.0 600.4 102.0L600.4 102.0Q600.1 102.1 599.8 102.2Q599.5 102.3 599.4 102.5Q599.2 102.7 599.2 103.0L599.2 103.0Q599.2 103.2 599.4 103.4Q599.5 103.6 599.8 103.7Q600.0 103.8 600.3 103.8ZM607.5 105L605.6 105L605.6 97.9L607.5 97.9L607.5 105ZM606.6 97.0L606.6 97.0Q606.2 97.0 605.9 96.7Q605.5 96.4 605.5 96.0L605.5 96.0Q605.5 95.6 605.9 95.3Q606.2 95.0 606.6 95.0L606.6 95.0Q607.0 95.0 607.3 95.3Q607.6 95.6 607.6 96.0L607.6 96.0Q607.6 96.4 607.3 96.7Q607.0 97.0 606.6 97.0ZM609.5 95.5L611.4 95.5L611.4 105L609.5 105L609.5 95.5ZM616.7 105L614.8 105L612.7 97.9L614.7 97.9L615.3 100.5Q615.4 101.2 615.6 102.1L615.6 102.1Q615.8 102.6 615.9 103.3L615.9 103.3Q616.0 102.6 616.1 102.1L616.1 102.1Q616.3 101.2 616.5 100.5L616.5 100.5L617.1 97.9L618.9 97.9L619.5 100.5Q619.7 101.2 619.9 102.1L619.9 102.1Q620.0 102.6 620.1 103.3L620.1 103.3Q620.2 102.6 620.3 102.1L620.3 102.1Q620.5 101.2 620.7 100.5L620.7 100.5L621.3 97.9L623.3 97.9L621.2 105L619.3 105L618.5 102.3Q618.4 101.9 618.3 101.4Q618.2 100.9 618.0 100.3L618.0 100.3Q618.0 100.2 618.0 100.1L618.0 100.1Q618.0 100.2 617.9 100.3L617.9 100.3Q617.8 100.9 617.7 101.4Q617.6 101.9 617.5 102.3L617.5 102.3L616.7 105ZM626.5 105L624.6 105L624.6 97.9L626.5 97.9L626.5 105ZM625.6 97.0L625.6 97.0Q625.2 97.0 624.9 96.7Q624.5 96.4 624.5 96.0L624.5 96.0Q624.5 95.6 624.9 95.3Q625.2 95.0 625.6 95.0L625.6 95.0Q626.0 95.0 626.3 95.3Q626.6 95.6 626.6 96.0L626.6 96.0Q626.6 96.4 626.3 96.7Q626.0 97.0 625.6 97.0ZM630.4 100.9L630.4 100.9L630.4 105L628.5 105L628.5 97.9L630.3 97.9L630.3 99.4Q630.6 98.7 631.0 98.3L631.0 98.3Q631.6 97.8 632.5 97.8L632.5 97.8Q633.2 97.8 633.8 98.1Q634.3 98.5 634.6 99.1Q634.9 99.7 634.9 100.5L634.9 100.5L634.9 105L633.0 105L633.0 100.8Q633.0 100.2 632.7 99.8Q632.3 99.4 631.7 99.4L631.7 99.4Q631.3 99.4 631.0 99.6Q630.7 99.8 630.5 100.1Q630.4 100.4 630.4 100.9ZM639.4 105.1L639.4 105.1Q638.6 105.1 638.0 104.7Q637.3 104.3 636.9 103.5Q636.6 102.6 636.6 101.5L636.6 101.5Q636.6 100.3 636.9 99.4Q637.3 98.6 638.0 98.2Q638.6 97.8 639.4 97.8L639.4 97.8Q640.0 97.8 640.4 98.0Q640.8 98.2 641.1 98.5Q641.3 98.8 641.5 99.1L641.5 99.1L641.5 99.1L641.5 95.5L643.4 95.5L643.4 105L641.5 105L641.5 103.9L641.5 103.9Q641.3 104.1 641.1 104.4Q640.8 104.7 640.4 104.9Q640.0 105.1 639.4 105.1ZM640.0 103.6L640.0 103.6Q640.5 103.6 640.9 103.3Q641.2 103.1 641.4 102.6Q641.6 102.1 641.6 101.5L641.6 101.5Q641.6 100.8 641.4 100.3Q641.2 99.9 640.9 99.6Q640.5 99.3 640.0 99.3L640.0 99.3Q639.5 99.3 639.2 99.6Q638.8 99.9 638.7 100.4Q638.5 100.8 638.5 101.5L638.5 101.5Q638.5 102.1 638.7 102.6Q638.9 103.0 639.2 103.3Q639.5 103.6 640.0 103.6Z M652.9 105.1L652.9 105.1Q651.6 105.1 650.7 104.6Q649.7 104.0 649.1 102.9Q648.5 101.8 648.5 100.3L648.5 100.3Q648.5 98.7 649.1 97.6Q649.7 96.6 650.7 96.0Q651.7 95.4 652.9 95.4L652.9 95.4Q653.7 95.4 654.4 95.6Q655.1 95.9 655.6 96.3Q656.2 96.7 656.5 97.4Q656.9 98.0 657.0 98.8L657.0 98.8L655.0 98.8Q654.9 98.4 654.8 98.1Q654.6 97.8 654.3 97.6Q654.0 97.4 653.7 97.2Q653.3 97.1 652.9 97.1L652.9 97.1Q652.2 97.1 651.6 97.5Q651.1 97.9 650.8 98.6Q650.5 99.3 650.5 100.3L650.5 100.3Q650.5 101.3 650.8 102.0Q651.1 102.7 651.7 103.1Q652.2 103.4 652.9 103.4L652.9 103.4Q653.3 103.4 653.7 103.3Q654.0 103.2 654.3 103.0Q654.6 102.8 654.8 102.5Q654.9 102.1 655.0 101.8L655.0 101.8L657.0 101.8Q656.9 102.4 656.6 103.0Q656.3 103.6 655.8 104.1Q655.2 104.6 654.5 104.9Q653.8 105.1 652.9 105.1ZM662.2 105.1L662.2 105.1Q661.0 105.1 660.2 104.8Q659.3 104.4 658.9 103.8Q658.4 103.1 658.4 102.1L658.4 102.1L660.3 102.1Q660.3 102.5 660.5 102.9Q660.8 103.2 661.2 103.3Q661.6 103.5 662.1 103.5L662.1 103.5Q662.7 103.5 663.0 103.4Q663.4 103.2 663.6 102.9Q663.9 102.7 663.9 102.3L663.9 102.3Q663.9 102.0 663.7 101.8Q663.5 101.5 663.1 101.4Q662.7 101.2 662.2 101.1L662.2 101.1L661.2 100.8Q660.0 100.5 659.3 99.9Q658.6 99.3 658.6 98.3L658.6 98.3Q658.6 97.4 659.1 96.8Q659.5 96.1 660.3 95.8Q661.1 95.4 662.2 95.4L662.2 95.4Q663.2 95.4 664.0 95.8Q664.8 96.1 665.2 96.8Q665.7 97.4 665.7 98.2L665.7 98.2L663.8 98.2Q663.8 97.7 663.3 97.4Q662.9 97.0 662.2 97.0L662.2 97.0Q661.7 97.0 661.3 97.2Q661.0 97.3 660.8 97.6Q660.6 97.8 660.6 98.1L660.6 98.1Q660.6 98.5 660.8 98.7Q661.0 99.0 661.4 99.1Q661.7 99.2 662.1 99.3L662.1 99.3L663.0 99.5Q663.6 99.7 664.1 99.9Q664.6 100.1 665.0 100.5Q665.4 100.8 665.6 101.3Q665.8 101.7 665.8 102.3L665.8 102.3Q665.8 103.2 665.4 103.8Q664.9 104.4 664.1 104.8Q663.3 105.1 662.2 105.1ZM671.0 105.1L671.0 105.1Q669.8 105.1 669.0 104.8Q668.1 104.4 667.7 103.8Q667.2 103.1 667.2 102.1L667.2 102.1L669.1 102.1Q669.1 102.5 669.4 102.9Q669.6 103.2 670.0 103.3Q670.4 103.5 670.9 103.5L670.9 103.5Q671.5 103.5 671.8 103.4Q672.2 103.2 672.4 102.9Q672.7 102.7 672.7 102.3L672.7 102.3Q672.7 102.0 672.5 101.8Q672.3 101.5 671.9 101.4Q671.6 101.2 671.0 101.1L671.0 101.1L670.0 100.8Q668.8 100.5 668.1 99.9Q667.4 99.3 667.4 98.3L667.4 98.3Q667.4 97.4 667.9 96.8Q668.4 96.1 669.2 95.8Q670.0 95.4 671.0 95.4L671.0 95.4Q672.0 95.4 672.8 95.8Q673.6 96.1 674.0 96.8Q674.5 97.4 674.5 98.2L674.5 98.2L672.6 98.2Q672.6 97.7 672.1 97.4Q671.7 97.0 671.0 97.0L671.0 97.0Q670.5 97.0 670.1 97.2Q669.8 97.3 669.6 97.6Q669.4 97.8 669.4 98.1L669.4 98.1Q669.4 98.5 669.6 98.7Q669.8 99.0 670.2 99.1Q670.5 99.2 670.9 99.3L670.9 99.3L671.8 99.5Q672.4 99.7 672.9 99.9Q673.4 100.1 673.8 100.5Q674.2 100.8 674.4 101.3Q674.6 101.7 674.6 102.3L674.6 102.3Q674.6 103.2 674.2 103.8Q673.7 104.4 672.9 104.8Q672.1 105.1 671.0 105.1Z "/></g></svg>