<!-- Generated by readme-aura https://github.com/collectioneur/readme-aura -->
<svg width="860" height="30" viewBox="0 0 860 30" xmlns="http://www.w3.org/2000/svg"><mask id="satori_om-id"><rect x="0" y="0" width="860" height="30" fill="#fff"/></mask><mask id="satori_om-id-0"><rect x="264" y="9" width="333" height="12" fill="#fff"/></mask><g  ><path fill="rgba(255,255,255,0.3)" d="M267.8 19.1L267.8 19.1Q266.9 19.1 266.2 18.6Q265.4 18.2 265.0 17.4Q264.6 16.5 264.6 15.4L264.6 15.4Q264.6 14.2 265.0 13.4Q265.4 12.5 266.2 12.1Q266.9 11.6 267.8 11.6L267.8 11.6Q268.4 11.6 268.9 11.8Q269.4 11.9 269.7 12.3Q270.1 12.6 270.4 13.0Q270.7 13.5 270.8 14.0L270.8 14.0L269.8 14.0Q269.8 13.6 269.6 13.4Q269.4 13.1 269.1 12.9Q268.8 12.7 268.5 12.6Q268.2 12.5 267.8 12.5L267.8 12.5Q267.2 12.5 266.6 12.8Q266.1 13.2 265.8 13.8Q265.5 14.4 265.5 15.4L265.5 15.4Q265.5 16.3 265.8 16.9Q266.1 17.6 266.6 17.9Q267.2 18.2 267.8 18.2L267.8 18.2Q268.2 18.2 268.5 18.1Q268.8 18.0 269.1 17.8Q269.4 17.7 269.6 17.4Q269.8 17.1 269.8 16.7L269.8 16.7L270.8 16.7Q270.7 17.3 270.4 17.7Q270.1 18.1 269.8 18.5Q269.4 18.8 268.9 18.9Q268.4 19.1 267.8 19.1ZM274.1 19L273.2 19L273.2 11.7L275.7 11.7Q276.5 11.7 277.1 12.0Q277.6 12.3 277.9 12.8Q278.2 13.3 278.2 14.0Q278.2 14.6 277.9 15.1Q277.6 15.6 277.1 15.9L277.1 15.9Q276.9 16.0 276.8 16.0L276.8 16.0L278.4 19L277.4 19L275.8 16.2Q275.8 16.2 275.7 16.2L275.7 16.2L274.1 16.2L274.1 19ZM274.1 12.5L274.1 15.4L275.6 15.4Q276.2 15.4 276.6 15.2Q276.9 15.0 277.1 14.7Q277.2 14.4 277.2 14.0L277.2 14.0Q277.2 13.5 277.1 13.2Q276.9 12.9 276.6 12.7Q276.2 12.5 275.6 12.5L275.6 12.5L274.1 12.5ZM281.0 19L280.0 19L282.6 11.7L283.7 11.7L286.4 19L285.4 19L284.7 17.0L281.7 17.0L281.0 19ZM282.0 16.2L284.4 16.2L283.9 14.7Q283.7 14.3 283.5 13.7L283.5 13.7Q283.4 13.2 283.2 12.5L283.2 12.5Q283.0 13.2 282.8 13.7L282.8 13.7Q282.6 14.3 282.5 14.7L282.5 14.7L282.0 16.2ZM289.4 19L288.5 19L288.5 11.7L292.9 11.7L292.9 12.5L289.4 12.5L289.4 15.0L292.6 15.0L292.6 15.9L289.4 15.9L289.4 19ZM297.3 12.5L295.0 12.5L295.0 11.7L300.5 11.7L300.5 12.5L298.2 12.5L298.2 19L297.3 19L297.3 12.5ZM307.4 19L302.9 19L302.9 11.7L307.3 11.7L307.3 12.5L303.8 12.5L303.8 14.9L307.1 14.9L307.1 15.7L303.8 15.7L303.8 18.2L307.4 18.2L307.4 19ZM312.2 19L312.2 19L309.9 19L309.9 11.7L312.3 11.7Q313.3 11.7 314.1 12.2Q314.8 12.6 315.2 13.4Q315.6 14.2 315.6 15.3L315.6 15.3Q315.6 16.5 315.2 17.3Q314.8 18.1 314.0 18.6Q313.3 19 312.2 19ZM310.8 12.5L310.8 18.2L312.1 18.2Q313.0 18.2 313.6 17.8Q314.2 17.5 314.4 16.9Q314.7 16.2 314.7 15.3L314.7 15.3Q314.7 14.5 314.4 13.8Q314.2 13.2 313.6 12.9Q313.0 12.5 312.2 12.5L312.2 12.5L310.8 12.5Z M324.4 19L323.3 19L321.3 11.7L322.2 11.7L323.4 16.2Q323.5 16.5 323.6 16.9Q323.7 17.3 323.7 17.7L323.7 17.7Q323.8 17.9 323.8 18.1L323.8 18.1Q323.9 17.9 323.9 17.7L323.9 17.7Q324.0 17.3 324.1 16.9Q324.2 16.5 324.3 16.2L324.3 16.2L325.4 11.7L326.5 11.7L327.7 16.2Q327.8 16.5 327.8 16.9Q327.9 17.3 328.0 17.7L328.0 17.7Q328.1 17.9 328.1 18.1L328.1 18.1Q328.1 17.9 328.2 17.7L328.2 17.7Q328.3 17.3 328.4 16.9Q328.4 16.5 328.5 16.2L328.5 16.2L329.7 11.7L330.6 11.7L328.6 19L327.6 19L326.3 14.4Q326.2 13.9 326.1 13.4L326.1 13.4Q326.0 13.1 326.0 12.8L326.0 12.8Q325.9 13.1 325.8 13.4L325.8 13.4Q325.7 13.9 325.6 14.4L325.6 14.4L324.4 19ZM332.8 11.7L333.7 11.7L333.7 19L332.8 19L332.8 11.7ZM338.3 12.5L336.1 12.5L336.1 11.7L341.6 11.7L341.6 12.5L339.3 12.5L339.3 19L338.3 19L338.3 12.5ZM344.8 19L343.9 19L343.9 11.7L344.8 11.7L344.8 14.9L348.7 14.9L348.7 11.7L349.6 11.7L349.6 19L348.7 19L348.7 15.7L344.8 15.7L344.8 19Z M357.1 19L356.2 19L356.2 11.7L358.6 11.7Q359.5 11.7 360.0 12.0Q360.6 12.3 360.9 12.9Q361.1 13.4 361.1 14.0Q361.1 14.7 360.9 15.2Q360.6 15.7 360.0 16.1Q359.5 16.4 358.7 16.4L358.7 16.4L357.1 16.4L357.1 19ZM357.1 12.5L357.1 15.6L358.6 15.6Q359.2 15.6 359.5 15.4Q359.9 15.2 360.0 14.8Q360.2 14.5 360.2 14.0Q360.2 13.6 360.0 13.3Q359.9 12.9 359.5 12.7Q359.2 12.5 358.6 12.5L358.6 12.5L357.1 12.5ZM364.5 19L363.5 19L363.5 11.7L366.0 11.7Q366.9 11.7 367.4 12.0Q368.0 12.3 368.2 12.8Q368.5 13.3 368.5 14.0Q368.5 14.6 368.2 15.1Q368.0 15.6 367.4 15.9L367.4 15.9Q367.3 16.0 367.2 16.0L367.2 16.0L368.8 19L367.7 19L366.2 16.2Q366.1 16.2 366.0 16.2L366.0 16.2L364.5 16.2L364.5 19ZM364.5 12.5L364.5 15.4L366.0 15.4Q366.6 15.4 366.9 15.2Q367.3 15.0 367.4 14.7Q367.6 14.4 367.6 14.0L367.6 14.0Q367.6 13.5 367.4 13.2Q367.3 12.9 366.9 12.7Q366.6 12.5 366.0 12.5L366.0 12.5L364.5 12.5ZM375.5 19L371.0 19L371.0 11.7L375.4 11.7L375.4 12.5L371.9 12.5L371.9 14.9L375.2 14.9L375.2 15.7L371.9 15.7L371.9 18.2L375.5 18.2L375.5 19ZM380.9 19.1L380.9 19.1Q380 19.1 379.3 18.6Q378.5 18.2 378.1 17.4Q377.7 16.5 377.7 15.4L377.7 15.4Q377.7 14.2 378.1 13.4Q378.5 12.5 379.3 12.1Q380 11.6 380.9 11.6L380.9 11.6Q381.5 11.6 382.0 11.8Q382.5 11.9 382.9 12.3Q383.2 12.6 383.5 13.0Q383.8 13.5 383.9 14.0L383.9 14.0L382.9 14.0Q382.9 13.6 382.7 13.4Q382.5 13.1 382.2 12.9Q381.9 12.7 381.6 12.6Q381.3 12.5 380.9 12.5L380.9 12.5Q380.3 12.5 379.8 12.8Q379.2 13.2 378.9 13.8Q378.6 14.4 378.6 15.4L378.6 15.4Q378.6 16.3 378.9 16.9Q379.2 17.6 379.8 17.9Q380.3 18.2 380.9 18.2L380.9 18.2Q381.3 18.2 381.6 18.1Q381.9 18.0 382.2 17.8Q382.5 17.7 382.7 17.4Q382.9 17.1 382.9 16.7L382.9 16.7L383.9 16.7Q383.8 17.3 383.5 17.7Q383.3 18.1 382.9 18.5Q382.5 18.8 382.0 18.9Q381.5 19.1 380.9 19.1ZM386.3 11.7L387.2 11.7L387.2 19L386.3 19L386.3 11.7ZM392.3 19.1L392.3 19.1Q391.5 19.1 390.9 18.9Q390.4 18.6 390.0 18.2Q389.7 17.7 389.7 17.1L389.7 17.1L390.6 17.1Q390.7 17.5 390.9 17.8Q391.1 18.0 391.5 18.2Q391.9 18.3 392.3 18.3L392.3 18.3Q392.8 18.3 393.2 18.1Q393.6 18.0 393.8 17.7Q394.0 17.4 394.0 17.0L394.0 17.0Q394.0 16.7 393.8 16.4Q393.7 16.2 393.3 16.1Q393.0 15.9 392.6 15.8L392.6 15.8L391.7 15.6Q390.8 15.3 390.4 14.9Q389.9 14.4 389.9 13.7L389.9 13.7Q389.9 13.1 390.2 12.6Q390.5 12.1 391.1 11.9Q391.7 11.6 392.4 11.6L392.4 11.6Q393.1 11.6 393.6 11.9Q394.2 12.1 394.5 12.6Q394.8 13.0 394.9 13.6L394.9 13.6L393.9 13.6Q393.9 13.0 393.4 12.7Q393.0 12.4 392.3 12.4L392.3 12.4Q391.9 12.4 391.5 12.6Q391.2 12.8 391.0 13.0Q390.8 13.3 390.8 13.6L390.8 13.6Q390.8 14.0 391.0 14.2Q391.2 14.5 391.6 14.6Q391.9 14.7 392.2 14.8L392.2 14.8L392.9 15.0Q393.2 15.1 393.5 15.2Q393.9 15.4 394.2 15.6Q394.5 15.8 394.7 16.2Q394.9 16.5 394.9 17.0L394.9 17.0Q394.9 17.6 394.6 18.1Q394.3 18.6 393.7 18.8Q393.1 19.1 392.3 19.1ZM397.4 11.7L398.3 11.7L398.3 19L397.4 19L397.4 11.7ZM404.0 19.1L404.0 19.1Q403.1 19.1 402.4 18.6Q401.6 18.2 401.2 17.4Q400.8 16.5 400.8 15.4L400.8 15.4Q400.8 14.2 401.2 13.4Q401.6 12.5 402.4 12.1Q403.1 11.6 404.0 11.6L404.0 11.6Q405.0 11.6 405.7 12.1Q406.4 12.5 406.8 13.4Q407.3 14.2 407.3 15.4L407.3 15.4Q407.3 16.5 406.8 17.4Q406.4 18.2 405.7 18.6Q405.0 19.1 404.0 19.1ZM404.0 18.2L404.0 18.2Q404.7 18.2 405.2 17.9Q405.7 17.6 406.0 16.9Q406.3 16.3 406.3 15.4L406.3 15.4Q406.3 14.4 406.0 13.8Q405.7 13.1 405.2 12.8Q404.7 12.5 404.0 12.5L404.0 12.5Q403.4 12.5 402.8 12.8Q402.3 13.2 402.0 13.8Q401.7 14.4 401.7 15.4L401.7 15.4Q401.7 16.3 402.0 16.9Q402.3 17.6 402.8 17.9Q403.4 18.2 404.0 18.2ZM410.7 19L409.7 19L409.7 11.7L410.8 11.7L413.8 16.4Q413.9 16.6 414.1 16.8Q414.2 17.1 414.4 17.5L414.4 17.5Q414.5 17.7 414.6 17.9L414.6 17.9Q414.6 17.7 414.6 17.4L414.6 17.4Q414.6 17.1 414.6 16.7Q414.6 16.4 414.6 16.2L414.6 16.2L414.6 11.7L415.5 11.7L415.5 19L414.4 19L411.8 14.9Q411.6 14.6 411.4 14.3Q411.2 14.0 411.0 13.5L411.0 13.5Q410.8 13.2 410.6 12.8L410.6 12.8Q410.6 13.2 410.6 13.5L410.6 13.5Q410.6 14.0 410.6 14.3Q410.7 14.7 410.7 14.8L410.7 14.8L410.7 19Z M424.0 17.7L424.0 17.7Q423.6 17.7 423.2 17.5Q422.9 17.2 422.7 16.9Q422.4 16.5 422.4 16.1L422.4 16.1Q422.4 15.7 422.7 15.3Q422.9 15.0 423.2 14.7Q423.6 14.5 424.0 14.5L424.0 14.5Q424.4 14.5 424.8 14.7Q425.1 15.0 425.4 15.3Q425.6 15.7 425.6 16.1L425.6 16.1Q425.6 16.5 425.4 16.9Q425.1 17.2 424.8 17.5Q424.4 17.7 424.0 17.7Z M433.4 19L432.5 19L432.5 11.7L435.0 11.7Q435.9 11.7 436.4 12.0Q436.9 12.3 437.2 12.9Q437.5 13.4 437.5 14.0Q437.5 14.7 437.2 15.2Q436.9 15.7 436.4 16.1Q435.9 16.4 435.0 16.4L435.0 16.4L433.4 16.4L433.4 19ZM433.4 12.5L433.4 15.6L435.0 15.6Q435.5 15.6 435.9 15.4Q436.2 15.2 436.4 14.8Q436.6 14.5 436.6 14.0Q436.6 13.6 436.4 13.3Q436.2 12.9 435.9 12.7Q435.5 12.5 435.0 12.5L435.0 12.5L433.4 12.5ZM442.8 19.1L442.8 19.1Q441.9 19.1 441.2 18.6Q440.5 18.2 440.0 17.4Q439.6 16.5 439.6 15.4L439.6 15.4Q439.6 14.2 440.0 13.4Q440.5 12.5 441.2 12.1Q441.9 11.6 442.8 11.6L442.8 11.6Q443.8 11.6 444.5 12.1Q445.2 12.5 445.7 13.4Q446.1 14.2 446.1 15.4L446.1 15.4Q446.1 16.5 445.7 17.4Q445.2 18.2 444.5 18.6Q443.8 19.1 442.8 19.1ZM442.8 18.2L442.8 18.2Q443.5 18.2 444.0 17.9Q444.5 17.6 444.9 16.9Q445.2 16.3 445.2 15.4L445.2 15.4Q445.2 14.4 444.9 13.8Q444.5 13.1 444.0 12.8Q443.5 12.5 442.8 12.5L442.8 12.5Q442.2 12.5 441.7 12.8Q441.1 13.2 440.8 13.8Q440.5 14.4 440.5 15.4L440.5 15.4Q440.5 16.3 440.8 16.9Q441.1 17.6 441.7 17.9Q442.2 18.2 442.8 18.2ZM451.0 19L449.9 19L447.9 11.7L448.9 11.7L450.0 16.2Q450.1 16.5 450.2 16.9Q450.3 17.3 450.4 17.7L450.4 17.7Q450.4 17.9 450.4 18.1L450.4 18.1Q450.5 17.9 450.5 17.7L450.5 17.7Q450.6 17.3 450.7 16.9Q450.8 16.5 450.9 16.2L450.9 16.2L452.1 11.7L453.1 11.7L454.3 16.2Q454.4 16.5 454.5 16.9Q454.6 17.3 454.6 17.7L454.6 17.7Q454.7 17.9 454.7 18.1L454.7 18.1Q454.8 17.9 454.8 17.7L454.8 17.7Q454.9 17.3 455.0 16.9Q455.1 16.5 455.2 16.2L455.2 16.2L456.3 11.7L457.3 11.7L455.3 19L454.2 19L452.9 14.4Q452.8 13.9 452.7 13.4L452.7 13.4Q452.6 13.1 452.6 12.8L452.6 12.8Q452.5 13.1 452.5 13.4L452.5 13.4Q452.4 13.9 452.2 14.4L452.2 14.4L451.0 19ZM463.9 19L459.4 19L459.4 11.7L463.8 11.7L463.8 12.5L460.3 12.5L460.3 14.9L463.6 14.9L463.6 15.7L460.3 15.7L460.3 18.2L463.9 18.2L463.9 19ZM467.3 19L466.4 19L466.4 11.7L468.9 11.7Q469.7 11.7 470.3 12.0Q470.8 12.3 471.1 12.8Q471.4 13.3 471.4 14.0Q471.4 14.6 471.1 15.1Q470.8 15.6 470.3 15.9L470.3 15.9Q470.2 16.0 470.0 16.0L470.0 16.0L471.7 19L470.6 19L469.1 16.2Q469.0 16.2 468.9 16.2L468.9 16.2L467.3 16.2L467.3 19ZM467.3 12.5L467.3 15.4L468.9 15.4Q469.4 15.4 469.8 15.2Q470.1 15.0 470.3 14.7Q470.5 14.4 470.5 14.0L470.5 14.0Q470.5 13.5 470.3 13.2Q470.1 12.9 469.8 12.7Q469.4 12.5 468.8 12.5L468.8 12.5L467.3 12.5ZM478.3 19L473.8 19L473.8 11.7L478.3 11.7L478.3 12.5L474.8 12.5L474.8 14.9L478.0 14.9L478.0 15.7L474.8 15.7L474.8 18.2L478.3 18.2L478.3 19ZM483.1 19L483.1 19L480.9 19L480.9 11.7L483.2 11.7Q484.3 11.7 485.0 12.2Q485.8 12.6 486.2 13.4Q486.6 14.2 486.6 15.3L486.6 15.3Q486.6 16.5 486.2 17.3Q485.8 18.1 485.0 18.6Q484.2 19 483.1 19ZM481.8 12.5L481.8 18.2L483.1 18.2Q484.0 18.2 484.5 17.8Q485.1 17.5 485.4 16.9Q485.7 16.2 485.7 15.3L485.7 15.3Q485.7 14.5 485.4 13.8Q485.1 13.2 484.6 12.9Q484.0 12.5 483.2 12.5L483.2 12.5L481.8 12.5Z M495.5 19L492.9 19L492.9 11.7L495.5 11.7Q496.2 11.7 496.7 12.0Q497.2 12.2 497.5 12.7Q497.7 13.1 497.7 13.7L497.7 13.7Q497.7 14.1 497.5 14.4Q497.4 14.7 497.1 14.9Q496.8 15.1 496.5 15.2L496.5 15.2L496.5 15.3Q496.8 15.3 497.2 15.5Q497.5 15.7 497.8 16.1Q498.0 16.5 498.0 17.1L498.0 17.1Q498.0 17.6 497.7 18.0Q497.5 18.5 496.9 18.7Q496.4 19 495.5 19L495.5 19ZM493.8 15.7L493.8 18.2L495.5 18.2Q496.4 18.2 496.7 17.9Q497.1 17.5 497.1 17.1L497.1 17.1Q497.1 16.7 496.9 16.4Q496.7 16.1 496.4 15.9Q496.0 15.7 495.6 15.7L495.6 15.7L493.8 15.7ZM493.8 12.5L493.8 14.9L495.4 14.9Q495.8 14.9 496.1 14.8Q496.4 14.6 496.6 14.3Q496.8 14.0 496.8 13.7L496.8 13.7Q496.8 13.2 496.5 12.9Q496.2 12.5 495.4 12.5L495.4 12.5L493.8 12.5ZM503.4 19L502.5 19L502.5 16.0L499.8 11.7L500.9 11.7L502.3 14.1Q502.6 14.5 502.8 14.8L502.8 14.8Q502.8 15.0 503.0 15.3L503.0 15.3Q503.1 15.0 503.2 14.8L503.2 14.8Q503.3 14.4 503.6 14.1L503.6 14.1L505.0 11.7L506.1 11.7L503.4 16.0L503.4 19Z M513.0 19L512.0 19L512.0 11.7L514.5 11.7Q515.4 11.7 515.9 12.0Q516.5 12.3 516.7 12.8Q517.0 13.3 517.0 14.0Q517.0 14.6 516.7 15.1Q516.5 15.6 515.9 15.9L515.9 15.9Q515.8 16.0 515.6 16.0L515.6 16.0L517.3 19L516.2 19L514.7 16.2Q514.6 16.2 514.5 16.2L514.5 16.2L513.0 16.2L513.0 19ZM513.0 12.5L513.0 15.4L514.5 15.4Q515.1 15.4 515.4 15.2Q515.8 15.0 515.9 14.7Q516.1 14.4 516.1 14.0L516.1 14.0Q516.1 13.5 515.9 13.2Q515.8 12.9 515.4 12.7Q515.0 12.5 514.5 12.5L514.5 12.5L513.0 12.5ZM523.9 19L519.5 19L519.5 11.7L523.9 11.7L523.9 12.5L520.4 12.5L520.4 14.9L523.7 14.9L523.7 15.7L520.4 15.7L520.4 18.2L523.9 18.2L523.9 19ZM526.8 19L525.8 19L528.5 11.7L529.6 11.7L532.2 19L531.3 19L530.5 17.0L527.5 17.0L526.8 19ZM527.8 16.2L530.2 16.2L529.7 14.7Q529.6 14.3 529.4 13.7L529.4 13.7Q529.2 13.2 529.0 12.5L529.0 12.5Q528.8 13.2 528.7 13.7L528.7 13.7Q528.5 14.3 528.3 14.7L528.3 14.7L527.8 16.2ZM536.6 19L536.6 19L534.4 19L534.4 11.7L536.7 11.7Q537.8 11.7 538.6 12.2Q539.3 12.6 539.7 13.4Q540.1 14.2 540.1 15.3L540.1 15.3Q540.1 16.5 539.7 17.3Q539.3 18.1 538.5 18.6Q537.8 19 536.6 19ZM535.3 12.5L535.3 18.2L536.6 18.2Q537.5 18.2 538.1 17.8Q538.6 17.5 538.9 16.9Q539.2 16.2 539.2 15.3L539.2 15.3Q539.2 14.5 538.9 13.8Q538.6 13.2 538.1 12.9Q537.5 12.5 536.7 12.5L536.7 12.5L535.3 12.5ZM543.5 19L542.6 19L542.6 11.7L543.9 11.7L545.7 16.3Q545.8 16.5 545.8 16.7Q545.9 17.0 546.0 17.2Q546.1 17.5 546.2 17.8L546.2 17.8Q546.2 17.9 546.2 18.0L546.2 18.0Q546.3 17.9 546.3 17.8L546.3 17.8Q546.4 17.5 546.5 17.3Q546.5 17.0 546.6 16.7Q546.7 16.5 546.8 16.3L546.8 16.3L548.5 11.7L549.9 11.7L549.9 19L549.0 19L549.0 14.8Q549.0 14.6 549.0 14.3Q549.0 14.0 549.0 13.7Q549.0 13.4 549.0 13.1L549.0 13.1Q549.0 12.9 549.0 12.7L549.0 12.7Q548.9 12.9 548.9 13.1L548.9 13.1Q548.7 13.5 548.6 13.8Q548.5 14.1 548.4 14.4Q548.3 14.7 548.3 14.8L548.3 14.8L546.6 19L545.8 19L544.2 14.8Q544.1 14.7 544.0 14.4Q543.9 14.2 543.8 13.8Q543.7 13.5 543.6 13.2L543.6 13.2Q543.5 12.9 543.4 12.7L543.4 12.7Q543.4 12.9 543.4 13.0L543.4 13.0Q543.5 13.4 543.5 13.7Q543.5 14.0 543.5 14.3Q543.5 14.6 543.5 14.8L543.5 14.8L543.5 19ZM557.1 19L552.6 19L552.6 11.7L557.1 11.7L557.1 12.5L553.5 12.5L553.5 14.9L556.8 14.9L556.8 15.7L553.5 15.7L553.5 18.2L557.1 18.2L557.1 19ZM559.5 15.5L562.7 15.5L562.7 16.3L559.5 16.3L559.5 15.5ZM565.6 19L564.6 19L567.2 11.7L568.3 11.7L571.0 19L570.0 19L569.3 17.0L566.3 17.0L565.6 19ZM566.6 16.2L569.0 16.2L568.5 14.7Q568.3 14.3 568.2 13.7L568.2 13.7Q568.0 13.2 567.8 12.5L567.8 12.5Q567.6 13.2 567.4 13.7L567.4 13.7Q567.2 14.3 567.1 14.7L567.1 14.7L566.6 16.2ZM576.0 19.1L576.0 19.1Q575.1 19.1 574.5 18.8Q573.8 18.4 573.5 17.9Q573.1 17.3 573.1 16.5L573.1 16.5L573.1 11.7L574.1 11.7L574.1 16.5Q574.1 17.0 574.3 17.4Q574.5 17.8 575.0 18.0Q575.4 18.3 576.0 18.3L576.0 18.3Q576.6 18.3 577.0 18.0Q577.4 17.8 577.7 17.4Q577.9 17.0 577.9 16.5L577.9 16.5L577.9 11.7L578.8 11.7L578.8 16.5Q578.8 17.3 578.5 17.9Q578.1 18.4 577.5 18.8Q576.8 19.1 576.0 19.1ZM582.5 19L581.6 19L581.6 11.7L584.1 11.7Q584.9 11.7 585.5 12.0Q586.0 12.3 586.3 12.8Q586.5 13.3 586.5 14.0Q586.5 14.6 586.3 15.1Q586.0 15.6 585.5 15.9L585.5 15.9Q585.3 16.0 585.2 16.0L585.2 16.0L586.8 19L585.8 19L584.2 16.2Q584.2 16.2 584.1 16.2L584.1 16.2L582.5 16.2L582.5 19ZM582.5 12.5L582.5 15.4L584.0 15.4Q584.6 15.4 584.9 15.2Q585.3 15.0 585.5 14.7Q585.6 14.4 585.6 14.0L585.6 14.0Q585.6 13.5 585.5 13.2Q585.3 12.9 584.9 12.7Q584.6 12.5 584.0 12.5L584.0 12.5L582.5 12.5ZM589.4 19L588.4 19L591.0 11.7L592.1 11.7L594.8 19L593.8 19L593.1 17.0L590.1 17.0L589.4 19ZM590.4 16.2L592.8 16.2L592.3 14.7Q592.1 14.3 591.9 13.7L591.9 13.7Q591.8 13.2 591.6 12.5L591.6 12.5Q591.3 13.2 591.2 13.7L591.2 13.7Q591.0 14.3 590.9 14.7L590.9 14.7L590.4 16.2Z "/></g></svg>