<!-- Generated by readme-aura https://github.com/collectioneur/readme-aura -->
<svg width="800" height="360" viewBox="0 0 800 360" xmlns="http://www.w3.org/2000/svg"><defs><clipPath id="satori_bc-id"><path x="0" y="0" width="800" height="360" d="M16,0 h768 a16,16 0 0 1 16,16 v328 a16,16 0 0 1 -16,16 h-768 a16,16 0 0 1 -16,-16 v-328 a16,16 0 0 1 16,-16"/></clipPath></defs><clipPath id="satori_cp-id"><path x="0" y="0" width="800" height="360" d="M16,0 h768 a16,16 0 0 1 16,16 v328 a16,16 0 0 1 -16,16 h-768 a16,16 0 0 1 -16,-16 v-328 a16,16 0 0 1 16,-16"/></clipPath><mask id="satori_om-id"><rect x="1" y="1" width="798" height="358" fill="#fff"/><path width="800" height="360" fill="none" stroke="#000" stroke-width="2" d="M4.686,4.686 A16,16 0 0 1 16,0 h768 a16,16 0 0 1 16,16 v328 a16,16 0 0 1 -16,16 h-768 a16,16 0 0 1 -16,-16 v-328 A16,16 0 0 1 4.686,4.686"/></mask><path x="0" y="0" width="800" height="360" fill="#030305" d="M16,0 h768 a16,16 0 0 1 16,16 v328 a16,16 0 0 1 -16,16 h-768 a16,16 0 0 1 -16,-16 v-328 a16,16 0 0 1 16,-16"/><path width="800" height="360" clip-path="url(#satori_bc-id)" fill="none" stroke="rgba(255,255,255,0.06)" stroke-width="2" d="M4.686,4.686 A16,16 0 0 1 16,0 h768 a16,16 0 0 1 16,16 v328 a16,16 0 0 1 -16,16 h-768 a16,16 0 0 1 -16,-16 v-328 A16,16 0 0 1 4.686,4.686"/><clipPath id="satori_cp-id-0" clip-path="url(#satori_cp-id)"><rect x="1" y="1" width="798" height="358"/></clipPath><mask id="satori_om-id-0"><rect x="1" y="1" width="798" height="358" fill="#fff" mask="url(#satori_om-id)"/></mask><svg x="1" y="1" width="798" height="358" preserveAspectRatio="none" clip-path="url(#satori_cp-id-0)" mask="url(#satori_om-id-0)"><defs><radialGradient id="hg1" cx="50%" cy="50%" r="50%"><stop offset="0%" stop-color="rgba(42, 157, 143, 0.65)"></stop><stop offset="100%" stop-color="rgba(42, 157, 143, 0)"></stop></radialGradient><radialGradient id="hg2" cx="50%" cy="50%" r="50%"><stop offset="0%" stop-color="rgba(110, 80, 255, 0.55)"></stop><stop offset="100%" stop-color="rgba(110, 80, 255, 0)"></stop></radialGradient><radialGradient id="hg3" cx="50%" cy="50%" r="50%"><stop offset="0%" stop-color="rgba(226, 200, 122, 0.45)"></stop><stop offset="100%" stop-color="rgba(226, 200, 122, 0)"></stop></radialGradient></defs><ellipse id="hero-o1" cx="20%" cy="80%" rx="350" ry="250" fill="url(#hg1)"></ellipse><ellipse id="hero-o2" cx="80%" cy="10%" rx="320" ry="240" fill="url(#hg2)"></ellipse><ellipse id="hero-o3" cx="85%" cy="85%" rx="250" ry="200" fill="url(#hg3)"></ellipse><style>

    @keyframes hero-orb-a {
      0%, 100% { transform: translateX(0px) translateY(0px); opacity: 0.7; }
      50% { transform: translateX(40px) translateY(-30px); opacity: 1; }
    }
    @keyframes hero-orb-b {
      0%, 100% { transform: translateX(0px) translateY(0px); opacity: 0.6; }
      50% { transform: translateX(-30px) translateY(30px); opacity: 0.9; }
    }
    #hero-o1 { animation: hero-orb-a 10s ease-in-out infinite; }
    #hero-o2 { animation: hero-orb-b 12s ease-in-out infinite 1s; }
    #hero-o3 { animation: hero-orb-a 11s ease-in-out infinite 2s; }
  
</style>
</svg><mask id="satori_om-id-0-0"><rect x="1" y="1" width="0" height="358" fill="#fff" mask="url(#satori_om-id)"/></mask><mask id="satori_om-id-0-0-0"><rect x="1" y="1" width="0" height="358" fill="#fff" mask="url(#satori_om-id)"/></mask><mask id="satori_om-id-0-0-0-0"><rect x="1" y="1" width="0" height="358" fill="#fff" mask="url(#satori_om-id)"/></mask><mask id="satori_om-id-0-0-0-1"><rect x="1" y="1" width="0" height="358" fill="#fff" mask="url(#satori_om-id)"/></mask><mask id="satori_om-id-0-0-1"><rect x="1" y="1" width="0" height="358" fill="#fff" mask="url(#satori_om-id)"/></mask><mask id="satori_om-id-0-0-1-0"><rect x="1" y="1" width="0" height="358" fill="#fff" mask="url(#satori_om-id)"/></mask><mask id="satori_om-id-0-0-1-1"><rect x="1" y="1" width="0" height="358" fill="#fff" mask="url(#satori_om-id)"/></mask><mask id="satori_om-id-0-0-2"><rect x="1" y="1" width="0" height="358" fill="#fff" mask="url(#satori_om-id)"/></mask><mask id="satori_om-id-0-0-2-0"><rect x="1" y="1" width="0" height="358" fill="#fff" mask="url(#satori_om-id)"/></mask><mask id="satori_om-id-0-0-2-1"><rect x="1" y="1" width="0" height="358" fill="#fff" mask="url(#satori_om-id)"/></mask><mask id="satori_om-id-0-1"><rect x="1" y="1" width="0" height="358" fill="#fff" mask="url(#satori_om-id)"/></mask><mask id="satori_om-id-0-2"><rect x="1" y="1" width="0" height="358" fill="#fff" mask="url(#satori_om-id)"/></mask><mask id="satori_om-id-0-3"><rect x="1" y="1" width="0" height="358" fill="#fff" mask="url(#satori_om-id)"/></mask><mask id="satori_om-id-1"><rect x="220" y="104" width="361" height="152" fill="#fff" mask="url(#satori_om-id)"/></mask><mask id="satori_om-id-1-0"><rect x="229" y="104" width="343" height="64" fill="#fff" mask="url(#satori_om-id)"/></mask><defs><filter id="satori_s-id-1-0-0" x="-32.07%" y="-165.00%" width="174.14%" height="453.75%"><feDropShadow dx="0" dy="4" stdDeviation="10" flood-color="rgba(0,0,0,0.8)" flood-opacity="1"/></filter></defs><g filter="url(#satori_s-id-1-0-0)"><g mask="url(#satori_om-id)" clip-path="url(#satori_cp-id)"><path fill="#ffffff" d="M252.6 159.6L252.6 159.6Q249.7 159.6 247.8 158.6Q245.8 157.7 244.5 156.2Q243.3 154.8 242.7 153.4L242.7 153.4L242.2 153.4L242.2 159L233 159L233 112.4L242.4 112.4L242.4 129.9L242.7 129.9Q243.3 128.6 244.5 127.1Q245.7 125.6 247.7 124.6Q249.7 123.6 252.6 123.6L252.6 123.6Q256.5 123.6 259.7 125.6Q262.9 127.6 264.9 131.6Q266.8 135.6 266.8 141.6L266.8 141.6Q266.8 147.4 264.9 151.4Q263.0 155.4 259.8 157.5Q256.6 159.6 252.6 159.6ZM249.7 152.1L249.7 152.1Q252.1 152.1 253.8 150.7Q255.5 149.4 256.3 147Q257.2 144.6 257.2 141.6L257.2 141.6Q257.2 138.5 256.3 136.2Q255.5 133.8 253.8 132.5Q252.2 131.1 249.7 131.1L249.7 131.1Q247.3 131.1 245.6 132.4Q243.9 133.7 243.0 136.0Q242.2 138.4 242.2 141.6L242.2 141.6Q242.2 144.7 243.0 147.1Q243.9 149.4 245.6 150.8Q247.3 152.1 249.7 152.1ZM287.1 159.7L287.1 159.7Q281.8 159.7 277.9 157.5Q274.0 155.3 272.0 151.3Q269.9 147.3 269.9 141.7L269.9 141.7Q269.9 136.3 271.9 132.3Q274 128.2 277.8 125.9Q281.6 123.6 286.7 123.6L286.7 123.6Q290.1 123.6 293.1 124.7Q296.0 125.8 298.3 128.0Q300.5 130.2 301.8 133.5Q303.1 136.8 303.1 141.3L303.1 141.3L303.1 144.0L279.2 144.0Q279.3 146.6 280.2 148.5L280.2 148.5Q281.2 150.6 283.0 151.6Q284.8 152.6 287.3 152.6L287.3 152.6Q288.9 152.6 290.3 152.2Q291.6 151.7 292.6 150.8Q293.5 149.8 294.0 148.5L294.0 148.5L302.5 150.1Q301.7 153.0 299.6 155.1Q297.5 157.3 294.4 158.5Q291.2 159.7 287.1 159.7ZM279.2 138.1L279.2 138.1L294.0 138.1Q293.8 136.3 293.3 134.9L293.3 134.9Q292.4 132.9 290.8 131.8Q289.2 130.7 286.8 130.7L286.8 130.7Q284.3 130.7 282.6 131.8Q280.9 132.9 280.0 134.8L280.0 134.8Q279.4 136.3 279.2 138.1ZM323.3 159.7L323.3 159.7Q317.9 159.7 314.0 157.5Q310.2 155.3 308.1 151.3Q306 147.3 306 141.7L306 141.7Q306 136.3 308.1 132.3Q310.1 128.2 313.9 125.9Q317.7 123.6 322.8 123.6L322.8 123.6Q326.2 123.6 329.2 124.7Q332.2 125.8 334.4 128.0Q336.7 130.2 337.9 133.5Q339.2 136.8 339.2 141.3L339.2 141.3L339.2 144.0L315.3 144.0Q315.4 146.6 316.3 148.5L316.3 148.5Q317.3 150.6 319.1 151.6Q321.0 152.6 323.4 152.6L323.4 152.6Q325.1 152.6 326.4 152.2Q327.8 151.7 328.7 150.8Q329.7 149.8 330.2 148.5L330.2 148.5L338.7 150.1Q337.8 153.0 335.7 155.1Q333.6 157.3 330.5 158.5Q327.3 159.7 323.3 159.7ZM315.3 138.1L315.3 138.1L330.2 138.1Q330.0 136.3 329.4 134.9L329.4 134.9Q328.6 132.9 326.9 131.8Q325.3 130.7 322.9 130.7L322.9 130.7Q320.4 130.7 318.7 131.8Q317.0 132.9 316.2 134.8L316.2 134.8Q315.5 136.3 315.3 138.1ZM343.6 112.4L353.0 112.4L353.0 159L343.6 159L343.6 112.4ZM358.9 112.4L368.3 112.4L368.3 159L358.9 159L358.9 112.4ZM383.7 159L374.3 159L374.3 124.1L383.7 124.1L383.7 159ZM379.0 119.5L379.0 119.5Q376.8 119.5 375.3 118.1Q373.8 116.7 373.8 114.7L373.8 114.7Q373.8 112.7 375.3 111.3Q376.8 109.9 379.0 109.9L379.0 109.9Q381.1 109.9 382.6 111.3Q384.1 112.7 384.1 114.7L384.1 114.7Q384.1 116.7 382.6 118.1Q381.1 119.5 379.0 119.5ZM405.3 159.7L405.3 159.7Q400 159.7 396.2 157.4Q392.3 155.2 390.2 151.1Q388.2 147.1 388.2 141.7L388.2 141.7Q388.2 136.3 390.2 132.2Q392.3 128.2 396.2 125.9Q400 123.6 405.3 123.6L405.3 123.6Q410.5 123.6 414.4 125.9Q418.2 128.2 420.3 132.2Q422.3 136.3 422.3 141.7L422.3 141.7Q422.3 147.1 420.3 151.1Q418.2 155.2 414.4 157.4Q410.5 159.7 405.3 159.7ZM405.3 152.3L405.3 152.3Q407.8 152.3 409.4 150.9Q411.1 149.5 412.0 147.1Q412.8 144.7 412.8 141.7L412.8 141.7Q412.8 138.6 412.0 136.2Q411.1 133.8 409.4 132.4Q407.8 131 405.3 131L405.3 131Q402.8 131 401.1 132.4Q399.4 133.8 398.6 136.2Q397.7 138.6 397.7 141.7L397.7 141.7Q397.7 144.7 398.6 147.1Q399.4 149.5 401.1 150.9Q402.8 152.3 405.3 152.3ZM436.3 138.8L436.3 138.8L436.3 159L426.9 159L426.9 124.1L435.7 124.1L435.8 131.3Q437.2 128.0 439.5 126L439.5 126Q442.3 123.6 446.7 123.6L446.7 123.6Q450.3 123.6 453.0 125.2Q455.8 126.8 457.2 129.7Q458.7 132.7 458.7 136.8L458.7 136.8L458.7 159L449.3 159L449.3 138.4Q449.3 135.2 447.7 133.3Q446 131.5 443.0 131.5L443.0 131.5Q441.1 131.5 439.5 132.3Q438.0 133.2 437.1 134.8Q436.3 136.4 436.3 138.8ZM474.5 159.7L474.5 159.7Q471.2 159.7 468.5 158.5Q465.9 157.3 464.4 155.0Q462.8 152.7 462.8 149.2L462.8 149.2Q462.8 146.3 463.9 144.3Q465 142.4 466.9 141.2Q468.7 140 471.1 139.4Q473.4 138.8 476.0 138.5L476.0 138.5Q479.1 138.2 480.9 137.9Q482.8 137.7 483.6 137.1Q484.5 136.5 484.5 135.4L484.5 135.4L484.5 135.2Q484.5 133.7 483.9 132.7Q483.3 131.7 482.0 131.1Q480.8 130.6 479.0 130.6L479.0 130.6Q477.2 130.6 475.9 131.1Q474.5 131.7 473.7 132.6Q472.8 133.5 472.4 134.6L472.4 134.6L463.8 133.2Q464.8 130.1 466.8 128Q468.9 125.9 472.0 124.8Q475.2 123.6 479.1 123.6L479.1 123.6Q481.9 123.6 484.5 124.3Q487.2 125.0 489.3 126.4Q491.4 127.8 492.6 130.0Q493.9 132.3 493.9 135.5L493.9 135.5L493.9 159L485 159L485 154.2L484.7 154.2Q483.8 155.8 482.4 157.0Q481.0 158.3 479.0 159.0Q477.1 159.7 474.5 159.7ZM477.1 153.1L477.1 153.1Q479.3 153.1 481.0 152.2Q482.7 151.3 483.6 149.8Q484.6 148.3 484.6 146.5L484.6 146.5L484.6 142.7Q484.2 143.0 483.3 143.3Q482.5 143.5 481.4 143.7Q480.4 143.9 479.4 144.1Q478.4 144.2 477.6 144.3L477.6 144.3Q475.9 144.6 474.6 145.1Q473.3 145.7 472.6 146.6Q471.8 147.5 471.8 149.0L471.8 149.0Q471.8 150.3 472.5 151.2Q473.2 152.2 474.4 152.6Q475.6 153.1 477.1 153.1ZM509.3 159L499.9 159L499.9 124.1L509.3 124.1L509.3 159ZM504.6 119.5L504.6 119.5Q502.4 119.5 500.9 118.1Q499.4 116.7 499.4 114.7L499.4 114.7Q499.4 112.7 500.9 111.3Q502.4 109.9 504.6 109.9L504.6 109.9Q506.7 109.9 508.2 111.3Q509.7 112.7 509.7 114.7L509.7 114.7Q509.7 116.7 508.2 118.1Q506.7 119.5 504.6 119.5ZM524.6 159L515.2 159L515.2 124.1L524.3 124.1L524.3 130.2L524.7 130.2Q525.6 126.9 527.9 125.3Q530.2 123.6 533.1 123.6L533.1 123.6Q533.8 123.6 534.7 123.7Q535.5 123.8 536.1 123.9L536.1 123.9L536.1 132.3Q535.5 132.1 534.3 131.9Q533.1 131.8 532.1 131.8L532.1 131.8Q529.9 131.8 528.2 132.7Q526.5 133.7 525.5 135.3Q524.6 136.9 524.6 139.1L524.6 139.1L524.6 159ZM555.1 159.7L555.1 159.7Q549.7 159.7 545.8 157.5Q542.0 155.3 539.9 151.3Q537.8 147.3 537.8 141.7L537.8 141.7Q537.8 136.3 539.9 132.3Q541.9 128.2 545.7 125.9Q549.5 123.6 554.6 123.6L554.6 123.6Q558.0 123.6 561 124.7Q564.0 125.8 566.2 128.0Q568.5 130.2 569.7 133.5Q571 136.8 571 141.3L571 141.3L571 144.0L547.1 144.0Q547.2 146.6 548.1 148.5L548.1 148.5Q549.1 150.6 551.0 151.6Q552.8 152.6 555.2 152.6L555.2 152.6Q556.9 152.6 558.2 152.2Q559.6 151.7 560.5 150.8Q561.5 149.8 562.0 148.5L562.0 148.5L570.5 150.1Q569.6 153.0 567.5 155.1Q565.4 157.3 562.3 158.5Q559.2 159.7 555.1 159.7ZM547.2 138.1L547.2 138.1L562.0 138.1Q561.8 136.3 561.2 134.9L561.2 134.9Q560.4 132.9 558.7 131.8Q557.1 130.7 554.7 130.7L554.7 130.7Q552.3 130.7 550.5 131.8Q548.8 132.9 548.0 134.8L548.0 134.8Q547.3 136.3 547.2 138.1Z "/></g></g><mask id="satori_om-id-1-1"><rect x="220" y="184" width="361" height="15" fill="#fff" mask="url(#satori_om-id)"/></mask><g mask="url(#satori_om-id)" clip-path="url(#satori_cp-id)"><path fill="rgba(255,255,255,0.7)" d="M226.4 196L221.1 196L221.1 187.3L226.4 187.3L226.4 188.3L222.2 188.3L222.2 191.1L226.1 191.1L226.1 192.1L222.2 192.1L222.2 195.0L226.4 195.0L226.4 196ZM235.4 196L234.3 196L234.3 187.3L235.6 187.3L239.1 192.9Q239.3 193.1 239.5 193.4Q239.7 193.8 239.9 194.2L239.9 194.2Q240.0 194.4 240.2 194.7L240.2 194.7Q240.1 194.4 240.1 194.1L240.1 194.1Q240.1 193.7 240.1 193.3Q240.1 192.9 240.1 192.6L240.1 192.6L240.1 187.3L241.2 187.3L241.2 196L239.9 196L236.7 191.0Q236.5 190.7 236.3 190.3Q236.1 190.0 235.8 189.4L235.8 189.4Q235.6 189.1 235.3 188.6L235.3 188.6Q235.3 189.0 235.3 189.4L235.3 189.4Q235.4 190.0 235.4 190.4Q235.4 190.8 235.4 191.0L235.4 191.0L235.4 196ZM252.9 196.1L252.9 196.1Q251.7 196.1 250.8 195.6Q250.0 195.0 249.5 194.0Q249.0 193.0 249.0 191.6L249.0 191.6Q249.0 190.3 249.5 189.2Q250.0 188.2 250.8 187.7Q251.7 187.2 252.8 187.2L252.8 187.2Q253.5 187.2 254.1 187.4Q254.7 187.6 255.2 187.9Q255.6 188.3 256.0 188.8Q256.3 189.4 256.4 190.0L256.4 190.0L255.2 190.0Q255.1 189.6 254.9 189.3Q254.7 188.9 254.4 188.7Q254.0 188.4 253.7 188.3Q253.3 188.2 252.8 188.2L252.8 188.2Q252.0 188.2 251.4 188.6Q250.8 189.0 250.4 189.7Q250.1 190.5 250.1 191.6L250.1 191.6Q250.1 192.8 250.4 193.5Q250.8 194.3 251.4 194.7Q252.1 195.1 252.9 195.1L252.9 195.1Q253.6 195.1 254.2 194.8Q254.7 194.5 255.1 193.9L255.1 193.9Q255.4 193.3 255.4 192.6L255.4 192.6L253.1 192.6L253.1 191.6L256.5 191.6L256.5 192.6Q256.5 193.7 256.0 194.4Q255.5 195.2 254.7 195.7Q253.9 196.1 252.9 196.1ZM264.3 187.3L265.4 187.3L265.4 196L264.3 196L264.3 187.3ZM274.6 196L273.5 196L273.5 187.3L274.8 187.3L278.3 192.9Q278.5 193.1 278.7 193.4Q278.9 193.8 279.1 194.2L279.1 194.2Q279.3 194.4 279.4 194.7L279.4 194.7Q279.3 194.4 279.3 194.1L279.3 194.1Q279.3 193.7 279.3 193.3Q279.3 192.9 279.3 192.6L279.3 192.6L279.3 187.3L280.4 187.3L280.4 196L279.1 196L275.9 191.0Q275.7 190.7 275.5 190.3Q275.3 190.0 275.0 189.4L275.0 189.4Q274.8 189.1 274.5 188.6L274.5 188.6Q274.5 189.0 274.6 189.4L274.6 189.4Q274.6 190.0 274.6 190.4Q274.6 190.8 274.6 191.0L274.6 191.0L274.6 196ZM293.9 196L288.5 196L288.5 187.3L293.8 187.3L293.8 188.3L289.6 188.3L289.6 191.1L293.6 191.1L293.6 192.1L289.6 192.1L289.6 195.0L293.9 195.0L293.9 196ZM307.1 196L301.7 196L301.7 187.3L307.1 187.3L307.1 188.3L302.9 188.3L302.9 191.1L306.8 191.1L306.8 192.1L302.9 192.1L302.9 195.0L307.1 195.0L307.1 196ZM316.1 196L315.0 196L315.0 187.3L317.9 187.3Q319.0 187.3 319.6 187.6Q320.3 188.0 320.6 188.6Q320.9 189.2 320.9 190.0Q320.9 190.7 320.6 191.3Q320.3 191.9 319.6 192.3L319.6 192.3Q319.5 192.4 319.3 192.4L319.3 192.4L321.3 196L320.0 196L318.2 192.6Q318.1 192.6 317.9 192.6L317.9 192.6L316.1 192.6L316.1 196ZM316.1 188.2L316.1 191.6L317.9 191.6Q318.6 191.6 319.0 191.4Q319.4 191.2 319.6 190.8Q319.8 190.5 319.8 190.0L319.8 190.0Q319.8 189.4 319.6 189.1Q319.4 188.7 319 188.5Q318.6 188.2 317.9 188.2L317.9 188.2L316.1 188.2ZM328.7 187.3L329.8 187.3L329.8 196L328.7 196L328.7 187.3ZM339.0 196L337.9 196L337.9 187.3L339.2 187.3L342.8 192.9Q342.9 193.1 343.1 193.4Q343.3 193.8 343.5 194.2L343.5 194.2Q343.7 194.4 343.8 194.7L343.8 194.7Q343.8 194.4 343.8 194.1L343.8 194.1Q343.7 193.7 343.7 193.3Q343.7 192.9 343.7 192.6L343.7 192.6L343.7 187.3L344.8 187.3L344.8 196L343.5 196L340.3 191.0Q340.1 190.7 339.9 190.3Q339.7 190.0 339.4 189.4L339.4 189.4Q339.2 189.1 338.9 188.6L338.9 188.6Q338.9 189.0 339.0 189.4L339.0 189.4Q339.0 190.0 339.0 190.4Q339.0 190.8 339.0 191.0L339.0 191.0L339.0 196ZM356.5 196.1L356.5 196.1Q355.3 196.1 354.5 195.6Q353.6 195.0 353.1 194.0Q352.6 193.0 352.6 191.6L352.6 191.6Q352.6 190.3 353.1 189.2Q353.6 188.2 354.4 187.7Q355.3 187.2 356.4 187.2L356.4 187.2Q357.1 187.2 357.7 187.4Q358.3 187.6 358.8 187.9Q359.3 188.3 359.6 188.8Q359.9 189.4 360.0 190.0L360.0 190.0L358.9 190.0Q358.7 189.6 358.5 189.3Q358.3 188.9 358.0 188.7Q357.7 188.4 357.3 188.3Q356.9 188.2 356.4 188.2L356.4 188.2Q355.7 188.2 355.0 188.6Q354.4 189.0 354.1 189.7Q353.7 190.5 353.7 191.6L353.7 191.6Q353.7 192.8 354.1 193.5Q354.4 194.3 355.1 194.7Q355.7 195.1 356.5 195.1L356.5 195.1Q357.2 195.1 357.8 194.8Q358.4 194.5 358.7 193.9L358.7 193.9Q359.0 193.3 359.0 192.6L359.0 192.6L356.7 192.6L356.7 191.6L360.1 191.6L360.1 192.6Q360.1 193.7 359.6 194.4Q359.2 195.2 358.4 195.7Q357.5 196.1 356.5 196.1Z M377.9 192.6L377.9 192.6Q377.6 192.6 377.4 192.4Q377.1 192.2 377.1 191.9L377.1 191.9Q377.1 191.5 377.4 191.3Q377.6 191.1 377.9 191.1L377.9 191.1Q378.3 191.1 378.5 191.3Q378.7 191.5 378.7 191.9L378.7 191.9Q378.7 192.2 378.5 192.4Q378.3 192.6 377.9 192.6Z M399.5 196.1L399.5 196.1Q398.5 196.1 397.7 195.7Q396.9 195.3 396.5 194.6Q396.1 193.9 396.1 193.0L396.1 193.0L396.1 187.3L397.2 187.3L397.2 192.9Q397.2 193.6 397.5 194.1Q397.8 194.5 398.3 194.8Q398.8 195.1 399.5 195.1L399.5 195.1Q400.2 195.1 400.7 194.8Q401.3 194.5 401.5 194.1Q401.8 193.6 401.8 192.9L401.8 192.9L401.8 187.3L402.9 187.3L402.9 193.0Q402.9 193.9 402.5 194.6Q402.1 195.3 401.3 195.7Q400.5 196.1 399.5 196.1ZM411.0 187.3L412.1 187.3L412.1 196L411.0 196L411.0 187.3ZM422.3 186.9L423.3 186.9L420.4 197.3L419.5 197.3L422.3 186.9ZM434.0 196.1L434.0 196.1Q433.0 196.1 432.2 195.7Q431.4 195.3 431.0 194.6Q430.6 193.9 430.6 193.0L430.6 193.0L430.6 187.3L431.7 187.3L431.7 192.9Q431.7 193.6 432.0 194.1Q432.2 194.5 432.8 194.8Q433.3 195.1 434.0 195.1L434.0 195.1Q434.7 195.1 435.2 194.8Q435.7 194.5 436.0 194.1Q436.3 193.6 436.3 192.9L436.3 192.9L436.3 187.3L437.4 187.3L437.4 193.0Q437.4 193.9 437.0 194.6Q436.6 195.3 435.8 195.7Q435.0 196.1 434.0 196.1ZM446.0 196L444.8 196L447.9 191.5L445.0 187.3L446.3 187.3L447.5 189.1Q447.8 189.5 448.0 189.8Q448.2 190.1 448.3 190.4L448.3 190.4Q448.4 190.6 448.6 190.8L448.6 190.8Q448.7 190.6 448.8 190.4L448.8 190.4Q448.9 190.1 449.1 189.8Q449.3 189.5 449.6 189.1L449.6 189.1L450.9 187.3L452.1 187.3L449.2 191.5L452.3 196L451.0 196L449.5 193.8Q449.2 193.4 449.1 193.2Q448.9 192.9 448.8 192.6L448.8 192.6Q448.7 192.5 448.5 192.3L448.5 192.3Q448.4 192.5 448.3 192.6L448.3 192.6Q448.2 192.9 448.0 193.1Q447.8 193.4 447.6 193.8L447.6 193.8L446.0 196Z M469.7 192.6L469.7 192.6Q469.4 192.6 469.2 192.4Q468.9 192.2 468.9 191.9L468.9 191.9Q468.9 191.5 469.2 191.3Q469.4 191.1 469.7 191.1L469.7 191.1Q470.1 191.1 470.3 191.3Q470.5 191.5 470.5 191.9L470.5 191.9Q470.5 192.2 470.3 192.4Q470.1 192.6 469.7 192.6Z M489.0 196L487.9 196L487.9 187.3L493.2 187.3L493.2 188.3L489.0 188.3L489.0 191.2L492.8 191.2L492.8 192.2L489.0 192.2L489.0 196ZM501.0 187.3L502.1 187.3L502.1 196L501.0 196L501.0 187.3ZM511.3 196L510.2 196L510.2 187.3L511.5 187.3L515.1 192.9Q515.2 193.1 515.4 193.4Q515.6 193.8 515.8 194.2L515.8 194.2Q516.0 194.4 516.1 194.7L516.1 194.7Q516.1 194.4 516.1 194.1L516.1 194.1Q516.0 193.7 516.0 193.3Q516.0 192.9 516.0 192.6L516.0 192.6L516.0 187.3L517.1 187.3L517.1 196L515.8 196L512.6 191.0Q512.4 190.7 512.2 190.3Q512.0 190.0 511.7 189.4L511.7 189.4Q511.5 189.1 511.2 188.6L511.2 188.6Q511.3 189.0 511.3 189.4L511.3 189.4Q511.3 190.0 511.3 190.4Q511.3 190.8 511.3 191.0L511.3 191.0L511.3 196ZM527.5 188.3L524.8 188.3L524.8 187.3L531.4 187.3L531.4 188.3L528.6 188.3L528.6 196L527.5 196L527.5 188.3ZM544.4 196L539.0 196L539.0 187.3L544.3 187.3L544.3 188.3L540.1 188.3L540.1 191.1L544.0 191.1L544.0 192.1L540.1 192.1L540.1 195.0L544.4 195.0L544.4 196ZM555.7 196.1L555.7 196.1Q554.6 196.1 553.7 195.6Q552.9 195.0 552.4 194.0Q551.9 193.0 551.9 191.6L551.9 191.6Q551.9 190.3 552.4 189.2Q552.9 188.2 553.7 187.7Q554.6 187.2 555.7 187.2L555.7 187.2Q556.4 187.2 557.0 187.3Q557.6 187.5 558.0 187.9Q558.5 188.3 558.8 188.8Q559.1 189.3 559.3 190.0L559.3 190.0L558.1 190.0Q558.1 189.6 557.8 189.2Q557.6 188.9 557.3 188.7Q556.9 188.4 556.6 188.3Q556.2 188.2 555.7 188.2L555.7 188.2Q555.0 188.2 554.3 188.6Q553.7 189.0 553.3 189.8Q552.9 190.5 552.9 191.6L552.9 191.6Q552.9 192.8 553.3 193.5Q553.7 194.3 554.3 194.7Q555.0 195.1 555.7 195.1L555.7 195.1Q556.2 195.1 556.6 195.0Q556.9 194.8 557.3 194.6Q557.6 194.4 557.8 194.0Q558.1 193.7 558.1 193.3L558.1 193.3L559.3 193.3Q559.1 193.9 558.8 194.4Q558.5 195.0 558.1 195.3Q557.6 195.7 557.0 195.9Q556.4 196.1 555.7 196.1ZM568.1 196L567.0 196L567.0 187.3L568.1 187.3L568.1 191.0L572.7 191.0L572.7 187.3L573.8 187.3L573.8 196L572.7 196L572.7 192.0L568.1 192.0L568.1 196Z "/></g><mask id="satori_om-id-1-2"><rect x="253" y="229" width="295" height="27" fill="#fff" mask="url(#satori_om-id)"/></mask><defs><clipPath id="satori_bc-id-1-2-0" clip-path="url(#satori_cp-id)"><path x="253" y="229" width="80" height="27" d="M261,229 h64 a8,8 0 0 1 8,8 v11 a8,8 0 0 1 -8,8 h-64 a8,8 0 0 1 -8,-8 v-11 a8,8 0 0 1 8,-8"/></clipPath></defs><mask id="satori_om-id-1-2-0"><rect x="254" y="230" width="78" height="25" fill="#fff" mask="url(#satori_om-id)"/><path width="80" height="27" fill="none" stroke="#000" stroke-width="2" d="M255.343,231.343 A8,8 0 0 1 261,229 h64 a8,8 0 0 1 8,8 v11 a8,8 0 0 1 -8,8 h-64 a8,8 0 0 1 -8,-8 v-11 A8,8 0 0 1 255.343,231.343"/></mask><path x="253" y="229" width="80" height="27" fill="rgba(255,255,255,0.05)" d="M261,229 h64 a8,8 0 0 1 8,8 v11 a8,8 0 0 1 -8,8 h-64 a8,8 0 0 1 -8,-8 v-11 a8,8 0 0 1 8,-8" clip-path="url(#satori_cp-id)" mask="url(#satori_om-id)"/><path width="80" height="27" clip-path="url(#satori_bc-id-1-2-0)" fill="none" stroke="rgba(255,255,255,0.15)" stroke-width="2" d="M255.343,231.343 A8,8 0 0 1 261,229 h64 a8,8 0 0 1 8,8 v11 a8,8 0 0 1 -8,8 h-64 a8,8 0 0 1 -8,-8 v-11 A8,8 0 0 1 255.343,231.343"/><g mask="url(#satori_om-id)" clip-path="url(#satori_cp-id)"><path fill="rgba(255,255,255,0.9)" d="M272.8 239.0L273.8 239.0L273.8 247L272.8 247L272.8 239.0ZM278.2 247.1L278.2 247.1Q277.6 247.1 277.2 246.9Q276.7 246.7 276.4 246.3Q276.1 245.9 276.1 245.3L276.1 245.3Q276.1 244.8 276.4 244.5Q276.6 244.1 276.9 243.9Q277.2 243.8 277.7 243.7Q278.1 243.6 278.5 243.5L278.5 243.5Q279.0 243.5 279.4 243.4Q279.7 243.4 279.9 243.3Q280.0 243.2 280.0 243.0L280.0 243.0L280.0 242.9Q280.0 242.6 279.9 242.3Q279.7 242.0 279.5 241.9Q279.2 241.8 278.8 241.8L278.8 241.8Q278.3 241.8 278.0 241.9Q277.7 242.0 277.5 242.2Q277.3 242.4 277.2 242.6L277.2 242.6L276.3 242.3Q276.6 241.8 276.9 241.5Q277.3 241.2 277.8 241.0Q278.3 240.9 278.7 240.9L278.7 240.9Q279.0 240.9 279.4 241.0Q279.8 241.1 280.2 241.3Q280.5 241.5 280.8 241.9Q281.0 242.3 281.0 243.0L281.0 243.0L281.0 247L280.0 247L280.0 246.2L280.0 246.2Q279.9 246.4 279.6 246.6Q279.4 246.8 279.1 247.0Q278.7 247.1 278.2 247.1ZM278.4 246.3L278.4 246.3Q278.9 246.3 279.3 246.1Q279.6 245.9 279.8 245.5Q280.0 245.2 280.0 244.8L280.0 244.8L280.0 244.0Q280.0 244.1 279.8 244.1Q279.6 244.2 279.3 244.2Q279.1 244.3 278.8 244.3Q278.6 244.3 278.4 244.3L278.4 244.3Q278.1 244.4 277.8 244.5Q277.5 244.6 277.3 244.8Q277.1 245.0 277.1 245.3L277.1 245.3Q277.1 245.7 277.3 245.9Q277.4 246.1 277.7 246.2Q278.0 246.3 278.4 246.3ZM284.7 247L283.7 247L283.7 241.0L284.6 241.0L284.6 241.9L284.7 241.9Q284.9 241.5 285.3 241.2Q285.7 240.9 286.2 240.9L286.2 240.9Q286.4 240.9 286.5 240.9Q286.6 240.9 286.7 240.9L286.7 240.9L286.7 241.9Q286.7 241.9 286.5 241.9Q286.3 241.8 286.2 241.8L286.2 241.8Q285.7 241.8 285.4 242.0Q285.0 242.2 284.8 242.5Q284.7 242.8 284.7 243.2L284.7 243.2L284.7 247ZM290.5 247.1L290.5 247.1Q289.9 247.1 289.5 246.9Q289.0 246.7 288.7 246.3Q288.5 245.9 288.5 245.3L288.5 245.3Q288.5 244.8 288.7 244.5Q288.9 244.1 289.2 243.9Q289.6 243.8 290.0 243.7Q290.4 243.6 290.8 243.5L290.8 243.5Q291.3 243.5 291.7 243.4Q292.0 243.4 292.2 243.3Q292.3 243.2 292.3 243.0L292.3 243.0L292.3 242.9Q292.3 242.6 292.2 242.3Q292.1 242.0 291.8 241.9Q291.5 241.8 291.1 241.8L291.1 241.8Q290.7 241.8 290.4 241.9Q290.0 242.0 289.9 242.2Q289.7 242.4 289.6 242.6L289.6 242.6L288.6 242.3Q288.9 241.8 289.3 241.5Q289.7 241.2 290.1 241.0Q290.6 240.9 291.1 240.9L291.1 240.9Q291.4 240.9 291.7 241.0Q292.1 241.1 292.5 241.3Q292.8 241.5 293.1 241.9Q293.3 242.3 293.3 243.0L293.3 243.0L293.3 247L292.4 247L292.4 246.2L292.3 246.2Q292.2 246.4 292.0 246.6Q291.7 246.8 291.4 247.0Q291.0 247.1 290.5 247.1ZM290.7 246.3L290.7 246.3Q291.2 246.3 291.6 246.1Q292.0 245.9 292.1 245.5Q292.3 245.2 292.3 244.8L292.3 244.8L292.3 244.0Q292.3 244.1 292.1 244.1Q291.9 244.2 291.6 244.2Q291.4 244.3 291.1 244.3Q290.9 244.3 290.8 244.3L290.8 244.3Q290.4 244.4 290.1 244.5Q289.8 244.6 289.6 244.8Q289.4 245.0 289.4 245.3L289.4 245.3Q289.4 245.7 289.6 245.9Q289.8 246.1 290.0 246.2Q290.3 246.3 290.7 246.3ZM298.8 247L297.7 247L295.4 241.0L296.5 241.0L297.8 244.6Q298.0 245.1 298.1 245.7L298.1 245.7Q298.2 245.9 298.3 246.1L298.3 246.1Q298.3 245.9 298.4 245.7L298.4 245.7Q298.5 245.1 298.7 244.6L298.7 244.6L300.0 241.0L301.1 241.0L298.8 247ZM305.7 247.1L305.7 247.1Q304.8 247.1 304.2 246.7Q303.6 246.4 303.2 245.7Q302.9 245.0 302.9 244.0Q302.9 243.1 303.2 242.4Q303.6 241.7 304.2 241.3Q304.8 240.9 305.6 240.9L305.6 240.9Q306.1 240.9 306.5 241.1Q307.0 241.2 307.4 241.6Q307.8 241.9 308.0 242.5Q308.2 243.1 308.2 243.9L308.2 243.9L308.2 244.3L303.9 244.3Q303.9 244.9 304.1 245.3L304.1 245.3Q304.3 245.8 304.8 246.0Q305.2 246.3 305.7 246.3L305.7 246.3Q306.1 246.3 306.4 246.2Q306.7 246.1 306.9 245.9Q307.1 245.7 307.2 245.3L307.2 245.3L308.1 245.6Q308.0 246.1 307.6 246.4Q307.3 246.7 306.8 246.9Q306.3 247.1 305.7 247.1ZM303.9 243.5L303.9 243.5L307.2 243.5Q307.2 243.1 307.1 242.8L307.1 242.8Q306.9 242.3 306.5 242.0Q306.1 241.8 305.6 241.8Q305.1 241.8 304.7 242.0Q304.3 242.3 304.1 242.7L304.1 242.7Q303.9 243.1 303.9 243.5ZM310.6 239.0L311.6 239.0L311.6 247L310.6 247L310.6 239.0Z "/></g><defs><clipPath id="satori_bc-id-1-2-1" clip-path="url(#satori_cp-id)"><path x="343" y="229" width="97" height="27" d="M351,229 h81 a8,8 0 0 1 8,8 v11 a8,8 0 0 1 -8,8 h-81 a8,8 0 0 1 -8,-8 v-11 a8,8 0 0 1 8,-8"/></clipPath></defs><mask id="satori_om-id-1-2-1"><rect x="344" y="230" width="95" height="25" fill="#fff" mask="url(#satori_om-id)"/><path width="97" height="27" fill="none" stroke="#000" stroke-width="2" d="M345.343,231.343 A8,8 0 0 1 351,229 h81 a8,8 0 0 1 8,8 v11 a8,8 0 0 1 -8,8 h-81 a8,8 0 0 1 -8,-8 v-11 A8,8 0 0 1 345.343,231.343"/></mask><path x="343" y="229" width="97" height="27" fill="rgba(255,255,255,0.05)" d="M351,229 h81 a8,8 0 0 1 8,8 v11 a8,8 0 0 1 -8,8 h-81 a8,8 0 0 1 -8,-8 v-11 a8,8 0 0 1 8,-8" clip-path="url(#satori_cp-id)" mask="url(#satori_om-id)"/><path width="97" height="27" clip-path="url(#satori_bc-id-1-2-1)" fill="none" stroke="rgba(255,255,255,0.15)" stroke-width="2" d="M345.343,231.343 A8,8 0 0 1 351,229 h81 a8,8 0 0 1 8,8 v11 a8,8 0 0 1 -8,8 h-81 a8,8 0 0 1 -8,-8 v-11 A8,8 0 0 1 345.343,231.343"/><g mask="url(#satori_om-id)" clip-path="url(#satori_cp-id)"><path fill="rgba(255,255,255,0.9)" d="M364.3 241.0L365.6 241.0L365.6 241.8L364.3 241.8L364.3 247L363.3 247L363.3 241.8L362.1 241.8L362.1 241.0L363.3 241.0L363.3 240.2Q363.3 239.7 363.5 239.3Q363.8 239.0 364.2 238.8Q364.6 238.6 365.0 238.6L365.0 238.6Q365.3 238.6 365.6 238.7Q365.8 238.7 365.9 238.8L365.9 238.8L365.6 239.6Q365.6 239.6 365.4 239.6Q365.3 239.5 365.1 239.5L365.1 239.5Q364.7 239.5 364.5 239.7Q364.3 240.0 364.3 240.4L364.3 240.4L364.3 241.0ZM370.0 247.1L370.0 247.1Q369.3 247.1 368.9 246.8Q368.4 246.6 368.2 246.1Q367.9 245.6 367.9 244.8L367.9 244.8L367.9 241.0L368.9 241.0L368.9 244.7Q368.9 245.4 369.3 245.8Q369.6 246.2 370.2 246.2L370.2 246.2Q370.7 246.2 371.0 246.0Q371.4 245.8 371.6 245.5Q371.8 245.1 371.8 244.6L371.8 244.6L371.8 241.0L372.7 241.0L372.7 247L371.8 247L371.8 245.9Q371.5 246.5 371.1 246.7L371.1 246.7Q370.6 247.1 370.0 247.1ZM375.4 239.0L376.4 239.0L376.4 247L375.4 247L375.4 239.0ZM379.1 239.0L380.1 239.0L380.1 247L379.1 247L379.1 239.0ZM382.7 243.1L386.2 243.1L386.2 244.0L382.7 244.0L382.7 243.1ZM390.9 247.1L390.9 247.1Q390.2 247.1 389.8 246.9Q389.3 246.8 389.0 246.4Q388.7 246.1 388.5 245.5L388.5 245.5L389.5 245.3Q389.6 245.8 389.9 246.0Q390.3 246.3 390.8 246.3L390.8 246.3Q391.5 246.3 391.8 246.0Q392.2 245.7 392.2 245.4L392.2 245.4Q392.2 245.1 392.0 244.9Q391.8 244.6 391.3 244.5L391.3 244.5L390.3 244.3Q389.5 244.1 389.1 243.7Q388.7 243.3 388.7 242.7L388.7 242.7Q388.7 242.2 389.0 241.8Q389.3 241.4 389.8 241.1Q390.3 240.9 390.9 240.9L390.9 240.9Q391.6 240.9 392.0 241.1Q392.4 241.3 392.7 241.6Q393.0 241.9 393.1 242.4L393.1 242.4L392.2 242.6Q392.1 242.3 391.8 242.0Q391.5 241.7 391.0 241.7L391.0 241.7Q390.4 241.7 390.1 242.0Q389.7 242.2 389.7 242.6L389.7 242.6Q389.7 242.9 389.9 243.1Q390.2 243.3 390.7 243.5L390.7 243.5L391.6 243.7Q392.4 243.9 392.8 244.3Q393.2 244.7 393.2 245.3L393.2 245.3Q393.2 245.8 392.9 246.2Q392.6 246.7 392.1 246.9Q391.6 247.1 390.9 247.1ZM396.7 241.0L398.0 241.0L398.0 241.8L396.7 241.8L396.7 245.4Q396.7 245.8 396.9 246.0Q397.1 246.2 397.5 246.2L397.5 246.2Q397.5 246.2 397.7 246.2Q397.8 246.2 397.9 246.2L397.9 246.2L398.1 247.0Q398.0 247.0 397.8 247.0Q397.6 247.1 397.4 247.1L397.4 247.1Q396.6 247.1 396.2 246.7Q395.8 246.3 395.8 245.5L395.8 245.5L395.8 241.8L394.9 241.8L394.9 241.0L395.8 241.0L395.8 239.6L396.7 239.6L396.7 241.0ZM401.9 247.1L401.9 247.1Q401.3 247.1 400.9 246.9Q400.4 246.7 400.1 246.3Q399.9 245.9 399.9 245.3L399.9 245.3Q399.9 244.8 400.1 244.5Q400.3 244.1 400.6 243.9Q400.9 243.8 401.4 243.7Q401.8 243.6 402.2 243.5L402.2 243.5Q402.7 243.5 403.1 243.4Q403.4 243.4 403.6 243.3Q403.7 243.2 403.7 243.0L403.7 243.0L403.7 242.9Q403.7 242.6 403.6 242.3Q403.5 242.0 403.2 241.9Q402.9 241.8 402.5 241.8L402.5 241.8Q402.0 241.8 401.7 241.9Q401.4 242.0 401.2 242.2Q401.0 242.4 401.0 242.6L401.0 242.6L400.0 242.3Q400.3 241.8 400.6 241.5Q401.0 241.2 401.5 241.0Q402.0 240.9 402.4 240.9L402.4 240.9Q402.7 240.9 403.1 241.0Q403.5 241.1 403.9 241.3Q404.2 241.5 404.5 241.9Q404.7 242.3 404.7 243.0L404.7 243.0L404.7 247L403.7 247L403.7 246.2L403.7 246.2Q403.6 246.4 403.4 246.6Q403.1 246.8 402.8 247.0Q402.4 247.1 401.9 247.1ZM402.1 246.3L402.1 246.3Q402.6 246.3 403.0 246.1Q403.3 245.9 403.5 245.5Q403.7 245.2 403.7 244.8L403.7 244.8L403.7 244.0Q403.7 244.1 403.5 244.1Q403.3 244.2 403.0 244.2Q402.8 244.3 402.5 244.3Q402.3 244.3 402.1 244.3L402.1 244.3Q401.8 244.4 401.5 244.5Q401.2 244.6 401.0 244.8Q400.8 245.0 400.8 245.3L400.8 245.3Q400.8 245.7 401.0 245.9Q401.1 246.1 401.4 246.2Q401.7 246.3 402.1 246.3ZM409.8 247.1L409.8 247.1Q409.0 247.1 408.4 246.7Q407.8 246.4 407.4 245.7Q407.1 245.0 407.1 244.0L407.1 244.0Q407.1 243.1 407.4 242.4Q407.8 241.7 408.4 241.3Q409.0 240.9 409.8 240.9L409.8 240.9Q410.3 240.9 410.7 241.0Q411.0 241.1 411.4 241.4Q411.7 241.6 411.9 241.9Q412.1 242.2 412.3 242.6L412.3 242.6L411.3 242.8Q411.3 242.6 411.1 242.4Q411.0 242.2 410.8 242.1Q410.6 241.9 410.4 241.9Q410.1 241.8 409.8 241.8L409.8 241.8Q409.2 241.8 408.8 242.1Q408.5 242.4 408.3 242.9Q408.1 243.4 408.1 244.0L408.1 244.0Q408.1 244.6 408.3 245.1Q408.5 245.6 408.8 246.0Q409.2 246.3 409.8 246.3L409.8 246.3Q410.1 246.3 410.4 246.2Q410.6 246.1 410.8 246.0Q411.0 245.8 411.2 245.6Q411.3 245.4 411.4 245.2L411.4 245.2L412.3 245.4Q412.2 245.8 411.9 246.1Q411.7 246.5 411.4 246.7Q411.1 246.9 410.7 247.0Q410.3 247.1 409.8 247.1ZM415.6 247L414.7 247L414.7 239.0L415.6 239.0L415.6 243.6L415.8 243.6L418.3 241.0L419.5 241.0L417.0 243.6L419.7 247L418.5 247L416.3 244.2L415.6 244.8L415.6 247Z "/></g><defs><clipPath id="satori_bc-id-1-2-2" clip-path="url(#satori_cp-id)"><path x="450" y="229" width="98" height="27" d="M458,229 h82 a8,8 0 0 1 8,8 v11 a8,8 0 0 1 -8,8 h-82 a8,8 0 0 1 -8,-8 v-11 a8,8 0 0 1 8,-8"/></clipPath></defs><mask id="satori_om-id-1-2-2"><rect x="451" y="230" width="96" height="25" fill="#fff" mask="url(#satori_om-id)"/><path width="98" height="27" fill="none" stroke="#000" stroke-width="2" d="M452.343,231.343 A8,8 0 0 1 458,229 h82 a8,8 0 0 1 8,8 v11 a8,8 0 0 1 -8,8 h-82 a8,8 0 0 1 -8,-8 v-11 A8,8 0 0 1 452.343,231.343"/></mask><path x="450" y="229" width="98" height="27" fill="rgba(255,255,255,0.05)" d="M458,229 h82 a8,8 0 0 1 8,8 v11 a8,8 0 0 1 -8,8 h-82 a8,8 0 0 1 -8,-8 v-11 a8,8 0 0 1 8,-8" clip-path="url(#satori_cp-id)" mask="url(#satori_om-id)"/><path width="98" height="27" clip-path="url(#satori_bc-id-1-2-2)" fill="none" stroke="rgba(255,255,255,0.15)" stroke-width="2" d="M452.343,231.343 A8,8 0 0 1 458,229 h82 a8,8 0 0 1 8,8 v11 a8,8 0 0 1 -8,8 h-82 a8,8 0 0 1 -8,-8 v-11 A8,8 0 0 1 452.343,231.343"/><g mask="url(#satori_om-id)" clip-path="url(#satori_cp-id)"><path fill="rgba(255,255,255,0.9)" d="M470.8 247L469.8 247L469.8 241.0L470.8 241.0L470.8 247ZM470.3 240.0L470.3 240.0Q470.1 240.0 469.9 239.8Q469.7 239.6 469.7 239.4L469.7 239.4Q469.7 239.1 469.9 238.9Q470.1 238.7 470.3 238.7L470.3 238.7Q470.6 238.7 470.8 238.9Q471.0 239.1 471.0 239.4L471.0 239.4Q471.0 239.6 470.8 239.8Q470.6 240.0 470.3 240.0ZM474.5 243.4L474.5 243.4L474.5 247L473.5 247L473.5 241.0L474.4 241.0L474.4 242.1Q474.7 241.5 475.1 241.3L475.1 241.3Q475.6 240.9 476.3 240.9L476.3 240.9Q476.9 240.9 477.3 241.2Q477.8 241.4 478.1 241.9Q478.3 242.4 478.3 243.2L478.3 243.2L478.3 247L477.3 247L477.3 243.3Q477.3 242.6 477.0 242.2Q476.6 241.8 476.0 241.8L476.0 241.8Q475.6 241.8 475.2 242.0Q474.9 242.2 474.7 242.5Q474.5 242.9 474.5 243.4ZM483.3 247.1L483.3 247.1Q482.5 247.1 481.9 246.7Q481.4 246.4 481.0 245.7Q480.7 245.0 480.7 244.0L480.7 244.0Q480.7 243.1 481.0 242.4Q481.4 241.7 481.9 241.3Q482.5 240.9 483.3 240.9L483.3 240.9Q483.9 240.9 484.2 241.1Q484.5 241.3 484.7 241.6Q484.9 241.8 485.0 242.0L485.0 242.0L485.1 242.0L485.1 239.0L486.0 239.0L486.0 247L485.1 247L485.1 246.1L485.0 246.1Q484.9 246.2 484.7 246.5Q484.5 246.7 484.2 246.9Q483.8 247.1 483.3 247.1ZM483.4 246.3L483.4 246.3Q484.0 246.3 484.3 246.0Q484.7 245.7 484.9 245.2Q485.1 244.7 485.1 244.0L485.1 244.0Q485.1 243.3 484.9 242.8Q484.7 242.3 484.3 242.1Q484.0 241.8 483.4 241.8L483.4 241.8Q482.8 241.8 482.5 242.1Q482.1 242.4 481.9 242.9Q481.7 243.4 481.7 244.0L481.7 244.0Q481.7 244.6 481.9 245.1Q482.1 245.7 482.5 246.0Q482.8 246.3 483.4 246.3ZM491.2 247.1L491.2 247.1Q490.4 247.1 489.8 246.7Q489.1 246.4 488.8 245.7Q488.5 245.0 488.5 244.0L488.5 244.0Q488.5 243.1 488.8 242.4Q489.1 241.7 489.8 241.3Q490.4 240.9 491.2 240.9L491.2 240.9Q492.0 240.9 492.6 241.3Q493.2 241.7 493.6 242.4Q493.9 243.1 493.9 244.0L493.9 244.0Q493.9 245.0 493.6 245.7Q493.2 246.4 492.6 246.7Q492.0 247.1 491.2 247.1ZM491.2 246.3L491.2 246.3Q491.8 246.3 492.2 246.0Q492.6 245.6 492.8 245.1Q493.0 244.6 493.0 244.0L493.0 244.0Q493.0 243.4 492.8 242.9Q492.6 242.4 492.2 242.1Q491.8 241.8 491.2 241.8L491.2 241.8Q490.6 241.8 490.2 242.1Q489.8 242.4 489.6 242.9Q489.4 243.4 489.4 244.0L489.4 244.0Q489.4 244.6 489.6 245.1Q489.8 245.6 490.2 246.0Q490.6 246.3 491.2 246.3ZM497.3 243.4L497.3 243.4L497.3 247L496.3 247L496.3 241.0L497.3 241.0L497.3 242.1Q497.5 241.5 497.9 241.3L497.9 241.3Q498.4 240.9 499.1 240.9L499.1 240.9Q499.7 240.9 500.2 241.2Q500.6 241.4 500.9 241.9Q501.1 242.4 501.1 243.2L501.1 243.2L501.1 247L500.2 247L500.2 243.3Q500.2 242.6 499.8 242.2Q499.5 241.8 498.8 241.8L498.8 241.8Q498.4 241.8 498.1 242.0Q497.7 242.2 497.5 242.5Q497.3 242.9 497.3 243.4ZM506.4 247.1L506.4 247.1Q505.5 247.1 504.9 246.7Q504.2 246.4 503.9 245.7Q503.6 245.0 503.6 244.0Q503.6 243.1 503.9 242.4Q504.2 241.7 504.8 241.3Q505.4 240.9 506.3 240.9L506.3 240.9Q506.7 240.9 507.2 241.1Q507.7 241.2 508.0 241.6Q508.4 241.9 508.6 242.5Q508.9 243.1 508.9 243.9L508.9 243.9L508.9 244.3L504.5 244.3Q504.6 244.9 504.8 245.3L504.8 245.3Q505.0 245.8 505.4 246.0Q505.8 246.3 506.4 246.3L506.4 246.3Q506.7 246.3 507.0 246.2Q507.3 246.1 507.5 245.9Q507.7 245.7 507.8 245.3L507.8 245.3L508.8 245.6Q508.6 246.1 508.3 246.4Q508.0 246.7 507.5 246.9Q507.0 247.1 506.4 247.1ZM504.5 243.5L504.5 243.5L507.9 243.5Q507.8 243.1 507.7 242.8L507.7 242.8Q507.5 242.3 507.2 242.0Q506.8 241.8 506.3 241.8Q505.7 241.8 505.3 242.0Q504.9 242.3 504.7 242.7L504.7 242.7Q504.6 243.1 504.5 243.5ZM513.3 247.1L513.3 247.1Q512.7 247.1 512.2 246.9Q511.7 246.8 511.4 246.4Q511.1 246.1 511.0 245.5L511.0 245.5L511.9 245.3Q512.0 245.8 512.4 246.0Q512.7 246.3 513.3 246.3L513.3 246.3Q513.9 246.3 514.3 246.0Q514.7 245.7 514.7 245.4L514.7 245.4Q514.7 245.1 514.4 244.9Q514.2 244.6 513.8 244.5L513.8 244.5L512.8 244.3Q512.0 244.1 511.6 243.7Q511.2 243.3 511.2 242.7L511.2 242.7Q511.2 242.2 511.5 241.8Q511.7 241.4 512.3 241.1Q512.8 240.9 513.4 240.9L513.4 240.9Q514.0 240.9 514.4 241.1Q514.9 241.3 515.1 241.6Q515.4 241.9 515.6 242.4L515.6 242.4L514.7 242.6Q514.6 242.3 514.3 242.0Q514.0 241.7 513.4 241.7L513.4 241.7Q512.9 241.7 512.5 242.0Q512.1 242.2 512.1 242.6L512.1 242.6Q512.1 242.9 512.4 243.1Q512.6 243.3 513.2 243.5L513.2 243.5L514.1 243.7Q514.9 243.9 515.3 244.3Q515.7 244.7 515.7 245.3L515.7 245.3Q515.7 245.8 515.4 246.2Q515.1 246.7 514.5 246.9Q514.0 247.1 513.3 247.1ZM519.0 247L518.1 247L518.1 241.0L519.0 241.0L519.0 247ZM518.5 240.0L518.5 240.0Q518.3 240.0 518.1 239.8Q517.9 239.6 517.9 239.4L517.9 239.4Q517.9 239.1 518.1 238.9Q518.3 238.7 518.5 238.7L518.5 238.7Q518.8 238.7 519.0 238.9Q519.2 239.1 519.2 239.4L519.2 239.4Q519.2 239.6 519.0 239.8Q518.8 240.0 518.5 240.0ZM523.4 247.1L523.4 247.1Q522.8 247.1 522.4 246.9Q521.9 246.7 521.6 246.3Q521.4 245.9 521.4 245.3L521.4 245.3Q521.4 244.8 521.6 244.5Q521.8 244.1 522.1 243.9Q522.5 243.8 522.9 243.7Q523.3 243.6 523.7 243.5L523.7 243.5Q524.2 243.5 524.6 243.4Q524.9 243.4 525.1 243.3Q525.2 243.2 525.2 243.0L525.2 243.0L525.2 242.9Q525.2 242.6 525.1 242.3Q525.0 242.0 524.7 241.9Q524.4 241.8 524.0 241.8L524.0 241.8Q523.6 241.8 523.2 241.9Q522.9 242.0 522.7 242.2Q522.6 242.4 522.5 242.6L522.5 242.6L521.5 242.3Q521.8 241.8 522.2 241.5Q522.5 241.2 523.0 241.0Q523.5 240.9 524.0 240.9L524.0 240.9Q524.3 240.9 524.6 241.0Q525.0 241.1 525.4 241.3Q525.7 241.5 526.0 241.9Q526.2 242.3 526.2 243.0L526.2 243.0L526.2 247L525.3 247L525.3 246.2L525.2 246.2Q525.1 246.4 524.9 246.6Q524.6 246.8 524.3 247.0Q523.9 247.1 523.4 247.1ZM523.6 246.3L523.6 246.3Q524.1 246.3 524.5 246.1Q524.9 245.9 525.0 245.5Q525.2 245.2 525.2 244.8L525.2 244.8L525.2 244.0Q525.2 244.1 525.0 244.1Q524.8 244.2 524.5 244.2Q524.3 244.3 524.0 244.3Q523.8 244.3 523.7 244.3L523.7 244.3Q523.3 244.4 523.0 244.5Q522.7 244.6 522.5 244.8Q522.3 245.0 522.3 245.3L522.3 245.3Q522.3 245.7 522.5 245.9Q522.7 246.1 522.9 246.2Q523.2 246.3 523.6 246.3Z "/></g></svg>