<!-- Generated by readme-aura https://github.com/collectioneur/readme-aura -->
<svg width="860" height="280" viewBox="0 0 860 280" xmlns="http://www.w3.org/2000/svg"><defs><clipPath id="satori_bc-id"><path x="0" y="0" width="860" height="280" d="M20,0 h820 a20,20 0 0 1 20,20 v240 a20,20 0 0 1 -20,20 h-820 a20,20 0 0 1 -20,-20 v-240 a20,20 0 0 1 20,-20"/></clipPath></defs><clipPath id="satori_cp-id"><path x="0" y="0" width="860" height="280" d="M20,0 h820 a20,20 0 0 1 20,20 v240 a20,20 0 0 1 -20,20 h-820 a20,20 0 0 1 -20,-20 v-240 a20,20 0 0 1 20,-20"/></clipPath><mask id="satori_om-id"><rect x="1" y="1" width="858" height="278" fill="#fff"/><path width="860" height="280" fill="none" stroke="#000" stroke-width="2" d="M5.8580000000000005,5.8580000000000005 A20,20 0 0 1 20,0 h820 a20,20 0 0 1 20,20 v240 a20,20 0 0 1 -20,20 h-820 a20,20 0 0 1 -20,-20 v-240 A20,20 0 0 1 5.8580000000000005,5.8580000000000005"/></mask><path x="0" y="0" width="860" height="280" fill="#0a0a0c" d="M20,0 h820 a20,20 0 0 1 20,20 v240 a20,20 0 0 1 -20,20 h-820 a20,20 0 0 1 -20,-20 v-240 a20,20 0 0 1 20,-20"/><path width="860" height="280" clip-path="url(#satori_bc-id)" fill="none" stroke="rgba(255,255,255,0.05)" stroke-width="2" d="M5.8580000000000005,5.8580000000000005 A20,20 0 0 1 20,0 h820 a20,20 0 0 1 20,20 v240 a20,20 0 0 1 -20,20 h-820 a20,20 0 0 1 -20,-20 v-240 A20,20 0 0 1 5.8580000000000005,5.8580000000000005"/><clipPath id="satori_cp-id-0" clip-path="url(#satori_cp-id)"><rect x="1" y="1" width="860" height="280"/></clipPath><mask id="satori_om-id-0"><rect x="1" y="1" width="860" height="280" fill="#fff" mask="url(#satori_om-id)"/></mask><g opacity="0.6"><svg x="1" y="1" width="860" height="280" preserveAspectRatio="none" clip-path="url(#satori_cp-id-0)" mask="url(#satori_om-id-0)"><defs><radialGradient id="hero-green" cx="50%" cy="50%" r="50%"><stop offset="0%" stop-color="rgba(46, 204, 113, 0.15)"></stop><stop offset="100%" stop-color="rgba(46, 204, 113, 0)"></stop></radialGradient><radialGradient id="hero-purple" cx="50%" cy="50%" r="50%"><stop offset="0%" stop-color="rgba(155, 89, 182, 0.12)"></stop><stop offset="100%" stop-color="rgba(155, 89, 182, 0)"></stop></radialGradient></defs><ellipse cx="150" cy="200" rx="350" ry="200" fill="url(#hero-green)"></ellipse><ellipse cx="700" cy="80" rx="350" ry="250" fill="url(#hero-purple)"></ellipse><circle cx="430" cy="140" r="150" stroke="rgba(255,255,255,0.02)" stroke-width="1" fill="none"></circle><circle cx="430" cy="140" r="250" stroke="rgba(255,255,255,0.02)" stroke-width="1" fill="none"></circle><circle cx="430" cy="140" r="350" stroke="rgba(255,255,255,0.02)" stroke-width="1" fill="none"></circle></svg></g><mask id="satori_om-id-0-0"><rect x="1" y="1" width="0" height="280" fill="#fff" mask="url(#satori_om-id)"/></mask><g opacity="0.6"></g><mask id="satori_om-id-0-0-0"><rect x="1" y="1" width="0" height="280" fill="#fff" mask="url(#satori_om-id)"/></mask><g opacity="0.6"></g><mask id="satori_om-id-0-0-0-0"><rect x="1" y="1" width="0" height="280" fill="#fff" mask="url(#satori_om-id)"/></mask><g opacity="0.6"></g><mask id="satori_om-id-0-0-0-1"><rect x="1" y="1" width="0" height="280" fill="#fff" mask="url(#satori_om-id)"/></mask><g opacity="0.6"></g><mask id="satori_om-id-0-0-1"><rect x="1" y="1" width="0" height="280" fill="#fff" mask="url(#satori_om-id)"/></mask><g opacity="0.6"></g><mask id="satori_om-id-0-0-1-0"><rect x="1" y="1" width="0" height="280" fill="#fff" mask="url(#satori_om-id)"/></mask><g opacity="0.6"></g><mask id="satori_om-id-0-0-1-1"><rect x="1" y="1" width="0" height="280" fill="#fff" mask="url(#satori_om-id)"/></mask><g opacity="0.6"></g><mask id="satori_om-id-0-1"><rect x="1" y="1" width="0" height="280" fill="#fff" mask="url(#satori_om-id)"/></mask><g opacity="0.6"></g><mask id="satori_om-id-0-2"><rect x="1" y="1" width="0" height="280" fill="#fff" mask="url(#satori_om-id)"/></mask><g opacity="0.6"></g><mask id="satori_om-id-0-3"><rect x="1" y="1" width="0" height="280" fill="#fff" mask="url(#satori_om-id)"/></mask><g opacity="0.6"></g><mask id="satori_om-id-0-4"><rect x="1" y="1" width="0" height="280" fill="#fff" mask="url(#satori_om-id)"/></mask><g opacity="0.6"></g><mask id="satori_om-id-0-5"><rect x="1" y="1" width="0" height="280" fill="#fff" mask="url(#satori_om-id)"/></mask><g opacity="0.6"></g><mask id="satori_om-id-1"><rect x="259" y="57" width="343" height="77" fill="#fff" mask="url(#satori_om-id)"/></mask><g mask="url(#satori_om-id)" clip-path="url(#satori_cp-id)"><path fill="#ffffff" d="M282.6 119.6L282.6 119.6Q279.7 119.6 277.8 118.6Q275.8 117.7 274.5 116.2Q273.3 114.8 272.7 113.4L272.7 113.4L272.2 113.4L272.2 119L263 119L263 72.4L272.4 72.4L272.4 89.9L272.7 89.9Q273.3 88.6 274.5 87.1Q275.7 85.6 277.7 84.6Q279.7 83.6 282.6 83.6L282.6 83.6Q286.5 83.6 289.7 85.6Q292.9 87.6 294.9 91.6Q296.8 95.6 296.8 101.6L296.8 101.6Q296.8 107.4 294.9 111.4Q293.0 115.4 289.8 117.5Q286.6 119.6 282.6 119.6ZM279.7 112.1L279.7 112.1Q282.1 112.1 283.8 110.7Q285.5 109.4 286.3 107Q287.2 104.6 287.2 101.6L287.2 101.6Q287.2 98.5 286.3 96.2Q285.5 93.8 283.8 92.5Q282.2 91.1 279.7 91.1L279.7 91.1Q277.3 91.1 275.6 92.4Q273.9 93.7 273.0 96.0Q272.2 98.4 272.2 101.6L272.2 101.6Q272.2 104.7 273.0 107.1Q273.9 109.4 275.6 110.8Q277.3 112.1 279.7 112.1ZM317.1 119.7L317.1 119.7Q311.8 119.7 307.9 117.5Q304.0 115.3 302.0 111.3Q299.9 107.3 299.9 101.7L299.9 101.7Q299.9 96.3 301.9 92.3Q304 88.2 307.8 85.9Q311.6 83.6 316.7 83.6L316.7 83.6Q320.1 83.6 323.1 84.7Q326.0 85.8 328.3 88.0Q330.5 90.2 331.8 93.5Q333.1 96.8 333.1 101.3L333.1 101.3L333.1 104.0L309.2 104.0Q309.3 106.6 310.2 108.5L310.2 108.5Q311.2 110.6 313.0 111.6Q314.8 112.6 317.3 112.6L317.3 112.6Q318.9 112.6 320.3 112.2Q321.6 111.7 322.6 110.8Q323.5 109.8 324.0 108.5L324.0 108.5L332.5 110.1Q331.7 113.0 329.6 115.1Q327.5 117.3 324.4 118.5Q321.2 119.7 317.1 119.7ZM309.2 98.1L309.2 98.1L324.0 98.1Q323.8 96.3 323.3 94.9L323.3 94.9Q322.4 92.9 320.8 91.8Q319.2 90.7 316.8 90.7L316.8 90.7Q314.3 90.7 312.6 91.8Q310.9 92.9 310.0 94.8L310.0 94.8Q309.4 96.3 309.2 98.1ZM353.3 119.7L353.3 119.7Q347.9 119.7 344.0 117.5Q340.2 115.3 338.1 111.3Q336 107.3 336 101.7L336 101.7Q336 96.3 338.1 92.3Q340.1 88.2 343.9 85.9Q347.7 83.6 352.8 83.6L352.8 83.6Q356.2 83.6 359.2 84.7Q362.2 85.8 364.4 88.0Q366.7 90.2 367.9 93.5Q369.2 96.8 369.2 101.3L369.2 101.3L369.2 104.0L345.3 104.0Q345.4 106.6 346.3 108.5L346.3 108.5Q347.3 110.6 349.1 111.6Q351.0 112.6 353.4 112.6L353.4 112.6Q355.1 112.6 356.4 112.2Q357.8 111.7 358.7 110.8Q359.7 109.8 360.2 108.5L360.2 108.5L368.7 110.1Q367.8 113.0 365.7 115.1Q363.6 117.3 360.5 118.5Q357.3 119.7 353.3 119.7ZM345.3 98.1L345.3 98.1L360.2 98.1Q360.0 96.3 359.4 94.9L359.4 94.9Q358.6 92.9 356.9 91.8Q355.3 90.7 352.9 90.7L352.9 90.7Q350.4 90.7 348.7 91.8Q347.0 92.9 346.2 94.8L346.2 94.8Q345.5 96.3 345.3 98.1ZM373.6 72.4L383.0 72.4L383.0 119L373.6 119L373.6 72.4ZM388.9 72.4L398.3 72.4L398.3 119L388.9 119L388.9 72.4ZM413.7 119L404.3 119L404.3 84.1L413.7 84.1L413.7 119ZM409.0 79.5L409.0 79.5Q406.8 79.5 405.3 78.1Q403.8 76.7 403.8 74.7L403.8 74.7Q403.8 72.7 405.3 71.3Q406.8 69.9 409.0 69.9L409.0 69.9Q411.1 69.9 412.6 71.3Q414.1 72.7 414.1 74.7L414.1 74.7Q414.1 76.7 412.6 78.1Q411.1 79.5 409.0 79.5ZM435.3 119.7L435.3 119.7Q430 119.7 426.2 117.4Q422.3 115.2 420.2 111.1Q418.2 107.1 418.2 101.7L418.2 101.7Q418.2 96.3 420.2 92.2Q422.3 88.2 426.2 85.9Q430 83.6 435.3 83.6L435.3 83.6Q440.5 83.6 444.4 85.9Q448.2 88.2 450.3 92.2Q452.3 96.3 452.3 101.7L452.3 101.7Q452.3 107.1 450.3 111.1Q448.2 115.2 444.4 117.4Q440.5 119.7 435.3 119.7ZM435.3 112.3L435.3 112.3Q437.8 112.3 439.4 110.9Q441.1 109.5 442.0 107.1Q442.8 104.7 442.8 101.7L442.8 101.7Q442.8 98.6 442.0 96.2Q441.1 93.8 439.4 92.4Q437.8 91 435.3 91L435.3 91Q432.8 91 431.1 92.4Q429.4 93.8 428.6 96.2Q427.7 98.6 427.7 101.7L427.7 101.7Q427.7 104.7 428.6 107.1Q429.4 109.5 431.1 110.9Q432.8 112.3 435.3 112.3ZM466.3 98.8L466.3 98.8L466.3 119L456.9 119L456.9 84.1L465.7 84.1L465.8 91.3Q467.2 88.0 469.5 86L469.5 86Q472.3 83.6 476.7 83.6L476.7 83.6Q480.3 83.6 483.0 85.2Q485.8 86.8 487.2 89.7Q488.7 92.7 488.7 96.8L488.7 96.8L488.7 119L479.3 119L479.3 98.4Q479.3 95.2 477.7 93.3Q476 91.5 473.0 91.5L473.0 91.5Q471.1 91.5 469.5 92.3Q468.0 93.2 467.1 94.8Q466.3 96.4 466.3 98.8ZM504.5 119.7L504.5 119.7Q501.2 119.7 498.5 118.5Q495.9 117.3 494.4 115.0Q492.8 112.7 492.8 109.2L492.8 109.2Q492.8 106.3 493.9 104.3Q495 102.4 496.9 101.2Q498.7 100 501.1 99.4Q503.4 98.8 506.0 98.5L506.0 98.5Q509.1 98.2 510.9 97.9Q512.8 97.7 513.6 97.1Q514.5 96.5 514.5 95.4L514.5 95.4L514.5 95.2Q514.5 93.7 513.9 92.7Q513.3 91.7 512.0 91.1Q510.8 90.6 509.0 90.6L509.0 90.6Q507.2 90.6 505.9 91.1Q504.5 91.7 503.7 92.6Q502.8 93.5 502.4 94.6L502.4 94.6L493.8 93.2Q494.8 90.1 496.8 88Q498.9 85.9 502.0 84.8Q505.2 83.6 509.1 83.6L509.1 83.6Q511.9 83.6 514.5 84.3Q517.2 85.0 519.3 86.4Q521.4 87.8 522.6 90.0Q523.9 92.3 523.9 95.5L523.9 95.5L523.9 119L515 119L515 114.2L514.7 114.2Q513.8 115.8 512.4 117.0Q511.0 118.3 509.0 119.0Q507.1 119.7 504.5 119.7ZM507.1 113.1L507.1 113.1Q509.3 113.1 511.0 112.2Q512.7 111.3 513.6 109.8Q514.6 108.3 514.6 106.5L514.6 106.5L514.6 102.7Q514.2 103.0 513.3 103.3Q512.5 103.5 511.4 103.7Q510.4 103.9 509.4 104.1Q508.4 104.2 507.6 104.3L507.6 104.3Q505.9 104.6 504.6 105.1Q503.3 105.7 502.6 106.6Q501.8 107.5 501.8 109.0L501.8 109.0Q501.8 110.3 502.5 111.2Q503.2 112.2 504.4 112.6Q505.6 113.1 507.1 113.1ZM539.3 119L529.9 119L529.9 84.1L539.3 84.1L539.3 119ZM534.6 79.5L534.6 79.5Q532.4 79.5 530.9 78.1Q529.4 76.7 529.4 74.7L529.4 74.7Q529.4 72.7 530.9 71.3Q532.4 69.9 534.6 69.9L534.6 69.9Q536.7 69.9 538.2 71.3Q539.7 72.7 539.7 74.7L539.7 74.7Q539.7 76.7 538.2 78.1Q536.7 79.5 534.6 79.5ZM554.6 119L545.2 119L545.2 84.1L554.3 84.1L554.3 90.2L554.7 90.2Q555.6 86.9 557.9 85.3Q560.2 83.6 563.1 83.6L563.1 83.6Q563.8 83.6 564.7 83.7Q565.5 83.8 566.1 83.9L566.1 83.9L566.1 92.3Q565.5 92.1 564.3 91.9Q563.1 91.8 562.1 91.8L562.1 91.8Q559.9 91.8 558.2 92.7Q556.5 93.7 555.5 95.3Q554.6 96.9 554.6 99.1L554.6 99.1L554.6 119ZM585.1 119.7L585.1 119.7Q579.7 119.7 575.8 117.5Q572.0 115.3 569.9 111.3Q567.8 107.3 567.8 101.7L567.8 101.7Q567.8 96.3 569.9 92.3Q571.9 88.2 575.7 85.9Q579.5 83.6 584.6 83.6L584.6 83.6Q588.0 83.6 591 84.7Q594.0 85.8 596.2 88.0Q598.5 90.2 599.7 93.5Q601 96.8 601 101.3L601 101.3L601 104.0L577.1 104.0Q577.2 106.6 578.1 108.5L578.1 108.5Q579.1 110.6 581.0 111.6Q582.8 112.6 585.2 112.6L585.2 112.6Q586.9 112.6 588.2 112.2Q589.6 111.7 590.5 110.8Q591.5 109.8 592.0 108.5L592.0 108.5L600.5 110.1Q599.6 113.0 597.5 115.1Q595.4 117.3 592.3 118.5Q589.2 119.7 585.1 119.7ZM577.2 98.1L577.2 98.1L592.0 98.1Q591.8 96.3 591.2 94.9L591.2 94.9Q590.4 92.9 588.7 91.8Q587.1 90.7 584.7 90.7L584.7 90.7Q582.3 90.7 580.5 91.8Q578.8 92.9 578.0 94.8L578.0 94.8Q577.3 96.3 577.2 98.1Z "/></g><mask id="satori_om-id-2"><rect x="285" y="146" width="291" height="16" fill="#fff" mask="url(#satori_om-id)"/></mask><g mask="url(#satori_om-id)" clip-path="url(#satori_cp-id)"><path fill="rgba(255,255,255,0.4)" d="M289.1 159L289.1 159L286.1 159L286.1 149.5L289.2 149.5Q290.6 149.5 291.6 150.1Q292.6 150.7 293.1 151.7Q293.6 152.8 293.6 154.3L293.6 154.3Q293.6 155.7 293.1 156.8Q292.6 157.9 291.5 158.4Q290.5 159 289.1 159ZM287.3 150.6L287.3 157.9L289.0 157.9Q290.2 157.9 290.9 157.5Q291.7 157.1 292.1 156.2Q292.4 155.4 292.4 154.3L292.4 154.3Q292.4 153.1 292.1 152.3Q291.7 151.5 291.0 151.0Q290.2 150.6 289.1 150.6L289.1 150.6L287.3 150.6ZM307.3 159L301.5 159L301.5 149.5L307.3 149.5L307.3 150.6L302.7 150.6L302.7 153.7L307.0 153.7L307.0 154.8L302.7 154.8L302.7 157.9L307.3 157.9L307.3 159ZM318.4 159.2L318.4 159.2Q317.3 159.2 316.6 158.8Q315.8 158.5 315.4 157.9Q315.0 157.3 314.9 156.5L314.9 156.5L316.2 156.5Q316.2 157.1 316.5 157.4Q316.8 157.7 317.3 157.9Q317.8 158.1 318.4 158.1L318.4 158.1Q319.0 158.1 319.5 157.9Q320.0 157.7 320.3 157.3Q320.6 156.9 320.6 156.4L320.6 156.4Q320.6 155.9 320.4 155.7Q320.1 155.4 319.7 155.2Q319.3 155.0 318.8 154.9L318.8 154.9L317.6 154.5Q316.5 154.2 315.8 153.6Q315.2 153.0 315.2 152.1L315.2 152.1Q315.2 151.3 315.6 150.7Q316.1 150.1 316.8 149.7Q317.5 149.4 318.4 149.4L318.4 149.4Q319.4 149.4 320.1 149.7Q320.8 150.1 321.2 150.6Q321.6 151.2 321.7 151.9L321.7 151.9L320.5 151.9Q320.4 151.2 319.8 150.9Q319.3 150.5 318.4 150.5L318.4 150.5Q317.8 150.5 317.3 150.7Q316.9 150.9 316.6 151.2Q316.4 151.6 316.4 152.0L316.4 152.0Q316.4 152.5 316.7 152.8Q317.0 153.1 317.4 153.3Q317.8 153.5 318.2 153.5L318.2 153.5L319.1 153.8Q319.5 153.9 320.0 154.1Q320.4 154.3 320.8 154.6Q321.3 154.9 321.5 155.3Q321.8 155.8 321.8 156.4L321.8 156.4Q321.8 157.2 321.4 157.8Q321.0 158.4 320.2 158.8Q319.5 159.2 318.4 159.2ZM329.7 149.5L330.9 149.5L330.9 159L329.7 159L329.7 149.5ZM343.0 159.1L343.0 159.1Q341.8 159.1 340.8 158.5Q339.9 157.9 339.3 156.9Q338.8 155.8 338.8 154.3L338.8 154.3Q338.8 152.8 339.3 151.7Q339.9 150.6 340.8 150.0Q341.7 149.4 343.0 149.4L343.0 149.4Q343.7 149.4 344.4 149.6Q345.0 149.9 345.5 150.3Q346.0 150.7 346.4 151.3Q346.7 151.8 346.8 152.5L346.8 152.5L345.6 152.5Q345.5 152.0 345.2 151.7Q345.0 151.3 344.6 151.1Q344.3 150.8 343.9 150.7Q343.5 150.5 343.0 150.5L343.0 150.5Q342.1 150.5 341.5 151.0Q340.8 151.4 340.4 152.2Q340.0 153.1 340.0 154.3L340.0 154.3Q340.0 155.5 340.4 156.3Q340.8 157.1 341.5 157.6Q342.2 158.0 343.0 158.0L343.0 158.0Q343.8 158.0 344.4 157.7Q345.1 157.3 345.4 156.7L345.4 156.7Q345.7 156.1 345.7 155.3L345.7 155.3L343.3 155.3L343.3 154.2L346.9 154.2L346.9 155.3Q346.9 156.5 346.4 157.3Q345.9 158.2 345.0 158.7Q344.2 159.1 343.0 159.1ZM356.1 159L354.9 159L354.9 149.5L356.3 149.5L360.1 155.6Q360.3 155.8 360.5 156.2Q360.7 156.6 361.0 157.0L361.0 157.0Q361.1 157.3 361.2 157.6L361.2 157.6Q361.2 157.3 361.2 157.0L361.2 157.0Q361.2 156.5 361.2 156.1Q361.2 155.6 361.2 155.3L361.2 155.3L361.2 149.5L362.4 149.5L362.4 159L360.9 159L357.5 153.6Q357.3 153.2 357.0 152.8Q356.8 152.4 356.5 151.9L356.5 151.9Q356.3 151.5 356.0 151.0L356.0 151.0Q356.0 151.5 356.0 151.9L356.0 151.9Q356.1 152.5 356.1 152.9Q356.1 153.4 356.1 153.6L356.1 153.6L356.1 159Z M381.1 155.4L381.1 155.4Q380.7 155.4 380.4 155.1Q380.2 154.9 380.2 154.5L380.2 154.5Q380.2 154.2 380.4 153.9Q380.7 153.6 381.1 153.6L381.1 153.6Q381.4 153.6 381.7 153.9Q381.9 154.2 381.9 154.5L381.9 154.5Q381.9 154.9 381.7 155.1Q381.4 155.4 381.1 155.4Z M403.5 159.1L403.5 159.1Q402.3 159.1 401.4 158.5Q400.4 158.0 399.9 156.9Q399.4 155.8 399.4 154.3L399.4 154.3Q399.4 152.8 399.9 151.7Q400.4 150.6 401.4 150.0Q402.3 149.4 403.5 149.4L403.5 149.4Q404.3 149.4 404.9 149.6Q405.5 149.8 406.1 150.2Q406.6 150.6 406.9 151.2Q407.2 151.8 407.4 152.5L407.4 152.5L406.2 152.5Q406.1 152.0 405.8 151.7Q405.6 151.3 405.2 151.0Q404.9 150.8 404.4 150.7Q404.0 150.5 403.5 150.5L403.5 150.5Q402.7 150.5 402.0 151.0Q401.3 151.4 400.9 152.2Q400.5 153.1 400.5 154.3L400.5 154.3Q400.5 155.5 400.9 156.3Q401.3 157.2 402.0 157.6Q402.7 158.0 403.5 158.0L403.5 158.0Q404.0 158.0 404.4 157.9Q404.9 157.7 405.2 157.5Q405.6 157.2 405.8 156.9Q406.1 156.5 406.2 156.0L406.2 156.0L407.4 156.0Q407.2 156.7 406.9 157.3Q406.6 157.9 406.1 158.3Q405.5 158.7 404.9 158.9Q404.3 159.1 403.5 159.1ZM419.1 159.1L419.1 159.1Q417.8 159.1 416.9 158.5Q415.9 158.0 415.4 156.9Q414.8 155.8 414.8 154.3L414.8 154.3Q414.8 152.8 415.4 151.7Q415.9 150.6 416.9 150.0Q417.8 149.4 419.1 149.4L419.1 149.4Q420.3 149.4 421.2 150.0Q422.2 150.6 422.7 151.7Q423.2 152.8 423.2 154.3L423.2 154.3Q423.2 155.8 422.7 156.9Q422.2 158.0 421.2 158.5Q420.3 159.1 419.1 159.1ZM419.1 158.0L419.1 158.0Q419.9 158.0 420.6 157.6Q421.3 157.2 421.7 156.3Q422.1 155.5 422.1 154.3L422.1 154.3Q422.1 153.1 421.7 152.2Q421.3 151.4 420.6 151.0Q419.9 150.5 419.1 150.5L419.1 150.5Q418.2 150.5 417.5 151.0Q416.8 151.4 416.4 152.2Q416.0 153.1 416.0 154.3L416.0 154.3Q416.0 155.5 416.4 156.3Q416.8 157.1 417.5 157.6Q418.2 158.0 419.1 158.0ZM434.1 159L434.1 159L431.2 159L431.2 149.5L434.2 149.5Q435.6 149.5 436.6 150.1Q437.6 150.7 438.1 151.7Q438.6 152.8 438.6 154.3L438.6 154.3Q438.6 155.7 438.1 156.8Q437.6 157.9 436.6 158.4Q435.6 159 434.1 159ZM432.4 150.6L432.4 157.9L434.0 157.9Q435.2 157.9 435.9 157.5Q436.7 157.1 437.1 156.2Q437.5 155.4 437.5 154.3L437.5 154.3Q437.5 153.1 437.1 152.3Q436.7 151.5 436.0 151.0Q435.2 150.6 434.1 150.6L434.1 150.6L432.4 150.6ZM452.4 159L446.5 159L446.5 149.5L452.3 149.5L452.3 150.6L447.7 150.6L447.7 153.7L452.0 153.7L452.0 154.8L447.7 154.8L447.7 157.9L452.4 157.9L452.4 159Z M470.7 155.4L470.7 155.4Q470.4 155.4 470.1 155.1Q469.9 154.9 469.9 154.5L469.9 154.5Q469.9 154.2 470.1 153.9Q470.4 153.6 470.7 153.6L470.7 153.6Q471.1 153.6 471.3 153.9Q471.6 154.2 471.6 154.5L471.6 154.5Q471.6 154.9 471.3 155.1Q471.1 155.4 470.7 155.4Z M493.2 159.1L493.2 159.1Q492.0 159.1 491.1 158.5Q490.1 158.0 489.6 156.9Q489.0 155.8 489.0 154.3L489.0 154.3Q489.0 152.8 489.6 151.7Q490.1 150.6 491.1 150.0Q492.0 149.4 493.2 149.4L493.2 149.4Q494.0 149.4 494.6 149.6Q495.2 149.8 495.7 150.2Q496.2 150.6 496.6 151.2Q496.9 151.8 497.1 152.5L497.1 152.5L495.8 152.5Q495.7 152.0 495.5 151.7Q495.3 151.3 494.9 151.0Q494.6 150.8 494.1 150.7Q493.7 150.5 493.2 150.5L493.2 150.5Q492.4 150.5 491.7 151.0Q491.0 151.4 490.6 152.2Q490.2 153.1 490.2 154.3L490.2 154.3Q490.2 155.5 490.6 156.3Q491.0 157.2 491.7 157.6Q492.4 158.0 493.2 158.0L493.2 158.0Q493.7 158.0 494.1 157.9Q494.6 157.7 494.9 157.5Q495.3 157.2 495.5 156.9Q495.7 156.5 495.8 156.0L495.8 156.0L497.1 156.0Q496.9 156.7 496.6 157.3Q496.3 157.9 495.7 158.3Q495.2 158.7 494.6 158.9Q494.0 159.1 493.2 159.1ZM506.1 159L504.9 159L504.9 149.5L508.1 149.5Q509.2 149.5 510.0 149.9Q510.7 150.3 511.0 151.0Q511.4 151.6 511.4 152.5Q511.4 153.3 511.0 154.0Q510.7 154.6 510.0 155.0L510.0 155.0Q509.8 155.1 509.6 155.1L509.6 155.1L511.7 159L510.3 159L508.4 155.3Q508.3 155.3 508.2 155.3L508.2 155.3L506.1 155.3L506.1 159ZM506.1 150.6L506.1 154.3L508.1 154.3Q508.8 154.3 509.3 154.0Q509.8 153.8 510.0 153.4Q510.2 153.0 510.2 152.5L510.2 152.5Q510.2 151.9 510.0 151.5Q509.8 151.1 509.3 150.8Q508.8 150.6 508.1 150.6L508.1 150.6L506.1 150.6ZM525.1 159L519.3 159L519.3 149.5L525.0 149.5L525.0 150.6L520.5 150.6L520.5 153.7L524.7 153.7L524.7 154.8L520.5 154.8L520.5 157.9L525.1 157.9L525.1 159ZM533.6 159L532.3 159L535.7 149.5L537.1 149.5L540.6 159L539.3 159L538.4 156.4L534.5 156.4L533.6 159ZM534.8 155.3L538.0 155.3L537.3 153.4Q537.1 152.9 536.9 152.1L536.9 152.1Q536.7 151.4 536.4 150.5L536.4 150.5Q536.1 151.5 535.9 152.1L535.9 152.1Q535.7 152.9 535.5 153.4L535.5 153.4L534.8 155.3ZM550.5 150.6L547.5 150.6L547.5 149.5L554.7 149.5L554.7 150.6L551.7 150.6L551.7 159L550.5 159L550.5 150.6ZM568.3 159L562.4 159L562.4 149.5L568.2 149.5L568.2 150.6L563.7 150.6L563.7 153.7L567.9 153.7L567.9 154.8L563.7 154.8L563.7 157.9L568.3 157.9L568.3 159Z "/></g><mask id="satori_om-id-3"><rect x="289" y="194" width="282" height="29" fill="#fff" mask="url(#satori_om-id)"/></mask><defs><clipPath id="satori_bc-id-3-0" clip-path="url(#satori_cp-id)"><path x="289" y="194" width="102" height="29" d="M303.5,194 h73 a14.5,14.5 0 0 1 14.5,14.5 v0 a14.5,14.5 0 0 1 -14.5,14.5 h-73 a14.5,14.5 0 0 1 -14.5,-14.5 v0 a14.5,14.5 0 0 1 14.5,-14.5"/></clipPath></defs><mask id="satori_om-id-3-0"><rect x="290" y="195" width="100" height="27" fill="#fff" mask="url(#satori_om-id)"/><path width="102" height="29" fill="none" stroke="#000" stroke-width="2" d="M293.247,198.247 A14.5,14.5 0 0 1 303.5,194 h73 a14.5,14.5 0 0 1 14.5,14.5 v0 a14.5,14.5 0 0 1 -14.5,14.5 h-73 a14.5,14.5 0 0 1 -14.5,-14.5 v0 A14.5,14.5 0 0 1 293.247,198.247"/></mask><path x="289" y="194" width="102" height="29" fill="rgba(255,255,255,0.03)" d="M303.5,194 h73 a14.5,14.5 0 0 1 14.5,14.5 v0 a14.5,14.5 0 0 1 -14.5,14.5 h-73 a14.5,14.5 0 0 1 -14.5,-14.5 v0 a14.5,14.5 0 0 1 14.5,-14.5" clip-path="url(#satori_cp-id)" mask="url(#satori_om-id)"/><path width="102" height="29" clip-path="url(#satori_bc-id-3-0)" fill="none" stroke="rgba(255,255,255,0.08)" stroke-width="2" d="M293.247,198.247 A14.5,14.5 0 0 1 303.5,194 h73 a14.5,14.5 0 0 1 14.5,14.5 v0 a14.5,14.5 0 0 1 -14.5,14.5 h-73 a14.5,14.5 0 0 1 -14.5,-14.5 v0 A14.5,14.5 0 0 1 293.247,198.247"/><g mask="url(#satori_om-id)" clip-path="url(#satori_cp-id)"><path fill="rgba(255,255,255,0.5)" d="M310.5 206.4L312.0 206.4L312.0 207.4L310.5 207.4L310.5 213L309.4 213L309.4 207.4L308.1 207.4L308.1 206.4L309.4 206.4L309.4 205.6Q309.4 205.0 309.7 204.6Q309.9 204.2 310.4 204.1Q310.8 203.9 311.3 203.9L311.3 203.9Q311.6 203.9 311.9 203.9Q312.1 204.0 312.3 204.0L312.3 204.0L312.0 204.9Q311.9 204.9 311.7 204.9Q311.6 204.8 311.4 204.8L311.4 204.8Q310.9 204.8 310.7 205.1Q310.5 205.3 310.5 205.8L310.5 205.8L310.5 206.4ZM316.6 213.1L316.6 213.1Q315.9 213.1 315.4 212.8Q314.9 212.5 314.6 212.0Q314.4 211.4 314.4 210.6L314.4 210.6L314.4 206.4L315.4 206.4L315.4 210.5Q315.4 211.3 315.8 211.7Q316.2 212.1 316.9 212.1L316.9 212.1Q317.4 212.1 317.7 211.9Q318.1 211.7 318.3 211.3Q318.6 210.9 318.6 210.4L318.6 210.4L318.6 206.4L319.6 206.4L319.6 213L318.6 213L318.6 211.8Q318.3 212.4 317.9 212.7L317.9 212.7Q317.3 213.1 316.6 213.1ZM322.5 204.3L323.5 204.3L323.5 213L322.5 213L322.5 204.3ZM326.4 204.3L327.4 204.3L327.4 213L326.4 213L326.4 204.3ZM330.2 208.8L334.0 208.8L334.0 209.8L330.2 209.8L330.2 208.8ZM339.0 213.1L339.0 213.1Q338.3 213.1 337.8 212.9Q337.3 212.7 337.0 212.4Q336.6 212.0 336.5 211.4L336.5 211.4L337.5 211.2Q337.6 211.7 338.0 212.0Q338.4 212.2 339.0 212.2L339.0 212.2Q339.7 212.2 340.1 211.9Q340.5 211.6 340.5 211.2L340.5 211.2Q340.5 210.9 340.3 210.7Q340.0 210.4 339.5 210.3L339.5 210.3L338.5 210.1Q337.6 209.9 337.1 209.4Q336.7 209.0 336.7 208.3L336.7 208.3Q336.7 207.7 337.0 207.3Q337.3 206.9 337.9 206.6Q338.4 206.4 339.1 206.4L339.1 206.4Q339.8 206.4 340.3 206.6Q340.7 206.8 341.0 207.1Q341.3 207.5 341.5 207.9L341.5 207.9L340.5 208.2Q340.4 207.8 340.1 207.6Q339.8 207.3 339.1 207.3L339.1 207.3Q338.5 207.3 338.2 207.5Q337.8 207.8 337.8 208.2L337.8 208.2Q337.8 208.6 338.0 208.8Q338.3 209.0 338.9 209.2L338.9 209.2L339.9 209.4Q340.8 209.6 341.2 210.0Q341.6 210.5 341.6 211.2L341.6 211.2Q341.6 211.7 341.3 212.2Q341.0 212.6 340.4 212.9Q339.8 213.1 339.0 213.1ZM345.4 206.4L346.7 206.4L346.7 207.4L345.4 207.4L345.4 211.3Q345.4 211.7 345.5 211.9Q345.7 212.1 346.1 212.1L346.1 212.1Q346.2 212.1 346.4 212.1Q346.5 212.1 346.7 212.1L346.7 212.1L346.9 213.0Q346.7 213.0 346.5 213.1Q346.3 213.1 346.1 213.1L346.1 213.1Q345.3 213.1 344.8 212.6Q344.3 212.2 344.3 211.4L344.3 211.4L344.3 207.4L343.3 207.4L343.3 206.4L344.3 206.4L344.3 204.9L345.4 204.9L345.4 206.4ZM350.9 213.2L350.9 213.2Q350.3 213.2 349.8 212.9Q349.3 212.7 349.0 212.2Q348.7 211.8 348.7 211.1L348.7 211.1Q348.7 210.6 348.9 210.2Q349.1 209.9 349.5 209.7Q349.8 209.5 350.3 209.4Q350.7 209.3 351.2 209.2L351.2 209.2Q351.8 209.1 352.2 209.1Q352.5 209.1 352.7 209.0Q352.9 208.9 352.9 208.6L352.9 208.6L352.9 208.6Q352.9 208.2 352.7 207.9Q352.6 207.6 352.3 207.4Q352.0 207.3 351.5 207.3L351.5 207.3Q351.0 207.3 350.7 207.4Q350.4 207.6 350.2 207.8Q350.0 208.0 349.9 208.3L349.9 208.3L348.8 207.9Q349.1 207.3 349.5 207.0Q350.0 206.6 350.5 206.5Q351.0 206.4 351.5 206.4L351.5 206.4Q351.8 206.4 352.2 206.4Q352.7 206.5 353.0 206.8Q353.4 207.0 353.7 207.5Q353.9 207.9 353.9 208.7L353.9 208.7L353.9 213L352.9 213L352.9 212.1L352.8 212.1Q352.7 212.3 352.5 212.6Q352.2 212.8 351.8 213.0Q351.4 213.2 350.9 213.2ZM351.1 212.2L351.1 212.2Q351.7 212.2 352.1 212.0Q352.5 211.8 352.7 211.4Q352.9 211.0 352.9 210.6L352.9 210.6L352.9 209.7Q352.8 209.8 352.6 209.9Q352.4 209.9 352.1 210.0Q351.8 210.0 351.6 210.0Q351.3 210.1 351.2 210.1L351.2 210.1Q350.8 210.1 350.4 210.3Q350.1 210.4 349.9 210.6Q349.7 210.8 349.7 211.2L349.7 211.2Q349.7 211.5 349.9 211.8Q350.1 212.0 350.4 212.1Q350.7 212.2 351.1 212.2ZM359.5 213.1L359.5 213.1Q358.6 213.1 357.9 212.7Q357.2 212.3 356.9 211.5Q356.5 210.8 356.5 209.8L356.5 209.8Q356.5 208.7 356.9 208.0Q357.2 207.2 357.9 206.8Q358.6 206.4 359.5 206.4L359.5 206.4Q359.9 206.4 360.4 206.5Q360.8 206.6 361.1 206.8Q361.5 207.1 361.7 207.4Q362.0 207.8 362.1 208.2L362.1 208.2L361.1 208.5Q361.0 208.2 360.9 208.0Q360.7 207.8 360.5 207.6Q360.3 207.5 360.1 207.4Q359.8 207.3 359.5 207.3L359.5 207.3Q358.8 207.3 358.4 207.7Q358.0 208.0 357.8 208.6Q357.5 209.1 357.5 209.8L357.5 209.8Q357.5 210.4 357.8 211.0Q358.0 211.5 358.4 211.9Q358.8 212.2 359.5 212.2L359.5 212.2Q359.8 212.2 360.1 212.1Q360.3 212.0 360.6 211.9Q360.8 211.7 360.9 211.5Q361.1 211.3 361.1 211.0L361.1 211.0L362.1 211.3Q362.0 211.7 361.8 212.1Q361.5 212.4 361.1 212.6Q360.8 212.9 360.4 213.0Q359.9 213.1 359.5 213.1ZM365.7 213L364.6 213L364.6 204.3L365.7 204.3L365.7 209.3L365.8 209.3L368.6 206.4L369.9 206.4L367.2 209.3L370.1 213L368.8 213L366.4 209.9L365.7 210.6L365.7 213Z "/></g><defs><clipPath id="satori_bc-id-3-1" clip-path="url(#satori_cp-id)"><path x="403" y="194" width="85" height="29" d="M417.5,194 h56 a14.5,14.5 0 0 1 14.5,14.5 v0 a14.5,14.5 0 0 1 -14.5,14.5 h-56 a14.5,14.5 0 0 1 -14.5,-14.5 v0 a14.5,14.5 0 0 1 14.5,-14.5"/></clipPath></defs><mask id="satori_om-id-3-1"><rect x="404" y="195" width="83" height="27" fill="#fff" mask="url(#satori_om-id)"/><path width="85" height="29" fill="none" stroke="#000" stroke-width="2" d="M407.247,198.247 A14.5,14.5 0 0 1 417.5,194 h56 a14.5,14.5 0 0 1 14.5,14.5 v0 a14.5,14.5 0 0 1 -14.5,14.5 h-56 a14.5,14.5 0 0 1 -14.5,-14.5 v0 A14.5,14.5 0 0 1 407.247,198.247"/></mask><path x="403" y="194" width="85" height="29" fill="rgba(255,255,255,0.03)" d="M417.5,194 h56 a14.5,14.5 0 0 1 14.5,14.5 v0 a14.5,14.5 0 0 1 -14.5,14.5 h-56 a14.5,14.5 0 0 1 -14.5,-14.5 v0 a14.5,14.5 0 0 1 14.5,-14.5" clip-path="url(#satori_cp-id)" mask="url(#satori_om-id)"/><path width="85" height="29" clip-path="url(#satori_bc-id-3-1)" fill="none" stroke="rgba(255,255,255,0.08)" stroke-width="2" d="M407.247,198.247 A14.5,14.5 0 0 1 417.5,194 h56 a14.5,14.5 0 0 1 14.5,14.5 v0 a14.5,14.5 0 0 1 -14.5,14.5 h-56 a14.5,14.5 0 0 1 -14.5,-14.5 v0 A14.5,14.5 0 0 1 407.247,198.247"/><g mask="url(#satori_om-id)" clip-path="url(#satori_cp-id)"><path fill="rgba(255,255,255,0.5)" d="M424.5 206.4L426.0 206.4L426.0 207.4L424.5 207.4L424.5 213L423.4 213L423.4 207.4L422.1 207.4L422.1 206.4L423.4 206.4L423.4 205.6Q423.4 205.0 423.7 204.6Q423.9 204.2 424.4 204.1Q424.8 203.9 425.3 203.9L425.3 203.9Q425.6 203.9 425.9 203.9Q426.1 204.0 426.3 204.0L426.3 204.0L426.0 204.9Q425.9 204.9 425.7 204.9Q425.6 204.8 425.4 204.8L425.4 204.8Q424.9 204.8 424.7 205.1Q424.5 205.3 424.5 205.8L424.5 205.8L424.5 206.4ZM429.4 213L428.4 213L428.4 206.4L429.4 206.4L429.4 213ZM428.9 205.4L428.9 205.4Q428.6 205.4 428.4 205.2Q428.2 205.0 428.2 204.7L428.2 204.7Q428.2 204.4 428.4 204.2Q428.6 204.0 428.9 204.0L428.9 204.0Q429.2 204.0 429.4 204.2Q429.6 204.4 429.6 204.7L429.6 204.7Q429.6 205.0 429.4 205.2Q429.2 205.4 428.9 205.4ZM433.3 209.1L433.3 209.1L433.3 213L432.3 213L432.3 206.4L433.3 206.4L433.3 207.7Q433.6 207.0 434.0 206.7L434.0 206.7Q434.6 206.4 435.3 206.4L435.3 206.4Q436.0 206.4 436.5 206.6Q437.0 206.9 437.2 207.5Q437.5 208.0 437.5 208.8L437.5 208.8L437.5 213L436.5 213L436.5 208.9Q436.5 208.2 436.1 207.7Q435.7 207.3 435.0 207.3L435.0 207.3Q434.5 207.3 434.1 207.5Q433.8 207.7 433.5 208.1Q433.3 208.5 433.3 209.1ZM441.6 206.4L442.9 206.4L442.9 207.4L441.6 207.4L441.6 211.3Q441.6 211.7 441.8 211.9Q442.0 212.1 442.4 212.1L442.4 212.1Q442.5 212.1 442.6 212.1Q442.8 212.1 442.9 212.1L442.9 212.1L443.1 213.0Q443.0 213.0 442.8 213.1Q442.5 213.1 442.3 213.1L442.3 213.1Q441.5 213.1 441.0 212.6Q440.5 212.2 440.5 211.4L440.5 211.4L440.5 207.4L439.6 207.4L439.6 206.4L440.5 206.4L440.5 204.9L441.6 204.9L441.6 206.4ZM448.0 213.1L448.0 213.1Q447.1 213.1 446.4 212.7Q445.7 212.3 445.3 211.5Q445.0 210.8 445.0 209.8Q445.0 208.8 445.3 208.0Q445.7 207.2 446.4 206.8Q447.0 206.4 447.9 206.4L447.9 206.4Q448.4 206.4 448.9 206.5Q449.5 206.7 449.9 207.1Q450.3 207.5 450.5 208.1Q450.8 208.7 450.8 209.6L450.8 209.6L450.8 210.1L446.0 210.1Q446.1 210.7 446.3 211.2L446.3 211.2Q446.5 211.7 447.0 211.9Q447.5 212.2 448.0 212.2L448.0 212.2Q448.4 212.2 448.8 212.1Q449.1 212.0 449.3 211.8Q449.5 211.5 449.6 211.2L449.6 211.2L450.7 211.5Q450.5 212.0 450.2 212.3Q449.8 212.7 449.3 212.9Q448.7 213.1 448.0 213.1ZM446.0 209.2L446.0 209.2L449.7 209.2Q449.7 208.7 449.5 208.4L449.5 208.4Q449.3 207.9 448.9 207.6Q448.5 207.3 447.9 207.3Q447.3 207.3 446.9 207.6Q446.5 207.9 446.3 208.3L446.3 208.3Q446.1 208.7 446.0 209.2ZM456.0 213.1L456.0 213.1Q455.1 213.1 454.4 212.7Q453.7 212.3 453.3 211.5Q453.0 210.8 453.0 209.8L453.0 209.8Q453.0 208.7 453.3 208.0Q453.7 207.2 454.4 206.8Q455.1 206.4 456.0 206.4L456.0 206.4Q456.4 206.4 456.8 206.5Q457.3 206.6 457.6 206.8Q458.0 207.1 458.2 207.4Q458.5 207.8 458.6 208.2L458.6 208.2L457.6 208.5Q457.5 208.2 457.4 208.0Q457.2 207.8 457.0 207.6Q456.8 207.5 456.5 207.4Q456.3 207.3 456.0 207.3L456.0 207.3Q455.3 207.3 454.9 207.7Q454.5 208.0 454.2 208.6Q454.0 209.1 454.0 209.8L454.0 209.8Q454.0 210.4 454.2 211.0Q454.5 211.5 454.9 211.9Q455.3 212.2 456.0 212.2L456.0 212.2Q456.3 212.2 456.6 212.1Q456.8 212.0 457.0 211.9Q457.3 211.7 457.4 211.5Q457.6 211.3 457.6 211.0L457.6 211.0L458.6 211.3Q458.5 211.7 458.2 212.1Q458.0 212.4 457.6 212.6Q457.3 212.9 456.9 213.0Q456.4 213.1 456.0 213.1ZM462.2 209.1L462.2 209.1L462.2 213L461.1 213L461.1 204.3L462.2 204.3L462.2 207.6Q462.5 207.0 462.9 206.7L462.9 206.7Q463.4 206.4 464.2 206.4L464.2 206.4Q464.8 206.4 465.3 206.6Q465.8 206.9 466.1 207.5Q466.4 208.0 466.4 208.8L466.4 208.8L466.4 213L465.3 213L465.3 208.9Q465.3 208.2 464.9 207.7Q464.5 207.3 463.8 207.3L463.8 207.3Q463.4 207.3 463.0 207.5Q462.6 207.7 462.4 208.1Q462.2 208.5 462.2 209.1Z "/></g><defs><clipPath id="satori_bc-id-3-2" clip-path="url(#satori_cp-id)"><path x="500" y="194" width="71" height="29" d="M514.5,194 h42 a14.5,14.5 0 0 1 14.5,14.5 v0 a14.5,14.5 0 0 1 -14.5,14.5 h-42 a14.5,14.5 0 0 1 -14.5,-14.5 v0 a14.5,14.5 0 0 1 14.5,-14.5"/></clipPath></defs><mask id="satori_om-id-3-2"><rect x="501" y="195" width="69" height="27" fill="#fff" mask="url(#satori_om-id)"/><path width="71" height="29" fill="none" stroke="#000" stroke-width="2" d="M504.247,198.247 A14.5,14.5 0 0 1 514.5,194 h42 a14.5,14.5 0 0 1 14.5,14.5 v0 a14.5,14.5 0 0 1 -14.5,14.5 h-42 a14.5,14.5 0 0 1 -14.5,-14.5 v0 A14.5,14.5 0 0 1 504.247,198.247"/></mask><path x="500" y="194" width="71" height="29" fill="rgba(255,255,255,0.03)" d="M514.5,194 h42 a14.5,14.5 0 0 1 14.5,14.5 v0 a14.5,14.5 0 0 1 -14.5,14.5 h-42 a14.5,14.5 0 0 1 -14.5,-14.5 v0 a14.5,14.5 0 0 1 14.5,-14.5" clip-path="url(#satori_cp-id)" mask="url(#satori_om-id)"/><path width="71" height="29" clip-path="url(#satori_bc-id-3-2)" fill="none" stroke="rgba(255,255,255,0.08)" stroke-width="2" d="M504.247,198.247 A14.5,14.5 0 0 1 514.5,194 h42 a14.5,14.5 0 0 1 14.5,14.5 v0 a14.5,14.5 0 0 1 -14.5,14.5 h-42 a14.5,14.5 0 0 1 -14.5,-14.5 v0 A14.5,14.5 0 0 1 504.247,198.247"/><g mask="url(#satori_om-id)" clip-path="url(#satori_cp-id)"><path fill="rgba(255,255,255,0.5)" d="M522.1 213.1L522.1 213.1Q521.5 213.1 521.0 212.8Q520.5 212.5 520.2 212.0Q519.9 211.4 519.9 210.6L519.9 210.6L519.9 206.4L521.0 206.4L521.0 210.5Q521.0 211.3 521.4 211.7Q521.8 212.1 522.5 212.1L522.5 212.1Q522.9 212.1 523.3 211.9Q523.7 211.7 523.9 211.3Q524.1 210.9 524.1 210.4L524.1 210.4L524.1 206.4L525.2 206.4L525.2 213L524.2 213L524.2 211.8Q523.9 212.4 523.4 212.7L523.4 212.7Q522.9 213.1 522.1 213.1ZM529.1 213L528.0 213L528.0 206.4L529.1 206.4L529.1 213ZM528.6 205.4L528.6 205.4Q528.3 205.4 528.0 205.2Q527.8 205.0 527.8 204.7L527.8 204.7Q527.8 204.4 528.0 204.2Q528.3 204.0 528.6 204.0L528.6 204.0Q528.9 204.0 529.1 204.2Q529.3 204.4 529.3 204.7L529.3 204.7Q529.3 205.0 529.1 205.2Q528.9 205.4 528.6 205.4ZM534.1 203.9L535.1 203.9L532.2 214.3L531.3 214.3L534.1 203.9ZM539.5 213.1L539.5 213.1Q538.8 213.1 538.3 212.8Q537.8 212.5 537.5 212.0Q537.3 211.4 537.3 210.6L537.3 210.6L537.3 206.4L538.3 206.4L538.3 210.5Q538.3 211.3 538.7 211.7Q539.1 212.1 539.8 212.1L539.8 212.1Q540.3 212.1 540.6 211.9Q541.0 211.7 541.2 211.3Q541.4 210.9 541.4 210.4L541.4 210.4L541.4 206.4L542.5 206.4L542.5 213L541.5 213L541.5 211.8Q541.2 212.4 540.8 212.7L540.8 212.7Q540.2 213.1 539.5 213.1ZM546.0 213L544.8 213L547.1 209.6L544.9 206.4L546.2 206.4L547.0 207.7Q547.3 208.2 547.5 208.6L547.5 208.6Q547.6 208.8 547.7 209.0L547.7 209.0Q547.8 208.8 547.9 208.6L547.9 208.6Q548.1 208.2 548.4 207.7L548.4 207.7L549.3 206.4L550.5 206.4L548.3 209.7L550.6 213L549.4 213L548.4 211.5Q548.1 211.0 547.9 210.6L547.9 210.6Q547.8 210.5 547.7 210.3L547.7 210.3Q547.6 210.5 547.5 210.6L547.5 210.6Q547.3 211.0 547.0 211.5L547.0 211.5L546.0 213Z "/></g></svg>