<!-- Generated by readme-aura https://github.com/collectioneur/readme-aura -->
<svg width="800" height="360" viewBox="0 0 800 360" xmlns="http://www.w3.org/2000/svg"><defs><clipPath id="satori_bc-id"><path x="0" y="0" width="800" height="360" d="M24,0 h752 a24,24 0 0 1 24,24 v312 a24,24 0 0 1 -24,24 h-752 a24,24 0 0 1 -24,-24 v-312 a24,24 0 0 1 24,-24"/></clipPath></defs><clipPath id="satori_cp-id"><path x="0" y="0" width="800" height="360" d="M24,0 h752 a24,24 0 0 1 24,24 v312 a24,24 0 0 1 -24,24 h-752 a24,24 0 0 1 -24,-24 v-312 a24,24 0 0 1 24,-24"/></clipPath><mask id="satori_om-id"><rect x="1" y="1" width="798" height="358" fill="#fff"/><path width="800" height="360" fill="none" stroke="#000" stroke-width="2" d="M7.029,7.029 A24,24 0 0 1 24,0 h752 a24,24 0 0 1 24,24 v312 a24,24 0 0 1 -24,24 h-752 a24,24 0 0 1 -24,-24 v-312 A24,24 0 0 1 7.029,7.029"/></mask><path x="0" y="0" width="800" height="360" fill="#030305" d="M24,0 h752 a24,24 0 0 1 24,24 v312 a24,24 0 0 1 -24,24 h-752 a24,24 0 0 1 -24,-24 v-312 a24,24 0 0 1 24,-24"/><path width="800" height="360" clip-path="url(#satori_bc-id)" fill="none" stroke="rgba(255,255,255,0.05)" stroke-width="2" d="M7.029,7.029 A24,24 0 0 1 24,0 h752 a24,24 0 0 1 24,24 v312 a24,24 0 0 1 -24,24 h-752 a24,24 0 0 1 -24,-24 v-312 A24,24 0 0 1 7.029,7.029"/><clipPath id="satori_cp-id-0" clip-path="url(#satori_cp-id)"><rect x="1" y="1" width="800" height="360"/></clipPath><mask id="satori_om-id-0"><rect x="1" y="1" width="800" height="360" fill="#fff" mask="url(#satori_om-id)"/></mask><svg x="1" y="1" width="800" height="360" preserveAspectRatio="none" clip-path="url(#satori_cp-id-0)" mask="url(#satori_om-id-0)"><defs><radialGradient id="hg1" cx="50%" cy="50%" r="50%"><stop offset="0%" stop-color="rgba(42, 157, 143, 0.4)"></stop><stop offset="100%" stop-color="rgba(42, 157, 143, 0)"></stop></radialGradient><radialGradient id="hg2" cx="50%" cy="50%" r="50%"><stop offset="0%" stop-color="rgba(110, 80, 255, 0.3)"></stop><stop offset="100%" stop-color="rgba(110, 80, 255, 0)"></stop></radialGradient><radialGradient id="hg3" cx="50%" cy="50%" r="50%"><stop offset="0%" stop-color="rgba(226, 200, 122, 0.2)"></stop><stop offset="100%" stop-color="rgba(226, 200, 122, 0)"></stop></radialGradient></defs><ellipse id="hero-o1" cx="150" cy="300" rx="300" ry="250" fill="url(#hg1)"></ellipse><ellipse id="hero-o2" cx="650" cy="50" rx="280" ry="220" fill="url(#hg2)"></ellipse><ellipse id="hero-o3" cx="700" cy="350" rx="200" ry="180" fill="url(#hg3)"></ellipse><style>

    @keyframes orb-a { 0%, 100% { transform: translate(0, 0); opacity: 0.4; } 50% { transform: translate(30px, -20px); opacity: 0.8; } }
    @keyframes orb-b { 0%, 100% { transform: translate(0, 0); opacity: 0.3; } 50% { transform: translate(-20px, 20px); opacity: 0.6; } }
    @keyframes orb-c { 0%, 100% { transform: translate(0, 0); opacity: 0.2; } 50% { transform: translate(15px, -25px); opacity: 0.5; } }
    @keyframes float { 0%, 100% { transform: translateY(0); } 50% { transform: translateY(-10px); } }
    #hero-o1 { animation: orb-a 10s ease-in-out infinite; }
    #hero-o2 { animation: orb-b 12s ease-in-out infinite 1s; }
    #hero-o3 { animation: orb-a 9s ease-in-out infinite 2s; }
    #hero-o4 { animation: orb-b 14s ease-in-out infinite 0.5s; }
    #hero-o5 { animation: orb-c 8s ease-in-out infinite 1.5s; }
  
</style>
</svg><mask id="satori_om-id-0-0"><rect x="1" y="1" width="0" height="360" fill="#fff" mask="url(#satori_om-id)"/></mask><mask id="satori_om-id-0-0-0"><rect x="1" y="1" width="0" height="360" fill="#fff" mask="url(#satori_om-id)"/></mask><mask id="satori_om-id-0-0-0-0"><rect x="1" y="1" width="0" height="360" fill="#fff" mask="url(#satori_om-id)"/></mask><mask id="satori_om-id-0-0-0-1"><rect x="1" y="1" width="0" height="360" fill="#fff" mask="url(#satori_om-id)"/></mask><mask id="satori_om-id-0-0-1"><rect x="1" y="1" width="0" height="360" fill="#fff" mask="url(#satori_om-id)"/></mask><mask id="satori_om-id-0-0-1-0"><rect x="1" y="1" width="0" height="360" fill="#fff" mask="url(#satori_om-id)"/></mask><mask id="satori_om-id-0-0-1-1"><rect x="1" y="1" width="0" height="360" fill="#fff" mask="url(#satori_om-id)"/></mask><mask id="satori_om-id-0-0-2"><rect x="1" y="1" width="0" height="360" fill="#fff" mask="url(#satori_om-id)"/></mask><mask id="satori_om-id-0-0-2-0"><rect x="1" y="1" width="0" height="360" fill="#fff" mask="url(#satori_om-id)"/></mask><mask id="satori_om-id-0-0-2-1"><rect x="1" y="1" width="0" height="360" fill="#fff" mask="url(#satori_om-id)"/></mask><mask id="satori_om-id-0-1"><rect x="1" y="1" width="0" height="360" fill="#fff" mask="url(#satori_om-id)"/></mask><mask id="satori_om-id-0-2"><rect x="1" y="1" width="0" height="360" fill="#fff" mask="url(#satori_om-id)"/></mask><mask id="satori_om-id-0-3"><rect x="1" y="1" width="0" height="360" fill="#fff" mask="url(#satori_om-id)"/></mask><mask id="satori_om-id-1"><rect x="1" y="1" width="798" height="358" fill="#fff" mask="url(#satori_om-id)"/></mask><mask id="satori_om-id-2"><rect x="220" y="101" width="361" height="159" fill="#fff" mask="url(#satori_om-id)"/></mask><mask id="satori_om-id-2-0"><rect x="225" y="101" width="352" height="64" fill="#fff" mask="url(#satori_om-id)"/></mask><defs><filter id="satori_s-id-2-0-0" x="-31.25%" y="-165.00%" width="172.50%" height="453.75%"><feDropShadow dx="0" dy="4" stdDeviation="10" flood-color="rgba(0,0,0,0.5)" flood-opacity="1"/></filter></defs><g filter="url(#satori_s-id-2-0-0)"><g mask="url(#satori_om-id)" clip-path="url(#satori_cp-id)"><path fill="#ffffff" d="M239.0 156L229.2 156L229.2 109.4L239.8 109.4L254.6 133Q255.7 134.8 256.8 136.9Q258 139.1 259.2 141.7L259.2 141.7Q259.8 142.9 260.4 144.4L260.4 144.4Q260.3 143.2 260.3 142.0L260.3 142.0Q260.1 139.0 259.9 136.3Q259.8 133.7 259.8 131.8L259.8 131.8L259.8 109.4L269.6 109.4L269.6 156L258.9 156L245.5 134.6Q244.1 132.2 242.8 130.0Q241.6 127.7 240.2 124.9L240.2 124.9Q239.4 123.3 238.3 121.2L238.3 121.2Q238.5 123.1 238.6 124.9L238.6 124.9Q238.8 128.0 238.9 130.5Q239.0 133 239.0 134.6L239.0 134.6L239.0 156ZM285.0 156.7L285.0 156.7Q281.7 156.7 279.1 155.5Q276.4 154.3 274.9 152.0Q273.4 149.7 273.4 146.2L273.4 146.2Q273.4 143.3 274.5 141.3Q275.6 139.4 277.4 138.2Q279.3 137 281.6 136.4Q284 135.8 286.6 135.5L286.6 135.5Q289.6 135.2 291.5 134.9Q293.3 134.7 294.2 134.1Q295.1 133.5 295.1 132.4L295.1 132.4L295.1 132.2Q295.1 130.7 294.4 129.7Q293.8 128.7 292.6 128.1Q291.3 127.6 289.6 127.6L289.6 127.6Q287.8 127.6 286.4 128.1Q285.1 128.7 284.3 129.6Q283.4 130.5 283 131.6L283 131.6L274.4 130.2Q275.3 127.1 277.4 125Q279.5 122.9 282.6 121.8Q285.7 120.6 289.6 120.6L289.6 120.6Q292.4 120.6 295.1 121.3Q297.8 122.0 299.9 123.4Q302.0 124.8 303.2 127.0Q304.4 129.3 304.4 132.5L304.4 132.5L304.4 156L295.6 156L295.6 151.2L295.3 151.2Q294.4 152.8 293 154.0Q291.6 155.3 289.6 156.0Q287.6 156.7 285.0 156.7ZM287.7 150.1L287.7 150.1Q289.9 150.1 291.6 149.2Q293.3 148.3 294.2 146.8Q295.1 145.3 295.1 143.5L295.1 143.5L295.1 139.7Q294.7 140.0 293.9 140.3Q293.0 140.5 292 140.7Q291.0 140.9 290.0 141.1Q289.0 141.2 288.2 141.3L288.2 141.3Q286.5 141.6 285.2 142.1Q283.8 142.7 283.1 143.6Q282.4 144.5 282.4 146.0L282.4 146.0Q282.4 147.3 283.1 148.2Q283.8 149.2 285.0 149.6Q286.2 150.1 287.7 150.1ZM329.5 156.6L329.5 156.6Q326.7 156.6 324.7 155.6Q322.7 154.7 321.5 153.2Q320.3 151.8 319.6 150.4L319.6 150.4L319.2 150.4L319.2 156L309.9 156L309.9 109.4L319.3 109.4L319.3 126.9L319.6 126.9Q320.3 125.6 321.5 124.1Q322.7 122.6 324.6 121.6Q326.6 120.6 329.6 120.6L329.6 120.6Q333.4 120.6 336.7 122.6Q339.9 124.6 341.8 128.6Q343.7 132.6 343.7 138.6L343.7 138.6Q343.7 144.4 341.8 148.4Q340.0 152.4 336.8 154.5Q333.5 156.6 329.5 156.6ZM326.6 149.1L326.6 149.1Q329.1 149.1 330.7 147.7Q332.4 146.4 333.3 144Q334.1 141.6 334.1 138.6L334.1 138.6Q334.1 135.5 333.3 133.2Q332.4 130.8 330.8 129.5Q329.1 128.1 326.6 128.1L326.6 128.1Q324.2 128.1 322.5 129.4Q320.8 130.7 320.0 133.0Q319.1 135.4 319.1 138.6L319.1 138.6Q319.1 141.7 320.0 144.1Q320.9 146.4 322.6 147.8Q324.3 149.1 326.6 149.1ZM357.2 156L347.8 156L347.8 121.1L357.2 121.1L357.2 156ZM352.5 116.5L352.5 116.5Q350.3 116.5 348.8 115.1Q347.3 113.7 347.3 111.7L347.3 111.7Q347.3 109.7 348.8 108.3Q350.3 106.9 352.5 106.9L352.5 106.9Q354.6 106.9 356.1 108.3Q357.6 109.7 357.6 111.7L357.6 111.7Q357.6 113.7 356.1 115.1Q354.6 116.5 352.5 116.5ZM362.6 109.4L372 109.4L372 156L362.6 156L362.6 109.4Z M398.2 156L387.7 156L403.6 109.4L416.1 109.4L432.4 156L421.8 156L418.2 145.2L401.7 145.2L398.2 156ZM404.0 137.7L415.7 137.7L414.3 133.5Q413.0 129.2 411.6 124L411.6 124Q410.7 120.7 409.7 116.9L409.7 116.9Q408.8 120.7 408.0 124.1L408.0 124.1Q406.7 129.3 405.4 133.5L405.4 133.5L404.0 137.7ZM455.0 156.6L455.0 156.6Q452.1 156.6 450.2 155.6Q448.2 154.7 447.0 153.2Q445.7 151.8 445.1 150.4L445.1 150.4L444.6 150.4L444.6 156L435.4 156L435.4 109.4L444.8 109.4L444.8 126.9L445.1 126.9Q445.7 125.6 446.9 124.1Q448.1 122.6 450.1 121.6Q452.1 120.6 455.0 120.6L455.0 120.6Q458.9 120.6 462.1 122.6Q465.3 124.6 467.3 128.6Q469.2 132.6 469.2 138.6L469.2 138.6Q469.2 144.4 467.3 148.4Q465.4 152.4 462.2 154.5Q459 156.6 455.0 156.6ZM452.1 149.1L452.1 149.1Q454.5 149.1 456.2 147.7Q457.9 146.4 458.7 144Q459.6 141.6 459.6 138.6L459.6 138.6Q459.6 135.5 458.7 133.2Q457.9 130.8 456.2 129.5Q454.6 128.1 452.1 128.1L452.1 128.1Q449.7 128.1 448 129.4Q446.3 130.7 445.4 133.0Q444.6 135.4 444.6 138.6L444.6 138.6Q444.6 141.7 445.5 144.1Q446.3 146.4 448.0 147.8Q449.7 149.1 452.1 149.1ZM482.6 156L473.3 156L473.3 121.1L482.6 121.1L482.6 156ZM477.9 116.5L477.9 116.5Q475.8 116.5 474.3 115.1Q472.8 113.7 472.8 111.7L472.8 111.7Q472.8 109.7 474.3 108.3Q475.8 106.9 477.9 106.9L477.9 106.9Q480.1 106.9 481.6 108.3Q483.1 109.7 483.1 111.7L483.1 111.7Q483.1 113.7 481.6 115.1Q480.1 116.5 477.9 116.5ZM487.8 168.4L487.8 168.4L490 161.3L491.2 161.6Q493.0 162.1 494.5 161.9Q496.0 161.7 496.9 160.7Q497.8 159.7 497.9 158.0L497.9 158.0L498.2 156.1L485.1 121.1L495.0 121.1L500.9 139.2Q502.0 142.6 502.7 146.1L502.7 146.1Q502.9 147.2 503.1 148.4L503.1 148.4Q503.4 147.2 503.7 146.0L503.7 146.0Q504.5 142.6 505.7 139.2L505.7 139.2L511.8 121.1L521.6 121.1L506.8 160.1Q505.7 162.9 504.1 165Q502.4 167.1 499.9 168.2Q497.5 169.3 494.0 169.3L494.0 169.3Q492.1 169.3 490.5 169.0Q488.8 168.8 487.8 168.4ZM536.2 156.4L536.2 156.4Q532.5 156.4 529.8 154.9Q527.1 153.3 525.6 150.3Q524.1 147.4 524.1 143.3L524.1 143.3L524.1 121.1L533.5 121.1L533.5 141.7Q533.5 144.9 535.2 146.8Q536.9 148.6 539.8 148.6L539.8 148.6Q541.8 148.6 543.3 147.7Q544.9 146.9 545.7 145.2Q546.6 143.6 546.6 141.3L546.6 141.3L546.6 121.1L556 121.1L556 156L547.1 156L547.0 148.7Q545.7 152.1 543.3 154.1L543.3 154.1Q540.5 156.4 536.2 156.4ZM568.2 156.6L568.2 156.6Q565.9 156.6 564.3 155.0Q562.8 153.5 562.8 151.2L562.8 151.2Q562.8 148.9 564.3 147.4Q565.9 145.8 568.2 145.8L568.2 145.8Q570.4 145.8 572 147.4Q573.6 148.9 573.6 151.2L573.6 151.2Q573.6 153.5 572 155.0Q570.4 156.6 568.2 156.6Z "/></g></g><mask id="satori_om-id-2-1"><rect x="220" y="183" width="361" height="15" fill="#fff" mask="url(#satori_om-id)"/></mask><g mask="url(#satori_om-id)" clip-path="url(#satori_cp-id)"><path fill="rgba(255,255,255,0.4)" d="M226.4 195L221.1 195L221.1 186.3L226.4 186.3L226.4 187.3L222.2 187.3L222.2 190.1L226.1 190.1L226.1 191.1L222.2 191.1L222.2 194.0L226.4 194.0L226.4 195ZM235.4 195L234.3 195L234.3 186.3L235.6 186.3L239.1 191.9Q239.3 192.1 239.5 192.4Q239.7 192.8 239.9 193.2L239.9 193.2Q240.0 193.4 240.2 193.7L240.2 193.7Q240.1 193.4 240.1 193.1L240.1 193.1Q240.1 192.7 240.1 192.3Q240.1 191.9 240.1 191.6L240.1 191.6L240.1 186.3L241.2 186.3L241.2 195L239.9 195L236.7 190.0Q236.5 189.7 236.3 189.3Q236.1 189.0 235.8 188.4L235.8 188.4Q235.6 188.1 235.3 187.6L235.3 187.6Q235.3 188.0 235.3 188.4L235.3 188.4Q235.4 189.0 235.4 189.4Q235.4 189.8 235.4 190.0L235.4 190.0L235.4 195ZM252.9 195.1L252.9 195.1Q251.7 195.1 250.8 194.6Q250.0 194.0 249.5 193.0Q249.0 192.0 249.0 190.6L249.0 190.6Q249.0 189.3 249.5 188.2Q250.0 187.2 250.8 186.7Q251.7 186.2 252.8 186.2L252.8 186.2Q253.5 186.2 254.1 186.4Q254.7 186.6 255.2 186.9Q255.6 187.3 256.0 187.8Q256.3 188.4 256.4 189.0L256.4 189.0L255.2 189.0Q255.1 188.6 254.9 188.3Q254.7 187.9 254.4 187.7Q254.0 187.4 253.7 187.3Q253.3 187.2 252.8 187.2L252.8 187.2Q252.0 187.2 251.4 187.6Q250.8 188.0 250.4 188.7Q250.1 189.5 250.1 190.6L250.1 190.6Q250.1 191.8 250.4 192.5Q250.8 193.3 251.4 193.7Q252.1 194.1 252.9 194.1L252.9 194.1Q253.6 194.1 254.2 193.8Q254.7 193.5 255.1 192.9L255.1 192.9Q255.4 192.3 255.4 191.6L255.4 191.6L253.1 191.6L253.1 190.6L256.5 190.6L256.5 191.6Q256.5 192.7 256.0 193.4Q255.5 194.2 254.7 194.7Q253.9 195.1 252.9 195.1ZM264.3 186.3L265.4 186.3L265.4 195L264.3 195L264.3 186.3ZM274.6 195L273.5 195L273.5 186.3L274.8 186.3L278.3 191.9Q278.5 192.1 278.7 192.4Q278.9 192.8 279.1 193.2L279.1 193.2Q279.3 193.4 279.4 193.7L279.4 193.7Q279.3 193.4 279.3 193.1L279.3 193.1Q279.3 192.7 279.3 192.3Q279.3 191.9 279.3 191.6L279.3 191.6L279.3 186.3L280.4 186.3L280.4 195L279.1 195L275.9 190.0Q275.7 189.7 275.5 189.3Q275.3 189.0 275.0 188.4L275.0 188.4Q274.8 188.1 274.5 187.6L274.5 187.6Q274.5 188.0 274.6 188.4L274.6 188.4Q274.6 189.0 274.6 189.4Q274.6 189.8 274.6 190.0L274.6 190.0L274.6 195ZM293.9 195L288.5 195L288.5 186.3L293.8 186.3L293.8 187.3L289.6 187.3L289.6 190.1L293.6 190.1L293.6 191.1L289.6 191.1L289.6 194.0L293.9 194.0L293.9 195ZM307.1 195L301.7 195L301.7 186.3L307.1 186.3L307.1 187.3L302.9 187.3L302.9 190.1L306.8 190.1L306.8 191.1L302.9 191.1L302.9 194.0L307.1 194.0L307.1 195ZM316.1 195L315.0 195L315.0 186.3L317.9 186.3Q319.0 186.3 319.6 186.6Q320.3 187.0 320.6 187.6Q320.9 188.2 320.9 189.0Q320.9 189.7 320.6 190.3Q320.3 190.9 319.6 191.3L319.6 191.3Q319.5 191.4 319.3 191.4L319.3 191.4L321.3 195L320.0 195L318.2 191.6Q318.1 191.6 317.9 191.6L317.9 191.6L316.1 191.6L316.1 195ZM316.1 187.2L316.1 190.6L317.9 190.6Q318.6 190.6 319.0 190.4Q319.4 190.2 319.6 189.8Q319.8 189.5 319.8 189.0L319.8 189.0Q319.8 188.4 319.6 188.1Q319.4 187.7 319 187.5Q318.6 187.2 317.9 187.2L317.9 187.2L316.1 187.2ZM328.7 186.3L329.8 186.3L329.8 195L328.7 195L328.7 186.3ZM339.0 195L337.9 195L337.9 186.3L339.2 186.3L342.8 191.9Q342.9 192.1 343.1 192.4Q343.3 192.8 343.5 193.2L343.5 193.2Q343.7 193.4 343.8 193.7L343.8 193.7Q343.8 193.4 343.8 193.1L343.8 193.1Q343.7 192.7 343.7 192.3Q343.7 191.9 343.7 191.6L343.7 191.6L343.7 186.3L344.8 186.3L344.8 195L343.5 195L340.3 190.0Q340.1 189.7 339.9 189.3Q339.7 189.0 339.4 188.4L339.4 188.4Q339.2 188.1 338.9 187.6L338.9 187.6Q338.9 188.0 339.0 188.4L339.0 188.4Q339.0 189.0 339.0 189.4Q339.0 189.8 339.0 190.0L339.0 190.0L339.0 195ZM356.5 195.1L356.5 195.1Q355.3 195.1 354.5 194.6Q353.6 194.0 353.1 193.0Q352.6 192.0 352.6 190.6L352.6 190.6Q352.6 189.3 353.1 188.2Q353.6 187.2 354.4 186.7Q355.3 186.2 356.4 186.2L356.4 186.2Q357.1 186.2 357.7 186.4Q358.3 186.6 358.8 186.9Q359.3 187.3 359.6 187.8Q359.9 188.4 360.0 189.0L360.0 189.0L358.9 189.0Q358.7 188.6 358.5 188.3Q358.3 187.9 358.0 187.7Q357.7 187.4 357.3 187.3Q356.9 187.2 356.4 187.2L356.4 187.2Q355.7 187.2 355.0 187.6Q354.4 188.0 354.1 188.7Q353.7 189.5 353.7 190.6L353.7 190.6Q353.7 191.8 354.1 192.5Q354.4 193.3 355.1 193.7Q355.7 194.1 356.5 194.1L356.5 194.1Q357.2 194.1 357.8 193.8Q358.4 193.5 358.7 192.9L358.7 192.9Q359.0 192.3 359.0 191.6L359.0 191.6L356.7 191.6L356.7 190.6L360.1 190.6L360.1 191.6Q360.1 192.7 359.6 193.4Q359.2 194.2 358.4 194.7Q357.5 195.1 356.5 195.1Z M377.9 191.6L377.9 191.6Q377.6 191.6 377.4 191.4Q377.1 191.2 377.1 190.9L377.1 190.9Q377.1 190.5 377.4 190.3Q377.6 190.1 377.9 190.1L377.9 190.1Q378.3 190.1 378.5 190.3Q378.7 190.5 378.7 190.9L378.7 190.9Q378.7 191.2 378.5 191.4Q378.3 191.6 377.9 191.6Z M399.5 195.1L399.5 195.1Q398.5 195.1 397.7 194.7Q396.9 194.3 396.5 193.6Q396.1 192.9 396.1 192.0L396.1 192.0L396.1 186.3L397.2 186.3L397.2 191.9Q397.2 192.6 397.5 193.1Q397.8 193.5 398.3 193.8Q398.8 194.1 399.5 194.1L399.5 194.1Q400.2 194.1 400.7 193.8Q401.3 193.5 401.5 193.1Q401.8 192.6 401.8 191.9L401.8 191.9L401.8 186.3L402.9 186.3L402.9 192.0Q402.9 192.9 402.5 193.6Q402.1 194.3 401.3 194.7Q400.5 195.1 399.5 195.1ZM411.0 186.3L412.1 186.3L412.1 195L411.0 195L411.0 186.3ZM422.3 185.9L423.3 185.9L420.4 196.3L419.5 196.3L422.3 185.9ZM434.0 195.1L434.0 195.1Q433.0 195.1 432.2 194.7Q431.4 194.3 431.0 193.6Q430.6 192.9 430.6 192.0L430.6 192.0L430.6 186.3L431.7 186.3L431.7 191.9Q431.7 192.6 432.0 193.1Q432.2 193.5 432.8 193.8Q433.3 194.1 434.0 194.1L434.0 194.1Q434.7 194.1 435.2 193.8Q435.7 193.5 436.0 193.1Q436.3 192.6 436.3 191.9L436.3 191.9L436.3 186.3L437.4 186.3L437.4 192.0Q437.4 192.9 437.0 193.6Q436.6 194.3 435.8 194.7Q435.0 195.1 434.0 195.1ZM446.0 195L444.8 195L447.9 190.5L445.0 186.3L446.3 186.3L447.5 188.1Q447.8 188.5 448.0 188.8Q448.2 189.1 448.3 189.4L448.3 189.4Q448.4 189.6 448.6 189.8L448.6 189.8Q448.7 189.6 448.8 189.4L448.8 189.4Q448.9 189.1 449.1 188.8Q449.3 188.5 449.6 188.1L449.6 188.1L450.9 186.3L452.1 186.3L449.2 190.5L452.3 195L451.0 195L449.5 192.8Q449.2 192.4 449.1 192.2Q448.9 191.9 448.8 191.6L448.8 191.6Q448.7 191.5 448.5 191.3L448.5 191.3Q448.4 191.5 448.3 191.6L448.3 191.6Q448.2 191.9 448.0 192.1Q447.8 192.4 447.6 192.8L447.6 192.8L446.0 195Z M469.7 191.6L469.7 191.6Q469.4 191.6 469.2 191.4Q468.9 191.2 468.9 190.9L468.9 190.9Q468.9 190.5 469.2 190.3Q469.4 190.1 469.7 190.1L469.7 190.1Q470.1 190.1 470.3 190.3Q470.5 190.5 470.5 190.9L470.5 190.9Q470.5 191.2 470.3 191.4Q470.1 191.6 469.7 191.6Z M489.0 195L487.9 195L487.9 186.3L493.2 186.3L493.2 187.3L489.0 187.3L489.0 190.2L492.8 190.2L492.8 191.2L489.0 191.2L489.0 195ZM501.0 186.3L502.1 186.3L502.1 195L501.0 195L501.0 186.3ZM511.3 195L510.2 195L510.2 186.3L511.5 186.3L515.1 191.9Q515.2 192.1 515.4 192.4Q515.6 192.8 515.8 193.2L515.8 193.2Q516.0 193.4 516.1 193.7L516.1 193.7Q516.1 193.4 516.1 193.1L516.1 193.1Q516.0 192.7 516.0 192.3Q516.0 191.9 516.0 191.6L516.0 191.6L516.0 186.3L517.1 186.3L517.1 195L515.8 195L512.6 190.0Q512.4 189.7 512.2 189.3Q512.0 189.0 511.7 188.4L511.7 188.4Q511.5 188.1 511.2 187.6L511.2 187.6Q511.3 188.0 511.3 188.4L511.3 188.4Q511.3 189.0 511.3 189.4Q511.3 189.8 511.3 190.0L511.3 190.0L511.3 195ZM527.5 187.3L524.8 187.3L524.8 186.3L531.4 186.3L531.4 187.3L528.6 187.3L528.6 195L527.5 195L527.5 187.3ZM544.4 195L539.0 195L539.0 186.3L544.3 186.3L544.3 187.3L540.1 187.3L540.1 190.1L544.0 190.1L544.0 191.1L540.1 191.1L540.1 194.0L544.4 194.0L544.4 195ZM555.7 195.1L555.7 195.1Q554.6 195.1 553.7 194.6Q552.9 194.0 552.4 193.0Q551.9 192.0 551.9 190.6L551.9 190.6Q551.9 189.3 552.4 188.2Q552.9 187.2 553.7 186.7Q554.6 186.2 555.7 186.2L555.7 186.2Q556.4 186.2 557.0 186.3Q557.6 186.5 558.0 186.9Q558.5 187.3 558.8 187.8Q559.1 188.3 559.3 189.0L559.3 189.0L558.1 189.0Q558.1 188.6 557.8 188.2Q557.6 187.9 557.3 187.7Q556.9 187.4 556.6 187.3Q556.2 187.2 555.7 187.2L555.7 187.2Q555.0 187.2 554.3 187.6Q553.7 188.0 553.3 188.8Q552.9 189.5 552.9 190.6L552.9 190.6Q552.9 191.8 553.3 192.5Q553.7 193.3 554.3 193.7Q555.0 194.1 555.7 194.1L555.7 194.1Q556.2 194.1 556.6 194.0Q556.9 193.8 557.3 193.6Q557.6 193.4 557.8 193.0Q558.1 192.7 558.1 192.3L558.1 192.3L559.3 192.3Q559.1 192.9 558.8 193.4Q558.5 194.0 558.1 194.3Q557.6 194.7 557.0 194.9Q556.4 195.1 555.7 195.1ZM568.1 195L567.0 195L567.0 186.3L568.1 186.3L568.1 190.0L572.7 190.0L572.7 186.3L573.8 186.3L573.8 195L572.7 195L572.7 191.0L568.1 191.0L568.1 195Z "/></g><mask id="satori_om-id-2-2"><rect x="245" y="233" width="311" height="27" fill="#fff" mask="url(#satori_om-id)"/></mask><defs><clipPath id="satori_bc-id-2-2-0" clip-path="url(#satori_cp-id)"><path x="245" y="233" width="84" height="27" d="M258.5,233 h57 a13.5,13.5 0 0 1 13.5,13.5 v0 a13.5,13.5 0 0 1 -13.5,13.5 h-57 a13.5,13.5 0 0 1 -13.5,-13.5 v0 a13.5,13.5 0 0 1 13.5,-13.5"/></clipPath></defs><mask id="satori_ms-id-2-2-0-0" maskUnits="userSpaceOnUse"><rect x="0" y="0" width="800" height="360" fill="#fff"/><path x="245" y="233" width="84" height="27" fill="#000"  stroke-width="0" d="M258.5,233 h57 a13.5,13.5 0 0 1 13.5,13.5 v0 a13.5,13.5 0 0 1 -13.5,13.5 h-57 a13.5,13.5 0 0 1 -13.5,-13.5 v0 a13.5,13.5 0 0 1 13.5,-13.5" clip-path="url(#satori_cp-id)" mask="url(#satori_om-id)"/></mask><defs><filter id="satori_s-id-2-2-0-0" x="-66.96428571428571%" y="-208.33333333333334%" width="233.92857142857144%" height="516.6666666666667%"><feGaussianBlur stdDeviation="7.5" result="b"/><feFlood flood-color="rgba(0,0,0,0.2)" in="SourceGraphic" result="f"/><feComposite in="f" in2="b" operator="in"/></filter></defs><g mask="url(#satori_ms-id-2-2-0-0)" filter="url(#satori_s-id-2-2-0-0)" opacity="1"><path x="245" y="237" width="84" height="27" fill="#fff" stroke="#fff" stroke-width="0" d="M258.5,237 h57 a13.5,13.5 0 0 1 13.5,13.5 v0 a13.5,13.5 0 0 1 -13.5,13.5 h-57 a13.5,13.5 0 0 1 -13.5,-13.5 v0 a13.5,13.5 0 0 1 13.5,-13.5" clip-path="url(#satori_cp-id)" mask="url(#satori_om-id)"/></g><mask id="satori_om-id-2-2-0"><rect x="246" y="234" width="82" height="25" fill="#fff" mask="url(#satori_om-id)"/><path width="84" height="27" fill="none" stroke="#000" stroke-width="2" d="M248.954,236.954 A13.5,13.5 0 0 1 258.5,233 h57 a13.5,13.5 0 0 1 13.5,13.5 v0 a13.5,13.5 0 0 1 -13.5,13.5 h-57 a13.5,13.5 0 0 1 -13.5,-13.5 v0 A13.5,13.5 0 0 1 248.954,236.954"/></mask><path x="245" y="233" width="84" height="27" fill="rgba(255,255,255,0.03)" d="M258.5,233 h57 a13.5,13.5 0 0 1 13.5,13.5 v0 a13.5,13.5 0 0 1 -13.5,13.5 h-57 a13.5,13.5 0 0 1 -13.5,-13.5 v0 a13.5,13.5 0 0 1 13.5,-13.5" clip-path="url(#satori_cp-id)" mask="url(#satori_om-id)"/><path width="84" height="27" clip-path="url(#satori_bc-id-2-2-0)" fill="none" stroke="rgba(255,255,255,0.1)" stroke-width="2" d="M248.954,236.954 A13.5,13.5 0 0 1 258.5,233 h57 a13.5,13.5 0 0 1 13.5,13.5 v0 a13.5,13.5 0 0 1 -13.5,13.5 h-57 a13.5,13.5 0 0 1 -13.5,-13.5 v0 A13.5,13.5 0 0 1 248.954,236.954"/><g mask="url(#satori_om-id)" clip-path="url(#satori_cp-id)"><path fill="rgba(255,255,255,0.7)" d="M266.8 243.0L267.8 243.0L267.8 251L266.8 251L266.8 243.0ZM272.2 251.1L272.2 251.1Q271.6 251.1 271.2 250.9Q270.7 250.7 270.4 250.3Q270.1 249.9 270.1 249.3L270.1 249.3Q270.1 248.8 270.4 248.5Q270.6 248.1 270.9 247.9Q271.2 247.8 271.7 247.7Q272.1 247.6 272.5 247.5L272.5 247.5Q273.0 247.5 273.4 247.4Q273.7 247.4 273.9 247.3Q274.0 247.2 274.0 247.0L274.0 247.0L274.0 246.9Q274.0 246.6 273.9 246.3Q273.7 246.0 273.5 245.9Q273.2 245.8 272.8 245.8L272.8 245.8Q272.3 245.8 272.0 245.9Q271.7 246.0 271.5 246.2Q271.3 246.4 271.2 246.6L271.2 246.6L270.3 246.3Q270.6 245.8 270.9 245.5Q271.3 245.2 271.8 245.0Q272.3 244.9 272.7 244.9L272.7 244.9Q273.0 244.9 273.4 245.0Q273.8 245.1 274.2 245.3Q274.5 245.5 274.8 245.9Q275.0 246.3 275.0 247.0L275.0 247.0L275.0 251L274.0 251L274.0 250.2L274.0 250.2Q273.9 250.4 273.6 250.6Q273.4 250.8 273.1 251.0Q272.7 251.1 272.2 251.1ZM272.4 250.3L272.4 250.3Q272.9 250.3 273.3 250.1Q273.6 249.9 273.8 249.5Q274.0 249.2 274.0 248.8L274.0 248.8L274.0 248.0Q274.0 248.1 273.8 248.1Q273.6 248.2 273.3 248.2Q273.1 248.3 272.8 248.3Q272.6 248.3 272.4 248.3L272.4 248.3Q272.1 248.4 271.8 248.5Q271.5 248.6 271.3 248.8Q271.1 249.0 271.1 249.3L271.1 249.3Q271.1 249.7 271.3 249.9Q271.4 250.1 271.7 250.2Q272.0 250.3 272.4 250.3ZM278.7 251L277.7 251L277.7 245.0L278.6 245.0L278.6 245.9L278.7 245.9Q278.9 245.5 279.3 245.2Q279.7 244.9 280.2 244.9L280.2 244.9Q280.4 244.9 280.5 244.9Q280.6 244.9 280.7 244.9L280.7 244.9L280.7 245.9Q280.7 245.9 280.5 245.9Q280.3 245.8 280.2 245.8L280.2 245.8Q279.7 245.8 279.4 246.0Q279.0 246.2 278.8 246.5Q278.7 246.8 278.7 247.2L278.7 247.2L278.7 251ZM284.5 251.1L284.5 251.1Q283.9 251.1 283.5 250.9Q283.0 250.7 282.7 250.3Q282.5 249.9 282.5 249.3L282.5 249.3Q282.5 248.8 282.7 248.5Q282.9 248.1 283.2 247.9Q283.6 247.8 284.0 247.7Q284.4 247.6 284.8 247.5L284.8 247.5Q285.3 247.5 285.7 247.4Q286.0 247.4 286.2 247.3Q286.3 247.2 286.3 247.0L286.3 247.0L286.3 246.9Q286.3 246.6 286.2 246.3Q286.1 246.0 285.8 245.9Q285.5 245.8 285.1 245.8L285.1 245.8Q284.7 245.8 284.4 245.9Q284.0 246.0 283.9 246.2Q283.7 246.4 283.6 246.6L283.6 246.6L282.6 246.3Q282.9 245.8 283.3 245.5Q283.7 245.2 284.1 245.0Q284.6 244.9 285.1 244.9L285.1 244.9Q285.4 244.9 285.7 245.0Q286.1 245.1 286.5 245.3Q286.8 245.5 287.1 245.9Q287.3 246.3 287.3 247.0L287.3 247.0L287.3 251L286.4 251L286.4 250.2L286.3 250.2Q286.2 250.4 286.0 250.6Q285.7 250.8 285.4 251.0Q285.0 251.1 284.5 251.1ZM284.7 250.3L284.7 250.3Q285.2 250.3 285.6 250.1Q286.0 249.9 286.1 249.5Q286.3 249.2 286.3 248.8L286.3 248.8L286.3 248.0Q286.3 248.1 286.1 248.1Q285.9 248.2 285.6 248.2Q285.4 248.3 285.1 248.3Q284.9 248.3 284.8 248.3L284.8 248.3Q284.4 248.4 284.1 248.5Q283.8 248.6 283.6 248.8Q283.4 249.0 283.4 249.3L283.4 249.3Q283.4 249.7 283.6 249.9Q283.8 250.1 284.0 250.2Q284.3 250.3 284.7 250.3ZM292.8 251L291.7 251L289.4 245.0L290.5 245.0L291.8 248.6Q292.0 249.1 292.1 249.7L292.1 249.7Q292.2 249.9 292.3 250.1L292.3 250.1Q292.3 249.9 292.4 249.7L292.4 249.7Q292.5 249.1 292.7 248.6L292.7 248.6L294.0 245.0L295.1 245.0L292.8 251ZM299.7 251.1L299.7 251.1Q298.8 251.1 298.2 250.7Q297.6 250.4 297.2 249.7Q296.9 249.0 296.9 248.0Q296.9 247.1 297.2 246.4Q297.6 245.7 298.2 245.3Q298.8 244.9 299.6 244.9L299.6 244.9Q300.1 244.9 300.5 245.1Q301.0 245.2 301.4 245.6Q301.8 245.9 302.0 246.5Q302.2 247.1 302.2 247.9L302.2 247.9L302.2 248.3L297.9 248.3Q297.9 248.9 298.1 249.3L298.1 249.3Q298.3 249.8 298.8 250.0Q299.2 250.3 299.7 250.3L299.7 250.3Q300.1 250.3 300.4 250.2Q300.7 250.1 300.9 249.9Q301.1 249.7 301.2 249.3L301.2 249.3L302.1 249.6Q302.0 250.1 301.6 250.4Q301.3 250.7 300.8 250.9Q300.3 251.1 299.7 251.1ZM297.9 247.5L297.9 247.5L301.2 247.5Q301.2 247.1 301.1 246.8L301.1 246.8Q300.9 246.3 300.5 246.0Q300.1 245.8 299.6 245.8Q299.1 245.8 298.7 246.0Q298.3 246.3 298.1 246.7L298.1 246.7Q297.9 247.1 297.9 247.5ZM304.6 243.0L305.6 243.0L305.6 251L304.6 251L304.6 243.0Z "/></g><defs><clipPath id="satori_bc-id-2-2-1" clip-path="url(#satori_cp-id)"><path x="341" y="233" width="101" height="27" d="M354.5,233 h74 a13.5,13.5 0 0 1 13.5,13.5 v0 a13.5,13.5 0 0 1 -13.5,13.5 h-74 a13.5,13.5 0 0 1 -13.5,-13.5 v0 a13.5,13.5 0 0 1 13.5,-13.5"/></clipPath></defs><mask id="satori_ms-id-2-2-1-0" maskUnits="userSpaceOnUse"><rect x="0" y="0" width="800" height="360" fill="#fff"/><path x="341" y="233" width="101" height="27" fill="#000"  stroke-width="0" d="M354.5,233 h74 a13.5,13.5 0 0 1 13.5,13.5 v0 a13.5,13.5 0 0 1 -13.5,13.5 h-74 a13.5,13.5 0 0 1 -13.5,-13.5 v0 a13.5,13.5 0 0 1 13.5,-13.5" clip-path="url(#satori_cp-id)" mask="url(#satori_om-id)"/></mask><defs><filter id="satori_s-id-2-2-1-0" x="-55.693069306930695%" y="-208.33333333333334%" width="211.3861386138614%" height="516.6666666666667%"><feGaussianBlur stdDeviation="7.5" result="b"/><feFlood flood-color="rgba(0,0,0,0.2)" in="SourceGraphic" result="f"/><feComposite in="f" in2="b" operator="in"/></filter></defs><g mask="url(#satori_ms-id-2-2-1-0)" filter="url(#satori_s-id-2-2-1-0)" opacity="1"><path x="341" y="237" width="101" height="27" fill="#fff" stroke="#fff" stroke-width="0" d="M354.5,237 h74 a13.5,13.5 0 0 1 13.5,13.5 v0 a13.5,13.5 0 0 1 -13.5,13.5 h-74 a13.5,13.5 0 0 1 -13.5,-13.5 v0 a13.5,13.5 0 0 1 13.5,-13.5" clip-path="url(#satori_cp-id)" mask="url(#satori_om-id)"/></g><mask id="satori_om-id-2-2-1"><rect x="342" y="234" width="99" height="25" fill="#fff" mask="url(#satori_om-id)"/><path width="101" height="27" fill="none" stroke="#000" stroke-width="2" d="M344.954,236.954 A13.5,13.5 0 0 1 354.5,233 h74 a13.5,13.5 0 0 1 13.5,13.5 v0 a13.5,13.5 0 0 1 -13.5,13.5 h-74 a13.5,13.5 0 0 1 -13.5,-13.5 v0 A13.5,13.5 0 0 1 344.954,236.954"/></mask><path x="341" y="233" width="101" height="27" fill="rgba(255,255,255,0.03)" d="M354.5,233 h74 a13.5,13.5 0 0 1 13.5,13.5 v0 a13.5,13.5 0 0 1 -13.5,13.5 h-74 a13.5,13.5 0 0 1 -13.5,-13.5 v0 a13.5,13.5 0 0 1 13.5,-13.5" clip-path="url(#satori_cp-id)" mask="url(#satori_om-id)"/><path width="101" height="27" clip-path="url(#satori_bc-id-2-2-1)" fill="none" stroke="rgba(255,255,255,0.1)" stroke-width="2" d="M344.954,236.954 A13.5,13.5 0 0 1 354.5,233 h74 a13.5,13.5 0 0 1 13.5,13.5 v0 a13.5,13.5 0 0 1 -13.5,13.5 h-74 a13.5,13.5 0 0 1 -13.5,-13.5 v0 A13.5,13.5 0 0 1 344.954,236.954"/><g mask="url(#satori_om-id)" clip-path="url(#satori_cp-id)"><path fill="rgba(255,255,255,0.7)" d="M364.3 245.0L365.6 245.0L365.6 245.8L364.3 245.8L364.3 251L363.3 251L363.3 245.8L362.1 245.8L362.1 245.0L363.3 245.0L363.3 244.2Q363.3 243.7 363.5 243.3Q363.8 243.0 364.2 242.8Q364.6 242.6 365.0 242.6L365.0 242.6Q365.3 242.6 365.6 242.7Q365.8 242.7 365.9 242.8L365.9 242.8L365.6 243.6Q365.6 243.6 365.4 243.6Q365.3 243.5 365.1 243.5L365.1 243.5Q364.7 243.5 364.5 243.7Q364.3 244.0 364.3 244.4L364.3 244.4L364.3 245.0ZM370.0 251.1L370.0 251.1Q369.3 251.1 368.9 250.8Q368.4 250.6 368.2 250.1Q367.9 249.6 367.9 248.8L367.9 248.8L367.9 245.0L368.9 245.0L368.9 248.7Q368.9 249.4 369.3 249.8Q369.6 250.2 370.2 250.2L370.2 250.2Q370.7 250.2 371.0 250.0Q371.4 249.8 371.6 249.5Q371.8 249.1 371.8 248.6L371.8 248.6L371.8 245.0L372.7 245.0L372.7 251L371.8 251L371.8 249.9Q371.5 250.5 371.1 250.7L371.1 250.7Q370.6 251.1 370.0 251.1ZM375.4 243.0L376.4 243.0L376.4 251L375.4 251L375.4 243.0ZM379.1 243.0L380.1 243.0L380.1 251L379.1 251L379.1 243.0ZM382.7 247.1L386.2 247.1L386.2 248.0L382.7 248.0L382.7 247.1ZM390.9 251.1L390.9 251.1Q390.2 251.1 389.8 250.9Q389.3 250.8 389.0 250.4Q388.7 250.1 388.5 249.5L388.5 249.5L389.5 249.3Q389.6 249.8 389.9 250.0Q390.3 250.3 390.8 250.3L390.8 250.3Q391.5 250.3 391.8 250.0Q392.2 249.7 392.2 249.4L392.2 249.4Q392.2 249.1 392.0 248.9Q391.8 248.6 391.3 248.5L391.3 248.5L390.3 248.3Q389.5 248.1 389.1 247.7Q388.7 247.3 388.7 246.7L388.7 246.7Q388.7 246.2 389.0 245.8Q389.3 245.4 389.8 245.1Q390.3 244.9 390.9 244.9L390.9 244.9Q391.6 244.9 392.0 245.1Q392.4 245.3 392.7 245.6Q393.0 245.9 393.1 246.4L393.1 246.4L392.2 246.6Q392.1 246.3 391.8 246.0Q391.5 245.7 391.0 245.7L391.0 245.7Q390.4 245.7 390.1 246.0Q389.7 246.2 389.7 246.6L389.7 246.6Q389.7 246.9 389.9 247.1Q390.2 247.3 390.7 247.5L390.7 247.5L391.6 247.7Q392.4 247.9 392.8 248.3Q393.2 248.7 393.2 249.3L393.2 249.3Q393.2 249.8 392.9 250.2Q392.6 250.7 392.1 250.9Q391.6 251.1 390.9 251.1ZM396.7 245.0L398.0 245.0L398.0 245.8L396.7 245.8L396.7 249.4Q396.7 249.8 396.9 250.0Q397.1 250.2 397.5 250.2L397.5 250.2Q397.5 250.2 397.7 250.2Q397.8 250.2 397.9 250.2L397.9 250.2L398.1 251.0Q398.0 251.0 397.8 251.0Q397.6 251.1 397.4 251.1L397.4 251.1Q396.6 251.1 396.2 250.7Q395.8 250.3 395.8 249.5L395.8 249.5L395.8 245.8L394.9 245.8L394.9 245.0L395.8 245.0L395.8 243.6L396.7 243.6L396.7 245.0ZM401.9 251.1L401.9 251.1Q401.3 251.1 400.9 250.9Q400.4 250.7 400.1 250.3Q399.9 249.9 399.9 249.3L399.9 249.3Q399.9 248.8 400.1 248.5Q400.3 248.1 400.6 247.9Q400.9 247.8 401.4 247.7Q401.8 247.6 402.2 247.5L402.2 247.5Q402.7 247.5 403.1 247.4Q403.4 247.4 403.6 247.3Q403.7 247.2 403.7 247.0L403.7 247.0L403.7 246.9Q403.7 246.6 403.6 246.3Q403.5 246.0 403.2 245.9Q402.9 245.8 402.5 245.8L402.5 245.8Q402.0 245.8 401.7 245.9Q401.4 246.0 401.2 246.2Q401.0 246.4 401.0 246.6L401.0 246.6L400.0 246.3Q400.3 245.8 400.6 245.5Q401.0 245.2 401.5 245.0Q402.0 244.9 402.4 244.9L402.4 244.9Q402.7 244.9 403.1 245.0Q403.5 245.1 403.9 245.3Q404.2 245.5 404.5 245.9Q404.7 246.3 404.7 247.0L404.7 247.0L404.7 251L403.7 251L403.7 250.2L403.7 250.2Q403.6 250.4 403.4 250.6Q403.1 250.8 402.8 251.0Q402.4 251.1 401.9 251.1ZM402.1 250.3L402.1 250.3Q402.6 250.3 403.0 250.1Q403.3 249.9 403.5 249.5Q403.7 249.2 403.7 248.8L403.7 248.8L403.7 248.0Q403.7 248.1 403.5 248.1Q403.3 248.2 403.0 248.2Q402.8 248.3 402.5 248.3Q402.3 248.3 402.1 248.3L402.1 248.3Q401.8 248.4 401.5 248.5Q401.2 248.6 401.0 248.8Q400.8 249.0 400.8 249.3L400.8 249.3Q400.8 249.7 401.0 249.9Q401.1 250.1 401.4 250.2Q401.7 250.3 402.1 250.3ZM409.8 251.1L409.8 251.1Q409.0 251.1 408.4 250.7Q407.8 250.4 407.4 249.7Q407.1 249.0 407.1 248.0L407.1 248.0Q407.1 247.1 407.4 246.4Q407.8 245.7 408.4 245.3Q409.0 244.9 409.8 244.9L409.8 244.9Q410.3 244.9 410.7 245.0Q411.0 245.1 411.4 245.4Q411.7 245.6 411.9 245.9Q412.1 246.2 412.3 246.6L412.3 246.6L411.3 246.8Q411.3 246.6 411.1 246.4Q411.0 246.2 410.8 246.1Q410.6 245.9 410.4 245.9Q410.1 245.8 409.8 245.8L409.8 245.8Q409.2 245.8 408.8 246.1Q408.5 246.4 408.3 246.9Q408.1 247.4 408.1 248.0L408.1 248.0Q408.1 248.6 408.3 249.1Q408.5 249.6 408.8 250.0Q409.2 250.3 409.8 250.3L409.8 250.3Q410.1 250.3 410.4 250.2Q410.6 250.1 410.8 250.0Q411.0 249.8 411.2 249.6Q411.3 249.4 411.4 249.2L411.4 249.2L412.3 249.4Q412.2 249.8 411.9 250.1Q411.7 250.5 411.4 250.7Q411.1 250.9 410.7 251.0Q410.3 251.1 409.8 251.1ZM415.6 251L414.7 251L414.7 243.0L415.6 243.0L415.6 247.6L415.8 247.6L418.3 245.0L419.5 245.0L417.0 247.6L419.7 251L418.5 251L416.3 248.2L415.6 248.8L415.6 251Z "/></g><defs><clipPath id="satori_bc-id-2-2-2" clip-path="url(#satori_cp-id)"><path x="454" y="233" width="102" height="27" d="M467.5,233 h75 a13.5,13.5 0 0 1 13.5,13.5 v0 a13.5,13.5 0 0 1 -13.5,13.5 h-75 a13.5,13.5 0 0 1 -13.5,-13.5 v0 a13.5,13.5 0 0 1 13.5,-13.5"/></clipPath></defs><mask id="satori_ms-id-2-2-2-0" maskUnits="userSpaceOnUse"><rect x="0" y="0" width="800" height="360" fill="#fff"/><path x="454" y="233" width="102" height="27" fill="#000"  stroke-width="0" d="M467.5,233 h75 a13.5,13.5 0 0 1 13.5,13.5 v0 a13.5,13.5 0 0 1 -13.5,13.5 h-75 a13.5,13.5 0 0 1 -13.5,-13.5 v0 a13.5,13.5 0 0 1 13.5,-13.5" clip-path="url(#satori_cp-id)" mask="url(#satori_om-id)"/></mask><defs><filter id="satori_s-id-2-2-2-0" x="-55.14705882352941%" y="-208.33333333333334%" width="210.29411764705884%" height="516.6666666666667%"><feGaussianBlur stdDeviation="7.5" result="b"/><feFlood flood-color="rgba(0,0,0,0.2)" in="SourceGraphic" result="f"/><feComposite in="f" in2="b" operator="in"/></filter></defs><g mask="url(#satori_ms-id-2-2-2-0)" filter="url(#satori_s-id-2-2-2-0)" opacity="1"><path x="454" y="237" width="102" height="27" fill="#fff" stroke="#fff" stroke-width="0" d="M467.5,237 h75 a13.5,13.5 0 0 1 13.5,13.5 v0 a13.5,13.5 0 0 1 -13.5,13.5 h-75 a13.5,13.5 0 0 1 -13.5,-13.5 v0 a13.5,13.5 0 0 1 13.5,-13.5" clip-path="url(#satori_cp-id)" mask="url(#satori_om-id)"/></g><mask id="satori_om-id-2-2-2"><rect x="455" y="234" width="100" height="25" fill="#fff" mask="url(#satori_om-id)"/><path width="102" height="27" fill="none" stroke="#000" stroke-width="2" d="M457.954,236.954 A13.5,13.5 0 0 1 467.5,233 h75 a13.5,13.5 0 0 1 13.5,13.5 v0 a13.5,13.5 0 0 1 -13.5,13.5 h-75 a13.5,13.5 0 0 1 -13.5,-13.5 v0 A13.5,13.5 0 0 1 457.954,236.954"/></mask><path x="454" y="233" width="102" height="27" fill="rgba(255,255,255,0.03)" d="M467.5,233 h75 a13.5,13.5 0 0 1 13.5,13.5 v0 a13.5,13.5 0 0 1 -13.5,13.5 h-75 a13.5,13.5 0 0 1 -13.5,-13.5 v0 a13.5,13.5 0 0 1 13.5,-13.5" clip-path="url(#satori_cp-id)" mask="url(#satori_om-id)"/><path width="102" height="27" clip-path="url(#satori_bc-id-2-2-2)" fill="none" stroke="rgba(255,255,255,0.1)" stroke-width="2" d="M457.954,236.954 A13.5,13.5 0 0 1 467.5,233 h75 a13.5,13.5 0 0 1 13.5,13.5 v0 a13.5,13.5 0 0 1 -13.5,13.5 h-75 a13.5,13.5 0 0 1 -13.5,-13.5 v0 A13.5,13.5 0 0 1 457.954,236.954"/><g mask="url(#satori_om-id)" clip-path="url(#satori_cp-id)"><path fill="rgba(255,255,255,0.7)" d="M476.8 251L475.8 251L475.8 245.0L476.8 245.0L476.8 251ZM476.3 244.0L476.3 244.0Q476.1 244.0 475.9 243.8Q475.7 243.6 475.7 243.4L475.7 243.4Q475.7 243.1 475.9 242.9Q476.1 242.7 476.3 242.7L476.3 242.7Q476.6 242.7 476.8 242.9Q477.0 243.1 477.0 243.4L477.0 243.4Q477.0 243.6 476.8 243.8Q476.6 244.0 476.3 244.0ZM480.5 247.4L480.5 247.4L480.5 251L479.5 251L479.5 245.0L480.4 245.0L480.4 246.1Q480.7 245.5 481.1 245.3L481.1 245.3Q481.6 244.9 482.3 244.9L482.3 244.9Q482.9 244.9 483.3 245.2Q483.8 245.4 484.1 245.9Q484.3 246.4 484.3 247.2L484.3 247.2L484.3 251L483.3 251L483.3 247.3Q483.3 246.6 483.0 246.2Q482.6 245.8 482.0 245.8L482.0 245.8Q481.6 245.8 481.2 246.0Q480.9 246.2 480.7 246.5Q480.5 246.9 480.5 247.4ZM489.3 251.1L489.3 251.1Q488.5 251.1 487.9 250.7Q487.4 250.4 487.0 249.7Q486.7 249.0 486.7 248.0L486.7 248.0Q486.7 247.1 487.0 246.4Q487.4 245.7 487.9 245.3Q488.5 244.9 489.3 244.9L489.3 244.9Q489.9 244.9 490.2 245.1Q490.5 245.3 490.7 245.6Q490.9 245.8 491.0 246.0L491.0 246.0L491.1 246.0L491.1 243.0L492.0 243.0L492.0 251L491.1 251L491.1 250.1L491.0 250.1Q490.9 250.2 490.7 250.5Q490.5 250.7 490.2 250.9Q489.8 251.1 489.3 251.1ZM489.4 250.3L489.4 250.3Q490.0 250.3 490.3 250.0Q490.7 249.7 490.9 249.2Q491.1 248.7 491.1 248.0L491.1 248.0Q491.1 247.3 490.9 246.8Q490.7 246.3 490.3 246.1Q490.0 245.8 489.4 245.8L489.4 245.8Q488.8 245.8 488.5 246.1Q488.1 246.4 487.9 246.9Q487.7 247.4 487.7 248.0L487.7 248.0Q487.7 248.6 487.9 249.1Q488.1 249.7 488.5 250.0Q488.8 250.3 489.4 250.3ZM497.2 251.1L497.2 251.1Q496.4 251.1 495.8 250.7Q495.1 250.4 494.8 249.7Q494.5 249.0 494.5 248.0L494.5 248.0Q494.5 247.1 494.8 246.4Q495.1 245.7 495.8 245.3Q496.4 244.9 497.2 244.9L497.2 244.9Q498.0 244.9 498.6 245.3Q499.2 245.7 499.6 246.4Q499.9 247.1 499.9 248.0L499.9 248.0Q499.9 249.0 499.6 249.7Q499.2 250.4 498.6 250.7Q498.0 251.1 497.2 251.1ZM497.2 250.3L497.2 250.3Q497.8 250.3 498.2 250.0Q498.6 249.6 498.8 249.1Q499.0 248.6 499.0 248.0L499.0 248.0Q499.0 247.4 498.8 246.9Q498.6 246.4 498.2 246.1Q497.8 245.8 497.2 245.8L497.2 245.8Q496.6 245.8 496.2 246.1Q495.8 246.4 495.6 246.9Q495.4 247.4 495.4 248.0L495.4 248.0Q495.4 248.6 495.6 249.1Q495.8 249.6 496.2 250.0Q496.6 250.3 497.2 250.3ZM503.3 247.4L503.3 247.4L503.3 251L502.3 251L502.3 245.0L503.3 245.0L503.3 246.1Q503.5 245.5 503.9 245.3L503.9 245.3Q504.4 244.9 505.1 244.9L505.1 244.9Q505.7 244.9 506.2 245.2Q506.6 245.4 506.9 245.9Q507.1 246.4 507.1 247.2L507.1 247.2L507.1 251L506.2 251L506.2 247.3Q506.2 246.6 505.8 246.2Q505.5 245.8 504.8 245.8L504.8 245.8Q504.4 245.8 504.1 246.0Q503.7 246.2 503.5 246.5Q503.3 246.9 503.3 247.4ZM512.4 251.1L512.4 251.1Q511.5 251.1 510.9 250.7Q510.2 250.4 509.9 249.7Q509.6 249.0 509.6 248.0Q509.6 247.1 509.9 246.4Q510.2 245.7 510.8 245.3Q511.4 244.9 512.3 244.9L512.3 244.9Q512.7 244.9 513.2 245.1Q513.7 245.2 514.0 245.6Q514.4 245.9 514.6 246.5Q514.9 247.1 514.9 247.9L514.9 247.9L514.9 248.3L510.5 248.3Q510.6 248.9 510.8 249.3L510.8 249.3Q511.0 249.8 511.4 250.0Q511.8 250.3 512.4 250.3L512.4 250.3Q512.7 250.3 513.0 250.2Q513.3 250.1 513.5 249.9Q513.7 249.7 513.8 249.3L513.8 249.3L514.8 249.6Q514.6 250.1 514.3 250.4Q514.0 250.7 513.5 250.9Q513.0 251.1 512.4 251.1ZM510.5 247.5L510.5 247.5L513.9 247.5Q513.8 247.1 513.7 246.8L513.7 246.8Q513.5 246.3 513.2 246.0Q512.8 245.8 512.3 245.8Q511.7 245.8 511.3 246.0Q510.9 246.3 510.7 246.7L510.7 246.7Q510.6 247.1 510.5 247.5ZM519.3 251.1L519.3 251.1Q518.7 251.1 518.2 250.9Q517.7 250.8 517.4 250.4Q517.1 250.1 517.0 249.5L517.0 249.5L517.9 249.3Q518.0 249.8 518.4 250.0Q518.7 250.3 519.3 250.3L519.3 250.3Q519.9 250.3 520.3 250.0Q520.7 249.7 520.7 249.4L520.7 249.4Q520.7 249.1 520.4 248.9Q520.2 248.6 519.8 248.5L519.8 248.5L518.8 248.3Q518.0 248.1 517.6 247.7Q517.2 247.3 517.2 246.7L517.2 246.7Q517.2 246.2 517.5 245.8Q517.7 245.4 518.3 245.1Q518.8 244.9 519.4 244.9L519.4 244.9Q520.0 244.9 520.4 245.1Q520.9 245.3 521.1 245.6Q521.4 245.9 521.6 246.4L521.6 246.4L520.7 246.6Q520.6 246.3 520.3 246.0Q520.0 245.7 519.4 245.7L519.4 245.7Q518.9 245.7 518.5 246.0Q518.1 246.2 518.1 246.6L518.1 246.6Q518.1 246.9 518.4 247.1Q518.6 247.3 519.2 247.5L519.2 247.5L520.1 247.7Q520.9 247.9 521.3 248.3Q521.7 248.7 521.7 249.3L521.7 249.3Q521.7 249.8 521.4 250.2Q521.1 250.7 520.5 250.9Q520.0 251.1 519.3 251.1ZM525.0 251L524.1 251L524.1 245.0L525.0 245.0L525.0 251ZM524.5 244.0L524.5 244.0Q524.3 244.0 524.1 243.8Q523.9 243.6 523.9 243.4L523.9 243.4Q523.9 243.1 524.1 242.9Q524.3 242.7 524.5 242.7L524.5 242.7Q524.8 242.7 525.0 242.9Q525.2 243.1 525.2 243.4L525.2 243.4Q525.2 243.6 525.0 243.8Q524.8 244.0 524.5 244.0ZM529.4 251.1L529.4 251.1Q528.8 251.1 528.4 250.9Q527.9 250.7 527.6 250.3Q527.4 249.9 527.4 249.3L527.4 249.3Q527.4 248.8 527.6 248.5Q527.8 248.1 528.1 247.9Q528.5 247.8 528.9 247.7Q529.3 247.6 529.7 247.5L529.7 247.5Q530.2 247.5 530.6 247.4Q530.9 247.4 531.1 247.3Q531.2 247.2 531.2 247.0L531.2 247.0L531.2 246.9Q531.2 246.6 531.1 246.3Q531.0 246.0 530.7 245.9Q530.4 245.8 530.0 245.8L530.0 245.8Q529.6 245.8 529.2 245.9Q528.9 246.0 528.7 246.2Q528.6 246.4 528.5 246.6L528.5 246.6L527.5 246.3Q527.8 245.8 528.2 245.5Q528.5 245.2 529.0 245.0Q529.5 244.9 530.0 244.9L530.0 244.9Q530.3 244.9 530.6 245.0Q531.0 245.1 531.4 245.3Q531.7 245.5 532.0 245.9Q532.2 246.3 532.2 247.0L532.2 247.0L532.2 251L531.3 251L531.3 250.2L531.2 250.2Q531.1 250.4 530.9 250.6Q530.6 250.8 530.3 251.0Q529.9 251.1 529.4 251.1ZM529.6 250.3L529.6 250.3Q530.1 250.3 530.5 250.1Q530.9 249.9 531.0 249.5Q531.2 249.2 531.2 248.8L531.2 248.8L531.2 248.0Q531.2 248.1 531.0 248.1Q530.8 248.2 530.5 248.2Q530.3 248.3 530.0 248.3Q529.8 248.3 529.7 248.3L529.7 248.3Q529.3 248.4 529.0 248.5Q528.7 248.6 528.5 248.8Q528.3 249.0 528.3 249.3L528.3 249.3Q528.3 249.7 528.5 249.9Q528.7 250.1 528.9 250.2Q529.2 250.3 529.6 250.3Z "/></g></svg>