<!-- Generated by readme-aura https://github.com/collectioneur/readme-aura -->
<svg width="800" height="360" viewBox="0 0 800 360" xmlns="http://www.w3.org/2000/svg"><defs><clipPath id="satori_bc-id"><path x="0" y="0" width="800" height="360" d="M16,0 h768 a16,16 0 0 1 16,16 v328 a16,16 0 0 1 -16,16 h-768 a16,16 0 0 1 -16,-16 v-328 a16,16 0 0 1 16,-16"/></clipPath></defs><clipPath id="satori_cp-id"><path x="0" y="0" width="800" height="360" d="M16,0 h768 a16,16 0 0 1 16,16 v328 a16,16 0 0 1 -16,16 h-768 a16,16 0 0 1 -16,-16 v-328 a16,16 0 0 1 16,-16"/></clipPath><mask id="satori_om-id"><rect x="1" y="1" width="798" height="358" fill="#fff"/><path width="800" height="360" fill="none" stroke="#000" stroke-width="2" d="M4.686,4.686 A16,16 0 0 1 16,0 h768 a16,16 0 0 1 16,16 v328 a16,16 0 0 1 -16,16 h-768 a16,16 0 0 1 -16,-16 v-328 A16,16 0 0 1 4.686,4.686"/></mask><path x="0" y="0" width="800" height="360" fill="#030305" d="M16,0 h768 a16,16 0 0 1 16,16 v328 a16,16 0 0 1 -16,16 h-768 a16,16 0 0 1 -16,-16 v-328 a16,16 0 0 1 16,-16"/><path width="800" height="360" clip-path="url(#satori_bc-id)" fill="none" stroke="rgba(255,255,255,0.06)" stroke-width="2" d="M4.686,4.686 A16,16 0 0 1 16,0 h768 a16,16 0 0 1 16,16 v328 a16,16 0 0 1 -16,16 h-768 a16,16 0 0 1 -16,-16 v-328 A16,16 0 0 1 4.686,4.686"/><clipPath id="satori_cp-id-0" clip-path="url(#satori_cp-id)"><rect x="1" y="1" width="798" height="358"/></clipPath><mask id="satori_om-id-0"><rect x="1" y="1" width="798" height="358" fill="#fff" mask="url(#satori_om-id)"/></mask><svg x="1" y="1" width="798" height="358" preserveAspectRatio="none" clip-path="url(#satori_cp-id-0)" mask="url(#satori_om-id-0)"><defs><radialGradient id="hg1" cx="50%" cy="50%" r="50%"><stop offset="0%" stop-color="rgba(42, 157, 143, 0.65)"></stop><stop offset="100%" stop-color="rgba(42, 157, 143, 0)"></stop></radialGradient><radialGradient id="hg2" cx="50%" cy="50%" r="50%"><stop offset="0%" stop-color="rgba(110, 80, 255, 0.55)"></stop><stop offset="100%" stop-color="rgba(110, 80, 255, 0)"></stop></radialGradient><radialGradient id="hg3" cx="50%" cy="50%" r="50%"><stop offset="0%" stop-color="rgba(226, 200, 122, 0.45)"></stop><stop offset="100%" stop-color="rgba(226, 200, 122, 0)"></stop></radialGradient></defs><ellipse id="hero-o1" cx="20%" cy="80%" rx="350" ry="250" fill="url(#hg1)"></ellipse><ellipse id="hero-o2" cx="80%" cy="10%" rx="320" ry="240" fill="url(#hg2)"></ellipse><ellipse id="hero-o3" cx="85%" cy="85%" rx="250" ry="200" fill="url(#hg3)"></ellipse><style>

    @keyframes hero-orb-a {
      0%, 100% { transform: translateX(0px) translateY(0px); opacity: 0.7; }
      50% { transform: translateX(40px) translateY(-30px); opacity: 1; }
    }
    @keyframes hero-orb-b {
      0%, 100% { transform: translateX(0px) translateY(0px); opacity: 0.6; }
      50% { transform: translateX(-30px) translateY(30px); opacity: 0.9; }
    }
    #hero-o1 { animation: hero-orb-a 10s ease-in-out infinite; }
    #hero-o2 { animation: hero-orb-b 12s ease-in-out infinite 1s; }
    #hero-o3 { animation: hero-orb-a 11s ease-in-out infinite 2s; }
  
</style>
</svg><mask id="satori_om-id-0-0"><rect x="1" y="1" width="0" height="358" fill="#fff" mask="url(#satori_om-id)"/></mask><mask id="satori_om-id-0-0-0"><rect x="1" y="1" width="0" height="358" fill="#fff" mask="url(#satori_om-id)"/></mask><mask id="satori_om-id-0-0-0-0"><rect x="1" y="1" width="0" height="358" fill="#fff" mask="url(#satori_om-id)"/></mask><mask id="satori_om-id-0-0-0-1"><rect x="1" y="1" width="0" height="358" fill="#fff" mask="url(#satori_om-id)"/></mask><mask id="satori_om-id-0-0-1"><rect x="1" y="1" width="0" height="358" fill="#fff" mask="url(#satori_om-id)"/></mask><mask id="satori_om-id-0-0-1-0"><rect x="1" y="1" width="0" height="358" fill="#fff" mask="url(#satori_om-id)"/></mask><mask id="satori_om-id-0-0-1-1"><rect x="1" y="1" width="0" height="358" fill="#fff" mask="url(#satori_om-id)"/></mask><mask id="satori_om-id-0-0-2"><rect x="1" y="1" width="0" height="358" fill="#fff" mask="url(#satori_om-id)"/></mask><mask id="satori_om-id-0-0-2-0"><rect x="1" y="1" width="0" height="358" fill="#fff" mask="url(#satori_om-id)"/></mask><mask id="satori_om-id-0-0-2-1"><rect x="1" y="1" width="0" height="358" fill="#fff" mask="url(#satori_om-id)"/></mask><mask id="satori_om-id-0-1"><rect x="1" y="1" width="0" height="358" fill="#fff" mask="url(#satori_om-id)"/></mask><mask id="satori_om-id-0-2"><rect x="1" y="1" width="0" height="358" fill="#fff" mask="url(#satori_om-id)"/></mask><mask id="satori_om-id-0-3"><rect x="1" y="1" width="0" height="358" fill="#fff" mask="url(#satori_om-id)"/></mask><mask id="satori_om-id-1"><rect x="220" y="104" width="361" height="152" fill="#fff" mask="url(#satori_om-id)"/></mask><mask id="satori_om-id-1-0"><rect x="229" y="104" width="343" height="64" fill="#fff" mask="url(#satori_om-id)"/></mask><defs><filter id="satori_s-id-1-0-0" x="-32.07%" y="-165.00%" width="174.14%" height="453.75%"><feDropShadow dx="0" dy="4" stdDeviation="10" flood-color="rgba(0,0,0,0.8)" flood-opacity="1"/></filter></defs><g filter="url(#satori_s-id-1-0-0)"><g mask="url(#satori_om-id)" clip-path="url(#satori_cp-id)"><path fill="#ffffff" d="M252.6 159.6L252.6 159.6Q249.7 159.6 247.8 158.6Q245.8 157.7 244.5 156.2Q243.3 154.8 242.7 153.4L242.7 153.4L242.2 153.4L242.2 159L233 159L233 112.4L242.4 112.4L242.4 129.9L242.7 129.9Q243.3 128.6 244.5 127.1Q245.7 125.6 247.7 124.6Q249.7 123.6 252.6 123.6L252.6 123.6Q256.5 123.6 259.7 125.6Q262.9 127.6 264.9 131.6Q266.8 135.6 266.8 141.6L266.8 141.6Q266.8 147.4 264.9 151.4Q263.0 155.4 259.8 157.5Q256.6 159.6 252.6 159.6ZM249.7 152.1L249.7 152.1Q252.1 152.1 253.8 150.7Q255.5 149.4 256.3 147Q257.2 144.6 257.2 141.6L257.2 141.6Q257.2 138.5 256.3 136.2Q255.5 133.8 253.8 132.5Q252.2 131.1 249.7 131.1L249.7 131.1Q247.3 131.1 245.6 132.4Q243.9 133.7 243.0 136.0Q242.2 138.4 242.2 141.6L242.2 141.6Q242.2 144.7 243.0 147.1Q243.9 149.4 245.6 150.8Q247.3 152.1 249.7 152.1ZM287.1 159.7L287.1 159.7Q281.8 159.7 277.9 157.5Q274.0 155.3 272.0 151.3Q269.9 147.3 269.9 141.7L269.9 141.7Q269.9 136.3 271.9 132.3Q274 128.2 277.8 125.9Q281.6 123.6 286.7 123.6L286.7 123.6Q290.1 123.6 293.1 124.7Q296.0 125.8 298.3 128.0Q300.5 130.2 301.8 133.5Q303.1 136.8 303.1 141.3L303.1 141.3L303.1 144.0L279.2 144.0Q279.3 146.6 280.2 148.5L280.2 148.5Q281.2 150.6 283.0 151.6Q284.8 152.6 287.3 152.6L287.3 152.6Q288.9 152.6 290.3 152.2Q291.6 151.7 292.6 150.8Q293.5 149.8 294.0 148.5L294.0 148.5L302.5 150.1Q301.7 153.0 299.6 155.1Q297.5 157.3 294.4 158.5Q291.2 159.7 287.1 159.7ZM279.2 138.1L279.2 138.1L294.0 138.1Q293.8 136.3 293.3 134.9L293.3 134.9Q292.4 132.9 290.8 131.8Q289.2 130.7 286.8 130.7L286.8 130.7Q284.3 130.7 282.6 131.8Q280.9 132.9 280.0 134.8L280.0 134.8Q279.4 136.3 279.2 138.1ZM323.3 159.7L323.3 159.7Q317.9 159.7 314.0 157.5Q310.2 155.3 308.1 151.3Q306 147.3 306 141.7L306 141.7Q306 136.3 308.1 132.3Q310.1 128.2 313.9 125.9Q317.7 123.6 322.8 123.6L322.8 123.6Q326.2 123.6 329.2 124.7Q332.2 125.8 334.4 128.0Q336.7 130.2 337.9 133.5Q339.2 136.8 339.2 141.3L339.2 141.3L339.2 144.0L315.3 144.0Q315.4 146.6 316.3 148.5L316.3 148.5Q317.3 150.6 319.1 151.6Q321.0 152.6 323.4 152.6L323.4 152.6Q325.1 152.6 326.4 152.2Q327.8 151.7 328.7 150.8Q329.7 149.8 330.2 148.5L330.2 148.5L338.7 150.1Q337.8 153.0 335.7 155.1Q333.6 157.3 330.5 158.5Q327.3 159.7 323.3 159.7ZM315.3 138.1L315.3 138.1L330.2 138.1Q330.0 136.3 329.4 134.9L329.4 134.9Q328.6 132.9 326.9 131.8Q325.3 130.7 322.9 130.7L322.9 130.7Q320.4 130.7 318.7 131.8Q317.0 132.9 316.2 134.8L316.2 134.8Q315.5 136.3 315.3 138.1ZM343.6 112.4L353.0 112.4L353.0 159L343.6 159L343.6 112.4ZM358.9 112.4L368.3 112.4L368.3 159L358.9 159L358.9 112.4ZM383.7 159L374.3 159L374.3 124.1L383.7 124.1L383.7 159ZM379.0 119.5L379.0 119.5Q376.8 119.5 375.3 118.1Q373.8 116.7 373.8 114.7L373.8 114.7Q373.8 112.7 375.3 111.3Q376.8 109.9 379.0 109.9L379.0 109.9Q381.1 109.9 382.6 111.3Q384.1 112.7 384.1 114.7L384.1 114.7Q384.1 116.7 382.6 118.1Q381.1 119.5 379.0 119.5ZM405.3 159.7L405.3 159.7Q400 159.7 396.2 157.4Q392.3 155.2 390.2 151.1Q388.2 147.1 388.2 141.7L388.2 141.7Q388.2 136.3 390.2 132.2Q392.3 128.2 396.2 125.9Q400 123.6 405.3 123.6L405.3 123.6Q410.5 123.6 414.4 125.9Q418.2 128.2 420.3 132.2Q422.3 136.3 422.3 141.7L422.3 141.7Q422.3 147.1 420.3 151.1Q418.2 155.2 414.4 157.4Q410.5 159.7 405.3 159.7ZM405.3 152.3L405.3 152.3Q407.8 152.3 409.4 150.9Q411.1 149.5 412.0 147.1Q412.8 144.7 412.8 141.7L412.8 141.7Q412.8 138.6 412.0 136.2Q411.1 133.8 409.4 132.4Q407.8 131 405.3 131L405.3 131Q402.8 131 401.1 132.4Q399.4 133.8 398.6 136.2Q397.7 138.6 397.7 141.7L397.7 141.7Q397.7 144.7 398.6 147.1Q399.4 149.5 401.1 150.9Q402.8 152.3 405.3 152.3ZM436.3 138.8L436.3 138.8L436.3 159L426.9 159L426.9 124.1L435.7 124.1L435.8 131.3Q437.2 128.0 439.5 126L439.5 126Q442.3 123.6 446.7 123.6L446.7 123.6Q450.3 123.6 453.0 125.2Q455.8 126.8 457.2 129.7Q458.7 132.7 458.7 136.8L458.7 136.8L458.7 159L449.3 159L449.3 138.4Q449.3 135.2 447.7 133.3Q446 131.5 443.0 131.5L443.0 131.5Q441.1 131.5 439.5 132.3Q438.0 133.2 437.1 134.8Q436.3 136.4 436.3 138.8ZM474.5 159.7L474.5 159.7Q471.2 159.7 468.5 158.5Q465.9 157.3 464.4 155.0Q462.8 152.7 462.8 149.2L462.8 149.2Q462.8 146.3 463.9 144.3Q465 142.4 466.9 141.2Q468.7 140 471.1 139.4Q473.4 138.8 476.0 138.5L476.0 138.5Q479.1 138.2 480.9 137.9Q482.8 137.7 483.6 137.1Q484.5 136.5 484.5 135.4L484.5 135.4L484.5 135.2Q484.5 133.7 483.9 132.7Q483.3 131.7 482.0 131.1Q480.8 130.6 479.0 130.6L479.0 130.6Q477.2 130.6 475.9 131.1Q474.5 131.7 473.7 132.6Q472.8 133.5 472.4 134.6L472.4 134.6L463.8 133.2Q464.8 130.1 466.8 128Q468.9 125.9 472.0 124.8Q475.2 123.6 479.1 123.6L479.1 123.6Q481.9 123.6 484.5 124.3Q487.2 125.0 489.3 126.4Q491.4 127.8 492.6 130.0Q493.9 132.3 493.9 135.5L493.9 135.5L493.9 159L485 159L485 154.2L484.7 154.2Q483.8 155.8 482.4 157.0Q481.0 158.3 479.0 159.0Q477.1 159.7 474.5 159.7ZM477.1 153.1L477.1 153.1Q479.3 153.1 481.0 152.2Q482.7 151.3 483.6 149.8Q484.6 148.3 484.6 146.5L484.6 146.5L484.6 142.7Q484.2 143.0 483.3 143.3Q482.5 143.5 481.4 143.7Q480.4 143.9 479.4 144.1Q478.4 144.2 477.6 144.3L477.6 144.3Q475.9 144.6 474.6 145.1Q473.3 145.7 472.6 146.6Q471.8 147.5 471.8 149.0L471.8 149.0Q471.8 150.3 472.5 151.2Q473.2 152.2 474.4 152.6Q475.6 153.1 477.1 153.1ZM509.3 159L499.9 159L499.9 124.1L509.3 124.1L509.3 159ZM504.6 119.5L504.6 119.5Q502.4 119.5 500.9 118.1Q499.4 116.7 499.4 114.7L499.4 114.7Q499.4 112.7 500.9 111.3Q502.4 109.9 504.6 109.9L504.6 109.9Q506.7 109.9 508.2 111.3Q509.7 112.7 509.7 114.7L509.7 114.7Q509.7 116.7 508.2 118.1Q506.7 119.5 504.6 119.5ZM524.6 159L515.2 159L515.2 124.1L524.3 124.1L524.3 130.2L524.7 130.2Q525.6 126.9 527.9 125.3Q530.2 123.6 533.1 123.6L533.1 123.6Q533.8 123.6 534.7 123.7Q535.5 123.8 536.1 123.9L536.1 123.9L536.1 132.3Q535.5 132.1 534.3 131.9Q533.1 131.8 532.1 131.8L532.1 131.8Q529.9 131.8 528.2 132.7Q526.5 133.7 525.5 135.3Q524.6 136.9 524.6 139.1L524.6 139.1L524.6 159ZM555.1 159.7L555.1 159.7Q549.7 159.7 545.8 157.5Q542.0 155.3 539.9 151.3Q537.8 147.3 537.8 141.7L537.8 141.7Q537.8 136.3 539.9 132.3Q541.9 128.2 545.7 125.9Q549.5 123.6 554.6 123.6L554.6 123.6Q558.0 123.6 561 124.7Q564.0 125.8 566.2 128.0Q568.5 130.2 569.7 133.5Q571 136.8 571 141.3L571 141.3L571 144.0L547.1 144.0Q547.2 146.6 548.1 148.5L548.1 148.5Q549.1 150.6 551.0 151.6Q552.8 152.6 555.2 152.6L555.2 152.6Q556.9 152.6 558.2 152.2Q559.6 151.7 560.5 150.8Q561.5 149.8 562.0 148.5L562.0 148.5L570.5 150.1Q569.6 153.0 567.5 155.1Q565.4 157.3 562.3 158.5Q559.2 159.7 555.1 159.7ZM547.2 138.1L547.2 138.1L562.0 138.1Q561.8 136.3 561.2 134.9L561.2 134.9Q560.4 132.9 558.7 131.8Q557.1 130.7 554.7 130.7L554.7 130.7Q552.3 130.7 550.5 131.8Q548.8 132.9 548.0 134.8L548.0 134.8Q547.3 136.3 547.2 138.1Z "/></g></g><mask id="satori_om-id-1-1"><rect x="220" y="184" width="361" height="15" fill="#fff" mask="url(#satori_om-id)"/></mask><g mask="url(#satori_om-id)" clip-path="url(#satori_cp-id)"><path fill="rgba(255,255,255,0.7)" d="M226.4 196L221.1 196L221.1 187.3L226.4 187.3L226.4 188.3L222.2 188.3L222.2 191.1L226.1 191.1L226.1 192.1L222.2 192.1L222.2 195.0L226.4 195.0L226.4 196ZM235.4 196L234.3 196L234.3 187.3L235.6 187.3L239.1 192.9Q239.3 193.1 239.5 193.4Q239.7 193.8 239.9 194.2L239.9 194.2Q240.0 194.4 240.2 194.7L240.2 194.7Q240.1 194.4 240.1 194.1L240.1 194.1Q240.1 193.7 240.1 193.3Q240.1 192.9 240.1 192.6L240.1 192.6L240.1 187.3L241.2 187.3L241.2 196L239.9 196L236.7 191.0Q236.5 190.7 236.3 190.3Q236.1 190.0 235.8 189.4L235.8 189.4Q235.6 189.1 235.3 188.6L235.3 188.6Q235.3 189.0 235.3 189.4L235.3 189.4Q235.4 190.0 235.4 190.4Q235.4 190.8 235.4 191.0L235.4 191.0L235.4 196ZM252.9 196.1L252.9 196.1Q251.7 196.1 250.8 195.6Q250.0 195.0 249.5 194.0Q249.0 193.0 249.0 191.6L249.0 191.6Q249.0 190.3 249.5 189.2Q250.0 188.2 250.8 187.7Q251.7 187.2 252.8 187.2L252.8 187.2Q253.5 187.2 254.1 187.4Q254.7 187.6 255.2 187.9Q255.6 188.3 256.0 188.8Q256.3 189.4 256.4 190.0L256.4 190.0L255.2 190.0Q255.1 189.6 254.9 189.3Q254.7 188.9 254.4 188.7Q254.0 188.4 253.7 188.3Q253.3 188.2 252.8 188.2L252.8 188.2Q252.0 188.2 251.4 188.6Q250.8 189.0 250.4 189.7Q250.1 190.5 250.1 191.6L250.1 191.6Q250.1 192.8 250.4 193.5Q250.8 194.3 251.4 194.7Q252.1 195.1 252.9 195.1L252.9 195.1Q253.6 195.1 254.2 194.8Q254.7 194.5 255.1 193.9L255.1 193.9Q255.4 193.3 255.4 192.6L255.4 192.6L253.1 192.6L253.1 191.6L256.5 191.6L256.5 192.6Q256.5 193.7 256.0 194.4Q255.5 195.2 254.7 195.7Q253.9 196.1 252.9 196.1ZM264.3 187.3L265.4 187.3L265.4 196L264.3 196L264.3 187.3ZM274.6 196L273.5 196L273.5 187.3L274.8 187.3L278.3 192.9Q278.5 193.1 278.7 193.4Q278.9 193.8 279.1 194.2L279.1 194.2Q279.3 194.4 279.4 194.7L279.4 194.7Q279.3 194.4 279.3 194.1L279.3 194.1Q279.3 193.7 279.3 193.3Q279.3 192.9 279.3 192.6L279.3 192.6L279.3 187.3L280.4 187.3L280.4 196L279.1 196L275.9 191.0Q275.7 190.7 275.5 190.3Q275.3 190.0 275.0 189.4L275.0 189.4Q274.8 189.1 274.5 188.6L274.5 188.6Q274.5 189.0 274.6 189.4L274.6 189.4Q274.6 190.0 274.6 190.4Q274.6 190.8 274.6 191.0L274.6 191.0L274.6 196ZM293.9 196L288.5 196L288.5 187.3L293.8 187.3L293.8 188.3L289.6 188.3L289.6 191.1L293.6 191.1L293.6 192.1L289.6 192.1L289.6 195.0L293.9 195.0L293.9 196ZM307.1 196L301.7 196L301.7 187.3L307.1 187.3L307.1 188.3L302.9 188.3L302.9 191.1L306.8 191.1L306.8 192.1L302.9 192.1L302.9 195.0L307.1 195.0L307.1 196ZM316.1 196L315.0 196L315.0 187.3L317.9 187.3Q319.0 187.3 319.6 187.6Q320.3 188.0 320.6 188.6Q320.9 189.2 320.9 190.0Q320.9 190.7 320.6 191.3Q320.3 191.9 319.6 192.3L319.6 192.3Q319.5 192.4 319.3 192.4L319.3 192.4L321.3 196L320.0 196L318.2 192.6Q318.1 192.6 317.9 192.6L317.9 192.6L316.1 192.6L316.1 196ZM316.1 188.2L316.1 191.6L317.9 191.6Q318.6 191.6 319.0 191.4Q319.4 191.2 319.6 190.8Q319.8 190.5 319.8 190.0L319.8 190.0Q319.8 189.4 319.6 189.1Q319.4 188.7 319 188.5Q318.6 188.2 317.9 188.2L317.9 188.2L316.1 188.2ZM328.7 187.3L329.8 187.3L329.8 196L328.7 196L328.7 187.3ZM339.0 196L337.9 196L337.9 187.3L339.2 187.3L342.8 192.9Q342.9 193.1 343.1 193.4Q343.3 193.8 343.5 194.2L343.5 194.2Q343.7 194.4 343.8 194.7L343.8 194.7Q343.8 194.4 343.8 194.1L343.8 194.1Q343.7 193.7 343.7 193.3Q343.7 192.9 343.7 192.6L343.7 192.6L343.7 187.3L344.8 187.3L344.8 196L343.5 196L340.3 191.0Q340.1 190.7 339.9 190.3Q339.7 190.0 339.4 189.4L339.4 189.4Q339.2 189.1 338.9 188.6L338.9 188.6Q338.9 189.0 339.0 189.4L339.0 189.4Q339.0 190.0 339.0 190.4Q339.0 190.8 339.0 191.0L339.0 191.0L339.0 196ZM356.5 196.1L356.5 196.1Q355.3 196.1 354.5 195.6Q353.6 195.0 353.1 194.0Q352.6 193.0 352.6 191.6L352.6 191.6Q352.6 190.3 353.1 189.2Q353.6 188.2 354.4 187.7Q355.3 187.2 356.4 187.2L356.4 187.2Q357.1 187.2 357.7 187.4Q358.3 187.6 358.8 187.9Q359.3 188.3 359.6 188.8Q359.9 189.4 360.0 190.0L360.0 190.0L358.9 190.0Q358.7 189.6 358.5 189.3Q358.3 188.9 358.0 188.7Q357.7 188.4 357.3 188.3Q356.9 188.2 356.4 188.2L356.4 188.2Q355.7 188.2 355.0 188.6Q354.4 189.0 354.1 189.7Q353.7 190.5 353.7 191.6L353.7 191.6Q353.7 192.8 354.1 193.5Q354.4 194.3 355.1 194.7Q355.7 195.1 356.5 195.1L356.5 195.1Q357.2 195.1 357.8 194.8Q358.4 194.5 358.7 193.9L358.7 193.9Q359.0 193.3 359.0 192.6L359.0 192.6L356.7 192.6L356.7 191.6L360.1 191.6L360.1 192.6Q360.1 193.7 359.6 194.4Q359.2 195.2 358.4 195.7Q357.5 196.1 356.5 196.1Z M377.9 192.6L377.9 192.6Q377.6 192.6 377.4 192.4Q377.1 192.2 377.1 191.9L377.1 191.9Q377.1 191.5 377.4 191.3Q377.6 191.1 377.9 191.1L377.9 191.1Q378.3 191.1 378.5 191.3Q378.7 191.5 378.7 191.9L378.7 191.9Q378.7 192.2 378.5 192.4Q378.3 192.6 377.9 192.6Z M399.5 196.1L399.5 196.1Q398.5 196.1 397.7 195.7Q396.9 195.3 396.5 194.6Q396.1 193.9 396.1 193.0L396.1 193.0L396.1 187.3L397.2 187.3L397.2 192.9Q397.2 193.6 397.5 194.1Q397.8 194.5 398.3 194.8Q398.8 195.1 399.5 195.1L399.5 195.1Q400.2 195.1 400.7 194.8Q401.3 194.5 401.5 194.1Q401.8 193.6 401.8 192.9L401.8 192.9L401.8 187.3L402.9 187.3L402.9 193.0Q402.9 193.9 402.5 194.6Q402.1 195.3 401.3 195.7Q400.5 196.1 399.5 196.1ZM411.0 187.3L412.1 187.3L412.1 196L411.0 196L411.0 187.3ZM422.3 186.9L423.3 186.9L420.4 197.3L419.5 197.3L422.3 186.9ZM434.0 196.1L434.0 196.1Q433.0 196.1 432.2 195.7Q431.4 195.3 431.0 194.6Q430.6 193.9 430.6 193.0L430.6 193.0L430.6 187.3L431.7 187.3L431.7 192.9Q431.7 193.6 432.0 194.1Q432.2 194.5 432.8 194.8Q433.3 195.1 434.0 195.1L434.0 195.1Q434.7 195.1 435.2 194.8Q435.7 194.5 436.0 194.1Q436.3 193.6 436.3 192.9L436.3 192.9L436.3 187.3L437.4 187.3L437.4 193.0Q437.4 193.9 437.0 194.6Q436.6 195.3 435.8 195.7Q435.0 196.1 434.0 196.1ZM446.0 196L444.8 196L447.9 191.5L445.0 187.3L446.3 187.3L447.5 189.1Q447.8 189.5 448.0 189.8Q448.2 190.1 448.3 190.4L448.3 190.4Q448.4 190.6 448.6 190.8L448.6 190.8Q448.7 190.6 448.8 190.4L448.8 190.4Q448.9 190.1 449.1 189.8Q449.3 189.5 449.6 189.1L449.6 189.1L450.9 187.3L452.1 187.3L449.2 191.5L452.3 196L451.0 196L449.5 193.8Q449.2 193.4 449.1 193.2Q448.9 192.9 448.8 192.6L448.8 192.6Q448.7 192.5 448.5 192.3L448.5 192.3Q448.4 192.5 448.3 192.6L448.3 192.6Q448.2 192.9 448.0 193.1Q447.8 193.4 447.6 193.8L447.6 193.8L446.0 196Z M469.7 192.6L469.7 192.6Q469.4 192.6 469.2 192.4Q468.9 192.2 468.9 191.9L468.9 191.9Q468.9 191.5 469.2 191.3Q469.4 191.1 469.7 191.1L469.7 191.1Q470.1 191.1 470.3 191.3Q470.5 191.5 470.5 191.9L470.5 191.9Q470.5 192.2 470.3 192.4Q470.1 192.6 469.7 192.6Z M489.0 196L487.9 196L487.9 187.3L493.2 187.3L493.2 188.3L489.0 188.3L489.0 191.2L492.8 191.2L492.8 192.2L489.0 192.2L489.0 196ZM501.0 187.3L502.1 187.3L502.1 196L501.0 196L501.0 187.3ZM511.3 196L510.2 196L510.2 187.3L511.5 187.3L515.1 192.9Q515.2 193.1 515.4 193.4Q515.6 193.8 515.8 194.2L515.8 194.2Q516.0 194.4 516.1 194.7L516.1 194.7Q516.1 194.4 516.1 194.1L516.1 194.1Q516.0 193.7 516.0 193.3Q516.0 192.9 516.0 192.6L516.0 192.6L516.0 187.3L517.1 187.3L517.1 196L515.8 196L512.6 191.0Q512.4 190.7 512.2 190.3Q512.0 190.0 511.7 189.4L511.7 189.4Q511.5 189.1 511.2 188.6L511.2 188.6Q511.3 189.0 511.3 189.4L511.3 189.4Q511.3 190.0 511.3 190.4Q511.3 190.8 511.3 191.0L511.3 191.0L511.3 196ZM527.5 188.3L524.8 188.3L524.8 187.3L531.4 187.3L531.4 188.3L528.6 188.3L528.6 196L527.5 196L527.5 188.3ZM544.4 196L539.0 196L539.0 187.3L544.3 187.3L544.3 188.3L540.1 188.3L540.1 191.1L544.0 191.1L544.0 192.1L540.1 192.1L540.1 195.0L544.4 195.0L544.4 196ZM555.7 196.1L555.7 196.1Q554.6 196.1 553.7 195.6Q552.9 195.0 552.4 194.0Q551.9 193.0 551.9 191.6L551.9 191.6Q551.9 190.3 552.4 189.2Q552.9 188.2 553.7 187.7Q554.6 187.2 555.7 187.2L555.7 187.2Q556.4 187.2 557.0 187.3Q557.6 187.5 558.0 187.9Q558.5 188.3 558.8 188.8Q559.1 189.3 559.3 190.0L559.3 190.0L558.1 190.0Q558.1 189.6 557.8 189.2Q557.6 188.9 557.3 188.7Q556.9 188.4 556.6 188.3Q556.2 188.2 555.7 188.2L555.7 188.2Q555.0 188.2 554.3 188.6Q553.7 189.0 553.3 189.8Q552.9 190.5 552.9 191.6L552.9 191.6Q552.9 192.8 553.3 193.5Q553.7 194.3 554.3 194.7Q555.0 195.1 555.7 195.1L555.7 195.1Q556.2 195.1 556.6 195.0Q556.9 194.8 557.3 194.6Q557.6 194.4 557.8 194.0Q558.1 193.7 558.1 193.3L558.1 193.3L559.3 193.3Q559.1 193.9 558.8 194.4Q558.5 195.0 558.1 195.3Q557.6 195.7 557.0 195.9Q556.4 196.1 555.7 196.1ZM568.1 196L567.0 196L567.0 187.3L568.1 187.3L568.1 191.0L572.7 191.0L572.7 187.3L573.8 187.3L573.8 196L572.7 196L572.7 192.0L568.1 192.0L568.1 196Z "/></g><mask id="satori_om-id-1-2"><rect x="234" y="229" width="333" height="27" fill="#fff" mask="url(#satori_om-id)"/></mask><defs><clipPath id="satori_bc-id-1-2-0" clip-path="url(#satori_cp-id)"><path x="234" y="229" width="100" height="27" d="M242,229 h84 a8,8 0 0 1 8,8 v11 a8,8 0 0 1 -8,8 h-84 a8,8 0 0 1 -8,-8 v-11 a8,8 0 0 1 8,-8"/></clipPath></defs><mask id="satori_om-id-1-2-0"><rect x="235" y="230" width="98" height="25" fill="#fff" mask="url(#satori_om-id)"/><path width="100" height="27" fill="none" stroke="#000" stroke-width="2" d="M236.343,231.343 A8,8 0 0 1 242,229 h84 a8,8 0 0 1 8,8 v11 a8,8 0 0 1 -8,8 h-84 a8,8 0 0 1 -8,-8 v-11 A8,8 0 0 1 236.343,231.343"/></mask><path x="234" y="229" width="100" height="27" fill="rgba(255,255,255,0.05)" d="M242,229 h84 a8,8 0 0 1 8,8 v11 a8,8 0 0 1 -8,8 h-84 a8,8 0 0 1 -8,-8 v-11 a8,8 0 0 1 8,-8" clip-path="url(#satori_cp-id)" mask="url(#satori_om-id)"/><path width="100" height="27" clip-path="url(#satori_bc-id-1-2-0)" fill="none" stroke="rgba(255,255,255,0.15)" stroke-width="2" d="M236.343,231.343 A8,8 0 0 1 242,229 h84 a8,8 0 0 1 8,8 v11 a8,8 0 0 1 -8,8 h-84 a8,8 0 0 1 -8,-8 v-11 A8,8 0 0 1 236.343,231.343"/><g mask="url(#satori_om-id)" clip-path="url(#satori_cp-id)"><path fill="rgba(255,255,255,0.9)" d="M255.0 247L254.0 247L254.0 239.0L258.8 239.0L258.8 239.9L255.0 239.9L255.0 242.6L258.4 242.6L258.4 243.5L255.0 243.5L255.0 247ZM262.3 247L261.3 247L261.3 241.0L262.3 241.0L262.3 241.9L262.3 241.9Q262.5 241.5 262.9 241.2Q263.4 240.9 263.9 240.9L263.9 240.9Q264.0 240.9 264.2 240.9Q264.3 240.9 264.4 240.9L264.4 240.9L264.4 241.9Q264.3 241.9 264.2 241.9Q264.0 241.8 263.8 241.8L263.8 241.8Q263.4 241.8 263.0 242.0Q262.7 242.2 262.5 242.5Q262.3 242.8 262.3 243.2L262.3 243.2L262.3 247ZM268.9 247.1L268.9 247.1Q268.1 247.1 267.5 246.7Q266.9 246.4 266.5 245.7Q266.2 245.0 266.2 244.0L266.2 244.0Q266.2 243.1 266.5 242.4Q266.9 241.7 267.5 241.3Q268.1 240.9 268.9 240.9L268.9 240.9Q269.7 240.9 270.4 241.3Q271.0 241.7 271.3 242.4Q271.7 243.1 271.7 244.0L271.7 244.0Q271.7 245.0 271.3 245.7Q271.0 246.4 270.4 246.7Q269.7 247.1 268.9 247.1ZM268.9 246.3L268.9 246.3Q269.5 246.3 269.9 246.0Q270.3 245.6 270.5 245.1Q270.7 244.6 270.7 244.0L270.7 244.0Q270.7 243.4 270.5 242.9Q270.3 242.4 269.9 242.1Q269.5 241.8 268.9 241.8L268.9 241.8Q268.3 241.8 267.9 242.1Q267.6 242.4 267.4 242.9Q267.2 243.4 267.2 244.0L267.2 244.0Q267.2 244.6 267.4 245.1Q267.6 245.6 267.9 246.0Q268.3 246.3 268.9 246.3ZM275.0 243.4L275.0 243.4L275.0 247L274.1 247L274.1 241.0L275.0 241.0L275.0 242.1Q275.3 241.5 275.7 241.3L275.7 241.3Q276.2 240.9 276.9 240.9L276.9 240.9Q277.5 240.9 277.9 241.2Q278.4 241.4 278.6 241.9Q278.9 242.4 278.9 243.2L278.9 243.2L278.9 247L277.9 247L277.9 243.3Q277.9 242.6 277.6 242.2Q277.2 241.8 276.6 241.8L276.6 241.8Q276.1 241.8 275.8 242.0Q275.4 242.2 275.2 242.5Q275.0 242.9 275.0 243.4ZM282.7 241.0L283.9 241.0L283.9 241.8L282.7 241.8L282.7 245.4Q282.7 245.8 282.9 246.0Q283.0 246.2 283.4 246.2L283.4 246.2Q283.5 246.2 283.6 246.2Q283.8 246.2 283.9 246.2L283.9 246.2L284.1 247.0Q284.0 247.0 283.8 247.0Q283.6 247.1 283.4 247.1L283.4 247.1Q282.6 247.1 282.2 246.7Q281.7 246.3 281.7 245.5L281.7 245.5L281.7 241.8L280.8 241.8L280.8 241.0L281.7 241.0L281.7 239.6L282.7 239.6L282.7 241.0ZM286.1 243.1L289.6 243.1L289.6 244.0L286.1 244.0L286.1 243.1ZM294.8 247.1L294.8 247.1Q293.9 247.1 293.3 246.7Q292.6 246.4 292.3 245.7Q291.9 245.0 291.9 244.0Q291.9 243.1 292.3 242.4Q292.6 241.7 293.2 241.3Q293.8 240.9 294.6 240.9L294.6 240.9Q295.1 240.9 295.6 241.1Q296.1 241.2 296.4 241.6Q296.8 241.9 297.0 242.5Q297.3 243.1 297.3 243.9L297.3 243.9L297.3 244.3L292.9 244.3Q292.9 244.9 293.2 245.3L293.2 245.3Q293.4 245.8 293.8 246.0Q294.2 246.3 294.8 246.3L294.8 246.3Q295.1 246.3 295.4 246.2Q295.7 246.1 295.9 245.9Q296.1 245.7 296.2 245.3L296.2 245.3L297.2 245.6Q297.0 246.1 296.7 246.4Q296.4 246.7 295.9 246.9Q295.4 247.1 294.8 247.1ZM292.9 243.5L292.9 243.5L296.3 243.5Q296.2 243.1 296.1 242.8L296.1 242.8Q295.9 242.3 295.6 242.0Q295.2 241.8 294.6 241.8Q294.1 241.8 293.7 242.0Q293.3 242.3 293.1 242.7L293.1 242.7Q293.0 243.1 292.9 243.5ZM300.6 243.4L300.6 243.4L300.6 247L299.6 247L299.6 241.0L300.6 241.0L300.6 242.1Q300.8 241.5 301.2 241.3L301.2 241.3Q301.7 240.9 302.4 240.9L302.4 240.9Q303.0 240.9 303.5 241.2Q303.9 241.4 304.2 241.9Q304.5 242.4 304.5 243.2L304.5 243.2L304.5 247L303.5 247L303.5 243.3Q303.5 242.6 303.1 242.2Q302.8 241.8 302.1 241.8L302.1 241.8Q301.7 241.8 301.4 242.0Q301.0 242.2 300.8 242.5Q300.6 242.9 300.6 243.4ZM309.4 247.1L309.4 247.1Q308.7 247.1 308.1 246.7Q307.5 246.4 307.2 245.7Q306.9 245.0 306.9 244.0L306.9 244.0Q306.9 243.1 307.2 242.4Q307.5 241.7 308.1 241.3Q308.7 240.9 309.4 240.9L309.4 240.9Q310.0 240.9 310.3 241.1Q310.7 241.3 310.9 241.6Q311.0 241.8 311.1 242.0L311.1 242.0L311.2 242.0L311.2 239.0L312.2 239.0L312.2 247L311.3 247L311.3 246.1L311.1 246.1Q311.0 246.2 310.9 246.5Q310.7 246.7 310.3 246.9Q310.0 247.1 309.4 247.1ZM309.5 246.3L309.5 246.3Q310.1 246.3 310.5 246.0Q310.8 245.7 311.0 245.2Q311.2 244.7 311.2 244.0L311.2 244.0Q311.2 243.3 311.0 242.8Q310.8 242.3 310.5 242.1Q310.1 241.8 309.5 241.8L309.5 241.8Q309.0 241.8 308.6 242.1Q308.2 242.4 308.0 242.9Q307.8 243.4 307.8 244.0L307.8 244.0Q307.8 244.6 308.0 245.1Q308.2 245.7 308.6 246.0Q309.0 246.3 309.5 246.3Z "/></g><defs><clipPath id="satori_bc-id-1-2-1" clip-path="url(#satori_cp-id)"><path x="344" y="229" width="120" height="27" d="M352,229 h104 a8,8 0 0 1 8,8 v11 a8,8 0 0 1 -8,8 h-104 a8,8 0 0 1 -8,-8 v-11 a8,8 0 0 1 8,-8"/></clipPath></defs><mask id="satori_om-id-1-2-1"><rect x="345" y="230" width="118" height="25" fill="#fff" mask="url(#satori_om-id)"/><path width="120" height="27" fill="none" stroke="#000" stroke-width="2" d="M346.343,231.343 A8,8 0 0 1 352,229 h104 a8,8 0 0 1 8,8 v11 a8,8 0 0 1 -8,8 h-104 a8,8 0 0 1 -8,-8 v-11 A8,8 0 0 1 346.343,231.343"/></mask><path x="344" y="229" width="120" height="27" fill="rgba(255,255,255,0.05)" d="M352,229 h104 a8,8 0 0 1 8,8 v11 a8,8 0 0 1 -8,8 h-104 a8,8 0 0 1 -8,-8 v-11 a8,8 0 0 1 8,-8" clip-path="url(#satori_cp-id)" mask="url(#satori_om-id)"/><path width="120" height="27" clip-path="url(#satori_bc-id-1-2-1)" fill="none" stroke="rgba(255,255,255,0.15)" stroke-width="2" d="M346.343,231.343 A8,8 0 0 1 352,229 h104 a8,8 0 0 1 8,8 v11 a8,8 0 0 1 -8,8 h-104 a8,8 0 0 1 -8,-8 v-11 A8,8 0 0 1 346.343,231.343"/><g mask="url(#satori_om-id)" clip-path="url(#satori_cp-id)"><path fill="rgba(255,255,255,0.9)" d="M367.1 247.1L367.1 247.1Q366.2 247.1 365.4 246.8Q364.7 246.4 364.4 245.7Q364.0 245.1 364.0 244.3L364.0 244.3L364.0 239.0L365.0 239.0L365.0 244.2Q365.0 244.8 365.2 245.2Q365.5 245.7 366.0 245.9Q366.4 246.2 367.1 246.2L367.1 246.2Q367.8 246.2 368.2 245.9Q368.7 245.7 368.9 245.2Q369.2 244.8 369.2 244.2L369.2 244.2L369.2 239.0L370.2 239.0L370.2 244.3Q370.2 245.1 369.8 245.7Q369.4 246.4 368.7 246.8Q368.0 247.1 367.1 247.1ZM373.2 239.0L374.2 239.0L374.2 247L373.2 247L373.2 239.0ZM379.0 238.6L379.9 238.6L377.3 248.2L376.4 248.2L379.0 238.6ZM385.2 247.1L385.2 247.1Q384.3 247.1 383.6 246.8Q382.8 246.4 382.5 245.7Q382.1 245.1 382.1 244.3L382.1 244.3L382.1 239.0L383.1 239.0L383.1 244.2Q383.1 244.8 383.3 245.2Q383.6 245.7 384.1 245.9Q384.5 246.2 385.2 246.2L385.2 246.2Q385.9 246.2 386.3 245.9Q386.8 245.7 387.0 245.2Q387.3 244.8 387.3 244.2L387.3 244.2L387.3 239.0L388.3 239.0L388.3 244.3Q388.3 245.1 387.9 245.7Q387.5 246.4 386.8 246.8Q386.1 247.1 385.2 247.1ZM391.8 247L390.6 247L393.5 242.9L390.8 239.0L392.0 239.0L393.1 240.7Q393.4 241.1 393.5 241.3Q393.7 241.6 393.8 241.8L393.8 241.8Q393.9 242.0 394.1 242.3L394.1 242.3Q394.2 242.0 394.3 241.8L394.3 241.8Q394.4 241.6 394.6 241.3Q394.7 241.1 395.0 240.7L395.0 240.7L396.2 239.0L397.3 239.0L394.6 242.9L397.5 247L396.3 247L394.9 245.0Q394.7 244.6 394.5 244.4Q394.4 244.2 394.2 243.9L394.2 243.9Q394.1 243.8 394.0 243.6L394.0 243.6Q393.9 243.8 393.9 243.9L393.9 243.9Q393.7 244.1 393.6 244.4Q393.4 244.6 393.2 245.0L393.2 245.0L391.8 247Z M406.4 247L406.4 247L403.9 247L403.9 239.0L406.5 239.0Q407.6 239.0 408.5 239.5Q409.3 240.0 409.7 240.8Q410.2 241.7 410.2 243.0L410.2 243.0Q410.2 244.2 409.7 245.1Q409.3 246.0 408.4 246.5Q407.6 247 406.4 247ZM404.9 239.9L404.9 246.1L406.3 246.1Q407.3 246.1 407.9 245.7Q408.5 245.4 408.9 244.7Q409.2 244.0 409.2 243.0L409.2 243.0Q409.2 242.0 408.9 241.3Q408.6 240.6 407.9 240.3Q407.3 239.9 406.4 239.9L406.4 239.9L404.9 239.9ZM415.2 247.1L415.2 247.1Q414.3 247.1 413.7 246.7Q413.1 246.4 412.7 245.7Q412.4 245.0 412.4 244.0Q412.4 243.1 412.7 242.4Q413.0 241.7 413.7 241.3Q414.3 240.9 415.1 240.9L415.1 240.9Q415.6 240.9 416.0 241.1Q416.5 241.2 416.9 241.6Q417.2 241.9 417.5 242.5Q417.7 243.1 417.7 243.9L417.7 243.9L417.7 244.3L413.4 244.3Q413.4 244.9 413.6 245.3L413.6 245.3Q413.8 245.8 414.2 246.0Q414.7 246.3 415.2 246.3L415.2 246.3Q415.6 246.3 415.8 246.2Q416.1 246.1 416.3 245.9Q416.6 245.7 416.7 245.3L416.7 245.3L417.6 245.6Q417.5 246.1 417.1 246.4Q416.8 246.7 416.3 246.9Q415.8 247.1 415.2 247.1ZM413.4 243.5L413.4 243.5L416.7 243.5Q416.7 243.1 416.5 242.8L416.5 242.8Q416.4 242.3 416.0 242.0Q415.6 241.8 415.1 241.8Q414.5 241.8 414.2 242.0Q413.8 242.3 413.6 242.7L413.6 242.7Q413.4 243.1 413.4 243.5ZM422.1 247.1L422.1 247.1Q421.5 247.1 421.0 246.9Q420.5 246.8 420.2 246.4Q419.9 246.1 419.8 245.5L419.8 245.5L420.7 245.3Q420.9 245.8 421.2 246.0Q421.6 246.3 422.1 246.3L422.1 246.3Q422.7 246.3 423.1 246.0Q423.5 245.7 423.5 245.4L423.5 245.4Q423.5 245.1 423.3 244.9Q423.1 244.6 422.6 244.5L422.6 244.5L421.6 244.3Q420.8 244.1 420.4 243.7Q420.0 243.3 420.0 242.7L420.0 242.7Q420.0 242.2 420.3 241.8Q420.6 241.4 421.1 241.1Q421.6 240.9 422.2 240.9L422.2 240.9Q422.8 240.9 423.3 241.1Q423.7 241.3 424.0 241.6Q424.2 241.9 424.4 242.4L424.4 242.4L423.5 242.6Q423.4 242.3 423.1 242.0Q422.8 241.7 422.2 241.7L422.2 241.7Q421.7 241.7 421.3 242.0Q421.0 242.2 421.0 242.6L421.0 242.6Q421.0 242.9 421.2 243.1Q421.5 243.3 422.0 243.5L422.0 243.5L422.9 243.7Q423.7 243.9 424.1 244.3Q424.5 244.7 424.5 245.3L424.5 245.3Q424.5 245.8 424.2 246.2Q423.9 246.7 423.4 246.9Q422.8 247.1 422.1 247.1ZM427.9 247L426.9 247L426.9 241.0L427.9 241.0L427.9 247ZM427.4 240.0L427.4 240.0Q427.1 240.0 426.9 239.8Q426.7 239.6 426.7 239.4L426.7 239.4Q426.7 239.1 426.9 238.9Q427.1 238.7 427.4 238.7L427.4 238.7Q427.7 238.7 427.9 238.9Q428.1 239.1 428.1 239.4L428.1 239.4Q428.1 239.6 427.9 239.8Q427.7 240.0 427.4 240.0ZM433.0 249.4L433.0 249.4Q432.3 249.4 431.8 249.2Q431.4 249.0 431.0 248.8Q430.7 248.5 430.5 248.1L430.5 248.1L431.3 247.6Q431.4 247.8 431.6 248.0Q431.8 248.2 432.1 248.4Q432.5 248.5 433.0 248.5L433.0 248.5Q433.7 248.5 434.2 248.2Q434.6 247.8 434.6 247.1L434.6 247.1L434.6 245.9L434.5 245.9Q434.4 246.1 434.3 246.3Q434.1 246.5 433.7 246.7Q433.4 246.9 432.8 246.9L432.8 246.9Q432.1 246.9 431.5 246.6Q430.9 246.2 430.6 245.6Q430.3 244.9 430.3 244.0L430.3 244.0Q430.3 243.0 430.6 242.4Q430.9 241.7 431.5 241.3Q432.1 240.9 432.8 240.9L432.8 240.9Q433.4 240.9 433.7 241.1Q434.1 241.3 434.3 241.5Q434.5 241.8 434.6 242.0L434.6 242.0L434.7 242.0L434.7 241.0L435.6 241.0L435.6 247.2Q435.6 247.9 435.3 248.4Q434.9 248.9 434.3 249.1Q433.7 249.4 433.0 249.4ZM433.0 246.0L433.0 246.0Q433.5 246.0 433.9 245.8Q434.3 245.5 434.5 245.1Q434.6 244.6 434.6 243.9L434.6 243.9Q434.6 243.3 434.5 242.8Q434.3 242.3 433.9 242.1Q433.5 241.8 433.0 241.8L433.0 241.8Q432.4 241.8 432.0 242.1Q431.6 242.4 431.4 242.9Q431.2 243.3 431.2 243.9L431.2 243.9Q431.2 244.6 431.4 245.0Q431.6 245.5 432.0 245.8Q432.4 246.0 433.0 246.0ZM439.3 243.4L439.3 243.4L439.3 247L438.3 247L438.3 241.0L439.2 241.0L439.2 242.1Q439.5 241.5 439.9 241.3L439.9 241.3Q440.4 240.9 441.1 240.9L441.1 240.9Q441.7 240.9 442.1 241.2Q442.6 241.4 442.8 241.9Q443.1 242.4 443.1 243.2L443.1 243.2L443.1 247L442.1 247L442.1 243.3Q442.1 242.6 441.8 242.2Q441.4 241.8 440.8 241.8L440.8 241.8Q440.4 241.8 440.0 242.0Q439.7 242.2 439.5 242.5Q439.3 242.9 439.3 243.4Z "/></g><defs><clipPath id="satori_bc-id-1-2-2" clip-path="url(#satori_cp-id)"><path x="474" y="229" width="93" height="27" d="M482,229 h77 a8,8 0 0 1 8,8 v11 a8,8 0 0 1 -8,8 h-77 a8,8 0 0 1 -8,-8 v-11 a8,8 0 0 1 8,-8"/></clipPath></defs><mask id="satori_om-id-1-2-2"><rect x="475" y="230" width="91" height="25" fill="#fff" mask="url(#satori_om-id)"/><path width="93" height="27" fill="none" stroke="#000" stroke-width="2" d="M476.343,231.343 A8,8 0 0 1 482,229 h77 a8,8 0 0 1 8,8 v11 a8,8 0 0 1 -8,8 h-77 a8,8 0 0 1 -8,-8 v-11 A8,8 0 0 1 476.343,231.343"/></mask><path x="474" y="229" width="93" height="27" fill="rgba(255,255,255,0.05)" d="M482,229 h77 a8,8 0 0 1 8,8 v11 a8,8 0 0 1 -8,8 h-77 a8,8 0 0 1 -8,-8 v-11 a8,8 0 0 1 8,-8" clip-path="url(#satori_cp-id)" mask="url(#satori_om-id)"/><path width="93" height="27" clip-path="url(#satori_bc-id-1-2-2)" fill="none" stroke="rgba(255,255,255,0.15)" stroke-width="2" d="M476.343,231.343 A8,8 0 0 1 482,229 h77 a8,8 0 0 1 8,8 v11 a8,8 0 0 1 -8,8 h-77 a8,8 0 0 1 -8,-8 v-11 A8,8 0 0 1 476.343,231.343"/><g mask="url(#satori_om-id)" clip-path="url(#satori_cp-id)"><path fill="rgba(255,255,255,0.9)" d="M496.7 247L495.5 247L493.3 239.0L494.3 239.0L495.6 243.9Q495.7 244.3 495.8 244.7Q495.9 245.1 496.0 245.5L496.0 245.5Q496.0 245.8 496.1 246.0L496.1 246.0Q496.1 245.8 496.2 245.5L496.2 245.5Q496.2 245.1 496.3 244.7Q496.4 244.3 496.5 243.9L496.5 243.9L497.8 239.0L499.0 239.0L500.3 243.9Q500.4 244.3 500.5 244.7Q500.6 245.1 500.7 245.5L500.7 245.5Q500.7 245.8 500.8 246.0L500.8 246.0Q500.8 245.8 500.9 245.5L500.9 245.5Q501.0 245.1 501.1 244.7Q501.1 244.3 501.2 243.9L501.2 243.9L502.5 239.0L503.6 239.0L501.4 247L500.2 247L498.8 241.9Q498.7 241.4 498.5 240.9L498.5 240.9Q498.5 240.5 498.4 240.1L498.4 240.1Q498.3 240.5 498.3 240.8L498.3 240.8Q498.2 241.4 498.0 241.9L498.0 241.9L496.7 247ZM508.2 247.1L508.2 247.1Q507.3 247.1 506.7 246.7Q506.1 246.4 505.7 245.7Q505.4 245.0 505.4 244.0Q505.4 243.1 505.7 242.4Q506.1 241.7 506.7 241.3Q507.3 240.9 508.1 240.9L508.1 240.9Q508.6 240.9 509.0 241.1Q509.5 241.2 509.9 241.6Q510.3 241.9 510.5 242.5Q510.7 243.1 510.7 243.9L510.7 243.9L510.7 244.3L506.4 244.3Q506.4 244.9 506.6 245.3L506.6 245.3Q506.8 245.8 507.3 246.0Q507.7 246.3 508.2 246.3L508.2 246.3Q508.6 246.3 508.9 246.2Q509.2 246.1 509.4 245.9Q509.6 245.7 509.7 245.3L509.7 245.3L510.6 245.6Q510.5 246.1 510.1 246.4Q509.8 246.7 509.3 246.9Q508.8 247.1 508.2 247.1ZM506.4 243.5L506.4 243.5L509.7 243.5Q509.7 243.1 509.6 242.8L509.6 242.8Q509.4 242.3 509.0 242.0Q508.6 241.8 508.1 241.8Q507.6 241.8 507.2 242.0Q506.8 242.3 506.6 242.7L506.6 242.7Q506.4 243.1 506.4 243.5ZM515.9 247.1L515.9 247.1Q515.3 247.1 515.0 246.9Q514.6 246.7 514.4 246.5Q514.2 246.2 514.1 246.1L514.1 246.1L514.0 246.1L514.0 247L513.1 247L513.1 239.0L514.1 239.0L514.1 242.0L514.1 242.0Q514.2 241.8 514.4 241.6Q514.6 241.3 515.0 241.1Q515.3 240.9 515.9 240.9L515.9 240.9Q516.6 240.9 517.2 241.3Q517.8 241.7 518.1 242.4Q518.4 243.1 518.4 244.0L518.4 244.0Q518.4 245.0 518.1 245.7Q517.8 246.4 517.2 246.7Q516.6 247.1 515.9 247.1ZM515.7 246.3L515.7 246.3Q516.3 246.3 516.7 246.0Q517.1 245.7 517.3 245.1Q517.4 244.6 517.4 244.0L517.4 244.0Q517.4 243.4 517.3 242.9Q517.1 242.4 516.7 242.1Q516.3 241.8 515.7 241.8L515.7 241.8Q515.2 241.8 514.8 242.1Q514.4 242.3 514.2 242.8Q514.1 243.3 514.1 244.0L514.1 244.0Q514.1 244.7 514.3 245.2Q514.4 245.7 514.8 246.0Q515.2 246.3 515.7 246.3Z M527.5 247L527.5 247L525.0 247L525.0 239.0L527.6 239.0Q528.8 239.0 529.6 239.5Q530.5 240.0 530.9 240.8Q531.4 241.7 531.4 243.0L531.4 243.0Q531.4 244.2 530.9 245.1Q530.5 246.0 529.6 246.5Q528.8 247 527.5 247ZM526.1 239.9L526.1 246.1L527.5 246.1Q528.5 246.1 529.1 245.7Q529.7 245.4 530.1 244.7Q530.4 244.0 530.4 243.0L530.4 243.0Q530.4 242.0 530.1 241.3Q529.7 240.6 529.1 240.3Q528.5 239.9 527.6 239.9L527.6 239.9L526.1 239.9ZM536.4 247.1L536.4 247.1Q535.5 247.1 534.9 246.7Q534.3 246.4 533.9 245.7Q533.6 245.0 533.6 244.0Q533.6 243.1 533.9 242.4Q534.2 241.7 534.9 241.3Q535.5 240.9 536.3 240.9L536.3 240.9Q536.8 240.9 537.2 241.1Q537.7 241.2 538.1 241.6Q538.4 241.9 538.7 242.5Q538.9 243.1 538.9 243.9L538.9 243.9L538.9 244.3L534.6 244.3Q534.6 244.9 534.8 245.3L534.8 245.3Q535.0 245.8 535.4 246.0Q535.9 246.3 536.4 246.3L536.4 246.3Q536.8 246.3 537.0 246.2Q537.3 246.1 537.5 245.9Q537.8 245.7 537.9 245.3L537.9 245.3L538.8 245.6Q538.7 246.1 538.3 246.4Q538.0 246.7 537.5 246.9Q537.0 247.1 536.4 247.1ZM534.6 243.5L534.6 243.5L537.9 243.5Q537.9 243.1 537.7 242.8L537.7 242.8Q537.6 242.3 537.2 242.0Q536.8 241.8 536.3 241.8Q535.7 241.8 535.4 242.0Q535.0 242.3 534.8 242.7L534.8 242.7Q534.6 243.1 534.6 243.5ZM544.0 247L543.0 247L540.7 241.0L541.8 241.0L543.1 244.6Q543.3 245.1 543.4 245.7L543.4 245.7Q543.5 245.9 543.5 246.1L543.5 246.1Q543.6 245.9 543.6 245.7L543.6 245.7Q543.8 245.1 544.0 244.6L544.0 244.6L545.3 241.0L546.3 241.0L544.0 247Z "/></g></svg>