<!-- Generated by readme-aura https://github.com/collectioneur/readme-aura -->
<svg width="800" height="220" viewBox="0 0 800 220" xmlns="http://www.w3.org/2000/svg"><mask id="satori_om-id"><rect x="0" y="0" width="800" height="220" fill="#fff"/></mask><defs><clipPath id="satori_bc-id-0"><path x="0" y="0" width="332" height="220" d="M16,0 h300 a16,16 0 0 1 16,16 v188 a16,16 0 0 1 -16,16 h-300 a16,16 0 0 1 -16,-16 v-188 a16,16 0 0 1 16,-16"/></clipPath></defs><clipPath id="satori_cp-id-0"><path x="0" y="0" width="332" height="220" d="M16,0 h300 a16,16 0 0 1 16,16 v188 a16,16 0 0 1 -16,16 h-300 a16,16 0 0 1 -16,-16 v-188 a16,16 0 0 1 16,-16"/></clipPath><mask id="satori_om-id-0"><rect x="1" y="1" width="330" height="218" fill="#fff"/><path width="332" height="220" fill="none" stroke="#000" stroke-width="2" d="M4.686,4.686 A16,16 0 0 1 16,0 h300 a16,16 0 0 1 16,16 v188 a16,16 0 0 1 -16,16 h-300 a16,16 0 0 1 -16,-16 v-188 A16,16 0 0 1 4.686,4.686"/></mask><path x="0" y="0" width="332" height="220" fill="rgba(255,255,255,0.02)" d="M16,0 h300 a16,16 0 0 1 16,16 v188 a16,16 0 0 1 -16,16 h-300 a16,16 0 0 1 -16,-16 v-188 a16,16 0 0 1 16,-16"/><path width="332" height="220" clip-path="url(#satori_bc-id-0)" fill="none" stroke="rgba(255,255,255,0.08)" stroke-width="2" d="M4.686,4.686 A16,16 0 0 1 16,0 h300 a16,16 0 0 1 16,16 v188 a16,16 0 0 1 -16,16 h-300 a16,16 0 0 1 -16,-16 v-188 A16,16 0 0 1 4.686,4.686"/><clipPath id="satori_cp-id-0-0" clip-path="url(#satori_cp-id-0)"><rect x="1" y="1" width="330" height="218"/></clipPath><mask id="satori_om-id-0-0"><rect x="1" y="1" width="330" height="218" fill="#fff" mask="url(#satori_om-id-0)"/></mask><svg x="1" y="1" width="330" height="218" preserveAspectRatio="none" clip-path="url(#satori_cp-id-0-0)" mask="url(#satori_om-id-0-0)"><defs><radialGradient id="ab-glow" cx="0%" cy="100%" r="90%"><stop offset="0%" stop-color="rgba(42, 157, 143, 0.25)"></stop><stop offset="100%" stop-color="rgba(42, 157, 143, 0)"></stop></radialGradient></defs><rect className="ambient-anim" width="100%" height="100%" fill="url(#ab-glow)"></rect><style>

    @keyframes subtle-pulse {
      0%, 100% { opacity: 0.7; transform: scale(1); }
      50% { opacity: 1; transform: scale(1.05); }
    }
    .ambient-anim { animation: subtle-pulse 6s ease-in-out infinite; }
  
</style>
</svg><mask id="satori_om-id-0-0-0"><rect x="1" y="1" width="0" height="218" fill="#fff" mask="url(#satori_om-id-0)"/></mask><mask id="satori_om-id-0-0-0-0"><rect x="1" y="1" width="0" height="218" fill="#fff" mask="url(#satori_om-id-0)"/></mask><mask id="satori_om-id-0-0-0-0-0"><rect x="1" y="1" width="0" height="218" fill="#fff" mask="url(#satori_om-id-0)"/></mask><mask id="satori_om-id-0-0-0-0-1"><rect x="1" y="1" width="0" height="218" fill="#fff" mask="url(#satori_om-id-0)"/></mask><mask id="satori_om-id-0-0-1"><rect x="1" y="1" width="0" height="218" fill="#fff" mask="url(#satori_om-id-0)"/></mask><mask id="satori_om-id-0-1"><rect x="1" y="1" width="330" height="218" fill="#fff" mask="url(#satori_om-id-0)"/></mask><mask id="satori_om-id-0-1-0"><rect x="31" y="41" width="270" height="13" fill="#fff" mask="url(#satori_om-id-0)"/></mask><g mask="url(#satori_om-id-0)" clip-path="url(#satori_cp-id-0)"><path fill="rgba(255,255,255,0.4)" d="M33.1 52L31.3 52L34.0 44.0L36.1 44.0L38.9 52L37.1 52L36.5 50.1L33.7 50.1L33.1 52ZM34.1 48.9L36.1 48.9L35.8 48.1Q35.6 47.4 35.4 46.5L35.4 46.5Q35.2 45.9 35.1 45.3L35.1 45.3Q34.9 45.9 34.8 46.5L34.8 46.5Q34.5 47.4 34.3 48.1L34.3 48.1L34.1 48.9ZM47.3 52L43.9 52L43.9 44.0L47.1 44.0Q48.0 44.0 48.6 44.3Q49.2 44.5 49.5 45.0Q49.8 45.5 49.8 46.1L49.8 46.1Q49.8 46.5 49.6 46.9Q49.4 47.2 49.1 47.5Q48.7 47.7 48.3 47.8L48.3 47.8L48.3 47.9Q48.8 47.9 49.2 48.1Q49.6 48.3 49.8 48.8Q50.1 49.2 50.1 49.8L50.1 49.8Q50.1 50.4 49.8 50.9Q49.4 51.4 48.8 51.7Q48.2 52 47.3 52L47.3 52ZM45.6 48.5L45.6 50.7L47.0 50.7Q47.7 50.7 48.0 50.4Q48.4 50.1 48.4 49.6L48.4 49.6Q48.4 49.3 48.2 49.0Q48.1 48.8 47.8 48.6Q47.5 48.5 47.0 48.5L47.0 48.5L45.6 48.5ZM45.6 45.3L45.6 47.4L46.9 47.4Q47.2 47.4 47.5 47.2Q47.8 47.1 47.9 46.9Q48.1 46.6 48.1 46.3L48.1 46.3Q48.1 45.9 47.8 45.6Q47.5 45.3 46.9 45.3L46.9 45.3L45.6 45.3ZM58.7 52.1L58.7 52.1Q57.7 52.1 56.8 51.6Q56.0 51.1 55.5 50.2Q55.0 49.3 55.0 48.0L55.0 48.0Q55.0 46.7 55.5 45.8Q56.0 44.9 56.8 44.4Q57.7 43.9 58.7 43.9L58.7 43.9Q59.8 43.9 60.6 44.4Q61.5 44.9 62.0 45.8Q62.5 46.7 62.5 48.0L62.5 48.0Q62.5 49.3 62.0 50.2Q61.5 51.1 60.6 51.6Q59.8 52.1 58.7 52.1ZM58.7 50.7L58.7 50.7Q59.4 50.7 59.8 50.3Q60.3 50.0 60.5 49.5Q60.8 48.9 60.8 48.0L60.8 48.0Q60.8 47.1 60.5 46.5Q60.3 46.0 59.8 45.6Q59.4 45.3 58.7 45.3L58.7 45.3Q58.1 45.3 57.6 45.7Q57.2 46.0 56.9 46.6Q56.7 47.1 56.7 48.0L56.7 48.0Q56.7 48.9 56.9 49.4Q57.2 50.0 57.6 50.3Q58.1 50.7 58.7 50.7ZM71.0 52.1L71.0 52.1Q70.0 52.1 69.3 51.7Q68.5 51.4 68.1 50.7Q67.7 50.1 67.7 49.2L67.7 49.2L67.7 44.0L69.3 44.0L69.3 49.1Q69.3 49.5 69.5 49.9Q69.7 50.2 70.1 50.5Q70.5 50.7 71.0 50.7L71.0 50.7Q71.5 50.7 71.9 50.5Q72.2 50.2 72.4 49.9Q72.7 49.5 72.7 49.1L72.7 49.1L72.7 44.0L74.3 44.0L74.3 49.2Q74.3 50.1 73.9 50.7Q73.5 51.4 72.7 51.7Q72.0 52.1 71.0 52.1ZM81.9 45.4L79.4 45.4L79.4 44.0L86.0 44.0L86.0 45.4L83.5 45.4L83.5 52L81.9 52L81.9 45.4Z "/></g><mask id="satori_om-id-0-1-1"><rect x="31" y="64" width="270" height="58" fill="#fff" mask="url(#satori_om-id-0)"/></mask><g mask="url(#satori_om-id-0)" clip-path="url(#satori_cp-id-0)"><path fill="#f8f9fa" d="M39.2 86L32.5 86L32.5 70.0L38.8 70.0Q40.6 70.0 41.7 70.5Q42.9 71.1 43.5 72.0Q44.1 72.9 44.1 74.1L44.1 74.1Q44.1 75.1 43.7 75.8Q43.3 76.5 42.7 76.9Q42.0 77.4 41.2 77.5L41.2 77.5L41.2 77.7Q42.1 77.7 42.9 78.2Q43.7 78.7 44.2 79.5Q44.7 80.4 44.7 81.6L44.7 81.6Q44.7 82.9 44.1 83.9Q43.5 84.9 42.2 85.4Q41.0 86 39.2 86L39.2 86ZM35.7 79.0L35.7 83.3L38.6 83.3Q40.0 83.3 40.7 82.7Q41.3 82.2 41.3 81.3L41.3 81.3Q41.3 80.6 41.0 80.1Q40.7 79.6 40.1 79.3Q39.5 79.0 38.6 79.0L38.6 79.0L35.7 79.0ZM35.7 72.7L35.7 76.7L38.3 76.7Q39.0 76.7 39.6 76.5Q40.1 76.2 40.4 75.7Q40.8 75.3 40.8 74.6L40.8 74.6Q40.8 73.8 40.1 73.2Q39.5 72.7 38.4 72.7L38.4 72.7L35.7 72.7ZM51.1 86.2L51.1 86.2Q49.8 86.2 48.9 85.6Q48.0 85.1 47.4 84.1Q46.9 83.0 46.9 81.6L46.9 81.6L46.9 74.0L50.2 74.0L50.2 81.1Q50.2 82.2 50.7 82.8Q51.3 83.5 52.3 83.5L52.3 83.5Q53.0 83.5 53.5 83.2Q54.1 82.9 54.4 82.3Q54.7 81.7 54.7 80.9L54.7 80.9L54.7 74.0L57.9 74.0L57.9 86L54.8 86L54.8 83.5Q54.3 84.7 53.5 85.3L53.5 85.3Q52.6 86.2 51.1 86.2ZM63.8 86L60.6 86L60.6 74.0L63.8 74.0L63.8 86ZM62.2 72.4L62.2 72.4Q61.5 72.4 61.0 71.9Q60.5 71.5 60.5 70.8L60.5 70.8Q60.5 70.1 61.0 69.6Q61.5 69.1 62.2 69.1L62.2 69.1Q63.0 69.1 63.5 69.6Q64.0 70.1 64.0 70.8L64.0 70.8Q64.0 71.5 63.5 71.9Q63.0 72.4 62.2 72.4ZM66.6 70.0L69.8 70.0L69.8 86L66.6 86L66.6 70.0ZM76.9 86.2L76.9 86.2Q75.6 86.2 74.4 85.5Q73.3 84.8 72.7 83.4Q72.0 82.0 72.0 80.0L72.0 80.0Q72.0 78.0 72.7 76.6Q73.4 75.2 74.5 74.5Q75.6 73.8 76.9 73.8L76.9 73.8Q77.9 73.8 78.6 74.2Q79.3 74.5 79.7 75.0Q80.1 75.5 80.3 76.0L80.3 76.0L80.4 76.0L80.4 70.0L83.7 70.0L83.7 86L80.5 86L80.5 84.1L80.3 84.1Q80.1 84.6 79.7 85.0Q79.3 85.5 78.6 85.9Q77.9 86.2 76.9 86.2ZM77.9 83.6L77.9 83.6Q78.7 83.6 79.3 83.2Q79.9 82.7 80.2 81.9Q80.5 81.1 80.5 80.0L80.5 80.0Q80.5 78.9 80.2 78.1Q79.9 77.3 79.3 76.9Q78.8 76.4 77.9 76.4L77.9 76.4Q77.1 76.4 76.5 76.9Q75.9 77.3 75.6 78.1Q75.4 79.0 75.4 80.0L75.4 80.0Q75.4 81.1 75.6 81.9Q75.9 82.7 76.5 83.2Q77.1 83.6 77.9 83.6ZM89.6 86L86.4 86L86.4 74.0L89.6 74.0L89.6 86ZM88.0 72.4L88.0 72.4Q87.3 72.4 86.8 71.9Q86.3 71.5 86.3 70.8L86.3 70.8Q86.3 70.1 86.8 69.6Q87.3 69.1 88.0 69.1L88.0 69.1Q88.8 69.1 89.3 69.6Q89.8 70.1 89.8 70.8L89.8 70.8Q89.8 71.5 89.3 71.9Q88.8 72.4 88.0 72.4ZM95.6 79.0L95.6 79.0L95.6 86L92.4 86L92.4 74.0L95.4 74.0L95.5 76.5Q95.9 75.3 96.7 74.7L96.7 74.7Q97.7 73.8 99.2 73.8L99.2 73.8Q100.4 73.8 101.4 74.4Q102.3 74.9 102.8 75.9Q103.3 77.0 103.3 78.4L103.3 78.4L103.3 86L100.1 86L100.1 78.9Q100.1 77.8 99.5 77.2Q99.0 76.5 97.9 76.5L97.9 76.5Q97.3 76.5 96.7 76.8Q96.2 77.1 95.9 77.7Q95.6 78.2 95.6 79.0ZM111.4 90.7L111.4 90.7Q109.9 90.7 108.8 90.4Q107.7 90.0 107.0 89.3Q106.3 88.7 106.0 87.8L106.0 87.8L108.8 87.0Q108.9 87.4 109.3 87.7Q109.6 88.0 110.1 88.2Q110.6 88.4 111.4 88.4L111.4 88.4Q112.6 88.4 113.3 87.8Q114.0 87.3 114.0 86.1L114.0 86.1L114.0 83.9L113.8 83.9Q113.6 84.4 113.2 84.8Q112.8 85.3 112.1 85.5Q111.4 85.8 110.5 85.8L110.5 85.8Q109.1 85.8 108 85.2Q106.9 84.6 106.2 83.3Q105.6 82.0 105.6 80.0L105.6 80.0Q105.6 77.9 106.2 76.6Q106.9 75.2 108.0 74.5Q109.1 73.8 110.5 73.8L110.5 73.8Q111.5 73.8 112.2 74.2Q112.9 74.5 113.3 75.0Q113.7 75.5 113.9 76.0L113.9 76.0L114.1 76.0L114.1 74.0L117.2 74.0L117.2 85.9Q117.2 87.5 116.5 88.6Q115.7 89.7 114.4 90.2Q113.1 90.7 111.4 90.7ZM111.5 83.4L111.5 83.4Q112.3 83.4 112.9 83.0Q113.4 82.6 113.7 81.8Q114.0 81.0 114.0 80.0L114.0 80.0Q114.0 78.9 113.7 78.1Q113.4 77.3 112.9 76.9Q112.3 76.4 111.5 76.4L111.5 76.4Q110.6 76.4 110.0 76.9Q109.5 77.3 109.2 78.1Q108.9 78.9 108.9 80.0L108.9 80.0Q108.9 81.0 109.2 81.8Q109.5 82.5 110.1 83.0Q110.6 83.4 111.5 83.4Z M130.1 86.2L130.1 86.2Q128.7 86.2 127.6 85.8Q126.5 85.4 125.8 84.6Q125.0 83.8 124.8 82.7L124.8 82.7L127.8 82.2Q128.1 83.0 128.7 83.5Q129.3 83.9 130.2 83.9L130.2 83.9Q131.2 83.9 131.7 83.5Q132.2 83.2 132.2 82.6L132.2 82.6Q132.2 82.2 131.8 81.9Q131.5 81.6 130.7 81.4L130.7 81.4L128.6 81.0Q126.9 80.6 126.0 79.8Q125.1 78.9 125.1 77.6L125.1 77.6Q125.1 76.4 125.8 75.6Q126.4 74.7 127.5 74.3Q128.7 73.8 130.2 73.8L130.2 73.8Q131.6 73.8 132.7 74.2Q133.7 74.6 134.3 75.3Q135.0 76.1 135.2 77.0L135.2 77.0L132.3 77.5Q132.2 76.9 131.6 76.5Q131.1 76.1 130.2 76.1L130.2 76.1Q129.4 76.1 128.9 76.5Q128.4 76.8 128.4 77.4L128.4 77.4Q128.4 77.8 128.7 78.1Q129.1 78.4 129.9 78.6L129.9 78.6L132.1 79.0Q133.8 79.4 134.7 80.2Q135.5 81.0 135.5 82.3L135.5 82.3Q135.5 83.5 134.8 84.4Q134.1 85.2 132.9 85.7Q131.7 86.2 130.1 86.2ZM143.1 86.2L143.1 86.2Q141.3 86.2 140.0 85.5Q138.6 84.7 137.9 83.3Q137.2 82.0 137.2 80.1L137.2 80.1Q137.2 78.2 137.9 76.8Q138.6 75.4 139.9 74.6Q141.2 73.8 143.0 73.8L143.0 73.8Q144.1 73.8 145.2 74.2Q146.2 74.6 147.0 75.3Q147.7 76.1 148.2 77.2Q148.6 78.4 148.6 79.9L148.6 79.9L148.6 80.8L140.4 80.8Q140.4 81.7 140.7 82.4L140.7 82.4Q141.1 83.1 141.7 83.5Q142.3 83.8 143.2 83.8L143.2 83.8Q143.7 83.8 144.2 83.6Q144.7 83.5 145.0 83.2Q145.3 82.9 145.5 82.4L145.5 82.4L148.4 82.9Q148.1 83.9 147.4 84.7Q146.7 85.4 145.6 85.8Q144.5 86.2 143.1 86.2ZM140.4 78.8L140.4 78.8L145.5 78.8Q145.4 78.2 145.2 77.7L145.2 77.7Q144.9 77.0 144.4 76.6Q143.8 76.3 143.0 76.3L143.0 76.3Q142.2 76.3 141.6 76.7Q141.0 77.0 140.7 77.7L140.7 77.7Q140.5 78.2 140.4 78.8ZM154.2 86.2L154.2 86.2Q153.0 86.2 152.1 85.8Q151.2 85.4 150.7 84.6Q150.2 83.8 150.2 82.6L150.2 82.6Q150.2 81.6 150.5 81.0Q150.9 80.3 151.5 79.9Q152.2 79.5 153.0 79.3Q153.8 79.0 154.7 79.0L154.7 79.0Q155.7 78.8 156.4 78.8Q157.0 78.7 157.3 78.5Q157.6 78.3 157.6 77.9L157.6 77.9L157.6 77.8Q157.6 77.3 157.4 77.0Q157.2 76.6 156.7 76.4Q156.3 76.2 155.7 76.2L155.7 76.2Q155.1 76.2 154.6 76.4Q154.2 76.6 153.9 76.9Q153.6 77.2 153.5 77.6L153.5 77.6L150.5 77.1Q150.8 76.1 151.5 75.3Q152.3 74.6 153.3 74.2Q154.4 73.8 155.7 73.8L155.7 73.8Q156.7 73.8 157.6 74.1Q158.5 74.3 159.3 74.8Q160.0 75.3 160.4 76.0Q160.8 76.8 160.8 77.9L160.8 77.9L160.8 86L157.8 86L157.8 84.3L157.7 84.3Q157.4 84.9 156.9 85.3Q156.4 85.7 155.7 86.0Q155.0 86.2 154.2 86.2ZM155.1 84.0L155.1 84.0Q155.8 84.0 156.4 83.7Q157.0 83.4 157.3 82.9Q157.6 82.3 157.6 81.7L157.6 81.7L157.6 80.4Q157.5 80.5 157.2 80.6Q156.9 80.7 156.5 80.7Q156.2 80.8 155.9 80.9Q155.5 80.9 155.2 81.0L155.2 81.0Q154.6 81.0 154.2 81.2Q153.7 81.4 153.5 81.7Q153.3 82.1 153.3 82.6L153.3 82.6Q153.3 83.0 153.5 83.3Q153.7 83.6 154.1 83.8Q154.5 84.0 155.1 84.0ZM166.8 86L163.6 86L163.6 74.0L166.6 74.0L166.7 76.3Q166.9 75.7 167.3 75.2L167.3 75.2Q167.8 74.5 168.6 74.1Q169.3 73.8 170.1 73.8L170.1 73.8Q171.4 73.8 172.2 74.6L172.2 74.6Q172.8 75.3 173.2 76.5L173.2 76.5Q173.5 75.8 173.9 75.3L173.9 75.3Q174.5 74.5 175.3 74.2Q176.2 73.8 177.1 73.8L177.1 73.8Q178.2 73.8 179.0 74.3Q179.9 74.8 180.4 75.7Q180.9 76.6 180.9 77.9L180.9 77.9L180.9 86L177.7 86L177.7 78.5Q177.7 77.5 177.1 77.0Q176.6 76.5 175.8 76.5L175.8 76.5Q175.2 76.5 174.7 76.8Q174.3 77.0 174.0 77.5Q173.8 78.0 173.8 78.6L173.8 78.6L173.8 86L170.7 86L170.7 78.4Q170.7 77.5 170.2 77.0Q169.6 76.5 168.8 76.5L168.8 76.5Q168.2 76.5 167.8 76.8Q167.3 77.0 167.1 77.5Q166.8 78.0 166.8 78.7L166.8 78.7L166.8 86ZM183.7 70.0L186.9 70.0L186.9 86L183.7 86L183.7 70.0ZM195.0 86.2L195.0 86.2Q193.2 86.2 191.9 85.5Q190.5 84.7 189.8 83.3Q189.1 82.0 189.1 80.1L189.1 80.1Q189.1 78.2 189.8 76.8Q190.5 75.4 191.8 74.6Q193.1 73.8 194.9 73.8L194.9 73.8Q196.1 73.8 197.1 74.2Q198.1 74.6 198.9 75.3Q199.6 76.1 200.1 77.2Q200.5 78.4 200.5 79.9L200.5 79.9L200.5 80.8L192.3 80.8Q192.3 81.7 192.7 82.4L192.7 82.4Q193.0 83.1 193.6 83.5Q194.3 83.8 195.1 83.8L195.1 83.8Q195.7 83.8 196.1 83.6Q196.6 83.5 196.9 83.2Q197.2 82.9 197.4 82.4L197.4 82.4L200.3 82.9Q200.0 83.9 199.3 84.7Q198.6 85.4 197.5 85.8Q196.4 86.2 195.0 86.2ZM192.3 78.8L192.3 78.8L197.4 78.8Q197.3 78.2 197.2 77.7L197.2 77.7Q196.9 77.0 196.3 76.6Q195.7 76.3 194.9 76.3L194.9 76.3Q194.1 76.3 193.5 76.7Q192.9 77.0 192.6 77.7L192.6 77.7Q192.4 78.2 192.3 78.8ZM207.5 86.2L207.5 86.2Q206.0 86.2 204.9 85.8Q203.8 85.4 203.1 84.6Q202.4 83.8 202.2 82.7L202.2 82.7L205.2 82.2Q205.4 83.0 206.0 83.5Q206.6 83.9 207.6 83.9L207.6 83.9Q208.5 83.9 209.0 83.5Q209.6 83.2 209.6 82.6L209.6 82.6Q209.6 82.2 209.2 81.9Q208.8 81.6 208.0 81.4L208.0 81.4L206.0 81.0Q204.2 80.6 203.4 79.8Q202.5 78.9 202.5 77.6L202.5 77.6Q202.5 76.4 203.1 75.6Q203.8 74.7 204.9 74.3Q206.0 73.8 207.5 73.8L207.5 73.8Q209.0 73.8 210.0 74.2Q211.0 74.6 211.7 75.3Q212.3 76.1 212.5 77.0L212.5 77.0L209.7 77.5Q209.5 76.9 209.0 76.5Q208.5 76.1 207.6 76.1L207.6 76.1Q206.8 76.1 206.3 76.5Q205.7 76.8 205.7 77.4L205.7 77.4Q205.7 77.8 206.1 78.1Q206.4 78.4 207.3 78.6L207.3 78.6L209.4 79.0Q211.2 79.4 212.0 80.2Q212.9 81.0 212.9 82.3L212.9 82.3Q212.9 83.5 212.2 84.4Q211.5 85.2 210.3 85.7Q209.1 86.2 207.5 86.2ZM219.8 86.2L219.8 86.2Q218.4 86.2 217.2 85.8Q216.1 85.4 215.4 84.6Q214.7 83.8 214.5 82.7L214.5 82.7L217.5 82.2Q217.7 83.0 218.3 83.5Q218.9 83.9 219.9 83.9L219.9 83.9Q220.8 83.9 221.4 83.5Q221.9 83.2 221.9 82.6L221.9 82.6Q221.9 82.2 221.5 81.9Q221.1 81.6 220.3 81.4L220.3 81.4L218.3 81.0Q216.5 80.6 215.7 79.8Q214.8 78.9 214.8 77.6L214.8 77.6Q214.8 76.4 215.4 75.6Q216.1 74.7 217.2 74.3Q218.3 73.8 219.9 73.8L219.9 73.8Q221.3 73.8 222.3 74.2Q223.4 74.6 224.0 75.3Q224.7 76.1 224.9 77.0L224.9 77.0L222.0 77.5Q221.8 76.9 221.3 76.5Q220.8 76.1 219.9 76.1L219.9 76.1Q219.1 76.1 218.6 76.5Q218.0 76.8 218.0 77.4L218.0 77.4Q218.0 77.8 218.4 78.1Q218.7 78.4 219.6 78.6L219.6 78.6L221.7 79.0Q223.5 79.4 224.3 80.2Q225.2 81.0 225.2 82.3L225.2 82.3Q225.2 83.5 224.5 84.4Q223.8 85.2 222.6 85.7Q221.4 86.2 219.8 86.2Z M35.7 115.2L35.7 115.2Q34.6 115.2 33.7 114.8Q32.8 114.4 32.3 113.6Q31.7 112.8 31.7 111.6L31.7 111.6Q31.7 110.6 32.1 110.0Q32.5 109.3 33.1 108.9Q33.8 108.5 34.6 108.3Q35.4 108.0 36.3 108.0L36.3 108.0Q37.3 107.8 37.9 107.8Q38.6 107.7 38.9 107.5Q39.2 107.3 39.2 106.9L39.2 106.9L39.2 106.8Q39.2 106.3 39.0 106.0Q38.7 105.6 38.3 105.4Q37.9 105.2 37.3 105.2L37.3 105.2Q36.7 105.2 36.2 105.4Q35.7 105.6 35.5 105.9Q35.2 106.2 35.0 106.6L35.0 106.6L32.1 106.1Q32.4 105.1 33.1 104.3Q33.8 103.6 34.9 103.2Q36.0 102.8 37.3 102.8L37.3 102.8Q38.3 102.8 39.2 103.1Q40.1 103.3 40.8 103.8Q41.5 104.3 42.0 105.0Q42.4 105.8 42.4 106.9L42.4 106.9L42.4 115L39.3 115L39.3 113.3L39.2 113.3Q38.9 113.9 38.5 114.3Q38.0 114.7 37.3 115.0Q36.6 115.2 35.7 115.2ZM36.6 113.0L36.6 113.0Q37.4 113.0 38.0 112.7Q38.6 112.4 38.9 111.9Q39.2 111.3 39.2 110.7L39.2 110.7L39.2 109.4Q39.1 109.5 38.8 109.6Q38.5 109.7 38.1 109.7Q37.8 109.8 37.4 109.9Q37.1 109.9 36.8 110.0L36.8 110.0Q36.2 110.0 35.8 110.2Q35.3 110.4 35.1 110.7Q34.8 111.1 34.8 111.6L34.8 111.6Q34.8 112.0 35.1 112.3Q35.3 112.6 35.7 112.8Q36.1 113.0 36.6 113.0ZM48.4 119.5L45.1 119.5L45.1 103.0L48.3 103.0L48.3 105.0L48.5 105.0Q48.7 104.5 49.1 104.0Q49.5 103.5 50.2 103.2Q50.9 102.8 51.9 102.8L51.9 102.8Q53.2 102.8 54.3 103.5Q55.4 104.2 56.1 105.6Q56.8 107.0 56.8 109.0L56.8 109.0Q56.8 111.0 56.1 112.4Q55.5 113.8 54.4 114.5Q53.3 115.2 51.9 115.2L51.9 115.2Q50.9 115.2 50.2 114.9Q49.5 114.5 49.1 114.0Q48.7 113.6 48.5 113.1L48.5 113.1L48.4 113.1L48.4 119.5ZM50.9 112.6L50.9 112.6Q51.7 112.6 52.3 112.2Q52.9 111.7 53.2 110.9Q53.5 110.1 53.5 109.0L53.5 109.0Q53.5 108.0 53.2 107.1Q52.9 106.3 52.3 105.9Q51.7 105.4 50.9 105.4L50.9 105.4Q50.1 105.4 49.5 105.9Q48.9 106.3 48.6 107.1Q48.3 107.9 48.3 109.0L48.3 109.0Q48.3 110.1 48.6 110.9Q48.9 111.7 49.5 112.2Q50.1 112.6 50.9 112.6ZM62.2 119.5L59.0 119.5L59.0 103.0L62.2 103.0L62.2 105.0L62.3 105.0Q62.6 104.5 63.0 104.0Q63.4 103.5 64.1 103.2Q64.7 102.8 65.8 102.8L65.8 102.8Q67.1 102.8 68.2 103.5Q69.3 104.2 70.0 105.6Q70.6 107.0 70.6 109.0L70.6 109.0Q70.6 111.0 70.0 112.4Q69.3 113.8 68.2 114.5Q67.1 115.2 65.7 115.2L65.7 115.2Q64.8 115.2 64.1 114.9Q63.4 114.5 63.0 114.0Q62.6 113.6 62.3 113.1L62.3 113.1L62.2 113.1L62.2 119.5ZM64.8 112.6L64.8 112.6Q65.6 112.6 66.2 112.2Q66.7 111.7 67.0 110.9Q67.3 110.1 67.3 109.0L67.3 109.0Q67.3 108.0 67.0 107.1Q66.7 106.3 66.2 105.9Q65.6 105.4 64.8 105.4L64.8 105.4Q63.9 105.4 63.3 105.9Q62.8 106.3 62.5 107.1Q62.2 107.9 62.2 109.0L62.2 109.0Q62.2 110.1 62.5 110.9Q62.8 111.7 63.4 112.2Q63.9 112.6 64.8 112.6ZM72.9 99.0L76.1 99.0L76.1 115L72.9 115L72.9 99.0ZM82.1 115L78.8 115L78.8 103.0L82.1 103.0L82.1 115ZM80.5 101.4L80.5 101.4Q79.7 101.4 79.2 100.9Q78.7 100.5 78.7 99.8L78.7 99.8Q78.7 99.1 79.2 98.6Q79.7 98.1 80.5 98.1L80.5 98.1Q81.2 98.1 81.7 98.6Q82.2 99.1 82.2 99.8L82.2 99.8Q82.2 100.5 81.7 100.9Q81.2 101.4 80.5 101.4ZM90.2 115.2L90.2 115.2Q88.4 115.2 87.0 114.5Q85.7 113.7 85.0 112.3Q84.3 110.9 84.3 109.0L84.3 109.0Q84.3 107.2 85.0 105.8Q85.7 104.4 87.0 103.6Q88.4 102.8 90.2 102.8L90.2 102.8Q91.2 102.8 92.1 103.1Q93.0 103.4 93.7 103.9Q94.4 104.4 94.9 105.2Q95.3 105.9 95.5 106.8L95.5 106.8L92.5 107.4Q92.4 106.9 92.2 106.6Q92.0 106.2 91.7 105.9Q91.4 105.7 91.1 105.5Q90.7 105.4 90.2 105.4L90.2 105.4Q89.4 105.4 88.8 105.8Q88.2 106.3 87.9 107.1Q87.6 108.0 87.6 109.0L87.6 109.0Q87.6 110.1 87.9 110.9Q88.2 111.8 88.8 112.2Q89.4 112.7 90.2 112.7L90.2 112.7Q90.7 112.7 91.1 112.6Q91.4 112.4 91.7 112.1Q92.0 111.9 92.3 111.5Q92.5 111.1 92.5 110.6L92.5 110.6L95.5 111.2Q95.4 112.1 94.9 112.9Q94.5 113.6 93.8 114.1Q93.1 114.7 92.2 115.0Q91.3 115.2 90.2 115.2ZM101.1 115.2L101.1 115.2Q100.0 115.2 99.1 114.8Q98.1 114.4 97.6 113.6Q97.1 112.8 97.1 111.6L97.1 111.6Q97.1 110.6 97.5 110.0Q97.8 109.3 98.5 108.9Q99.1 108.5 99.9 108.3Q100.7 108.0 101.6 108.0L101.6 108.0Q102.7 107.8 103.3 107.8Q104.0 107.7 104.3 107.5Q104.6 107.3 104.6 106.9L104.6 106.9L104.6 106.8Q104.6 106.3 104.3 106.0Q104.1 105.6 103.7 105.4Q103.3 105.2 102.7 105.2L102.7 105.2Q102.0 105.2 101.6 105.4Q101.1 105.6 100.8 105.9Q100.5 106.2 100.4 106.6L100.4 106.6L97.5 106.1Q97.8 105.1 98.5 104.3Q99.2 103.6 100.3 103.2Q101.3 102.8 102.7 102.8L102.7 102.8Q103.6 102.8 104.6 103.1Q105.5 103.3 106.2 103.8Q106.9 104.3 107.4 105.0Q107.8 105.8 107.8 106.9L107.8 106.9L107.8 115L104.7 115L104.7 113.3L104.6 113.3Q104.3 113.9 103.8 114.3Q103.4 114.7 102.7 115.0Q102.0 115.2 101.1 115.2ZM102.0 113.0L102.0 113.0Q102.8 113.0 103.4 112.7Q103.9 112.4 104.3 111.9Q104.6 111.3 104.6 110.7L104.6 110.7L104.6 109.4Q104.4 109.5 104.1 109.6Q103.9 109.7 103.5 109.7Q103.1 109.8 102.8 109.9Q102.5 109.9 102.2 110.0L102.2 110.0Q101.6 110.0 101.1 110.2Q100.7 110.4 100.4 110.7Q100.2 111.1 100.2 111.6L100.2 111.6Q100.2 112.0 100.4 112.3Q100.7 112.6 101.1 112.8Q101.5 113.0 102.0 113.0ZM114.2 103.0L116.5 103.0L116.5 105.5L114.2 105.5L114.2 111.5Q114.2 112.1 114.5 112.3Q114.7 112.6 115.3 112.6L115.3 112.6Q115.5 112.6 115.9 112.6Q116.2 112.5 116.4 112.5L116.4 112.5L116.8 114.9Q116.3 115.0 115.8 115.1Q115.2 115.2 114.7 115.2L114.7 115.2Q112.9 115.2 112.0 114.3Q111.0 113.4 111.0 111.8L111.0 111.8L111.0 105.5L109.4 105.5L109.4 103.0L111.0 103.0L111.0 100.1L114.2 100.1L114.2 103.0ZM121.8 115L118.6 115L118.6 103.0L121.8 103.0L121.8 115ZM120.2 101.4L120.2 101.4Q119.5 101.4 118.9 100.9Q118.4 100.5 118.4 99.8L118.4 99.8Q118.4 99.1 118.9 98.6Q119.5 98.1 120.2 98.1L120.2 98.1Q120.9 98.1 121.4 98.6Q122.0 99.1 122.0 99.8L122.0 99.8Q122.0 100.5 121.4 100.9Q120.9 101.4 120.2 101.4ZM129.9 115.2L129.9 115.2Q128.1 115.2 126.8 114.5Q125.5 113.7 124.8 112.3Q124.0 110.9 124.0 109.0L124.0 109.0Q124.0 107.2 124.8 105.8Q125.5 104.4 126.8 103.6Q128.1 102.8 129.9 102.8L129.9 102.8Q131.7 102.8 133.0 103.6Q134.4 104.4 135.1 105.8Q135.8 107.2 135.8 109.0L135.8 109.0Q135.8 110.9 135.1 112.3Q134.4 113.7 133.0 114.5Q131.7 115.2 129.9 115.2ZM129.9 112.7L129.9 112.7Q130.8 112.7 131.4 112.2Q131.9 111.7 132.2 110.9Q132.5 110.1 132.5 109.0L132.5 109.0Q132.5 108.0 132.2 107.1Q131.9 106.3 131.4 105.8Q130.8 105.4 129.9 105.4L129.9 105.4Q129.1 105.4 128.5 105.8Q127.9 106.3 127.6 107.1Q127.3 108.0 127.3 109.0L127.3 109.0Q127.3 110.1 127.6 110.9Q127.9 111.7 128.5 112.2Q129.1 112.7 129.9 112.7ZM141.3 108.0L141.3 108.0L141.3 115L138.0 115L138.0 103.0L141.1 103.0L141.1 105.5Q141.6 104.3 142.4 103.7L142.4 103.7Q143.3 102.8 144.9 102.8L144.9 102.8Q146.1 102.8 147.0 103.4Q148.0 103.9 148.5 104.9Q149.0 106.0 149.0 107.4L149.0 107.4L149.0 115L145.8 115L145.8 107.9Q145.8 106.8 145.2 106.2Q144.6 105.5 143.6 105.5L143.6 105.5Q142.9 105.5 142.4 105.8Q141.8 106.1 141.6 106.7Q141.3 107.2 141.3 108.0Z M162.2 115.2L162.2 115.2Q160.6 115.2 159.4 114.6Q158.2 114.0 157.5 113.0Q156.9 112.0 156.9 110.8L156.9 110.8Q156.9 109.8 157.3 109.1Q157.6 108.4 158.3 107.7L158.3 107.7Q159.0 107.1 159.8 106.5L159.8 106.5Q159.8 106.5 159.7 106.4L159.7 106.4Q159.1 105.6 158.7 104.8Q158.3 103.9 158.3 102.9L158.3 102.9Q158.3 101.7 158.8 100.8Q159.4 99.9 160.3 99.3Q161.3 98.8 162.6 98.8L162.6 98.8Q163.9 98.8 164.8 99.3Q165.7 99.8 166.2 100.7Q166.7 101.5 166.7 102.6L166.7 102.6Q166.7 103.3 166.5 104.0Q166.2 104.6 165.7 105.2Q165.3 105.7 164.6 106.2L164.6 106.2L163.7 106.9L166.4 110.0Q166.5 109.7 166.6 109.4L166.6 109.4Q167.0 108.4 167.0 107.2L167.0 107.2L169.7 107.2Q169.7 108.7 169.4 109.9Q169.1 111.1 168.5 111.9L168.5 111.9Q168.4 112.1 168.3 112.2L168.3 112.2L170.7 115L167.3 115L166.3 113.9Q165.5 114.6 164.4 114.9L164.4 114.9Q163.3 115.2 162.2 115.2ZM164.6 112.0L161.5 108.5L161.3 108.6Q160.7 109.1 160.4 109.5Q160.0 110.0 160.0 110.6L160.0 110.6Q160.0 111.3 160.3 111.7Q160.6 112.2 161.1 112.4Q161.6 112.6 162.3 112.6L162.3 112.6Q163.2 112.6 164.0 112.3L164.0 112.3Q164.3 112.1 164.6 112.0L164.6 112.0ZM162.1 105.1L162.1 105.1L162.9 104.5Q163.3 104.3 163.5 104.0Q163.8 103.7 164.0 103.4Q164.1 103.1 164.1 102.7L164.1 102.7Q164.1 102.2 163.7 101.8Q163.3 101.4 162.6 101.4L162.6 101.4Q162.2 101.4 161.8 101.6Q161.4 101.8 161.3 102.1Q161.1 102.4 161.1 102.9L161.1 102.9Q161.1 103.4 161.3 103.9Q161.6 104.5 162.0 105.0L162.0 105.0Q162.1 105.0 162.1 105.1Z "/></g><mask id="satori_om-id-0-1-2"><rect x="31" y="122" width="270" height="29" fill="#fff" mask="url(#satori_om-id-0)"/></mask><g mask="url(#satori_om-id-0)" clip-path="url(#satori_cp-id-0)"><path fill="#f8f9fa" d="M35.6 144L32.4 144L32.4 132.0L35.5 132.0L35.5 134.1L35.6 134.1Q36.0 133.0 36.7 132.4Q37.5 131.8 38.5 131.8L38.5 131.8Q38.8 131.8 39.1 131.9Q39.3 131.9 39.6 131.9L39.6 131.9L39.6 134.8Q39.3 134.7 38.9 134.7Q38.5 134.7 38.2 134.7L38.2 134.7Q37.4 134.7 36.8 135.0Q36.3 135.3 35.9 135.9Q35.6 136.4 35.6 137.2L35.6 137.2L35.6 144ZM46.7 144.2L46.7 144.2Q44.9 144.2 43.6 143.5Q42.3 142.7 41.5 141.3Q40.8 139.9 40.8 138.0L40.8 138.0Q40.8 136.2 41.5 134.8Q42.3 133.4 43.6 132.6Q44.9 131.8 46.7 131.8L46.7 131.8Q48.5 131.8 49.8 132.6Q51.2 133.4 51.9 134.8Q52.6 136.2 52.6 138.0L52.6 138.0Q52.6 139.9 51.9 141.3Q51.2 142.7 49.8 143.5Q48.5 144.2 46.7 144.2ZM46.7 141.7L46.7 141.7Q47.6 141.7 48.1 141.2Q48.7 140.7 49.0 139.9Q49.3 139.1 49.3 138.0L49.3 138.0Q49.3 137.0 49.0 136.1Q48.7 135.3 48.1 134.8Q47.6 134.4 46.7 134.4L46.7 134.4Q45.8 134.4 45.3 134.8Q44.7 135.3 44.4 136.1Q44.1 137.0 44.1 138.0L44.1 138.0Q44.1 139.1 44.4 139.9Q44.7 140.7 45.3 141.2Q45.8 141.7 46.7 141.7ZM61.6 144.2L61.6 144.2Q60.6 144.2 59.9 143.9Q59.2 143.5 58.8 143.0Q58.4 142.6 58.1 142.1L58.1 142.1L58.0 142.1L58.0 144L54.8 144L54.8 128.0L58.0 128.0L58.0 134.0L58.1 134.0Q58.4 133.5 58.8 133.0Q59.2 132.5 59.9 132.2Q60.6 131.8 61.6 131.8L61.6 131.8Q62.9 131.8 64.0 132.5Q65.1 133.2 65.8 134.6Q66.4 136.0 66.4 138.0L66.4 138.0Q66.4 140.0 65.8 141.4Q65.1 142.8 64.0 143.5Q62.9 144.2 61.6 144.2ZM60.6 141.6L60.6 141.6Q61.4 141.6 62.0 141.2Q62.5 140.7 62.8 139.9Q63.1 139.1 63.1 138.0L63.1 138.0Q63.1 137.0 62.8 136.1Q62.5 135.3 62.0 134.9Q61.4 134.4 60.6 134.4L60.6 134.4Q59.7 134.4 59.2 134.9Q58.6 135.3 58.3 136.1Q58.0 136.9 58.0 138.0L58.0 138.0Q58.0 139.1 58.3 139.9Q58.6 140.7 59.2 141.2Q59.7 141.6 60.6 141.6ZM72.8 144.2L72.8 144.2Q71.6 144.2 70.6 143.6Q69.7 143.1 69.2 142.1Q68.7 141.0 68.7 139.6L68.7 139.6L68.7 132.0L71.9 132.0L71.9 139.1Q71.9 140.2 72.5 140.8Q73.1 141.5 74.1 141.5L74.1 141.5Q74.8 141.5 75.3 141.2Q75.8 140.9 76.1 140.3Q76.4 139.7 76.4 138.9L76.4 138.9L76.4 132.0L79.7 132.0L79.7 144L76.6 144L76.6 141.5Q76.1 142.7 75.3 143.3L75.3 143.3Q74.3 144.2 72.8 144.2ZM87.2 144.2L87.2 144.2Q85.7 144.2 84.6 143.8Q83.5 143.4 82.8 142.6Q82.1 141.8 81.9 140.7L81.9 140.7L84.9 140.2Q85.1 141.0 85.7 141.5Q86.3 141.9 87.3 141.9L87.3 141.9Q88.2 141.9 88.7 141.5Q89.2 141.2 89.2 140.6L89.2 140.6Q89.2 140.2 88.9 139.9Q88.5 139.6 87.7 139.4L87.7 139.4L85.6 139.0Q83.9 138.6 83.0 137.8Q82.2 136.9 82.2 135.6L82.2 135.6Q82.2 134.4 82.8 133.6Q83.4 132.7 84.6 132.3Q85.7 131.8 87.2 131.8L87.2 131.8Q88.6 131.8 89.7 132.2Q90.7 132.6 91.4 133.3Q92.0 134.1 92.2 135.0L92.2 135.0L89.4 135.5Q89.2 134.9 88.7 134.5Q88.1 134.1 87.3 134.1L87.3 134.1Q86.5 134.1 85.9 134.5Q85.4 134.8 85.4 135.4L85.4 135.4Q85.4 135.8 85.7 136.1Q86.1 136.4 86.9 136.6L86.9 136.6L89.1 137.0Q90.8 137.4 91.7 138.2Q92.5 139.0 92.5 140.3L92.5 140.3Q92.5 141.5 91.8 142.4Q91.2 143.2 89.9 143.7Q88.7 144.2 87.2 144.2ZM98.4 132.0L100.7 132.0L100.7 134.5L98.4 134.5L98.4 140.5Q98.4 141.1 98.7 141.3Q98.9 141.6 99.5 141.6L99.5 141.6Q99.7 141.6 100.0 141.6Q100.4 141.5 100.5 141.5L100.5 141.5L101.0 143.9Q100.5 144.0 99.9 144.1Q99.4 144.2 98.9 144.2L98.9 144.2Q97.1 144.2 96.2 143.3Q95.2 142.4 95.2 140.8L95.2 140.8L95.2 134.5L93.6 134.5L93.6 132.0L95.2 132.0L95.2 129.1L98.4 129.1L98.4 132.0Z M112.7 144.2L112.7 144.2Q111.3 144.2 110.2 143.8Q109.1 143.4 108.4 142.6Q107.6 141.8 107.4 140.7L107.4 140.7L110.4 140.2Q110.7 141.0 111.3 141.5Q111.9 141.9 112.8 141.9L112.8 141.9Q113.8 141.9 114.3 141.5Q114.8 141.2 114.8 140.6L114.8 140.6Q114.8 140.2 114.5 139.9Q114.1 139.6 113.3 139.4L113.3 139.4L111.2 139.0Q109.5 138.6 108.6 137.8Q107.8 136.9 107.8 135.6L107.8 135.6Q107.8 134.4 108.4 133.6Q109.0 132.7 110.1 132.3Q111.3 131.8 112.8 131.8L112.8 131.8Q114.2 131.8 115.3 132.2Q116.3 132.6 116.9 133.3Q117.6 134.1 117.8 135.0L117.8 135.0L115.0 135.5Q114.8 134.9 114.2 134.5Q113.7 134.1 112.8 134.1L112.8 134.1Q112.0 134.1 111.5 134.5Q111.0 134.8 111.0 135.4L111.0 135.4Q111.0 135.8 111.3 136.1Q111.7 136.4 112.5 136.6L112.5 136.6L114.7 137.0Q116.4 137.4 117.3 138.2Q118.1 139.0 118.1 140.3L118.1 140.3Q118.1 141.5 117.4 142.4Q116.7 143.2 115.5 143.7Q114.3 144.2 112.7 144.2ZM120.2 148.3L120.2 148.3L121.0 145.8L121.4 145.9Q122.0 146.1 122.5 146.0Q123.0 145.9 123.3 145.6Q123.6 145.3 123.7 144.7L123.7 144.7L123.8 144.0L119.3 132.0L122.7 132.0L124.7 138.2Q125.1 139.4 125.3 140.6L125.3 140.6Q125.4 141.0 125.5 141.4L125.5 141.4Q125.6 141.0 125.7 140.6L125.7 140.6Q126.0 139.4 126.3 138.2L126.3 138.2L128.4 132.0L131.8 132.0L126.7 145.4Q126.4 146.4 125.8 147.1Q125.2 147.8 124.4 148.2Q123.5 148.6 122.3 148.6L122.3 148.6Q121.7 148.6 121.1 148.5Q120.6 148.4 120.2 148.3ZM138.3 144.2L138.3 144.2Q136.9 144.2 135.7 143.8Q134.6 143.4 133.9 142.6Q133.2 141.8 133.0 140.7L133.0 140.7L136.0 140.2Q136.2 141.0 136.8 141.5Q137.4 141.9 138.4 141.9L138.4 141.9Q139.3 141.9 139.9 141.5Q140.4 141.2 140.4 140.6L140.4 140.6Q140.4 140.2 140.0 139.9Q139.6 139.6 138.9 139.4L138.9 139.4L136.8 139.0Q135.0 138.6 134.2 137.8Q133.3 136.9 133.3 135.6L133.3 135.6Q133.3 134.4 134.0 133.6Q134.6 132.7 135.7 132.3Q136.8 131.8 138.4 131.8L138.4 131.8Q139.8 131.8 140.8 132.2Q141.9 132.6 142.5 133.3Q143.2 134.1 143.4 135.0L143.4 135.0L140.5 135.5Q140.3 134.9 139.8 134.5Q139.3 134.1 138.4 134.1L138.4 134.1Q137.6 134.1 137.1 134.5Q136.5 134.8 136.5 135.4L136.5 135.4Q136.5 135.8 136.9 136.1Q137.2 136.4 138.1 136.6L138.1 136.6L140.2 137.0Q142.0 137.4 142.8 138.2Q143.7 139.0 143.7 140.3L143.7 140.3Q143.7 141.5 143.0 142.4Q142.3 143.2 141.1 143.7Q139.9 144.2 138.3 144.2ZM149.6 132.0L151.8 132.0L151.8 134.5L149.6 134.5L149.6 140.5Q149.6 141.1 149.8 141.3Q150.1 141.6 150.7 141.6L150.7 141.6Q150.9 141.6 151.2 141.6Q151.5 141.5 151.7 141.5L151.7 141.5L152.2 143.9Q151.6 144.0 151.1 144.1Q150.6 144.2 150.1 144.2L150.1 144.2Q148.3 144.2 147.3 143.3Q146.4 142.4 146.4 140.8L146.4 140.8L146.4 134.5L144.7 134.5L144.7 132.0L146.4 132.0L146.4 129.1L149.6 129.1L149.6 132.0ZM159.3 144.2L159.3 144.2Q157.5 144.2 156.2 143.5Q154.8 142.7 154.1 141.3Q153.4 140.0 153.4 138.1L153.4 138.1Q153.4 136.2 154.1 134.8Q154.8 133.4 156.1 132.6Q157.4 131.8 159.2 131.8L159.2 131.8Q160.4 131.8 161.4 132.2Q162.4 132.6 163.2 133.3Q164.0 134.1 164.4 135.2Q164.8 136.4 164.8 137.9L164.8 137.9L164.8 138.8L156.6 138.8Q156.6 139.7 157.0 140.4L157.0 140.4Q157.3 141.1 157.9 141.5Q158.6 141.8 159.4 141.8L159.4 141.8Q160.0 141.8 160.4 141.6Q160.9 141.5 161.2 141.2Q161.5 140.9 161.7 140.4L161.7 140.4L164.6 140.9Q164.4 141.9 163.6 142.7Q162.9 143.4 161.8 143.8Q160.8 144.2 159.3 144.2ZM156.6 136.8L156.6 136.8L161.7 136.8Q161.7 136.2 161.5 135.7L161.5 135.7Q161.2 135.0 160.6 134.6Q160.0 134.3 159.2 134.3L159.2 134.3Q158.4 134.3 157.8 134.7Q157.2 135.0 156.9 135.7L156.9 135.7Q156.7 136.2 156.6 136.8ZM170.3 144L167.0 144L167.0 132.0L170.0 132.0L170.1 134.3Q170.4 133.7 170.8 133.2L170.8 133.2Q171.3 132.5 172.0 132.1Q172.8 131.8 173.6 131.8L173.6 131.8Q174.9 131.8 175.7 132.6L175.7 132.6Q176.3 133.3 176.7 134.5L176.7 134.5Q176.9 133.8 177.3 133.3L177.3 133.3Q177.9 132.5 178.8 132.2Q179.6 131.8 180.5 131.8L180.5 131.8Q181.6 131.8 182.5 132.3Q183.4 132.8 183.9 133.7Q184.4 134.6 184.4 135.9L184.4 135.9L184.4 144L181.1 144L181.1 136.5Q181.1 135.5 180.6 135.0Q180.0 134.5 179.2 134.5L179.2 134.5Q178.6 134.5 178.2 134.8Q177.7 135.0 177.5 135.5Q177.2 136.0 177.2 136.6L177.2 136.6L177.2 144L174.1 144L174.1 136.4Q174.1 135.5 173.6 135.0Q173.1 134.5 172.3 134.5L172.3 134.5Q171.7 134.5 171.2 134.8Q170.8 135.0 170.5 135.5Q170.3 136.0 170.3 136.7L170.3 136.7L170.3 144ZM189.4 144.2L189.4 144.2Q188.6 144.2 188.1 143.7Q187.5 143.1 187.5 142.4L187.5 142.4Q187.5 141.6 188.1 141.0Q188.6 140.5 189.4 140.5L189.4 140.5Q190.2 140.5 190.7 141.0Q191.3 141.6 191.3 142.4L191.3 142.4Q191.3 143.1 190.7 143.7Q190.2 144.2 189.4 144.2Z "/></g><mask id="satori_om-id-0-1-3"><rect x="31" y="165" width="270" height="15" fill="#fff" mask="url(#satori_om-id-0)"/></mask><mask id="satori_om-id-0-1-3-0"><rect x="31" y="165" width="156" height="15" fill="#fff" mask="url(#satori_om-id-0)"/></mask><g mask="url(#satori_om-id-0)" clip-path="url(#satori_cp-id-0)"><path fill="#2ecc71" d="M37.9 173.2L37.9 174.0L32.4 176.7L32.4 175.6L36.6 173.6L36.6 173.6L32.4 171.6L32.4 170.4L37.9 173.2Z M46.9 177.1L46.9 177.1Q46.0 177.1 45.3 176.7Q44.7 176.3 44.3 175.5Q43.9 174.8 43.9 173.8L43.9 173.8Q43.9 172.7 44.3 172.0Q44.7 171.2 45.3 170.8Q46.0 170.4 46.9 170.4L46.9 170.4Q47.8 170.4 48.5 170.8Q49.2 171.2 49.5 172.0Q49.9 172.7 49.9 173.8L49.9 173.8Q49.9 174.8 49.5 175.5Q49.2 176.3 48.5 176.7Q47.8 177.1 46.9 177.1ZM46.9 176.2L46.9 176.2Q47.6 176.2 48.0 175.9Q48.4 175.5 48.6 175.0Q48.8 174.4 48.8 173.8L48.8 173.8Q48.8 173.1 48.6 172.6Q48.4 172.0 48.0 171.7Q47.6 171.3 46.9 171.3L46.9 171.3Q46.3 171.3 45.8 171.7Q45.4 172.0 45.2 172.6Q45.0 173.1 45.0 173.8L45.0 173.8Q45.0 174.4 45.2 175.0Q45.4 175.5 45.8 175.9Q46.3 176.2 46.9 176.2ZM53.0 179.4L51.9 179.4L51.9 170.4L53.0 170.4L53.0 171.5L53.1 171.5Q53.2 171.3 53.4 171.1Q53.6 170.8 54.0 170.6Q54.3 170.4 55.0 170.4L55.0 170.4Q55.8 170.4 56.4 170.8Q57.0 171.2 57.4 171.9Q57.7 172.7 57.7 173.7L57.7 173.7Q57.7 174.8 57.4 175.5Q57.0 176.3 56.4 176.7Q55.8 177.1 55.0 177.1L55.0 177.1Q54.4 177.1 54.0 176.9Q53.6 176.7 53.4 176.4Q53.2 176.2 53.1 176.0L53.1 176.0L53.0 176.0L53.0 179.4ZM54.8 176.2L54.8 176.2Q55.4 176.2 55.8 175.9Q56.3 175.5 56.5 175.0Q56.7 174.4 56.7 173.7L56.7 173.7Q56.7 173.1 56.5 172.5Q56.3 172.0 55.9 171.6Q55.4 171.3 54.8 171.3L54.8 171.3Q54.2 171.3 53.8 171.6Q53.4 171.9 53.2 172.5Q53.0 173.0 53.0 173.7L53.0 173.7Q53.0 174.5 53.2 175.0Q53.4 175.6 53.8 175.9Q54.2 176.2 54.8 176.2ZM62.5 177.1L62.5 177.1Q61.6 177.1 60.9 176.7Q60.2 176.3 59.8 175.5Q59.5 174.8 59.5 173.8Q59.5 172.8 59.8 172.0Q60.2 171.2 60.9 170.8Q61.5 170.4 62.4 170.4L62.4 170.4Q62.9 170.4 63.4 170.5Q63.9 170.7 64.4 171.1Q64.8 171.5 65.0 172.1Q65.3 172.7 65.3 173.6L65.3 173.6L65.3 174.1L60.5 174.1Q60.6 174.7 60.8 175.2L60.8 175.2Q61.0 175.7 61.5 175.9Q61.9 176.2 62.5 176.2L62.5 176.2Q62.9 176.2 63.2 176.1Q63.6 176.0 63.8 175.8Q64.0 175.5 64.1 175.2L64.1 175.2L65.2 175.5Q65.0 176.0 64.6 176.3Q64.3 176.7 63.7 176.9Q63.2 177.1 62.5 177.1ZM60.5 173.2L60.5 173.2L64.2 173.2Q64.2 172.7 64.0 172.4L64.0 172.4Q63.8 171.9 63.4 171.6Q63.0 171.3 62.4 171.3Q61.8 171.3 61.4 171.6Q61.0 171.9 60.8 172.3L60.8 172.3Q60.6 172.7 60.5 173.2ZM68.3 173.1L68.3 173.1L68.3 177L67.3 177L67.3 170.4L68.3 170.4L68.3 171.7Q68.6 171.0 69.0 170.7L69.0 170.7Q69.6 170.4 70.3 170.4L70.3 170.4Q71.0 170.4 71.5 170.6Q72.0 170.9 72.2 171.5Q72.5 172.0 72.5 172.8L72.5 172.8L72.5 177L71.5 177L71.5 172.9Q71.5 172.2 71.1 171.7Q70.7 171.3 70.0 171.3L70.0 171.3Q69.5 171.3 69.1 171.5Q68.8 171.7 68.6 172.1Q68.3 172.5 68.3 173.1Z M80.0 170.4L81.3 170.4L81.3 171.4L80.0 171.4L80.0 175.3Q80.0 175.7 80.2 175.9Q80.3 176.1 80.7 176.1L80.7 176.1Q80.8 176.1 81.0 176.1Q81.2 176.1 81.3 176.1L81.3 176.1L81.5 177.0Q81.3 177.0 81.1 177.1Q80.9 177.1 80.7 177.1L80.7 177.1Q79.9 177.1 79.4 176.6Q78.9 176.2 78.9 175.4L78.9 175.4L78.9 171.4L77.9 171.4L77.9 170.4L78.9 170.4L78.9 168.9L80.0 168.9L80.0 170.4ZM85.8 177.1L85.8 177.1Q84.9 177.1 84.3 176.7Q83.6 176.3 83.2 175.5Q82.9 174.8 82.9 173.8L82.9 173.8Q82.9 172.7 83.2 172.0Q83.6 171.2 84.3 170.8Q84.9 170.4 85.8 170.4L85.8 170.4Q86.7 170.4 87.4 170.8Q88.1 171.2 88.5 172.0Q88.8 172.7 88.8 173.8L88.8 173.8Q88.8 174.8 88.5 175.5Q88.1 176.3 87.4 176.7Q86.7 177.1 85.8 177.1ZM85.8 176.2L85.8 176.2Q86.5 176.2 86.9 175.9Q87.4 175.5 87.6 175.0Q87.8 174.4 87.8 173.8L87.8 173.8Q87.8 173.1 87.6 172.6Q87.4 172.0 86.9 171.7Q86.5 171.3 85.8 171.3L85.8 171.3Q85.2 171.3 84.8 171.7Q84.3 172.0 84.1 172.6Q83.9 173.1 83.9 173.8L83.9 173.8Q83.9 174.4 84.1 175.0Q84.3 175.5 84.8 175.9Q85.2 176.2 85.8 176.2Z M97.4 177.1L97.4 177.1Q96.5 177.1 95.8 176.7Q95.2 176.3 94.8 175.5Q94.4 174.8 94.4 173.8L94.4 173.8Q94.4 172.7 94.8 172.0Q95.2 171.2 95.8 170.8Q96.5 170.4 97.4 170.4L97.4 170.4Q97.9 170.4 98.3 170.5Q98.7 170.6 99.1 170.8Q99.4 171.1 99.7 171.4Q99.9 171.8 100.1 172.2L100.1 172.2L99.0 172.5Q99.0 172.2 98.8 172.0Q98.7 171.8 98.5 171.6Q98.3 171.5 98.0 171.4Q97.7 171.3 97.4 171.3L97.4 171.3Q96.8 171.3 96.3 171.7Q95.9 172.0 95.7 172.6Q95.5 173.1 95.5 173.8L95.5 173.8Q95.5 174.4 95.7 175.0Q95.9 175.5 96.3 175.9Q96.8 176.2 97.4 176.2L97.4 176.2Q97.7 176.2 98.0 176.1Q98.3 176.0 98.5 175.9Q98.7 175.7 98.9 175.5Q99.0 175.3 99.1 175.0L99.1 175.0L100.1 175.3Q100.0 175.7 99.7 176.1Q99.4 176.4 99.1 176.6Q98.7 176.9 98.3 177.0Q97.9 177.1 97.4 177.1ZM104.8 177.1L104.8 177.1Q103.9 177.1 103.2 176.7Q102.5 176.3 102.2 175.5Q101.8 174.8 101.8 173.8L101.8 173.8Q101.8 172.7 102.2 172.0Q102.5 171.2 103.2 170.8Q103.9 170.4 104.8 170.4L104.8 170.4Q105.7 170.4 106.3 170.8Q107.0 171.2 107.4 172.0Q107.8 172.7 107.8 173.8L107.8 173.8Q107.8 174.8 107.4 175.5Q107.0 176.3 106.3 176.7Q105.7 177.1 104.8 177.1ZM104.8 176.2L104.8 176.2Q105.4 176.2 105.9 175.9Q106.3 175.5 106.5 175.0Q106.7 174.4 106.7 173.8L106.7 173.8Q106.7 173.1 106.5 172.6Q106.3 172.0 105.9 171.7Q105.4 171.3 104.8 171.3L104.8 171.3Q104.1 171.3 103.7 171.7Q103.3 172.0 103.1 172.6Q102.9 173.1 102.9 173.8L102.9 173.8Q102.9 174.4 103.1 175.0Q103.3 175.5 103.7 175.9Q104.1 176.2 104.8 176.2ZM109.8 168.3L110.8 168.3L110.8 177L109.8 177L109.8 168.3ZM113.2 168.3L114.3 168.3L114.3 177L113.2 177L113.2 168.3ZM118.4 177.2L118.4 177.2Q117.8 177.2 117.3 176.9Q116.8 176.7 116.5 176.2Q116.2 175.8 116.2 175.1L116.2 175.1Q116.2 174.6 116.4 174.2Q116.7 173.9 117.0 173.7Q117.4 173.5 117.8 173.4Q118.3 173.3 118.8 173.2L118.8 173.2Q119.3 173.1 119.7 173.1Q120.1 173.1 120.3 173.0Q120.4 172.9 120.4 172.6L120.4 172.6L120.4 172.6Q120.4 172.2 120.3 171.9Q120.1 171.6 119.8 171.4Q119.5 171.3 119.1 171.3L119.1 171.3Q118.6 171.3 118.3 171.4Q117.9 171.6 117.7 171.8Q117.5 172.0 117.4 172.3L117.4 172.3L116.4 171.9Q116.6 171.3 117.1 171.0Q117.5 170.6 118.0 170.5Q118.5 170.4 119.0 170.4L119.0 170.4Q119.4 170.4 119.8 170.4Q120.2 170.5 120.6 170.8Q121.0 171.0 121.2 171.5Q121.5 171.9 121.5 172.7L121.5 172.7L121.5 177L120.5 177L120.5 176.1L120.4 176.1Q120.3 176.3 120.0 176.6Q119.8 176.8 119.4 177.0Q119.0 177.2 118.4 177.2ZM118.6 176.2L118.6 176.2Q119.2 176.2 119.6 176.0Q120.0 175.8 120.2 175.4Q120.4 175.0 120.4 174.6L120.4 174.6L120.4 173.7Q120.4 173.8 120.2 173.9Q119.9 173.9 119.7 174.0Q119.4 174.0 119.1 174.0Q118.9 174.1 118.7 174.1L118.7 174.1Q118.3 174.1 118.0 174.3Q117.7 174.4 117.5 174.6Q117.3 174.8 117.3 175.2L117.3 175.2Q117.3 175.5 117.4 175.8Q117.6 176.0 117.9 176.1Q118.2 176.2 118.6 176.2ZM126.9 177.1L126.9 177.1Q126.3 177.1 125.9 176.9Q125.5 176.7 125.3 176.4Q125.1 176.2 125.0 176.0L125.0 176.0L124.9 176.0L124.9 177L123.8 177L123.8 168.3L124.9 168.3L124.9 171.5L125.0 171.5Q125.1 171.3 125.3 171.1Q125.5 170.8 125.9 170.6Q126.2 170.4 126.9 170.4L126.9 170.4Q127.7 170.4 128.3 170.8Q128.9 171.2 129.3 171.9Q129.7 172.7 129.7 173.7L129.7 173.7Q129.7 174.8 129.3 175.5Q129.0 176.3 128.3 176.7Q127.7 177.1 126.9 177.1ZM126.7 176.2L126.7 176.2Q127.3 176.2 127.8 175.9Q128.2 175.5 128.4 175.0Q128.6 174.4 128.6 173.7L128.6 173.7Q128.6 173.1 128.4 172.5Q128.2 172.0 127.8 171.6Q127.3 171.3 126.7 171.3L126.7 171.3Q126.1 171.3 125.7 171.6Q125.3 171.9 125.1 172.5Q124.9 173.0 124.9 173.7L124.9 173.7Q124.9 174.5 125.1 175.0Q125.3 175.6 125.7 175.9Q126.1 176.2 126.7 176.2ZM134.4 177.1L134.4 177.1Q133.5 177.1 132.8 176.7Q132.1 176.3 131.7 175.5Q131.4 174.8 131.4 173.8L131.4 173.8Q131.4 172.7 131.7 172.0Q132.1 171.2 132.8 170.8Q133.5 170.4 134.4 170.4L134.4 170.4Q135.3 170.4 135.9 170.8Q136.6 171.2 137.0 172.0Q137.3 172.7 137.3 173.8L137.3 173.8Q137.3 174.8 137.0 175.5Q136.6 176.3 135.9 176.7Q135.3 177.1 134.4 177.1ZM134.4 176.2L134.4 176.2Q135.0 176.2 135.4 175.9Q135.9 175.5 136.1 175.0Q136.3 174.4 136.3 173.8L136.3 173.8Q136.3 173.1 136.1 172.6Q135.9 172.0 135.4 171.7Q135.0 171.3 134.4 171.3L134.4 171.3Q133.7 171.3 133.3 171.7Q132.9 172.0 132.7 172.6Q132.4 173.1 132.4 173.8L132.4 173.8Q132.4 174.4 132.7 175.0Q132.9 175.5 133.3 175.9Q133.7 176.2 134.4 176.2ZM140.4 177L139.4 177L139.4 170.4L140.4 170.4L140.4 171.5L140.5 171.5Q140.7 171.0 141.1 170.7Q141.6 170.4 142.2 170.4L142.2 170.4Q142.3 170.4 142.5 170.4Q142.6 170.4 142.7 170.4L142.7 170.4L142.7 171.4Q142.7 171.4 142.5 171.4Q142.3 171.4 142.1 171.4L142.1 171.4Q141.6 171.4 141.2 171.6Q140.9 171.8 140.7 172.1Q140.4 172.5 140.4 172.9L140.4 172.9L140.4 177ZM146.2 177.2L146.2 177.2Q145.6 177.2 145.1 176.9Q144.6 176.7 144.3 176.2Q144.0 175.8 144.0 175.1L144.0 175.1Q144.0 174.6 144.2 174.2Q144.4 173.9 144.8 173.7Q145.2 173.5 145.6 173.4Q146.1 173.3 146.6 173.2L146.6 173.2Q147.1 173.1 147.5 173.1Q147.9 173.1 148.1 173.0Q148.2 172.9 148.2 172.6L148.2 172.6L148.2 172.6Q148.2 172.2 148.1 171.9Q147.9 171.6 147.6 171.4Q147.3 171.3 146.9 171.3L146.9 171.3Q146.4 171.3 146.1 171.4Q145.7 171.6 145.5 171.8Q145.3 172.0 145.2 172.3L145.2 172.3L144.2 171.9Q144.4 171.3 144.9 171.0Q145.3 170.6 145.8 170.5Q146.3 170.4 146.8 170.4L146.8 170.4Q147.2 170.4 147.6 170.4Q148 170.5 148.4 170.8Q148.8 171.0 149.0 171.5Q149.3 171.9 149.3 172.7L149.3 172.7L149.3 177L148.3 177L148.3 176.1L148.2 176.1Q148.1 176.3 147.8 176.6Q147.6 176.8 147.2 177.0Q146.8 177.2 146.2 177.2ZM146.4 176.2L146.4 176.2Q147.0 176.2 147.4 176.0Q147.8 175.8 148.0 175.4Q148.2 175.0 148.2 174.6L148.2 174.6L148.2 173.7Q148.2 173.8 148.0 173.9Q147.7 173.9 147.5 174.0Q147.2 174.0 146.9 174.0Q146.7 174.1 146.5 174.1L146.5 174.1Q146.1 174.1 145.8 174.3Q145.5 174.4 145.3 174.6Q145.1 174.8 145.1 175.2L145.1 175.2Q145.1 175.5 145.2 175.8Q145.4 176.0 145.7 176.1Q146.0 176.2 146.4 176.2ZM152.9 170.4L154.2 170.4L154.2 171.4L152.9 171.4L152.9 175.3Q152.9 175.7 153.0 175.9Q153.2 176.1 153.6 176.1L153.6 176.1Q153.7 176.1 153.9 176.1Q154.1 176.1 154.2 176.1L154.2 176.1L154.4 177.0Q154.2 177.0 154.0 177.1Q153.8 177.1 153.6 177.1L153.6 177.1Q152.8 177.1 152.3 176.6Q151.8 176.2 151.8 175.4L151.8 175.4L151.8 171.4L150.8 171.4L150.8 170.4L151.8 170.4L151.8 168.9L152.9 168.9L152.9 170.4ZM157.1 177L156.1 177L156.1 170.4L157.1 170.4L157.1 177ZM156.6 169.4L156.6 169.4Q156.3 169.4 156.1 169.2Q155.9 169.0 155.9 168.7L155.9 168.7Q155.9 168.4 156.1 168.2Q156.3 168.0 156.6 168.0L156.6 168.0Q156.9 168.0 157.1 168.2Q157.3 168.4 157.3 168.7L157.3 168.7Q157.3 169.0 157.1 169.2Q156.9 169.4 156.6 169.4ZM162.1 177.1L162.1 177.1Q161.2 177.1 160.6 176.7Q159.9 176.3 159.5 175.5Q159.2 174.8 159.2 173.8L159.2 173.8Q159.2 172.7 159.5 172.0Q159.9 171.2 160.6 170.8Q161.2 170.4 162.1 170.4L162.1 170.4Q163.0 170.4 163.7 170.8Q164.4 171.2 164.8 172.0Q165.1 172.7 165.1 173.8L165.1 173.8Q165.1 174.8 164.8 175.5Q164.4 176.3 163.7 176.7Q163.0 177.1 162.1 177.1ZM162.1 176.2L162.1 176.2Q162.8 176.2 163.2 175.9Q163.7 175.5 163.9 175.0Q164.1 174.4 164.1 173.8L164.1 173.8Q164.1 173.1 163.9 172.6Q163.7 172.0 163.2 171.7Q162.8 171.3 162.1 171.3L162.1 171.3Q161.5 171.3 161.1 171.7Q160.6 172.0 160.4 172.6Q160.2 173.1 160.2 173.8L160.2 173.8Q160.2 174.4 160.4 175.0Q160.6 175.5 161.1 175.9Q161.5 176.2 162.1 176.2ZM168.2 173.1L168.2 173.1L168.2 177L167.2 177L167.2 170.4L168.2 170.4L168.2 171.7Q168.5 171.0 168.9 170.7L168.9 170.7Q169.4 170.4 170.2 170.4L170.2 170.4Q170.9 170.4 171.4 170.6Q171.8 170.9 172.1 171.5Q172.4 172.0 172.4 172.8L172.4 172.8L172.4 177L171.4 177L171.4 172.9Q171.4 172.2 171.0 171.7Q170.6 171.3 169.9 171.3L169.9 171.3Q169.4 171.3 169.0 171.5Q168.7 171.7 168.4 172.1Q168.2 172.5 168.2 173.1ZM177.0 177.1L177.0 177.1Q176.3 177.1 175.8 176.9Q175.3 176.7 174.9 176.4Q174.6 176.0 174.5 175.4L174.5 175.4L175.5 175.2Q175.6 175.7 176.0 176.0Q176.4 176.2 177.0 176.2L177.0 176.2Q177.7 176.2 178.1 175.9Q178.5 175.6 178.5 175.2L178.5 175.2Q178.5 174.9 178.2 174.7Q178.0 174.4 177.5 174.3L177.5 174.3L176.4 174.1Q175.5 173.9 175.1 173.4Q174.7 173.0 174.7 172.3L174.7 172.3Q174.7 171.7 175.0 171.3Q175.3 170.9 175.8 170.6Q176.4 170.4 177.1 170.4L177.1 170.4Q177.8 170.4 178.2 170.6Q178.7 170.8 179.0 171.1Q179.3 171.5 179.4 171.9L179.4 171.9L178.5 172.2Q178.4 171.8 178.0 171.6Q177.7 171.3 177.1 171.3L177.1 171.3Q176.5 171.3 176.1 171.5Q175.7 171.8 175.7 172.2L175.7 172.2Q175.7 172.6 176.0 172.8Q176.3 173.0 176.8 173.2L176.8 173.2L177.8 173.4Q178.7 173.6 179.1 174.0Q179.6 174.5 179.6 175.2L179.6 175.2Q179.6 175.7 179.2 176.2Q178.9 176.6 178.3 176.9Q177.8 177.1 177.0 177.1ZM180.7 177L186.1 177L186.1 178.0L180.7 178.0L180.7 177Z "/></g><defs><clipPath id="satori_bc-id-1"><path x="344" y="0" width="222" height="220" d="M356,0 h198 a12,12 0 0 1 12,12 v196 a12,12 0 0 1 -12,12 h-198 a12,12 0 0 1 -12,-12 v-196 a12,12 0 0 1 12,-12"/></clipPath></defs><clipPath id="satori_cp-id-1"><path x="344" y="0" width="222" height="220" d="M356,0 h198 a12,12 0 0 1 12,12 v196 a12,12 0 0 1 -12,12 h-198 a12,12 0 0 1 -12,-12 v-196 a12,12 0 0 1 12,-12"/></clipPath><mask id="satori_om-id-1"><rect x="345" y="1" width="220" height="218" fill="#fff"/><path width="222" height="220" fill="none" stroke="#000" stroke-width="2" d="M347.515,3.5150000000000006 A12,12 0 0 1 356,0 h198 a12,12 0 0 1 12,12 v196 a12,12 0 0 1 -12,12 h-198 a12,12 0 0 1 -12,-12 v-196 A12,12 0 0 1 347.515,3.5150000000000006"/></mask><path x="344" y="0" width="222" height="220" fill="rgba(255,255,255,0.02)" d="M356,0 h198 a12,12 0 0 1 12,12 v196 a12,12 0 0 1 -12,12 h-198 a12,12 0 0 1 -12,-12 v-196 a12,12 0 0 1 12,-12"/><path width="222" height="220" clip-path="url(#satori_bc-id-1)" fill="none" stroke="rgba(255,255,255,0.06)" stroke-width="2" d="M347.515,3.5150000000000006 A12,12 0 0 1 356,0 h198 a12,12 0 0 1 12,12 v196 a12,12 0 0 1 -12,12 h-198 a12,12 0 0 1 -12,-12 v-196 A12,12 0 0 1 347.515,3.5150000000000006"/><clipPath id="satori_cp-id-1-0" clip-path="url(#satori_cp-id-1)"><rect x="345" y="1" width="220" height="218"/></clipPath><mask id="satori_om-id-1-0"><rect x="345" y="1" width="220" height="218" fill="#fff" mask="url(#satori_om-id-1)"/></mask><svg x="345" y="1" width="220" height="218" preserveAspectRatio="none" clip-path="url(#satori_cp-id-1-0)" mask="url(#satori_om-id-1-0)"><defs><radialGradient id="stat-glow-repos" cx="0%" cy="100%" r="90%"><stop offset="0%" stop-color="rgba(168, 127, 251, 0.15)"></stop><stop offset="100%" stop-color="rgba(168, 127, 251, 0)"></stop></radialGradient></defs><rect className="ambient-anim" width="100%" height="100%" fill="url(#stat-glow-repos)"></rect></svg><mask id="satori_om-id-1-0-0"><rect x="345" y="1" width="0" height="218" fill="#fff" mask="url(#satori_om-id-1)"/></mask><mask id="satori_om-id-1-0-0-0"><rect x="345" y="1" width="0" height="218" fill="#fff" mask="url(#satori_om-id-1)"/></mask><mask id="satori_om-id-1-0-0-0-0"><rect x="345" y="1" width="0" height="218" fill="#fff" mask="url(#satori_om-id-1)"/></mask><mask id="satori_om-id-1-0-0-0-1"><rect x="345" y="1" width="0" height="218" fill="#fff" mask="url(#satori_om-id-1)"/></mask><mask id="satori_om-id-1-0-1"><rect x="345" y="1" width="0" height="218" fill="#fff" mask="url(#satori_om-id-1)"/></mask><mask id="satori_om-id-1-1"><rect x="431" y="81" width="49" height="58" fill="#fff" mask="url(#satori_om-id-1)"/></mask><mask id="satori_om-id-1-1-0"><rect x="434" y="81" width="44" height="44" fill="#fff" mask="url(#satori_om-id-1)"/></mask><g mask="url(#satori_om-id-1)" clip-path="url(#satori_cp-id-1)"><path fill="#a87ffb" d="M454.7 116L436.2 116L436.2 112.1L445.5 103.4Q446.7 102.3 447.5 101.3Q448.3 100.4 448.7 99.5Q449.2 98.6 449.2 97.5L449.2 97.5Q449.2 96.3 448.6 95.5Q448.1 94.7 447.2 94.2Q446.3 93.7 445.1 93.7L445.1 93.7Q443.9 93.7 443.0 94.2Q442.1 94.7 441.6 95.6Q441.1 96.6 441.1 97.8L441.1 97.8L435.9 97.8Q435.9 95.3 437.1 93.4Q438.3 91.5 440.3 90.5Q442.4 89.5 445.1 89.5L445.1 89.5Q447.9 89.5 450.0 90.5Q452.1 91.4 453.2 93.2Q454.4 94.9 454.4 97.2L454.4 97.2Q454.4 98.7 453.8 100.1Q453.2 101.5 451.7 103.3Q450.3 105.0 447.6 107.5L447.6 107.5L443.6 111.4L443.6 111.6L454.7 111.6L454.7 116ZM476.4 116L457.9 116L457.9 112.1L467.1 103.4Q468.3 102.3 469.1 101.3Q470.0 100.4 470.4 99.5Q470.8 98.6 470.8 97.5L470.8 97.5Q470.8 96.3 470.3 95.5Q469.8 94.7 468.9 94.2Q467.9 93.7 466.8 93.7L466.8 93.7Q465.6 93.7 464.6 94.2Q463.7 94.7 463.2 95.6Q462.7 96.6 462.7 97.8L462.7 97.8L457.6 97.8Q457.6 95.3 458.8 93.4Q459.9 91.5 462.0 90.5Q464.1 89.5 466.8 89.5L466.8 89.5Q469.6 89.5 471.7 90.5Q473.7 91.4 474.9 93.2Q476.0 94.9 476.0 97.2L476.0 97.2Q476.0 98.7 475.5 100.1Q474.9 101.5 473.4 103.3Q472.0 105.0 469.3 107.5L469.3 107.5L465.3 111.4L465.3 111.6L476.4 111.6L476.4 116Z "/></g><mask id="satori_om-id-1-1-1"><rect x="431" y="127" width="49" height="12" fill="#fff" mask="url(#satori_om-id-1)"/></mask><g mask="url(#satori_om-id-1)" clip-path="url(#satori_cp-id-1)"><path fill="rgba(255,255,255,0.4)" d="M433.1 137L431.7 137L431.7 129.7L434.5 129.7Q435.3 129.7 435.9 130.0Q436.5 130.3 436.8 130.8Q437.1 131.4 437.1 132.1Q437.1 132.8 436.8 133.3Q436.5 133.9 435.9 134.1L435.9 134.1Q435.8 134.1 435.8 134.2L435.8 134.2L437.4 137L435.7 137L434.3 134.4L433.1 134.4L433.1 137ZM433.1 131.0L433.1 133.2L434.2 133.2Q434.7 133.2 435.0 133.1Q435.3 132.9 435.4 132.7Q435.6 132.5 435.6 132.1L435.6 132.1Q435.6 131.7 435.4 131.5Q435.3 131.2 435.0 131.1Q434.7 131.0 434.2 131.0L434.2 131.0L433.1 131.0ZM446.1 137L441.2 137L441.2 129.7L446.1 129.7L446.1 131.0L442.7 131.0L442.7 132.7L445.8 132.7L445.8 133.9L442.7 133.9L442.7 135.8L446.1 135.8L446.1 137ZM451.8 137L450.3 137L450.3 129.7L453.1 129.7Q454.0 129.7 454.5 130.0Q455.1 130.4 455.4 130.9Q455.7 131.5 455.7 132.2L455.7 132.2Q455.7 132.9 455.4 133.5Q455.1 134.0 454.5 134.3Q453.9 134.6 453.1 134.6L453.1 134.6L451.8 134.6L451.8 137ZM451.8 131.0L451.8 133.4L452.9 133.4Q453.3 133.4 453.6 133.3Q453.9 133.1 454.1 132.8Q454.2 132.5 454.2 132.2Q454.2 131.8 454.1 131.5Q453.9 131.3 453.6 131.1Q453.3 131.0 452.9 131.0L452.9 131.0L451.8 131.0ZM463.0 137.1L463.0 137.1Q462.0 137.1 461.2 136.7Q460.5 136.2 460.0 135.4Q459.6 134.5 459.6 133.4L459.6 133.4Q459.6 132.2 460.0 131.3Q460.5 130.5 461.2 130.1Q462.0 129.6 463.0 129.6L463.0 129.6Q463.9 129.6 464.7 130.1Q465.5 130.5 465.9 131.3Q466.4 132.2 466.4 133.4L466.4 133.4Q466.4 134.5 465.9 135.4Q465.5 136.2 464.7 136.7Q463.9 137.1 463.0 137.1ZM463.0 135.8L463.0 135.8Q463.5 135.8 464.0 135.5Q464.4 135.2 464.6 134.7Q464.9 134.1 464.9 133.4L464.9 133.4Q464.9 132.6 464.6 132.0Q464.4 131.5 464.0 131.2Q463.5 131.0 463.0 131.0L463.0 131.0Q462.4 131.0 462.0 131.2Q461.6 131.5 461.3 132.0Q461.1 132.6 461.1 133.4L461.1 133.4Q461.1 134.1 461.3 134.7Q461.6 135.2 462.0 135.5Q462.4 135.8 463.0 135.8ZM473.2 137.1L473.2 137.1Q472.3 137.1 471.6 136.8Q471.0 136.6 470.6 136.0Q470.3 135.5 470.2 134.7L470.2 134.7L471.7 134.7Q471.7 135.1 471.9 135.4Q472.1 135.6 472.4 135.7Q472.7 135.8 473.1 135.8L473.1 135.8Q473.5 135.8 473.8 135.7Q474.1 135.6 474.3 135.4Q474.5 135.2 474.5 134.9L474.5 134.9Q474.5 134.7 474.3 134.5Q474.2 134.3 473.9 134.2Q473.6 134.1 473.2 134.0L473.2 134.0L472.4 133.8Q471.5 133.6 471.0 133.1Q470.4 132.6 470.4 131.8L470.4 131.8Q470.4 131.2 470.8 130.7Q471.1 130.2 471.8 129.9Q472.4 129.6 473.2 129.6L473.2 129.6Q474.0 129.6 474.6 129.9Q475.2 130.2 475.5 130.7Q475.9 131.2 475.9 131.8L475.9 131.8L474.4 131.8Q474.4 131.4 474.0 131.1Q473.7 130.9 473.2 130.9L473.2 130.9Q472.8 130.9 472.5 131.0Q472.2 131.1 472.1 131.3Q472.0 131.5 472.0 131.7L472.0 131.7Q472.0 132.0 472.1 132.2Q472.3 132.3 472.6 132.5Q472.8 132.6 473.1 132.6L473.1 132.6L473.8 132.8Q474.2 132.9 474.6 133.1Q475.0 133.3 475.3 133.5Q475.6 133.8 475.8 134.1Q476.0 134.5 476.0 134.9L476.0 134.9Q476.0 135.6 475.6 136.1Q475.3 136.6 474.7 136.8Q474.0 137.1 473.2 137.1Z "/></g><defs><clipPath id="satori_bc-id-2"><path x="578" y="0" width="222" height="220" d="M590,0 h198 a12,12 0 0 1 12,12 v196 a12,12 0 0 1 -12,12 h-198 a12,12 0 0 1 -12,-12 v-196 a12,12 0 0 1 12,-12"/></clipPath></defs><clipPath id="satori_cp-id-2"><path x="578" y="0" width="222" height="220" d="M590,0 h198 a12,12 0 0 1 12,12 v196 a12,12 0 0 1 -12,12 h-198 a12,12 0 0 1 -12,-12 v-196 a12,12 0 0 1 12,-12"/></clipPath><mask id="satori_om-id-2"><rect x="579" y="1" width="220" height="218" fill="#fff"/><path width="222" height="220" fill="none" stroke="#000" stroke-width="2" d="M581.515,3.5150000000000006 A12,12 0 0 1 590,0 h198 a12,12 0 0 1 12,12 v196 a12,12 0 0 1 -12,12 h-198 a12,12 0 0 1 -12,-12 v-196 A12,12 0 0 1 581.515,3.5150000000000006"/></mask><path x="578" y="0" width="222" height="220" fill="rgba(255,255,255,0.02)" d="M590,0 h198 a12,12 0 0 1 12,12 v196 a12,12 0 0 1 -12,12 h-198 a12,12 0 0 1 -12,-12 v-196 a12,12 0 0 1 12,-12"/><path width="222" height="220" clip-path="url(#satori_bc-id-2)" fill="none" stroke="rgba(255,255,255,0.06)" stroke-width="2" d="M581.515,3.5150000000000006 A12,12 0 0 1 590,0 h198 a12,12 0 0 1 12,12 v196 a12,12 0 0 1 -12,12 h-198 a12,12 0 0 1 -12,-12 v-196 A12,12 0 0 1 581.515,3.5150000000000006"/><clipPath id="satori_cp-id-2-0" clip-path="url(#satori_cp-id-2)"><rect x="579" y="1" width="220" height="218"/></clipPath><mask id="satori_om-id-2-0"><rect x="579" y="1" width="220" height="218" fill="#fff" mask="url(#satori_om-id-2)"/></mask><svg x="579" y="1" width="220" height="218" preserveAspectRatio="none" clip-path="url(#satori_cp-id-2-0)" mask="url(#satori_om-id-2-0)"><defs><radialGradient id="stat-glow-commits" cx="100%" cy="100%" r="90%"><stop offset="0%" stop-color="rgba(245, 166, 35, 0.15)"></stop><stop offset="100%" stop-color="rgba(245, 166, 35, 0)"></stop></radialGradient></defs><rect className="ambient-anim" width="100%" height="100%" fill="url(#stat-glow-commits)"></rect></svg><mask id="satori_om-id-2-0-0"><rect x="579" y="1" width="0" height="218" fill="#fff" mask="url(#satori_om-id-2)"/></mask><mask id="satori_om-id-2-0-0-0"><rect x="579" y="1" width="0" height="218" fill="#fff" mask="url(#satori_om-id-2)"/></mask><mask id="satori_om-id-2-0-0-0-0"><rect x="579" y="1" width="0" height="218" fill="#fff" mask="url(#satori_om-id-2)"/></mask><mask id="satori_om-id-2-0-0-0-1"><rect x="579" y="1" width="0" height="218" fill="#fff" mask="url(#satori_om-id-2)"/></mask><mask id="satori_om-id-2-0-1"><rect x="579" y="1" width="0" height="218" fill="#fff" mask="url(#satori_om-id-2)"/></mask><mask id="satori_om-id-2-1"><rect x="654" y="81" width="71" height="58" fill="#fff" mask="url(#satori_om-id-2)"/></mask><mask id="satori_om-id-2-1-0"><rect x="657" y="81" width="66" height="44" fill="#fff" mask="url(#satori_om-id-2)"/></mask><g mask="url(#satori_om-id-2)" clip-path="url(#satori_cp-id-2)"><path fill="#f5a623" d="M677.7 116L659.2 116L659.2 112.1L668.5 103.4Q669.7 102.3 670.5 101.3Q671.3 100.4 671.7 99.5Q672.2 98.6 672.2 97.5L672.2 97.5Q672.2 96.3 671.6 95.5Q671.1 94.7 670.2 94.2Q669.3 93.7 668.1 93.7L668.1 93.7Q666.9 93.7 666.0 94.2Q665.1 94.7 664.6 95.6Q664.1 96.6 664.1 97.8L664.1 97.8L658.9 97.8Q658.9 95.3 660.1 93.4Q661.3 91.5 663.3 90.5Q665.4 89.5 668.1 89.5L668.1 89.5Q670.9 89.5 673.0 90.5Q675.1 91.4 676.2 93.2Q677.4 94.9 677.4 97.2L677.4 97.2Q677.4 98.7 676.8 100.1Q676.2 101.5 674.7 103.3Q673.3 105.0 670.6 107.5L670.6 107.5L666.6 111.4L666.6 111.6L677.7 111.6L677.7 116ZM689.7 116.4L689.7 116.4Q687.0 116.4 684.9 115.4Q682.8 114.4 681.6 112.6Q680.4 110.9 680.3 108.7L680.3 108.7L685.5 108.7Q685.6 109.7 686.2 110.5Q686.7 111.2 687.7 111.7Q688.6 112.1 689.7 112.1L689.7 112.1Q691.0 112.1 692.0 111.5Q693.1 110.9 693.6 109.9Q694.2 108.8 694.2 107.4L694.2 107.4Q694.2 106.0 693.6 105.0Q693.0 103.9 692.0 103.3Q691.0 102.7 689.6 102.7L689.6 102.7Q688.4 102.7 687.4 103.1Q686.3 103.6 685.7 104.4L685.7 104.4L680.9 103.6L682.1 89.8L698.0 89.8L698.0 94.2L686.6 94.2L685.9 100.9L686.0 100.9Q686.7 99.9 688.1 99.3Q689.5 98.7 691.2 98.7L691.2 98.7Q693.0 98.7 694.5 99.3Q696.0 100.0 697.1 101.1Q698.2 102.3 698.8 103.8Q699.4 105.4 699.4 107.3L699.4 107.3Q699.4 109.9 698.2 112.0Q697.0 114.0 694.8 115.2Q692.6 116.4 689.7 116.4ZM711.3 116.4L711.3 116.4Q708.7 116.4 706.7 115.4Q704.7 114.3 703.5 112.6Q702.3 110.9 702.0 108.7L702.0 108.7L707.3 108.7Q707.6 110.1 708.6 110.9Q709.7 111.8 711.3 111.8L711.3 111.8Q713.0 111.8 714.2 110.7Q715.3 109.7 716.0 107.8Q716.6 105.9 716.6 103.3L716.6 103.3L716.4 103.3Q715.8 104.5 714.8 105.3Q713.8 106.1 712.5 106.6Q711.3 107.0 709.8 107.0L709.8 107.0Q707.5 107.0 705.7 105.9Q703.8 104.8 702.8 102.9Q701.7 101.0 701.7 98.5L701.7 98.5Q701.7 95.9 703.0 93.8Q704.2 91.8 706.4 90.6Q708.6 89.4 711.5 89.4L711.5 89.4Q713.5 89.4 715.3 90.1Q717.2 90.8 718.6 92.3Q720.1 93.7 721.0 96.2Q721.8 98.7 721.8 102.3L721.8 102.3Q721.8 105.6 721.1 108.2Q720.3 110.8 718.9 112.6Q717.6 114.5 715.6 115.4Q713.7 116.4 711.3 116.4ZM711.4 103.1L711.4 103.1Q712.4 103.1 713.2 102.7Q714.1 102.3 714.7 101.7Q715.3 101.0 715.7 100.2Q716.0 99.4 716.0 98.4L716.0 98.4Q716.0 97.1 715.4 96.0Q714.8 95.0 713.8 94.4Q712.8 93.7 711.5 93.7L711.5 93.7Q710.2 93.7 709.2 94.3Q708.1 95.0 707.5 96.0Q706.9 97.1 706.9 98.4L706.9 98.4Q706.9 99.7 707.5 100.8Q708.1 101.8 709.1 102.5Q710.1 103.1 711.4 103.1Z "/></g><mask id="satori_om-id-2-1-1"><rect x="654" y="127" width="71" height="12" fill="#fff" mask="url(#satori_om-id-2)"/></mask><g mask="url(#satori_om-id-2)" clip-path="url(#satori_cp-id-2)"><path fill="rgba(255,255,255,0.4)" d="M657.8 137.1L657.8 137.1Q656.9 137.1 656.1 136.7Q655.3 136.2 654.9 135.4Q654.5 134.5 654.5 133.4L654.5 133.4Q654.5 132.2 654.9 131.3Q655.3 130.5 656.1 130.1Q656.9 129.6 657.8 129.6L657.8 129.6Q658.5 129.6 659.0 129.8Q659.5 130.0 659.9 130.3Q660.4 130.6 660.6 131.1Q660.9 131.6 661.0 132.2L661.0 132.2L659.5 132.2Q659.4 131.9 659.3 131.7Q659.1 131.4 658.9 131.3Q658.7 131.1 658.4 131.0Q658.2 131.0 657.9 131.0L657.9 131.0Q657.3 131.0 656.9 131.2Q656.4 131.5 656.2 132.1Q656.0 132.6 656.0 133.4L656.0 133.4Q656.0 134.2 656.2 134.7Q656.5 135.2 656.9 135.5Q657.3 135.8 657.9 135.8L657.9 135.8Q658.2 135.8 658.4 135.7Q658.7 135.6 658.9 135.4Q659.1 135.3 659.3 135.0Q659.4 134.8 659.5 134.5L659.5 134.5L661.0 134.5Q660.9 135.0 660.7 135.5Q660.4 135.9 660.0 136.3Q659.6 136.7 659.1 136.9Q658.5 137.1 657.8 137.1ZM668.3 137.1L668.3 137.1Q667.3 137.1 666.5 136.7Q665.8 136.2 665.3 135.4Q664.9 134.5 664.9 133.4L664.9 133.4Q664.9 132.2 665.3 131.3Q665.8 130.5 666.5 130.1Q667.3 129.6 668.3 129.6L668.3 129.6Q669.2 129.6 670.0 130.1Q670.8 130.5 671.2 131.3Q671.6 132.2 671.6 133.4L671.6 133.4Q671.6 134.5 671.2 135.4Q670.8 136.2 670.0 136.7Q669.2 137.1 668.3 137.1ZM668.3 135.8L668.3 135.8Q668.8 135.8 669.2 135.5Q669.7 135.2 669.9 134.7Q670.1 134.1 670.1 133.4L670.1 133.4Q670.1 132.6 669.9 132.0Q669.7 131.5 669.2 131.2Q668.8 131.0 668.3 131.0L668.3 131.0Q667.7 131.0 667.3 131.2Q666.8 131.5 666.6 132.0Q666.4 132.6 666.4 133.4L666.4 133.4Q666.4 134.1 666.6 134.7Q666.8 135.2 667.3 135.5Q667.7 135.8 668.3 135.8ZM677.2 137L675.8 137L675.8 129.7L678.0 129.7L679.2 133.1Q679.3 133.3 679.4 133.7Q679.5 134.0 679.6 134.5L679.6 134.5Q679.7 134.9 679.8 135.3L679.8 135.3Q679.9 134.9 679.9 134.5L679.9 134.5Q680.0 134.1 680.1 133.7Q680.2 133.3 680.3 133.1L680.3 133.1L681.5 129.7L683.8 129.7L683.8 137L682.3 137L682.3 133.6Q682.3 133.3 682.3 133.0Q682.3 132.6 682.3 132.2Q682.3 131.8 682.3 131.4L682.3 131.4Q682.3 131.2 682.3 131.0L682.3 131.0Q682.3 131.2 682.2 131.4L682.2 131.4Q682.1 131.9 682.0 132.3Q681.9 132.7 681.8 133.0Q681.7 133.3 681.6 133.6L681.6 133.6L680.4 137L679.1 137L677.9 133.6Q677.8 133.3 677.7 133.0Q677.6 132.7 677.5 132.3Q677.4 131.9 677.3 131.4L677.3 131.4Q677.2 131.2 677.2 131.1L677.2 131.1Q677.2 131.2 677.2 131.4L677.2 131.4Q677.2 131.8 677.2 132.2Q677.2 132.6 677.2 133.0Q677.2 133.3 677.2 133.6L677.2 133.6L677.2 137ZM689.6 137L688.1 137L688.1 129.7L690.4 129.7L691.5 133.1Q691.6 133.3 691.7 133.7Q691.8 134.0 691.9 134.5L691.9 134.5Q692.0 134.9 692.1 135.3L692.1 135.3Q692.2 134.9 692.3 134.5L692.3 134.5Q692.4 134.1 692.5 133.7Q692.6 133.3 692.6 133.1L692.6 133.1L693.8 129.7L696.1 129.7L696.1 137L694.6 137L694.6 133.6Q694.6 133.3 694.6 133.0Q694.6 132.6 694.6 132.2Q694.6 131.8 694.6 131.4L694.6 131.4Q694.6 131.2 694.6 131.0L694.6 131.0Q694.6 131.2 694.5 131.4L694.5 131.4Q694.4 131.9 694.3 132.3Q694.2 132.7 694.1 133.0Q694.0 133.3 693.9 133.6L693.9 133.6L692.7 137L691.5 137L690.2 133.6Q690.2 133.3 690.1 133.0Q689.9 132.7 689.8 132.3Q689.7 131.9 689.6 131.4L689.6 131.4Q689.6 131.2 689.5 131.1L689.5 131.1Q689.5 131.2 689.5 131.4L689.5 131.4Q689.5 131.8 689.5 132.2Q689.5 132.6 689.6 133.0Q689.6 133.3 689.6 133.6L689.6 133.6L689.6 137ZM700.4 129.7L701.9 129.7L701.9 137L700.4 137L700.4 129.7ZM708.1 131.0L705.9 131.0L705.9 129.7L711.9 129.7L711.9 131.0L709.6 131.0L709.6 137L708.1 137L708.1 131.0ZM718.5 137.1L718.5 137.1Q717.7 137.1 717.0 136.8Q716.4 136.6 716.0 136.0Q715.7 135.5 715.6 134.7L715.6 134.7L717.1 134.7Q717.1 135.1 717.3 135.4Q717.5 135.6 717.8 135.7Q718.1 135.8 718.5 135.8L718.5 135.8Q718.9 135.8 719.2 135.7Q719.5 135.6 719.7 135.4Q719.9 135.2 719.9 134.9L719.9 134.9Q719.9 134.7 719.7 134.5Q719.6 134.3 719.3 134.2Q719.0 134.1 718.6 134.0L718.6 134.0L717.8 133.8Q716.9 133.6 716.4 133.1Q715.8 132.6 715.8 131.8L715.8 131.8Q715.8 131.2 716.2 130.7Q716.5 130.2 717.2 129.9Q717.8 129.6 718.6 129.6L718.6 129.6Q719.4 129.6 720.0 129.9Q720.6 130.2 720.9 130.7Q721.2 131.2 721.3 131.8L721.3 131.8L719.8 131.8Q719.8 131.4 719.4 131.1Q719.1 130.9 718.5 130.9L718.5 130.9Q718.2 130.9 717.9 131.0Q717.6 131.1 717.5 131.3Q717.4 131.5 717.4 131.7L717.4 131.7Q717.4 132.0 717.5 132.2Q717.7 132.3 717.9 132.5Q718.2 132.6 718.5 132.6L718.5 132.6L719.2 132.8Q719.6 132.9 720.0 133.1Q720.4 133.3 720.7 133.5Q721.0 133.8 721.2 134.1Q721.4 134.5 721.4 134.9L721.4 134.9Q721.4 135.6 721.0 136.1Q720.7 136.6 720.1 136.8Q719.4 137.1 718.5 137.1Z "/></g></svg>