<!-- Generated by readme-aura https://github.com/collectioneur/readme-aura -->
<svg width="800" height="200" viewBox="0 0 800 200" xmlns="http://www.w3.org/2000/svg"><clipPath id="satori_cp-id"><path x="0" y="0" width="800" height="200" d="M20,0 h760 a20,20 0 0 1 20,20 v160 a20,20 0 0 1 -20,20 h-760 a20,20 0 0 1 -20,-20 v-160 a20,20 0 0 1 20,-20"/></clipPath><mask id="satori_om-id"><rect x="0" y="0" width="800" height="200" fill="#fff"/></mask><path x="0" y="0" width="800" height="200" fill="#08080d" d="M20,0 h760 a20,20 0 0 1 20,20 v160 a20,20 0 0 1 -20,20 h-760 a20,20 0 0 1 -20,-20 v-160 a20,20 0 0 1 20,-20"/><clipPath id="satori_cp-id-0" clip-path="url(#satori_cp-id)"><rect x="0" y="0" width="800" height="200"/></clipPath><mask id="satori_om-id-0"><rect x="0" y="0" width="800" height="200" fill="#fff" mask="url(#satori_om-id)"/></mask><svg x="0" y="0" width="800" height="200" preserveAspectRatio="none" clip-path="url(#satori_cp-id-0)" mask="url(#satori_om-id-0)"><defs><radialGradient id="sg1" cx="50%" cy="50%" r="50%"><stop offset="0%" stop-color="rgba(108,195,130,0.4)"></stop><stop offset="100%" stop-color="rgba(108,195,130,0)"></stop></radialGradient><radialGradient id="sg2" cx="50%" cy="50%" r="50%"><stop offset="0%" stop-color="rgba(230,100,115,0.35)"></stop><stop offset="100%" stop-color="rgba(230,100,115,0)"></stop></radialGradient><radialGradient id="sg3" cx="50%" cy="50%" r="50%"><stop offset="0%" stop-color="rgba(80,160,220,0.3)"></stop><stop offset="100%" stop-color="rgba(80,160,220,0)"></stop></radialGradient><radialGradient id="sg4" cx="50%" cy="50%" r="50%"><stop offset="0%" stop-color="rgba(195,155,255,0.3)"></stop><stop offset="100%" stop-color="rgba(195,155,255,0)"></stop></radialGradient></defs><ellipse id="st-o1" cx="80" cy="160" rx="160" ry="120" fill="url(#sg1)"></ellipse><ellipse id="st-o2" cx="730" cy="50" rx="150" ry="120" fill="url(#sg2)"></ellipse><ellipse id="st-o3" cx="640" cy="170" rx="140" ry="110" fill="url(#sg3)"></ellipse><ellipse id="st-o4" cx="180" cy="40" rx="130" ry="100" fill="url(#sg4)"></ellipse><style>

    @keyframes stack-orb { 0%, 100% { transform: translate(0,0); opacity: 0.45; } 50% { transform: translate(18px,-14px); opacity: 0.7; } }
    @keyframes stack-orb-b { 0%, 100% { transform: translate(0,0); opacity: 0.4; } 50% { transform: translate(-14px,10px); opacity: 0.65; } }
    @keyframes chip-appear { 0% { opacity: 0; transform: translateY(8px); } 100% { opacity: 1; transform: translateY(0); } }
    #st-o1 { animation: stack-orb 10s ease-in-out infinite; }
    #st-o2 { animation: stack-orb-b 12s ease-in-out infinite 1s; }
    #st-o3 { animation: stack-orb 9s ease-in-out infinite 2.5s; }
    #st-o4 { animation: stack-orb-b 11s ease-in-out infinite 0.5s; }
  
</style>
</svg><mask id="satori_om-id-0-0"><rect x="0" y="0" width="0" height="200" fill="#fff" mask="url(#satori_om-id)"/></mask><mask id="satori_om-id-0-0-0"><rect x="0" y="0" width="0" height="200" fill="#fff" mask="url(#satori_om-id)"/></mask><mask id="satori_om-id-0-0-0-0"><rect x="0" y="0" width="0" height="200" fill="#fff" mask="url(#satori_om-id)"/></mask><mask id="satori_om-id-0-0-0-1"><rect x="0" y="0" width="0" height="200" fill="#fff" mask="url(#satori_om-id)"/></mask><mask id="satori_om-id-0-0-1"><rect x="0" y="0" width="0" height="200" fill="#fff" mask="url(#satori_om-id)"/></mask><mask id="satori_om-id-0-0-1-0"><rect x="0" y="0" width="0" height="200" fill="#fff" mask="url(#satori_om-id)"/></mask><mask id="satori_om-id-0-0-1-1"><rect x="0" y="0" width="0" height="200" fill="#fff" mask="url(#satori_om-id)"/></mask><mask id="satori_om-id-0-0-2"><rect x="0" y="0" width="0" height="200" fill="#fff" mask="url(#satori_om-id)"/></mask><mask id="satori_om-id-0-0-2-0"><rect x="0" y="0" width="0" height="200" fill="#fff" mask="url(#satori_om-id)"/></mask><mask id="satori_om-id-0-0-2-1"><rect x="0" y="0" width="0" height="200" fill="#fff" mask="url(#satori_om-id)"/></mask><mask id="satori_om-id-0-0-3"><rect x="0" y="0" width="0" height="200" fill="#fff" mask="url(#satori_om-id)"/></mask><mask id="satori_om-id-0-0-3-0"><rect x="0" y="0" width="0" height="200" fill="#fff" mask="url(#satori_om-id)"/></mask><mask id="satori_om-id-0-0-3-1"><rect x="0" y="0" width="0" height="200" fill="#fff" mask="url(#satori_om-id)"/></mask><mask id="satori_om-id-0-1"><rect x="0" y="0" width="0" height="200" fill="#fff" mask="url(#satori_om-id)"/></mask><mask id="satori_om-id-0-2"><rect x="0" y="0" width="0" height="200" fill="#fff" mask="url(#satori_om-id)"/></mask><mask id="satori_om-id-0-3"><rect x="0" y="0" width="0" height="200" fill="#fff" mask="url(#satori_om-id)"/></mask><mask id="satori_om-id-0-4"><rect x="0" y="0" width="0" height="200" fill="#fff" mask="url(#satori_om-id)"/></mask><mask id="satori_om-id-1"><rect x="371" y="68" width="58" height="13" fill="#fff" mask="url(#satori_om-id)"/></mask><g mask="url(#satori_om-id)" clip-path="url(#satori_cp-id)"><path fill="rgba(255,255,255,0.3)" d="M374.5 79.1L374.5 79.1Q373.7 79.1 373.0 78.9Q372.4 78.6 372.0 78.1Q371.7 77.6 371.6 76.9L371.6 76.9L372.7 76.9Q372.7 77.4 373.0 77.6Q373.2 77.9 373.7 78.1Q374.1 78.2 374.5 78.2L374.5 78.2Q375.1 78.2 375.5 78.0Q375.9 77.9 376.2 77.5Q376.4 77.2 376.4 76.8L376.4 76.8Q376.4 76.4 376.2 76.2Q376.0 75.9 375.6 75.8Q375.3 75.6 374.9 75.5L374.9 75.5L373.9 75.2Q372.9 75.0 372.4 74.4Q371.8 73.9 371.8 73.1L371.8 73.1Q371.8 72.5 372.2 72.0Q372.6 71.4 373.2 71.2Q373.8 70.9 374.6 70.9L374.6 70.9Q375.4 70.9 376.0 71.2Q376.6 71.4 377.0 71.9Q377.3 72.4 377.3 73.0L377.3 73.0L376.3 73.0Q376.3 72.4 375.8 72.1Q375.3 71.8 374.6 71.8L374.6 71.8Q374.1 71.8 373.7 72.0Q373.3 72.1 373.1 72.4Q372.8 72.7 372.8 73.1L372.8 73.1Q372.8 73.5 373.1 73.8Q373.4 74.0 373.7 74.2Q374.1 74.3 374.4 74.4L374.4 74.4L375.2 74.6Q375.5 74.7 375.9 74.8Q376.3 75.0 376.6 75.2Q377.0 75.5 377.2 75.9Q377.4 76.3 377.4 76.8L377.4 76.8Q377.4 77.5 377.1 78.0Q376.8 78.5 376.1 78.8Q375.5 79.1 374.5 79.1ZM385.1 71.9L382.6 71.9L382.6 71.0L388.6 71.0L388.6 71.9L386.1 71.9L386.1 79L385.1 79L385.1 71.9ZM394.5 79L393.4 79L396.3 71.0L397.5 71.0L400.5 79L399.4 79L398.6 76.8L395.3 76.8L394.5 79ZM395.6 75.9L398.3 75.9L397.7 74.3Q397.5 73.8 397.3 73.2L397.3 73.2Q397.2 72.6 396.9 71.8L396.9 71.8Q396.7 72.6 396.5 73.2L396.5 73.2Q396.3 73.8 396.2 74.3L396.2 74.3L395.6 75.9ZM409.0 79.1L409.0 79.1Q407.9 79.1 407.1 78.6Q406.3 78.1 405.9 77.2Q405.4 76.3 405.4 75.0L405.4 75.0Q405.4 73.7 405.9 72.8Q406.3 71.9 407.1 71.4Q407.9 70.9 409.0 70.9L409.0 70.9Q409.6 70.9 410.1 71.1Q410.6 71.2 411.1 71.6Q411.5 71.9 411.8 72.4Q412.1 72.9 412.2 73.5L412.2 73.5L411.2 73.5Q411.1 73.1 410.9 72.8Q410.7 72.5 410.4 72.3Q410.1 72.0 409.7 71.9Q409.3 71.8 409.0 71.8L409.0 71.8Q408.2 71.8 407.7 72.2Q407.1 72.6 406.7 73.3Q406.4 74.0 406.4 75.0L406.4 75.0Q406.4 76.0 406.7 76.7Q407.1 77.4 407.7 77.8Q408.2 78.2 409.0 78.2L409.0 78.2Q409.3 78.2 409.7 78.1Q410.1 77.9 410.4 77.7Q410.7 77.5 410.9 77.2Q411.1 76.9 411.2 76.5L411.2 76.5L412.2 76.5Q412.1 77.1 411.8 77.6Q411.5 78.1 411.1 78.4Q410.6 78.7 410.1 78.9Q409.6 79.1 409.0 79.1ZM418.8 79L417.7 79L417.7 71.0L418.8 71.0L418.8 73.7L418.8 75.2Q418.9 75.1 419.0 74.9L419.0 74.9Q419.3 74.6 419.5 74.2Q419.8 73.9 420.1 73.6L420.1 73.6L422.5 71.0L423.9 71.0L420.6 74.5L423.9 79L422.7 79L419.9 75.2L418.8 76.4L418.8 79Z "/></g><mask id="satori_om-id-2"><rect x="132" y="101" width="536" height="31" fill="#fff" mask="url(#satori_om-id)"/></mask><defs><clipPath id="satori_bc-id-2-0" clip-path="url(#satori_cp-id)"><path x="132" y="101" width="104" height="31" d="M147.5,101 h73 a15.5,15.5 0 0 1 15.5,15.5 v0 a15.5,15.5 0 0 1 -15.5,15.5 h-73 a15.5,15.5 0 0 1 -15.5,-15.5 v0 a15.5,15.5 0 0 1 15.5,-15.5"/></clipPath></defs><mask id="satori_om-id-2-0"><rect x="133" y="102" width="102" height="29" fill="#fff" mask="url(#satori_om-id)"/><path width="104" height="31" fill="none" stroke="#000" stroke-width="2" d="M136.54,105.53999999999999 A15.5,15.5 0 0 1 147.5,101 h73 a15.5,15.5 0 0 1 15.5,15.5 v0 a15.5,15.5 0 0 1 -15.5,15.5 h-73 a15.5,15.5 0 0 1 -15.5,-15.5 v0 A15.5,15.5 0 0 1 136.54,105.53999999999999"/></mask><path x="132" y="101" width="104" height="31" fill="rgba(255,255,255,0.04)" d="M147.5,101 h73 a15.5,15.5 0 0 1 15.5,15.5 v0 a15.5,15.5 0 0 1 -15.5,15.5 h-73 a15.5,15.5 0 0 1 -15.5,-15.5 v0 a15.5,15.5 0 0 1 15.5,-15.5" clip-path="url(#satori_cp-id)" mask="url(#satori_om-id)"/><path width="104" height="31" clip-path="url(#satori_bc-id-2-0)" fill="none" stroke="rgba(255,255,255,0.08)" stroke-width="2" d="M136.54,105.53999999999999 A15.5,15.5 0 0 1 147.5,101 h73 a15.5,15.5 0 0 1 15.5,15.5 v0 a15.5,15.5 0 0 1 -15.5,15.5 h-73 a15.5,15.5 0 0 1 -15.5,-15.5 v0 A15.5,15.5 0 0 1 136.54,105.53999999999999"/><g mask="url(#satori_om-id)" clip-path="url(#satori_cp-id)"><path fill="rgba(255,255,255,0.65)" d="M154.2 121.1L154.2 121.1Q153.0 121.1 152.3 120.4Q151.6 119.8 151.6 118.5L151.6 118.5L151.6 118.0L152.7 118.0L152.7 118.5Q152.7 119.3 153.1 119.7Q153.5 120.1 154.2 120.1L154.2 120.1Q154.9 120.1 155.3 119.7Q155.7 119.3 155.7 118.5L155.7 118.5L155.7 112.3L156.8 112.3L156.8 118.5Q156.8 119.8 156.1 120.4Q155.3 121.1 154.2 121.1ZM161.1 121.2L161.1 121.2Q160.5 121.2 160.0 120.9Q159.5 120.7 159.2 120.2Q158.9 119.8 158.9 119.1L158.9 119.1Q158.9 118.6 159.1 118.2Q159.3 117.9 159.7 117.7Q160.1 117.5 160.5 117.4Q161.0 117.3 161.4 117.2L161.4 117.2Q162.0 117.1 162.4 117.1Q162.8 117.1 162.9 117.0Q163.1 116.9 163.1 116.6L163.1 116.6L163.1 116.6Q163.1 116.2 163.0 115.9Q162.8 115.6 162.5 115.4Q162.2 115.3 161.7 115.3L161.7 115.3Q161.3 115.3 160.9 115.4Q160.6 115.6 160.4 115.8Q160.2 116.0 160.1 116.3L160.1 116.3L159.1 115.9Q159.3 115.3 159.7 115.0Q160.2 114.6 160.7 114.5Q161.2 114.4 161.7 114.4L161.7 114.4Q162.0 114.4 162.5 114.4Q162.9 114.5 163.3 114.8Q163.7 115.0 163.9 115.5Q164.2 115.9 164.2 116.7L164.2 116.7L164.2 121L163.1 121L163.1 120.1L163.1 120.1Q162.9 120.3 162.7 120.6Q162.5 120.8 162.1 121.0Q161.7 121.2 161.1 121.2ZM161.3 120.2L161.3 120.2Q161.9 120.2 162.3 120.0Q162.7 119.8 162.9 119.4Q163.1 119.0 163.1 118.6L163.1 118.6L163.1 117.7Q163.0 117.8 162.8 117.9Q162.6 117.9 162.3 118.0Q162.1 118.0 161.8 118.0Q161.5 118.1 161.4 118.1L161.4 118.1Q161.0 118.1 160.7 118.3Q160.3 118.4 160.1 118.6Q159.9 118.8 159.9 119.2L159.9 119.2Q159.9 119.5 160.1 119.8Q160.3 120.0 160.6 120.1Q160.9 120.2 161.3 120.2ZM169.5 121L168.4 121L165.9 114.4L167.1 114.4L168.5 118.3Q168.7 118.9 168.8 119.5L168.8 119.5Q168.9 119.8 169.0 120.0L169.0 120.0Q169.0 119.8 169.1 119.5L169.1 119.5Q169.3 118.9 169.5 118.3L169.5 118.3L170.9 114.4L172.0 114.4L169.5 121ZM175.6 121.2L175.6 121.2Q175.0 121.2 174.5 120.9Q174.0 120.7 173.7 120.2Q173.4 119.8 173.4 119.1L173.4 119.1Q173.4 118.6 173.6 118.2Q173.8 117.9 174.2 117.7Q174.5 117.5 175 117.4Q175.5 117.3 175.9 117.2L175.9 117.2Q176.5 117.1 176.9 117.1Q177.2 117.1 177.4 117.0Q177.6 116.9 177.6 116.6L177.6 116.6L177.6 116.6Q177.6 116.2 177.4 115.9Q177.3 115.6 177.0 115.4Q176.7 115.3 176.2 115.3L176.2 115.3Q175.8 115.3 175.4 115.4Q175.1 115.6 174.9 115.8Q174.7 116.0 174.6 116.3L174.6 116.3L173.5 115.9Q173.8 115.3 174.2 115.0Q174.7 114.6 175.2 114.5Q175.7 114.4 176.2 114.4L176.2 114.4Q176.5 114.4 176.9 114.4Q177.4 114.5 177.7 114.8Q178.1 115.0 178.4 115.5Q178.6 115.9 178.6 116.7L178.6 116.7L178.6 121L177.6 121L177.6 120.1L177.5 120.1Q177.4 120.3 177.2 120.6Q176.9 120.8 176.5 121.0Q176.1 121.2 175.6 121.2ZM175.8 120.2L175.8 120.2Q176.4 120.2 176.8 120.0Q177.2 119.8 177.4 119.4Q177.6 119.0 177.6 118.6L177.6 118.6L177.6 117.7Q177.5 117.8 177.3 117.9Q177.1 117.9 176.8 118.0Q176.5 118.0 176.3 118.0Q176.0 118.1 175.9 118.1L175.9 118.1Q175.5 118.1 175.1 118.3Q174.8 118.4 174.6 118.6Q174.4 118.8 174.4 119.2L174.4 119.2Q174.4 119.5 174.6 119.8Q174.8 120.0 175.1 120.1Q175.4 120.2 175.8 120.2ZM183.9 121.2L183.9 121.2Q183.0 121.2 182.3 120.8Q181.6 120.5 181.2 120.0Q180.8 119.4 180.8 118.7L180.8 118.7L181.9 118.7Q181.9 119.2 182.2 119.5Q182.5 119.8 183.0 120.0Q183.4 120.2 183.9 120.2L183.9 120.2Q184.5 120.2 185.0 120.0Q185.5 119.8 185.7 119.4Q186.0 119.1 186.0 118.6L186.0 118.6Q186.0 118.2 185.8 117.9Q185.5 117.7 185.1 117.5Q184.7 117.3 184.3 117.2L184.3 117.2L183.2 116.9Q182.2 116.6 181.6 116.0Q181.0 115.5 181.0 114.6L181.0 114.6Q181.0 113.9 181.4 113.3Q181.8 112.8 182.5 112.5Q183.2 112.2 184.0 112.2L184.0 112.2Q184.9 112.2 185.5 112.5Q186.2 112.8 186.6 113.3Q186.9 113.8 187.0 114.5L187.0 114.5L185.9 114.5Q185.8 113.8 185.3 113.5Q184.7 113.1 184.0 113.1L184.0 113.1Q183.4 113.1 183.0 113.3Q182.5 113.5 182.3 113.8Q182.1 114.1 182.1 114.6L182.1 114.6Q182.1 115.0 182.4 115.3Q182.6 115.6 183.0 115.7Q183.4 115.9 183.7 116.0L183.7 116.0L184.6 116.2Q185.0 116.3 185.4 116.5Q185.8 116.6 186.2 116.9Q186.6 117.2 186.8 117.6Q187.1 118.0 187.1 118.6L187.1 118.6Q187.1 119.3 186.7 119.9Q186.3 120.5 185.6 120.8Q184.9 121.2 183.9 121.2ZM191.9 121.1L191.9 121.1Q191.0 121.1 190.3 120.7Q189.6 120.3 189.3 119.5Q188.9 118.8 188.9 117.8L188.9 117.8Q188.9 116.7 189.3 116.0Q189.6 115.2 190.3 114.8Q191.0 114.4 191.9 114.4L191.9 114.4Q192.3 114.4 192.8 114.5Q193.2 114.6 193.5 114.8Q193.9 115.1 194.1 115.4Q194.4 115.8 194.5 116.2L194.5 116.2L193.5 116.5Q193.4 116.2 193.3 116.0Q193.1 115.8 192.9 115.6Q192.7 115.5 192.5 115.4Q192.2 115.3 191.9 115.3L191.9 115.3Q191.2 115.3 190.8 115.7Q190.4 116.0 190.2 116.6Q190.0 117.1 190.0 117.8L190.0 117.8Q190.0 118.4 190.2 119.0Q190.4 119.5 190.8 119.9Q191.2 120.2 191.9 120.2L191.9 120.2Q192.2 120.2 192.5 120.1Q192.7 120.0 193.0 119.9Q193.2 119.7 193.3 119.5Q193.5 119.3 193.5 119.0L193.5 119.0L194.5 119.3Q194.4 119.7 194.2 120.1Q193.9 120.4 193.5 120.6Q193.2 120.9 192.8 121.0Q192.3 121.1 191.9 121.1ZM197.6 121L196.6 121L196.6 114.4L197.6 114.4L197.6 115.5L197.6 115.5Q197.8 115.0 198.3 114.7Q198.8 114.4 199.3 114.4L199.3 114.4Q199.5 114.4 199.6 114.4Q199.8 114.4 199.9 114.4L199.9 114.4L199.9 115.4Q199.8 115.4 199.6 115.4Q199.5 115.4 199.2 115.4L199.2 115.4Q198.8 115.4 198.4 115.6Q198.0 115.8 197.8 116.1Q197.6 116.5 197.6 116.9L197.6 116.9L197.6 121ZM202.6 121L201.6 121L201.6 114.4L202.6 114.4L202.6 121ZM202.1 113.4L202.1 113.4Q201.8 113.4 201.6 113.2Q201.4 113.0 201.4 112.7L201.4 112.7Q201.4 112.4 201.6 112.2Q201.8 112.0 202.1 112.0L202.1 112.0Q202.4 112.0 202.6 112.2Q202.8 112.4 202.8 112.7L202.8 112.7Q202.8 113.0 202.6 113.2Q202.4 113.4 202.1 113.4ZM206.0 123.4L205.0 123.4L205.0 114.4L206.0 114.4L206.0 115.5L206.1 115.5Q206.2 115.3 206.4 115.1Q206.6 114.8 207.0 114.6Q207.4 114.4 208.0 114.4L208.0 114.4Q208.8 114.4 209.5 114.8Q210.1 115.2 210.4 115.9Q210.8 116.7 210.8 117.7L210.8 117.7Q210.8 118.8 210.4 119.5Q210.1 120.3 209.5 120.7Q208.8 121.1 208.0 121.1L208.0 121.1Q207.4 121.1 207.0 120.9Q206.6 120.7 206.4 120.4Q206.2 120.2 206.1 120.0L206.1 120.0L206.0 120.0L206.0 123.4ZM207.9 120.2L207.9 120.2Q208.5 120.2 208.9 119.9Q209.3 119.5 209.5 119.0Q209.7 118.4 209.7 117.7L209.7 117.7Q209.7 117.1 209.5 116.5Q209.3 116.0 208.9 115.6Q208.5 115.3 207.9 115.3L207.9 115.3Q207.3 115.3 206.8 115.6Q206.4 115.9 206.2 116.5Q206.0 117.0 206.0 117.7L206.0 117.7Q206.0 118.5 206.2 119.0Q206.4 119.6 206.9 119.9Q207.3 120.2 207.9 120.2ZM214.1 114.4L215.4 114.4L215.4 115.4L214.1 115.4L214.1 119.3Q214.1 119.7 214.2 119.9Q214.4 120.1 214.8 120.1L214.8 120.1Q214.9 120.1 215.1 120.1Q215.2 120.1 215.4 120.1L215.4 120.1L215.6 121.0Q215.4 121.0 215.2 121.1Q215.0 121.1 214.8 121.1L214.8 121.1Q213.9 121.1 213.5 120.6Q213.0 120.2 213.0 119.4L213.0 119.4L213.0 115.4L212.0 115.4L212.0 114.4L213.0 114.4L213.0 112.9L214.1 112.9L214.1 114.4Z "/></g><defs><clipPath id="satori_bc-id-2-1" clip-path="url(#satori_cp-id)"><path x="246" y="101" width="106" height="31" d="M261.5,101 h75 a15.5,15.5 0 0 1 15.5,15.5 v0 a15.5,15.5 0 0 1 -15.5,15.5 h-75 a15.5,15.5 0 0 1 -15.5,-15.5 v0 a15.5,15.5 0 0 1 15.5,-15.5"/></clipPath></defs><mask id="satori_om-id-2-1"><rect x="247" y="102" width="104" height="29" fill="#fff" mask="url(#satori_om-id)"/><path width="106" height="31" fill="none" stroke="#000" stroke-width="2" d="M250.54,105.53999999999999 A15.5,15.5 0 0 1 261.5,101 h75 a15.5,15.5 0 0 1 15.5,15.5 v0 a15.5,15.5 0 0 1 -15.5,15.5 h-75 a15.5,15.5 0 0 1 -15.5,-15.5 v0 A15.5,15.5 0 0 1 250.54,105.53999999999999"/></mask><path x="246" y="101" width="106" height="31" fill="rgba(255,255,255,0.04)" d="M261.5,101 h75 a15.5,15.5 0 0 1 15.5,15.5 v0 a15.5,15.5 0 0 1 -15.5,15.5 h-75 a15.5,15.5 0 0 1 -15.5,-15.5 v0 a15.5,15.5 0 0 1 15.5,-15.5" clip-path="url(#satori_cp-id)" mask="url(#satori_om-id)"/><path width="106" height="31" clip-path="url(#satori_bc-id-2-1)" fill="none" stroke="rgba(255,255,255,0.08)" stroke-width="2" d="M250.54,105.53999999999999 A15.5,15.5 0 0 1 261.5,101 h75 a15.5,15.5 0 0 1 15.5,15.5 v0 a15.5,15.5 0 0 1 -15.5,15.5 h-75 a15.5,15.5 0 0 1 -15.5,-15.5 v0 A15.5,15.5 0 0 1 250.54,105.53999999999999"/><g mask="url(#satori_om-id)" clip-path="url(#satori_cp-id)"><path fill="rgba(255,255,255,0.65)" d="M268.3 113.3L265.6 113.3L265.6 112.3L272.2 112.3L272.2 113.3L269.4 113.3L269.4 121L268.3 121L268.3 113.3ZM274.1 123.4L274.1 123.4L274.3 122.5L274.4 122.5Q274.8 122.6 275.0 122.5Q275.3 122.5 275.5 122.3Q275.7 122.0 275.9 121.6L275.9 121.6L276.1 121.0L273.6 114.4L274.7 114.4L276.1 118.3Q276.3 118.9 276.5 119.5L276.5 119.5Q276.6 119.8 276.6 120.0L276.6 120.0Q276.7 119.8 276.8 119.5L276.8 119.5Q276.9 118.9 277.1 118.3L277.1 118.3L278.5 114.4L279.7 114.4L276.8 122.0Q276.6 122.5 276.3 122.8Q276.0 123.2 275.7 123.3Q275.3 123.5 274.8 123.5L274.8 123.5Q274.6 123.5 274.4 123.5Q274.1 123.4 274.1 123.4ZM282.5 123.4L281.4 123.4L281.4 114.4L282.4 114.4L282.4 115.5L282.6 115.5Q282.7 115.3 282.9 115.1Q283.1 114.8 283.4 114.6Q283.8 114.4 284.5 114.4L284.5 114.4Q285.3 114.4 285.9 114.8Q286.5 115.2 286.9 115.9Q287.2 116.7 287.2 117.7L287.2 117.7Q287.2 118.8 286.9 119.5Q286.5 120.3 285.9 120.7Q285.3 121.1 284.5 121.1L284.5 121.1Q283.8 121.1 283.5 120.9Q283.1 120.7 282.9 120.4Q282.7 120.2 282.6 120.0L282.6 120.0L282.5 120.0L282.5 123.4ZM284.3 120.2L284.3 120.2Q284.9 120.2 285.3 119.9Q285.7 119.5 285.9 119.0Q286.2 118.4 286.2 117.7L286.2 117.7Q286.2 117.1 286.0 116.5Q285.7 116.0 285.3 115.6Q284.9 115.3 284.3 115.3L284.3 115.3Q283.7 115.3 283.3 115.6Q282.9 115.9 282.7 116.5Q282.5 117.0 282.5 117.7L282.5 117.7Q282.5 118.5 282.7 119.0Q282.9 119.6 283.3 119.9Q283.7 120.2 284.3 120.2ZM292.0 121.1L292.0 121.1Q291.1 121.1 290.4 120.7Q289.7 120.3 289.3 119.5Q288.9 118.8 288.9 117.8Q288.9 116.8 289.3 116.0Q289.7 115.2 290.3 114.8Q291.0 114.4 291.9 114.4L291.9 114.4Q292.4 114.4 292.9 114.5Q293.4 114.7 293.8 115.1Q294.3 115.5 294.5 116.1Q294.7 116.7 294.7 117.6L294.7 117.6L294.7 118.1L290.0 118.1Q290.0 118.7 290.3 119.2L290.3 119.2Q290.5 119.7 291.0 119.9Q291.4 120.2 292.0 120.2L292.0 120.2Q292.4 120.2 292.7 120.1Q293.0 120.0 293.3 119.8Q293.5 119.5 293.6 119.2L293.6 119.2L294.6 119.5Q294.5 120.0 294.1 120.3Q293.8 120.7 293.2 120.9Q292.7 121.1 292.0 121.1ZM290.0 117.2L290.0 117.2L293.7 117.2Q293.6 116.7 293.5 116.4L293.5 116.4Q293.3 115.9 292.9 115.6Q292.5 115.3 291.9 115.3Q291.3 115.3 290.9 115.6Q290.5 115.9 290.2 116.3L290.2 116.3Q290.0 116.7 290.0 117.2ZM299.7 121.2L299.7 121.2Q298.7 121.2 298.0 120.8Q297.4 120.5 297.0 120.0Q296.6 119.4 296.5 118.7L296.5 118.7L297.7 118.7Q297.7 119.2 298.0 119.5Q298.3 119.8 298.7 120.0Q299.2 120.2 299.7 120.2L299.7 120.2Q300.3 120.2 300.7 120.0Q301.2 119.8 301.5 119.4Q301.8 119.1 301.8 118.6L301.8 118.6Q301.8 118.2 301.5 117.9Q301.3 117.7 300.9 117.5Q300.5 117.3 300.0 117.2L300.0 117.2L299.0 116.9Q297.9 116.6 297.3 116.0Q296.8 115.5 296.8 114.6L296.8 114.6Q296.8 113.9 297.2 113.3Q297.6 112.8 298.2 112.5Q298.9 112.2 299.8 112.2L299.8 112.2Q300.6 112.2 301.3 112.5Q301.9 112.8 302.3 113.3Q302.7 113.8 302.7 114.5L302.7 114.5L301.6 114.5Q301.6 113.8 301.0 113.5Q300.5 113.1 299.7 113.1L299.7 113.1Q299.2 113.1 298.7 113.3Q298.3 113.5 298.1 113.8Q297.8 114.1 297.8 114.6L297.8 114.6Q297.8 115.0 298.1 115.3Q298.4 115.6 298.8 115.7Q299.2 115.9 299.5 116.0L299.5 116.0L300.4 116.2Q300.7 116.3 301.2 116.5Q301.6 116.6 302.0 116.9Q302.4 117.2 302.6 117.6Q302.9 118.0 302.9 118.6L302.9 118.6Q302.9 119.3 302.5 119.9Q302.1 120.5 301.4 120.8Q300.7 121.2 299.7 121.2ZM307.6 121.1L307.6 121.1Q306.7 121.1 306.1 120.7Q305.4 120.3 305.0 119.5Q304.6 118.8 304.6 117.8L304.6 117.8Q304.6 116.7 305.0 116.0Q305.4 115.2 306.1 114.8Q306.7 114.4 307.6 114.4L307.6 114.4Q308.1 114.4 308.5 114.5Q308.9 114.6 309.3 114.8Q309.6 115.1 309.9 115.4Q310.1 115.8 310.3 116.2L310.3 116.2L309.3 116.5Q309.2 116.2 309.0 116.0Q308.9 115.8 308.7 115.6Q308.5 115.5 308.2 115.4Q307.9 115.3 307.6 115.3L307.6 115.3Q307.0 115.3 306.5 115.7Q306.1 116.0 305.9 116.6Q305.7 117.1 305.7 117.8L305.7 117.8Q305.7 118.4 305.9 119.0Q306.1 119.5 306.5 119.9Q307.0 120.2 307.6 120.2L307.6 120.2Q308.0 120.2 308.2 120.1Q308.5 120.0 308.7 119.9Q308.9 119.7 309.1 119.5Q309.2 119.3 309.3 119.0L309.3 119.0L310.3 119.3Q310.2 119.7 309.9 120.1Q309.7 120.4 309.3 120.6Q309.0 120.9 308.5 121.0Q308.1 121.1 307.6 121.1ZM313.4 121L312.3 121L312.3 114.4L313.3 114.4L313.3 115.5L313.4 115.5Q313.6 115.0 314.1 114.7Q314.5 114.4 315.1 114.4L315.1 114.4Q315.2 114.4 315.4 114.4Q315.5 114.4 315.6 114.4L315.6 114.4L315.6 115.4Q315.6 115.4 315.4 115.4Q315.2 115.4 315.0 115.4L315.0 115.4Q314.5 115.4 314.2 115.6Q313.8 115.8 313.6 116.1Q313.4 116.5 313.4 116.9L313.4 116.9L313.4 121ZM318.4 121L317.3 121L317.3 114.4L318.4 114.4L318.4 121ZM317.9 113.4L317.9 113.4Q317.6 113.4 317.3 113.2Q317.1 113.0 317.1 112.7L317.1 112.7Q317.1 112.4 317.3 112.2Q317.6 112.0 317.9 112.0L317.9 112.0Q318.2 112.0 318.4 112.2Q318.6 112.4 318.6 112.7L318.6 112.7Q318.6 113.0 318.4 113.2Q318.2 113.4 317.9 113.4ZM321.8 123.4L320.7 123.4L320.7 114.4L321.8 114.4L321.8 115.5L321.9 115.5Q322.0 115.3 322.2 115.1Q322.4 114.8 322.8 114.6Q323.1 114.4 323.8 114.4L323.8 114.4Q324.6 114.4 325.2 114.8Q325.8 115.2 326.2 115.9Q326.6 116.7 326.6 117.7L326.6 117.7Q326.6 118.8 326.2 119.5Q325.8 120.3 325.2 120.7Q324.6 121.1 323.8 121.1L323.8 121.1Q323.2 121.1 322.8 120.9Q322.4 120.7 322.2 120.4Q322.0 120.2 321.9 120.0L321.9 120.0L321.8 120.0L321.8 123.4ZM323.6 120.2L323.6 120.2Q324.2 120.2 324.6 119.9Q325.1 119.5 325.3 119.0Q325.5 118.4 325.5 117.7L325.5 117.7Q325.5 117.1 325.3 116.5Q325.1 116.0 324.7 115.6Q324.2 115.3 323.6 115.3L323.6 115.3Q323.0 115.3 322.6 115.6Q322.2 115.9 322.0 116.5Q321.8 117.0 321.8 117.7L321.8 117.7Q321.8 118.5 322.0 119.0Q322.2 119.6 322.6 119.9Q323.0 120.2 323.6 120.2ZM329.8 114.4L331.2 114.4L331.2 115.4L329.8 115.4L329.8 119.3Q329.8 119.7 330.0 119.9Q330.2 120.1 330.6 120.1L330.6 120.1Q330.7 120.1 330.8 120.1Q331 120.1 331.1 120.1L331.1 120.1L331.3 121.0Q331.2 121.0 331.0 121.1Q330.8 121.1 330.6 121.1L330.6 121.1Q329.7 121.1 329.2 120.6Q328.8 120.2 328.8 119.4L328.8 119.4L328.8 115.4L327.8 115.4L327.8 114.4L328.8 114.4L328.8 112.9L329.8 112.9L329.8 114.4Z "/></g><defs><clipPath id="satori_bc-id-2-2" clip-path="url(#satori_cp-id)"><path x="362" y="101" width="64" height="31" d="M377.5,101 h33 a15.5,15.5 0 0 1 15.5,15.5 v0 a15.5,15.5 0 0 1 -15.5,15.5 h-33 a15.5,15.5 0 0 1 -15.5,-15.5 v0 a15.5,15.5 0 0 1 15.5,-15.5"/></clipPath></defs><mask id="satori_om-id-2-2"><rect x="363" y="102" width="62" height="29" fill="#fff" mask="url(#satori_om-id)"/><path width="64" height="31" fill="none" stroke="#000" stroke-width="2" d="M366.54,105.53999999999999 A15.5,15.5 0 0 1 377.5,101 h33 a15.5,15.5 0 0 1 15.5,15.5 v0 a15.5,15.5 0 0 1 -15.5,15.5 h-33 a15.5,15.5 0 0 1 -15.5,-15.5 v0 A15.5,15.5 0 0 1 366.54,105.53999999999999"/></mask><path x="362" y="101" width="64" height="31" fill="rgba(255,255,255,0.04)" d="M377.5,101 h33 a15.5,15.5 0 0 1 15.5,15.5 v0 a15.5,15.5 0 0 1 -15.5,15.5 h-33 a15.5,15.5 0 0 1 -15.5,-15.5 v0 a15.5,15.5 0 0 1 15.5,-15.5" clip-path="url(#satori_cp-id)" mask="url(#satori_om-id)"/><path width="64" height="31" clip-path="url(#satori_bc-id-2-2)" fill="none" stroke="rgba(255,255,255,0.08)" stroke-width="2" d="M366.54,105.53999999999999 A15.5,15.5 0 0 1 377.5,101 h33 a15.5,15.5 0 0 1 15.5,15.5 v0 a15.5,15.5 0 0 1 -15.5,15.5 h-33 a15.5,15.5 0 0 1 -15.5,-15.5 v0 A15.5,15.5 0 0 1 366.54,105.53999999999999"/><g mask="url(#satori_om-id)" clip-path="url(#satori_cp-id)"><path fill="rgba(255,255,255,0.65)" d="M383.2 121L382.1 121L382.1 112.3L385.0 112.3Q386.1 112.3 386.7 112.6Q387.4 113.0 387.7 113.6Q388.0 114.3 388.0 115.0Q388.0 115.8 387.7 116.5Q387.4 117.1 386.7 117.5Q386.1 117.8 385.0 117.8L385.0 117.8L383.2 117.8L383.2 121ZM383.2 113.2L383.2 116.9L385.0 116.9Q385.7 116.9 386.1 116.6Q386.5 116.4 386.7 116.0Q386.9 115.6 386.9 115.0Q386.9 114.5 386.7 114.1Q386.5 113.7 386.1 113.5Q385.7 113.2 385.0 113.2L385.0 113.2L383.2 113.2ZM391.3 121L390.2 121L390.2 112.3L391.3 112.3L391.3 116.0L395.9 116.0L395.9 112.3L397.0 112.3L397.0 121L395.9 121L395.9 117.0L391.3 117.0L391.3 121ZM400.8 121L399.6 121L399.6 112.3L402.6 112.3Q403.6 112.3 404.3 112.6Q405.0 113.0 405.3 113.6Q405.6 114.3 405.6 115.0Q405.6 115.8 405.3 116.5Q405.0 117.1 404.3 117.5Q403.7 117.8 402.6 117.8L402.6 117.8L400.8 117.8L400.8 121ZM400.8 113.2L400.8 116.9L402.6 116.9Q403.3 116.9 403.7 116.6Q404.1 116.4 404.3 116.0Q404.5 115.6 404.5 115.0Q404.5 114.5 404.3 114.1Q404.1 113.7 403.7 113.5Q403.3 113.2 402.6 113.2L402.6 113.2L400.8 113.2Z "/></g><defs><clipPath id="satori_bc-id-2-3" clip-path="url(#satori_cp-id)"><path x="436" y="101" width="73" height="31" d="M451.5,101 h42 a15.5,15.5 0 0 1 15.5,15.5 v0 a15.5,15.5 0 0 1 -15.5,15.5 h-42 a15.5,15.5 0 0 1 -15.5,-15.5 v0 a15.5,15.5 0 0 1 15.5,-15.5"/></clipPath></defs><mask id="satori_om-id-2-3"><rect x="437" y="102" width="71" height="29" fill="#fff" mask="url(#satori_om-id)"/><path width="73" height="31" fill="none" stroke="#000" stroke-width="2" d="M440.54,105.53999999999999 A15.5,15.5 0 0 1 451.5,101 h42 a15.5,15.5 0 0 1 15.5,15.5 v0 a15.5,15.5 0 0 1 -15.5,15.5 h-42 a15.5,15.5 0 0 1 -15.5,-15.5 v0 A15.5,15.5 0 0 1 440.54,105.53999999999999"/></mask><path x="436" y="101" width="73" height="31" fill="rgba(255,255,255,0.04)" d="M451.5,101 h42 a15.5,15.5 0 0 1 15.5,15.5 v0 a15.5,15.5 0 0 1 -15.5,15.5 h-42 a15.5,15.5 0 0 1 -15.5,-15.5 v0 a15.5,15.5 0 0 1 15.5,-15.5" clip-path="url(#satori_cp-id)" mask="url(#satori_om-id)"/><path width="73" height="31" clip-path="url(#satori_bc-id-2-3)" fill="none" stroke="rgba(255,255,255,0.08)" stroke-width="2" d="M440.54,105.53999999999999 A15.5,15.5 0 0 1 451.5,101 h42 a15.5,15.5 0 0 1 15.5,15.5 v0 a15.5,15.5 0 0 1 -15.5,15.5 h-42 a15.5,15.5 0 0 1 -15.5,-15.5 v0 A15.5,15.5 0 0 1 440.54,105.53999999999999"/><g mask="url(#satori_om-id)" clip-path="url(#satori_cp-id)"><path fill="rgba(255,255,255,0.65)" d="M459.2 121L456.1 121L456.1 112.3L459.1 112.3Q460.1 112.3 460.7 112.6Q461.3 112.9 461.5 113.4Q461.8 113.9 461.8 114.6L461.8 114.6Q461.8 115.1 461.6 115.5Q461.4 115.9 461.1 116.1Q460.8 116.3 460.4 116.4L460.4 116.4L460.4 116.5Q460.8 116.5 461.2 116.8Q461.6 117.0 461.9 117.5Q462.2 118.0 462.2 118.7L462.2 118.7Q462.2 119.3 461.9 119.9Q461.6 120.4 460.9 120.7Q460.3 121 459.2 121L459.2 121ZM457.2 117.0L457.2 120.0L459.2 120.0Q460.2 120.0 460.7 119.6Q461.1 119.2 461.1 118.7L461.1 118.7Q461.1 118.2 460.9 117.9Q460.7 117.5 460.2 117.3Q459.8 117.0 459.3 117.0L459.3 117.0L457.2 117.0ZM457.2 113.3L457.2 116.1L459.1 116.1Q459.6 116.1 459.9 115.9Q460.3 115.7 460.5 115.4Q460.8 115.1 460.8 114.6L460.8 114.6Q460.8 114.0 460.4 113.6Q460.0 113.3 459.1 113.3L459.1 113.3L457.2 113.3ZM464.3 112.3L465.3 112.3L465.3 121L464.3 121L464.3 112.3ZM469.5 121.2L469.5 121.2Q468.9 121.2 468.4 120.9Q467.9 120.7 467.6 120.2Q467.3 119.8 467.3 119.1L467.3 119.1Q467.3 118.6 467.5 118.2Q467.7 117.9 468.1 117.7Q468.5 117.5 468.9 117.4Q469.4 117.3 469.8 117.2L469.8 117.2Q470.4 117.1 470.8 117.1Q471.2 117.1 471.3 117.0Q471.5 116.9 471.5 116.6L471.5 116.6L471.5 116.6Q471.5 116.2 471.4 115.9Q471.2 115.6 470.9 115.4Q470.6 115.3 470.1 115.3L470.1 115.3Q469.7 115.3 469.3 115.4Q469.0 115.6 468.8 115.8Q468.6 116.0 468.5 116.3L468.5 116.3L467.5 115.9Q467.7 115.3 468.2 115.0Q468.6 114.6 469.1 114.5Q469.6 114.4 470.1 114.4L470.1 114.4Q470.4 114.4 470.9 114.4Q471.3 114.5 471.7 114.8Q472.1 115.0 472.3 115.5Q472.6 115.9 472.6 116.7L472.6 116.7L472.6 121L471.5 121L471.5 120.1L471.5 120.1Q471.4 120.3 471.1 120.6Q470.9 120.8 470.5 121.0Q470.1 121.2 469.5 121.2ZM469.7 120.2L469.7 120.2Q470.3 120.2 470.7 120.0Q471.1 119.8 471.3 119.4Q471.5 119.0 471.5 118.6L471.5 118.6L471.5 117.7Q471.5 117.8 471.2 117.9Q471.0 117.9 470.7 118.0Q470.5 118.0 470.2 118.0Q469.9 118.1 469.8 118.1L469.8 118.1Q469.4 118.1 469.1 118.3Q468.7 118.4 468.5 118.6Q468.3 118.8 468.3 119.2L468.3 119.2Q468.3 119.5 468.5 119.8Q468.7 120.0 469.0 120.1Q469.3 120.2 469.7 120.2ZM477.4 121.1L477.4 121.1Q476.6 121.1 475.9 120.7Q475.3 120.3 475.0 119.5Q474.6 118.8 474.6 117.7L474.6 117.7Q474.6 116.7 475.0 115.9Q475.3 115.2 475.9 114.8Q476.6 114.4 477.4 114.4L477.4 114.4Q478.0 114.4 478.4 114.6Q478.8 114.8 479.0 115.1Q479.2 115.3 479.3 115.5L479.3 115.5L479.4 115.5L479.4 112.3L480.4 112.3L480.4 121L479.4 121L479.4 120.0L479.3 120.0Q479.2 120.2 479.0 120.4Q478.8 120.7 478.4 120.9Q478.0 121.1 477.4 121.1ZM477.5 120.2L477.5 120.2Q478.1 120.2 478.5 119.9Q479.0 119.6 479.2 119.0Q479.4 118.5 479.4 117.7L479.4 117.7Q479.4 117.0 479.2 116.5Q479.0 115.9 478.5 115.6Q478.1 115.3 477.5 115.3L477.5 115.3Q476.9 115.3 476.5 115.6Q476.1 116.0 475.9 116.5Q475.7 117.1 475.7 117.7L475.7 117.7Q475.7 118.4 475.9 119.0Q476.1 119.5 476.5 119.9Q476.9 120.2 477.5 120.2ZM485.5 121.1L485.5 121.1Q484.6 121.1 483.9 120.7Q483.2 120.3 482.8 119.5Q482.5 118.8 482.5 117.8Q482.5 116.8 482.8 116.0Q483.2 115.2 483.8 114.8Q484.5 114.4 485.4 114.4L485.4 114.4Q485.9 114.4 486.4 114.5Q486.9 114.7 487.3 115.1Q487.8 115.5 488.0 116.1Q488.3 116.7 488.3 117.6L488.3 117.6L488.3 118.1L483.5 118.1Q483.5 118.7 483.8 119.2L483.8 119.2Q484.0 119.7 484.5 119.9Q484.9 120.2 485.5 120.2L485.5 120.2Q485.9 120.2 486.2 120.1Q486.5 120.0 486.8 119.8Q487.0 119.5 487.1 119.2L487.1 119.2L488.1 119.5Q488.0 120.0 487.6 120.3Q487.3 120.7 486.7 120.9Q486.2 121.1 485.5 121.1ZM483.5 117.2L483.5 117.2L487.2 117.2Q487.1 116.7 487.0 116.4L487.0 116.4Q486.8 115.9 486.4 115.6Q486.0 115.3 485.4 115.3Q484.8 115.3 484.4 115.6Q484.0 115.9 483.7 116.3L483.7 116.3Q483.6 116.7 483.5 117.2Z "/></g><defs><clipPath id="satori_bc-id-2-4" clip-path="url(#satori_cp-id)"><path x="519" y="101" width="64" height="31" d="M534.5,101 h33 a15.5,15.5 0 0 1 15.5,15.5 v0 a15.5,15.5 0 0 1 -15.5,15.5 h-33 a15.5,15.5 0 0 1 -15.5,-15.5 v0 a15.5,15.5 0 0 1 15.5,-15.5"/></clipPath></defs><mask id="satori_om-id-2-4"><rect x="520" y="102" width="62" height="29" fill="#fff" mask="url(#satori_om-id)"/><path width="64" height="31" fill="none" stroke="#000" stroke-width="2" d="M523.54,105.53999999999999 A15.5,15.5 0 0 1 534.5,101 h33 a15.5,15.5 0 0 1 15.5,15.5 v0 a15.5,15.5 0 0 1 -15.5,15.5 h-33 a15.5,15.5 0 0 1 -15.5,-15.5 v0 A15.5,15.5 0 0 1 523.54,105.53999999999999"/></mask><path x="519" y="101" width="64" height="31" fill="rgba(255,255,255,0.04)" d="M534.5,101 h33 a15.5,15.5 0 0 1 15.5,15.5 v0 a15.5,15.5 0 0 1 -15.5,15.5 h-33 a15.5,15.5 0 0 1 -15.5,-15.5 v0 a15.5,15.5 0 0 1 15.5,-15.5" clip-path="url(#satori_cp-id)" mask="url(#satori_om-id)"/><path width="64" height="31" clip-path="url(#satori_bc-id-2-4)" fill="none" stroke="rgba(255,255,255,0.08)" stroke-width="2" d="M523.54,105.53999999999999 A15.5,15.5 0 0 1 534.5,101 h33 a15.5,15.5 0 0 1 15.5,15.5 v0 a15.5,15.5 0 0 1 -15.5,15.5 h-33 a15.5,15.5 0 0 1 -15.5,-15.5 v0 A15.5,15.5 0 0 1 523.54,105.53999999999999"/><g mask="url(#satori_om-id)" clip-path="url(#satori_cp-id)"><path fill="rgba(255,255,255,0.65)" d="M542.6 121.1L542.6 121.1Q541.5 121.1 540.6 120.6Q539.7 120.0 539.2 119.0Q538.7 118.0 538.7 116.6L538.7 116.6Q538.7 115.3 539.2 114.2Q539.7 113.2 540.6 112.7Q541.5 112.2 542.6 112.2L542.6 112.2Q543.3 112.2 543.8 112.3Q544.4 112.5 544.9 112.9Q545.4 113.3 545.7 113.8Q546.0 114.3 546.1 115.0L546.1 115.0L545.0 115.0Q544.9 114.6 544.7 114.2Q544.5 113.9 544.1 113.7Q543.8 113.4 543.4 113.3Q543.0 113.2 542.6 113.2L542.6 113.2Q541.8 113.2 541.2 113.6Q540.5 114.0 540.2 114.8Q539.8 115.5 539.8 116.6L539.8 116.6Q539.8 117.8 540.2 118.5Q540.5 119.3 541.2 119.7Q541.8 120.1 542.6 120.1L542.6 120.1Q543.0 120.1 543.4 120.0Q543.8 119.8 544.1 119.6Q544.5 119.4 544.7 119.0Q544.9 118.7 545.0 118.3L545.0 118.3L546.1 118.3Q546.0 118.9 545.7 119.4Q545.4 120.0 544.9 120.3Q544.4 120.7 543.8 120.9Q543.3 121.1 542.6 121.1ZM551.1 121.2L551.1 121.2Q550.2 121.2 549.5 120.8Q548.8 120.5 548.4 120.0Q548.0 119.4 547.9 118.7L547.9 118.7L549.1 118.7Q549.1 119.2 549.4 119.5Q549.7 119.8 550.2 120.0Q550.6 120.2 551.1 120.2L551.1 120.2Q551.7 120.2 552.2 120.0Q552.7 119.8 552.9 119.4Q553.2 119.1 553.2 118.6L553.2 118.6Q553.2 118.2 553.0 117.9Q552.7 117.7 552.3 117.5Q551.9 117.3 551.5 117.2L551.5 117.2L550.4 116.9Q549.4 116.6 548.8 116.0Q548.2 115.5 548.2 114.6L548.2 114.6Q548.2 113.9 548.6 113.3Q549.0 112.8 549.7 112.5Q550.3 112.2 551.2 112.2L551.2 112.2Q552.1 112.2 552.7 112.5Q553.4 112.8 553.8 113.3Q554.1 113.8 554.2 114.5L554.2 114.5L553.1 114.5Q553.0 113.8 552.5 113.5Q551.9 113.1 551.2 113.1L551.2 113.1Q550.6 113.1 550.2 113.3Q549.7 113.5 549.5 113.8Q549.3 114.1 549.3 114.6L549.3 114.6Q549.3 115.0 549.6 115.3Q549.8 115.6 550.2 115.7Q550.6 115.9 550.9 116.0L550.9 116.0L551.8 116.2Q552.2 116.3 552.6 116.5Q553.0 116.6 553.4 116.9Q553.8 117.2 554.0 117.6Q554.3 118.0 554.3 118.6L554.3 118.6Q554.3 119.3 553.9 119.9Q553.5 120.5 552.8 120.8Q552.1 121.2 551.1 121.2ZM559.3 121.2L559.3 121.2Q558.4 121.2 557.7 120.8Q557.0 120.5 556.6 120.0Q556.2 119.4 556.1 118.7L556.1 118.7L557.3 118.7Q557.3 119.2 557.6 119.5Q557.9 119.8 558.4 120.0Q558.8 120.2 559.3 120.2L559.3 120.2Q559.9 120.2 560.4 120.0Q560.8 119.8 561.1 119.4Q561.4 119.1 561.4 118.6L561.4 118.6Q561.4 118.2 561.2 117.9Q560.9 117.7 560.5 117.5Q560.1 117.3 559.7 117.2L559.7 117.2L558.6 116.9Q557.6 116.6 557.0 116.0Q556.4 115.5 556.4 114.6L556.4 114.6Q556.4 113.9 556.8 113.3Q557.2 112.8 557.9 112.5Q558.5 112.2 559.4 112.2L559.4 112.2Q560.3 112.2 560.9 112.5Q561.6 112.8 562.0 113.3Q562.3 113.8 562.4 114.5L562.4 114.5L561.3 114.5Q561.2 113.8 560.7 113.5Q560.1 113.1 559.4 113.1L559.4 113.1Q558.8 113.1 558.4 113.3Q557.9 113.5 557.7 113.8Q557.5 114.1 557.5 114.6L557.5 114.6Q557.5 115.0 557.8 115.3Q558.0 115.6 558.4 115.7Q558.8 115.9 559.1 116.0L559.1 116.0L560.0 116.2Q560.4 116.3 560.8 116.5Q561.2 116.6 561.6 116.9Q562.0 117.2 562.2 117.6Q562.5 118.0 562.5 118.6L562.5 118.6Q562.5 119.3 562.1 119.9Q561.7 120.5 561.0 120.8Q560.3 121.2 559.3 121.2Z "/></g><defs><clipPath id="satori_bc-id-2-5" clip-path="url(#satori_cp-id)"><path x="593" y="101" width="75" height="31" d="M608.5,101 h44 a15.5,15.5 0 0 1 15.5,15.5 v0 a15.5,15.5 0 0 1 -15.5,15.5 h-44 a15.5,15.5 0 0 1 -15.5,-15.5 v0 a15.5,15.5 0 0 1 15.5,-15.5"/></clipPath></defs><mask id="satori_om-id-2-5"><rect x="594" y="102" width="73" height="29" fill="#fff" mask="url(#satori_om-id)"/><path width="75" height="31" fill="none" stroke="#000" stroke-width="2" d="M597.54,105.53999999999999 A15.5,15.5 0 0 1 608.5,101 h44 a15.5,15.5 0 0 1 15.5,15.5 v0 a15.5,15.5 0 0 1 -15.5,15.5 h-44 a15.5,15.5 0 0 1 -15.5,-15.5 v0 A15.5,15.5 0 0 1 597.54,105.53999999999999"/></mask><path x="593" y="101" width="75" height="31" fill="rgba(255,255,255,0.04)" d="M608.5,101 h44 a15.5,15.5 0 0 1 15.5,15.5 v0 a15.5,15.5 0 0 1 -15.5,15.5 h-44 a15.5,15.5 0 0 1 -15.5,-15.5 v0 a15.5,15.5 0 0 1 15.5,-15.5" clip-path="url(#satori_cp-id)" mask="url(#satori_om-id)"/><path width="75" height="31" clip-path="url(#satori_bc-id-2-5)" fill="none" stroke="rgba(255,255,255,0.08)" stroke-width="2" d="M597.54,105.53999999999999 A15.5,15.5 0 0 1 608.5,101 h44 a15.5,15.5 0 0 1 15.5,15.5 v0 a15.5,15.5 0 0 1 -15.5,15.5 h-44 a15.5,15.5 0 0 1 -15.5,-15.5 v0 A15.5,15.5 0 0 1 597.54,105.53999999999999"/><g mask="url(#satori_om-id)" clip-path="url(#satori_cp-id)"><path fill="rgba(255,255,255,0.65)" d="M614.2 121L613.1 121L613.1 112.3L614.2 112.3L614.2 116.0L618.8 116.0L618.8 112.3L619.9 112.3L619.9 121L618.8 121L618.8 117.0L614.2 117.0L614.2 121ZM624.7 113.3L622.0 113.3L622.0 112.3L628.6 112.3L628.6 113.3L625.9 113.3L625.9 121L624.7 121L624.7 113.3ZM631.8 121L630.7 121L630.7 112.3L632.3 112.3L634.5 117.8Q634.5 118.0 634.6 118.3Q634.7 118.6 634.8 118.9Q634.9 119.2 635.0 119.6L635.0 119.6Q635.1 119.7 635.1 119.8L635.1 119.8Q635.1 119.7 635.1 119.6L635.1 119.6Q635.2 119.3 635.4 118.9Q635.5 118.6 635.6 118.3Q635.7 118.0 635.7 117.8L635.7 117.8L637.9 112.3L639.4 112.3L639.4 121L638.4 121L638.4 116.0Q638.4 115.7 638.4 115.4Q638.4 115.1 638.4 114.7Q638.4 114.3 638.4 113.9L638.4 113.9Q638.4 113.7 638.4 113.5L638.4 113.5Q638.3 113.7 638.2 114.0L638.2 114.0Q638.1 114.4 638.0 114.8Q637.8 115.2 637.7 115.5Q637.6 115.8 637.5 116.0L637.5 116.0L635.6 121L634.6 121L632.6 116.0Q632.5 115.8 632.4 115.5Q632.3 115.2 632.2 114.8Q632.0 114.4 631.9 114.0L631.9 114.0Q631.8 113.7 631.7 113.5L631.7 113.5Q631.7 113.7 631.8 113.8L631.8 113.8Q631.8 114.2 631.8 114.6Q631.8 115.0 631.8 115.4Q631.8 115.7 631.8 116.0L631.8 116.0L631.8 121ZM647.2 121L642.1 121L642.1 112.3L643.2 112.3L643.2 120.0L647.2 120.0L647.2 121Z "/></g></svg>