<!-- Generated by readme-aura https://github.com/collectioneur/readme-aura -->
<svg width="860" height="260" viewBox="0 0 860 260" xmlns="http://www.w3.org/2000/svg"><defs><clipPath id="satori_bc-id"><path x="0" y="0" width="860" height="260" d="M24,0 h812 a24,24 0 0 1 24,24 v212 a24,24 0 0 1 -24,24 h-812 a24,24 0 0 1 -24,-24 v-212 a24,24 0 0 1 24,-24"/></clipPath></defs><clipPath id="satori_cp-id"><path x="0" y="0" width="860" height="260" d="M24,0 h812 a24,24 0 0 1 24,24 v212 a24,24 0 0 1 -24,24 h-812 a24,24 0 0 1 -24,-24 v-212 a24,24 0 0 1 24,-24"/></clipPath><mask id="satori_om-id"><rect x="1" y="1" width="858" height="258" fill="#fff"/><path width="860" height="260" fill="none" stroke="#000" stroke-width="2" d="M7.029,7.029 A24,24 0 0 1 24,0 h812 a24,24 0 0 1 24,24 v212 a24,24 0 0 1 -24,24 h-812 a24,24 0 0 1 -24,-24 v-212 A24,24 0 0 1 7.029,7.029"/></mask><path x="0" y="0" width="860" height="260" fill="#040405" d="M24,0 h812 a24,24 0 0 1 24,24 v212 a24,24 0 0 1 -24,24 h-812 a24,24 0 0 1 -24,-24 v-212 a24,24 0 0 1 24,-24"/><path width="860" height="260" clip-path="url(#satori_bc-id)" fill="none" stroke="rgba(255,255,255,0.08)" stroke-width="2" d="M7.029,7.029 A24,24 0 0 1 24,0 h812 a24,24 0 0 1 24,24 v212 a24,24 0 0 1 -24,24 h-812 a24,24 0 0 1 -24,-24 v-212 A24,24 0 0 1 7.029,7.029"/><clipPath id="satori_cp-id-0" clip-path="url(#satori_cp-id)"><rect x="1" y="1" width="860" height="260"/></clipPath><mask id="satori_om-id-0"><rect x="1" y="1" width="860" height="260" fill="#fff" mask="url(#satori_om-id)"/></mask><g opacity="0.8"><svg x="1" y="1" width="860" height="260" preserveAspectRatio="none" clip-path="url(#satori_cp-id-0)" mask="url(#satori_om-id-0)"><defs><radialGradient id="stack-cyan" cx="50%" cy="50%" r="50%"><stop offset="0%" stop-color="rgba(0, 212, 255, 0.15)"></stop><stop offset="100%" stop-color="rgba(0, 212, 255, 0)"></stop></radialGradient></defs><ellipse cx="430" cy="130" rx="450" ry="250" fill="url(#stack-cyan)"></ellipse></svg></g><mask id="satori_om-id-0-0"><rect x="1" y="1" width="0" height="260" fill="#fff" mask="url(#satori_om-id)"/></mask><g opacity="0.8"></g><mask id="satori_om-id-0-0-0"><rect x="1" y="1" width="0" height="260" fill="#fff" mask="url(#satori_om-id)"/></mask><g opacity="0.8"></g><mask id="satori_om-id-0-0-0-0"><rect x="1" y="1" width="0" height="260" fill="#fff" mask="url(#satori_om-id)"/></mask><g opacity="0.8"></g><mask id="satori_om-id-0-0-0-1"><rect x="1" y="1" width="0" height="260" fill="#fff" mask="url(#satori_om-id)"/></mask><g opacity="0.8"></g><mask id="satori_om-id-0-1"><rect x="1" y="1" width="0" height="260" fill="#fff" mask="url(#satori_om-id)"/></mask><g opacity="0.8"></g><mask id="satori_om-id-1"><rect x="398" y="29" width="64" height="13" fill="#fff" mask="url(#satori_om-id)"/></mask><g mask="url(#satori_om-id)" clip-path="url(#satori_cp-id)"><path fill="rgba(255,255,255,0.4)" d="M401.7 40.1L401.7 40.1Q400.7 40.1 400.0 39.8Q399.3 39.5 398.9 38.9Q398.5 38.4 398.5 37.5L398.5 37.5L400.1 37.5Q400.1 37.9 400.3 38.2Q400.5 38.5 400.9 38.6Q401.2 38.7 401.6 38.7L401.6 38.7Q402.1 38.7 402.4 38.6Q402.7 38.5 402.9 38.2Q403.1 38.0 403.1 37.7L403.1 37.7Q403.1 37.4 402.9 37.3Q402.8 37.1 402.5 36.9Q402.2 36.8 401.7 36.7L401.7 36.7L400.8 36.5Q399.8 36.2 399.2 35.7Q398.7 35.2 398.7 34.3L398.7 34.3Q398.7 33.6 399.1 33.0Q399.5 32.5 400.1 32.2Q400.8 31.9 401.7 31.9L401.7 31.9Q402.6 31.9 403.2 32.2Q403.9 32.5 404.3 33.0Q404.6 33.6 404.6 34.3L404.6 34.3L403.1 34.3Q403.0 33.8 402.6 33.5Q402.3 33.3 401.7 33.3L401.7 33.3Q401.2 33.3 401.0 33.4Q400.7 33.5 400.5 33.7Q400.4 33.9 400.4 34.2L400.4 34.2Q400.4 34.5 400.5 34.7Q400.7 34.9 401.0 35.0Q401.3 35.1 401.6 35.2L401.6 35.2L402.4 35.4Q402.9 35.5 403.3 35.7Q403.7 35.9 404.1 36.2Q404.4 36.4 404.6 36.8Q404.7 37.2 404.7 37.7L404.7 37.7Q404.7 38.4 404.4 39.0Q404.0 39.5 403.3 39.8Q402.6 40.1 401.7 40.1ZM413.1 33.4L410.6 33.4L410.6 32.0L417.1 32.0L417.1 33.4L414.7 33.4L414.7 40L413.1 40L413.1 33.4ZM424.6 40L422.8 40L425.5 32.0L427.7 32.0L430.5 40L428.7 40L428.1 38.1L425.2 38.1L424.6 40ZM425.6 36.9L427.6 36.9L427.4 36.1Q427.2 35.4 426.9 34.5L426.9 34.5Q426.8 33.9 426.6 33.3L426.6 33.3Q426.4 33.9 426.3 34.5L426.3 34.5Q426.1 35.4 425.9 36.1L425.9 36.1L425.6 36.9ZM440.0 40.1L440.0 40.1Q438.9 40.1 438.1 39.6Q437.2 39.1 436.7 38.2Q436.3 37.3 436.3 36.0L436.3 36.0Q436.3 34.7 436.8 33.8Q437.2 32.9 438.1 32.4Q438.9 31.9 440.0 31.9L440.0 31.9Q440.7 31.9 441.2 32.1Q441.8 32.3 442.3 32.6Q442.8 33.0 443.0 33.5Q443.3 34.1 443.4 34.7L443.4 34.7L441.8 34.7Q441.7 34.4 441.6 34.1Q441.4 33.9 441.2 33.7Q440.9 33.5 440.7 33.4Q440.4 33.3 440.0 33.3L440.0 33.3Q439.4 33.3 438.9 33.7Q438.4 34.0 438.2 34.6Q437.9 35.2 437.9 36.0L437.9 36.0Q437.9 36.9 438.2 37.5Q438.5 38.1 438.9 38.4Q439.4 38.7 440.0 38.7L440.0 38.7Q440.3 38.7 440.6 38.6Q440.9 38.5 441.2 38.3Q441.4 38.1 441.6 37.8Q441.7 37.6 441.8 37.3L441.8 37.3L443.4 37.3Q443.4 37.8 443.1 38.3Q442.8 38.8 442.4 39.2Q442.0 39.6 441.3 39.9Q440.7 40.1 440.0 40.1ZM451.3 40L449.6 40L449.6 32.0L451.3 32.0L451.3 34.2L451.2 36.0Q451.3 35.9 451.3 35.9L451.3 35.9Q451.5 35.5 451.8 35.1Q452.1 34.7 452.5 34.3L452.5 34.3L454.4 32.0L456.4 32.0L453.5 35.5L456.5 40L454.6 40L452.3 36.5L451.3 37.7L451.3 40Z "/></g><mask id="satori_om-id-2"><rect x="90" y="70" width="680" height="80" fill="#fff" mask="url(#satori_om-id)"/></mask><defs><clipPath id="satori_bc-id-2-0" clip-path="url(#satori_cp-id)"><path x="132" y="70" width="88" height="33" d="M148.5,70 h55 a16.5,16.5 0 0 1 16.5,16.5 v0 a16.5,16.5 0 0 1 -16.5,16.5 h-55 a16.5,16.5 0 0 1 -16.5,-16.5 v0 a16.5,16.5 0 0 1 16.5,-16.5"/></clipPath></defs><mask id="satori_om-id-2-0"><rect x="133" y="71" width="86" height="31" fill="#fff" mask="url(#satori_om-id)"/><path width="88" height="33" fill="none" stroke="#000" stroke-width="2" d="M136.833,74.833 A16.5,16.5 0 0 1 148.5,70 h55 a16.5,16.5 0 0 1 16.5,16.5 v0 a16.5,16.5 0 0 1 -16.5,16.5 h-55 a16.5,16.5 0 0 1 -16.5,-16.5 v0 A16.5,16.5 0 0 1 136.833,74.833"/></mask><path x="132" y="70" width="88" height="33" fill="rgba(255,255,255,0.04)" d="M148.5,70 h55 a16.5,16.5 0 0 1 16.5,16.5 v0 a16.5,16.5 0 0 1 -16.5,16.5 h-55 a16.5,16.5 0 0 1 -16.5,-16.5 v0 a16.5,16.5 0 0 1 16.5,-16.5" clip-path="url(#satori_cp-id)" mask="url(#satori_om-id)"/><path width="88" height="33" clip-path="url(#satori_bc-id-2-0)" fill="none" stroke="rgba(255,255,255,0.1)" stroke-width="2" d="M136.833,74.833 A16.5,16.5 0 0 1 148.5,70 h55 a16.5,16.5 0 0 1 16.5,16.5 v0 a16.5,16.5 0 0 1 -16.5,16.5 h-55 a16.5,16.5 0 0 1 -16.5,-16.5 v0 A16.5,16.5 0 0 1 136.833,74.833"/><g mask="url(#satori_om-id)" clip-path="url(#satori_cp-id)"><path fill="rgba(255,255,255,0.8)" d="M161.2 91L156.1 91L156.1 82.3L157.2 82.3L157.2 90.0L161.2 90.0L161.2 91ZM164.5 91.2L164.5 91.2Q163.9 91.2 163.4 90.9Q162.9 90.7 162.6 90.2Q162.3 89.8 162.3 89.1L162.3 89.1Q162.3 88.6 162.5 88.2Q162.8 87.9 163.1 87.7Q163.5 87.5 164.0 87.4Q164.4 87.3 164.9 87.2L164.9 87.2Q165.4 87.1 165.8 87.1Q166.2 87.1 166.4 87.0Q166.5 86.9 166.5 86.6L166.5 86.6L166.5 86.6Q166.5 86.2 166.4 85.9Q166.2 85.6 165.9 85.4Q165.6 85.3 165.2 85.3L165.2 85.3Q164.7 85.3 164.4 85.4Q164.0 85.6 163.8 85.8Q163.6 86.0 163.5 86.3L163.5 86.3L162.5 85.9Q162.8 85.3 163.2 85.0Q163.6 84.6 164.1 84.5Q164.6 84.4 165.1 84.4L165.1 84.4Q165.5 84.4 165.9 84.4Q166.3 84.5 166.7 84.8Q167.1 85.0 167.3 85.5Q167.6 85.9 167.6 86.7L167.6 86.7L167.6 91L166.6 91L166.6 90.1L166.5 90.1Q166.4 90.3 166.1 90.6Q165.9 90.8 165.5 91.0Q165.1 91.2 164.5 91.2ZM164.7 90.2L164.7 90.2Q165.3 90.2 165.7 90.0Q166.1 89.8 166.3 89.4Q166.5 89.0 166.5 88.6L166.5 88.6L166.5 87.7Q166.5 87.8 166.3 87.9Q166.0 87.9 165.8 88.0Q165.5 88.0 165.2 88.0Q165.0 88.1 164.8 88.1L164.8 88.1Q164.4 88.1 164.1 88.3Q163.8 88.4 163.6 88.6Q163.4 88.8 163.4 89.2L163.4 89.2Q163.4 89.5 163.5 89.8Q163.7 90.0 164.0 90.1Q164.3 90.2 164.7 90.2ZM170.5 91L169.4 91L169.4 84.4L170.5 84.4L170.5 85.5L170.5 85.5Q170.7 85.0 171.2 84.7Q171.7 84.4 172.2 84.4L172.2 84.4Q172.4 84.4 172.5 84.4Q172.7 84.4 172.8 84.4L172.8 84.4L172.8 85.4Q172.7 85.4 172.5 85.4Q172.3 85.4 172.1 85.4L172.1 85.4Q171.7 85.4 171.3 85.6Q170.9 85.8 170.7 86.1Q170.5 86.5 170.5 86.9L170.5 86.9L170.5 91ZM175.8 91.2L175.8 91.2Q175.2 91.2 174.7 90.9Q174.2 90.7 173.9 90.2Q173.6 89.8 173.6 89.1L173.6 89.1Q173.6 88.6 173.8 88.2Q174.0 87.9 174.4 87.7Q174.8 87.5 175.2 87.4Q175.7 87.3 176.1 87.2L176.1 87.2Q176.7 87.1 177.1 87.1Q177.4 87.1 177.6 87.0Q177.8 86.9 177.8 86.6L177.8 86.6L177.8 86.6Q177.8 86.2 177.6 85.9Q177.5 85.6 177.2 85.4Q176.9 85.3 176.4 85.3L176.4 85.3Q176.0 85.3 175.6 85.4Q175.3 85.6 175.1 85.8Q174.9 86.0 174.8 86.3L174.8 86.3L173.8 85.9Q174.0 85.3 174.4 85.0Q174.9 84.6 175.4 84.5Q175.9 84.4 176.4 84.4L176.4 84.4Q176.7 84.4 177.1 84.4Q177.6 84.5 178.0 84.8Q178.3 85.0 178.6 85.5Q178.9 85.9 178.9 86.7L178.9 86.7L178.9 91L177.8 91L177.8 90.1L177.7 90.1Q177.6 90.3 177.4 90.6Q177.1 90.8 176.8 91.0Q176.4 91.2 175.8 91.2ZM176.0 90.2L176.0 90.2Q176.6 90.2 177.0 90.0Q177.4 89.8 177.6 89.4Q177.8 89.0 177.8 88.6L177.8 88.6L177.8 87.7Q177.7 87.8 177.5 87.9Q177.3 87.9 177.0 88.0Q176.7 88.0 176.5 88.0Q176.2 88.1 176.1 88.1L176.1 88.1Q175.7 88.1 175.4 88.3Q175.0 88.4 174.8 88.6Q174.6 88.8 174.6 89.2L174.6 89.2Q174.6 89.5 174.8 89.8Q175.0 90.0 175.3 90.1Q175.6 90.2 176.0 90.2ZM183.7 91L182.6 91L180.1 84.4L181.3 84.4L182.6 88.3Q182.9 88.9 183.0 89.5L183.0 89.5Q183.1 89.8 183.2 90.0L183.2 90.0Q183.2 89.8 183.3 89.5L183.3 89.5Q183.4 88.9 183.7 88.3L183.7 88.3L185.1 84.4L186.2 84.4L183.7 91ZM190.2 91.1L190.2 91.1Q189.3 91.1 188.6 90.7Q187.9 90.3 187.5 89.5Q187.1 88.8 187.1 87.8Q187.1 86.8 187.5 86.0Q187.9 85.2 188.5 84.8Q189.2 84.4 190.1 84.4L190.1 84.4Q190.6 84.4 191.1 84.5Q191.6 84.7 192.0 85.1Q192.4 85.5 192.7 86.1Q192.9 86.7 192.9 87.6L192.9 87.6L192.9 88.1L188.2 88.1Q188.2 88.7 188.5 89.2L188.5 89.2Q188.7 89.7 189.2 89.9Q189.6 90.2 190.2 90.2L190.2 90.2Q190.6 90.2 190.9 90.1Q191.2 90.0 191.5 89.8Q191.7 89.5 191.8 89.2L191.8 89.2L192.8 89.5Q192.7 90.0 192.3 90.3Q191.9 90.7 191.4 90.9Q190.9 91.1 190.2 91.1ZM188.2 87.2L188.2 87.2L191.9 87.2Q191.8 86.7 191.7 86.4L191.7 86.4Q191.5 85.9 191.1 85.6Q190.7 85.3 190.1 85.3Q189.5 85.3 189.1 85.6Q188.6 85.9 188.4 86.3L188.4 86.3Q188.2 86.7 188.2 87.2ZM194.4 82.3L195.5 82.3L195.5 91L194.4 91L194.4 82.3Z "/></g><defs><clipPath id="satori_bc-id-2-1" clip-path="url(#satori_cp-id)"><path x="234" y="70" width="86" height="33" d="M250.5,70 h53 a16.5,16.5 0 0 1 16.5,16.5 v0 a16.5,16.5 0 0 1 -16.5,16.5 h-53 a16.5,16.5 0 0 1 -16.5,-16.5 v0 a16.5,16.5 0 0 1 16.5,-16.5"/></clipPath></defs><mask id="satori_om-id-2-1"><rect x="235" y="71" width="84" height="31" fill="#fff" mask="url(#satori_om-id)"/><path width="86" height="33" fill="none" stroke="#000" stroke-width="2" d="M238.833,74.833 A16.5,16.5 0 0 1 250.5,70 h53 a16.5,16.5 0 0 1 16.5,16.5 v0 a16.5,16.5 0 0 1 -16.5,16.5 h-53 a16.5,16.5 0 0 1 -16.5,-16.5 v0 A16.5,16.5 0 0 1 238.833,74.833"/></mask><path x="234" y="70" width="86" height="33" fill="rgba(255,255,255,0.04)" d="M250.5,70 h53 a16.5,16.5 0 0 1 16.5,16.5 v0 a16.5,16.5 0 0 1 -16.5,16.5 h-53 a16.5,16.5 0 0 1 -16.5,-16.5 v0 a16.5,16.5 0 0 1 16.5,-16.5" clip-path="url(#satori_cp-id)" mask="url(#satori_om-id)"/><path width="86" height="33" clip-path="url(#satori_bc-id-2-1)" fill="none" stroke="rgba(255,255,255,0.1)" stroke-width="2" d="M238.833,74.833 A16.5,16.5 0 0 1 250.5,70 h53 a16.5,16.5 0 0 1 16.5,16.5 v0 a16.5,16.5 0 0 1 -16.5,16.5 h-53 a16.5,16.5 0 0 1 -16.5,-16.5 v0 A16.5,16.5 0 0 1 238.833,74.833"/><g mask="url(#satori_om-id)" clip-path="url(#satori_cp-id)"><path fill="rgba(255,255,255,0.8)" d="M259.2 91L258.1 91L258.1 82.3L259.4 82.3L262.9 87.9Q263.1 88.1 263.3 88.4Q263.5 88.8 263.7 89.2L263.7 89.2Q263.8 89.4 263.9 89.7L263.9 89.7Q263.9 89.4 263.9 89.1L263.9 89.1Q263.9 88.7 263.9 88.3Q263.9 87.9 263.9 87.6L263.9 87.6L263.9 82.3L265.0 82.3L265.0 91L263.7 91L260.5 86.0Q260.3 85.7 260.1 85.3Q259.8 85.0 259.6 84.4L259.6 84.4Q259.4 84.1 259.1 83.6L259.1 83.6Q259.1 84.0 259.1 84.4L259.1 84.4Q259.1 85.0 259.2 85.4Q259.2 85.8 259.2 86.0L259.2 86.0L259.2 91ZM269.7 91.1L269.7 91.1Q268.8 91.1 268.1 90.7Q267.4 90.3 267.0 89.5Q266.7 88.8 266.7 87.8Q266.7 86.8 267.0 86.0Q267.4 85.2 268.0 84.8Q268.7 84.4 269.6 84.4L269.6 84.4Q270.1 84.4 270.6 84.5Q271.1 84.7 271.5 85.1Q272.0 85.5 272.2 86.1Q272.5 86.7 272.5 87.6L272.5 87.6L272.5 88.1L267.7 88.1Q267.7 88.7 268.0 89.2L268.0 89.2Q268.2 89.7 268.7 89.9Q269.1 90.2 269.7 90.2L269.7 90.2Q270.1 90.2 270.4 90.1Q270.7 90.0 271.0 89.8Q271.2 89.5 271.3 89.2L271.3 89.2L272.3 89.5Q272.2 90.0 271.8 90.3Q271.5 90.7 270.9 90.9Q270.4 91.1 269.7 91.1ZM267.7 87.2L267.7 87.2L271.4 87.2Q271.3 86.7 271.2 86.4L271.2 86.4Q271.0 85.9 270.6 85.6Q270.2 85.3 269.6 85.3Q269.0 85.3 268.6 85.6Q268.2 85.9 267.9 86.3L267.9 86.3Q267.8 86.7 267.7 87.2ZM274.6 91L273.4 91L275.7 87.6L273.6 84.4L274.8 84.4L275.6 85.7Q275.9 86.2 276.1 86.6L276.1 86.6Q276.2 86.8 276.3 87.0L276.3 87.0Q276.4 86.8 276.5 86.6L276.5 86.6Q276.7 86.2 277.1 85.7L277.1 85.7L277.9 84.4L279.1 84.4L276.9 87.7L279.2 91L278.0 91L277.0 89.5Q276.7 89.0 276.5 88.6L276.5 88.6Q276.4 88.5 276.3 88.3L276.3 88.3Q276.2 88.5 276.1 88.6L276.1 88.6Q275.9 89.0 275.6 89.5L275.6 89.5L274.6 91ZM281.7 84.4L283.1 84.4L283.1 85.4L281.7 85.4L281.7 89.3Q281.7 89.7 281.9 89.9Q282.1 90.1 282.5 90.1L282.5 90.1Q282.6 90.1 282.8 90.1Q282.9 90.1 283.1 90.1L283.1 90.1L283.3 91.0Q283.1 91.0 282.9 91.1Q282.7 91.1 282.5 91.1L282.5 91.1Q281.6 91.1 281.2 90.6Q280.7 90.2 280.7 89.4L280.7 89.4L280.7 85.4L279.7 85.4L279.7 84.4L280.7 84.4L280.7 82.9L281.7 82.9L281.7 84.4ZM285.2 91.1L285.2 91.1Q284.9 91.1 284.7 90.8Q284.5 90.6 284.5 90.3L284.5 90.3Q284.5 90.0 284.7 89.7Q284.9 89.5 285.2 89.5L285.2 89.5Q285.6 89.5 285.8 89.7Q286.0 90.0 286.0 90.3L286.0 90.3Q286.0 90.6 285.8 90.8Q285.6 91.1 285.2 91.1ZM287.9 91.5L287.9 84.4L289.0 84.4L289.0 91.5Q289.0 92.1 288.7 92.5Q288.5 93.0 288.1 93.2Q287.7 93.4 287.0 93.4L287.0 93.4L286.8 93.4L286.8 92.5L287.0 92.5Q287.5 92.5 287.7 92.2Q287.9 92.0 287.9 91.5L287.9 91.5ZM288.4 83.4L288.4 83.4Q288.1 83.4 287.9 83.2Q287.7 83.0 287.7 82.7L287.7 82.7Q287.7 82.4 287.9 82.2Q288.1 82.0 288.4 82.0L288.4 82.0Q288.7 82.0 288.9 82.2Q289.2 82.4 289.2 82.7L289.2 82.7Q289.2 83.0 288.9 83.2Q288.7 83.4 288.4 83.4ZM293.0 91.1L293.0 91.1Q292.4 91.1 291.8 90.9Q291.3 90.7 291.0 90.4Q290.6 90.0 290.5 89.4L290.5 89.4L291.5 89.2Q291.7 89.7 292.0 90.0Q292.4 90.2 293.0 90.2L293.0 90.2Q293.7 90.2 294.1 89.9Q294.5 89.6 294.5 89.2L294.5 89.2Q294.5 88.9 294.3 88.7Q294.0 88.4 293.6 88.3L293.6 88.3L292.5 88.1Q291.6 87.9 291.1 87.4Q290.7 87.0 290.7 86.3L290.7 86.3Q290.7 85.7 291.0 85.3Q291.3 84.9 291.9 84.6Q292.4 84.4 293.1 84.4L293.1 84.4Q293.8 84.4 294.3 84.6Q294.8 84.8 295.0 85.1Q295.3 85.5 295.5 85.9L295.5 85.9L294.5 86.2Q294.4 85.8 294.1 85.6Q293.8 85.3 293.1 85.3L293.1 85.3Q292.6 85.3 292.2 85.5Q291.8 85.8 291.8 86.2L291.8 86.2Q291.8 86.6 292.0 86.8Q292.3 87.0 292.9 87.2L292.9 87.2L293.9 87.4Q294.8 87.6 295.2 88.0Q295.6 88.5 295.6 89.2L295.6 89.2Q295.6 89.7 295.3 90.2Q295.0 90.6 294.4 90.9Q293.8 91.1 293.0 91.1Z "/></g><defs><clipPath id="satori_bc-id-2-2" clip-path="url(#satori_cp-id)"><path x="334" y="70" width="79" height="33" d="M350.5,70 h46 a16.5,16.5 0 0 1 16.5,16.5 v0 a16.5,16.5 0 0 1 -16.5,16.5 h-46 a16.5,16.5 0 0 1 -16.5,-16.5 v0 a16.5,16.5 0 0 1 16.5,-16.5"/></clipPath></defs><mask id="satori_om-id-2-2"><rect x="335" y="71" width="77" height="31" fill="#fff" mask="url(#satori_om-id)"/><path width="79" height="33" fill="none" stroke="#000" stroke-width="2" d="M338.833,74.833 A16.5,16.5 0 0 1 350.5,70 h46 a16.5,16.5 0 0 1 16.5,16.5 v0 a16.5,16.5 0 0 1 -16.5,16.5 h-46 a16.5,16.5 0 0 1 -16.5,-16.5 v0 A16.5,16.5 0 0 1 338.833,74.833"/></mask><path x="334" y="70" width="79" height="33" fill="rgba(255,255,255,0.04)" d="M350.5,70 h46 a16.5,16.5 0 0 1 16.5,16.5 v0 a16.5,16.5 0 0 1 -16.5,16.5 h-46 a16.5,16.5 0 0 1 -16.5,-16.5 v0 a16.5,16.5 0 0 1 16.5,-16.5" clip-path="url(#satori_cp-id)" mask="url(#satori_om-id)"/><path width="79" height="33" clip-path="url(#satori_bc-id-2-2)" fill="none" stroke="rgba(255,255,255,0.1)" stroke-width="2" d="M338.833,74.833 A16.5,16.5 0 0 1 350.5,70 h46 a16.5,16.5 0 0 1 16.5,16.5 v0 a16.5,16.5 0 0 1 -16.5,16.5 h-46 a16.5,16.5 0 0 1 -16.5,-16.5 v0 A16.5,16.5 0 0 1 338.833,74.833"/><g mask="url(#satori_om-id)" clip-path="url(#satori_cp-id)"><path fill="rgba(255,255,255,0.8)" d="M359.2 91L358.1 91L358.1 82.3L361.0 82.3Q362.1 82.3 362.7 82.6Q363.4 83.0 363.7 83.6Q364.0 84.2 364.0 85.0Q364.0 85.7 363.7 86.3Q363.4 86.9 362.7 87.3L362.7 87.3Q362.6 87.4 362.4 87.4L362.4 87.4L364.4 91L363.1 91L361.3 87.6Q361.2 87.6 361.0 87.6L361.0 87.6L359.2 87.6L359.2 91ZM359.2 83.2L359.2 86.6L361.0 86.6Q361.7 86.6 362.1 86.4Q362.5 86.2 362.7 85.8Q362.9 85.5 362.9 85.0L362.9 85.0Q362.9 84.4 362.7 84.1Q362.5 83.7 362.1 83.5Q361.7 83.2 361.0 83.2L361.0 83.2L359.2 83.2ZM368.4 91.1L368.4 91.1Q367.5 91.1 366.8 90.7Q366.1 90.3 365.7 89.5Q365.3 88.8 365.3 87.8Q365.3 86.8 365.7 86.0Q366.1 85.2 366.7 84.8Q367.4 84.4 368.3 84.4L368.3 84.4Q368.8 84.4 369.3 84.5Q369.8 84.7 370.2 85.1Q370.6 85.5 370.9 86.1Q371.1 86.7 371.1 87.6L371.1 87.6L371.1 88.1L366.4 88.1Q366.4 88.7 366.7 89.2L366.7 89.2Q366.9 89.7 367.4 89.9Q367.8 90.2 368.4 90.2L368.4 90.2Q368.8 90.2 369.1 90.1Q369.4 90.0 369.7 89.8Q369.9 89.5 370.0 89.2L370.0 89.2L371.0 89.5Q370.9 90.0 370.5 90.3Q370.1 90.7 369.6 90.9Q369.1 91.1 368.4 91.1ZM366.4 87.2L366.4 87.2L370.1 87.2Q370.0 86.7 369.9 86.4L369.9 86.4Q369.7 85.9 369.3 85.6Q368.9 85.3 368.3 85.3Q367.7 85.3 367.3 85.6Q366.8 85.9 366.6 86.3L366.6 86.3Q366.4 86.7 366.4 87.2ZM374.5 91.2L374.5 91.2Q373.9 91.2 373.4 90.9Q372.8 90.7 372.5 90.2Q372.2 89.8 372.2 89.1L372.2 89.1Q372.2 88.6 372.5 88.2Q372.7 87.9 373.1 87.7Q373.4 87.5 373.9 87.4Q374.3 87.3 374.8 87.2L374.8 87.2Q375.4 87.1 375.8 87.1Q376.1 87.1 376.3 87.0Q376.5 86.9 376.5 86.6L376.5 86.6L376.5 86.6Q376.5 86.2 376.3 85.9Q376.2 85.6 375.9 85.4Q375.6 85.3 375.1 85.3L375.1 85.3Q374.6 85.3 374.3 85.4Q374.0 85.6 373.8 85.8Q373.6 86.0 373.4 86.3L373.4 86.3L372.4 85.9Q372.7 85.3 373.1 85.0Q373.5 84.6 374.1 84.5Q374.6 84.4 375.1 84.4L375.1 84.4Q375.4 84.4 375.8 84.4Q376.2 84.5 376.6 84.8Q377.0 85.0 377.3 85.5Q377.5 85.9 377.5 86.7L377.5 86.7L377.5 91L376.5 91L376.5 90.1L376.4 90.1Q376.3 90.3 376.1 90.6Q375.8 90.8 375.4 91.0Q375.0 91.2 374.5 91.2ZM374.7 90.2L374.7 90.2Q375.2 90.2 375.7 90.0Q376.1 89.8 376.3 89.4Q376.5 89.0 376.5 88.6L376.5 88.6L376.5 87.7Q376.4 87.8 376.2 87.9Q376.0 87.9 375.7 88.0Q375.4 88.0 375.2 88.0Q374.9 88.1 374.7 88.1L374.7 88.1Q374.4 88.1 374.0 88.3Q373.7 88.4 373.5 88.6Q373.3 88.8 373.3 89.2L373.3 89.2Q373.3 89.5 373.5 89.8Q373.7 90.0 374.0 90.1Q374.3 90.2 374.7 90.2ZM382.0 91.1L382.0 91.1Q381.2 91.1 380.5 90.7Q379.8 90.3 379.4 89.5Q379.1 88.8 379.1 87.8L379.1 87.8Q379.1 86.7 379.4 86.0Q379.8 85.2 380.5 84.8Q381.2 84.4 382.0 84.4L382.0 84.4Q382.5 84.4 382.9 84.5Q383.4 84.6 383.7 84.8Q384.1 85.1 384.3 85.4Q384.6 85.8 384.7 86.2L384.7 86.2L383.7 86.5Q383.6 86.2 383.5 86.0Q383.3 85.8 383.1 85.6Q382.9 85.5 382.6 85.4Q382.4 85.3 382.0 85.3L382.0 85.3Q381.4 85.3 381.0 85.7Q380.5 86.0 380.3 86.6Q380.1 87.1 380.1 87.8L380.1 87.8Q380.1 88.4 380.3 89.0Q380.5 89.5 381.0 89.9Q381.4 90.2 382.0 90.2L382.0 90.2Q382.4 90.2 382.7 90.1Q382.9 90.0 383.1 89.9Q383.4 89.7 383.5 89.5Q383.6 89.3 383.7 89.0L383.7 89.0L384.7 89.3Q384.6 89.7 384.3 90.1Q384.1 90.4 383.7 90.6Q383.4 90.9 383.0 91.0Q382.5 91.1 382.0 91.1ZM387.5 84.4L388.8 84.4L388.8 85.4L387.5 85.4L387.5 89.3Q387.5 89.7 387.6 89.9Q387.8 90.1 388.2 90.1L388.2 90.1Q388.3 90.1 388.5 90.1Q388.7 90.1 388.8 90.1L388.8 90.1L389.0 91.0Q388.8 91.0 388.6 91.1Q388.4 91.1 388.2 91.1L388.2 91.1Q387.4 91.1 386.9 90.6Q386.4 90.2 386.4 89.4L386.4 89.4L386.4 85.4L385.4 85.4L385.4 84.4L386.4 84.4L386.4 82.9L387.5 82.9L387.5 84.4Z "/></g><defs><clipPath id="satori_bc-id-2-3" clip-path="url(#satori_cp-id)"><path x="427" y="70" width="94" height="33" d="M443.5,70 h61 a16.5,16.5 0 0 1 16.5,16.5 v0 a16.5,16.5 0 0 1 -16.5,16.5 h-61 a16.5,16.5 0 0 1 -16.5,-16.5 v0 a16.5,16.5 0 0 1 16.5,-16.5"/></clipPath></defs><mask id="satori_om-id-2-3"><rect x="428" y="71" width="92" height="31" fill="#fff" mask="url(#satori_om-id)"/><path width="94" height="33" fill="none" stroke="#000" stroke-width="2" d="M431.833,74.833 A16.5,16.5 0 0 1 443.5,70 h61 a16.5,16.5 0 0 1 16.5,16.5 v0 a16.5,16.5 0 0 1 -16.5,16.5 h-61 a16.5,16.5 0 0 1 -16.5,-16.5 v0 A16.5,16.5 0 0 1 431.833,74.833"/></mask><path x="427" y="70" width="94" height="33" fill="rgba(255,255,255,0.04)" d="M443.5,70 h61 a16.5,16.5 0 0 1 16.5,16.5 v0 a16.5,16.5 0 0 1 -16.5,16.5 h-61 a16.5,16.5 0 0 1 -16.5,-16.5 v0 a16.5,16.5 0 0 1 16.5,-16.5" clip-path="url(#satori_cp-id)" mask="url(#satori_om-id)"/><path width="94" height="33" clip-path="url(#satori_bc-id-2-3)" fill="none" stroke="rgba(255,255,255,0.1)" stroke-width="2" d="M431.833,74.833 A16.5,16.5 0 0 1 443.5,70 h61 a16.5,16.5 0 0 1 16.5,16.5 v0 a16.5,16.5 0 0 1 -16.5,16.5 h-61 a16.5,16.5 0 0 1 -16.5,-16.5 v0 A16.5,16.5 0 0 1 431.833,74.833"/><g mask="url(#satori_om-id)" clip-path="url(#satori_cp-id)"><path fill="rgba(255,255,255,0.8)" d="M453.3 83.3L450.6 83.3L450.6 82.3L457.2 82.3L457.2 83.3L454.4 83.3L454.4 91L453.3 91L453.3 83.3ZM460.5 91.2L460.5 91.2Q459.9 91.2 459.4 90.9Q458.9 90.7 458.6 90.2Q458.3 89.8 458.3 89.1L458.3 89.1Q458.3 88.6 458.5 88.2Q458.7 87.9 459.1 87.7Q459.5 87.5 459.9 87.4Q460.4 87.3 460.8 87.2L460.8 87.2Q461.4 87.1 461.8 87.1Q462.1 87.1 462.3 87.0Q462.5 86.9 462.5 86.6L462.5 86.6L462.5 86.6Q462.5 86.2 462.4 85.9Q462.2 85.6 461.9 85.4Q461.6 85.3 461.1 85.3L461.1 85.3Q460.7 85.3 460.3 85.4Q460.0 85.6 459.8 85.8Q459.6 86.0 459.5 86.3L459.5 86.3L458.5 85.9Q458.7 85.3 459.1 85.0Q459.6 84.6 460.1 84.5Q460.6 84.4 461.1 84.4L461.1 84.4Q461.4 84.4 461.9 84.4Q462.3 84.5 462.7 84.8Q463.0 85.0 463.3 85.5Q463.6 85.9 463.6 86.7L463.6 86.7L463.6 91L462.5 91L462.5 90.1L462.5 90.1Q462.3 90.3 462.1 90.6Q461.8 90.8 461.5 91.0Q461.1 91.2 460.5 91.2ZM460.7 90.2L460.7 90.2Q461.3 90.2 461.7 90.0Q462.1 89.8 462.3 89.4Q462.5 89.0 462.5 88.6L462.5 88.6L462.5 87.7Q462.4 87.8 462.2 87.9Q462.0 87.9 461.7 88.0Q461.4 88.0 461.2 88.0Q460.9 88.1 460.8 88.1L460.8 88.1Q460.4 88.1 460.1 88.3Q459.7 88.4 459.5 88.6Q459.3 88.8 459.3 89.2L459.3 89.2Q459.3 89.5 459.5 89.8Q459.7 90.0 460.0 90.1Q460.3 90.2 460.7 90.2ZM466.5 91L465.4 91L465.4 84.4L466.5 84.4L466.5 91ZM465.9 83.4L465.9 83.4Q465.6 83.4 465.4 83.2Q465.2 83.0 465.2 82.7L465.2 82.7Q465.2 82.4 465.4 82.2Q465.6 82.0 465.9 82.0L465.9 82.0Q466.2 82.0 466.5 82.2Q466.7 82.4 466.7 82.7L466.7 82.7Q466.7 83.0 466.5 83.2Q466.2 83.4 465.9 83.4ZM468.3 82.3L469.4 82.3L469.4 91L468.3 91L468.3 82.3ZM473.7 91L472.7 91L470.7 84.4L471.8 84.4L472.6 87.3Q472.8 87.9 473.0 88.6L473.0 88.6Q473.1 89.2 473.3 89.9L473.3 89.9Q473.4 89.2 473.5 88.7L473.5 88.7Q473.7 87.9 473.9 87.3L473.9 87.3L474.7 84.4L475.8 84.4L476.6 87.3Q476.7 87.9 476.9 88.7L476.9 88.7Q477.0 89.2 477.2 89.9L477.2 89.9Q477.3 89.2 477.4 88.7L477.4 88.7Q477.6 87.9 477.8 87.3L477.8 87.3L478.6 84.4L479.7 84.4L477.7 91L476.7 91L475.8 88.0Q475.7 87.6 475.6 87.1Q475.4 86.6 475.3 86.2L475.3 86.2Q475.3 85.9 475.2 85.6L475.2 85.6Q475.1 85.9 475.1 86.1L475.1 86.1Q475.0 86.6 474.8 87.1Q474.7 87.6 474.6 88.0L474.6 88.0L473.7 91ZM482.1 91L481.0 91L481.0 84.4L482.1 84.4L482.1 91ZM481.6 83.4L481.6 83.4Q481.3 83.4 481.1 83.2Q480.8 83.0 480.8 82.7L480.8 82.7Q480.8 82.4 481.1 82.2Q481.3 82.0 481.6 82.0L481.6 82.0Q481.9 82.0 482.1 82.2Q482.3 82.4 482.3 82.7L482.3 82.7Q482.3 83.0 482.1 83.2Q481.9 83.4 481.6 83.4ZM485.0 87.1L485.0 87.1L485.0 91L483.9 91L483.9 84.4L485.0 84.4L485.0 85.7Q485.2 85.0 485.7 84.7L485.7 84.7Q486.2 84.4 487.0 84.4L487.0 84.4Q487.6 84.4 488.1 84.6Q488.6 84.9 488.9 85.5Q489.2 86.0 489.2 86.8L489.2 86.8L489.2 91L488.1 91L488.1 86.9Q488.1 86.2 487.7 85.7Q487.3 85.3 486.7 85.3L486.7 85.3Q486.2 85.3 485.8 85.5Q485.4 85.7 485.2 86.1Q485.0 86.5 485.0 87.1ZM493.5 91.1L493.5 91.1Q492.7 91.1 492.1 90.7Q491.4 90.3 491.1 89.5Q490.7 88.8 490.7 87.7L490.7 87.7Q490.7 86.7 491.1 85.9Q491.4 85.2 492.1 84.8Q492.7 84.4 493.5 84.4L493.5 84.4Q494.1 84.4 494.5 84.6Q494.9 84.8 495.1 85.1Q495.3 85.3 495.4 85.5L495.4 85.5L495.5 85.5L495.5 82.3L496.5 82.3L496.5 91L495.5 91L495.5 90.0L495.4 90.0Q495.3 90.2 495.1 90.4Q494.9 90.7 494.5 90.9Q494.1 91.1 493.5 91.1ZM493.7 90.2L493.7 90.2Q494.3 90.2 494.7 89.9Q495.1 89.6 495.3 89.0Q495.5 88.5 495.5 87.7L495.5 87.7Q495.5 87.0 495.3 86.5Q495.1 85.9 494.7 85.6Q494.3 85.3 493.7 85.3L493.7 85.3Q493.0 85.3 492.6 85.6Q492.2 86.0 492 86.5Q491.8 87.1 491.8 87.7L491.8 87.7Q491.8 88.4 492.0 89.0Q492.2 89.5 492.6 89.9Q493.0 90.2 493.7 90.2Z "/></g><defs><clipPath id="satori_bc-id-2-4" clip-path="url(#satori_cp-id)"><path x="535" y="70" width="71" height="33" d="M551.5,70 h38 a16.5,16.5 0 0 1 16.5,16.5 v0 a16.5,16.5 0 0 1 -16.5,16.5 h-38 a16.5,16.5 0 0 1 -16.5,-16.5 v0 a16.5,16.5 0 0 1 16.5,-16.5"/></clipPath></defs><mask id="satori_om-id-2-4"><rect x="536" y="71" width="69" height="31" fill="#fff" mask="url(#satori_om-id)"/><path width="71" height="33" fill="none" stroke="#000" stroke-width="2" d="M539.833,74.833 A16.5,16.5 0 0 1 551.5,70 h38 a16.5,16.5 0 0 1 16.5,16.5 v0 a16.5,16.5 0 0 1 -16.5,16.5 h-38 a16.5,16.5 0 0 1 -16.5,-16.5 v0 A16.5,16.5 0 0 1 539.833,74.833"/></mask><path x="535" y="70" width="71" height="33" fill="rgba(255,255,255,0.04)" d="M551.5,70 h38 a16.5,16.5 0 0 1 16.5,16.5 v0 a16.5,16.5 0 0 1 -16.5,16.5 h-38 a16.5,16.5 0 0 1 -16.5,-16.5 v0 a16.5,16.5 0 0 1 16.5,-16.5" clip-path="url(#satori_cp-id)" mask="url(#satori_om-id)"/><path width="71" height="33" clip-path="url(#satori_bc-id-2-4)" fill="none" stroke="rgba(255,255,255,0.1)" stroke-width="2" d="M539.833,74.833 A16.5,16.5 0 0 1 551.5,70 h38 a16.5,16.5 0 0 1 16.5,16.5 v0 a16.5,16.5 0 0 1 -16.5,16.5 h-38 a16.5,16.5 0 0 1 -16.5,-16.5 v0 A16.5,16.5 0 0 1 539.833,74.833"/><g mask="url(#satori_om-id)" clip-path="url(#satori_cp-id)"><path fill="rgba(255,255,255,0.8)" d="M560.2 91L559.1 91L559.1 82.3L562.0 82.3Q563.1 82.3 563.7 82.6Q564.4 83.0 564.7 83.6Q565.0 84.3 565.0 85.0Q565.0 85.8 564.7 86.5Q564.4 87.1 563.7 87.5Q563.1 87.8 562.0 87.8L562.0 87.8L560.2 87.8L560.2 91ZM560.2 83.2L560.2 86.9L562.0 86.9Q562.7 86.9 563.1 86.6Q563.5 86.4 563.7 86.0Q563.9 85.6 563.9 85.0Q563.9 84.5 563.7 84.1Q563.5 83.7 563.1 83.5Q562.7 83.2 562.0 83.2L562.0 83.2L560.2 83.2ZM567.8 91L566.7 91L566.7 82.3L567.8 82.3L567.8 86.0L572.4 86.0L572.4 82.3L573.5 82.3L573.5 91L572.4 91L572.4 87.0L567.8 87.0L567.8 91ZM576.8 91L575.6 91L575.6 82.3L578.6 82.3Q579.6 82.3 580.3 82.6Q581.0 83.0 581.3 83.6Q581.6 84.3 581.6 85.0Q581.6 85.8 581.3 86.5Q581.0 87.1 580.3 87.5Q579.7 87.8 578.6 87.8L578.6 87.8L576.8 87.8L576.8 91ZM576.8 83.2L576.8 86.9L578.6 86.9Q579.3 86.9 579.7 86.6Q580.1 86.4 580.3 86.0Q580.5 85.6 580.5 85.0Q580.5 84.5 580.3 84.1Q580.1 83.7 579.7 83.5Q579.3 83.2 578.6 83.2L578.6 83.2L576.8 83.2Z "/></g><defs><clipPath id="satori_bc-id-2-5" clip-path="url(#satori_cp-id)"><path x="620" y="70" width="109" height="33" d="M636.5,70 h76 a16.5,16.5 0 0 1 16.5,16.5 v0 a16.5,16.5 0 0 1 -16.5,16.5 h-76 a16.5,16.5 0 0 1 -16.5,-16.5 v0 a16.5,16.5 0 0 1 16.5,-16.5"/></clipPath></defs><mask id="satori_om-id-2-5"><rect x="621" y="71" width="107" height="31" fill="#fff" mask="url(#satori_om-id)"/><path width="109" height="33" fill="none" stroke="#000" stroke-width="2" d="M624.833,74.833 A16.5,16.5 0 0 1 636.5,70 h76 a16.5,16.5 0 0 1 16.5,16.5 v0 a16.5,16.5 0 0 1 -16.5,16.5 h-76 a16.5,16.5 0 0 1 -16.5,-16.5 v0 A16.5,16.5 0 0 1 624.833,74.833"/></mask><path x="620" y="70" width="109" height="33" fill="rgba(255,255,255,0.04)" d="M636.5,70 h76 a16.5,16.5 0 0 1 16.5,16.5 v0 a16.5,16.5 0 0 1 -16.5,16.5 h-76 a16.5,16.5 0 0 1 -16.5,-16.5 v0 a16.5,16.5 0 0 1 16.5,-16.5" clip-path="url(#satori_cp-id)" mask="url(#satori_om-id)"/><path width="109" height="33" clip-path="url(#satori_bc-id-2-5)" fill="none" stroke="rgba(255,255,255,0.1)" stroke-width="2" d="M624.833,74.833 A16.5,16.5 0 0 1 636.5,70 h76 a16.5,16.5 0 0 1 16.5,16.5 v0 a16.5,16.5 0 0 1 -16.5,16.5 h-76 a16.5,16.5 0 0 1 -16.5,-16.5 v0 A16.5,16.5 0 0 1 624.833,74.833"/><g mask="url(#satori_om-id)" clip-path="url(#satori_cp-id)"><path fill="rgba(255,255,255,0.8)" d="M646.3 83.3L643.6 83.3L643.6 82.3L650.2 82.3L650.2 83.3L647.4 83.3L647.4 91L646.3 91L646.3 83.3ZM651.6 93.4L651.6 93.4L651.8 92.5L651.9 92.5Q652.3 92.6 652.5 92.5Q652.8 92.5 653.0 92.3Q653.2 92.0 653.4 91.6L653.4 91.6L653.6 91.0L651.1 84.4L652.2 84.4L653.6 88.3Q653.8 88.9 654.0 89.5L654.0 89.5Q654.1 89.8 654.1 90.0L654.1 90.0Q654.2 89.8 654.3 89.5L654.3 89.5Q654.4 88.9 654.6 88.3L654.6 88.3L656.0 84.4L657.2 84.4L654.3 92.0Q654.1 92.5 653.8 92.8Q653.5 93.2 653.2 93.3Q652.8 93.5 652.3 93.5L652.3 93.5Q652.1 93.5 651.9 93.5Q651.6 93.4 651.6 93.4ZM659.5 93.4L658.4 93.4L658.4 84.4L659.4 84.4L659.4 85.5L659.6 85.5Q659.7 85.3 659.9 85.1Q660.1 84.8 660.4 84.6Q660.8 84.4 661.5 84.4L661.5 84.4Q662.3 84.4 662.9 84.8Q663.5 85.2 663.9 85.9Q664.2 86.7 664.2 87.7L664.2 87.7Q664.2 88.8 663.9 89.5Q663.5 90.3 662.9 90.7Q662.3 91.1 661.5 91.1L661.5 91.1Q660.8 91.1 660.5 90.9Q660.1 90.7 659.9 90.4Q659.7 90.2 659.6 90.0L659.6 90.0L659.5 90.0L659.5 93.4ZM661.3 90.2L661.3 90.2Q661.9 90.2 662.3 89.9Q662.7 89.5 662.9 89.0Q663.2 88.4 663.2 87.7L663.2 87.7Q663.2 87.1 663.0 86.5Q662.7 86.0 662.3 85.6Q661.9 85.3 661.3 85.3L661.3 85.3Q660.7 85.3 660.3 85.6Q659.9 85.9 659.7 86.5Q659.5 87.0 659.5 87.7L659.5 87.7Q659.5 88.5 659.7 89.0Q659.9 89.6 660.3 89.9Q660.7 90.2 661.3 90.2ZM668.5 91.1L668.5 91.1Q667.6 91.1 666.9 90.7Q666.2 90.3 665.8 89.5Q665.4 88.8 665.4 87.8Q665.4 86.8 665.8 86.0Q666.2 85.2 666.8 84.8Q667.5 84.4 668.4 84.4L668.4 84.4Q668.9 84.4 669.4 84.5Q669.9 84.7 670.3 85.1Q670.8 85.5 671.0 86.1Q671.2 86.7 671.2 87.6L671.2 87.6L671.2 88.1L666.5 88.1Q666.5 88.7 666.8 89.2L666.8 89.2Q667.0 89.7 667.5 89.9Q667.9 90.2 668.5 90.2L668.5 90.2Q668.9 90.2 669.2 90.1Q669.5 90.0 669.8 89.8Q670 89.5 670.1 89.2L670.1 89.2L671.1 89.5Q671.0 90.0 670.6 90.3Q670.3 90.7 669.7 90.9Q669.2 91.1 668.5 91.1ZM666.5 87.2L666.5 87.2L670.2 87.2Q670.1 86.7 670.0 86.4L670.0 86.4Q669.8 85.9 669.4 85.6Q669.0 85.3 668.4 85.3Q667.8 85.3 667.4 85.6Q667.0 85.9 666.7 86.3L666.7 86.3Q666.5 86.7 666.5 87.2ZM675.7 91.2L675.7 91.2Q674.7 91.2 674.0 90.8Q673.4 90.5 673.0 90.0Q672.6 89.4 672.5 88.7L672.5 88.7L673.7 88.7Q673.7 89.2 674.0 89.5Q674.3 89.8 674.7 90.0Q675.2 90.2 675.7 90.2L675.7 90.2Q676.3 90.2 676.7 90.0Q677.2 89.8 677.5 89.4Q677.8 89.1 677.8 88.6L677.8 88.6Q677.8 88.2 677.5 87.9Q677.3 87.7 676.9 87.5Q676.5 87.3 676.0 87.2L676.0 87.2L675.0 86.9Q673.9 86.6 673.3 86.0Q672.8 85.5 672.8 84.6L672.8 84.6Q672.8 83.9 673.2 83.3Q673.6 82.8 674.2 82.5Q674.9 82.2 675.8 82.2L675.8 82.2Q676.6 82.2 677.3 82.5Q677.9 82.8 678.3 83.3Q678.7 83.8 678.7 84.5L678.7 84.5L677.6 84.5Q677.6 83.8 677.0 83.5Q676.5 83.1 675.7 83.1L675.7 83.1Q675.2 83.1 674.7 83.3Q674.3 83.5 674.1 83.8Q673.8 84.1 673.8 84.6L673.8 84.6Q673.8 85.0 674.1 85.3Q674.4 85.6 674.8 85.7Q675.2 85.9 675.5 86.0L675.5 86.0L676.4 86.2Q676.7 86.3 677.2 86.5Q677.6 86.6 678.0 86.9Q678.4 87.2 678.6 87.6Q678.9 88.0 678.9 88.6L678.9 88.6Q678.9 89.3 678.5 89.9Q678.1 90.5 677.4 90.8Q676.7 91.2 675.7 91.2ZM683.1 91.1L683.1 91.1Q682.2 91.1 681.6 90.7Q680.9 90.3 680.5 89.5Q680.1 88.8 680.1 87.8L680.1 87.8Q680.1 86.7 680.5 86.0Q680.9 85.2 681.6 84.8Q682.2 84.4 683.1 84.4L683.1 84.4Q683.6 84.4 684.0 84.5Q684.4 84.6 684.8 84.8Q685.1 85.1 685.4 85.4Q685.6 85.8 685.8 86.2L685.8 86.2L684.8 86.5Q684.7 86.2 684.5 86.0Q684.4 85.8 684.2 85.6Q684.0 85.5 683.7 85.4Q683.4 85.3 683.1 85.3L683.1 85.3Q682.5 85.3 682.0 85.7Q681.6 86.0 681.4 86.6Q681.2 87.1 681.2 87.8L681.2 87.8Q681.2 88.4 681.4 89.0Q681.6 89.5 682.0 89.9Q682.5 90.2 683.1 90.2L683.1 90.2Q683.5 90.2 683.7 90.1Q684.0 90.0 684.2 89.9Q684.4 89.7 684.6 89.5Q684.7 89.3 684.8 89.0L684.8 89.0L685.8 89.3Q685.7 89.7 685.4 90.1Q685.2 90.4 684.8 90.6Q684.5 90.9 684.0 91.0Q683.6 91.1 683.1 91.1ZM688.4 91L687.3 91L687.3 84.4L688.3 84.4L688.3 85.5L688.4 85.5Q688.6 85.0 689.1 84.7Q689.5 84.4 690.1 84.4L690.1 84.4Q690.2 84.4 690.4 84.4Q690.5 84.4 690.6 84.4L690.6 84.4L690.6 85.4Q690.6 85.4 690.4 85.4Q690.2 85.4 690.0 85.4L690.0 85.4Q689.5 85.4 689.2 85.6Q688.8 85.8 688.6 86.1Q688.4 86.5 688.4 86.9L688.4 86.9L688.4 91ZM692.9 91L691.8 91L691.8 84.4L692.9 84.4L692.9 91ZM692.4 83.4L692.4 83.4Q692.1 83.4 691.8 83.2Q691.6 83.0 691.6 82.7L691.6 82.7Q691.6 82.4 691.8 82.2Q692.1 82.0 692.4 82.0L692.4 82.0Q692.7 82.0 692.9 82.2Q693.1 82.4 693.1 82.7L693.1 82.7Q693.1 83.0 692.9 83.2Q692.7 83.4 692.4 83.4ZM695.8 93.4L694.7 93.4L694.7 84.4L695.8 84.4L695.8 85.5L695.9 85.5Q696.0 85.3 696.2 85.1Q696.4 84.8 696.8 84.6Q697.1 84.4 697.8 84.4L697.8 84.4Q698.6 84.4 699.2 84.8Q699.8 85.2 700.2 85.9Q700.6 86.7 700.6 87.7L700.6 87.7Q700.6 88.8 700.2 89.5Q699.8 90.3 699.2 90.7Q698.6 91.1 697.8 91.1L697.8 91.1Q697.2 91.1 696.8 90.9Q696.4 90.7 696.2 90.4Q696.0 90.2 695.9 90.0L695.9 90.0L695.8 90.0L695.8 93.4ZM697.6 90.2L697.6 90.2Q698.2 90.2 698.6 89.9Q699.1 89.5 699.3 89.0Q699.5 88.4 699.5 87.7L699.5 87.7Q699.5 87.1 699.3 86.5Q699.1 86.0 698.7 85.6Q698.2 85.3 697.6 85.3L697.6 85.3Q697.0 85.3 696.6 85.6Q696.2 85.9 696.0 86.5Q695.8 87.0 695.8 87.7L695.8 87.7Q695.8 88.5 696.0 89.0Q696.2 89.6 696.6 89.9Q697.0 90.2 697.6 90.2ZM703.3 84.4L704.7 84.4L704.7 85.4L703.3 85.4L703.3 89.3Q703.3 89.7 703.5 89.9Q703.7 90.1 704.1 90.1L704.1 90.1Q704.2 90.1 704.3 90.1Q704.5 90.1 704.6 90.1L704.6 90.1L704.8 91.0Q704.7 91.0 704.5 91.1Q704.3 91.1 704.1 91.1L704.1 91.1Q703.2 91.1 702.7 90.6Q702.3 90.2 702.3 89.4L702.3 89.4L702.3 85.4L701.3 85.4L701.3 84.4L702.3 84.4L702.3 82.9L703.3 82.9L703.3 84.4Z "/></g><defs><clipPath id="satori_bc-id-2-6" clip-path="url(#satori_cp-id)"><path x="270" y="117" width="88" height="33" d="M286.5,117 h55 a16.5,16.5 0 0 1 16.5,16.5 v0 a16.5,16.5 0 0 1 -16.5,16.5 h-55 a16.5,16.5 0 0 1 -16.5,-16.5 v0 a16.5,16.5 0 0 1 16.5,-16.5"/></clipPath></defs><mask id="satori_om-id-2-6"><rect x="271" y="118" width="86" height="31" fill="#fff" mask="url(#satori_om-id)"/><path width="88" height="33" fill="none" stroke="#000" stroke-width="2" d="M274.833,121.833 A16.5,16.5 0 0 1 286.5,117 h55 a16.5,16.5 0 0 1 16.5,16.5 v0 a16.5,16.5 0 0 1 -16.5,16.5 h-55 a16.5,16.5 0 0 1 -16.5,-16.5 v0 A16.5,16.5 0 0 1 274.833,121.833"/></mask><path x="270" y="117" width="88" height="33" fill="rgba(255,255,255,0.04)" d="M286.5,117 h55 a16.5,16.5 0 0 1 16.5,16.5 v0 a16.5,16.5 0 0 1 -16.5,16.5 h-55 a16.5,16.5 0 0 1 -16.5,-16.5 v0 a16.5,16.5 0 0 1 16.5,-16.5" clip-path="url(#satori_cp-id)" mask="url(#satori_om-id)"/><path width="88" height="33" clip-path="url(#satori_bc-id-2-6)" fill="none" stroke="rgba(255,255,255,0.1)" stroke-width="2" d="M274.833,121.833 A16.5,16.5 0 0 1 286.5,117 h55 a16.5,16.5 0 0 1 16.5,16.5 v0 a16.5,16.5 0 0 1 -16.5,16.5 h-55 a16.5,16.5 0 0 1 -16.5,-16.5 v0 A16.5,16.5 0 0 1 274.833,121.833"/><g mask="url(#satori_om-id)" clip-path="url(#satori_cp-id)"><path fill="rgba(255,255,255,0.8)" d="M295.1 138L294.1 138L294.1 129.3L295.6 129.3L297.8 134.8Q297.9 135.0 298.0 135.3Q298.1 135.6 298.2 135.9Q298.3 136.2 298.4 136.6L298.4 136.6Q298.4 136.7 298.4 136.8L298.4 136.8Q298.5 136.7 298.5 136.6L298.5 136.6Q298.6 136.3 298.7 135.9Q298.8 135.6 298.9 135.3Q299 135.0 299.1 134.8L299.1 134.8L301.2 129.3L302.8 129.3L302.8 138L301.7 138L301.7 133.0Q301.7 132.7 301.7 132.4Q301.7 132.1 301.7 131.7Q301.7 131.3 301.7 130.9L301.7 130.9Q301.7 130.7 301.7 130.5L301.7 130.5Q301.7 130.7 301.6 131.0L301.6 131.0Q301.4 131.4 301.3 131.8Q301.2 132.2 301.1 132.5Q300.9 132.8 300.9 133.0L300.9 133.0L298.9 138L297.9 138L296.0 133.0Q295.9 132.8 295.8 132.5Q295.6 132.2 295.5 131.8Q295.4 131.4 295.2 131.0L295.2 131.0Q295.2 130.7 295.1 130.5L295.1 130.5Q295.1 130.7 295.1 130.8L295.1 130.8Q295.1 131.2 295.1 131.6Q295.1 132.0 295.1 132.4Q295.1 132.7 295.1 133.0L295.1 133.0L295.1 138ZM304.7 140.4L304.7 140.4L304.9 139.5L305.0 139.5Q305.4 139.6 305.6 139.5Q305.9 139.5 306.1 139.3Q306.3 139.0 306.5 138.6L306.5 138.6L306.7 138.0L304.2 131.4L305.3 131.4L306.7 135.3Q306.9 135.9 307.1 136.5L307.1 136.5Q307.1 136.8 307.2 137.0L307.2 137.0Q307.3 136.8 307.3 136.5L307.3 136.5Q307.5 135.9 307.7 135.3L307.7 135.3L309.1 131.4L310.3 131.4L307.4 139.0Q307.2 139.5 306.9 139.8Q306.6 140.2 306.3 140.3Q305.9 140.5 305.4 140.5L305.4 140.5Q305.2 140.5 304.9 140.5Q304.7 140.4 304.7 140.4ZM314.4 138.2L314.4 138.2Q313.5 138.2 312.8 137.8Q312.1 137.5 311.7 137.0Q311.3 136.4 311.3 135.7L311.3 135.7L312.4 135.7Q312.5 136.2 312.7 136.5Q313.0 136.8 313.5 137.0Q313.9 137.2 314.4 137.2L314.4 137.2Q315.0 137.2 315.5 137.0Q316.0 136.8 316.2 136.4Q316.5 136.1 316.5 135.6L316.5 135.6Q316.5 135.2 316.3 134.9Q316.0 134.7 315.7 134.5Q315.3 134.3 314.8 134.2L314.8 134.2L313.7 133.9Q312.7 133.6 312.1 133.0Q311.5 132.5 311.5 131.6L311.5 131.6Q311.5 130.9 311.9 130.3Q312.3 129.8 313.0 129.5Q313.7 129.2 314.5 129.2L314.5 129.2Q315.4 129.2 316.0 129.5Q316.7 129.8 317.1 130.3Q317.5 130.8 317.5 131.5L317.5 131.5L316.4 131.5Q316.3 130.8 315.8 130.5Q315.3 130.1 314.5 130.1L314.5 130.1Q313.9 130.1 313.5 130.3Q313.1 130.5 312.8 130.8Q312.6 131.1 312.6 131.6L312.6 131.6Q312.6 132.0 312.9 132.3Q313.2 132.6 313.6 132.7Q313.9 132.9 314.3 133.0L314.3 133.0L315.1 133.2Q315.5 133.3 315.9 133.5Q316.3 133.6 316.7 133.9Q317.1 134.2 317.4 134.6Q317.6 135.0 317.6 135.6L317.6 135.6Q317.6 136.3 317.2 136.9Q316.9 137.5 316.2 137.8Q315.4 138.2 314.4 138.2ZM322.9 138.1L322.9 138.1Q321.8 138.1 320.9 137.6Q320.0 137.0 319.5 136.0Q319.0 135.0 319.0 133.6L319.0 133.6Q319.0 132.3 319.5 131.2Q320.0 130.2 320.9 129.7Q321.8 129.2 322.9 129.2Q324.0 129.2 324.9 129.7Q325.7 130.2 326.2 131.2Q326.7 132.3 326.7 133.6L326.7 133.6Q326.7 135.0 326.2 136.0L326.2 136.0Q325.8 136.8 325.2 137.3L325.2 137.3L326.3 138.8L325.2 138.8L324.4 137.8Q323.7 138.1 322.9 138.1ZM323.8 136.9L322.5 135.3L323.7 135.3L324.6 136.5Q325.0 136.1 325.3 135.5L325.3 135.5Q325.7 134.8 325.7 133.6L325.7 133.6Q325.7 132.5 325.3 131.7Q324.9 131.0 324.3 130.6Q323.7 130.2 322.9 130.2L322.9 130.2Q322.1 130.2 321.5 130.6Q320.8 131.0 320.5 131.8Q320.1 132.5 320.1 133.6L320.1 133.6Q320.1 134.8 320.5 135.5Q320.8 136.3 321.5 136.7Q322.1 137.1 322.9 137.1L322.9 137.1Q323.4 137.1 323.8 136.9L323.8 136.9ZM333.7 138L328.5 138L328.5 129.3L329.6 129.3L329.6 137.0L333.7 137.0L333.7 138Z "/></g><defs><clipPath id="satori_bc-id-2-7" clip-path="url(#satori_cp-id)"><path x="372" y="117" width="81" height="33" d="M388.5,117 h48 a16.5,16.5 0 0 1 16.5,16.5 v0 a16.5,16.5 0 0 1 -16.5,16.5 h-48 a16.5,16.5 0 0 1 -16.5,-16.5 v0 a16.5,16.5 0 0 1 16.5,-16.5"/></clipPath></defs><mask id="satori_om-id-2-7"><rect x="373" y="118" width="79" height="31" fill="#fff" mask="url(#satori_om-id)"/><path width="81" height="33" fill="none" stroke="#000" stroke-width="2" d="M376.833,121.833 A16.5,16.5 0 0 1 388.5,117 h48 a16.5,16.5 0 0 1 16.5,16.5 v0 a16.5,16.5 0 0 1 -16.5,16.5 h-48 a16.5,16.5 0 0 1 -16.5,-16.5 v0 A16.5,16.5 0 0 1 376.833,121.833"/></mask><path x="372" y="117" width="81" height="33" fill="rgba(255,255,255,0.04)" d="M388.5,117 h48 a16.5,16.5 0 0 1 16.5,16.5 v0 a16.5,16.5 0 0 1 -16.5,16.5 h-48 a16.5,16.5 0 0 1 -16.5,-16.5 v0 a16.5,16.5 0 0 1 16.5,-16.5" clip-path="url(#satori_cp-id)" mask="url(#satori_om-id)"/><path width="81" height="33" clip-path="url(#satori_bc-id-2-7)" fill="none" stroke="rgba(255,255,255,0.1)" stroke-width="2" d="M376.833,121.833 A16.5,16.5 0 0 1 388.5,117 h48 a16.5,16.5 0 0 1 16.5,16.5 v0 a16.5,16.5 0 0 1 -16.5,16.5 h-48 a16.5,16.5 0 0 1 -16.5,-16.5 v0 A16.5,16.5 0 0 1 376.833,121.833"/><g mask="url(#satori_om-id)" clip-path="url(#satori_cp-id)"><path fill="rgba(255,255,255,0.8)" d="M397.2 138L396.1 138L396.1 129.3L401.3 129.3L401.3 130.3L397.2 130.3L397.2 133.2L400.9 133.2L400.9 134.2L397.2 134.2L397.2 138ZM404.1 138L403.0 138L403.0 131.4L404.1 131.4L404.1 138ZM403.5 130.4L403.5 130.4Q403.2 130.4 403.0 130.2Q402.8 130.0 402.8 129.7L402.8 129.7Q402.8 129.4 403.0 129.2Q403.2 129.0 403.5 129.0L403.5 129.0Q403.8 129.0 404.1 129.2Q404.3 129.4 404.3 129.7L404.3 129.7Q404.3 130.0 404.1 130.2Q403.8 130.4 403.5 130.4ZM408.6 140.6L408.6 140.6Q407.8 140.6 407.3 140.4Q406.8 140.2 406.4 139.9Q406.1 139.6 405.9 139.3L405.9 139.3L406.7 138.7Q406.9 138.9 407.1 139.1Q407.3 139.3 407.6 139.5Q408.0 139.7 408.6 139.7L408.6 139.7Q409.4 139.7 409.9 139.3Q410.4 138.9 410.4 138.1L410.4 138.1L410.4 136.8L410.3 136.8Q410.2 137.0 410.0 137.2Q409.8 137.5 409.4 137.7Q409.0 137.9 408.4 137.9L408.4 137.9Q407.6 137.9 407.0 137.5Q406.3 137.2 406.0 136.4Q405.6 135.7 405.6 134.7L405.6 134.7Q405.6 133.7 406.0 132.9Q406.3 132.2 406.9 131.8Q407.6 131.4 408.4 131.4L408.4 131.4Q409.0 131.4 409.4 131.6Q409.8 131.8 410.0 132.1Q410.2 132.3 410.3 132.5L410.3 132.5L410.4 132.5L410.4 131.4L411.4 131.4L411.4 138.2Q411.4 139.0 411.0 139.5Q410.7 140.1 410.0 140.3Q409.4 140.6 408.6 140.6ZM408.5 137.0L408.5 137.0Q409.1 137.0 409.5 136.7Q410.0 136.4 410.2 135.9Q410.4 135.4 410.4 134.7L410.4 134.7Q410.4 134.0 410.2 133.4Q410.0 132.9 409.6 132.6Q409.1 132.3 408.5 132.3L408.5 132.3Q407.9 132.3 407.5 132.6Q407.1 132.9 406.9 133.5Q406.7 134.0 406.7 134.7L406.7 134.7Q406.7 135.3 406.9 135.9Q407.1 136.4 407.5 136.7Q407.9 137.0 408.5 137.0ZM414.3 138L413.3 138L413.3 131.4L414.3 131.4L414.3 132.7Q414.4 132.3 414.7 132.0L414.7 132.0Q414.9 131.7 415.3 131.5Q415.7 131.3 416.1 131.3L416.1 131.3Q416.9 131.3 417.3 131.8L417.3 131.8Q417.7 132.1 417.8 132.7L417.8 132.7Q417.9 132.3 418.2 132.1L418.2 132.1Q418.5 131.7 418.9 131.5Q419.4 131.3 419.9 131.3L419.9 131.3Q420.4 131.3 420.9 131.6Q421.4 131.8 421.7 132.3Q421.9 132.8 421.9 133.6L421.9 133.6L421.9 138L420.9 138L420.9 133.6Q420.9 132.9 420.5 132.6Q420.1 132.3 419.6 132.3L419.6 132.3Q419.1 132.3 418.8 132.5Q418.5 132.7 418.3 133.0Q418.1 133.3 418.1 133.7L418.1 133.7L418.1 138L417.1 138L417.1 133.5Q417.1 133.0 416.7 132.6Q416.4 132.3 415.8 132.3L415.8 132.3Q415.4 132.3 415.1 132.5Q414.7 132.7 414.5 133.0Q414.3 133.4 414.3 133.9L414.3 133.9L414.3 138ZM425.6 138.2L425.6 138.2Q425 138.2 424.5 137.9Q424.0 137.7 423.7 137.2Q423.4 136.8 423.4 136.1L423.4 136.1Q423.4 135.6 423.6 135.2Q423.8 134.9 424.2 134.7Q424.6 134.5 425.0 134.4Q425.5 134.3 425.9 134.2L425.9 134.2Q426.5 134.1 426.9 134.1Q427.3 134.1 427.4 134.0Q427.6 133.9 427.6 133.6L427.6 133.6L427.6 133.6Q427.6 133.2 427.5 132.9Q427.3 132.6 427.0 132.4Q426.7 132.3 426.2 132.3L426.2 132.3Q425.8 132.3 425.4 132.4Q425.1 132.6 424.9 132.8Q424.7 133.0 424.6 133.3L424.6 133.3L423.6 132.9Q423.8 132.3 424.3 132.0Q424.7 131.6 425.2 131.5Q425.7 131.4 426.2 131.4L426.2 131.4Q426.5 131.4 427.0 131.4Q427.4 131.5 427.8 131.8Q428.2 132.0 428.4 132.5Q428.7 132.9 428.7 133.7L428.7 133.7L428.7 138L427.6 138L427.6 137.1L427.6 137.1Q427.5 137.3 427.2 137.6Q427.0 137.8 426.6 138.0Q426.2 138.2 425.6 138.2ZM425.8 137.2L425.8 137.2Q426.4 137.2 426.8 137.0Q427.2 136.8 427.4 136.4Q427.6 136.0 427.6 135.6L427.6 135.6L427.6 134.7Q427.6 134.8 427.3 134.9Q427.1 134.9 426.8 135.0Q426.6 135.0 426.3 135.0Q426.0 135.1 425.9 135.1L425.9 135.1Q425.5 135.1 425.2 135.3Q424.8 135.4 424.6 135.6Q424.4 135.8 424.4 136.2L424.4 136.2Q424.4 136.5 424.6 136.8Q424.8 137.0 425.1 137.1Q425.4 137.2 425.8 137.2Z "/></g><defs><clipPath id="satori_bc-id-2-8" clip-path="url(#satori_cp-id)"><path x="467" y="117" width="123" height="33" d="M483.5,117 h90 a16.5,16.5 0 0 1 16.5,16.5 v0 a16.5,16.5 0 0 1 -16.5,16.5 h-90 a16.5,16.5 0 0 1 -16.5,-16.5 v0 a16.5,16.5 0 0 1 16.5,-16.5"/></clipPath></defs><mask id="satori_om-id-2-8"><rect x="468" y="118" width="121" height="31" fill="#fff" mask="url(#satori_om-id)"/><path width="123" height="33" fill="none" stroke="#000" stroke-width="2" d="M471.833,121.833 A16.5,16.5 0 0 1 483.5,117 h90 a16.5,16.5 0 0 1 16.5,16.5 v0 a16.5,16.5 0 0 1 -16.5,16.5 h-90 a16.5,16.5 0 0 1 -16.5,-16.5 v0 A16.5,16.5 0 0 1 471.833,121.833"/></mask><path x="467" y="117" width="123" height="33" fill="rgba(255,255,255,0.04)" d="M483.5,117 h90 a16.5,16.5 0 0 1 16.5,16.5 v0 a16.5,16.5 0 0 1 -16.5,16.5 h-90 a16.5,16.5 0 0 1 -16.5,-16.5 v0 a16.5,16.5 0 0 1 16.5,-16.5" clip-path="url(#satori_cp-id)" mask="url(#satori_om-id)"/><path width="123" height="33" clip-path="url(#satori_bc-id-2-8)" fill="none" stroke="rgba(255,255,255,0.1)" stroke-width="2" d="M471.833,121.833 A16.5,16.5 0 0 1 483.5,117 h90 a16.5,16.5 0 0 1 16.5,16.5 v0 a16.5,16.5 0 0 1 -16.5,16.5 h-90 a16.5,16.5 0 0 1 -16.5,-16.5 v0 A16.5,16.5 0 0 1 471.833,121.833"/><g mask="url(#satori_om-id)" clip-path="url(#satori_cp-id)"><path fill="rgba(255,255,255,0.8)" d="M493.3 130.3L490.6 130.3L490.6 129.3L497.2 129.3L497.2 130.3L494.4 130.3L494.4 138L493.3 138L493.3 130.3ZM501.4 138.1L501.4 138.1Q500.5 138.1 499.8 137.7Q499.1 137.3 498.7 136.5Q498.4 135.8 498.4 134.8Q498.4 133.8 498.7 133.0Q499.1 132.2 499.7 131.8Q500.4 131.4 501.3 131.4L501.3 131.4Q501.8 131.4 502.3 131.5Q502.8 131.7 503.3 132.1Q503.7 132.5 503.9 133.1Q504.2 133.7 504.2 134.6L504.2 134.6L504.2 135.1L499.4 135.1Q499.4 135.7 499.7 136.2L499.7 136.2Q499.9 136.7 500.4 136.9Q500.8 137.2 501.4 137.2L501.4 137.2Q501.8 137.2 502.1 137.1Q502.5 137.0 502.7 136.8Q502.9 136.5 503.0 136.2L503.0 136.2L504.1 136.5Q503.9 137.0 503.5 137.3Q503.2 137.7 502.6 137.9Q502.1 138.1 501.4 138.1ZM499.4 134.2L499.4 134.2L503.1 134.2Q503.0 133.7 502.9 133.4L502.9 133.4Q502.7 132.9 502.3 132.6Q501.9 132.3 501.3 132.3Q500.7 132.3 500.3 132.6Q499.9 132.9 499.6 133.3L499.6 133.3Q499.5 133.7 499.4 134.2ZM505.7 129.3L506.7 129.3L506.7 138L505.7 138L505.7 129.3ZM511.3 138.1L511.3 138.1Q510.4 138.1 509.7 137.7Q509.0 137.3 508.6 136.5Q508.3 135.8 508.3 134.8Q508.3 133.8 508.6 133.0Q509.0 132.2 509.6 131.8Q510.3 131.4 511.2 131.4L511.2 131.4Q511.7 131.4 512.2 131.5Q512.7 131.7 513.2 132.1Q513.6 132.5 513.8 133.1Q514.1 133.7 514.1 134.6L514.1 134.6L514.1 135.1L509.3 135.1Q509.3 135.7 509.6 136.2L509.6 136.2Q509.8 136.7 510.3 136.9Q510.7 137.2 511.3 137.2L511.3 137.2Q511.7 137.2 512.0 137.1Q512.4 137.0 512.6 136.8Q512.8 136.5 512.9 136.2L512.9 136.2L514.0 136.5Q513.8 137.0 513.4 137.3Q513.1 137.7 512.5 137.9Q512.0 138.1 511.3 138.1ZM509.3 134.2L509.3 134.2L513.0 134.2Q512.9 133.7 512.8 133.4L512.8 133.4Q512.6 132.9 512.2 132.6Q511.8 132.3 511.2 132.3Q510.6 132.3 510.2 132.6Q509.8 132.9 509.5 133.3L509.5 133.3Q509.4 133.7 509.3 134.2ZM518.2 140.6L518.2 140.6Q517.5 140.6 517.0 140.4Q516.4 140.2 516.1 139.9Q515.7 139.6 515.5 139.3L515.5 139.3L516.4 138.7Q516.5 138.9 516.7 139.1Q516.9 139.3 517.3 139.5Q517.7 139.7 518.2 139.7L518.2 139.7Q519.0 139.7 519.5 139.3Q520.0 138.9 520.0 138.1L520.0 138.1L520.0 136.8L519.9 136.8Q519.8 137.0 519.6 137.2Q519.4 137.5 519.0 137.7Q518.7 137.9 518.0 137.9L518.0 137.9Q517.2 137.9 516.6 137.5Q516.0 137.2 515.6 136.4Q515.3 135.7 515.3 134.7L515.3 134.7Q515.3 133.7 515.6 132.9Q516.0 132.2 516.6 131.8Q517.2 131.4 518.0 131.4L518.0 131.4Q518.7 131.4 519.1 131.6Q519.4 131.8 519.6 132.1Q519.8 132.3 520.0 132.5L520.0 132.5L520.1 132.5L520.1 131.4L521.1 131.4L521.1 138.2Q521.1 139.0 520.7 139.5Q520.3 140.1 519.7 140.3Q519.0 140.6 518.2 140.6ZM518.2 137.0L518.2 137.0Q518.8 137.0 519.2 136.7Q519.6 136.4 519.8 135.9Q520.0 135.4 520.0 134.7L520.0 134.7Q520.0 134.0 519.8 133.4Q519.6 132.9 519.2 132.6Q518.8 132.3 518.2 132.3L518.2 132.3Q517.6 132.3 517.2 132.6Q516.7 132.9 516.5 133.5Q516.3 134.0 516.3 134.7L516.3 134.7Q516.3 135.3 516.5 135.9Q516.7 136.4 517.2 136.7Q517.6 137.0 518.2 137.0ZM524.0 138L522.9 138L522.9 131.4L523.9 131.4L523.9 132.5L524.0 132.5Q524.2 132.0 524.7 131.7Q525.1 131.4 525.7 131.4L525.7 131.4Q525.8 131.4 526.0 131.4Q526.2 131.4 526.3 131.4L526.3 131.4L526.3 132.4Q526.2 132.4 526.0 132.4Q525.8 132.4 525.6 132.4L525.6 132.4Q525.2 132.4 524.8 132.6Q524.4 132.8 524.2 133.1Q524.0 133.5 524.0 133.9L524.0 133.9L524.0 138ZM529.3 138.2L529.3 138.2Q528.7 138.2 528.2 137.9Q527.6 137.7 527.3 137.2Q527.0 136.8 527.0 136.1L527.0 136.1Q527.0 135.6 527.3 135.2Q527.5 134.9 527.9 134.7Q528.2 134.5 528.7 134.4Q529.1 134.3 529.6 134.2L529.6 134.2Q530.2 134.1 530.6 134.1Q530.9 134.1 531.1 134.0Q531.3 133.9 531.3 133.6L531.3 133.6L531.3 133.6Q531.3 133.2 531.1 132.9Q531.0 132.6 530.7 132.4Q530.4 132.3 529.9 132.3L529.9 132.3Q529.4 132.3 529.1 132.4Q528.8 132.6 528.6 132.8Q528.4 133.0 528.3 133.3L528.3 133.3L527.2 132.9Q527.5 132.3 527.9 132.0Q528.3 131.6 528.9 131.5Q529.4 131.4 529.9 131.4L529.9 131.4Q530.2 131.4 530.6 131.4Q531.0 131.5 531.4 131.8Q531.8 132.0 532.1 132.5Q532.3 132.9 532.3 133.7L532.3 133.7L532.3 138L531.3 138L531.3 137.1L531.2 137.1Q531.1 137.3 530.9 137.6Q530.6 137.8 530.2 138.0Q529.8 138.2 529.3 138.2ZM529.5 137.2L529.5 137.2Q530.0 137.2 530.5 137.0Q530.9 136.8 531.1 136.4Q531.3 136.0 531.3 135.6L531.3 135.6L531.3 134.7Q531.2 134.8 531.0 134.9Q530.8 134.9 530.5 135.0Q530.2 135.0 530.0 135.0Q529.7 135.1 529.6 135.1L529.6 135.1Q529.2 135.1 528.8 135.3Q528.5 135.4 528.3 135.6Q528.1 135.8 528.1 136.2L528.1 136.2Q528.1 136.5 528.3 136.8Q528.5 137.0 528.8 137.1Q529.1 137.2 529.5 137.2ZM535.2 138L534.2 138L534.2 131.4L535.2 131.4L535.2 132.7Q535.3 132.3 535.6 132.0L535.6 132.0Q535.8 131.7 536.2 131.5Q536.6 131.3 537.1 131.3L537.1 131.3Q537.8 131.3 538.2 131.8L538.2 131.8Q538.6 132.1 538.7 132.7L538.7 132.7Q538.8 132.3 539.1 132.1L539.1 132.1Q539.4 131.7 539.8 131.5Q540.3 131.3 540.8 131.3L540.8 131.3Q541.4 131.3 541.8 131.6Q542.3 131.8 542.6 132.3Q542.8 132.8 542.8 133.6L542.8 133.6L542.8 138L541.8 138L541.8 133.6Q541.8 132.9 541.4 132.6Q541.0 132.3 540.5 132.3L540.5 132.3Q540.0 132.3 539.7 132.5Q539.4 132.7 539.2 133.0Q539.0 133.3 539.0 133.7L539.0 133.7L539.0 138L538.0 138L538.0 133.5Q538.0 133.0 537.6 132.6Q537.3 132.3 536.7 132.3L536.7 132.3Q536.3 132.3 536.0 132.5Q535.7 132.7 535.4 133.0Q535.2 133.4 535.2 133.9L535.2 133.9L535.2 138Z M548.6 138L547.5 138L550.6 129.3L551.9 129.3L555.1 138L553.9 138L553.1 135.6L549.5 135.6L548.6 138ZM549.8 134.6L552.7 134.6L552.1 132.8Q551.9 132.3 551.7 131.6L551.7 131.6Q551.5 131.0 551.3 130.2L551.3 130.2Q551.0 131.0 550.8 131.6L550.8 131.6Q550.6 132.4 550.4 132.8L550.4 132.8L549.8 134.6ZM557.6 138L556.5 138L556.5 129.3L559.5 129.3Q560.5 129.3 561.1 129.6Q561.8 130.0 562.1 130.6Q562.4 131.3 562.4 132.0Q562.4 132.8 562.1 133.5Q561.8 134.1 561.2 134.5Q560.5 134.8 559.5 134.8L559.5 134.8L557.6 134.8L557.6 138ZM557.6 130.2L557.6 133.9L559.4 133.9Q560.1 133.9 560.5 133.6Q561.0 133.4 561.1 133.0Q561.3 132.6 561.3 132.0Q561.3 131.5 561.1 131.1Q561.0 130.7 560.5 130.5Q560.1 130.2 559.4 130.2L559.4 130.2L557.6 130.2ZM564.1 129.3L565.3 129.3L565.3 138L564.1 138L564.1 129.3Z "/></g><mask id="satori_om-id-3"><rect x="180" y="194" width="501" height="38" fill="#fff" mask="url(#satori_om-id)"/></mask><defs><clipPath id="satori_bc-id-3-0" clip-path="url(#satori_cp-id)"><path x="180" y="194" width="111" height="38" d="M199,194 h73 a19,19 0 0 1 19,19 v0 a19,19 0 0 1 -19,19 h-73 a19,19 0 0 1 -19,-19 v0 a19,19 0 0 1 19,-19"/></clipPath></defs><mask id="satori_om-id-3-0"><rect x="181" y="195" width="109" height="36" fill="#fff" mask="url(#satori_om-id)"/><path width="111" height="38" fill="none" stroke="#000" stroke-width="2" d="M185.565,199.565 A19,19 0 0 1 199,194 h73 a19,19 0 0 1 19,19 v0 a19,19 0 0 1 -19,19 h-73 a19,19 0 0 1 -19,-19 v0 A19,19 0 0 1 185.565,199.565"/></mask><path x="180" y="194" width="111" height="38" fill="rgba(255,255,255,0.05)" d="M199,194 h73 a19,19 0 0 1 19,19 v0 a19,19 0 0 1 -19,19 h-73 a19,19 0 0 1 -19,-19 v0 a19,19 0 0 1 19,-19" clip-path="url(#satori_cp-id)" mask="url(#satori_om-id)"/><path width="111" height="38" clip-path="url(#satori_bc-id-3-0)" fill="none" stroke="rgba(255,255,255,0.15)" stroke-width="2" d="M185.565,199.565 A19,19 0 0 1 199,194 h73 a19,19 0 0 1 19,19 v0 a19,19 0 0 1 -19,19 h-73 a19,19 0 0 1 -19,-19 v0 A19,19 0 0 1 185.565,199.565"/><mask id="satori_om-id-3-0-0"><rect x="205" y="209" width="8" height="8" fill="#fff" mask="url(#satori_om-id)"/></mask><path x="205" y="209" width="8" height="8" fill="#ffffff" d="M209,209 h0 a4,4 0 0 1 4,4 v0 a4,4 0 0 1 -4,4 h0 a4,4 0 0 1 -4,-4 v0 a4,4 0 0 1 4,-4" clip-path="url(#satori_cp-id)" mask="url(#satori_om-id)"/><g mask="url(#satori_om-id)" clip-path="url(#satori_cp-id)"><path fill="#fff" d="M228.0 218.1L228.0 218.1Q226.7 218.1 225.8 217.5Q224.8 216.9 224.3 215.9Q223.8 214.8 223.8 213.3L223.8 213.3Q223.8 211.8 224.3 210.7Q224.8 209.6 225.8 209.0Q226.7 208.4 227.9 208.4L227.9 208.4Q228.7 208.4 229.3 208.6Q230.0 208.9 230.5 209.3Q231.0 209.7 231.4 210.3Q231.7 210.8 231.8 211.5L231.8 211.5L230.6 211.5Q230.4 211.0 230.2 210.7Q229.9 210.3 229.6 210.1Q229.3 209.8 228.9 209.7Q228.4 209.5 227.9 209.5L227.9 209.5Q227.1 209.5 226.4 210.0Q225.7 210.4 225.3 211.2Q224.9 212.1 224.9 213.3L224.9 213.3Q224.9 214.5 225.4 215.3Q225.8 216.1 226.4 216.6Q227.1 217.0 228.0 217.0L228.0 217.0Q228.8 217.0 229.4 216.7Q230.0 216.3 230.4 215.7L230.4 215.7Q230.7 215.1 230.7 214.3L230.7 214.3L228.3 214.3L228.3 213.2L231.9 213.2L231.9 214.3Q231.9 215.5 231.4 216.3Q230.9 217.2 230.0 217.7Q229.1 218.1 228.0 218.1ZM234.8 218L233.7 218L233.7 210.9L234.8 210.9L234.8 218ZM234.3 209.7L234.3 209.7Q234.0 209.7 233.7 209.5Q233.5 209.3 233.5 209.0L233.5 209.0Q233.5 208.7 233.7 208.4Q234.0 208.2 234.3 208.2L234.3 208.2Q234.6 208.2 234.8 208.4Q235.1 208.7 235.1 209.0L235.1 209.0Q235.1 209.3 234.8 209.5Q234.6 209.7 234.3 209.7ZM238.2 210.9L239.6 210.9L239.6 211.9L238.2 211.9L238.2 216.2Q238.2 216.6 238.4 216.9Q238.6 217.1 239.0 217.1L239.0 217.1Q239.1 217.1 239.3 217.0Q239.5 217.0 239.6 217.0L239.6 217.0L239.8 218.0Q239.7 218.0 239.4 218.1Q239.2 218.1 239.0 218.1L239.0 218.1Q238.1 218.1 237.6 217.6Q237.0 217.1 237.0 216.2L237.0 216.2L237.0 211.9L236.0 211.9L236.0 210.9L237.0 210.9L237.0 209.2L238.2 209.2L238.2 210.9ZM242.4 218L241.2 218L241.2 208.5L242.4 208.5L242.4 212.6L247.4 212.6L247.4 208.5L248.6 208.5L248.6 218L247.4 218L247.4 213.7L242.4 213.7L242.4 218ZM253.2 218.1L253.2 218.1Q252.5 218.1 251.9 217.8Q251.4 217.5 251.1 216.9Q250.8 216.3 250.8 215.4L250.8 215.4L250.8 210.9L251.9 210.9L251.9 215.3Q251.9 216.1 252.3 216.6Q252.8 217.1 253.5 217.1L253.5 217.1Q254.0 217.1 254.4 216.8Q254.8 216.6 255.1 216.2Q255.3 215.8 255.3 215.2L255.3 215.2L255.3 210.9L256.4 210.9L256.4 218L255.3 218L255.3 216.7Q255.0 217.4 254.6 217.7L254.6 217.7Q254.0 218.1 253.2 218.1ZM261.7 218.2L261.7 218.2Q261.1 218.2 260.7 217.9Q260.2 217.7 260.0 217.4Q259.8 217.1 259.7 216.9L259.7 216.9L259.6 216.9L259.6 218L258.5 218L258.5 208.5L259.6 208.5L259.6 212.0L259.7 212.0Q259.8 211.8 260.0 211.6Q260.2 211.3 260.6 211.0Q261.0 210.8 261.7 210.8L261.7 210.8Q262.6 210.8 263.3 211.3Q264.0 211.7 264.4 212.5Q264.7 213.3 264.7 214.5L264.7 214.5Q264.7 215.6 264.4 216.4Q264.0 217.3 263.3 217.7Q262.6 218.2 261.7 218.2ZM261.6 217.1L261.6 217.1Q262.2 217.1 262.7 216.8Q263.1 216.4 263.4 215.8Q263.6 215.2 263.6 214.5L263.6 214.5Q263.6 213.7 263.4 213.1Q263.1 212.5 262.7 212.2Q262.2 211.8 261.6 211.8L261.6 211.8Q260.9 211.8 260.5 212.2Q260.0 212.5 259.8 213.1Q259.6 213.7 259.6 214.5L259.6 214.5Q259.6 215.2 259.8 215.8Q260.0 216.5 260.5 216.8Q260.9 217.1 261.6 217.1Z "/></g><defs><clipPath id="satori_bc-id-3-1" clip-path="url(#satori_cp-id)"><path x="307" y="194" width="121" height="38" d="M326,194 h83 a19,19 0 0 1 19,19 v0 a19,19 0 0 1 -19,19 h-83 a19,19 0 0 1 -19,-19 v0 a19,19 0 0 1 19,-19"/></clipPath></defs><mask id="satori_om-id-3-1"><rect x="308" y="195" width="119" height="36" fill="#fff" mask="url(#satori_om-id)"/><path width="121" height="38" fill="none" stroke="#000" stroke-width="2" d="M312.565,199.565 A19,19 0 0 1 326,194 h83 a19,19 0 0 1 19,19 v0 a19,19 0 0 1 -19,19 h-83 a19,19 0 0 1 -19,-19 v0 A19,19 0 0 1 312.565,199.565"/></mask><path x="307" y="194" width="121" height="38" fill="rgba(52,152,219,0.08)" d="M326,194 h83 a19,19 0 0 1 19,19 v0 a19,19 0 0 1 -19,19 h-83 a19,19 0 0 1 -19,-19 v0 a19,19 0 0 1 19,-19" clip-path="url(#satori_cp-id)" mask="url(#satori_om-id)"/><path width="121" height="38" clip-path="url(#satori_bc-id-3-1)" fill="none" stroke="rgba(52,152,219,0.3)" stroke-width="2" d="M312.565,199.565 A19,19 0 0 1 326,194 h83 a19,19 0 0 1 19,19 v0 a19,19 0 0 1 -19,19 h-83 a19,19 0 0 1 -19,-19 v0 A19,19 0 0 1 312.565,199.565"/><mask id="satori_om-id-3-1-0"><rect x="332" y="209" width="8" height="8" fill="#fff" mask="url(#satori_om-id)"/></mask><path x="332" y="209" width="8" height="8" fill="#3498db" d="M336,209 h0 a4,4 0 0 1 4,4 v0 a4,4 0 0 1 -4,4 h0 a4,4 0 0 1 -4,-4 v0 a4,4 0 0 1 4,-4" clip-path="url(#satori_cp-id)" mask="url(#satori_om-id)"/><g mask="url(#satori_om-id)" clip-path="url(#satori_cp-id)"><path fill="#fff" d="M356.7 218L351.1 218L351.1 208.5L352.3 208.5L352.3 216.9L356.7 216.9L356.7 218ZM359.5 218L358.4 218L358.4 210.9L359.5 210.9L359.5 218ZM358.9 209.7L358.9 209.7Q358.6 209.7 358.4 209.5Q358.1 209.3 358.1 209.0L358.1 209.0Q358.1 208.7 358.4 208.4Q358.6 208.2 358.9 208.2L358.9 208.2Q359.3 208.2 359.5 208.4Q359.7 208.7 359.7 209.0L359.7 209.0Q359.7 209.3 359.5 209.5Q359.3 209.7 358.9 209.7ZM362.6 213.7L362.6 213.7L362.6 218L361.5 218L361.5 210.9L362.6 210.9L362.6 212.2Q362.9 211.6 363.4 211.2L363.4 211.2Q364.0 210.8 364.8 210.8L364.8 210.8Q365.5 210.8 366.0 211.1Q366.6 211.4 366.9 212.0Q367.2 212.6 367.2 213.5L367.2 213.5L367.2 218L366.0 218L366.0 213.6Q366.0 212.8 365.6 212.3Q365.2 211.8 364.4 211.8L364.4 211.8Q363.9 211.8 363.5 212.1Q363.1 212.3 362.9 212.7Q362.6 213.1 362.6 213.7ZM370.3 218L369.2 218L369.2 208.5L370.3 208.5L370.3 214.0L370.5 214.0L373.5 210.9L374.9 210.9L371.9 214.0L375.1 218L373.7 218L371.1 214.7L370.3 215.4L370.3 218ZM379.3 218.2L379.3 218.2Q378.3 218.2 377.5 217.7Q376.8 217.2 376.4 216.4Q376.0 215.6 376.0 214.5Q376.0 213.4 376.4 212.6Q376.8 211.8 377.5 211.3Q378.2 210.8 379.2 210.8L379.2 210.8Q379.7 210.8 380.3 211.0Q380.8 211.2 381.3 211.6Q381.7 212.0 382.0 212.7Q382.3 213.4 382.3 214.4L382.3 214.4L382.3 214.8L377.1 214.8Q377.2 215.5 377.4 216.0L377.4 216.0Q377.7 216.6 378.2 216.9Q378.7 217.1 379.3 217.1L379.3 217.1Q379.7 217.1 380.1 217.0Q380.4 216.9 380.7 216.7Q380.9 216.4 381.0 216.0L381.0 216.0L382.1 216.3Q382.0 216.9 381.6 217.3Q381.2 217.7 380.6 217.9Q380.0 218.2 379.3 218.2ZM377.1 213.9L377.1 213.9L381.1 213.9Q381.1 213.4 380.9 213.0L380.9 213.0Q380.7 212.4 380.2 212.1Q379.8 211.8 379.2 211.8Q378.5 211.8 378.1 212.1Q377.6 212.5 377.4 213.0L377.4 213.0Q377.2 213.4 377.1 213.9ZM386.6 218.2L386.6 218.2Q385.7 218.2 385.0 217.7Q384.3 217.3 383.9 216.4Q383.6 215.6 383.6 214.5L383.6 214.5Q383.6 213.3 383.9 212.5Q384.3 211.7 385.0 211.3Q385.7 210.8 386.6 210.8L386.6 210.8Q387.3 210.8 387.7 211.0Q388.1 211.3 388.3 211.6Q388.5 211.8 388.6 212.0L388.6 212.0L388.7 212.0L388.7 208.5L389.9 208.5L389.9 218L388.7 218L388.7 216.9L388.6 216.9Q388.5 217.1 388.3 217.4Q388.1 217.7 387.6 217.9Q387.2 218.2 386.6 218.2ZM386.7 217.1L386.7 217.1Q387.4 217.1 387.8 216.8Q388.3 216.5 388.5 215.8Q388.7 215.2 388.7 214.5L388.7 214.5Q388.7 213.7 388.5 213.1Q388.3 212.5 387.8 212.2Q387.4 211.8 386.7 211.8L386.7 211.8Q386.1 211.8 385.6 212.2Q385.2 212.5 384.9 213.1Q384.7 213.7 384.7 214.5L384.7 214.5Q384.7 215.2 384.9 215.8Q385.2 216.4 385.6 216.8Q386.1 217.1 386.7 217.1ZM392.0 208.5L393.2 208.5L393.2 218L392.0 218L392.0 208.5ZM396.5 213.7L396.5 213.7L396.5 218L395.3 218L395.3 210.9L396.4 210.9L396.5 212.2Q396.8 211.6 397.2 211.2L397.2 211.2Q397.8 210.8 398.6 210.8L398.6 210.8Q399.3 210.8 399.9 211.1Q400.4 211.4 400.7 212.0Q401.0 212.6 401.0 213.5L401.0 213.5L401.0 218L399.9 218L399.9 213.6Q399.9 212.8 399.5 212.3Q399.0 211.8 398.3 211.8L398.3 211.8Q397.8 211.8 397.4 212.1Q397.0 212.3 396.7 212.7Q396.5 213.1 396.5 213.7Z "/></g><defs><clipPath id="satori_bc-id-3-2" clip-path="url(#satori_cp-id)"><path x="444" y="194" width="120" height="38" d="M463,194 h82 a19,19 0 0 1 19,19 v0 a19,19 0 0 1 -19,19 h-82 a19,19 0 0 1 -19,-19 v0 a19,19 0 0 1 19,-19"/></clipPath></defs><mask id="satori_om-id-3-2"><rect x="445" y="195" width="118" height="36" fill="#fff" mask="url(#satori_om-id)"/><path width="120" height="38" fill="none" stroke="#000" stroke-width="2" d="M449.565,199.565 A19,19 0 0 1 463,194 h82 a19,19 0 0 1 19,19 v0 a19,19 0 0 1 -19,19 h-82 a19,19 0 0 1 -19,-19 v0 A19,19 0 0 1 449.565,199.565"/></mask><path x="444" y="194" width="120" height="38" fill="rgba(0,255,204,0.08)" d="M463,194 h82 a19,19 0 0 1 19,19 v0 a19,19 0 0 1 -19,19 h-82 a19,19 0 0 1 -19,-19 v0 a19,19 0 0 1 19,-19" clip-path="url(#satori_cp-id)" mask="url(#satori_om-id)"/><path width="120" height="38" clip-path="url(#satori_bc-id-3-2)" fill="none" stroke="rgba(0,255,204,0.3)" stroke-width="2" d="M449.565,199.565 A19,19 0 0 1 463,194 h82 a19,19 0 0 1 19,19 v0 a19,19 0 0 1 -19,19 h-82 a19,19 0 0 1 -19,-19 v0 A19,19 0 0 1 449.565,199.565"/><mask id="satori_om-id-3-2-0"><rect x="469" y="209" width="8" height="8" fill="#fff" mask="url(#satori_om-id)"/></mask><path x="469" y="209" width="8" height="8" fill="#00ffcc" d="M473,209 h0 a4,4 0 0 1 4,4 v0 a4,4 0 0 1 -4,4 h0 a4,4 0 0 1 -4,-4 v0 a4,4 0 0 1 4,-4" clip-path="url(#satori_cp-id)" mask="url(#satori_om-id)"/><g mask="url(#satori_om-id)" clip-path="url(#satori_cp-id)"><path fill="#fff" d="M489.3 218L488.1 218L488.1 208.5L491.4 208.5Q492.5 208.5 493.2 208.9Q493.9 209.3 494.3 210.0Q494.6 210.7 494.6 211.6Q494.6 212.4 494.3 213.1Q493.9 213.8 493.2 214.2Q492.5 214.6 491.4 214.6L491.4 214.6L489.3 214.6L489.3 218ZM489.3 209.6L489.3 213.5L491.3 213.5Q492.1 213.5 492.5 213.3Q493.0 213.0 493.2 212.6Q493.4 212.1 493.4 211.6Q493.4 211.0 493.2 210.6Q493.0 210.1 492.5 209.9Q492.1 209.6 491.3 209.6L491.3 209.6L489.3 209.6ZM499.2 218.2L499.2 218.2Q498.2 218.2 497.5 217.7Q496.8 217.2 496.4 216.4Q496.0 215.6 496.0 214.5L496.0 214.5Q496.0 213.4 496.4 212.6Q496.8 211.7 497.5 211.3Q498.2 210.8 499.2 210.8L499.2 210.8Q500.2 210.8 500.9 211.3Q501.6 211.7 502.0 212.6Q502.4 213.4 502.4 214.5L502.4 214.5Q502.4 215.6 502.0 216.4Q501.6 217.2 500.9 217.7Q500.2 218.2 499.2 218.2ZM499.2 217.1L499.2 217.1Q499.9 217.1 500.4 216.8Q500.8 216.4 501.1 215.8Q501.3 215.2 501.3 214.5L501.3 214.5Q501.3 213.8 501.1 213.2Q500.8 212.6 500.4 212.2Q499.9 211.8 499.2 211.8L499.2 211.8Q498.5 211.8 498.0 212.2Q497.6 212.6 497.3 213.2Q497.1 213.8 497.1 214.5L497.1 214.5Q497.1 215.2 497.3 215.8Q497.6 216.4 498.0 216.8Q498.5 217.1 499.2 217.1ZM505.2 218L504.1 218L504.1 210.9L505.2 210.9L505.2 212.0L505.3 212.0Q505.5 211.5 506.0 211.1Q506.5 210.8 507.1 210.8L507.1 210.8Q507.2 210.8 507.4 210.8Q507.6 210.8 507.7 210.8L507.7 210.8L507.7 212.0Q507.6 212.0 507.4 211.9Q507.2 211.9 507.0 211.9L507.0 211.9Q506.5 211.9 506.1 212.1Q505.7 212.3 505.5 212.7Q505.2 213.1 505.2 213.6L505.2 213.6L505.2 218ZM510.3 210.9L511.8 210.9L511.8 211.9L510.3 211.9L510.3 216.2Q510.3 216.6 510.5 216.9Q510.7 217.1 511.2 217.1L511.2 217.1Q511.3 217.1 511.4 217.0Q511.6 217.0 511.7 217.0L511.7 217.0L512.0 218.0Q511.8 218.0 511.6 218.1Q511.4 218.1 511.1 218.1L511.1 218.1Q510.2 218.1 509.7 217.6Q509.2 217.1 509.2 216.2L509.2 216.2L509.2 211.9L508.1 211.9L508.1 210.9L509.2 210.9L509.2 209.2L510.3 209.2L510.3 210.9ZM514.9 210.9L516.5 210.9L516.5 211.9L514.9 211.9L514.9 218L513.8 218L513.8 211.9L512.4 211.9L512.4 210.9L513.8 210.9L513.8 210.0Q513.8 209.3 514.1 208.9Q514.3 208.5 514.8 208.3Q515.3 208.1 515.8 208.1L515.8 208.1Q516.2 208.1 516.5 208.2Q516.7 208.2 516.9 208.3L516.9 208.3L516.5 209.3Q516.4 209.2 516.3 209.2Q516.2 209.2 515.9 209.2L515.9 209.2Q515.4 209.2 515.2 209.4Q514.9 209.7 514.9 210.2L514.9 210.2L514.9 210.9ZM520.9 218.2L520.9 218.2Q520.0 218.2 519.3 217.7Q518.5 217.2 518.1 216.4Q517.7 215.6 517.7 214.5L517.7 214.5Q517.7 213.4 518.1 212.6Q518.5 211.7 519.3 211.3Q520.0 210.8 520.9 210.8L520.9 210.8Q521.9 210.8 522.6 211.3Q523.4 211.7 523.8 212.6Q524.2 213.4 524.2 214.5L524.2 214.5Q524.2 215.6 523.8 216.4Q523.4 217.2 522.6 217.7Q521.9 218.2 520.9 218.2ZM520.9 217.1L520.9 217.1Q521.7 217.1 522.1 216.8Q522.6 216.4 522.8 215.8Q523.0 215.2 523.0 214.5L523.0 214.5Q523.0 213.8 522.8 213.2Q522.6 212.6 522.1 212.2Q521.7 211.8 520.9 211.8L520.9 211.8Q520.2 211.8 519.8 212.2Q519.3 212.6 519.1 213.2Q518.9 213.8 518.9 214.5L518.9 214.5Q518.9 215.2 519.1 215.8Q519.3 216.4 519.8 216.8Q520.2 217.1 520.9 217.1ZM525.9 208.5L527.0 208.5L527.0 218L525.9 218L525.9 208.5ZM530.1 218L529.0 218L529.0 210.9L530.1 210.9L530.1 218ZM529.6 209.7L529.6 209.7Q529.3 209.7 529.0 209.5Q528.8 209.3 528.8 209.0L528.8 209.0Q528.8 208.7 529.0 208.4Q529.3 208.2 529.6 208.2L529.6 208.2Q529.9 208.2 530.1 208.4Q530.4 208.7 530.4 209.0L530.4 209.0Q530.4 209.3 530.1 209.5Q529.9 209.7 529.6 209.7ZM535.0 218.2L535.0 218.2Q534.1 218.2 533.3 217.7Q532.6 217.2 532.2 216.4Q531.8 215.6 531.8 214.5L531.8 214.5Q531.8 213.4 532.2 212.6Q532.6 211.7 533.3 211.3Q534.1 210.8 535.0 210.8L535.0 210.8Q536.0 210.8 536.7 211.3Q537.5 211.7 537.9 212.6Q538.3 213.4 538.3 214.5L538.3 214.5Q538.3 215.6 537.9 216.4Q537.5 217.2 536.7 217.7Q536.0 218.2 535.0 218.2ZM535.0 217.1L535.0 217.1Q535.8 217.1 536.2 216.8Q536.7 216.4 536.9 215.8Q537.1 215.2 537.1 214.5L537.1 214.5Q537.1 213.8 536.9 213.2Q536.7 212.6 536.2 212.2Q535.8 211.8 535.0 211.8L535.0 211.8Q534.3 211.8 533.9 212.2Q533.4 212.6 533.2 213.2Q533.0 213.8 533.0 214.5L533.0 214.5Q533.0 215.2 533.2 215.8Q533.4 216.4 533.9 216.8Q534.3 217.1 535.0 217.1Z "/></g><defs><clipPath id="satori_bc-id-3-3" clip-path="url(#satori_cp-id)"><path x="580" y="194" width="101" height="38" d="M599,194 h63 a19,19 0 0 1 19,19 v0 a19,19 0 0 1 -19,19 h-63 a19,19 0 0 1 -19,-19 v0 a19,19 0 0 1 19,-19"/></clipPath></defs><mask id="satori_om-id-3-3"><rect x="581" y="195" width="99" height="36" fill="#fff" mask="url(#satori_om-id)"/><path width="101" height="38" fill="none" stroke="#000" stroke-width="2" d="M585.565,199.565 A19,19 0 0 1 599,194 h63 a19,19 0 0 1 19,19 v0 a19,19 0 0 1 -19,19 h-63 a19,19 0 0 1 -19,-19 v0 A19,19 0 0 1 585.565,199.565"/></mask><path x="580" y="194" width="101" height="38" fill="rgba(231,76,60,0.08)" d="M599,194 h63 a19,19 0 0 1 19,19 v0 a19,19 0 0 1 -19,19 h-63 a19,19 0 0 1 -19,-19 v0 a19,19 0 0 1 19,-19" clip-path="url(#satori_cp-id)" mask="url(#satori_om-id)"/><path width="101" height="38" clip-path="url(#satori_bc-id-3-3)" fill="none" stroke="rgba(231,76,60,0.3)" stroke-width="2" d="M585.565,199.565 A19,19 0 0 1 599,194 h63 a19,19 0 0 1 19,19 v0 a19,19 0 0 1 -19,19 h-63 a19,19 0 0 1 -19,-19 v0 A19,19 0 0 1 585.565,199.565"/><mask id="satori_om-id-3-3-0"><rect x="605" y="209" width="8" height="8" fill="#fff" mask="url(#satori_om-id)"/></mask><path x="605" y="209" width="8" height="8" fill="#e74c3c" d="M609,209 h0 a4,4 0 0 1 4,4 v0 a4,4 0 0 1 -4,4 h0 a4,4 0 0 1 -4,-4 v0 a4,4 0 0 1 4,-4" clip-path="url(#satori_cp-id)" mask="url(#satori_om-id)"/><g mask="url(#satori_om-id)" clip-path="url(#satori_cp-id)"><path fill="#fff" d="M630.0 218L624.1 218L624.1 208.5L629.9 208.5L629.9 209.6L625.3 209.6L625.3 212.7L629.6 212.7L629.6 213.8L625.3 213.8L625.3 216.9L630.0 216.9L630.0 218ZM633.0 218L631.8 218L631.8 210.9L632.9 210.9L632.9 212.2Q633.1 211.8 633.3 211.5L633.3 211.5Q633.6 211.2 634.0 211.0Q634.5 210.8 634.9 210.8L634.9 210.8Q635.7 210.8 636.2 211.3L636.2 211.3Q636.6 211.6 636.7 212.2L636.7 212.2Q636.9 211.9 637.1 211.6L637.1 211.6Q637.4 211.2 637.9 211.0Q638.4 210.8 639.0 210.8L639.0 210.8Q639.6 210.8 640.1 211.0Q640.6 211.3 640.9 211.8Q641.2 212.4 641.2 213.2L641.2 213.2L641.2 218L640.1 218L640.1 213.2Q640.1 212.5 639.6 212.1Q639.2 211.8 638.6 211.8L638.6 211.8Q638.1 211.8 637.8 212.0Q637.5 212.2 637.3 212.6Q637.1 212.9 637.1 213.4L637.1 213.4L637.1 218L635.9 218L635.9 213.1Q635.9 212.5 635.5 212.2Q635.1 211.8 634.5 211.8L634.5 211.8Q634.1 211.8 633.8 212.0Q633.4 212.2 633.2 212.6Q633.0 213.0 633.0 213.5L633.0 213.5L633.0 218ZM645.2 218.2L645.2 218.2Q644.5 218.2 644.0 217.9Q643.4 217.7 643.1 217.2Q642.8 216.7 642.8 216.0L642.8 216.0Q642.8 215.4 643.0 215.0Q643.3 214.6 643.7 214.4Q644.1 214.2 644.6 214.1Q645.0 214.0 645.5 213.9L645.5 213.9Q646.2 213.8 646.6 213.8Q647.0 213.7 647.2 213.6Q647.4 213.5 647.4 213.2L647.4 213.2L647.4 213.2Q647.4 212.8 647.2 212.5Q647.0 212.1 646.7 212.0Q646.4 211.8 645.9 211.8L645.9 211.8Q645.4 211.8 645.0 212.0Q644.6 212.1 644.4 212.4Q644.2 212.6 644.1 212.9L644.1 212.9L643.0 212.5Q643.2 211.8 643.7 211.5Q644.2 211.1 644.7 211.0Q645.3 210.8 645.8 210.8L645.8 210.8Q646.2 210.8 646.6 210.9Q647.1 211.0 647.5 211.2Q647.9 211.5 648.2 212.0Q648.5 212.5 648.5 213.3L648.5 213.3L648.5 218L647.4 218L647.4 217.0L647.3 217.0Q647.2 217.3 646.9 217.5Q646.6 217.8 646.2 218.0Q645.8 218.2 645.2 218.2ZM645.4 217.2L645.4 217.2Q646.0 217.2 646.5 216.9Q646.9 216.7 647.1 216.3Q647.4 215.9 647.4 215.4L647.4 215.4L647.4 214.5Q647.3 214.5 647.1 214.6Q646.8 214.7 646.5 214.7Q646.2 214.8 645.9 214.8Q645.6 214.8 645.5 214.9L645.5 214.9Q645.1 214.9 644.7 215.0Q644.4 215.2 644.1 215.4Q643.9 215.6 643.9 216.0L643.9 216.0Q643.9 216.4 644.1 216.7Q644.3 216.9 644.6 217.0Q645.0 217.2 645.4 217.2ZM651.6 218L650.5 218L650.5 210.9L651.6 210.9L651.6 218ZM651.1 209.7L651.1 209.7Q650.8 209.7 650.5 209.5Q650.3 209.3 650.3 209.0L650.3 209.0Q650.3 208.7 650.5 208.4Q650.8 208.2 651.1 208.2L651.1 208.2Q651.4 208.2 651.6 208.4Q651.9 208.7 651.9 209.0L651.9 209.0Q651.9 209.3 651.6 209.5Q651.4 209.7 651.1 209.7ZM653.7 208.5L654.8 208.5L654.8 218L653.7 218L653.7 208.5Z "/></g></svg>