<!-- Generated by readme-aura https://github.com/collectioneur/readme-aura -->
<svg width="860" height="280" viewBox="0 0 860 280" xmlns="http://www.w3.org/2000/svg"><defs><clipPath id="satori_bc-id"><path x="0" y="0" width="860" height="280" d="M24,0 h812 a24,24 0 0 1 24,24 v232 a24,24 0 0 1 -24,24 h-812 a24,24 0 0 1 -24,-24 v-232 a24,24 0 0 1 24,-24"/></clipPath></defs><clipPath id="satori_cp-id"><path x="0" y="0" width="860" height="280" d="M24,0 h812 a24,24 0 0 1 24,24 v232 a24,24 0 0 1 -24,24 h-812 a24,24 0 0 1 -24,-24 v-232 a24,24 0 0 1 24,-24"/></clipPath><mask id="satori_om-id"><rect x="1" y="1" width="858" height="278" fill="#fff"/><path width="860" height="280" fill="none" stroke="#000" stroke-width="2" d="M7.029,7.029 A24,24 0 0 1 24,0 h812 a24,24 0 0 1 24,24 v232 a24,24 0 0 1 -24,24 h-812 a24,24 0 0 1 -24,-24 v-232 A24,24 0 0 1 7.029,7.029"/></mask><path x="0" y="0" width="860" height="280" fill="#040405" d="M24,0 h812 a24,24 0 0 1 24,24 v232 a24,24 0 0 1 -24,24 h-812 a24,24 0 0 1 -24,-24 v-232 a24,24 0 0 1 24,-24"/><path width="860" height="280" clip-path="url(#satori_bc-id)" fill="none" stroke="rgba(255,255,255,0.08)" stroke-width="2" d="M7.029,7.029 A24,24 0 0 1 24,0 h812 a24,24 0 0 1 24,24 v232 a24,24 0 0 1 -24,24 h-812 a24,24 0 0 1 -24,-24 v-232 A24,24 0 0 1 7.029,7.029"/><clipPath id="satori_cp-id-0" clip-path="url(#satori_cp-id)"><rect x="1" y="1" width="860" height="280"/></clipPath><mask id="satori_om-id-0"><rect x="1" y="1" width="860" height="280" fill="#fff" mask="url(#satori_om-id)"/></mask><g opacity="0.9"><svg x="1" y="1" width="860" height="280" preserveAspectRatio="none" clip-path="url(#satori_cp-id-0)" mask="url(#satori_om-id-0)"><defs><radialGradient id="hero-green" cx="50%" cy="50%" r="50%"><stop offset="0%" stop-color="rgba(46, 204, 113, 0.25)"></stop><stop offset="100%" stop-color="rgba(46, 204, 113, 0)"></stop></radialGradient><radialGradient id="hero-purple" cx="50%" cy="50%" r="50%"><stop offset="0%" stop-color="rgba(155, 89, 182, 0.25)"></stop><stop offset="100%" stop-color="rgba(155, 89, 182, 0)"></stop></radialGradient></defs><ellipse cx="200" cy="200" rx="400" ry="250" fill="url(#hero-green)"></ellipse><ellipse cx="650" cy="80" rx="400" ry="250" fill="url(#hero-purple)"></ellipse><circle cx="430" cy="140" r="120" stroke="rgba(255,255,255,0.03)" stroke-width="1" fill="none"></circle><circle cx="430" cy="140" r="220" stroke="rgba(255,255,255,0.03)" stroke-width="1" fill="none"></circle><circle cx="430" cy="140" r="320" stroke="rgba(255,255,255,0.03)" stroke-width="1" fill="none"></circle></svg></g><mask id="satori_om-id-0-0"><rect x="1" y="1" width="0" height="280" fill="#fff" mask="url(#satori_om-id)"/></mask><g opacity="0.9"></g><mask id="satori_om-id-0-0-0"><rect x="1" y="1" width="0" height="280" fill="#fff" mask="url(#satori_om-id)"/></mask><g opacity="0.9"></g><mask id="satori_om-id-0-0-0-0"><rect x="1" y="1" width="0" height="280" fill="#fff" mask="url(#satori_om-id)"/></mask><g opacity="0.9"></g><mask id="satori_om-id-0-0-0-1"><rect x="1" y="1" width="0" height="280" fill="#fff" mask="url(#satori_om-id)"/></mask><g opacity="0.9"></g><mask id="satori_om-id-0-0-1"><rect x="1" y="1" width="0" height="280" fill="#fff" mask="url(#satori_om-id)"/></mask><g opacity="0.9"></g><mask id="satori_om-id-0-0-1-0"><rect x="1" y="1" width="0" height="280" fill="#fff" mask="url(#satori_om-id)"/></mask><g opacity="0.9"></g><mask id="satori_om-id-0-0-1-1"><rect x="1" y="1" width="0" height="280" fill="#fff" mask="url(#satori_om-id)"/></mask><g opacity="0.9"></g><mask id="satori_om-id-0-1"><rect x="1" y="1" width="0" height="280" fill="#fff" mask="url(#satori_om-id)"/></mask><g opacity="0.9"></g><mask id="satori_om-id-0-2"><rect x="1" y="1" width="0" height="280" fill="#fff" mask="url(#satori_om-id)"/></mask><g opacity="0.9"></g><mask id="satori_om-id-0-3"><rect x="1" y="1" width="0" height="280" fill="#fff" mask="url(#satori_om-id)"/></mask><g opacity="0.9"></g><mask id="satori_om-id-0-4"><rect x="1" y="1" width="0" height="280" fill="#fff" mask="url(#satori_om-id)"/></mask><g opacity="0.9"></g><mask id="satori_om-id-0-5"><rect x="1" y="1" width="0" height="280" fill="#fff" mask="url(#satori_om-id)"/></mask><g opacity="0.9"></g><mask id="satori_om-id-1"><rect x="253" y="52" width="355" height="82" fill="#fff" mask="url(#satori_om-id)"/></mask><g mask="url(#satori_om-id)" clip-path="url(#satori_cp-id)"><path fill="#ffffff" d="M267.2 96.5L267.2 96.5L267.2 118L257.3 118L257.3 80.9L266.6 80.9L266.8 88.5Q268.2 85.0 270.7 82.9L270.7 82.9Q273.6 80.4 278.3 80.4L278.3 80.4Q282.2 80.4 285.1 82.1Q287.9 83.8 289.5 86.9Q291.1 90.0 291.1 94.4L291.1 94.4L291.1 118L281.1 118L281.1 96.1Q281.1 92.7 279.3 90.7Q277.6 88.7 274.4 88.7L274.4 88.7Q272.3 88.7 270.7 89.7Q269.0 90.6 268.1 92.3Q267.2 94.0 267.2 96.5ZM307.4 118.7L307.4 118.7Q303.9 118.7 301.1 117.5Q298.3 116.2 296.7 113.8Q295.1 111.3 295.1 107.6L295.1 107.6Q295.1 104.5 296.2 102.4Q297.4 100.3 299.4 99.1Q301.3 97.8 303.8 97.1Q306.3 96.5 309.1 96.2L309.1 96.2Q312.3 95.9 314.3 95.6Q316.3 95.3 317.2 94.7Q318.1 94.1 318.1 92.9L318.1 92.9L318.1 92.7Q318.1 91.1 317.4 90.0Q316.8 88.9 315.5 88.4Q314.2 87.8 312.3 87.8L312.3 87.8Q310.4 87.8 308.9 88.4Q307.5 88.9 306.6 89.9Q305.7 90.9 305.3 92.1L305.3 92.1L296.2 90.6Q297.1 87.3 299.3 85.1Q301.6 82.8 304.9 81.6Q308.2 80.4 312.3 80.4L312.3 80.4Q315.3 80.4 318.1 81.1Q321.0 81.8 323.2 83.3Q325.4 84.8 326.8 87.2Q328.1 89.6 328.1 93.0L328.1 93.0L328.1 118L318.6 118L318.6 112.9L318.3 112.9Q317.4 114.6 315.9 115.9Q314.4 117.2 312.3 118.0Q310.2 118.7 307.4 118.7ZM310.3 111.7L310.3 111.7Q312.6 111.7 314.4 110.8Q316.2 109.9 317.2 108.3Q318.2 106.7 318.2 104.7L318.2 104.7L318.2 100.7Q317.7 101.0 316.8 101.3Q315.9 101.6 314.8 101.8Q313.8 102.0 312.7 102.1Q311.6 102.3 310.8 102.4L310.8 102.4Q309.0 102.7 307.6 103.3Q306.2 103.9 305.4 104.8Q304.7 105.8 304.7 107.3L304.7 107.3Q304.7 108.8 305.4 109.7Q306.1 110.7 307.4 111.2Q308.6 111.7 310.3 111.7ZM354.8 118.6L354.8 118.6Q351.8 118.6 349.7 117.6Q347.6 116.6 346.3 115.1Q345.0 113.6 344.3 112.1L344.3 112.1L343.9 112.1L343.9 118L334.1 118L334.1 68.5L344.0 68.5L344.0 87.1L344.3 87.1Q345.0 85.7 346.3 84.1Q347.6 82.5 349.7 81.5Q351.8 80.4 354.9 80.4L354.9 80.4Q359.0 80.4 362.5 82.5Q365.9 84.7 367.9 88.9Q370.0 93.2 370.0 99.5L370.0 99.5Q370.0 105.7 368.0 109.9Q366.0 114.2 362.6 116.4Q359.1 118.6 354.8 118.6ZM351.8 110.6L351.8 110.6Q354.4 110.6 356.2 109.2Q357.9 107.8 358.8 105.3Q359.8 102.7 359.8 99.5L359.8 99.5Q359.8 96.2 358.8 93.7Q357.9 91.2 356.2 89.8Q354.4 88.4 351.8 88.4L351.8 88.4Q349.2 88.4 347.4 89.8Q345.7 91.1 344.7 93.6Q343.8 96.1 343.8 99.5L343.8 99.5Q343.8 102.8 344.7 105.3Q345.7 107.8 347.5 109.2Q349.3 110.6 351.8 110.6ZM384.4 118L374.4 118L374.4 80.9L384.4 80.9L384.4 118ZM379.4 76.0L379.4 76.0Q377.2 76.0 375.6 74.5Q374.0 73.0 374.0 70.9L374.0 70.9Q374.0 68.8 375.6 67.3Q377.2 65.8 379.4 65.8L379.4 65.8Q381.7 65.8 383.3 67.3Q384.9 68.8 384.9 70.9L384.9 70.9Q384.9 73.0 383.3 74.5Q381.7 76.0 379.4 76.0ZM390.4 68.5L400.3 68.5L400.3 118L390.4 118L390.4 68.5Z M430.2 118.7L430.2 118.7Q426.7 118.7 423.9 117.5Q421.1 116.2 419.5 113.8Q417.9 111.3 417.9 107.6L417.9 107.6Q417.9 104.5 419.0 102.4Q420.2 100.3 422.2 99.1Q424.1 97.8 426.6 97.1Q429.2 96.5 431.9 96.2L431.9 96.2Q435.1 95.9 437.1 95.6Q439.1 95.3 440.0 94.7Q440.9 94.1 440.9 92.9L440.9 92.9L440.9 92.7Q440.9 91.1 440.2 90.0Q439.6 88.9 438.3 88.4Q437.0 87.8 435.1 87.8L435.1 87.8Q433.2 87.8 431.7 88.4Q430.3 88.9 429.4 89.9Q428.5 90.9 428.1 92.1L428.1 92.1L419.0 90.6Q419.9 87.3 422.1 85.1Q424.4 82.8 427.7 81.6Q431.0 80.4 435.1 80.4L435.1 80.4Q438.1 80.4 440.9 81.1Q443.8 81.8 446.0 83.3Q448.2 84.8 449.6 87.2Q450.9 89.6 450.9 93.0L450.9 93.0L450.9 118L441.4 118L441.4 112.9L441.1 112.9Q440.2 114.6 438.7 115.9Q437.2 117.2 435.1 118.0Q433.0 118.7 430.2 118.7ZM433.1 111.7L433.1 111.7Q435.4 111.7 437.2 110.8Q439.0 109.9 440.0 108.3Q441.0 106.7 441.0 104.7L441.0 104.7L441.0 100.7Q440.5 101.0 439.6 101.3Q438.7 101.6 437.7 101.8Q436.6 102.0 435.5 102.1Q434.4 102.3 433.6 102.4L433.6 102.4Q431.8 102.7 430.4 103.3Q429.0 103.9 428.2 104.8Q427.5 105.8 427.5 107.3L427.5 107.3Q427.5 108.8 428.2 109.7Q428.9 110.7 430.2 111.2Q431.4 111.7 433.1 111.7ZM477.7 118.6L477.7 118.6Q474.6 118.6 472.5 117.6Q470.4 116.6 469.1 115.1Q467.8 113.6 467.1 112.1L467.1 112.1L466.7 112.1L466.7 118L456.9 118L456.9 68.5L466.8 68.5L466.8 87.1L467.1 87.1Q467.8 85.7 469.1 84.1Q470.4 82.5 472.5 81.5Q474.6 80.4 477.7 80.4L477.7 80.4Q481.8 80.4 485.3 82.5Q488.7 84.7 490.7 88.9Q492.8 93.2 492.8 99.5L492.8 99.5Q492.8 105.7 490.8 109.9Q488.8 114.2 485.4 116.4Q481.9 118.6 477.7 118.6ZM474.6 110.6L474.6 110.6Q477.2 110.6 479.0 109.2Q480.7 107.8 481.7 105.3Q482.6 102.7 482.6 99.5L482.6 99.5Q482.6 96.2 481.7 93.7Q480.7 91.2 479.0 89.8Q477.2 88.4 474.6 88.4L474.6 88.4Q472.0 88.4 470.2 89.8Q468.5 91.1 467.5 93.6Q466.6 96.1 466.6 99.5L466.6 99.5Q466.6 102.8 467.5 105.3Q468.5 107.8 470.3 109.2Q472.1 110.6 474.6 110.6ZM507.2 118L497.2 118L497.2 80.9L507.2 80.9L507.2 118ZM502.2 76.0L502.2 76.0Q500.0 76.0 498.4 74.5Q496.8 73.0 496.8 70.9L496.8 70.9Q496.8 68.8 498.4 67.3Q500.0 65.8 502.2 65.8L502.2 65.8Q504.5 65.8 506.1 67.3Q507.7 68.8 507.7 70.9L507.7 70.9Q507.7 73.0 506.1 74.5Q504.5 76.0 502.2 76.0ZM512.9 131.1L512.9 131.1L515.2 123.6L516.4 123.9Q518.4 124.5 520.0 124.2Q521.5 124.0 522.5 123.0Q523.4 122.0 523.6 120.1L523.6 120.1L523.9 118.1L509.9 80.9L520.5 80.9L526.8 100.1Q527.9 103.8 528.6 107.4L528.6 107.4Q528.9 108.7 529.1 109.9L529.1 109.9Q529.4 108.7 529.7 107.4L529.7 107.4Q530.6 103.8 531.8 100.1L531.8 100.1L538.3 80.9L548.8 80.9L533.0 122.4Q531.9 125.4 530.1 127.6Q528.4 129.8 525.7 130.9Q523.1 132.1 519.4 132.1L519.4 132.1Q517.4 132.1 515.7 131.9Q514.0 131.6 512.9 131.1ZM564.4 118.5L564.4 118.5Q560.5 118.5 557.6 116.8Q554.8 115.1 553.2 112.0Q551.6 108.8 551.6 104.5L551.6 104.5L551.6 80.9L561.6 80.9L561.6 102.8Q561.6 106.2 563.4 108.2Q565.1 110.1 568.3 110.1L568.3 110.1Q570.4 110.1 572.0 109.2Q573.6 108.3 574.6 106.6Q575.5 104.8 575.5 102.4L575.5 102.4L575.5 80.9L585.5 80.9L585.5 118L576.0 118L575.9 110.3Q574.5 113.8 572.0 115.9L572.0 115.9Q569.0 118.5 564.4 118.5ZM598.5 118.6L598.5 118.6Q596.1 118.6 594.5 117.0Q592.8 115.3 592.8 112.9L592.8 112.9Q592.8 110.5 594.5 108.9Q596.1 107.2 598.5 107.2L598.5 107.2Q601.0 107.2 602.6 108.9Q604.3 110.5 604.3 112.9L604.3 112.9Q604.3 115.3 602.6 117.0Q601.0 118.6 598.5 118.6Z "/></g><mask id="satori_om-id-2"><rect x="263" y="148" width="335" height="16" fill="#fff" mask="url(#satori_om-id)"/></mask><g mask="url(#satori_om-id)" clip-path="url(#satori_cp-id)"><path fill="rgba(255,255,255,0.5)" d="M267.1 161L267.1 161L264.1 161L264.1 151.5L267.2 151.5Q268.6 151.5 269.6 152.1Q270.6 152.7 271.1 153.7Q271.6 154.8 271.6 156.3L271.6 156.3Q271.6 157.7 271.1 158.8Q270.6 159.9 269.5 160.4Q268.5 161 267.1 161ZM265.3 152.6L265.3 159.9L267.0 159.9Q268.2 159.9 268.9 159.5Q269.7 159.1 270.1 158.2Q270.4 157.4 270.4 156.3L270.4 156.3Q270.4 155.1 270.1 154.3Q269.7 153.5 269.0 153.0Q268.2 152.6 267.1 152.6L267.1 152.6L265.3 152.6ZM287.3 161L281.5 161L281.5 151.5L287.3 151.5L287.3 152.6L282.7 152.6L282.7 155.7L287.0 155.7L287.0 156.8L282.7 156.8L282.7 159.9L287.3 159.9L287.3 161ZM300.4 161.2L300.4 161.2Q299.3 161.2 298.6 160.8Q297.8 160.5 297.4 159.9Q297.0 159.3 296.9 158.5L296.9 158.5L298.2 158.5Q298.2 159.1 298.5 159.4Q298.8 159.7 299.3 159.9Q299.8 160.1 300.4 160.1L300.4 160.1Q301.0 160.1 301.5 159.9Q302.0 159.7 302.3 159.3Q302.6 158.9 302.6 158.4L302.6 158.4Q302.6 157.9 302.4 157.7Q302.1 157.4 301.7 157.2Q301.3 157.0 300.8 156.9L300.8 156.9L299.6 156.5Q298.5 156.2 297.8 155.6Q297.2 155.0 297.2 154.1L297.2 154.1Q297.2 153.3 297.6 152.7Q298.1 152.1 298.8 151.7Q299.5 151.4 300.4 151.4L300.4 151.4Q301.4 151.4 302.1 151.7Q302.8 152.1 303.2 152.6Q303.6 153.2 303.7 153.9L303.7 153.9L302.5 153.9Q302.4 153.2 301.8 152.9Q301.3 152.5 300.4 152.5L300.4 152.5Q299.8 152.5 299.3 152.7Q298.9 152.9 298.6 153.2Q298.4 153.6 298.4 154.0L298.4 154.0Q298.4 154.5 298.7 154.8Q299.0 155.1 299.4 155.3Q299.8 155.5 300.2 155.5L300.2 155.5L301.1 155.8Q301.5 155.9 302.0 156.1Q302.4 156.3 302.8 156.6Q303.3 156.9 303.5 157.3Q303.8 157.8 303.8 158.4L303.8 158.4Q303.8 159.2 303.4 159.8Q303.0 160.4 302.2 160.8Q301.5 161.2 300.4 161.2ZM313.7 151.5L314.9 151.5L314.9 161L313.7 161L313.7 151.5ZM329.0 161.1L329.0 161.1Q327.8 161.1 326.8 160.5Q325.9 159.9 325.3 158.9Q324.8 157.8 324.8 156.3L324.8 156.3Q324.8 154.8 325.3 153.7Q325.9 152.6 326.8 152.0Q327.7 151.4 329.0 151.4L329.0 151.4Q329.7 151.4 330.4 151.6Q331.0 151.9 331.5 152.3Q332.0 152.7 332.4 153.3Q332.7 153.8 332.8 154.5L332.8 154.5L331.6 154.5Q331.5 154.0 331.2 153.7Q331.0 153.3 330.6 153.1Q330.3 152.8 329.9 152.7Q329.5 152.5 329.0 152.5L329.0 152.5Q328.1 152.5 327.5 153.0Q326.8 153.4 326.4 154.2Q326.0 155.1 326.0 156.3L326.0 156.3Q326.0 157.5 326.4 158.3Q326.8 159.1 327.5 159.6Q328.2 160.0 329.0 160.0L329.0 160.0Q329.8 160.0 330.4 159.7Q331.1 159.3 331.4 158.7L331.4 158.7Q331.7 158.1 331.7 157.3L331.7 157.3L329.3 157.3L329.3 156.2L332.9 156.2L332.9 157.3Q332.9 158.5 332.4 159.3Q331.9 160.2 331.0 160.7Q330.2 161.1 329.0 161.1ZM344.1 161L342.9 161L342.9 151.5L344.3 151.5L348.1 157.6Q348.3 157.8 348.5 158.2Q348.7 158.6 349.0 159.0L349.0 159.0Q349.1 159.3 349.2 159.6L349.2 159.6Q349.2 159.3 349.2 159.0L349.2 159.0Q349.2 158.5 349.2 158.1Q349.2 157.6 349.2 157.3L349.2 157.3L349.2 151.5L350.4 151.5L350.4 161L348.9 161L345.5 155.6Q345.3 155.2 345.0 154.8Q344.8 154.4 344.5 153.9L344.5 153.9Q344.3 153.5 344.0 153.0L344.0 153.0Q344.0 153.5 344.0 153.9L344.0 153.9Q344.1 154.5 344.1 154.9Q344.1 155.4 344.1 155.6L344.1 155.6L344.1 161Z M373.1 157.4L373.1 157.4Q372.7 157.4 372.4 157.1Q372.2 156.9 372.2 156.5L372.2 156.5Q372.2 156.2 372.4 155.9Q372.7 155.6 373.1 155.6L373.1 155.6Q373.4 155.6 373.7 155.9Q373.9 156.2 373.9 156.5L373.9 156.5Q373.9 156.9 373.7 157.1Q373.4 157.4 373.1 157.4Z M399.5 161.1L399.5 161.1Q398.3 161.1 397.4 160.5Q396.4 160.0 395.9 158.9Q395.4 157.8 395.4 156.3L395.4 156.3Q395.4 154.8 395.9 153.7Q396.4 152.6 397.4 152.0Q398.3 151.4 399.5 151.4L399.5 151.4Q400.3 151.4 400.9 151.6Q401.5 151.8 402.1 152.2Q402.6 152.6 402.9 153.2Q403.2 153.8 403.4 154.5L403.4 154.5L402.2 154.5Q402.1 154.0 401.8 153.7Q401.6 153.3 401.2 153.0Q400.9 152.8 400.4 152.7Q400.0 152.5 399.5 152.5L399.5 152.5Q398.7 152.5 398.0 153.0Q397.3 153.4 396.9 154.2Q396.5 155.1 396.5 156.3L396.5 156.3Q396.5 157.5 396.9 158.3Q397.3 159.2 398.0 159.6Q398.7 160.0 399.5 160.0L399.5 160.0Q400.0 160.0 400.4 159.9Q400.9 159.7 401.2 159.5Q401.6 159.2 401.8 158.9Q402.1 158.5 402.2 158.0L402.2 158.0L403.4 158.0Q403.2 158.7 402.9 159.3Q402.6 159.9 402.1 160.3Q401.5 160.7 400.9 160.9Q400.3 161.1 399.5 161.1ZM417.1 161.1L417.1 161.1Q415.8 161.1 414.9 160.5Q413.9 160.0 413.4 158.9Q412.8 157.8 412.8 156.3L412.8 156.3Q412.8 154.8 413.4 153.7Q413.9 152.6 414.9 152.0Q415.8 151.4 417.1 151.4L417.1 151.4Q418.3 151.4 419.2 152.0Q420.2 152.6 420.7 153.7Q421.2 154.8 421.2 156.3L421.2 156.3Q421.2 157.8 420.7 158.9Q420.2 160.0 419.2 160.5Q418.3 161.1 417.1 161.1ZM417.1 160.0L417.1 160.0Q417.9 160.0 418.6 159.6Q419.3 159.2 419.7 158.3Q420.1 157.5 420.1 156.3L420.1 156.3Q420.1 155.1 419.7 154.2Q419.3 153.4 418.6 153.0Q417.9 152.5 417.1 152.5L417.1 152.5Q416.2 152.5 415.5 153.0Q414.8 153.4 414.4 154.2Q414.0 155.1 414.0 156.3L414.0 156.3Q414.0 157.5 414.4 158.3Q414.8 159.1 415.5 159.6Q416.2 160.0 417.1 160.0ZM434.1 161L434.1 161L431.2 161L431.2 151.5L434.2 151.5Q435.6 151.5 436.6 152.1Q437.6 152.7 438.1 153.7Q438.6 154.8 438.6 156.3L438.6 156.3Q438.6 157.7 438.1 158.8Q437.6 159.9 436.6 160.4Q435.6 161 434.1 161ZM432.4 152.6L432.4 159.9L434.0 159.9Q435.2 159.9 435.9 159.5Q436.7 159.1 437.1 158.2Q437.5 157.4 437.5 156.3L437.5 156.3Q437.5 155.1 437.1 154.3Q436.7 153.5 436.0 153.0Q435.2 152.6 434.1 152.6L434.1 152.6L432.4 152.6ZM454.4 161L448.5 161L448.5 151.5L454.3 151.5L454.3 152.6L449.7 152.6L449.7 155.7L454.0 155.7L454.0 156.8L449.7 156.8L449.7 159.9L454.4 159.9L454.4 161Z M476.7 157.4L476.7 157.4Q476.4 157.4 476.1 157.1Q475.9 156.9 475.9 156.5L475.9 156.5Q475.9 156.2 476.1 155.9Q476.4 155.6 476.7 155.6L476.7 155.6Q477.1 155.6 477.3 155.9Q477.6 156.2 477.6 156.5L477.6 156.5Q477.6 156.9 477.3 157.1Q477.1 157.4 476.7 157.4Z M503.2 161.1L503.2 161.1Q502.0 161.1 501.1 160.5Q500.1 160.0 499.6 158.9Q499.0 157.8 499.0 156.3L499.0 156.3Q499.0 154.8 499.6 153.7Q500.1 152.6 501.1 152.0Q502.0 151.4 503.2 151.4L503.2 151.4Q504.0 151.4 504.6 151.6Q505.2 151.8 505.7 152.2Q506.2 152.6 506.6 153.2Q506.9 153.8 507.1 154.5L507.1 154.5L505.8 154.5Q505.7 154.0 505.5 153.7Q505.3 153.3 504.9 153.0Q504.6 152.8 504.1 152.7Q503.7 152.5 503.2 152.5L503.2 152.5Q502.4 152.5 501.7 153.0Q501.0 153.4 500.6 154.2Q500.2 155.1 500.2 156.3L500.2 156.3Q500.2 157.5 500.6 158.3Q501.0 159.2 501.7 159.6Q502.4 160.0 503.2 160.0L503.2 160.0Q503.7 160.0 504.1 159.9Q504.6 159.7 504.9 159.5Q505.3 159.2 505.5 158.9Q505.7 158.5 505.8 158.0L505.8 158.0L507.1 158.0Q506.9 158.7 506.6 159.3Q506.3 159.9 505.7 160.3Q505.2 160.7 504.6 160.9Q504.0 161.1 503.2 161.1ZM518.1 161L516.9 161L516.9 151.5L520.1 151.5Q521.2 151.5 522.0 151.9Q522.7 152.3 523.0 153.0Q523.4 153.6 523.4 154.5Q523.4 155.3 523.0 156.0Q522.7 156.6 522.0 157.0L522.0 157.0Q521.8 157.1 521.6 157.1L521.6 157.1L523.7 161L522.3 161L520.4 157.3Q520.3 157.3 520.2 157.3L520.2 157.3L518.1 157.3L518.1 161ZM518.1 152.6L518.1 156.3L520.1 156.3Q520.8 156.3 521.3 156.0Q521.8 155.8 522.0 155.4Q522.2 155.0 522.2 154.5L522.2 154.5Q522.2 153.9 522.0 153.5Q521.8 153.1 521.3 152.8Q520.8 152.6 520.1 152.6L520.1 152.6L518.1 152.6ZM539.1 161L533.3 161L533.3 151.5L539.0 151.5L539.0 152.6L534.5 152.6L534.5 155.7L538.7 155.7L538.7 156.8L534.5 156.8L534.5 159.9L539.1 159.9L539.1 161ZM549.6 161L548.3 161L551.7 151.5L553.1 151.5L556.6 161L555.3 161L554.4 158.4L550.5 158.4L549.6 161ZM550.8 157.3L554.0 157.3L553.3 155.4Q553.1 154.9 552.9 154.1L552.9 154.1Q552.7 153.4 552.4 152.5L552.4 152.5Q552.1 153.5 551.9 154.1L551.9 154.1Q551.7 154.9 551.5 155.4L551.5 155.4L550.8 157.3ZM568.5 152.6L565.5 152.6L565.5 151.5L572.7 151.5L572.7 152.6L569.7 152.6L569.7 161L568.5 161L568.5 152.6ZM588.3 161L582.4 161L582.4 151.5L588.2 151.5L588.2 152.6L583.7 152.6L583.7 155.7L587.9 155.7L587.9 156.8L583.7 156.8L583.7 159.9L588.3 159.9L588.3 161Z "/></g><mask id="satori_om-id-3"><rect x="281" y="200" width="298" height="29" fill="#fff" mask="url(#satori_om-id)"/></mask><defs><clipPath id="satori_bc-id-3-0" clip-path="url(#satori_cp-id)"><path x="281" y="200" width="106" height="29" d="M295.5,200 h77 a14.5,14.5 0 0 1 14.5,14.5 v0 a14.5,14.5 0 0 1 -14.5,14.5 h-77 a14.5,14.5 0 0 1 -14.5,-14.5 v0 a14.5,14.5 0 0 1 14.5,-14.5"/></clipPath></defs><mask id="satori_om-id-3-0"><rect x="282" y="201" width="104" height="27" fill="#fff" mask="url(#satori_om-id)"/><path width="106" height="29" fill="none" stroke="#000" stroke-width="2" d="M285.247,204.247 A14.5,14.5 0 0 1 295.5,200 h77 a14.5,14.5 0 0 1 14.5,14.5 v0 a14.5,14.5 0 0 1 -14.5,14.5 h-77 a14.5,14.5 0 0 1 -14.5,-14.5 v0 A14.5,14.5 0 0 1 285.247,204.247"/></mask><path x="281" y="200" width="106" height="29" fill="rgba(255,255,255,0.03)" d="M295.5,200 h77 a14.5,14.5 0 0 1 14.5,14.5 v0 a14.5,14.5 0 0 1 -14.5,14.5 h-77 a14.5,14.5 0 0 1 -14.5,-14.5 v0 a14.5,14.5 0 0 1 14.5,-14.5" clip-path="url(#satori_cp-id)" mask="url(#satori_om-id)"/><path width="106" height="29" clip-path="url(#satori_bc-id-3-0)" fill="none" stroke="rgba(255,255,255,0.1)" stroke-width="2" d="M285.247,204.247 A14.5,14.5 0 0 1 295.5,200 h77 a14.5,14.5 0 0 1 14.5,14.5 v0 a14.5,14.5 0 0 1 -14.5,14.5 h-77 a14.5,14.5 0 0 1 -14.5,-14.5 v0 A14.5,14.5 0 0 1 285.247,204.247"/><g mask="url(#satori_om-id)" clip-path="url(#satori_cp-id)"><path fill="rgba(255,255,255,0.7)" d="M304.5 212.4L306.0 212.4L306.0 213.4L304.5 213.4L304.5 219L303.4 219L303.4 213.4L302.1 213.4L302.1 212.4L303.4 212.4L303.4 211.6Q303.4 211.0 303.7 210.6Q303.9 210.2 304.4 210.1Q304.8 209.9 305.3 209.9L305.3 209.9Q305.6 209.9 305.9 209.9Q306.1 210.0 306.3 210.0L306.3 210.0L306.0 210.9Q305.9 210.9 305.7 210.9Q305.6 210.8 305.4 210.8L305.4 210.8Q304.9 210.8 304.7 211.1Q304.5 211.3 304.5 211.8L304.5 211.8L304.5 212.4ZM310.6 219.1L310.6 219.1Q309.9 219.1 309.4 218.8Q308.9 218.5 308.6 218.0Q308.4 217.4 308.4 216.6L308.4 216.6L308.4 212.4L309.4 212.4L309.4 216.5Q309.4 217.3 309.8 217.7Q310.2 218.1 310.9 218.1L310.9 218.1Q311.4 218.1 311.7 217.9Q312.1 217.7 312.3 217.3Q312.6 216.9 312.6 216.4L312.6 216.4L312.6 212.4L313.6 212.4L313.6 219L312.6 219L312.6 217.8Q312.3 218.4 311.9 218.7L311.9 218.7Q311.3 219.1 310.6 219.1ZM316.5 210.3L317.5 210.3L317.5 219L316.5 219L316.5 210.3ZM320.4 210.3L321.4 210.3L321.4 219L320.4 219L320.4 210.3ZM324.2 214.8L328.0 214.8L328.0 215.8L324.2 215.8L324.2 214.8ZM333.0 219.1L333.0 219.1Q332.3 219.1 331.8 218.9Q331.3 218.7 331.0 218.4Q330.6 218.0 330.5 217.4L330.5 217.4L331.5 217.2Q331.6 217.7 332.0 218.0Q332.4 218.2 333.0 218.2L333.0 218.2Q333.7 218.2 334.1 217.9Q334.5 217.6 334.5 217.2L334.5 217.2Q334.5 216.9 334.3 216.7Q334.0 216.4 333.5 216.3L333.5 216.3L332.5 216.1Q331.6 215.9 331.1 215.4Q330.7 215.0 330.7 214.3L330.7 214.3Q330.7 213.7 331.0 213.3Q331.3 212.9 331.9 212.6Q332.4 212.4 333.1 212.4L333.1 212.4Q333.8 212.4 334.3 212.6Q334.7 212.8 335.0 213.1Q335.3 213.5 335.5 213.9L335.5 213.9L334.5 214.2Q334.4 213.8 334.1 213.6Q333.8 213.3 333.1 213.3L333.1 213.3Q332.5 213.3 332.2 213.5Q331.8 213.8 331.8 214.2L331.8 214.2Q331.8 214.6 332.0 214.8Q332.3 215.0 332.9 215.2L332.9 215.2L333.9 215.4Q334.8 215.6 335.2 216.0Q335.6 216.5 335.6 217.2L335.6 217.2Q335.6 217.7 335.3 218.2Q335.0 218.6 334.4 218.9Q333.8 219.1 333.0 219.1ZM339.4 212.4L340.7 212.4L340.7 213.4L339.4 213.4L339.4 217.3Q339.4 217.7 339.5 217.9Q339.7 218.1 340.1 218.1L340.1 218.1Q340.2 218.1 340.4 218.1Q340.5 218.1 340.7 218.1L340.7 218.1L340.9 219.0Q340.7 219.0 340.5 219.1Q340.3 219.1 340.1 219.1L340.1 219.1Q339.3 219.1 338.8 218.6Q338.3 218.2 338.3 217.4L338.3 217.4L338.3 213.4L337.3 213.4L337.3 212.4L338.3 212.4L338.3 210.9L339.4 210.9L339.4 212.4ZM344.9 219.2L344.9 219.2Q344.3 219.2 343.8 218.9Q343.3 218.7 343.0 218.2Q342.7 217.8 342.7 217.1L342.7 217.1Q342.7 216.6 342.9 216.2Q343.1 215.9 343.5 215.7Q343.8 215.5 344.3 215.4Q344.7 215.3 345.2 215.2L345.2 215.2Q345.8 215.1 346.2 215.1Q346.5 215.1 346.7 215.0Q346.9 214.9 346.9 214.6L346.9 214.6L346.9 214.6Q346.9 214.2 346.7 213.9Q346.6 213.6 346.3 213.4Q346.0 213.3 345.5 213.3L345.5 213.3Q345.0 213.3 344.7 213.4Q344.4 213.6 344.2 213.8Q344.0 214.0 343.9 214.3L343.9 214.3L342.8 213.9Q343.1 213.3 343.5 213.0Q344.0 212.6 344.5 212.5Q345.0 212.4 345.5 212.4L345.5 212.4Q345.8 212.4 346.2 212.4Q346.7 212.5 347.0 212.8Q347.4 213.0 347.7 213.5Q347.9 213.9 347.9 214.7L347.9 214.7L347.9 219L346.9 219L346.9 218.1L346.8 218.1Q346.7 218.3 346.5 218.6Q346.2 218.8 345.8 219.0Q345.4 219.2 344.9 219.2ZM345.1 218.2L345.1 218.2Q345.7 218.2 346.1 218.0Q346.5 217.8 346.7 217.4Q346.9 217.0 346.9 216.6L346.9 216.6L346.9 215.7Q346.8 215.8 346.6 215.9Q346.4 215.9 346.1 216.0Q345.8 216.0 345.6 216.0Q345.3 216.1 345.2 216.1L345.2 216.1Q344.8 216.1 344.4 216.3Q344.1 216.4 343.9 216.6Q343.7 216.8 343.7 217.2L343.7 217.2Q343.7 217.5 343.9 217.8Q344.1 218.0 344.4 218.1Q344.7 218.2 345.1 218.2ZM353.5 219.1L353.5 219.1Q352.6 219.1 351.9 218.7Q351.2 218.3 350.9 217.5Q350.5 216.8 350.5 215.8L350.5 215.8Q350.5 214.7 350.9 214.0Q351.2 213.2 351.9 212.8Q352.6 212.4 353.5 212.4L353.5 212.4Q353.9 212.4 354.4 212.5Q354.8 212.6 355.1 212.8Q355.5 213.1 355.7 213.4Q356.0 213.8 356.1 214.2L356.1 214.2L355.1 214.5Q355.0 214.2 354.9 214.0Q354.7 213.8 354.5 213.6Q354.3 213.5 354.1 213.4Q353.8 213.3 353.5 213.3L353.5 213.3Q352.8 213.3 352.4 213.7Q352.0 214.0 351.8 214.6Q351.5 215.1 351.5 215.8L351.5 215.8Q351.5 216.4 351.8 217.0Q352.0 217.5 352.4 217.9Q352.8 218.2 353.5 218.2L353.5 218.2Q353.8 218.2 354.1 218.1Q354.3 218.0 354.6 217.9Q354.8 217.7 354.9 217.5Q355.1 217.3 355.1 217.0L355.1 217.0L356.1 217.3Q356.0 217.7 355.8 218.1Q355.5 218.4 355.1 218.6Q354.8 218.9 354.4 219.0Q353.9 219.1 353.5 219.1ZM359.7 219L358.6 219L358.6 210.3L359.7 210.3L359.7 215.3L359.8 215.3L362.6 212.4L363.9 212.4L361.2 215.3L364.1 219L362.8 219L360.4 215.9L359.7 216.6L359.7 219Z "/></g><defs><clipPath id="satori_bc-id-3-1" clip-path="url(#satori_cp-id)"><path x="401" y="200" width="89" height="29" d="M415.5,200 h60 a14.5,14.5 0 0 1 14.5,14.5 v0 a14.5,14.5 0 0 1 -14.5,14.5 h-60 a14.5,14.5 0 0 1 -14.5,-14.5 v0 a14.5,14.5 0 0 1 14.5,-14.5"/></clipPath></defs><mask id="satori_om-id-3-1"><rect x="402" y="201" width="87" height="27" fill="#fff" mask="url(#satori_om-id)"/><path width="89" height="29" fill="none" stroke="#000" stroke-width="2" d="M405.247,204.247 A14.5,14.5 0 0 1 415.5,200 h60 a14.5,14.5 0 0 1 14.5,14.5 v0 a14.5,14.5 0 0 1 -14.5,14.5 h-60 a14.5,14.5 0 0 1 -14.5,-14.5 v0 A14.5,14.5 0 0 1 405.247,204.247"/></mask><path x="401" y="200" width="89" height="29" fill="rgba(255,255,255,0.03)" d="M415.5,200 h60 a14.5,14.5 0 0 1 14.5,14.5 v0 a14.5,14.5 0 0 1 -14.5,14.5 h-60 a14.5,14.5 0 0 1 -14.5,-14.5 v0 a14.5,14.5 0 0 1 14.5,-14.5" clip-path="url(#satori_cp-id)" mask="url(#satori_om-id)"/><path width="89" height="29" clip-path="url(#satori_bc-id-3-1)" fill="none" stroke="rgba(255,255,255,0.1)" stroke-width="2" d="M405.247,204.247 A14.5,14.5 0 0 1 415.5,200 h60 a14.5,14.5 0 0 1 14.5,14.5 v0 a14.5,14.5 0 0 1 -14.5,14.5 h-60 a14.5,14.5 0 0 1 -14.5,-14.5 v0 A14.5,14.5 0 0 1 405.247,204.247"/><g mask="url(#satori_om-id)" clip-path="url(#satori_cp-id)"><path fill="rgba(255,255,255,0.7)" d="M424.5 212.4L426.0 212.4L426.0 213.4L424.5 213.4L424.5 219L423.4 219L423.4 213.4L422.1 213.4L422.1 212.4L423.4 212.4L423.4 211.6Q423.4 211.0 423.7 210.6Q423.9 210.2 424.4 210.1Q424.8 209.9 425.3 209.9L425.3 209.9Q425.6 209.9 425.9 209.9Q426.1 210.0 426.3 210.0L426.3 210.0L426.0 210.9Q425.9 210.9 425.7 210.9Q425.6 210.8 425.4 210.8L425.4 210.8Q424.9 210.8 424.7 211.1Q424.5 211.3 424.5 211.8L424.5 211.8L424.5 212.4ZM429.4 219L428.4 219L428.4 212.4L429.4 212.4L429.4 219ZM428.9 211.4L428.9 211.4Q428.6 211.4 428.4 211.2Q428.2 211.0 428.2 210.7L428.2 210.7Q428.2 210.4 428.4 210.2Q428.6 210.0 428.9 210.0L428.9 210.0Q429.2 210.0 429.4 210.2Q429.6 210.4 429.6 210.7L429.6 210.7Q429.6 211.0 429.4 211.2Q429.2 211.4 428.9 211.4ZM433.3 215.1L433.3 215.1L433.3 219L432.3 219L432.3 212.4L433.3 212.4L433.3 213.7Q433.6 213.0 434.0 212.7L434.0 212.7Q434.6 212.4 435.3 212.4L435.3 212.4Q436.0 212.4 436.5 212.6Q437.0 212.9 437.2 213.5Q437.5 214.0 437.5 214.8L437.5 214.8L437.5 219L436.5 219L436.5 214.9Q436.5 214.2 436.1 213.7Q435.7 213.3 435.0 213.3L435.0 213.3Q434.5 213.3 434.1 213.5Q433.8 213.7 433.5 214.1Q433.3 214.5 433.3 215.1ZM441.6 212.4L442.9 212.4L442.9 213.4L441.6 213.4L441.6 217.3Q441.6 217.7 441.8 217.9Q442.0 218.1 442.4 218.1L442.4 218.1Q442.5 218.1 442.6 218.1Q442.8 218.1 442.9 218.1L442.9 218.1L443.1 219.0Q443.0 219.0 442.8 219.1Q442.5 219.1 442.3 219.1L442.3 219.1Q441.5 219.1 441.0 218.6Q440.5 218.2 440.5 217.4L440.5 217.4L440.5 213.4L439.6 213.4L439.6 212.4L440.5 212.4L440.5 210.9L441.6 210.9L441.6 212.4ZM448.0 219.1L448.0 219.1Q447.1 219.1 446.4 218.7Q445.7 218.3 445.3 217.5Q445.0 216.8 445.0 215.8Q445.0 214.8 445.3 214.0Q445.7 213.2 446.4 212.8Q447.0 212.4 447.9 212.4L447.9 212.4Q448.4 212.4 448.9 212.5Q449.5 212.7 449.9 213.1Q450.3 213.5 450.5 214.1Q450.8 214.7 450.8 215.6L450.8 215.6L450.8 216.1L446.0 216.1Q446.1 216.7 446.3 217.2L446.3 217.2Q446.5 217.7 447.0 217.9Q447.5 218.2 448.0 218.2L448.0 218.2Q448.4 218.2 448.8 218.1Q449.1 218.0 449.3 217.8Q449.5 217.5 449.6 217.2L449.6 217.2L450.7 217.5Q450.5 218.0 450.2 218.3Q449.8 218.7 449.3 218.9Q448.7 219.1 448.0 219.1ZM446.0 215.2L446.0 215.2L449.7 215.2Q449.7 214.7 449.5 214.4L449.5 214.4Q449.3 213.9 448.9 213.6Q448.5 213.3 447.9 213.3Q447.3 213.3 446.9 213.6Q446.5 213.9 446.3 214.3L446.3 214.3Q446.1 214.7 446.0 215.2ZM456.0 219.1L456.0 219.1Q455.1 219.1 454.4 218.7Q453.7 218.3 453.3 217.5Q453.0 216.8 453.0 215.8L453.0 215.8Q453.0 214.7 453.3 214.0Q453.7 213.2 454.4 212.8Q455.1 212.4 456.0 212.4L456.0 212.4Q456.4 212.4 456.8 212.5Q457.3 212.6 457.6 212.8Q458.0 213.1 458.2 213.4Q458.5 213.8 458.6 214.2L458.6 214.2L457.6 214.5Q457.5 214.2 457.4 214.0Q457.2 213.8 457.0 213.6Q456.8 213.5 456.5 213.4Q456.3 213.3 456.0 213.3L456.0 213.3Q455.3 213.3 454.9 213.7Q454.5 214.0 454.2 214.6Q454.0 215.1 454.0 215.8L454.0 215.8Q454.0 216.4 454.2 217.0Q454.5 217.5 454.9 217.9Q455.3 218.2 456.0 218.2L456.0 218.2Q456.3 218.2 456.6 218.1Q456.8 218.0 457.0 217.9Q457.3 217.7 457.4 217.5Q457.6 217.3 457.6 217.0L457.6 217.0L458.6 217.3Q458.5 217.7 458.2 218.1Q458.0 218.4 457.6 218.6Q457.3 218.9 456.9 219.0Q456.4 219.1 456.0 219.1ZM462.2 215.1L462.2 215.1L462.2 219L461.1 219L461.1 210.3L462.2 210.3L462.2 213.6Q462.5 213.0 462.9 212.7L462.9 212.7Q463.4 212.4 464.2 212.4L464.2 212.4Q464.8 212.4 465.3 212.6Q465.8 212.9 466.1 213.5Q466.4 214.0 466.4 214.8L466.4 214.8L466.4 219L465.3 219L465.3 214.9Q465.3 214.2 464.9 213.7Q464.5 213.3 463.8 213.3L463.8 213.3Q463.4 213.3 463.0 213.5Q462.6 213.7 462.4 214.1Q462.2 214.5 462.2 215.1Z "/></g><defs><clipPath id="satori_bc-id-3-2" clip-path="url(#satori_cp-id)"><path x="504" y="200" width="75" height="29" d="M518.5,200 h46 a14.5,14.5 0 0 1 14.5,14.5 v0 a14.5,14.5 0 0 1 -14.5,14.5 h-46 a14.5,14.5 0 0 1 -14.5,-14.5 v0 a14.5,14.5 0 0 1 14.5,-14.5"/></clipPath></defs><mask id="satori_om-id-3-2"><rect x="505" y="201" width="73" height="27" fill="#fff" mask="url(#satori_om-id)"/><path width="75" height="29" fill="none" stroke="#000" stroke-width="2" d="M508.247,204.247 A14.5,14.5 0 0 1 518.5,200 h46 a14.5,14.5 0 0 1 14.5,14.5 v0 a14.5,14.5 0 0 1 -14.5,14.5 h-46 a14.5,14.5 0 0 1 -14.5,-14.5 v0 A14.5,14.5 0 0 1 508.247,204.247"/></mask><path x="504" y="200" width="75" height="29" fill="rgba(255,255,255,0.03)" d="M518.5,200 h46 a14.5,14.5 0 0 1 14.5,14.5 v0 a14.5,14.5 0 0 1 -14.5,14.5 h-46 a14.5,14.5 0 0 1 -14.5,-14.5 v0 a14.5,14.5 0 0 1 14.5,-14.5" clip-path="url(#satori_cp-id)" mask="url(#satori_om-id)"/><path width="75" height="29" clip-path="url(#satori_bc-id-3-2)" fill="none" stroke="rgba(255,255,255,0.1)" stroke-width="2" d="M508.247,204.247 A14.5,14.5 0 0 1 518.5,200 h46 a14.5,14.5 0 0 1 14.5,14.5 v0 a14.5,14.5 0 0 1 -14.5,14.5 h-46 a14.5,14.5 0 0 1 -14.5,-14.5 v0 A14.5,14.5 0 0 1 508.247,204.247"/><g mask="url(#satori_om-id)" clip-path="url(#satori_cp-id)"><path fill="rgba(255,255,255,0.7)" d="M528.1 219.1L528.1 219.1Q527.5 219.1 527.0 218.8Q526.5 218.5 526.2 218.0Q525.9 217.4 525.9 216.6L525.9 216.6L525.9 212.4L527.0 212.4L527.0 216.5Q527.0 217.3 527.4 217.7Q527.8 218.1 528.5 218.1L528.5 218.1Q528.9 218.1 529.3 217.9Q529.7 217.7 529.9 217.3Q530.1 216.9 530.1 216.4L530.1 216.4L530.1 212.4L531.2 212.4L531.2 219L530.2 219L530.2 217.8Q529.9 218.4 529.4 218.7L529.4 218.7Q528.9 219.1 528.1 219.1ZM535.1 219L534.0 219L534.0 212.4L535.1 212.4L535.1 219ZM534.6 211.4L534.6 211.4Q534.3 211.4 534.0 211.2Q533.8 211.0 533.8 210.7L533.8 210.7Q533.8 210.4 534.0 210.2Q534.3 210.0 534.6 210.0L534.6 210.0Q534.9 210.0 535.1 210.2Q535.3 210.4 535.3 210.7L535.3 210.7Q535.3 211.0 535.1 211.2Q534.9 211.4 534.6 211.4ZM540.1 209.9L541.1 209.9L538.2 220.3L537.3 220.3L540.1 209.9ZM545.5 219.1L545.5 219.1Q544.8 219.1 544.3 218.8Q543.8 218.5 543.5 218.0Q543.3 217.4 543.3 216.6L543.3 216.6L543.3 212.4L544.3 212.4L544.3 216.5Q544.3 217.3 544.7 217.7Q545.1 218.1 545.8 218.1L545.8 218.1Q546.3 218.1 546.6 217.9Q547.0 217.7 547.2 217.3Q547.4 216.9 547.4 216.4L547.4 216.4L547.4 212.4L548.5 212.4L548.5 219L547.5 219L547.5 217.8Q547.2 218.4 546.8 218.7L546.8 218.7Q546.2 219.1 545.5 219.1ZM552.0 219L550.8 219L553.1 215.6L550.9 212.4L552.2 212.4L553.0 213.7Q553.3 214.2 553.5 214.6L553.5 214.6Q553.6 214.8 553.7 215.0L553.7 215.0Q553.8 214.8 553.9 214.6L553.9 214.6Q554.1 214.2 554.4 213.7L554.4 213.7L555.3 212.4L556.5 212.4L554.3 215.7L556.6 219L555.4 219L554.4 217.5Q554.1 217.0 553.9 216.6L553.9 216.6Q553.8 216.5 553.7 216.3L553.7 216.3Q553.6 216.5 553.5 216.6L553.5 216.6Q553.3 217.0 553.0 217.5L553.0 217.5L552.0 219Z "/></g></svg>