<!-- Generated by readme-aura https://github.com/collectioneur/readme-aura -->
<svg width="800" height="200" viewBox="0 0 800 200" xmlns="http://www.w3.org/2000/svg"><defs><clipPath id="satori_bc-id"><path x="0" y="0" width="800" height="200" d="M24,0 h752 a24,24 0 0 1 24,24 v152 a24,24 0 0 1 -24,24 h-752 a24,24 0 0 1 -24,-24 v-152 a24,24 0 0 1 24,-24"/></clipPath></defs><clipPath id="satori_cp-id"><path x="0" y="0" width="800" height="200" d="M24,0 h752 a24,24 0 0 1 24,24 v152 a24,24 0 0 1 -24,24 h-752 a24,24 0 0 1 -24,-24 v-152 a24,24 0 0 1 24,-24"/></clipPath><mask id="satori_om-id"><rect x="1" y="1" width="798" height="198" fill="#fff"/><path width="800" height="200" fill="none" stroke="#000" stroke-width="2" d="M7.029,7.029 A24,24 0 0 1 24,0 h752 a24,24 0 0 1 24,24 v152 a24,24 0 0 1 -24,24 h-752 a24,24 0 0 1 -24,-24 v-152 A24,24 0 0 1 7.029,7.029"/></mask><path x="0" y="0" width="800" height="200" fill="rgba(255,255,255,0.015)" d="M24,0 h752 a24,24 0 0 1 24,24 v152 a24,24 0 0 1 -24,24 h-752 a24,24 0 0 1 -24,-24 v-152 a24,24 0 0 1 24,-24"/><path width="800" height="200" clip-path="url(#satori_bc-id)" fill="none" stroke="rgba(255,255,255,0.06)" stroke-width="2" d="M7.029,7.029 A24,24 0 0 1 24,0 h752 a24,24 0 0 1 24,24 v152 a24,24 0 0 1 -24,24 h-752 a24,24 0 0 1 -24,-24 v-152 A24,24 0 0 1 7.029,7.029"/><clipPath id="satori_cp-id-0" clip-path="url(#satori_cp-id)"><rect x="1" y="1" width="800" height="200"/></clipPath><mask id="satori_om-id-0"><rect x="1" y="1" width="800" height="200" fill="#fff" mask="url(#satori_om-id)"/></mask><svg x="1" y="1" width="800" height="200" preserveAspectRatio="none" clip-path="url(#satori_cp-id-0)" mask="url(#satori_om-id-0)"><defs><radialGradient id="stack-glow" cx="50%" cy="50%" r="60%"><stop offset="0%" stop-color="rgba(255,255,255,0.03)"></stop><stop offset="100%" stop-color="rgba(255,255,255,0)"></stop></radialGradient></defs><rect width="100%" height="100%" fill="url(#stack-glow)"></rect></svg><mask id="satori_om-id-0-0"><rect x="1" y="1" width="0" height="200" fill="#fff" mask="url(#satori_om-id)"/></mask><mask id="satori_om-id-0-0-0"><rect x="1" y="1" width="0" height="200" fill="#fff" mask="url(#satori_om-id)"/></mask><mask id="satori_om-id-0-0-0-0"><rect x="1" y="1" width="0" height="200" fill="#fff" mask="url(#satori_om-id)"/></mask><mask id="satori_om-id-0-0-0-1"><rect x="1" y="1" width="0" height="200" fill="#fff" mask="url(#satori_om-id)"/></mask><mask id="satori_om-id-0-1"><rect x="1" y="1" width="0" height="200" fill="#fff" mask="url(#satori_om-id)"/></mask><mask id="satori_om-id-1"><rect x="339" y="43" width="122" height="13" fill="#fff" mask="url(#satori_om-id)"/></mask><g mask="url(#satori_om-id)" clip-path="url(#satori_cp-id)"><path fill="rgba(255,255,255,0.3)" d="M343.2 54.1L343.2 54.1Q342.2 54.1 341.3 53.6Q340.5 53.1 340.0 52.2Q339.5 51.3 339.5 50.0L339.5 50.0Q339.5 48.7 340.0 47.8Q340.5 46.9 341.3 46.4Q342.2 45.9 343.2 45.9L343.2 45.9Q343.9 45.9 344.5 46.1Q345.1 46.3 345.5 46.6Q346.0 47.0 346.3 47.5Q346.6 48.1 346.7 48.7L346.7 48.7L345.0 48.7Q345.0 48.4 344.8 48.1Q344.6 47.9 344.4 47.7Q344.2 47.5 343.9 47.4Q343.6 47.3 343.3 47.3L343.3 47.3Q342.6 47.3 342.2 47.7Q341.7 48.0 341.4 48.6Q341.2 49.2 341.2 50.0L341.2 50.0Q341.2 50.9 341.4 51.5Q341.7 52.1 342.2 52.4Q342.6 52.7 343.2 52.7L343.2 52.7Q343.6 52.7 343.9 52.6Q344.2 52.5 344.4 52.3Q344.6 52.1 344.8 51.8Q345.0 51.6 345.0 51.3L345.0 51.3L346.7 51.3Q346.6 51.8 346.3 52.3Q346.1 52.8 345.6 53.2Q345.2 53.6 344.6 53.9Q344.0 54.1 343.2 54.1ZM356.4 54.1L356.4 54.1Q355.3 54.1 354.5 53.6Q353.6 53.1 353.1 52.2Q352.6 51.3 352.6 50.0L352.6 50.0Q352.6 48.7 353.1 47.8Q353.6 46.9 354.5 46.4Q355.3 45.9 356.4 45.9L356.4 45.9Q357.4 45.9 358.3 46.4Q359.1 46.9 359.6 47.8Q360.1 48.7 360.1 50.0L360.1 50.0Q360.1 51.3 359.6 52.2Q359.1 53.1 358.3 53.6Q357.4 54.1 356.4 54.1ZM356.4 52.7L356.4 52.7Q357.0 52.7 357.5 52.3Q357.9 52.0 358.2 51.5Q358.4 50.9 358.4 50.0L358.4 50.0Q358.4 49.1 358.2 48.5Q357.9 48.0 357.5 47.6Q357.0 47.3 356.4 47.3L356.4 47.3Q355.8 47.3 355.3 47.7Q354.8 48.0 354.6 48.6Q354.3 49.1 354.3 50.0L354.3 50.0Q354.3 50.9 354.6 51.4Q354.8 52.0 355.3 52.3Q355.8 52.7 356.4 52.7ZM368.0 54L366.3 54L366.3 46.0L369.5 46.0Q370.4 46.0 371.0 46.3Q371.6 46.6 372.0 47.2Q372.3 47.8 372.3 48.6Q372.3 49.4 372.0 50.0Q371.6 50.5 371.0 50.8L371.0 50.8Q370.9 50.9 370.9 50.9L370.9 50.9L372.6 54L370.8 54L369.3 51.1L368.0 51.1L368.0 54ZM368.0 47.4L368.0 49.8L369.2 49.8Q369.7 49.8 370.0 49.7Q370.3 49.5 370.5 49.3Q370.6 49.0 370.6 48.6L370.6 48.6Q370.6 48.2 370.5 47.9Q370.3 47.6 370.0 47.5Q369.7 47.4 369.2 47.4L369.2 47.4L368.0 47.4ZM383.9 54L378.6 54L378.6 46.0L383.9 46.0L383.9 47.4L380.2 47.4L380.2 49.3L383.6 49.3L383.6 50.6L380.2 50.6L380.2 52.6L383.9 52.6L383.9 54Z M400.8 54.1L400.8 54.1Q399.8 54.1 399.1 53.8Q398.4 53.5 398.0 52.9Q397.6 52.4 397.6 51.5L397.6 51.5L399.2 51.5Q399.2 51.9 399.4 52.2Q399.6 52.5 400.0 52.6Q400.3 52.7 400.8 52.7L400.8 52.7Q401.2 52.7 401.5 52.6Q401.9 52.5 402.0 52.2Q402.2 52.0 402.2 51.7L402.2 51.7Q402.2 51.4 402.1 51.3Q401.9 51.1 401.6 50.9Q401.3 50.8 400.8 50.7L400.8 50.7L400.0 50.5Q398.9 50.2 398.4 49.7Q397.8 49.2 397.8 48.3L397.8 48.3Q397.8 47.6 398.2 47.0Q398.6 46.5 399.3 46.2Q399.9 45.9 400.8 45.9L400.8 45.9Q401.7 45.9 402.3 46.2Q403.0 46.5 403.4 47.0Q403.8 47.6 403.8 48.3L403.8 48.3L402.2 48.3Q402.1 47.8 401.8 47.5Q401.4 47.3 400.8 47.3L400.8 47.3Q400.4 47.3 400.1 47.4Q399.8 47.5 399.6 47.7Q399.5 47.9 399.5 48.2L399.5 48.2Q399.5 48.5 399.7 48.7Q399.8 48.9 400.1 49.0Q400.4 49.1 400.8 49.2L400.8 49.2L401.5 49.4Q402.0 49.5 402.4 49.7Q402.9 49.9 403.2 50.2Q403.5 50.4 403.7 50.8Q403.9 51.2 403.9 51.7L403.9 51.7Q403.9 52.4 403.5 53.0Q403.1 53.5 402.4 53.8Q401.8 54.1 400.8 54.1ZM412.2 47.4L409.7 47.4L409.7 46.0L416.3 46.0L416.3 47.4L413.8 47.4L413.8 54L412.2 54L412.2 47.4ZM423.7 54L421.9 54L424.7 46.0L426.8 46.0L429.6 54L427.8 54L427.2 52.1L424.3 52.1L423.7 54ZM424.7 50.9L426.8 50.9L426.5 50.1Q426.3 49.4 426.0 48.5L426.0 48.5Q425.9 47.9 425.7 47.3L425.7 47.3Q425.6 47.9 425.4 48.5L425.4 48.5Q425.2 49.4 425.0 50.1L425.0 50.1L424.7 50.9ZM439.1 54.1L439.1 54.1Q438.0 54.1 437.2 53.6Q436.4 53.1 435.9 52.2Q435.4 51.3 435.4 50.0L435.4 50.0Q435.4 48.7 435.9 47.8Q436.4 46.9 437.2 46.4Q438.0 45.9 439.1 45.9L439.1 45.9Q439.8 45.9 440.4 46.1Q441.0 46.3 441.4 46.6Q441.9 47.0 442.2 47.5Q442.5 48.1 442.5 48.7L442.5 48.7L440.9 48.7Q440.8 48.4 440.7 48.1Q440.5 47.9 440.3 47.7Q440.1 47.5 439.8 47.4Q439.5 47.3 439.1 47.3L439.1 47.3Q438.5 47.3 438.0 47.7Q437.6 48.0 437.3 48.6Q437.1 49.2 437.1 50.0L437.1 50.0Q437.1 50.9 437.3 51.5Q437.6 52.1 438.0 52.4Q438.5 52.7 439.1 52.7L439.1 52.7Q439.5 52.7 439.8 52.6Q440.1 52.5 440.3 52.3Q440.5 52.1 440.7 51.8Q440.8 51.6 440.9 51.3L440.9 51.3L442.6 51.3Q442.5 51.8 442.2 52.3Q442.0 52.8 441.5 53.2Q441.1 53.6 440.5 53.9Q439.9 54.1 439.1 54.1ZM450.4 54L448.7 54L448.7 46.0L450.4 46.0L450.4 48.2L450.4 50.0Q450.4 49.9 450.4 49.9L450.4 49.9Q450.7 49.5 451.0 49.1Q451.2 48.7 451.6 48.3L451.6 48.3L453.6 46.0L455.6 46.0L452.6 49.5L455.7 54L453.7 54L451.4 50.5L450.4 51.7L450.4 54Z "/></g><mask id="satori_om-id-2"><rect x="60" y="80" width="680" height="78" fill="#fff" mask="url(#satori_om-id)"/></mask><defs><clipPath id="satori_bc-id-2-0" clip-path="url(#satori_cp-id)"><path x="67" y="80" width="91" height="33" d="M79,80 h67 a12,12 0 0 1 12,12 v9 a12,12 0 0 1 -12,12 h-67 a12,12 0 0 1 -12,-12 v-9 a12,12 0 0 1 12,-12"/></clipPath></defs><mask id="satori_ms-id-2-0-0" maskUnits="userSpaceOnUse"><rect x="0" y="0" width="800" height="200" fill="#fff"/><path x="67" y="80" width="91" height="33" fill="#000"  stroke-width="0" d="M79,80 h67 a12,12 0 0 1 12,12 v9 a12,12 0 0 1 -12,12 h-67 a12,12 0 0 1 -12,-12 v-9 a12,12 0 0 1 12,-12" clip-path="url(#satori_cp-id)" mask="url(#satori_om-id)"/></mask><defs><filter id="satori_s-id-2-0-0" x="-39.56043956043956%" y="-109.09090909090908%" width="179.12087912087912%" height="318.1818181818182%"><feGaussianBlur stdDeviation="6" result="b"/><feFlood flood-color="rgba(0,0,0,0.1)" in="SourceGraphic" result="f"/><feComposite in="f" in2="b" operator="in"/></filter></defs><g mask="url(#satori_ms-id-2-0-0)" filter="url(#satori_s-id-2-0-0)" opacity="1"><path x="67" y="84" width="91" height="33" fill="#fff" stroke="#fff" stroke-width="0" d="M79,84 h67 a12,12 0 0 1 12,12 v9 a12,12 0 0 1 -12,12 h-67 a12,12 0 0 1 -12,-12 v-9 a12,12 0 0 1 12,-12" clip-path="url(#satori_cp-id)" mask="url(#satori_om-id)"/></g><mask id="satori_om-id-2-0"><rect x="68" y="81" width="89" height="31" fill="#fff" mask="url(#satori_om-id)"/><path width="91" height="33" fill="none" stroke="#000" stroke-width="2" d="M70.515,83.515 A12,12 0 0 1 79,80 h67 a12,12 0 0 1 12,12 v9 a12,12 0 0 1 -12,12 h-67 a12,12 0 0 1 -12,-12 v-9 A12,12 0 0 1 70.515,83.515"/></mask><path x="67" y="80" width="91" height="33" fill="rgba(255,255,255,0.03)" d="M79,80 h67 a12,12 0 0 1 12,12 v9 a12,12 0 0 1 -12,12 h-67 a12,12 0 0 1 -12,-12 v-9 a12,12 0 0 1 12,-12" clip-path="url(#satori_cp-id)" mask="url(#satori_om-id)"/><path width="91" height="33" clip-path="url(#satori_bc-id-2-0)" fill="none" stroke="rgba(255,255,255,0.1)" stroke-width="2" d="M70.515,83.515 A12,12 0 0 1 79,80 h67 a12,12 0 0 1 12,12 v9 a12,12 0 0 1 -12,12 h-67 a12,12 0 0 1 -12,-12 v-9 A12,12 0 0 1 70.515,83.515"/><g mask="url(#satori_om-id)" clip-path="url(#satori_cp-id)"><path fill="rgba(255,255,255,0.8)" d="M96.2 101L91.1 101L91.1 92.3L92.2 92.3L92.2 100.0L96.2 100.0L96.2 101ZM100.0 101.2L100.0 101.2Q99.4 101.2 98.9 100.9Q98.4 100.7 98.1 100.2Q97.8 99.8 97.8 99.1L97.8 99.1Q97.8 98.6 98.0 98.2Q98.3 97.9 98.6 97.7Q99.0 97.5 99.5 97.4Q99.9 97.3 100.4 97.2L100.4 97.2Q100.9 97.1 101.3 97.1Q101.7 97.1 101.9 97.0Q102.0 96.9 102.0 96.6L102.0 96.6L102.0 96.6Q102.0 96.2 101.9 95.9Q101.7 95.6 101.4 95.4Q101.1 95.3 100.7 95.3L100.7 95.3Q100.2 95.3 99.9 95.4Q99.5 95.6 99.3 95.8Q99.1 96.0 99.0 96.3L99.0 96.3L98 95.9Q98.3 95.3 98.7 95.0Q99.1 94.6 99.6 94.5Q100.1 94.4 100.6 94.4L100.6 94.4Q101.0 94.4 101.4 94.4Q101.8 94.5 102.2 94.8Q102.6 95.0 102.8 95.5Q103.1 95.9 103.1 96.7L103.1 96.7L103.1 101L102.1 101L102.1 100.1L102.0 100.1Q101.9 100.3 101.6 100.6Q101.4 100.8 101.0 101.0Q100.6 101.2 100.0 101.2ZM100.2 100.2L100.2 100.2Q100.8 100.2 101.2 100.0Q101.6 99.8 101.8 99.4Q102.0 99.0 102.0 98.6L102.0 98.6L102.0 97.7Q102.0 97.8 101.8 97.9Q101.5 97.9 101.3 98.0Q101.0 98.0 100.7 98.0Q100.5 98.1 100.3 98.1L100.3 98.1Q99.9 98.1 99.6 98.3Q99.3 98.4 99.1 98.6Q98.9 98.8 98.9 99.2L98.9 99.2Q98.9 99.5 99.0 99.8Q99.2 100.0 99.5 100.1Q99.8 100.2 100.2 100.2ZM106.5 101L105.4 101L105.4 94.4L106.5 94.4L106.5 95.5L106.5 95.5Q106.7 95.0 107.2 94.7Q107.7 94.4 108.2 94.4L108.2 94.4Q108.4 94.4 108.5 94.4Q108.7 94.4 108.8 94.4L108.8 94.4L108.8 95.4Q108.7 95.4 108.5 95.4Q108.3 95.4 108.1 95.4L108.1 95.4Q107.7 95.4 107.3 95.6Q106.9 95.8 106.7 96.1Q106.5 96.5 106.5 96.9L106.5 96.9L106.5 101ZM112.3 101.2L112.3 101.2Q111.7 101.2 111.2 100.9Q110.7 100.7 110.4 100.2Q110.1 99.8 110.1 99.1L110.1 99.1Q110.1 98.6 110.3 98.2Q110.5 97.9 110.9 97.7Q111.3 97.5 111.7 97.4Q112.2 97.3 112.6 97.2L112.6 97.2Q113.2 97.1 113.6 97.1Q113.9 97.1 114.1 97.0Q114.3 96.9 114.3 96.6L114.3 96.6L114.3 96.6Q114.3 96.2 114.1 95.9Q114.0 95.6 113.7 95.4Q113.4 95.3 112.9 95.3L112.9 95.3Q112.5 95.3 112.1 95.4Q111.8 95.6 111.6 95.8Q111.4 96.0 111.3 96.3L111.3 96.3L110.3 95.9Q110.5 95.3 110.9 95.0Q111.4 94.6 111.9 94.5Q112.4 94.4 112.9 94.4L112.9 94.4Q113.2 94.4 113.6 94.4Q114.1 94.5 114.5 94.8Q114.8 95.0 115.1 95.5Q115.4 95.9 115.4 96.7L115.4 96.7L115.4 101L114.3 101L114.3 100.1L114.2 100.1Q114.1 100.3 113.9 100.6Q113.6 100.8 113.3 101.0Q112.9 101.2 112.3 101.2ZM112.5 100.2L112.5 100.2Q113.1 100.2 113.5 100.0Q113.9 99.8 114.1 99.4Q114.3 99.0 114.3 98.6L114.3 98.6L114.3 97.7Q114.2 97.8 114.0 97.9Q113.8 97.9 113.5 98.0Q113.2 98.0 113.0 98.0Q112.7 98.1 112.6 98.1L112.6 98.1Q112.2 98.1 111.9 98.3Q111.5 98.4 111.3 98.6Q111.1 98.8 111.1 99.2L111.1 99.2Q111.1 99.5 111.3 99.8Q111.5 100.0 111.8 100.1Q112.1 100.2 112.5 100.2ZM120.7 101L119.6 101L117.1 94.4L118.3 94.4L119.6 98.3Q119.9 98.9 120.0 99.5L120.0 99.5Q120.1 99.8 120.2 100.0L120.2 100.0Q120.2 99.8 120.3 99.5L120.3 99.5Q120.4 98.9 120.7 98.3L120.7 98.3L122.1 94.4L123.2 94.4L120.7 101ZM127.7 101.1L127.7 101.1Q126.8 101.1 126.1 100.7Q125.4 100.3 125.0 99.5Q124.6 98.8 124.6 97.8Q124.6 96.8 125.0 96.0Q125.4 95.2 126.0 94.8Q126.7 94.4 127.6 94.4L127.6 94.4Q128.1 94.4 128.6 94.5Q129.1 94.7 129.5 95.1Q129.9 95.5 130.2 96.1Q130.4 96.7 130.4 97.6L130.4 97.6L130.4 98.1L125.7 98.1Q125.7 98.7 126.0 99.2L126.0 99.2Q126.2 99.7 126.7 99.9Q127.1 100.2 127.7 100.2L127.7 100.2Q128.1 100.2 128.4 100.1Q128.7 100.0 129.0 99.8Q129.2 99.5 129.3 99.2L129.3 99.2L130.3 99.5Q130.2 100.0 129.8 100.3Q129.4 100.7 128.9 100.9Q128.4 101.1 127.7 101.1ZM125.7 97.2L125.7 97.2L129.4 97.2Q129.3 96.7 129.2 96.4L129.2 96.4Q129.0 95.9 128.6 95.6Q128.2 95.3 127.6 95.3Q127.0 95.3 126.6 95.6Q126.1 95.9 125.9 96.3L125.9 96.3Q125.7 96.7 125.7 97.2ZM132.4 92.3L133.5 92.3L133.5 101L132.4 101L132.4 92.3Z "/></g><defs><clipPath id="satori_bc-id-2-1" clip-path="url(#satori_cp-id)"><path x="170" y="80" width="89" height="33" d="M182,80 h65 a12,12 0 0 1 12,12 v9 a12,12 0 0 1 -12,12 h-65 a12,12 0 0 1 -12,-12 v-9 a12,12 0 0 1 12,-12"/></clipPath></defs><mask id="satori_ms-id-2-1-0" maskUnits="userSpaceOnUse"><rect x="0" y="0" width="800" height="200" fill="#fff"/><path x="170" y="80" width="89" height="33" fill="#000"  stroke-width="0" d="M182,80 h65 a12,12 0 0 1 12,12 v9 a12,12 0 0 1 -12,12 h-65 a12,12 0 0 1 -12,-12 v-9 a12,12 0 0 1 12,-12" clip-path="url(#satori_cp-id)" mask="url(#satori_om-id)"/></mask><defs><filter id="satori_s-id-2-1-0" x="-40.44943820224719%" y="-109.09090909090908%" width="180.8988764044944%" height="318.1818181818182%"><feGaussianBlur stdDeviation="6" result="b"/><feFlood flood-color="rgba(0,0,0,0.1)" in="SourceGraphic" result="f"/><feComposite in="f" in2="b" operator="in"/></filter></defs><g mask="url(#satori_ms-id-2-1-0)" filter="url(#satori_s-id-2-1-0)" opacity="1"><path x="170" y="84" width="89" height="33" fill="#fff" stroke="#fff" stroke-width="0" d="M182,84 h65 a12,12 0 0 1 12,12 v9 a12,12 0 0 1 -12,12 h-65 a12,12 0 0 1 -12,-12 v-9 a12,12 0 0 1 12,-12" clip-path="url(#satori_cp-id)" mask="url(#satori_om-id)"/></g><mask id="satori_om-id-2-1"><rect x="171" y="81" width="87" height="31" fill="#fff" mask="url(#satori_om-id)"/><path width="89" height="33" fill="none" stroke="#000" stroke-width="2" d="M173.515,83.515 A12,12 0 0 1 182,80 h65 a12,12 0 0 1 12,12 v9 a12,12 0 0 1 -12,12 h-65 a12,12 0 0 1 -12,-12 v-9 A12,12 0 0 1 173.515,83.515"/></mask><path x="170" y="80" width="89" height="33" fill="rgba(255,255,255,0.03)" d="M182,80 h65 a12,12 0 0 1 12,12 v9 a12,12 0 0 1 -12,12 h-65 a12,12 0 0 1 -12,-12 v-9 a12,12 0 0 1 12,-12" clip-path="url(#satori_cp-id)" mask="url(#satori_om-id)"/><path width="89" height="33" clip-path="url(#satori_bc-id-2-1)" fill="none" stroke="rgba(255,255,255,0.1)" stroke-width="2" d="M173.515,83.515 A12,12 0 0 1 182,80 h65 a12,12 0 0 1 12,12 v9 a12,12 0 0 1 -12,12 h-65 a12,12 0 0 1 -12,-12 v-9 A12,12 0 0 1 173.515,83.515"/><g mask="url(#satori_om-id)" clip-path="url(#satori_cp-id)"><path fill="rgba(255,255,255,0.8)" d="M195.2 101L194.1 101L194.1 92.3L195.4 92.3L198.9 97.9Q199.1 98.1 199.3 98.4Q199.5 98.8 199.7 99.2L199.7 99.2Q199.8 99.4 199.9 99.7L199.9 99.7Q199.9 99.4 199.9 99.1L199.9 99.1Q199.9 98.7 199.9 98.3Q199.9 97.9 199.9 97.6L199.9 97.6L199.9 92.3L201.0 92.3L201.0 101L199.7 101L196.5 96.0Q196.3 95.7 196.1 95.3Q195.8 95.0 195.6 94.4L195.6 94.4Q195.4 94.1 195.1 93.6L195.1 93.6Q195.1 94.0 195.1 94.4L195.1 94.4Q195.1 95.0 195.2 95.4Q195.2 95.8 195.2 96.0L195.2 96.0L195.2 101ZM206.2 101.1L206.2 101.1Q205.3 101.1 204.6 100.7Q203.9 100.3 203.5 99.5Q203.2 98.8 203.2 97.8Q203.2 96.8 203.5 96.0Q203.9 95.2 204.5 94.8Q205.2 94.4 206.1 94.4L206.1 94.4Q206.6 94.4 207.1 94.5Q207.6 94.7 208.0 95.1Q208.5 95.5 208.7 96.1Q209.0 96.7 209.0 97.6L209.0 97.6L209.0 98.1L204.2 98.1Q204.2 98.7 204.5 99.2L204.5 99.2Q204.7 99.7 205.2 99.9Q205.6 100.2 206.2 100.2L206.2 100.2Q206.6 100.2 206.9 100.1Q207.2 100.0 207.5 99.8Q207.7 99.5 207.8 99.2L207.8 99.2L208.8 99.5Q208.7 100.0 208.3 100.3Q208.0 100.7 207.4 100.9Q206.9 101.1 206.2 101.1ZM204.2 97.2L204.2 97.2L207.9 97.2Q207.8 96.7 207.7 96.4L207.7 96.4Q207.5 95.9 207.1 95.6Q206.7 95.3 206.1 95.3Q205.5 95.3 205.1 95.6Q204.7 95.9 204.4 96.3L204.4 96.3Q204.3 96.7 204.2 97.2ZM211.6 101L210.4 101L212.7 97.6L210.6 94.4L211.8 94.4L212.6 95.7Q212.9 96.2 213.1 96.6L213.1 96.6Q213.2 96.8 213.3 97.0L213.3 97.0Q213.4 96.8 213.5 96.6L213.5 96.6Q213.7 96.2 214.1 95.7L214.1 95.7L214.9 94.4L216.1 94.4L213.9 97.7L216.2 101L215.0 101L214.0 99.5Q213.7 99.0 213.5 98.6L213.5 98.6Q213.4 98.5 213.3 98.3L213.3 98.3Q213.2 98.5 213.1 98.6L213.1 98.6Q212.9 99.0 212.6 99.5L212.6 99.5L211.6 101ZM219.2 94.4L220.6 94.4L220.6 95.4L219.2 95.4L219.2 99.3Q219.2 99.7 219.4 99.9Q219.6 100.1 220.0 100.1L220.0 100.1Q220.1 100.1 220.3 100.1Q220.4 100.1 220.6 100.1L220.6 100.1L220.8 101.0Q220.6 101.0 220.4 101.1Q220.2 101.1 220.0 101.1L220.0 101.1Q219.1 101.1 218.7 100.6Q218.2 100.2 218.2 99.4L218.2 99.4L218.2 95.4L217.2 95.4L217.2 94.4L218.2 94.4L218.2 92.9L219.2 92.9L219.2 94.4ZM223.2 101.1L223.2 101.1Q222.9 101.1 222.7 100.8Q222.5 100.6 222.5 100.3L222.5 100.3Q222.5 100.0 222.7 99.7Q222.9 99.5 223.2 99.5L223.2 99.5Q223.6 99.5 223.8 99.7Q224.0 100.0 224.0 100.3L224.0 100.3Q224.0 100.6 223.8 100.8Q223.6 101.1 223.2 101.1ZM226.4 101.5L226.4 94.4L227.5 94.4L227.5 101.5Q227.5 102.1 227.2 102.5Q227.0 103.0 226.6 103.2Q226.2 103.4 225.5 103.4L225.5 103.4L225.3 103.4L225.3 102.5L225.5 102.5Q226.0 102.5 226.2 102.2Q226.4 102.0 226.4 101.5L226.4 101.5ZM226.9 93.4L226.9 93.4Q226.6 93.4 226.4 93.2Q226.2 93.0 226.2 92.7L226.2 92.7Q226.2 92.4 226.4 92.2Q226.6 92.0 226.9 92.0L226.9 92.0Q227.2 92.0 227.4 92.2Q227.7 92.4 227.7 92.7L227.7 92.7Q227.7 93.0 227.4 93.2Q227.2 93.4 226.9 93.4ZM232.0 101.1L232.0 101.1Q231.4 101.1 230.8 100.9Q230.3 100.7 230.0 100.4Q229.6 100.0 229.5 99.4L229.5 99.4L230.5 99.2Q230.7 99.7 231.0 100.0Q231.4 100.2 232.0 100.2L232.0 100.2Q232.7 100.2 233.1 99.9Q233.5 99.6 233.5 99.2L233.5 99.2Q233.5 98.9 233.3 98.7Q233.0 98.4 232.6 98.3L232.6 98.3L231.5 98.1Q230.6 97.9 230.1 97.4Q229.7 97.0 229.7 96.3L229.7 96.3Q229.7 95.7 230.0 95.3Q230.3 94.9 230.9 94.6Q231.4 94.4 232.1 94.4L232.1 94.4Q232.8 94.4 233.3 94.6Q233.8 94.8 234.0 95.1Q234.3 95.5 234.5 95.9L234.5 95.9L233.5 96.2Q233.4 95.8 233.1 95.6Q232.8 95.3 232.1 95.3L232.1 95.3Q231.6 95.3 231.2 95.5Q230.8 95.8 230.8 96.2L230.8 96.2Q230.8 96.6 231.0 96.8Q231.3 97.0 231.9 97.2L231.9 97.2L232.9 97.4Q233.8 97.6 234.2 98.0Q234.6 98.5 234.6 99.2L234.6 99.2Q234.6 99.7 234.3 100.2Q234.0 100.6 233.4 100.9Q232.8 101.1 232.0 101.1Z "/></g><defs><clipPath id="satori_bc-id-2-2" clip-path="url(#satori_cp-id)"><path x="271" y="80" width="81" height="33" d="M283,80 h57 a12,12 0 0 1 12,12 v9 a12,12 0 0 1 -12,12 h-57 a12,12 0 0 1 -12,-12 v-9 a12,12 0 0 1 12,-12"/></clipPath></defs><mask id="satori_ms-id-2-2-0" maskUnits="userSpaceOnUse"><rect x="0" y="0" width="800" height="200" fill="#fff"/><path x="271" y="80" width="81" height="33" fill="#000"  stroke-width="0" d="M283,80 h57 a12,12 0 0 1 12,12 v9 a12,12 0 0 1 -12,12 h-57 a12,12 0 0 1 -12,-12 v-9 a12,12 0 0 1 12,-12" clip-path="url(#satori_cp-id)" mask="url(#satori_om-id)"/></mask><defs><filter id="satori_s-id-2-2-0" x="-44.44444444444444%" y="-109.09090909090908%" width="188.88888888888889%" height="318.1818181818182%"><feGaussianBlur stdDeviation="6" result="b"/><feFlood flood-color="rgba(0,0,0,0.1)" in="SourceGraphic" result="f"/><feComposite in="f" in2="b" operator="in"/></filter></defs><g mask="url(#satori_ms-id-2-2-0)" filter="url(#satori_s-id-2-2-0)" opacity="1"><path x="271" y="84" width="81" height="33" fill="#fff" stroke="#fff" stroke-width="0" d="M283,84 h57 a12,12 0 0 1 12,12 v9 a12,12 0 0 1 -12,12 h-57 a12,12 0 0 1 -12,-12 v-9 a12,12 0 0 1 12,-12" clip-path="url(#satori_cp-id)" mask="url(#satori_om-id)"/></g><mask id="satori_om-id-2-2"><rect x="272" y="81" width="79" height="31" fill="#fff" mask="url(#satori_om-id)"/><path width="81" height="33" fill="none" stroke="#000" stroke-width="2" d="M274.515,83.515 A12,12 0 0 1 283,80 h57 a12,12 0 0 1 12,12 v9 a12,12 0 0 1 -12,12 h-57 a12,12 0 0 1 -12,-12 v-9 A12,12 0 0 1 274.515,83.515"/></mask><path x="271" y="80" width="81" height="33" fill="rgba(255,255,255,0.03)" d="M283,80 h57 a12,12 0 0 1 12,12 v9 a12,12 0 0 1 -12,12 h-57 a12,12 0 0 1 -12,-12 v-9 a12,12 0 0 1 12,-12" clip-path="url(#satori_cp-id)" mask="url(#satori_om-id)"/><path width="81" height="33" clip-path="url(#satori_bc-id-2-2)" fill="none" stroke="rgba(255,255,255,0.1)" stroke-width="2" d="M274.515,83.515 A12,12 0 0 1 283,80 h57 a12,12 0 0 1 12,12 v9 a12,12 0 0 1 -12,12 h-57 a12,12 0 0 1 -12,-12 v-9 A12,12 0 0 1 274.515,83.515"/><g mask="url(#satori_om-id)" clip-path="url(#satori_cp-id)"><path fill="rgba(255,255,255,0.8)" d="M296.2 101L295.1 101L295.1 92.3L298.0 92.3Q299.1 92.3 299.7 92.6Q300.4 93.0 300.7 93.6Q301.0 94.2 301.0 95.0Q301.0 95.7 300.7 96.3Q300.4 96.9 299.7 97.3L299.7 97.3Q299.6 97.4 299.4 97.4L299.4 97.4L301.4 101L300.1 101L298.3 97.6Q298.2 97.6 298.0 97.6L298.0 97.6L296.2 97.6L296.2 101ZM296.2 93.2L296.2 96.6L298.0 96.6Q298.7 96.6 299.1 96.4Q299.5 96.2 299.7 95.8Q299.9 95.5 299.9 95.0L299.9 95.0Q299.9 94.4 299.7 94.1Q299.5 93.7 299.1 93.5Q298.7 93.2 298.0 93.2L298.0 93.2L296.2 93.2ZM305.9 101.1L305.9 101.1Q305.0 101.1 304.3 100.7Q303.6 100.3 303.2 99.5Q302.8 98.8 302.8 97.8Q302.8 96.8 303.2 96.0Q303.6 95.2 304.2 94.8Q304.9 94.4 305.8 94.4L305.8 94.4Q306.3 94.4 306.8 94.5Q307.3 94.7 307.7 95.1Q308.1 95.5 308.4 96.1Q308.6 96.7 308.6 97.6L308.6 97.6L308.6 98.1L303.9 98.1Q303.9 98.7 304.2 99.2L304.2 99.2Q304.4 99.7 304.9 99.9Q305.3 100.2 305.9 100.2L305.9 100.2Q306.3 100.2 306.6 100.1Q306.9 100.0 307.2 99.8Q307.4 99.5 307.5 99.2L307.5 99.2L308.5 99.5Q308.4 100.0 308.0 100.3Q307.6 100.7 307.1 100.9Q306.6 101.1 305.9 101.1ZM303.9 97.2L303.9 97.2L307.6 97.2Q307.5 96.7 307.4 96.4L307.4 96.4Q307.2 95.9 306.8 95.6Q306.4 95.3 305.8 95.3Q305.2 95.3 304.8 95.6Q304.3 95.9 304.1 96.3L304.1 96.3Q303.9 96.7 303.9 97.2ZM312.5 101.2L312.5 101.2Q311.9 101.2 311.4 100.9Q310.8 100.7 310.5 100.2Q310.2 99.8 310.2 99.1L310.2 99.1Q310.2 98.6 310.5 98.2Q310.7 97.9 311.1 97.7Q311.4 97.5 311.9 97.4Q312.3 97.3 312.8 97.2L312.8 97.2Q313.4 97.1 313.8 97.1Q314.1 97.1 314.3 97.0Q314.5 96.9 314.5 96.6L314.5 96.6L314.5 96.6Q314.5 96.2 314.3 95.9Q314.2 95.6 313.9 95.4Q313.6 95.3 313.1 95.3L313.1 95.3Q312.6 95.3 312.3 95.4Q312.0 95.6 311.8 95.8Q311.6 96.0 311.4 96.3L311.4 96.3L310.4 95.9Q310.7 95.3 311.1 95.0Q311.5 94.6 312.1 94.5Q312.6 94.4 313.1 94.4L313.1 94.4Q313.4 94.4 313.8 94.4Q314.2 94.5 314.6 94.8Q315.0 95.0 315.3 95.5Q315.5 95.9 315.5 96.7L315.5 96.7L315.5 101L314.5 101L314.5 100.1L314.4 100.1Q314.3 100.3 314.1 100.6Q313.8 100.8 313.4 101.0Q313.0 101.2 312.5 101.2ZM312.7 100.2L312.7 100.2Q313.2 100.2 313.7 100.0Q314.1 99.8 314.3 99.4Q314.5 99.0 314.5 98.6L314.5 98.6L314.5 97.7Q314.4 97.8 314.2 97.9Q314.0 97.9 313.7 98.0Q313.4 98.0 313.2 98.0Q312.9 98.1 312.7 98.1L312.7 98.1Q312.4 98.1 312.0 98.3Q311.7 98.4 311.5 98.6Q311.3 98.8 311.3 99.2L311.3 99.2Q311.3 99.5 311.5 99.8Q311.7 100.0 312.0 100.1Q312.3 100.2 312.7 100.2ZM320.5 101.1L320.5 101.1Q319.7 101.1 319.0 100.7Q318.3 100.3 317.9 99.5Q317.6 98.8 317.6 97.8L317.6 97.8Q317.6 96.7 317.9 96.0Q318.3 95.2 319.0 94.8Q319.7 94.4 320.5 94.4L320.5 94.4Q321.0 94.4 321.4 94.5Q321.9 94.6 322.2 94.8Q322.6 95.1 322.8 95.4Q323.1 95.8 323.2 96.2L323.2 96.2L322.2 96.5Q322.1 96.2 322.0 96.0Q321.8 95.8 321.6 95.6Q321.4 95.5 321.1 95.4Q320.9 95.3 320.5 95.3L320.5 95.3Q319.9 95.3 319.5 95.7Q319.0 96.0 318.8 96.6Q318.6 97.1 318.6 97.8L318.6 97.8Q318.6 98.4 318.8 99.0Q319.0 99.5 319.5 99.9Q319.9 100.2 320.5 100.2L320.5 100.2Q320.9 100.2 321.2 100.1Q321.4 100.0 321.6 99.9Q321.9 99.7 322.0 99.5Q322.1 99.3 322.2 99.0L322.2 99.0L323.2 99.3Q323.1 99.7 322.8 100.1Q322.6 100.4 322.2 100.6Q321.9 100.9 321.5 101.0Q321.0 101.1 320.5 101.1ZM326.5 94.4L327.8 94.4L327.8 95.4L326.5 95.4L326.5 99.3Q326.5 99.7 326.6 99.9Q326.8 100.1 327.2 100.1L327.2 100.1Q327.3 100.1 327.5 100.1Q327.7 100.1 327.8 100.1L327.8 100.1L328.0 101.0Q327.8 101.0 327.6 101.1Q327.4 101.1 327.2 101.1L327.2 101.1Q326.4 101.1 325.9 100.6Q325.4 100.2 325.4 99.4L325.4 99.4L325.4 95.4L324.4 95.4L324.4 94.4L325.4 94.4L325.4 92.9L326.5 92.9L326.5 94.4Z "/></g><defs><clipPath id="satori_bc-id-2-3" clip-path="url(#satori_cp-id)"><path x="364" y="80" width="127" height="33" d="M376,80 h103 a12,12 0 0 1 12,12 v9 a12,12 0 0 1 -12,12 h-103 a12,12 0 0 1 -12,-12 v-9 a12,12 0 0 1 12,-12"/></clipPath></defs><mask id="satori_ms-id-2-3-0" maskUnits="userSpaceOnUse"><rect x="0" y="0" width="800" height="200" fill="#fff"/><path x="364" y="80" width="127" height="33" fill="#000"  stroke-width="0" d="M376,80 h103 a12,12 0 0 1 12,12 v9 a12,12 0 0 1 -12,12 h-103 a12,12 0 0 1 -12,-12 v-9 a12,12 0 0 1 12,-12" clip-path="url(#satori_cp-id)" mask="url(#satori_om-id)"/></mask><defs><filter id="satori_s-id-2-3-0" x="-28.346456692913385%" y="-109.09090909090908%" width="156.69291338582678%" height="318.1818181818182%"><feGaussianBlur stdDeviation="6" result="b"/><feFlood flood-color="rgba(0,0,0,0.1)" in="SourceGraphic" result="f"/><feComposite in="f" in2="b" operator="in"/></filter></defs><g mask="url(#satori_ms-id-2-3-0)" filter="url(#satori_s-id-2-3-0)" opacity="1"><path x="364" y="84" width="127" height="33" fill="#fff" stroke="#fff" stroke-width="0" d="M376,84 h103 a12,12 0 0 1 12,12 v9 a12,12 0 0 1 -12,12 h-103 a12,12 0 0 1 -12,-12 v-9 a12,12 0 0 1 12,-12" clip-path="url(#satori_cp-id)" mask="url(#satori_om-id)"/></g><mask id="satori_om-id-2-3"><rect x="365" y="81" width="125" height="31" fill="#fff" mask="url(#satori_om-id)"/><path width="127" height="33" fill="none" stroke="#000" stroke-width="2" d="M367.515,83.515 A12,12 0 0 1 376,80 h103 a12,12 0 0 1 12,12 v9 a12,12 0 0 1 -12,12 h-103 a12,12 0 0 1 -12,-12 v-9 A12,12 0 0 1 367.515,83.515"/></mask><path x="364" y="80" width="127" height="33" fill="rgba(255,255,255,0.03)" d="M376,80 h103 a12,12 0 0 1 12,12 v9 a12,12 0 0 1 -12,12 h-103 a12,12 0 0 1 -12,-12 v-9 a12,12 0 0 1 12,-12" clip-path="url(#satori_cp-id)" mask="url(#satori_om-id)"/><path width="127" height="33" clip-path="url(#satori_bc-id-2-3)" fill="none" stroke="rgba(255,255,255,0.1)" stroke-width="2" d="M367.515,83.515 A12,12 0 0 1 376,80 h103 a12,12 0 0 1 12,12 v9 a12,12 0 0 1 -12,12 h-103 a12,12 0 0 1 -12,-12 v-9 A12,12 0 0 1 367.515,83.515"/><g mask="url(#satori_om-id)" clip-path="url(#satori_cp-id)"><path fill="rgba(255,255,255,0.8)" d="M390.3 93.3L387.6 93.3L387.6 92.3L394.2 92.3L394.2 93.3L391.4 93.3L391.4 101L390.3 101L390.3 93.3ZM398.0 101.2L398.0 101.2Q397.4 101.2 396.9 100.9Q396.4 100.7 396.1 100.2Q395.8 99.8 395.8 99.1L395.8 99.1Q395.8 98.6 396.0 98.2Q396.2 97.9 396.6 97.7Q397.0 97.5 397.4 97.4Q397.9 97.3 398.3 97.2L398.3 97.2Q398.9 97.1 399.3 97.1Q399.6 97.1 399.8 97.0Q400.0 96.9 400.0 96.6L400.0 96.6L400.0 96.6Q400.0 96.2 399.9 95.9Q399.7 95.6 399.4 95.4Q399.1 95.3 398.6 95.3L398.6 95.3Q398.2 95.3 397.8 95.4Q397.5 95.6 397.3 95.8Q397.1 96.0 397.0 96.3L397.0 96.3L396.0 95.9Q396.2 95.3 396.6 95.0Q397.1 94.6 397.6 94.5Q398.1 94.4 398.6 94.4L398.6 94.4Q398.9 94.4 399.4 94.4Q399.8 94.5 400.2 94.8Q400.5 95.0 400.8 95.5Q401.1 95.9 401.1 96.7L401.1 96.7L401.1 101L400.0 101L400.0 100.1L400.0 100.1Q399.8 100.3 399.6 100.6Q399.3 100.8 399.0 101.0Q398.6 101.2 398.0 101.2ZM398.2 100.2L398.2 100.2Q398.8 100.2 399.2 100.0Q399.6 99.8 399.8 99.4Q400.0 99.0 400.0 98.6L400.0 98.6L400.0 97.7Q399.9 97.8 399.7 97.9Q399.5 97.9 399.2 98.0Q398.9 98.0 398.7 98.0Q398.4 98.1 398.3 98.1L398.3 98.1Q397.9 98.1 397.6 98.3Q397.2 98.4 397.0 98.6Q396.8 98.8 396.8 99.2L396.8 99.2Q396.8 99.5 397.0 99.8Q397.2 100.0 397.5 100.1Q397.8 100.2 398.2 100.2ZM404.5 101L403.4 101L403.4 94.4L404.5 94.4L404.5 101ZM403.9 93.4L403.9 93.4Q403.6 93.4 403.4 93.2Q403.2 93.0 403.2 92.7L403.2 92.7Q403.2 92.4 403.4 92.2Q403.6 92.0 403.9 92.0L403.9 92.0Q404.2 92.0 404.5 92.2Q404.7 92.4 404.7 92.7L404.7 92.7Q404.7 93.0 404.5 93.2Q404.2 93.4 403.9 93.4ZM406.8 92.3L407.9 92.3L407.9 101L406.8 101L406.8 92.3ZM412.7 101L411.7 101L409.7 94.4L410.8 94.4L411.6 97.3Q411.8 97.9 412.0 98.6L412.0 98.6Q412.1 99.2 412.3 99.9L412.3 99.9Q412.4 99.2 412.5 98.7L412.5 98.7Q412.7 97.9 412.9 97.3L412.9 97.3L413.7 94.4L414.8 94.4L415.6 97.3Q415.7 97.9 415.9 98.7L415.9 98.7Q416.0 99.2 416.2 99.9L416.2 99.9Q416.3 99.2 416.4 98.7L416.4 98.7Q416.6 97.9 416.8 97.3L416.8 97.3L417.6 94.4L418.7 94.4L416.7 101L415.7 101L414.8 98.0Q414.7 97.6 414.6 97.1Q414.4 96.6 414.3 96.2L414.3 96.2Q414.3 95.9 414.2 95.6L414.2 95.6Q414.1 95.9 414.1 96.1L414.1 96.1Q414.0 96.6 413.8 97.1Q413.7 97.6 413.6 98.0L413.6 98.0L412.7 101ZM421.6 101L420.5 101L420.5 94.4L421.6 94.4L421.6 101ZM421.1 93.4L421.1 93.4Q420.8 93.4 420.6 93.2Q420.3 93.0 420.3 92.7L420.3 92.7Q420.3 92.4 420.6 92.2Q420.8 92.0 421.1 92.0L421.1 92.0Q421.4 92.0 421.6 92.2Q421.8 92.4 421.8 92.7L421.8 92.7Q421.8 93.0 421.6 93.2Q421.4 93.4 421.1 93.4ZM425.0 97.1L425.0 97.1L425.0 101L423.9 101L423.9 94.4L425.0 94.4L425.0 95.7Q425.2 95.0 425.7 94.7L425.7 94.7Q426.2 94.4 427.0 94.4L427.0 94.4Q427.6 94.4 428.1 94.6Q428.6 94.9 428.9 95.5Q429.2 96.0 429.2 96.8L429.2 96.8L429.2 101L428.1 101L428.1 96.9Q428.1 96.2 427.7 95.7Q427.3 95.3 426.7 95.3L426.7 95.3Q426.2 95.3 425.8 95.5Q425.4 95.7 425.2 96.1Q425.0 96.5 425.0 97.1ZM434.0 101.1L434.0 101.1Q433.2 101.1 432.6 100.7Q431.9 100.3 431.6 99.5Q431.2 98.8 431.2 97.7L431.2 97.7Q431.2 96.7 431.6 95.9Q431.9 95.2 432.6 94.8Q433.2 94.4 434 94.4L434 94.4Q434.6 94.4 435.0 94.6Q435.4 94.8 435.6 95.1Q435.8 95.3 435.9 95.5L435.9 95.5L436.0 95.5L436.0 92.3L437.0 92.3L437.0 101L436.0 101L436.0 100.0L435.9 100.0Q435.8 100.2 435.6 100.4Q435.4 100.7 435.0 100.9Q434.6 101.1 434.0 101.1ZM434.2 100.2L434.2 100.2Q434.8 100.2 435.2 99.9Q435.6 99.6 435.8 99.0Q436.0 98.5 436.0 97.7L436.0 97.7Q436.0 97.0 435.8 96.5Q435.6 95.9 435.2 95.6Q434.8 95.3 434.2 95.3L434.2 95.3Q433.5 95.3 433.1 95.6Q432.7 96.0 432.5 96.5Q432.3 97.1 432.3 97.7L432.3 97.7Q432.3 98.4 432.5 99.0Q432.7 99.5 433.1 99.9Q433.5 100.2 434.2 100.2Z M446.9 101.1L446.9 101.1Q445.8 101.1 444.9 100.6Q444.1 100.0 443.6 99.0Q443.1 98.0 443.1 96.6L443.1 96.6Q443.1 95.3 443.6 94.2Q444.1 93.2 444.9 92.7Q445.8 92.2 446.9 92.2L446.9 92.2Q447.6 92.2 448.2 92.3Q448.8 92.5 449.2 92.9Q449.7 93.3 450.0 93.8Q450.3 94.3 450.4 95.0L450.4 95.0L449.3 95.0Q449.2 94.6 449.0 94.2Q448.8 93.9 448.5 93.7Q448.1 93.4 447.7 93.3Q447.4 93.2 446.9 93.2L446.9 93.2Q446.1 93.2 445.5 93.6Q444.9 94.0 444.5 94.8Q444.1 95.5 444.1 96.6L444.1 96.6Q444.1 97.8 444.5 98.5Q444.9 99.3 445.5 99.7Q446.1 100.1 446.9 100.1L446.9 100.1Q447.4 100.1 447.7 100.0Q448.1 99.8 448.5 99.6Q448.8 99.4 449.0 99.0Q449.2 98.7 449.3 98.3L449.3 98.3L450.4 98.3Q450.3 98.9 450.0 99.4Q449.7 100.0 449.2 100.3Q448.8 100.7 448.2 100.9Q447.6 101.1 446.9 101.1ZM455.5 101.2L455.5 101.2Q454.5 101.2 453.8 100.8Q453.1 100.5 452.7 100.0Q452.3 99.4 452.3 98.7L452.3 98.7L453.4 98.7Q453.5 99.2 453.8 99.5Q454.0 99.8 454.5 100.0Q454.9 100.2 455.5 100.2L455.5 100.2Q456.0 100.2 456.5 100.0Q457.0 99.8 457.3 99.4Q457.5 99.1 457.5 98.6L457.5 98.6Q457.5 98.2 457.3 97.9Q457.1 97.7 456.7 97.5Q456.3 97.3 455.8 97.2L455.8 97.2L454.8 96.9Q453.7 96.6 453.1 96.0Q452.5 95.5 452.5 94.6L452.5 94.6Q452.5 93.9 452.9 93.3Q453.3 92.8 454.0 92.5Q454.7 92.2 455.5 92.2L455.5 92.2Q456.4 92.2 457.1 92.5Q457.7 92.8 458.1 93.3Q458.5 93.8 458.5 94.5L458.5 94.5L457.4 94.5Q457.3 93.8 456.8 93.5Q456.3 93.1 455.5 93.1L455.5 93.1Q454.9 93.1 454.5 93.3Q454.1 93.5 453.8 93.8Q453.6 94.1 453.6 94.6L453.6 94.6Q453.6 95.0 453.9 95.3Q454.2 95.6 454.6 95.7Q455.0 95.9 455.3 96.0L455.3 96.0L456.1 96.2Q456.5 96.3 456.9 96.5Q457.3 96.6 457.7 96.9Q458.1 97.2 458.4 97.6Q458.6 98.0 458.6 98.6L458.6 98.6Q458.6 99.3 458.2 99.9Q457.9 100.5 457.2 100.8Q456.5 101.2 455.5 101.2ZM463.7 101.2L463.7 101.2Q462.7 101.2 462.0 100.8Q461.3 100.5 460.9 100.0Q460.5 99.4 460.5 98.7L460.5 98.7L461.6 98.7Q461.7 99.2 462.0 99.5Q462.2 99.8 462.7 100.0Q463.1 100.2 463.7 100.2L463.7 100.2Q464.2 100.2 464.7 100.0Q465.2 99.8 465.5 99.4Q465.7 99.1 465.7 98.6L465.7 98.6Q465.7 98.2 465.5 97.9Q465.3 97.7 464.9 97.5Q464.5 97.3 464.0 97.2L464.0 97.2L463.0 96.9Q461.9 96.6 461.3 96.0Q460.7 95.5 460.7 94.6L460.7 94.6Q460.7 93.9 461.1 93.3Q461.5 92.8 462.2 92.5Q462.9 92.2 463.7 92.2L463.7 92.2Q464.6 92.2 465.3 92.5Q465.9 92.8 466.3 93.3Q466.7 93.8 466.7 94.5L466.7 94.5L465.6 94.5Q465.5 93.8 465.0 93.5Q464.5 93.1 463.7 93.1L463.7 93.1Q463.1 93.1 462.7 93.3Q462.3 93.5 462.0 93.8Q461.8 94.1 461.8 94.6L461.8 94.6Q461.8 95.0 462.1 95.3Q462.4 95.6 462.8 95.7Q463.2 95.9 463.5 96.0L463.5 96.0L464.3 96.2Q464.7 96.3 465.1 96.5Q465.5 96.6 465.9 96.9Q466.3 97.2 466.6 97.6Q466.8 98.0 466.8 98.6L466.8 98.6Q466.8 99.3 466.4 99.9Q466.1 100.5 465.4 100.8Q464.7 101.2 463.7 101.2Z "/></g><defs><clipPath id="satori_bc-id-2-4" clip-path="url(#satori_cp-id)"><path x="503" y="80" width="129" height="33" d="M515,80 h105 a12,12 0 0 1 12,12 v9 a12,12 0 0 1 -12,12 h-105 a12,12 0 0 1 -12,-12 v-9 a12,12 0 0 1 12,-12"/></clipPath></defs><mask id="satori_ms-id-2-4-0" maskUnits="userSpaceOnUse"><rect x="0" y="0" width="800" height="200" fill="#fff"/><path x="503" y="80" width="129" height="33" fill="#000"  stroke-width="0" d="M515,80 h105 a12,12 0 0 1 12,12 v9 a12,12 0 0 1 -12,12 h-105 a12,12 0 0 1 -12,-12 v-9 a12,12 0 0 1 12,-12" clip-path="url(#satori_cp-id)" mask="url(#satori_om-id)"/></mask><defs><filter id="satori_s-id-2-4-0" x="-27.906976744186046%" y="-109.09090909090908%" width="155.8139534883721%" height="318.1818181818182%"><feGaussianBlur stdDeviation="6" result="b"/><feFlood flood-color="rgba(0,0,0,0.1)" in="SourceGraphic" result="f"/><feComposite in="f" in2="b" operator="in"/></filter></defs><g mask="url(#satori_ms-id-2-4-0)" filter="url(#satori_s-id-2-4-0)" opacity="1"><path x="503" y="84" width="129" height="33" fill="#fff" stroke="#fff" stroke-width="0" d="M515,84 h105 a12,12 0 0 1 12,12 v9 a12,12 0 0 1 -12,12 h-105 a12,12 0 0 1 -12,-12 v-9 a12,12 0 0 1 12,-12" clip-path="url(#satori_cp-id)" mask="url(#satori_om-id)"/></g><mask id="satori_om-id-2-4"><rect x="504" y="81" width="127" height="31" fill="#fff" mask="url(#satori_om-id)"/><path width="129" height="33" fill="none" stroke="#000" stroke-width="2" d="M506.515,83.515 A12,12 0 0 1 515,80 h105 a12,12 0 0 1 12,12 v9 a12,12 0 0 1 -12,12 h-105 a12,12 0 0 1 -12,-12 v-9 A12,12 0 0 1 506.515,83.515"/></mask><path x="503" y="80" width="129" height="33" fill="rgba(255,255,255,0.03)" d="M515,80 h105 a12,12 0 0 1 12,12 v9 a12,12 0 0 1 -12,12 h-105 a12,12 0 0 1 -12,-12 v-9 a12,12 0 0 1 12,-12" clip-path="url(#satori_cp-id)" mask="url(#satori_om-id)"/><path width="129" height="33" clip-path="url(#satori_bc-id-2-4)" fill="none" stroke="rgba(255,255,255,0.1)" stroke-width="2" d="M506.515,83.515 A12,12 0 0 1 515,80 h105 a12,12 0 0 1 12,12 v9 a12,12 0 0 1 -12,12 h-105 a12,12 0 0 1 -12,-12 v-9 A12,12 0 0 1 506.515,83.515"/><g mask="url(#satori_om-id)" clip-path="url(#satori_cp-id)"><path fill="rgba(255,255,255,0.8)" d="M529.3 93.3L526.6 93.3L526.6 92.3L533.2 92.3L533.2 93.3L530.4 93.3L530.4 101L529.3 101L529.3 93.3ZM537.9 101.1L537.9 101.1Q537.0 101.1 536.3 100.7Q535.6 100.3 535.2 99.5Q534.9 98.8 534.9 97.8Q534.9 96.8 535.2 96.0Q535.6 95.2 536.2 94.8Q536.9 94.4 537.8 94.4L537.8 94.4Q538.3 94.4 538.8 94.5Q539.3 94.7 539.8 95.1Q540.2 95.5 540.4 96.1Q540.7 96.7 540.7 97.6L540.7 97.6L540.7 98.1L535.9 98.1Q535.9 98.7 536.2 99.2L536.2 99.2Q536.4 99.7 536.9 99.9Q537.3 100.2 537.9 100.2L537.9 100.2Q538.3 100.2 538.6 100.1Q539.0 100.0 539.2 99.8Q539.4 99.5 539.5 99.2L539.5 99.2L540.6 99.5Q540.4 100.0 540.0 100.3Q539.7 100.7 539.1 100.9Q538.6 101.1 537.9 101.1ZM535.9 97.2L535.9 97.2L539.6 97.2Q539.5 96.7 539.4 96.4L539.4 96.4Q539.2 95.9 538.8 95.6Q538.4 95.3 537.8 95.3Q537.2 95.3 536.8 95.6Q536.4 95.9 536.1 96.3L536.1 96.3Q536.0 96.7 535.9 97.2ZM542.7 92.3L543.7 92.3L543.7 101L542.7 101L542.7 92.3ZM548.8 101.1L548.8 101.1Q547.9 101.1 547.2 100.7Q546.5 100.3 546.1 99.5Q545.8 98.8 545.8 97.8Q545.8 96.8 546.1 96.0Q546.5 95.2 547.1 94.8Q547.8 94.4 548.7 94.4L548.7 94.4Q549.2 94.4 549.7 94.5Q550.2 94.7 550.7 95.1Q551.1 95.5 551.3 96.1Q551.6 96.7 551.6 97.6L551.6 97.6L551.6 98.1L546.8 98.1Q546.8 98.7 547.1 99.2L547.1 99.2Q547.3 99.7 547.8 99.9Q548.2 100.2 548.8 100.2L548.8 100.2Q549.2 100.2 549.5 100.1Q549.9 100.0 550.1 99.8Q550.3 99.5 550.4 99.2L550.4 99.2L551.5 99.5Q551.3 100.0 550.9 100.3Q550.6 100.7 550.0 100.9Q549.5 101.1 548.8 101.1ZM546.8 97.2L546.8 97.2L550.5 97.2Q550.4 96.7 550.3 96.4L550.3 96.4Q550.1 95.9 549.7 95.6Q549.3 95.3 548.7 95.3Q548.1 95.3 547.7 95.6Q547.3 95.9 547.0 96.3L547.0 96.3Q546.9 96.7 546.8 97.2ZM556.2 103.6L556.2 103.6Q555.5 103.6 555.0 103.4Q554.4 103.2 554.1 102.9Q553.7 102.6 553.5 102.3L553.5 102.3L554.4 101.7Q554.5 101.9 554.7 102.1Q554.9 102.3 555.3 102.5Q555.7 102.7 556.2 102.7L556.2 102.7Q557.0 102.7 557.5 102.3Q558.0 101.9 558.0 101.1L558.0 101.1L558.0 99.8L557.9 99.8Q557.8 100.0 557.6 100.2Q557.4 100.5 557.0 100.7Q556.7 100.9 556.0 100.9L556.0 100.9Q555.2 100.9 554.6 100.5Q554.0 100.2 553.6 99.4Q553.3 98.7 553.3 97.7L553.3 97.7Q553.3 96.7 553.6 95.9Q554.0 95.2 554.6 94.8Q555.2 94.4 556.0 94.4L556.0 94.4Q556.7 94.4 557.1 94.6Q557.4 94.8 557.6 95.1Q557.8 95.3 558.0 95.5L558.0 95.5L558.1 95.5L558.1 94.4L559.1 94.4L559.1 101.2Q559.1 102.0 558.7 102.5Q558.3 103.1 557.7 103.3Q557.0 103.6 556.2 103.6ZM556.2 100.0L556.2 100.0Q556.8 100.0 557.2 99.7Q557.6 99.4 557.8 98.9Q558.0 98.4 558.0 97.7L558.0 97.7Q558.0 97.0 557.8 96.4Q557.6 95.9 557.2 95.6Q556.8 95.3 556.2 95.3L556.2 95.3Q555.6 95.3 555.2 95.6Q554.7 95.9 554.5 96.5Q554.3 97.0 554.3 97.7L554.3 97.7Q554.3 98.3 554.5 98.9Q554.7 99.4 555.2 99.7Q555.6 100.0 556.2 100.0ZM562.5 101L561.4 101L561.4 94.4L562.4 94.4L562.4 95.5L562.5 95.5Q562.7 95.0 563.2 94.7Q563.6 94.4 564.2 94.4L564.2 94.4Q564.3 94.4 564.5 94.4Q564.7 94.4 564.8 94.4L564.8 94.4L564.8 95.4Q564.7 95.4 564.5 95.4Q564.3 95.4 564.1 95.4L564.1 95.4Q563.7 95.4 563.3 95.6Q562.9 95.8 562.7 96.1Q562.5 96.5 562.5 96.9L562.5 96.9L562.5 101ZM568.3 101.2L568.3 101.2Q567.7 101.2 567.2 100.9Q566.6 100.7 566.3 100.2Q566.0 99.8 566.0 99.1L566.0 99.1Q566.0 98.6 566.3 98.2Q566.5 97.9 566.9 97.7Q567.2 97.5 567.7 97.4Q568.1 97.3 568.6 97.2L568.6 97.2Q569.2 97.1 569.6 97.1Q569.9 97.1 570.1 97.0Q570.3 96.9 570.3 96.6L570.3 96.6L570.3 96.6Q570.3 96.2 570.1 95.9Q570.0 95.6 569.7 95.4Q569.4 95.3 568.9 95.3L568.9 95.3Q568.4 95.3 568.1 95.4Q567.8 95.6 567.6 95.8Q567.4 96.0 567.3 96.3L567.3 96.3L566.2 95.9Q566.5 95.3 566.9 95.0Q567.3 94.6 567.9 94.5Q568.4 94.4 568.9 94.4L568.9 94.4Q569.2 94.4 569.6 94.4Q570.0 94.5 570.4 94.8Q570.8 95.0 571.1 95.5Q571.3 95.9 571.3 96.7L571.3 96.7L571.3 101L570.3 101L570.3 100.1L570.2 100.1Q570.1 100.3 569.9 100.6Q569.6 100.8 569.2 101.0Q568.8 101.2 568.3 101.2ZM568.5 100.2L568.5 100.2Q569.0 100.2 569.5 100.0Q569.9 99.8 570.1 99.4Q570.3 99.0 570.3 98.6L570.3 98.6L570.3 97.7Q570.2 97.8 570.0 97.9Q569.8 97.9 569.5 98.0Q569.2 98.0 569.0 98.0Q568.7 98.1 568.6 98.1L568.6 98.1Q568.2 98.1 567.8 98.3Q567.5 98.4 567.3 98.6Q567.1 98.8 567.1 99.2L567.1 99.2Q567.1 99.5 567.3 99.8Q567.5 100.0 567.8 100.1Q568.1 100.2 568.5 100.2ZM574.7 101L573.7 101L573.7 94.4L574.7 94.4L574.7 95.7Q574.8 95.3 575.1 95.0L575.1 95.0Q575.3 94.7 575.7 94.5Q576.1 94.3 576.6 94.3L576.6 94.3Q577.3 94.3 577.7 94.8L577.7 94.8Q578.1 95.1 578.2 95.7L578.2 95.7Q578.3 95.3 578.6 95.1L578.6 95.1Q578.9 94.7 579.3 94.5Q579.8 94.3 580.3 94.3L580.3 94.3Q580.9 94.3 581.3 94.6Q581.8 94.8 582.1 95.3Q582.3 95.8 582.3 96.6L582.3 96.6L582.3 101L581.3 101L581.3 96.6Q581.3 95.9 580.9 95.6Q580.5 95.3 580.0 95.3L580.0 95.3Q579.5 95.3 579.2 95.5Q578.9 95.7 578.7 96.0Q578.5 96.3 578.5 96.7L578.5 96.7L578.5 101L577.5 101L577.5 96.5Q577.5 96.0 577.1 95.6Q576.8 95.3 576.2 95.3L576.2 95.3Q575.8 95.3 575.5 95.5Q575.2 95.7 574.9 96.0Q574.7 96.4 574.7 96.9L574.7 96.9L574.7 101Z M589.1 101L588.0 101L591.1 92.3L592.4 92.3L595.6 101L594.4 101L593.6 98.6L590.0 98.6L589.1 101ZM590.3 97.6L593.2 97.6L592.6 95.8Q592.4 95.3 592.2 94.6L592.2 94.6Q592.0 94.0 591.8 93.2L591.8 93.2Q591.5 94.0 591.3 94.6L591.3 94.6Q591.1 95.4 590.9 95.8L590.9 95.8L590.3 97.6ZM598.6 101L597.5 101L597.5 92.3L600.5 92.3Q601.5 92.3 602.1 92.6Q602.8 93.0 603.1 93.6Q603.4 94.3 603.4 95.0Q603.4 95.8 603.1 96.5Q602.8 97.1 602.2 97.5Q601.5 97.8 600.5 97.8L600.5 97.8L598.6 97.8L598.6 101ZM598.6 93.2L598.6 96.9L600.4 96.9Q601.1 96.9 601.5 96.6Q602.0 96.4 602.1 96.0Q602.3 95.6 602.3 95.0Q602.3 94.5 602.1 94.1Q602.0 93.7 601.5 93.5Q601.1 93.2 600.4 93.2L600.4 93.2L598.6 93.2ZM605.6 92.3L606.8 92.3L606.8 101L605.6 101L605.6 92.3Z "/></g><defs><clipPath id="satori_bc-id-2-5" clip-path="url(#satori_cp-id)"><path x="644" y="80" width="90" height="33" d="M656,80 h66 a12,12 0 0 1 12,12 v9 a12,12 0 0 1 -12,12 h-66 a12,12 0 0 1 -12,-12 v-9 a12,12 0 0 1 12,-12"/></clipPath></defs><mask id="satori_ms-id-2-5-0" maskUnits="userSpaceOnUse"><rect x="0" y="0" width="800" height="200" fill="#fff"/><path x="644" y="80" width="90" height="33" fill="#000"  stroke-width="0" d="M656,80 h66 a12,12 0 0 1 12,12 v9 a12,12 0 0 1 -12,12 h-66 a12,12 0 0 1 -12,-12 v-9 a12,12 0 0 1 12,-12" clip-path="url(#satori_cp-id)" mask="url(#satori_om-id)"/></mask><defs><filter id="satori_s-id-2-5-0" x="-40%" y="-109.09090909090908%" width="180%" height="318.1818181818182%"><feGaussianBlur stdDeviation="6" result="b"/><feFlood flood-color="rgba(0,0,0,0.1)" in="SourceGraphic" result="f"/><feComposite in="f" in2="b" operator="in"/></filter></defs><g mask="url(#satori_ms-id-2-5-0)" filter="url(#satori_s-id-2-5-0)" opacity="1"><path x="644" y="84" width="90" height="33" fill="#fff" stroke="#fff" stroke-width="0" d="M656,84 h66 a12,12 0 0 1 12,12 v9 a12,12 0 0 1 -12,12 h-66 a12,12 0 0 1 -12,-12 v-9 a12,12 0 0 1 12,-12" clip-path="url(#satori_cp-id)" mask="url(#satori_om-id)"/></g><mask id="satori_om-id-2-5"><rect x="645" y="81" width="88" height="31" fill="#fff" mask="url(#satori_om-id)"/><path width="90" height="33" fill="none" stroke="#000" stroke-width="2" d="M647.515,83.515 A12,12 0 0 1 656,80 h66 a12,12 0 0 1 12,12 v9 a12,12 0 0 1 -12,12 h-66 a12,12 0 0 1 -12,-12 v-9 A12,12 0 0 1 647.515,83.515"/></mask><path x="644" y="80" width="90" height="33" fill="rgba(255,255,255,0.03)" d="M656,80 h66 a12,12 0 0 1 12,12 v9 a12,12 0 0 1 -12,12 h-66 a12,12 0 0 1 -12,-12 v-9 a12,12 0 0 1 12,-12" clip-path="url(#satori_cp-id)" mask="url(#satori_om-id)"/><path width="90" height="33" clip-path="url(#satori_bc-id-2-5)" fill="none" stroke="rgba(255,255,255,0.1)" stroke-width="2" d="M647.515,83.515 A12,12 0 0 1 656,80 h66 a12,12 0 0 1 12,12 v9 a12,12 0 0 1 -12,12 h-66 a12,12 0 0 1 -12,-12 v-9 A12,12 0 0 1 647.515,83.515"/><g mask="url(#satori_om-id)" clip-path="url(#satori_cp-id)"><path fill="rgba(255,255,255,0.8)" d="M669.1 101L668.1 101L668.1 92.3L669.6 92.3L671.8 97.8Q671.9 98.0 672.0 98.3Q672.1 98.6 672.2 98.9Q672.3 99.2 672.4 99.6L672.4 99.6Q672.4 99.7 672.4 99.8L672.4 99.8Q672.5 99.7 672.5 99.6L672.5 99.6Q672.6 99.3 672.7 98.9Q672.8 98.6 672.9 98.3Q673 98.0 673.1 97.8L673.1 97.8L675.2 92.3L676.8 92.3L676.8 101L675.7 101L675.7 96.0Q675.7 95.7 675.7 95.4Q675.7 95.1 675.7 94.7Q675.7 94.3 675.7 93.9L675.7 93.9Q675.7 93.7 675.7 93.5L675.7 93.5Q675.7 93.7 675.6 94.0L675.6 94.0Q675.4 94.4 675.3 94.8Q675.2 95.2 675.1 95.5Q674.9 95.8 674.9 96.0L674.9 96.0L672.9 101L671.9 101L670.0 96.0Q669.9 95.8 669.8 95.5Q669.6 95.2 669.5 94.8Q669.4 94.4 669.2 94.0L669.2 94.0Q669.2 93.7 669.1 93.5L669.1 93.5Q669.1 93.7 669.1 93.8L669.1 93.8Q669.1 94.2 669.1 94.6Q669.1 95.0 669.1 95.4Q669.1 95.7 669.1 96.0L669.1 96.0L669.1 101ZM679.2 103.4L679.2 103.4L679.4 102.5L679.5 102.5Q679.9 102.6 680.1 102.5Q680.4 102.5 680.6 102.3Q680.8 102.0 681.0 101.6L681.0 101.6L681.2 101.0L678.7 94.4L679.8 94.4L681.2 98.3Q681.4 98.9 681.6 99.5L681.6 99.5Q681.6 99.8 681.7 100.0L681.7 100.0Q681.8 99.8 681.8 99.5L681.8 99.5Q682.0 98.9 682.2 98.3L682.2 98.3L683.6 94.4L684.8 94.4L681.9 102.0Q681.7 102.5 681.4 102.8Q681.1 103.2 680.8 103.3Q680.4 103.5 679.9 103.5L679.9 103.5Q679.7 103.5 679.4 103.5Q679.2 103.4 679.2 103.4ZM689.4 101.2L689.4 101.2Q688.5 101.2 687.8 100.8Q687.1 100.5 686.7 100.0Q686.3 99.4 686.3 98.7L686.3 98.7L687.4 98.7Q687.5 99.2 687.7 99.5Q688.0 99.8 688.5 100.0Q688.9 100.2 689.4 100.2L689.4 100.2Q690.0 100.2 690.5 100.0Q691.0 99.8 691.2 99.4Q691.5 99.1 691.5 98.6L691.5 98.6Q691.5 98.2 691.3 97.9Q691.0 97.7 690.7 97.5Q690.3 97.3 689.8 97.2L689.8 97.2L688.7 96.9Q687.7 96.6 687.1 96.0Q686.5 95.5 686.5 94.6L686.5 94.6Q686.5 93.9 686.9 93.3Q687.3 92.8 688.0 92.5Q688.7 92.2 689.5 92.2L689.5 92.2Q690.4 92.2 691.0 92.5Q691.7 92.8 692.1 93.3Q692.5 93.8 692.5 94.5L692.5 94.5L691.4 94.5Q691.3 93.8 690.8 93.5Q690.3 93.1 689.5 93.1L689.5 93.1Q688.9 93.1 688.5 93.3Q688.1 93.5 687.8 93.8Q687.6 94.1 687.6 94.6L687.6 94.6Q687.6 95.0 687.9 95.3Q688.2 95.6 688.6 95.7Q688.9 95.9 689.3 96.0L689.3 96.0L690.1 96.2Q690.5 96.3 690.9 96.5Q691.3 96.6 691.7 96.9Q692.1 97.2 692.4 97.6Q692.6 98.0 692.6 98.6L692.6 98.6Q692.6 99.3 692.2 99.9Q691.9 100.5 691.2 100.8Q690.4 101.2 689.4 101.2ZM698.4 101.1L698.4 101.1Q697.3 101.1 696.4 100.6Q695.5 100.0 695.0 99.0Q694.5 98.0 694.5 96.6L694.5 96.6Q694.5 95.3 695.0 94.2Q695.5 93.2 696.4 92.7Q697.3 92.2 698.4 92.2Q699.5 92.2 700.4 92.7Q701.2 93.2 701.7 94.2Q702.2 95.3 702.2 96.6L702.2 96.6Q702.2 98.0 701.7 99.0L701.7 99.0Q701.3 99.8 700.7 100.3L700.7 100.3L701.8 101.8L700.7 101.8L699.9 100.8Q699.2 101.1 698.4 101.1ZM699.3 99.9L698.0 98.3L699.2 98.3L700.1 99.5Q700.5 99.1 700.8 98.5L700.8 98.5Q701.2 97.8 701.2 96.6L701.2 96.6Q701.2 95.5 700.8 94.7Q700.4 94.0 699.8 93.6Q699.2 93.2 698.4 93.2L698.4 93.2Q697.6 93.2 697.0 93.6Q696.3 94.0 696.0 94.8Q695.6 95.5 695.6 96.6L695.6 96.6Q695.6 97.8 696.0 98.5Q696.3 99.3 697.0 99.7Q697.6 100.1 698.4 100.1L698.4 100.1Q698.9 100.1 699.3 99.9L699.3 99.9ZM709.7 101L704.5 101L704.5 92.3L705.6 92.3L705.6 100.0L709.7 100.0L709.7 101Z "/></g><defs><clipPath id="satori_bc-id-2-6" clip-path="url(#satori_cp-id)"><path x="295" y="125" width="114" height="33" d="M307,125 h90 a12,12 0 0 1 12,12 v9 a12,12 0 0 1 -12,12 h-90 a12,12 0 0 1 -12,-12 v-9 a12,12 0 0 1 12,-12"/></clipPath></defs><mask id="satori_ms-id-2-6-0" maskUnits="userSpaceOnUse"><rect x="0" y="0" width="800" height="200" fill="#fff"/><path x="295" y="125" width="114" height="33" fill="#000"  stroke-width="0" d="M307,125 h90 a12,12 0 0 1 12,12 v9 a12,12 0 0 1 -12,12 h-90 a12,12 0 0 1 -12,-12 v-9 a12,12 0 0 1 12,-12" clip-path="url(#satori_cp-id)" mask="url(#satori_om-id)"/></mask><defs><filter id="satori_s-id-2-6-0" x="-31.57894736842105%" y="-109.09090909090908%" width="163.1578947368421%" height="318.1818181818182%"><feGaussianBlur stdDeviation="6" result="b"/><feFlood flood-color="rgba(0,0,0,0.1)" in="SourceGraphic" result="f"/><feComposite in="f" in2="b" operator="in"/></filter></defs><g mask="url(#satori_ms-id-2-6-0)" filter="url(#satori_s-id-2-6-0)" opacity="1"><path x="295" y="129" width="114" height="33" fill="#fff" stroke="#fff" stroke-width="0" d="M307,129 h90 a12,12 0 0 1 12,12 v9 a12,12 0 0 1 -12,12 h-90 a12,12 0 0 1 -12,-12 v-9 a12,12 0 0 1 12,-12" clip-path="url(#satori_cp-id)" mask="url(#satori_om-id)"/></g><mask id="satori_om-id-2-6"><rect x="296" y="126" width="112" height="31" fill="#fff" mask="url(#satori_om-id)"/><path width="114" height="33" fill="none" stroke="#000" stroke-width="2" d="M298.515,128.515 A12,12 0 0 1 307,125 h90 a12,12 0 0 1 12,12 v9 a12,12 0 0 1 -12,12 h-90 a12,12 0 0 1 -12,-12 v-9 A12,12 0 0 1 298.515,128.515"/></mask><path x="295" y="125" width="114" height="33" fill="rgba(255,255,255,0.03)" d="M307,125 h90 a12,12 0 0 1 12,12 v9 a12,12 0 0 1 -12,12 h-90 a12,12 0 0 1 -12,-12 v-9 a12,12 0 0 1 12,-12" clip-path="url(#satori_cp-id)" mask="url(#satori_om-id)"/><path width="114" height="33" clip-path="url(#satori_bc-id-2-6)" fill="none" stroke="rgba(255,255,255,0.1)" stroke-width="2" d="M298.515,128.515 A12,12 0 0 1 307,125 h90 a12,12 0 0 1 12,12 v9 a12,12 0 0 1 -12,12 h-90 a12,12 0 0 1 -12,-12 v-9 A12,12 0 0 1 298.515,128.515"/><g mask="url(#satori_om-id)" clip-path="url(#satori_cp-id)"><path fill="rgba(255,255,255,0.8)" d="M321.3 138.3L318.6 138.3L318.6 137.3L325.2 137.3L325.2 138.3L322.4 138.3L322.4 146L321.3 146L321.3 138.3ZM327.1 148.4L327.1 148.4L327.3 147.5L327.4 147.5Q327.8 147.6 328.0 147.5Q328.3 147.5 328.5 147.3Q328.7 147.0 328.9 146.6L328.9 146.6L329.1 146.0L326.6 139.4L327.7 139.4L329.1 143.3Q329.3 143.9 329.5 144.5L329.5 144.5Q329.6 144.8 329.6 145.0L329.6 145.0Q329.7 144.8 329.8 144.5L329.8 144.5Q329.9 143.9 330.1 143.3L330.1 143.3L331.5 139.4L332.7 139.4L329.8 147.0Q329.6 147.5 329.3 147.8Q329.0 148.2 328.7 148.3Q328.3 148.5 327.8 148.5L327.8 148.5Q327.6 148.5 327.4 148.5Q327.1 148.4 327.1 148.4ZM335.5 148.4L334.4 148.4L334.4 139.4L335.4 139.4L335.4 140.5L335.6 140.5Q335.7 140.3 335.9 140.1Q336.1 139.8 336.4 139.6Q336.8 139.4 337.5 139.4L337.5 139.4Q338.3 139.4 338.9 139.8Q339.5 140.2 339.9 140.9Q340.2 141.7 340.2 142.7L340.2 142.7Q340.2 143.8 339.9 144.5Q339.5 145.3 338.9 145.7Q338.3 146.1 337.5 146.1L337.5 146.1Q336.8 146.1 336.5 145.9Q336.1 145.7 335.9 145.4Q335.7 145.2 335.6 145.0L335.6 145.0L335.5 145.0L335.5 148.4ZM337.3 145.2L337.3 145.2Q337.9 145.2 338.3 144.9Q338.7 144.5 338.9 144.0Q339.2 143.4 339.2 142.7L339.2 142.7Q339.2 142.1 339.0 141.5Q338.7 141.0 338.3 140.6Q337.9 140.3 337.3 140.3L337.3 140.3Q336.7 140.3 336.3 140.6Q335.9 140.9 335.7 141.5Q335.5 142.0 335.5 142.7L335.5 142.7Q335.5 143.5 335.7 144.0Q335.9 144.6 336.3 144.9Q336.7 145.2 337.3 145.2ZM345.0 146.1L345.0 146.1Q344.1 146.1 343.4 145.7Q342.7 145.3 342.3 144.5Q341.9 143.8 341.9 142.8Q341.9 141.8 342.3 141.0Q342.7 140.2 343.3 139.8Q344.0 139.4 344.9 139.4L344.9 139.4Q345.4 139.4 345.9 139.5Q346.4 139.7 346.8 140.1Q347.3 140.5 347.5 141.1Q347.7 141.7 347.7 142.6L347.7 142.6L347.7 143.1L343.0 143.1Q343.0 143.7 343.3 144.2L343.3 144.2Q343.5 144.7 344.0 144.9Q344.4 145.2 345.0 145.2L345.0 145.2Q345.4 145.2 345.7 145.1Q346.0 145.0 346.3 144.8Q346.5 144.5 346.6 144.2L346.6 144.2L347.6 144.5Q347.5 145.0 347.1 145.3Q346.8 145.7 346.2 145.9Q345.7 146.1 345.0 146.1ZM343.0 142.2L343.0 142.2L346.7 142.2Q346.6 141.7 346.5 141.4L346.5 141.4Q346.3 140.9 345.9 140.6Q345.5 140.3 344.9 140.3Q344.3 140.3 343.9 140.6Q343.5 140.9 343.2 141.3L343.2 141.3Q343.0 141.7 343.0 142.2ZM352.7 146.2L352.7 146.2Q351.7 146.2 351.0 145.8Q350.4 145.5 350.0 145.0Q349.6 144.4 349.5 143.7L349.5 143.7L350.7 143.7Q350.7 144.2 351.0 144.5Q351.3 144.8 351.7 145.0Q352.2 145.2 352.7 145.2L352.7 145.2Q353.3 145.2 353.7 145.0Q354.2 144.8 354.5 144.4Q354.8 144.1 354.8 143.6L354.8 143.6Q354.8 143.2 354.5 142.9Q354.3 142.7 353.9 142.5Q353.5 142.3 353.0 142.2L353.0 142.2L352.0 141.9Q350.9 141.6 350.3 141.0Q349.8 140.5 349.8 139.6L349.8 139.6Q349.8 138.9 350.2 138.3Q350.6 137.8 351.2 137.5Q351.9 137.2 352.8 137.2L352.8 137.2Q353.6 137.2 354.3 137.5Q354.9 137.8 355.3 138.3Q355.7 138.8 355.7 139.5L355.7 139.5L354.6 139.5Q354.6 138.8 354.0 138.5Q353.5 138.1 352.7 138.1L352.7 138.1Q352.2 138.1 351.7 138.3Q351.3 138.5 351.1 138.8Q350.8 139.1 350.8 139.6L350.8 139.6Q350.8 140.0 351.1 140.3Q351.4 140.6 351.8 140.7Q352.2 140.9 352.5 141.0L352.5 141.0L353.4 141.2Q353.7 141.3 354.2 141.5Q354.6 141.6 355.0 141.9Q355.4 142.2 355.6 142.6Q355.9 143.0 355.9 143.6L355.9 143.6Q355.9 144.3 355.5 144.9Q355.1 145.5 354.4 145.8Q353.7 146.2 352.7 146.2ZM360.6 146.1L360.6 146.1Q359.7 146.1 359.1 145.7Q358.4 145.3 358.0 144.5Q357.6 143.8 357.6 142.8L357.6 142.8Q357.6 141.7 358.0 141.0Q358.4 140.2 359.1 139.8Q359.7 139.4 360.6 139.4L360.6 139.4Q361.1 139.4 361.5 139.5Q361.9 139.6 362.3 139.8Q362.6 140.1 362.9 140.4Q363.1 140.8 363.3 141.2L363.3 141.2L362.3 141.5Q362.2 141.2 362.0 141.0Q361.9 140.8 361.7 140.6Q361.5 140.5 361.2 140.4Q360.9 140.3 360.6 140.3L360.6 140.3Q360.0 140.3 359.5 140.7Q359.1 141.0 358.9 141.6Q358.7 142.1 358.7 142.8L358.7 142.8Q358.7 143.4 358.9 144.0Q359.1 144.5 359.5 144.9Q360.0 145.2 360.6 145.2L360.6 145.2Q361.0 145.2 361.2 145.1Q361.5 145.0 361.7 144.9Q361.9 144.7 362.1 144.5Q362.2 144.3 362.3 144.0L362.3 144.0L363.3 144.3Q363.2 144.7 362.9 145.1Q362.7 145.4 362.3 145.6Q362.0 145.9 361.5 146.0Q361.1 146.1 360.6 146.1ZM366.4 146L365.3 146L365.3 139.4L366.3 139.4L366.3 140.5L366.4 140.5Q366.6 140.0 367.1 139.7Q367.5 139.4 368.1 139.4L368.1 139.4Q368.2 139.4 368.4 139.4Q368.5 139.4 368.6 139.4L368.6 139.4L368.6 140.4Q368.6 140.4 368.4 140.4Q368.2 140.4 368.0 140.4L368.0 140.4Q367.5 140.4 367.2 140.6Q366.8 140.8 366.6 141.1Q366.4 141.5 366.4 141.9L366.4 141.9L366.4 146ZM371.4 146L370.3 146L370.3 139.4L371.4 139.4L371.4 146ZM370.9 138.4L370.9 138.4Q370.6 138.4 370.3 138.2Q370.1 138.0 370.1 137.7L370.1 137.7Q370.1 137.4 370.3 137.2Q370.6 137.0 370.9 137.0L370.9 137.0Q371.2 137.0 371.4 137.2Q371.6 137.4 371.6 137.7L371.6 137.7Q371.6 138.0 371.4 138.2Q371.2 138.4 370.9 138.4ZM374.8 148.4L373.7 148.4L373.7 139.4L374.8 139.4L374.8 140.5L374.9 140.5Q375.0 140.3 375.2 140.1Q375.4 139.8 375.8 139.6Q376.1 139.4 376.8 139.4L376.8 139.4Q377.6 139.4 378.2 139.8Q378.8 140.2 379.2 140.9Q379.6 141.7 379.6 142.7L379.6 142.7Q379.6 143.8 379.2 144.5Q378.8 145.3 378.2 145.7Q377.6 146.1 376.8 146.1L376.8 146.1Q376.2 146.1 375.8 145.9Q375.4 145.7 375.2 145.4Q375.0 145.2 374.9 145.0L374.9 145.0L374.8 145.0L374.8 148.4ZM376.6 145.2L376.6 145.2Q377.2 145.2 377.6 144.9Q378.1 144.5 378.3 144.0Q378.5 143.4 378.5 142.7L378.5 142.7Q378.5 142.1 378.3 141.5Q378.1 141.0 377.7 140.6Q377.2 140.3 376.6 140.3L376.6 140.3Q376.0 140.3 375.6 140.6Q375.2 140.9 375.0 141.5Q374.8 142.0 374.8 142.7L374.8 142.7Q374.8 143.5 375.0 144.0Q375.2 144.6 375.6 144.9Q376.0 145.2 376.6 145.2ZM382.8 139.4L384.2 139.4L384.2 140.4L382.8 140.4L382.8 144.3Q382.8 144.7 383.0 144.9Q383.2 145.1 383.6 145.1L383.6 145.1Q383.7 145.1 383.8 145.1Q384 145.1 384.1 145.1L384.1 145.1L384.3 146.0Q384.2 146.0 384.0 146.1Q383.8 146.1 383.6 146.1L383.6 146.1Q382.7 146.1 382.2 145.6Q381.8 145.2 381.8 144.4L381.8 144.4L381.8 140.4L380.8 140.4L380.8 139.4L381.8 139.4L381.8 137.9L382.8 137.9L382.8 139.4Z "/></g><defs><clipPath id="satori_bc-id-2-7" clip-path="url(#satori_cp-id)"><path x="421" y="125" width="84" height="33" d="M433,125 h60 a12,12 0 0 1 12,12 v9 a12,12 0 0 1 -12,12 h-60 a12,12 0 0 1 -12,-12 v-9 a12,12 0 0 1 12,-12"/></clipPath></defs><mask id="satori_ms-id-2-7-0" maskUnits="userSpaceOnUse"><rect x="0" y="0" width="800" height="200" fill="#fff"/><path x="421" y="125" width="84" height="33" fill="#000"  stroke-width="0" d="M433,125 h60 a12,12 0 0 1 12,12 v9 a12,12 0 0 1 -12,12 h-60 a12,12 0 0 1 -12,-12 v-9 a12,12 0 0 1 12,-12" clip-path="url(#satori_cp-id)" mask="url(#satori_om-id)"/></mask><defs><filter id="satori_s-id-2-7-0" x="-42.857142857142854%" y="-109.09090909090908%" width="185.71428571428572%" height="318.1818181818182%"><feGaussianBlur stdDeviation="6" result="b"/><feFlood flood-color="rgba(0,0,0,0.1)" in="SourceGraphic" result="f"/><feComposite in="f" in2="b" operator="in"/></filter></defs><g mask="url(#satori_ms-id-2-7-0)" filter="url(#satori_s-id-2-7-0)" opacity="1"><path x="421" y="129" width="84" height="33" fill="#fff" stroke="#fff" stroke-width="0" d="M433,129 h60 a12,12 0 0 1 12,12 v9 a12,12 0 0 1 -12,12 h-60 a12,12 0 0 1 -12,-12 v-9 a12,12 0 0 1 12,-12" clip-path="url(#satori_cp-id)" mask="url(#satori_om-id)"/></g><mask id="satori_om-id-2-7"><rect x="422" y="126" width="82" height="31" fill="#fff" mask="url(#satori_om-id)"/><path width="84" height="33" fill="none" stroke="#000" stroke-width="2" d="M424.515,128.515 A12,12 0 0 1 433,125 h60 a12,12 0 0 1 12,12 v9 a12,12 0 0 1 -12,12 h-60 a12,12 0 0 1 -12,-12 v-9 A12,12 0 0 1 424.515,128.515"/></mask><path x="421" y="125" width="84" height="33" fill="rgba(255,255,255,0.03)" d="M433,125 h60 a12,12 0 0 1 12,12 v9 a12,12 0 0 1 -12,12 h-60 a12,12 0 0 1 -12,-12 v-9 a12,12 0 0 1 12,-12" clip-path="url(#satori_cp-id)" mask="url(#satori_om-id)"/><path width="84" height="33" clip-path="url(#satori_bc-id-2-7)" fill="none" stroke="rgba(255,255,255,0.1)" stroke-width="2" d="M424.515,128.515 A12,12 0 0 1 433,125 h60 a12,12 0 0 1 12,12 v9 a12,12 0 0 1 -12,12 h-60 a12,12 0 0 1 -12,-12 v-9 A12,12 0 0 1 424.515,128.515"/><g mask="url(#satori_om-id)" clip-path="url(#satori_cp-id)"><path fill="rgba(255,255,255,0.8)" d="M446.2 146L445.1 146L445.1 137.3L450.3 137.3L450.3 138.3L446.2 138.3L446.2 141.2L449.9 141.2L449.9 142.2L446.2 142.2L446.2 146ZM453.6 146L452.5 146L452.5 139.4L453.6 139.4L453.6 146ZM453.0 138.4L453.0 138.4Q452.7 138.4 452.5 138.2Q452.3 138.0 452.3 137.7L452.3 137.7Q452.3 137.4 452.5 137.2Q452.7 137.0 453.0 137.0L453.0 137.0Q453.3 137.0 453.6 137.2Q453.8 137.4 453.8 137.7L453.8 137.7Q453.8 138.0 453.6 138.2Q453.3 138.4 453.0 138.4ZM458.6 148.6L458.6 148.6Q457.8 148.6 457.3 148.4Q456.8 148.2 456.4 147.9Q456.1 147.6 455.9 147.3L455.9 147.3L456.7 146.7Q456.9 146.9 457.1 147.1Q457.3 147.3 457.6 147.5Q458.0 147.7 458.6 147.7L458.6 147.7Q459.4 147.7 459.9 147.3Q460.4 146.9 460.4 146.1L460.4 146.1L460.4 144.8L460.3 144.8Q460.2 145.0 460.0 145.2Q459.8 145.5 459.4 145.7Q459.0 145.9 458.4 145.9L458.4 145.9Q457.6 145.9 457.0 145.5Q456.3 145.2 456.0 144.4Q455.6 143.7 455.6 142.7L455.6 142.7Q455.6 141.7 456.0 140.9Q456.3 140.2 456.9 139.8Q457.6 139.4 458.4 139.4L458.4 139.4Q459.0 139.4 459.4 139.6Q459.8 139.8 460.0 140.1Q460.2 140.3 460.3 140.5L460.3 140.5L460.4 140.5L460.4 139.4L461.4 139.4L461.4 146.2Q461.4 147.0 461.0 147.5Q460.7 148.1 460.0 148.3Q459.4 148.6 458.6 148.6ZM458.5 145.0L458.5 145.0Q459.1 145.0 459.5 144.7Q460.0 144.4 460.2 143.9Q460.4 143.4 460.4 142.7L460.4 142.7Q460.4 142.0 460.2 141.4Q460.0 140.9 459.6 140.6Q459.1 140.3 458.5 140.3L458.5 140.3Q457.9 140.3 457.5 140.6Q457.1 140.9 456.9 141.5Q456.7 142.0 456.7 142.7L456.7 142.7Q456.7 143.3 456.9 143.9Q457.1 144.4 457.5 144.7Q457.9 145.0 458.5 145.0ZM464.8 146L463.8 146L463.8 139.4L464.8 139.4L464.8 140.7Q464.9 140.3 465.2 140.0L465.2 140.0Q465.4 139.7 465.8 139.5Q466.2 139.3 466.6 139.3L466.6 139.3Q467.4 139.3 467.8 139.8L467.8 139.8Q468.2 140.1 468.3 140.7L468.3 140.7Q468.4 140.3 468.7 140.1L468.7 140.1Q469.0 139.7 469.4 139.5Q469.9 139.3 470.4 139.3L470.4 139.3Q470.9 139.3 471.4 139.6Q471.9 139.8 472.2 140.3Q472.4 140.8 472.4 141.6L472.4 141.6L472.4 146L471.4 146L471.4 141.6Q471.4 140.9 471.0 140.6Q470.6 140.3 470.1 140.3L470.1 140.3Q469.6 140.3 469.3 140.5Q469.0 140.7 468.8 141.0Q468.6 141.3 468.6 141.7L468.6 141.7L468.6 146L467.6 146L467.6 141.5Q467.6 141.0 467.2 140.6Q466.9 140.3 466.3 140.3L466.3 140.3Q465.9 140.3 465.6 140.5Q465.2 140.7 465.0 141.0Q464.8 141.4 464.8 141.9L464.8 141.9L464.8 146ZM476.6 146.2L476.6 146.2Q476 146.2 475.5 145.9Q475.0 145.7 474.7 145.2Q474.4 144.8 474.4 144.1L474.4 144.1Q474.4 143.6 474.6 143.2Q474.8 142.9 475.2 142.7Q475.6 142.5 476.0 142.4Q476.5 142.3 476.9 142.2L476.9 142.2Q477.5 142.1 477.9 142.1Q478.3 142.1 478.4 142.0Q478.6 141.9 478.6 141.6L478.6 141.6L478.6 141.6Q478.6 141.2 478.5 140.9Q478.3 140.6 478.0 140.4Q477.7 140.3 477.2 140.3L477.2 140.3Q476.8 140.3 476.4 140.4Q476.1 140.6 475.9 140.8Q475.7 141.0 475.6 141.3L475.6 141.3L474.6 140.9Q474.8 140.3 475.3 140.0Q475.7 139.6 476.2 139.5Q476.7 139.4 477.2 139.4L477.2 139.4Q477.5 139.4 478.0 139.4Q478.4 139.5 478.8 139.8Q479.2 140.0 479.4 140.5Q479.7 140.9 479.7 141.7L479.7 141.7L479.7 146L478.6 146L478.6 145.1L478.6 145.1Q478.5 145.3 478.2 145.6Q478.0 145.8 477.6 146.0Q477.2 146.2 476.6 146.2ZM476.8 145.2L476.8 145.2Q477.4 145.2 477.8 145.0Q478.2 144.8 478.4 144.4Q478.6 144.0 478.6 143.6L478.6 143.6L478.6 142.7Q478.6 142.8 478.3 142.9Q478.1 142.9 477.8 143.0Q477.6 143.0 477.3 143.0Q477.0 143.1 476.9 143.1L476.9 143.1Q476.5 143.1 476.2 143.3Q475.8 143.4 475.6 143.6Q475.4 143.8 475.4 144.2L475.4 144.2Q475.4 144.5 475.6 144.8Q475.8 145.0 476.1 145.1Q476.4 145.2 476.8 145.2Z "/></g></svg>