<!-- Generated by readme-aura https://github.com/collectioneur/readme-aura -->
<svg width="800" height="200" viewBox="0 0 800 200" xmlns="http://www.w3.org/2000/svg"><mask id="satori_om-id"><rect x="0" y="0" width="800" height="200" fill="#fff"/></mask><rect x="0" y="0" width="800" height="200" fill="transparent"/><defs><clipPath id="satori_bc-id-0"><path x="0" y="0" width="800" height="200" d="M16,0 h768 a16,16 0 0 1 16,16 v168 a16,16 0 0 1 -16,16 h-768 a16,16 0 0 1 -16,-16 v-168 a16,16 0 0 1 16,-16"/></clipPath></defs><mask id="satori_ms-id-0-0" maskUnits="userSpaceOnUse"><rect x="0" y="0" width="800" height="200" fill="#fff"/><path x="0" y="0" width="800" height="200" fill="#000"  stroke-width="0" d="M16,0 h768 a16,16 0 0 1 16,16 v168 a16,16 0 0 1 -16,16 h-768 a16,16 0 0 1 -16,-16 v-168 a16,16 0 0 1 16,-16"/></mask><defs><filter id="satori_s-id-0-0" x="-28.125%" y="-112.5%" width="156.25%" height="325%"><feGaussianBlur stdDeviation="15" result="b"/><feFlood flood-color="rgba(0,0,0,0.6)" in="SourceGraphic" result="f"/><feComposite in="f" in2="b" operator="in"/></filter></defs><g mask="url(#satori_ms-id-0-0)" filter="url(#satori_s-id-0-0)" opacity="1"><path x="0" y="8" width="800" height="200" fill="#fff" stroke="#fff" stroke-width="0" d="M16,8 h768 a16,16 0 0 1 16,16 v168 a16,16 0 0 1 -16,16 h-768 a16,16 0 0 1 -16,-16 v-168 a16,16 0 0 1 16,-16"/></g><clipPath id="satori_cp-id-0"><path x="0" y="0" width="800" height="200" d="M16,0 h768 a16,16 0 0 1 16,16 v168 a16,16 0 0 1 -16,16 h-768 a16,16 0 0 1 -16,-16 v-168 a16,16 0 0 1 16,-16"/></clipPath><mask id="satori_om-id-0"><rect x="1" y="1" width="798" height="198" fill="#fff"/><path width="800" height="200" fill="none" stroke="#000" stroke-width="2" d="M4.686,4.686 A16,16 0 0 1 16,0 h768 a16,16 0 0 1 16,16 v168 a16,16 0 0 1 -16,16 h-768 a16,16 0 0 1 -16,-16 v-168 A16,16 0 0 1 4.686,4.686"/></mask><path x="0" y="0" width="800" height="200" fill="#060608" d="M16,0 h768 a16,16 0 0 1 16,16 v168 a16,16 0 0 1 -16,16 h-768 a16,16 0 0 1 -16,-16 v-168 a16,16 0 0 1 16,-16"/><path width="800" height="200" clip-path="url(#satori_bc-id-0)" fill="none" stroke="rgba(110, 80, 200, 0.25)" stroke-width="2" d="M4.686,4.686 A16,16 0 0 1 16,0 h768 a16,16 0 0 1 16,16 v168 a16,16 0 0 1 -16,16 h-768 a16,16 0 0 1 -16,-16 v-168 A16,16 0 0 1 4.686,4.686"/><clipPath id="satori_cp-id-0-0" clip-path="url(#satori_cp-id-0)"><rect x="1" y="1" width="798" height="198"/></clipPath><mask id="satori_om-id-0-0"><rect x="1" y="1" width="798" height="198" fill="#fff" mask="url(#satori_om-id-0)"/></mask><svg x="1" y="1" width="798" height="198" preserveAspectRatio="none" clip-path="url(#satori_cp-id-0-0)" mask="url(#satori_om-id-0-0)"><defs><radialGradient id="stackGrad1" cx="50%" cy="50%" r="50%"><stop offset="0%" stop-color="rgba(0, 110, 255, 0.5)"></stop><stop offset="50%" stop-color="rgba(120, 40, 255, 0.25)"></stop><stop offset="100%" stop-color="rgba(120, 40, 255, 0)"></stop></radialGradient><radialGradient id="stackGrad2" cx="50%" cy="50%" r="50%"><stop offset="0%" stop-color="rgba(255, 80, 150, 0.3)"></stop><stop offset="100%" stop-color="rgba(255, 80, 150, 0)"></stop></radialGradient></defs><ellipse id="sg-1" cx="70%" cy="130%" rx="350" ry="120" fill="url(#stackGrad1)"></ellipse><ellipse id="sg-2" cx="95%" cy="100%" rx="180" ry="100" fill="url(#stackGrad2)"></ellipse><style>

    @keyframes stack-pulse-a {
      0%, 100% { transform: translateY(0px) scale(1); opacity: 0.6; }
      50% { transform: translateY(-10px) scale(1.05); opacity: 1; }
    }
    @keyframes stack-pulse-b {
      0%, 100% { transform: translateY(0px) scale(1); opacity: 0.5; }
      50% { transform: translateY(-15px) scale(1.1); opacity: 0.9; }
    }
    #sg-1 { animation: stack-pulse-a 8s ease-in-out infinite; }
    #sg-2 { animation: stack-pulse-b 10s ease-in-out infinite 2s; }
  
</style>
</svg><mask id="satori_om-id-0-0-0"><rect x="1" y="1" width="0" height="198" fill="#fff" mask="url(#satori_om-id-0)"/></mask><mask id="satori_om-id-0-0-0-0"><rect x="1" y="1" width="0" height="198" fill="#fff" mask="url(#satori_om-id-0)"/></mask><mask id="satori_om-id-0-0-0-0-0"><rect x="1" y="1" width="0" height="198" fill="#fff" mask="url(#satori_om-id-0)"/></mask><mask id="satori_om-id-0-0-0-0-1"><rect x="1" y="1" width="0" height="198" fill="#fff" mask="url(#satori_om-id-0)"/></mask><mask id="satori_om-id-0-0-0-0-2"><rect x="1" y="1" width="0" height="198" fill="#fff" mask="url(#satori_om-id-0)"/></mask><mask id="satori_om-id-0-0-0-1"><rect x="1" y="1" width="0" height="198" fill="#fff" mask="url(#satori_om-id-0)"/></mask><mask id="satori_om-id-0-0-0-1-0"><rect x="1" y="1" width="0" height="198" fill="#fff" mask="url(#satori_om-id-0)"/></mask><mask id="satori_om-id-0-0-0-1-1"><rect x="1" y="1" width="0" height="198" fill="#fff" mask="url(#satori_om-id-0)"/></mask><mask id="satori_om-id-0-0-1"><rect x="1" y="1" width="0" height="198" fill="#fff" mask="url(#satori_om-id-0)"/></mask><mask id="satori_om-id-0-0-2"><rect x="1" y="1" width="0" height="198" fill="#fff" mask="url(#satori_om-id-0)"/></mask><mask id="satori_om-id-0-1"><rect x="344" y="69" width="112" height="13" fill="#fff" mask="url(#satori_om-id-0)"/></mask><g mask="url(#satori_om-id-0)" clip-path="url(#satori_cp-id-0)"><path fill="rgba(255,255,255,0.4)" d="M348.2 80.1L348.2 80.1Q347.2 80.1 346.3 79.6Q345.5 79.1 345.0 78.2Q344.5 77.3 344.5 76.0L344.5 76.0Q344.5 74.7 345.0 73.8Q345.5 72.9 346.3 72.4Q347.2 71.9 348.2 71.9L348.2 71.9Q348.9 71.9 349.5 72.1Q350.1 72.3 350.5 72.6Q351.0 73.0 351.3 73.5Q351.6 74.1 351.7 74.7L351.7 74.7L350.0 74.7Q350.0 74.4 349.8 74.1Q349.6 73.9 349.4 73.7Q349.2 73.5 348.9 73.4Q348.6 73.3 348.3 73.3L348.3 73.3Q347.6 73.3 347.2 73.7Q346.7 74.0 346.4 74.6Q346.2 75.2 346.2 76.0L346.2 76.0Q346.2 76.9 346.4 77.5Q346.7 78.1 347.2 78.4Q347.6 78.7 348.2 78.7L348.2 78.7Q348.6 78.7 348.9 78.6Q349.2 78.5 349.4 78.3Q349.6 78.1 349.8 77.8Q350.0 77.6 350.0 77.3L350.0 77.3L351.7 77.3Q351.6 77.8 351.3 78.3Q351.1 78.8 350.6 79.2Q350.2 79.6 349.6 79.9Q349.0 80.1 348.2 80.1ZM360.4 80.1L360.4 80.1Q359.3 80.1 358.5 79.6Q357.6 79.1 357.1 78.2Q356.6 77.3 356.6 76.0L356.6 76.0Q356.6 74.7 357.1 73.8Q357.6 72.9 358.5 72.4Q359.3 71.9 360.4 71.9L360.4 71.9Q361.4 71.9 362.3 72.4Q363.1 72.9 363.6 73.8Q364.1 74.7 364.1 76.0L364.1 76.0Q364.1 77.3 363.6 78.2Q363.1 79.1 362.3 79.6Q361.4 80.1 360.4 80.1ZM360.4 78.7L360.4 78.7Q361.0 78.7 361.5 78.3Q361.9 78.0 362.2 77.5Q362.4 76.9 362.4 76.0L362.4 76.0Q362.4 75.1 362.2 74.5Q361.9 74.0 361.5 73.6Q361.0 73.3 360.4 73.3L360.4 73.3Q359.8 73.3 359.3 73.7Q358.8 74.0 358.6 74.6Q358.3 75.1 358.3 76.0L358.3 76.0Q358.3 76.9 358.6 77.4Q358.8 78.0 359.3 78.3Q359.8 78.7 360.4 78.7ZM371.0 80L369.3 80L369.3 72.0L372.5 72.0Q373.4 72.0 374.0 72.3Q374.6 72.6 375.0 73.2Q375.3 73.8 375.3 74.6Q375.3 75.4 375.0 76.0Q374.6 76.5 374.0 76.8L374.0 76.8Q373.9 76.9 373.9 76.9L373.9 76.9L375.6 80L373.8 80L372.3 77.1L371.0 77.1L371.0 80ZM371.0 73.4L371.0 75.8L372.2 75.8Q372.7 75.8 373.0 75.7Q373.3 75.5 373.5 75.3Q373.6 75.0 373.6 74.6L373.6 74.6Q373.6 74.2 373.5 73.9Q373.3 73.6 373.0 73.5Q372.7 73.4 372.2 73.4L372.2 73.4L371.0 73.4ZM385.9 80L380.6 80L380.6 72.0L385.9 72.0L385.9 73.4L382.2 73.4L382.2 75.3L385.6 75.3L385.6 76.6L382.2 76.6L382.2 78.6L385.9 78.6L385.9 80Z M400.8 80.1L400.8 80.1Q399.8 80.1 399.1 79.8Q398.4 79.5 398.0 78.9Q397.6 78.4 397.6 77.5L397.6 77.5L399.2 77.5Q399.2 77.9 399.4 78.2Q399.6 78.5 400.0 78.6Q400.3 78.7 400.8 78.7L400.8 78.7Q401.2 78.7 401.5 78.6Q401.9 78.5 402.0 78.2Q402.2 78.0 402.2 77.7L402.2 77.7Q402.2 77.4 402.1 77.3Q401.9 77.1 401.6 76.9Q401.3 76.8 400.8 76.7L400.8 76.7L400.0 76.5Q398.9 76.2 398.4 75.7Q397.8 75.2 397.8 74.3L397.8 74.3Q397.8 73.6 398.2 73.0Q398.6 72.5 399.3 72.2Q399.9 71.9 400.8 71.9L400.8 71.9Q401.7 71.9 402.3 72.2Q403.0 72.5 403.4 73.0Q403.8 73.6 403.8 74.3L403.8 74.3L402.2 74.3Q402.1 73.8 401.8 73.5Q401.4 73.3 400.8 73.3L400.8 73.3Q400.4 73.3 400.1 73.4Q399.8 73.5 399.6 73.7Q399.5 73.9 399.5 74.2L399.5 74.2Q399.5 74.5 399.7 74.7Q399.8 74.9 400.1 75.0Q400.4 75.1 400.8 75.2L400.8 75.2L401.5 75.4Q402.0 75.5 402.4 75.7Q402.9 75.9 403.2 76.2Q403.5 76.4 403.7 76.8Q403.9 77.2 403.9 77.7L403.9 77.7Q403.9 78.4 403.5 79.0Q403.1 79.5 402.4 79.8Q401.8 80.1 400.8 80.1ZM411.2 73.4L408.7 73.4L408.7 72.0L415.3 72.0L415.3 73.4L412.8 73.4L412.8 80L411.2 80L411.2 73.4ZM421.7 80L419.9 80L422.7 72.0L424.8 72.0L427.6 80L425.8 80L425.2 78.1L422.3 78.1L421.7 80ZM422.7 76.9L424.8 76.9L424.5 76.1Q424.3 75.4 424.0 74.5L424.0 74.5Q423.9 73.9 423.7 73.3L423.7 73.3Q423.6 73.9 423.4 74.5L423.4 74.5Q423.2 75.4 423.0 76.1L423.0 76.1L422.7 76.9ZM436.1 80.1L436.1 80.1Q435.0 80.1 434.2 79.6Q433.4 79.1 432.9 78.2Q432.4 77.3 432.4 76.0L432.4 76.0Q432.4 74.7 432.9 73.8Q433.4 72.9 434.2 72.4Q435.0 71.9 436.1 71.9L436.1 71.9Q436.8 71.9 437.4 72.1Q438.0 72.3 438.4 72.6Q438.9 73.0 439.2 73.5Q439.5 74.1 439.5 74.7L439.5 74.7L437.9 74.7Q437.8 74.4 437.7 74.1Q437.5 73.9 437.3 73.7Q437.1 73.5 436.8 73.4Q436.5 73.3 436.1 73.3L436.1 73.3Q435.5 73.3 435.0 73.7Q434.6 74.0 434.3 74.6Q434.1 75.2 434.1 76.0L434.1 76.0Q434.1 76.9 434.3 77.5Q434.6 78.1 435.0 78.4Q435.5 78.7 436.1 78.7L436.1 78.7Q436.5 78.7 436.8 78.6Q437.1 78.5 437.3 78.3Q437.5 78.1 437.7 77.8Q437.8 77.6 437.9 77.3L437.9 77.3L439.6 77.3Q439.5 77.8 439.2 78.3Q439.0 78.8 438.5 79.2Q438.1 79.6 437.5 79.9Q436.9 80.1 436.1 80.1ZM446.4 80L444.7 80L444.7 72.0L446.4 72.0L446.4 74.2L446.4 76.0Q446.4 75.9 446.4 75.9L446.4 75.9Q446.7 75.5 447.0 75.1Q447.2 74.7 447.6 74.3L447.6 74.3L449.6 72.0L451.6 72.0L448.6 75.5L451.7 80L449.7 80L447.4 76.5L446.4 77.7L446.4 80Z "/></g><mask id="satori_om-id-0-2"><rect x="84" y="98" width="633" height="34" fill="#fff" mask="url(#satori_om-id-0)"/></mask><defs><clipPath id="satori_bc-id-0-2-0" clip-path="url(#satori_cp-id-0)"><path x="104" y="98" width="116" height="34" d="M112,98 h100 a8,8 0 0 1 8,8 v18 a8,8 0 0 1 -8,8 h-100 a8,8 0 0 1 -8,-8 v-18 a8,8 0 0 1 8,-8"/></clipPath></defs><mask id="satori_om-id-0-2-0"><rect x="105" y="99" width="114" height="32" fill="#fff" mask="url(#satori_om-id-0)"/><path width="116" height="34" fill="none" stroke="#000" stroke-width="2" d="M106.343,100.343 A8,8 0 0 1 112,98 h100 a8,8 0 0 1 8,8 v18 a8,8 0 0 1 -8,8 h-100 a8,8 0 0 1 -8,-8 v-18 A8,8 0 0 1 106.343,100.343"/></mask><path x="104" y="98" width="116" height="34" fill="rgba(0,0,0,0.4)" d="M112,98 h100 a8,8 0 0 1 8,8 v18 a8,8 0 0 1 -8,8 h-100 a8,8 0 0 1 -8,-8 v-18 a8,8 0 0 1 8,-8" clip-path="url(#satori_cp-id-0)" mask="url(#satori_om-id-0)"/><path width="116" height="34" clip-path="url(#satori_bc-id-0-2-0)" fill="none" stroke="rgba(110, 80, 200, 0.5)" stroke-width="2" d="M106.343,100.343 A8,8 0 0 1 112,98 h100 a8,8 0 0 1 8,8 v18 a8,8 0 0 1 -8,8 h-100 a8,8 0 0 1 -8,-8 v-18 A8,8 0 0 1 106.343,100.343"/><g mask="url(#satori_om-id-0)" clip-path="url(#satori_cp-id-0)"><path fill="#8bcefa" d="M128.4 112.1L125.5 112.1L125.5 110.5L133.2 110.5L133.2 112.1L130.3 112.1L130.3 120L128.4 120L128.4 112.1ZM134.7 122.5L134.7 122.5L135.2 121.1L135.4 121.1Q135.8 121.2 136.1 121.2Q136.4 121.1 136.6 121.0Q136.8 120.8 136.8 120.4L136.8 120.4L136.8 120.0L134.2 112.9L136.2 112.9L137.4 116.6Q137.6 117.3 137.7 118.0L137.7 118.0Q137.8 118.2 137.8 118.5L137.8 118.5Q137.9 118.2 138.0 118.0L138.0 118.0Q138.1 117.3 138.4 116.6L138.4 116.6L139.6 112.9L141.6 112.9L138.6 120.8Q138.4 121.4 138.0 121.8Q137.7 122.2 137.2 122.5Q136.7 122.7 136.0 122.7L136.0 122.7Q135.6 122.7 135.3 122.7Q134.9 122.6 134.7 122.5ZM144.8 122.7L142.9 122.7L142.9 112.9L144.8 112.9L144.8 114.1L144.9 114.1Q145.0 113.8 145.3 113.5Q145.5 113.2 145.9 113.0Q146.3 112.8 146.9 112.8L146.9 112.8Q147.7 112.8 148.3 113.2Q149.0 113.6 149.4 114.4Q149.8 115.3 149.8 116.5L149.8 116.5Q149.8 117.6 149.4 118.5Q149.0 119.3 148.4 119.7Q147.7 120.1 146.9 120.1L146.9 120.1Q146.3 120.1 145.9 119.9Q145.5 119.7 145.3 119.4Q145.0 119.1 144.9 118.9L144.9 118.9L144.8 118.9L144.8 122.7ZM146.3 118.6L146.3 118.6Q146.8 118.6 147.1 118.3Q147.5 118.0 147.7 117.6Q147.8 117.1 147.8 116.5L147.8 116.5Q147.8 115.8 147.7 115.4Q147.5 114.9 147.1 114.6Q146.8 114.3 146.3 114.3L146.3 114.3Q145.8 114.3 145.5 114.6Q145.1 114.9 145.0 115.3Q144.8 115.8 144.8 116.5L144.8 116.5Q144.8 117.1 145.0 117.6Q145.1 118.1 145.5 118.3Q145.8 118.6 146.3 118.6ZM154.6 120.1L154.6 120.1Q153.5 120.1 152.7 119.7Q152.0 119.3 151.5 118.4Q151.1 117.6 151.1 116.5L151.1 116.5Q151.1 115.4 151.5 114.6Q152.0 113.7 152.7 113.3Q153.5 112.8 154.5 112.8L154.5 112.8Q155.2 112.8 155.8 113.0Q156.4 113.3 156.9 113.7Q157.3 114.2 157.6 114.8Q157.9 115.5 157.9 116.4L157.9 116.4L157.9 116.9L153.0 116.9Q153.0 117.5 153.2 117.9L153.2 117.9Q153.4 118.3 153.8 118.5Q154.2 118.7 154.6 118.7L154.6 118.7Q155.0 118.7 155.3 118.6Q155.5 118.5 155.7 118.3Q155.9 118.1 156.0 117.9L156.0 117.9L157.7 118.2Q157.6 118.8 157.1 119.2Q156.7 119.7 156.1 119.9Q155.4 120.1 154.6 120.1ZM153.0 115.8L153.0 115.8L156.0 115.8Q156.0 115.4 155.9 115.1L155.9 115.1Q155.7 114.7 155.4 114.5Q155.0 114.2 154.5 114.2L154.5 114.2Q154.0 114.2 153.7 114.5Q153.4 114.7 153.2 115.1L153.2 115.1Q153.0 115.4 153.0 115.8ZM163.0 120.1L163.0 120.1Q161.8 120.1 161.0 119.8Q160.1 119.4 159.7 118.8Q159.2 118.1 159.2 117.1L159.2 117.1L161.1 117.1Q161.1 117.5 161.4 117.9Q161.6 118.2 162.0 118.3Q162.4 118.5 162.9 118.5L162.9 118.5Q163.5 118.5 163.9 118.4Q164.2 118.2 164.5 117.9Q164.7 117.7 164.7 117.3L164.7 117.3Q164.7 117.0 164.5 116.8Q164.3 116.5 163.9 116.4Q163.6 116.2 163.0 116.1L163.0 116.1L162.0 115.8Q160.8 115.5 160.1 114.9Q159.4 114.3 159.4 113.3L159.4 113.3Q159.4 112.4 159.9 111.8Q160.4 111.1 161.2 110.8Q162.0 110.4 163.0 110.4L163.0 110.4Q164.0 110.4 164.8 110.8Q165.6 111.1 166.0 111.8Q166.5 112.4 166.5 113.2L166.5 113.2L164.6 113.2Q164.6 112.7 164.1 112.4Q163.7 112.0 163.0 112.0L163.0 112.0Q162.5 112.0 162.1 112.2Q161.8 112.3 161.6 112.6Q161.4 112.8 161.4 113.1L161.4 113.1Q161.4 113.5 161.6 113.7Q161.8 114.0 162.2 114.1Q162.5 114.2 162.9 114.3L162.9 114.3L163.8 114.5Q164.4 114.7 164.9 114.9Q165.4 115.1 165.8 115.5Q166.2 115.8 166.4 116.3Q166.6 116.7 166.6 117.3L166.6 117.3Q166.6 118.2 166.2 118.8Q165.8 119.4 164.9 119.8Q164.1 120.1 163.0 120.1ZM171.4 120.1L171.4 120.1Q170.4 120.1 169.6 119.7Q168.8 119.2 168.4 118.4Q168.0 117.6 168.0 116.5L168.0 116.5Q168.0 115.4 168.4 114.6Q168.8 113.7 169.6 113.3Q170.4 112.8 171.4 112.8L171.4 112.8Q172.1 112.8 172.6 113.0Q173.1 113.1 173.5 113.4Q174.0 113.8 174.2 114.2Q174.5 114.6 174.6 115.2L174.6 115.2L172.8 115.5Q172.8 115.2 172.6 115.0Q172.5 114.8 172.4 114.6Q172.2 114.5 172.0 114.4Q171.7 114.3 171.5 114.3L171.5 114.3Q171.0 114.3 170.6 114.6Q170.3 114.9 170.1 115.3Q169.9 115.8 169.9 116.5L169.9 116.5Q169.9 117.1 170.1 117.6Q170.3 118.1 170.6 118.4Q171.0 118.6 171.5 118.6L171.5 118.6Q171.7 118.6 172.0 118.6Q172.2 118.5 172.4 118.3Q172.5 118.1 172.7 117.9Q172.8 117.7 172.8 117.4L172.8 117.4L174.6 117.7Q174.5 118.3 174.2 118.7Q174.0 119.2 173.6 119.5Q173.1 119.8 172.6 120.0Q172.1 120.1 171.4 120.1ZM178.1 120L176.2 120L176.2 112.9L178.1 112.9L178.1 114.1L178.1 114.1Q178.3 113.5 178.8 113.1Q179.3 112.8 179.8 112.8L179.8 112.8Q180.0 112.8 180.2 112.8Q180.3 112.8 180.5 112.9L180.5 112.9L180.5 114.6Q180.3 114.5 180.1 114.5Q179.9 114.5 179.6 114.5L179.6 114.5Q179.2 114.5 178.9 114.7Q178.5 114.9 178.3 115.2Q178.1 115.5 178.1 116.0L178.1 116.0L178.1 120ZM183.7 120L181.8 120L181.8 112.9L183.7 112.9L183.7 120ZM182.8 112.0L182.8 112.0Q182.3 112.0 182.0 111.7Q181.7 111.4 181.7 111.0L181.7 111.0Q181.7 110.6 182.0 110.3Q182.3 110.0 182.8 110.0L182.8 110.0Q183.2 110.0 183.5 110.3Q183.8 110.6 183.8 111.0L183.8 111.0Q183.8 111.4 183.5 111.7Q183.2 112.0 182.8 112.0ZM187.5 122.7L185.6 122.7L185.6 112.9L187.5 112.9L187.5 114.1L187.6 114.1Q187.7 113.8 188.0 113.5Q188.2 113.2 188.6 113.0Q189.0 112.8 189.6 112.8L189.6 112.8Q190.4 112.8 191.1 113.2Q191.7 113.6 192.1 114.4Q192.5 115.3 192.5 116.5L192.5 116.5Q192.5 117.6 192.1 118.5Q191.7 119.3 191.1 119.7Q190.4 120.1 189.6 120.1L189.6 120.1Q189.0 120.1 188.6 119.9Q188.2 119.7 188.0 119.4Q187.7 119.1 187.6 118.9L187.6 118.9L187.5 118.9L187.5 122.7ZM189.0 118.6L189.0 118.6Q189.5 118.6 189.9 118.3Q190.2 118.0 190.4 117.6Q190.5 117.1 190.5 116.5L190.5 116.5Q190.5 115.8 190.4 115.4Q190.2 114.9 189.9 114.6Q189.5 114.3 189.0 114.3L189.0 114.3Q188.5 114.3 188.2 114.6Q187.8 114.9 187.7 115.3Q187.5 115.8 187.5 116.5L187.5 116.5Q187.5 117.1 187.7 117.6Q187.9 118.1 188.2 118.3Q188.5 118.6 189.0 118.6ZM196.3 112.9L197.7 112.9L197.7 114.4L196.3 114.4L196.3 117.9Q196.3 118.3 196.5 118.4Q196.6 118.6 197.0 118.6L197.0 118.6Q197.1 118.6 197.3 118.6Q197.5 118.5 197.6 118.5L197.6 118.5L197.8 119.9Q197.5 120.0 197.2 120.1Q196.9 120.1 196.6 120.1L196.6 120.1Q195.6 120.1 195.0 119.6Q194.4 119.1 194.4 118.1L194.4 118.1L194.4 114.4L193.4 114.4L193.4 112.9L194.4 112.9L194.4 111.2L196.3 111.2L196.3 112.9Z "/></g><defs><clipPath id="satori_bc-id-0-2-1" clip-path="url(#satori_cp-id-0)"><path x="234" y="98" width="91" height="34" d="M242,98 h75 a8,8 0 0 1 8,8 v18 a8,8 0 0 1 -8,8 h-75 a8,8 0 0 1 -8,-8 v-18 a8,8 0 0 1 8,-8"/></clipPath></defs><mask id="satori_om-id-0-2-1"><rect x="235" y="99" width="89" height="32" fill="#fff" mask="url(#satori_om-id-0)"/><path width="91" height="34" fill="none" stroke="#000" stroke-width="2" d="M236.343,100.343 A8,8 0 0 1 242,98 h75 a8,8 0 0 1 8,8 v18 a8,8 0 0 1 -8,8 h-75 a8,8 0 0 1 -8,-8 v-18 A8,8 0 0 1 236.343,100.343"/></mask><path x="234" y="98" width="91" height="34" fill="rgba(0,0,0,0.4)" d="M242,98 h75 a8,8 0 0 1 8,8 v18 a8,8 0 0 1 -8,8 h-75 a8,8 0 0 1 -8,-8 v-18 a8,8 0 0 1 8,-8" clip-path="url(#satori_cp-id-0)" mask="url(#satori_om-id-0)"/><path width="91" height="34" clip-path="url(#satori_bc-id-0-2-1)" fill="none" stroke="rgba(110, 80, 200, 0.5)" stroke-width="2" d="M236.343,100.343 A8,8 0 0 1 242,98 h75 a8,8 0 0 1 8,8 v18 a8,8 0 0 1 -8,8 h-75 a8,8 0 0 1 -8,-8 v-18 A8,8 0 0 1 236.343,100.343"/><g mask="url(#satori_om-id-0)" clip-path="url(#satori_cp-id-0)"><path fill="#7ae28d" d="M261.9 120L255.9 120L255.9 110.5L257.8 110.5L257.8 118.4L261.9 118.4L261.9 120ZM265.4 120.1L265.4 120.1Q264.8 120.1 264.2 119.9Q263.7 119.7 263.4 119.2Q263.1 118.7 263.1 118.0L263.1 118.0Q263.1 117.4 263.3 117.0Q263.5 116.6 263.9 116.4Q264.3 116.1 264.8 116.0Q265.2 115.9 265.8 115.8L265.8 115.8Q266.4 115.8 266.8 115.7Q267.1 115.7 267.3 115.5Q267.5 115.4 267.5 115.2L267.5 115.2L267.5 115.2Q267.5 114.9 267.4 114.7Q267.2 114.4 267.0 114.3Q266.7 114.2 266.4 114.2L266.4 114.2Q266.0 114.2 265.7 114.3Q265.5 114.4 265.3 114.6Q265.1 114.8 265.0 115.0L265.0 115.0L263.3 114.8Q263.5 114.1 263.9 113.7Q264.3 113.3 265.0 113.0Q265.6 112.8 266.4 112.8L266.4 112.8Q266.9 112.8 267.5 113.0Q268.0 113.1 268.5 113.4Q268.9 113.7 269.1 114.1Q269.4 114.6 269.4 115.2L269.4 115.2L269.4 120L267.6 120L267.6 119.0L267.5 119.0Q267.3 119.3 267.1 119.6Q266.8 119.8 266.4 120.0Q266.0 120.1 265.4 120.1ZM266.0 118.8L266.0 118.8Q266.4 118.8 266.8 118.6Q267.1 118.4 267.3 118.1Q267.5 117.8 267.5 117.5L267.5 117.5L267.5 116.7Q267.4 116.8 267.2 116.8Q267.1 116.9 266.9 116.9Q266.6 116.9 266.4 117.0Q266.2 117.0 266.1 117.0L266.1 117.0Q265.7 117.1 265.5 117.2Q265.2 117.3 265.1 117.5Q264.9 117.7 264.9 118.0L264.9 118.0Q264.9 118.2 265.1 118.4Q265.2 118.6 265.4 118.7Q265.7 118.8 266.0 118.8ZM273.2 120L271.3 120L271.3 112.9L273.2 112.9L273.2 114.1L273.2 114.1Q273.4 113.5 273.9 113.1Q274.3 112.8 274.9 112.8L274.9 112.8Q275.1 112.8 275.3 112.8Q275.4 112.8 275.6 112.9L275.6 112.9L275.6 114.6Q275.4 114.5 275.2 114.5Q274.9 114.5 274.7 114.5L274.7 114.5Q274.3 114.5 274.0 114.7Q273.6 114.9 273.4 115.2Q273.2 115.5 273.2 116.0L273.2 116.0L273.2 120ZM278.9 120.1L278.9 120.1Q278.2 120.1 277.7 119.9Q277.1 119.7 276.8 119.2Q276.5 118.7 276.5 118.0L276.5 118.0Q276.5 117.4 276.7 117.0Q277.0 116.6 277.3 116.4Q277.7 116.1 278.2 116.0Q278.7 115.9 279.2 115.8L279.2 115.8Q279.8 115.8 280.2 115.7Q280.6 115.7 280.7 115.5Q280.9 115.4 280.9 115.2L280.9 115.2L280.9 115.2Q280.9 114.9 280.8 114.7Q280.7 114.4 280.4 114.3Q280.2 114.2 279.8 114.2L279.8 114.2Q279.4 114.2 279.2 114.3Q278.9 114.4 278.7 114.6Q278.6 114.8 278.5 115.0L278.5 115.0L276.7 114.8Q276.9 114.1 277.3 113.7Q277.8 113.3 278.4 113.0Q279.0 112.8 279.8 112.8L279.8 112.8Q280.4 112.8 280.9 113.0Q281.5 113.1 281.9 113.4Q282.3 113.7 282.6 114.1Q282.8 114.6 282.8 115.2L282.8 115.2L282.8 120L281.0 120L281.0 119.0L281.0 119.0Q280.8 119.3 280.5 119.6Q280.2 119.8 279.8 120.0Q279.4 120.1 278.9 120.1ZM279.4 118.8L279.4 118.8Q279.9 118.8 280.2 118.6Q280.6 118.4 280.7 118.1Q280.9 117.8 280.9 117.5L280.9 117.5L280.9 116.7Q280.9 116.8 280.7 116.8Q280.5 116.9 280.3 116.9Q280.1 116.9 279.9 117.0Q279.7 117.0 279.5 117.0L279.5 117.0Q279.2 117.1 278.9 117.2Q278.6 117.3 278.5 117.5Q278.4 117.7 278.4 118.0L278.4 118.0Q278.4 118.2 278.5 118.4Q278.6 118.6 278.9 118.7Q279.1 118.8 279.4 118.8ZM288.9 120L286.8 120L284.1 112.9L286.2 112.9L287.4 116.6Q287.6 117.3 287.7 118.0L287.7 118.0Q287.8 118.3 287.9 118.5L287.9 118.5Q287.9 118.3 288.0 118.0L288.0 118.0Q288.1 117.3 288.4 116.6L288.4 116.6L289.5 112.9L291.5 112.9L288.9 120ZM296.1 120.1L296.1 120.1Q295.0 120.1 294.2 119.7Q293.4 119.3 293.0 118.4Q292.5 117.6 292.5 116.5L292.5 116.5Q292.5 115.4 293.0 114.6Q293.4 113.7 294.2 113.3Q294.9 112.8 296.0 112.8L296.0 112.8Q296.7 112.8 297.3 113.0Q297.9 113.3 298.3 113.7Q298.8 114.2 299.0 114.8Q299.3 115.5 299.3 116.4L299.3 116.4L299.3 116.9L294.4 116.9Q294.5 117.5 294.6 117.9L294.6 117.9Q294.8 118.3 295.2 118.5Q295.6 118.7 296.1 118.7L296.1 118.7Q296.4 118.7 296.7 118.6Q297.0 118.5 297.2 118.3Q297.4 118.1 297.5 117.9L297.5 117.9L299.2 118.2Q299.0 118.8 298.6 119.2Q298.2 119.7 297.5 119.9Q296.9 120.1 296.1 120.1ZM294.4 115.8L294.4 115.8L297.5 115.8Q297.4 115.4 297.3 115.1L297.3 115.1Q297.1 114.7 296.8 114.5Q296.5 114.2 296.0 114.2L296.0 114.2Q295.5 114.2 295.1 114.5Q294.8 114.7 294.6 115.1L294.6 115.1Q294.5 115.4 294.4 115.8ZM300.9 110.5L302.8 110.5L302.8 120L300.9 120L300.9 110.5Z "/></g><defs><clipPath id="satori_bc-id-0-2-2" clip-path="url(#satori_cp-id-0)"><path x="339" y="98" width="90" height="34" d="M347,98 h74 a8,8 0 0 1 8,8 v18 a8,8 0 0 1 -8,8 h-74 a8,8 0 0 1 -8,-8 v-18 a8,8 0 0 1 8,-8"/></clipPath></defs><mask id="satori_om-id-0-2-2"><rect x="340" y="99" width="88" height="32" fill="#fff" mask="url(#satori_om-id-0)"/><path width="90" height="34" fill="none" stroke="#000" stroke-width="2" d="M341.343,100.343 A8,8 0 0 1 347,98 h74 a8,8 0 0 1 8,8 v18 a8,8 0 0 1 -8,8 h-74 a8,8 0 0 1 -8,-8 v-18 A8,8 0 0 1 341.343,100.343"/></mask><path x="339" y="98" width="90" height="34" fill="rgba(0,0,0,0.4)" d="M347,98 h74 a8,8 0 0 1 8,8 v18 a8,8 0 0 1 -8,8 h-74 a8,8 0 0 1 -8,-8 v-18 a8,8 0 0 1 8,-8" clip-path="url(#satori_cp-id-0)" mask="url(#satori_om-id-0)"/><path width="90" height="34" clip-path="url(#satori_bc-id-0-2-2)" fill="none" stroke="rgba(110, 80, 200, 0.5)" stroke-width="2" d="M341.343,100.343 A8,8 0 0 1 347,98 h74 a8,8 0 0 1 8,8 v18 a8,8 0 0 1 -8,8 h-74 a8,8 0 0 1 -8,-8 v-18 A8,8 0 0 1 341.343,100.343"/><g mask="url(#satori_om-id-0)" clip-path="url(#satori_cp-id-0)"><path fill="#e8b0ff" d="M362.8 120L360.9 120L360.9 110.5L363.0 110.5L366.0 115.3Q366.2 115.7 366.5 116.1Q366.7 116.6 367.0 117.1L367.0 117.1Q367.1 117.3 367.2 117.6L367.2 117.6Q367.2 117.4 367.2 117.1L367.2 117.1Q367.1 116.6 367.1 116.0Q367.1 115.5 367.1 115.1L367.1 115.1L367.1 110.5L369.1 110.5L369.1 120L366.9 120L364.2 115.7Q363.9 115.2 363.6 114.7Q363.4 114.2 363.1 113.7L363.1 113.7Q362.9 113.4 362.7 112.9L362.7 112.9Q362.7 113.3 362.8 113.7L362.8 113.7Q362.8 114.3 362.8 114.8Q362.8 115.3 362.8 115.7L362.8 115.7L362.8 120ZM374.2 120.1L374.2 120.1Q373.1 120.1 372.4 119.7Q371.6 119.3 371.1 118.4Q370.7 117.6 370.7 116.5L370.7 116.5Q370.7 115.4 371.1 114.6Q371.6 113.7 372.3 113.3Q373.1 112.8 374.1 112.8L374.1 112.8Q374.8 112.8 375.4 113.0Q376.0 113.3 376.5 113.7Q376.9 114.2 377.2 114.8Q377.5 115.5 377.5 116.4L377.5 116.4L377.5 116.9L372.6 116.9Q372.6 117.5 372.8 117.9L372.8 117.9Q373.0 118.3 373.4 118.5Q373.8 118.7 374.3 118.7L374.3 118.7Q374.6 118.7 374.9 118.6Q375.1 118.5 375.3 118.3Q375.5 118.1 375.6 117.9L375.6 117.9L377.4 118.2Q377.2 118.8 376.8 119.2Q376.3 119.7 375.7 119.9Q375.1 120.1 374.2 120.1ZM372.6 115.8L372.6 115.8L375.6 115.8Q375.6 115.4 375.5 115.1L375.5 115.1Q375.3 114.7 375.0 114.5Q374.6 114.2 374.2 114.2L374.2 114.2Q373.7 114.2 373.3 114.5Q373.0 114.7 372.8 115.1L372.8 115.1Q372.7 115.4 372.6 115.8ZM380.5 120L378.5 120L380.8 116.4L378.7 112.9L380.7 112.9L381.4 114.0Q381.7 114.6 381.9 115.1L381.9 115.1Q382.0 115.3 382.0 115.4L382.0 115.4Q382.1 115.3 382.2 115.1L382.2 115.1Q382.4 114.6 382.7 114.0L382.7 114.0L383.4 112.9L385.4 112.9L383.2 116.4L385.5 120L383.5 120L382.7 118.7Q382.4 118.1 382.1 117.6L382.1 117.6Q382.1 117.4 382.0 117.3L382.0 117.3Q381.9 117.4 381.9 117.6L381.9 117.6Q381.6 118.1 381.3 118.7L381.3 118.7L380.5 120ZM389.1 112.9L390.4 112.9L390.4 114.4L389.1 114.4L389.1 117.9Q389.1 118.3 389.3 118.4Q389.4 118.6 389.8 118.6L389.8 118.6Q389.9 118.6 390.1 118.6Q390.3 118.5 390.4 118.5L390.4 118.5L390.6 119.9Q390.3 120.0 390.0 120.1Q389.7 120.1 389.4 120.1L389.4 120.1Q388.3 120.1 387.8 119.6Q387.2 119.1 387.2 118.1L387.2 118.1L387.2 114.4L386.2 114.4L386.2 112.9L387.2 112.9L387.2 111.2L389.1 111.2L389.1 112.9ZM393.3 120.1L393.3 120.1Q392.9 120.1 392.5 119.8Q392.2 119.5 392.2 119.0L392.2 119.0Q392.2 118.6 392.5 118.3Q392.9 117.9 393.3 117.9L393.3 117.9Q393.8 117.9 394.1 118.3Q394.4 118.6 394.4 119.0L394.4 119.0Q394.4 119.5 394.1 119.8Q393.8 120.1 393.3 120.1ZM396.6 120.3L396.6 112.9L398.5 112.9L398.5 120.4Q398.5 121.2 398.2 121.7Q397.9 122.2 397.3 122.4Q396.7 122.7 395.9 122.7L395.9 122.7L395.5 122.7L395.5 121.2L395.7 121.2Q396.2 121.2 396.4 120.9Q396.6 120.7 396.6 120.3L396.6 120.3ZM397.6 112.0L397.6 112.0Q397.1 112.0 396.8 111.7Q396.5 111.4 396.5 111.0L396.5 111.0Q396.5 110.6 396.8 110.3Q397.1 110.0 397.6 110.0L397.6 110.0Q398.0 110.0 398.3 110.3Q398.6 110.6 398.6 111.0L398.6 111.0Q398.6 111.4 398.3 111.7Q398.0 112.0 397.6 112.0ZM403.3 120.1L403.3 120.1Q402.4 120.1 401.7 119.9Q401.1 119.7 400.7 119.2Q400.2 118.7 400.1 118.1L400.1 118.1L401.9 117.8Q402.0 118.2 402.4 118.5Q402.7 118.7 403.3 118.7L403.3 118.7Q403.9 118.7 404.2 118.5Q404.5 118.3 404.5 118.0L404.5 118.0Q404.5 117.7 404.3 117.6Q404.0 117.4 403.6 117.3L403.6 117.3L402.3 117.0Q401.3 116.8 400.8 116.3Q400.3 115.8 400.3 115.0L400.3 115.0Q400.3 114.3 400.7 113.8Q401.0 113.3 401.7 113.1Q402.4 112.8 403.3 112.8L403.3 112.8Q404.1 112.8 404.7 113.0Q405.4 113.3 405.7 113.7Q406.1 114.1 406.2 114.7L406.2 114.7L404.6 115.0Q404.4 114.6 404.1 114.4Q403.8 114.2 403.3 114.2L403.3 114.2Q402.8 114.2 402.5 114.4Q402.2 114.6 402.2 114.9L402.2 114.9Q402.2 115.2 402.4 115.4Q402.6 115.5 403.1 115.6L403.1 115.6L404.4 115.9Q405.4 116.1 405.9 116.6Q406.4 117.0 406.4 117.8L406.4 117.8Q406.4 118.5 406.0 119.0Q405.6 119.6 404.9 119.8Q404.2 120.1 403.3 120.1Z "/></g><defs><clipPath id="satori_bc-id-0-2-3" clip-path="url(#satori_cp-id-0)"><path x="443" y="98" width="110" height="34" d="M451,98 h94 a8,8 0 0 1 8,8 v18 a8,8 0 0 1 -8,8 h-94 a8,8 0 0 1 -8,-8 v-18 a8,8 0 0 1 8,-8"/></clipPath></defs><mask id="satori_om-id-0-2-3"><rect x="444" y="99" width="108" height="32" fill="#fff" mask="url(#satori_om-id-0)"/><path width="110" height="34" fill="none" stroke="#000" stroke-width="2" d="M445.343,100.343 A8,8 0 0 1 451,98 h94 a8,8 0 0 1 8,8 v18 a8,8 0 0 1 -8,8 h-94 a8,8 0 0 1 -8,-8 v-18 A8,8 0 0 1 445.343,100.343"/></mask><path x="443" y="98" width="110" height="34" fill="rgba(0,0,0,0.4)" d="M451,98 h94 a8,8 0 0 1 8,8 v18 a8,8 0 0 1 -8,8 h-94 a8,8 0 0 1 -8,-8 v-18 a8,8 0 0 1 8,-8" clip-path="url(#satori_cp-id-0)" mask="url(#satori_om-id-0)"/><path width="110" height="34" clip-path="url(#satori_bc-id-0-2-3)" fill="none" stroke="rgba(110, 80, 200, 0.5)" stroke-width="2" d="M445.343,100.343 A8,8 0 0 1 451,98 h94 a8,8 0 0 1 8,8 v18 a8,8 0 0 1 -8,8 h-94 a8,8 0 0 1 -8,-8 v-18 A8,8 0 0 1 445.343,100.343"/><g mask="url(#satori_om-id-0)" clip-path="url(#satori_cp-id-0)"><path fill="#6bf0ff" d="M466.8 120L464.9 120L464.9 110.5L468.5 110.5Q469.6 110.5 470.4 110.9Q471.1 111.3 471.5 112.0Q471.9 112.7 471.9 113.6Q471.9 114.6 471.5 115.2Q471.1 115.9 470.4 116.3L470.4 116.3Q470.3 116.3 470.3 116.3L470.3 116.3L472.3 120L470.1 120L468.3 116.6L466.8 116.6L466.8 120ZM466.8 112.1L466.8 115.1L468.2 115.1Q468.8 115.1 469.2 114.9Q469.5 114.7 469.7 114.4Q469.9 114.1 469.9 113.6L469.9 113.6Q469.9 113.1 469.7 112.8Q469.5 112.5 469.2 112.3Q468.8 112.1 468.2 112.1L468.2 112.1L466.8 112.1ZM476.9 120.1L476.9 120.1Q475.8 120.1 475.0 119.7Q474.2 119.3 473.8 118.4Q473.4 117.6 473.4 116.5L473.4 116.5Q473.4 115.4 473.8 114.6Q474.2 113.7 475.0 113.3Q475.7 112.8 476.8 112.8L476.8 112.8Q477.5 112.8 478.1 113.0Q478.7 113.3 479.1 113.7Q479.6 114.2 479.8 114.8Q480.1 115.5 480.1 116.4L480.1 116.4L480.1 116.9L475.2 116.9Q475.3 117.5 475.4 117.9L475.4 117.9Q475.6 118.3 476.0 118.5Q476.4 118.7 476.9 118.7L476.9 118.7Q477.2 118.7 477.5 118.6Q477.8 118.5 478.0 118.3Q478.2 118.1 478.3 117.9L478.3 117.9L480.0 118.2Q479.8 118.8 479.4 119.2Q479.0 119.7 478.3 119.9Q477.7 120.1 476.9 120.1ZM475.2 115.8L475.2 115.8L478.3 115.8Q478.2 115.4 478.1 115.1L478.1 115.1Q477.9 114.7 477.6 114.5Q477.3 114.2 476.8 114.2L476.8 114.2Q476.3 114.2 475.9 114.5Q475.6 114.7 475.4 115.1L475.4 115.1Q475.3 115.4 475.2 115.8ZM483.7 120.1L483.7 120.1Q483.0 120.1 482.5 119.9Q481.9 119.7 481.6 119.2Q481.3 118.7 481.3 118.0L481.3 118.0Q481.3 117.4 481.5 117.0Q481.8 116.6 482.1 116.4Q482.5 116.1 483.0 116.0Q483.5 115.9 484.0 115.8L484.0 115.8Q484.6 115.8 485.0 115.7Q485.4 115.7 485.5 115.5Q485.7 115.4 485.7 115.2L485.7 115.2L485.7 115.2Q485.7 114.9 485.6 114.7Q485.5 114.4 485.2 114.3Q485.0 114.2 484.6 114.2L484.6 114.2Q484.2 114.2 484.0 114.3Q483.7 114.4 483.5 114.6Q483.3 114.8 483.3 115.0L483.3 115.0L481.5 114.8Q481.7 114.1 482.1 113.7Q482.6 113.3 483.2 113.0Q483.8 112.8 484.6 112.8L484.6 112.8Q485.2 112.8 485.7 113.0Q486.3 113.1 486.7 113.4Q487.1 113.7 487.4 114.1Q487.6 114.6 487.6 115.2L487.6 115.2L487.6 120L485.8 120L485.8 119.0L485.8 119.0Q485.6 119.3 485.3 119.6Q485.0 119.8 484.6 120.0Q484.2 120.1 483.7 120.1ZM484.2 118.8L484.2 118.8Q484.7 118.8 485.0 118.6Q485.3 118.4 485.5 118.1Q485.7 117.8 485.7 117.5L485.7 117.5L485.7 116.7Q485.6 116.8 485.5 116.8Q485.3 116.9 485.1 116.9Q484.9 116.9 484.7 117.0Q484.5 117.0 484.3 117.0L484.3 117.0Q484.0 117.1 483.7 117.2Q483.4 117.3 483.3 117.5Q483.1 117.7 483.1 118.0L483.1 118.0Q483.1 118.2 483.3 118.4Q483.4 118.6 483.7 118.7Q483.9 118.8 484.2 118.8ZM492.7 120.1L492.7 120.1Q491.6 120.1 490.9 119.7Q490.1 119.2 489.7 118.4Q489.2 117.6 489.2 116.5L489.2 116.5Q489.2 115.4 489.7 114.6Q490.1 113.7 490.9 113.3Q491.6 112.8 492.7 112.8L492.7 112.8Q493.3 112.8 493.9 113.0Q494.4 113.1 494.8 113.4Q495.2 113.8 495.5 114.2Q495.8 114.6 495.9 115.2L495.9 115.2L494.1 115.5Q494.0 115.2 493.9 115.0Q493.8 114.8 493.6 114.6Q493.5 114.5 493.2 114.4Q493.0 114.3 492.7 114.3L492.7 114.3Q492.2 114.3 491.9 114.6Q491.5 114.9 491.4 115.3Q491.2 115.8 491.2 116.5L491.2 116.5Q491.2 117.1 491.4 117.6Q491.5 118.1 491.9 118.4Q492.2 118.6 492.7 118.6L492.7 118.6Q493.0 118.6 493.2 118.6Q493.5 118.5 493.6 118.3Q493.8 118.1 493.9 117.9Q494.1 117.7 494.1 117.4L494.1 117.4L495.9 117.7Q495.8 118.3 495.5 118.7Q495.2 119.2 494.8 119.5Q494.4 119.8 493.9 120.0Q493.4 120.1 492.7 120.1ZM499.7 112.9L501.0 112.9L501.0 114.4L499.7 114.4L499.7 117.9Q499.7 118.3 499.8 118.4Q500.0 118.6 500.3 118.6L500.3 118.6Q500.4 118.6 500.6 118.6Q500.8 118.5 500.9 118.5L500.9 118.5L501.2 119.9Q500.9 120.0 500.6 120.1Q500.3 120.1 500.0 120.1L500.0 120.1Q498.9 120.1 498.3 119.6Q497.8 119.1 497.8 118.1L497.8 118.1L497.8 114.4L496.8 114.4L496.8 112.9L497.8 112.9L497.8 111.2L499.7 111.2L499.7 112.9Z M508.7 120.1L508.7 120.1Q507.2 120.1 506.4 119.4Q505.5 118.6 505.5 117.2L505.5 117.2L505.5 116.6L507.5 116.6L507.5 117.2Q507.5 117.9 507.8 118.2Q508.2 118.6 508.7 118.6L508.7 118.6Q509.3 118.6 509.6 118.2Q509.9 117.9 509.9 117.2L509.9 117.2L509.9 110.5L511.9 110.5L511.9 117.1Q511.9 118.6 511.0 119.4Q510.2 120.1 508.7 120.1ZM517.3 120.1L517.3 120.1Q516.2 120.1 515.4 119.8Q514.5 119.4 514.1 118.8Q513.6 118.1 513.6 117.1L513.6 117.1L515.4 117.1Q515.5 117.5 515.7 117.9Q516.0 118.2 516.4 118.3Q516.8 118.5 517.3 118.5L517.3 118.5Q517.8 118.5 518.2 118.4Q518.6 118.2 518.8 117.9Q519.0 117.7 519.0 117.3L519.0 117.3Q519.0 117.0 518.8 116.8Q518.7 116.5 518.3 116.4Q517.9 116.2 517.4 116.1L517.4 116.1L516.4 115.8Q515.2 115.5 514.5 114.9Q513.8 114.3 513.8 113.3L513.8 113.3Q513.8 112.4 514.3 111.8Q514.7 111.1 515.5 110.8Q516.3 110.4 517.4 110.4L517.4 110.4Q518.4 110.4 519.2 110.8Q520.0 111.1 520.4 111.8Q520.8 112.4 520.9 113.2L520.9 113.2L519.0 113.2Q518.9 112.7 518.5 112.4Q518.1 112.0 517.3 112.0L517.3 112.0Q516.9 112.0 516.5 112.2Q516.2 112.3 516.0 112.6Q515.8 112.8 515.8 113.1L515.8 113.1Q515.8 113.5 516.0 113.7Q516.2 114.0 516.6 114.1Q516.9 114.2 517.3 114.3L517.3 114.3L518.2 114.5Q518.8 114.7 519.3 114.9Q519.8 115.1 520.2 115.5Q520.6 115.8 520.8 116.3Q521.0 116.7 521.0 117.3L521.0 117.3Q521.0 118.2 520.6 118.8Q520.1 119.4 519.3 119.8Q518.5 120.1 517.3 120.1ZM524.4 120L522.2 120L525.5 115.2L522.5 110.5L524.7 110.5L525.7 112.1Q526.0 112.6 526.2 112.9Q526.4 113.3 526.6 113.6L526.6 113.6Q526.6 113.7 526.7 113.8L526.7 113.8Q526.7 113.7 526.7 113.6L526.7 113.6Q526.9 113.3 527.1 112.9Q527.3 112.6 527.6 112.1L527.6 112.1L528.6 110.5L530.8 110.5L527.8 115.1L531.1 120L528.8 120L527.5 118.0Q527.2 117.6 527.1 117.3Q526.9 117.1 526.8 116.8L526.8 116.8Q526.7 116.7 526.6 116.5L526.6 116.5Q526.6 116.7 526.5 116.8L526.5 116.8Q526.3 117.1 526.2 117.3Q526.0 117.6 525.8 118.0L525.8 118.0L524.4 120Z "/></g><defs><clipPath id="satori_bc-id-0-2-4" clip-path="url(#satori_cp-id-0)"><path x="567" y="98" width="130" height="34" d="M575,98 h114 a8,8 0 0 1 8,8 v18 a8,8 0 0 1 -8,8 h-114 a8,8 0 0 1 -8,-8 v-18 a8,8 0 0 1 8,-8"/></clipPath></defs><mask id="satori_om-id-0-2-4"><rect x="568" y="99" width="128" height="32" fill="#fff" mask="url(#satori_om-id-0)"/><path width="130" height="34" fill="none" stroke="#000" stroke-width="2" d="M569.343,100.343 A8,8 0 0 1 575,98 h114 a8,8 0 0 1 8,8 v18 a8,8 0 0 1 -8,8 h-114 a8,8 0 0 1 -8,-8 v-18 A8,8 0 0 1 569.343,100.343"/></mask><path x="567" y="98" width="130" height="34" fill="rgba(0,0,0,0.4)" d="M575,98 h114 a8,8 0 0 1 8,8 v18 a8,8 0 0 1 -8,8 h-114 a8,8 0 0 1 -8,-8 v-18 a8,8 0 0 1 8,-8" clip-path="url(#satori_cp-id-0)" mask="url(#satori_om-id-0)"/><path width="130" height="34" clip-path="url(#satori_bc-id-0-2-4)" fill="none" stroke="rgba(110, 80, 200, 0.5)" stroke-width="2" d="M569.343,100.343 A8,8 0 0 1 575,98 h114 a8,8 0 0 1 8,8 v18 a8,8 0 0 1 -8,8 h-114 a8,8 0 0 1 -8,-8 v-18 A8,8 0 0 1 569.343,100.343"/><g mask="url(#satori_om-id-0)" clip-path="url(#satori_cp-id-0)"><path fill="#ffc299" d="M591.4 112.1L588.5 112.1L588.5 110.5L596.2 110.5L596.2 112.1L593.3 112.1L593.3 120L591.4 120L591.4 112.1ZM599.8 120.1L599.8 120.1Q599.1 120.1 598.6 119.9Q598.0 119.7 597.7 119.2Q597.4 118.7 597.4 118.0L597.4 118.0Q597.4 117.4 597.6 117.0Q597.8 116.6 598.2 116.4Q598.6 116.1 599.1 116.0Q599.6 115.9 600.1 115.8L600.1 115.8Q600.7 115.8 601.1 115.7Q601.5 115.7 601.6 115.5Q601.8 115.4 601.8 115.2L601.8 115.2L601.8 115.2Q601.8 114.9 601.7 114.7Q601.6 114.4 601.3 114.3Q601.1 114.2 600.7 114.2L600.7 114.2Q600.3 114.2 600.1 114.3Q599.8 114.4 599.6 114.6Q599.4 114.8 599.4 115.0L599.4 115.0L597.6 114.8Q597.8 114.1 598.2 113.7Q598.6 113.3 599.3 113.0Q599.9 112.8 600.7 112.8L600.7 112.8Q601.3 112.8 601.8 113.0Q602.4 113.1 602.8 113.4Q603.2 113.7 603.5 114.1Q603.7 114.6 603.7 115.2L603.7 115.2L603.7 120L601.9 120L601.9 119.0L601.8 119.0Q601.7 119.3 601.4 119.6Q601.1 119.8 600.7 120.0Q600.3 120.1 599.8 120.1ZM600.3 118.8L600.3 118.8Q600.8 118.8 601.1 118.6Q601.4 118.4 601.6 118.1Q601.8 117.8 601.8 117.5L601.8 117.5L601.8 116.7Q601.7 116.8 601.6 116.8Q601.4 116.9 601.2 116.9Q601.0 116.9 600.8 117.0Q600.6 117.0 600.4 117.0L600.4 117.0Q600.1 117.1 599.8 117.2Q599.5 117.3 599.4 117.5Q599.2 117.7 599.2 118.0L599.2 118.0Q599.2 118.2 599.4 118.4Q599.5 118.6 599.8 118.7Q600.0 118.8 600.3 118.8ZM607.5 120L605.6 120L605.6 112.9L607.5 112.9L607.5 120ZM606.6 112.0L606.6 112.0Q606.2 112.0 605.9 111.7Q605.5 111.4 605.5 111.0L605.5 111.0Q605.5 110.6 605.9 110.3Q606.2 110.0 606.6 110.0L606.6 110.0Q607.0 110.0 607.3 110.3Q607.6 110.6 607.6 111.0L607.6 111.0Q607.6 111.4 607.3 111.7Q607.0 112.0 606.6 112.0ZM609.5 110.5L611.4 110.5L611.4 120L609.5 120L609.5 110.5ZM616.7 120L614.8 120L612.7 112.9L614.7 112.9L615.3 115.5Q615.4 116.2 615.6 117.1L615.6 117.1Q615.8 117.6 615.9 118.3L615.9 118.3Q616.0 117.6 616.1 117.1L616.1 117.1Q616.3 116.2 616.5 115.5L616.5 115.5L617.1 112.9L618.9 112.9L619.5 115.5Q619.7 116.2 619.9 117.1L619.9 117.1Q620.0 117.6 620.1 118.3L620.1 118.3Q620.2 117.6 620.3 117.1L620.3 117.1Q620.5 116.2 620.7 115.5L620.7 115.5L621.3 112.9L623.3 112.9L621.2 120L619.3 120L618.5 117.3Q618.4 116.9 618.3 116.4Q618.2 115.9 618.0 115.3L618.0 115.3Q618.0 115.2 618.0 115.1L618.0 115.1Q618.0 115.2 617.9 115.3L617.9 115.3Q617.8 115.9 617.7 116.4Q617.6 116.9 617.5 117.3L617.5 117.3L616.7 120ZM626.5 120L624.6 120L624.6 112.9L626.5 112.9L626.5 120ZM625.6 112.0L625.6 112.0Q625.2 112.0 624.9 111.7Q624.5 111.4 624.5 111.0L624.5 111.0Q624.5 110.6 624.9 110.3Q625.2 110.0 625.6 110.0L625.6 110.0Q626.0 110.0 626.3 110.3Q626.6 110.6 626.6 111.0L626.6 111.0Q626.6 111.4 626.3 111.7Q626.0 112.0 625.6 112.0ZM630.4 115.9L630.4 115.9L630.4 120L628.5 120L628.5 112.9L630.3 112.9L630.3 114.4Q630.6 113.7 631.0 113.3L631.0 113.3Q631.6 112.8 632.5 112.8L632.5 112.8Q633.2 112.8 633.8 113.1Q634.3 113.5 634.6 114.1Q634.9 114.7 634.9 115.5L634.9 115.5L634.9 120L633.0 120L633.0 115.8Q633.0 115.2 632.7 114.8Q632.3 114.4 631.7 114.4L631.7 114.4Q631.3 114.4 631.0 114.6Q630.7 114.8 630.5 115.1Q630.4 115.4 630.4 115.9ZM639.4 120.1L639.4 120.1Q638.6 120.1 638.0 119.7Q637.3 119.3 636.9 118.5Q636.6 117.6 636.6 116.5L636.6 116.5Q636.6 115.3 636.9 114.4Q637.3 113.6 638.0 113.2Q638.6 112.8 639.4 112.8L639.4 112.8Q640.0 112.8 640.4 113.0Q640.8 113.2 641.1 113.5Q641.3 113.8 641.5 114.1L641.5 114.1L641.5 114.1L641.5 110.5L643.4 110.5L643.4 120L641.5 120L641.5 118.9L641.5 118.9Q641.3 119.1 641.1 119.4Q640.8 119.7 640.4 119.9Q640.0 120.1 639.4 120.1ZM640.0 118.6L640.0 118.6Q640.5 118.6 640.9 118.3Q641.2 118.1 641.4 117.6Q641.6 117.1 641.6 116.5L641.6 116.5Q641.6 115.8 641.4 115.3Q641.2 114.9 640.9 114.6Q640.5 114.3 640.0 114.3L640.0 114.3Q639.5 114.3 639.2 114.6Q638.8 114.9 638.7 115.4Q638.5 115.8 638.5 116.5L638.5 116.5Q638.5 117.1 638.7 117.6Q638.9 118.0 639.2 118.3Q639.5 118.6 640.0 118.6Z M652.9 120.1L652.9 120.1Q651.6 120.1 650.7 119.6Q649.7 119.0 649.1 117.9Q648.5 116.8 648.5 115.3L648.5 115.3Q648.5 113.7 649.1 112.6Q649.7 111.6 650.7 111.0Q651.7 110.4 652.9 110.4L652.9 110.4Q653.7 110.4 654.4 110.6Q655.1 110.9 655.6 111.3Q656.2 111.7 656.5 112.4Q656.9 113.0 657.0 113.8L657.0 113.8L655.0 113.8Q654.9 113.4 654.8 113.1Q654.6 112.8 654.3 112.6Q654.0 112.4 653.7 112.2Q653.3 112.1 652.9 112.1L652.9 112.1Q652.2 112.1 651.6 112.5Q651.1 112.9 650.8 113.6Q650.5 114.3 650.5 115.3L650.5 115.3Q650.5 116.3 650.8 117.0Q651.1 117.7 651.7 118.1Q652.2 118.4 652.9 118.4L652.9 118.4Q653.3 118.4 653.7 118.3Q654.0 118.2 654.3 118.0Q654.6 117.8 654.8 117.5Q654.9 117.1 655.0 116.8L655.0 116.8L657.0 116.8Q656.9 117.4 656.6 118.0Q656.3 118.6 655.8 119.1Q655.2 119.6 654.5 119.9Q653.8 120.1 652.9 120.1ZM662.2 120.1L662.2 120.1Q661.0 120.1 660.2 119.8Q659.3 119.4 658.9 118.8Q658.4 118.1 658.4 117.1L658.4 117.1L660.3 117.1Q660.3 117.5 660.5 117.9Q660.8 118.2 661.2 118.3Q661.6 118.5 662.1 118.5L662.1 118.5Q662.7 118.5 663.0 118.4Q663.4 118.2 663.6 117.9Q663.9 117.7 663.9 117.3L663.9 117.3Q663.9 117.0 663.7 116.8Q663.5 116.5 663.1 116.4Q662.7 116.2 662.2 116.1L662.2 116.1L661.2 115.8Q660.0 115.5 659.3 114.9Q658.6 114.3 658.6 113.3L658.6 113.3Q658.6 112.4 659.1 111.8Q659.5 111.1 660.3 110.8Q661.1 110.4 662.2 110.4L662.2 110.4Q663.2 110.4 664.0 110.8Q664.8 111.1 665.2 111.8Q665.7 112.4 665.7 113.2L665.7 113.2L663.8 113.2Q663.8 112.7 663.3 112.4Q662.9 112.0 662.2 112.0L662.2 112.0Q661.7 112.0 661.3 112.2Q661.0 112.3 660.8 112.6Q660.6 112.8 660.6 113.1L660.6 113.1Q660.6 113.5 660.8 113.7Q661.0 114.0 661.4 114.1Q661.7 114.2 662.1 114.3L662.1 114.3L663.0 114.5Q663.6 114.7 664.1 114.9Q664.6 115.1 665.0 115.5Q665.4 115.8 665.6 116.3Q665.8 116.7 665.8 117.3L665.8 117.3Q665.8 118.2 665.4 118.8Q664.9 119.4 664.1 119.8Q663.3 120.1 662.2 120.1ZM671.0 120.1L671.0 120.1Q669.8 120.1 669.0 119.8Q668.1 119.4 667.7 118.8Q667.2 118.1 667.2 117.1L667.2 117.1L669.1 117.1Q669.1 117.5 669.4 117.9Q669.6 118.2 670.0 118.3Q670.4 118.5 670.9 118.5L670.9 118.5Q671.5 118.5 671.8 118.4Q672.2 118.2 672.4 117.9Q672.7 117.7 672.7 117.3L672.7 117.3Q672.7 117.0 672.5 116.8Q672.3 116.5 671.9 116.4Q671.6 116.2 671.0 116.1L671.0 116.1L670.0 115.8Q668.8 115.5 668.1 114.9Q667.4 114.3 667.4 113.3L667.4 113.3Q667.4 112.4 667.9 111.8Q668.4 111.1 669.2 110.8Q670.0 110.4 671.0 110.4L671.0 110.4Q672.0 110.4 672.8 110.8Q673.6 111.1 674.0 111.8Q674.5 112.4 674.5 113.2L674.5 113.2L672.6 113.2Q672.6 112.7 672.1 112.4Q671.7 112.0 671.0 112.0L671.0 112.0Q670.5 112.0 670.1 112.2Q669.8 112.3 669.6 112.6Q669.4 112.8 669.4 113.1L669.4 113.1Q669.4 113.5 669.6 113.7Q669.8 114.0 670.2 114.1Q670.5 114.2 670.9 114.3L670.9 114.3L671.8 114.5Q672.4 114.7 672.9 114.9Q673.4 115.1 673.8 115.5Q674.2 115.8 674.4 116.3Q674.6 116.7 674.6 117.3L674.6 117.3Q674.6 118.2 674.2 118.8Q673.7 119.4 672.9 119.8Q672.1 120.1 671.0 120.1Z "/></g></svg>